G04 #@! TF.GenerationSoftware,KiCad,Pcbnew,(5.0.2)-1*
G04 #@! TF.CreationDate,2019-10-12T16:15:27+09:00*
G04 #@! TF.ProjectId,High_range_accelerometer,48696768-5f72-4616-9e67-655f61636365,rev?*
G04 #@! TF.SameCoordinates,Original*
G04 #@! TF.FileFunction,Soldermask,Top*
G04 #@! TF.FilePolarity,Negative*
%FSLAX46Y46*%
G04 Gerber Fmt 4.6, Leading zero omitted, Abs format (unit mm)*
G04 Created by KiCad (PCBNEW (5.0.2)-1) date 2019/10/12 16:15:27*
%MOMM*%
%LPD*%
G01*
G04 APERTURE LIST*
%ADD10C,0.100000*%
G04 APERTURE END LIST*
D10*
G36*
X117225256Y-111741298D02*
X117331579Y-111762447D01*
X117632042Y-111886903D01*
X117898852Y-112065180D01*
X117902454Y-112067587D01*
X118132413Y-112297546D01*
X118313098Y-112567960D01*
X118437553Y-112868422D01*
X118501000Y-113187389D01*
X118501000Y-113512611D01*
X118437553Y-113831578D01*
X118313098Y-114132040D01*
X118132413Y-114402454D01*
X117902454Y-114632413D01*
X117902451Y-114632415D01*
X117632042Y-114813097D01*
X117331579Y-114937553D01*
X117225256Y-114958702D01*
X117012611Y-115001000D01*
X116687389Y-115001000D01*
X116474744Y-114958702D01*
X116368421Y-114937553D01*
X116067958Y-114813097D01*
X115797549Y-114632415D01*
X115797546Y-114632413D01*
X115567587Y-114402454D01*
X115386902Y-114132040D01*
X115262447Y-113831578D01*
X115199000Y-113512611D01*
X115199000Y-113187389D01*
X115262447Y-112868422D01*
X115386902Y-112567960D01*
X115567587Y-112297546D01*
X115797546Y-112067587D01*
X115801148Y-112065180D01*
X116067958Y-111886903D01*
X116368421Y-111762447D01*
X116474744Y-111741298D01*
X116687389Y-111699000D01*
X117012611Y-111699000D01*
X117225256Y-111741298D01*
X117225256Y-111741298D01*
G37*
G36*
X97225256Y-111741298D02*
X97331579Y-111762447D01*
X97632042Y-111886903D01*
X97898852Y-112065180D01*
X97902454Y-112067587D01*
X98132413Y-112297546D01*
X98313098Y-112567960D01*
X98437553Y-112868422D01*
X98501000Y-113187389D01*
X98501000Y-113512611D01*
X98437553Y-113831578D01*
X98313098Y-114132040D01*
X98132413Y-114402454D01*
X97902454Y-114632413D01*
X97902451Y-114632415D01*
X97632042Y-114813097D01*
X97331579Y-114937553D01*
X97225256Y-114958702D01*
X97012611Y-115001000D01*
X96687389Y-115001000D01*
X96474744Y-114958702D01*
X96368421Y-114937553D01*
X96067958Y-114813097D01*
X95797549Y-114632415D01*
X95797546Y-114632413D01*
X95567587Y-114402454D01*
X95386902Y-114132040D01*
X95262447Y-113831578D01*
X95199000Y-113512611D01*
X95199000Y-113187389D01*
X95262447Y-112868422D01*
X95386902Y-112567960D01*
X95567587Y-112297546D01*
X95797546Y-112067587D01*
X95801148Y-112065180D01*
X96067958Y-111886903D01*
X96368421Y-111762447D01*
X96474744Y-111741298D01*
X96687389Y-111699000D01*
X97012611Y-111699000D01*
X97225256Y-111741298D01*
X97225256Y-111741298D01*
G37*
G36*
X108999720Y-109930160D02*
X104197720Y-109930160D01*
X104197720Y-105228160D01*
X108999720Y-105228160D01*
X108999720Y-109930160D01*
X108999720Y-109930160D01*
G37*
G36*
X103149720Y-109735160D02*
X102047720Y-109735160D01*
X102047720Y-109233160D01*
X103149720Y-109233160D01*
X103149720Y-109735160D01*
X103149720Y-109735160D01*
G37*
G36*
X111149720Y-109735160D02*
X110047720Y-109735160D01*
X110047720Y-109233160D01*
X111149720Y-109233160D01*
X111149720Y-109735160D01*
X111149720Y-109735160D01*
G37*
G36*
X103149720Y-108465160D02*
X102047720Y-108465160D01*
X102047720Y-107963160D01*
X103149720Y-107963160D01*
X103149720Y-108465160D01*
X103149720Y-108465160D01*
G37*
G36*
X111149720Y-108465160D02*
X110047720Y-108465160D01*
X110047720Y-107963160D01*
X111149720Y-107963160D01*
X111149720Y-108465160D01*
X111149720Y-108465160D01*
G37*
G36*
X95750620Y-107504160D02*
X93748620Y-107504160D01*
X93748620Y-105302160D01*
X95750620Y-105302160D01*
X95750620Y-107504160D01*
X95750620Y-107504160D01*
G37*
G36*
X103149720Y-107195160D02*
X102047720Y-107195160D01*
X102047720Y-106693160D01*
X103149720Y-106693160D01*
X103149720Y-107195160D01*
X103149720Y-107195160D01*
G37*
G36*
X111149720Y-107195160D02*
X110047720Y-107195160D01*
X110047720Y-106693160D01*
X111149720Y-106693160D01*
X111149720Y-107195160D01*
X111149720Y-107195160D01*
G37*
G36*
X103149720Y-105925160D02*
X102047720Y-105925160D01*
X102047720Y-105423160D01*
X103149720Y-105423160D01*
X103149720Y-105925160D01*
X103149720Y-105925160D01*
G37*
G36*
X111149720Y-105925160D02*
X110047720Y-105925160D01*
X110047720Y-105423160D01*
X111149720Y-105423160D01*
X111149720Y-105925160D01*
X111149720Y-105925160D01*
G37*
G36*
X97962536Y-104610494D02*
X98071112Y-104643431D01*
X98171177Y-104696916D01*
X98258884Y-104768896D01*
X98330864Y-104856603D01*
X98384349Y-104956668D01*
X98417286Y-105065244D01*
X98428407Y-105178160D01*
X98417286Y-105291076D01*
X98384349Y-105399652D01*
X98330864Y-105499717D01*
X98258884Y-105587424D01*
X98171177Y-105659404D01*
X98071112Y-105712889D01*
X97962536Y-105745826D01*
X97877918Y-105754160D01*
X97621322Y-105754160D01*
X97536704Y-105745826D01*
X97428128Y-105712889D01*
X97328063Y-105659404D01*
X97240356Y-105587424D01*
X97168376Y-105499717D01*
X97114891Y-105399652D01*
X97081954Y-105291076D01*
X97070833Y-105178160D01*
X97081954Y-105065244D01*
X97114891Y-104956668D01*
X97168376Y-104856603D01*
X97240356Y-104768896D01*
X97328063Y-104696916D01*
X97428128Y-104643431D01*
X97536704Y-104610494D01*
X97621322Y-104602160D01*
X97877918Y-104602160D01*
X97962536Y-104610494D01*
X97962536Y-104610494D01*
G37*
G36*
X95750620Y-104854160D02*
X93748620Y-104854160D01*
X93748620Y-102952160D01*
X95750620Y-102952160D01*
X95750620Y-104854160D01*
X95750620Y-104854160D01*
G37*
G36*
X98150620Y-104304160D02*
X96698620Y-104304160D01*
X96698620Y-101202160D01*
X98150620Y-101202160D01*
X98150620Y-104304160D01*
X98150620Y-104304160D01*
G37*
G36*
X95750620Y-102554160D02*
X93748620Y-102554160D01*
X93748620Y-100652160D01*
X95750620Y-100652160D01*
X95750620Y-102554160D01*
X95750620Y-102554160D01*
G37*
G36*
X105064558Y-101815376D02*
X105085176Y-101821630D01*
X105104176Y-101831786D01*
X105120828Y-101845452D01*
X105134494Y-101862104D01*
X105144650Y-101881104D01*
X105150904Y-101901722D01*
X105153620Y-101929300D01*
X105153620Y-102388020D01*
X105150904Y-102415598D01*
X105144650Y-102436216D01*
X105134494Y-102455216D01*
X105120828Y-102471868D01*
X105104176Y-102485534D01*
X105085176Y-102495690D01*
X105064558Y-102501944D01*
X105036980Y-102504660D01*
X104528260Y-102504660D01*
X104500682Y-102501944D01*
X104480064Y-102495690D01*
X104461064Y-102485534D01*
X104444412Y-102471868D01*
X104430746Y-102455216D01*
X104420590Y-102436216D01*
X104414336Y-102415598D01*
X104411620Y-102388020D01*
X104411620Y-101929300D01*
X104414336Y-101901722D01*
X104420590Y-101881104D01*
X104430746Y-101862104D01*
X104444412Y-101845452D01*
X104461064Y-101831786D01*
X104480064Y-101821630D01*
X104500682Y-101815376D01*
X104528260Y-101812660D01*
X105036980Y-101812660D01*
X105064558Y-101815376D01*
X105064558Y-101815376D01*
G37*
G36*
X107393738Y-101815376D02*
X107414356Y-101821630D01*
X107433356Y-101831786D01*
X107450008Y-101845452D01*
X107463674Y-101862104D01*
X107473830Y-101881104D01*
X107480084Y-101901722D01*
X107482800Y-101929300D01*
X107482800Y-102388020D01*
X107480084Y-102415598D01*
X107473830Y-102436216D01*
X107463674Y-102455216D01*
X107450008Y-102471868D01*
X107433356Y-102485534D01*
X107414356Y-102495690D01*
X107393738Y-102501944D01*
X107366160Y-102504660D01*
X106857440Y-102504660D01*
X106829862Y-102501944D01*
X106809244Y-102495690D01*
X106790244Y-102485534D01*
X106773592Y-102471868D01*
X106759926Y-102455216D01*
X106749770Y-102436216D01*
X106743516Y-102415598D01*
X106740800Y-102388020D01*
X106740800Y-101929300D01*
X106743516Y-101901722D01*
X106749770Y-101881104D01*
X106759926Y-101862104D01*
X106773592Y-101845452D01*
X106790244Y-101831786D01*
X106809244Y-101821630D01*
X106829862Y-101815376D01*
X106857440Y-101812660D01*
X107366160Y-101812660D01*
X107393738Y-101815376D01*
X107393738Y-101815376D01*
G37*
G36*
X108569758Y-101815376D02*
X108590376Y-101821630D01*
X108609376Y-101831786D01*
X108626028Y-101845452D01*
X108639694Y-101862104D01*
X108649850Y-101881104D01*
X108656104Y-101901722D01*
X108658820Y-101929300D01*
X108658820Y-102388020D01*
X108656104Y-102415598D01*
X108649850Y-102436216D01*
X108639694Y-102455216D01*
X108626028Y-102471868D01*
X108609376Y-102485534D01*
X108590376Y-102495690D01*
X108569758Y-102501944D01*
X108542180Y-102504660D01*
X108033460Y-102504660D01*
X108005882Y-102501944D01*
X107985264Y-102495690D01*
X107966264Y-102485534D01*
X107949612Y-102471868D01*
X107935946Y-102455216D01*
X107925790Y-102436216D01*
X107919536Y-102415598D01*
X107916820Y-102388020D01*
X107916820Y-101929300D01*
X107919536Y-101901722D01*
X107925790Y-101881104D01*
X107935946Y-101862104D01*
X107949612Y-101845452D01*
X107966264Y-101831786D01*
X107985264Y-101821630D01*
X108005882Y-101815376D01*
X108033460Y-101812660D01*
X108542180Y-101812660D01*
X108569758Y-101815376D01*
X108569758Y-101815376D01*
G37*
G36*
X106232958Y-101815376D02*
X106253576Y-101821630D01*
X106272576Y-101831786D01*
X106289228Y-101845452D01*
X106302894Y-101862104D01*
X106313050Y-101881104D01*
X106319304Y-101901722D01*
X106322020Y-101929300D01*
X106322020Y-102388020D01*
X106319304Y-102415598D01*
X106313050Y-102436216D01*
X106302894Y-102455216D01*
X106289228Y-102471868D01*
X106272576Y-102485534D01*
X106253576Y-102495690D01*
X106232958Y-102501944D01*
X106205380Y-102504660D01*
X105696660Y-102504660D01*
X105669082Y-102501944D01*
X105648464Y-102495690D01*
X105629464Y-102485534D01*
X105612812Y-102471868D01*
X105599146Y-102455216D01*
X105588990Y-102436216D01*
X105582736Y-102415598D01*
X105580020Y-102388020D01*
X105580020Y-101929300D01*
X105582736Y-101901722D01*
X105588990Y-101881104D01*
X105599146Y-101862104D01*
X105612812Y-101845452D01*
X105629464Y-101831786D01*
X105648464Y-101821630D01*
X105669082Y-101815376D01*
X105696660Y-101812660D01*
X106205380Y-101812660D01*
X106232958Y-101815376D01*
X106232958Y-101815376D01*
G37*
G36*
X109738158Y-101815376D02*
X109758776Y-101821630D01*
X109777776Y-101831786D01*
X109794428Y-101845452D01*
X109808094Y-101862104D01*
X109818250Y-101881104D01*
X109824504Y-101901722D01*
X109827220Y-101929300D01*
X109827220Y-102388020D01*
X109824504Y-102415598D01*
X109818250Y-102436216D01*
X109808094Y-102455216D01*
X109794428Y-102471868D01*
X109777776Y-102485534D01*
X109758776Y-102495690D01*
X109738158Y-102501944D01*
X109710580Y-102504660D01*
X109201860Y-102504660D01*
X109174282Y-102501944D01*
X109153664Y-102495690D01*
X109134664Y-102485534D01*
X109118012Y-102471868D01*
X109104346Y-102455216D01*
X109094190Y-102436216D01*
X109087936Y-102415598D01*
X109085220Y-102388020D01*
X109085220Y-101929300D01*
X109087936Y-101901722D01*
X109094190Y-101881104D01*
X109104346Y-101862104D01*
X109118012Y-101845452D01*
X109134664Y-101831786D01*
X109153664Y-101821630D01*
X109174282Y-101815376D01*
X109201860Y-101812660D01*
X109710580Y-101812660D01*
X109738158Y-101815376D01*
X109738158Y-101815376D01*
G37*
G36*
X110906558Y-101815376D02*
X110927176Y-101821630D01*
X110946176Y-101831786D01*
X110962828Y-101845452D01*
X110976494Y-101862104D01*
X110986650Y-101881104D01*
X110992904Y-101901722D01*
X110995620Y-101929300D01*
X110995620Y-102388020D01*
X110992904Y-102415598D01*
X110986650Y-102436216D01*
X110976494Y-102455216D01*
X110962828Y-102471868D01*
X110946176Y-102485534D01*
X110927176Y-102495690D01*
X110906558Y-102501944D01*
X110878980Y-102504660D01*
X110370260Y-102504660D01*
X110342682Y-102501944D01*
X110322064Y-102495690D01*
X110303064Y-102485534D01*
X110286412Y-102471868D01*
X110272746Y-102455216D01*
X110262590Y-102436216D01*
X110256336Y-102415598D01*
X110253620Y-102388020D01*
X110253620Y-101929300D01*
X110256336Y-101901722D01*
X110262590Y-101881104D01*
X110272746Y-101862104D01*
X110286412Y-101845452D01*
X110303064Y-101831786D01*
X110322064Y-101821630D01*
X110342682Y-101815376D01*
X110370260Y-101812660D01*
X110878980Y-101812660D01*
X110906558Y-101815376D01*
X110906558Y-101815376D01*
G37*
G36*
X112092738Y-101792516D02*
X112113356Y-101798770D01*
X112132356Y-101808926D01*
X112149008Y-101822592D01*
X112162674Y-101839244D01*
X112172830Y-101858244D01*
X112179084Y-101878862D01*
X112181800Y-101906440D01*
X112181800Y-102365160D01*
X112179084Y-102392738D01*
X112172830Y-102413356D01*
X112162674Y-102432356D01*
X112149008Y-102449008D01*
X112132356Y-102462674D01*
X112113356Y-102472830D01*
X112092738Y-102479084D01*
X112065160Y-102481800D01*
X111556440Y-102481800D01*
X111528862Y-102479084D01*
X111508244Y-102472830D01*
X111489244Y-102462674D01*
X111472592Y-102449008D01*
X111458926Y-102432356D01*
X111448770Y-102413356D01*
X111442516Y-102392738D01*
X111439800Y-102365160D01*
X111439800Y-101906440D01*
X111442516Y-101878862D01*
X111448770Y-101858244D01*
X111458926Y-101839244D01*
X111472592Y-101822592D01*
X111489244Y-101808926D01*
X111508244Y-101798770D01*
X111528862Y-101792516D01*
X111556440Y-101789800D01*
X112065160Y-101789800D01*
X112092738Y-101792516D01*
X112092738Y-101792516D01*
G37*
G36*
X109738158Y-100845376D02*
X109758776Y-100851630D01*
X109777776Y-100861786D01*
X109794428Y-100875452D01*
X109808094Y-100892104D01*
X109818250Y-100911104D01*
X109824504Y-100931722D01*
X109827220Y-100959300D01*
X109827220Y-101418020D01*
X109824504Y-101445598D01*
X109818250Y-101466216D01*
X109808094Y-101485216D01*
X109794428Y-101501868D01*
X109777776Y-101515534D01*
X109758776Y-101525690D01*
X109738158Y-101531944D01*
X109710580Y-101534660D01*
X109201860Y-101534660D01*
X109174282Y-101531944D01*
X109153664Y-101525690D01*
X109134664Y-101515534D01*
X109118012Y-101501868D01*
X109104346Y-101485216D01*
X109094190Y-101466216D01*
X109087936Y-101445598D01*
X109085220Y-101418020D01*
X109085220Y-100959300D01*
X109087936Y-100931722D01*
X109094190Y-100911104D01*
X109104346Y-100892104D01*
X109118012Y-100875452D01*
X109134664Y-100861786D01*
X109153664Y-100851630D01*
X109174282Y-100845376D01*
X109201860Y-100842660D01*
X109710580Y-100842660D01*
X109738158Y-100845376D01*
X109738158Y-100845376D01*
G37*
G36*
X110906558Y-100845376D02*
X110927176Y-100851630D01*
X110946176Y-100861786D01*
X110962828Y-100875452D01*
X110976494Y-100892104D01*
X110986650Y-100911104D01*
X110992904Y-100931722D01*
X110995620Y-100959300D01*
X110995620Y-101418020D01*
X110992904Y-101445598D01*
X110986650Y-101466216D01*
X110976494Y-101485216D01*
X110962828Y-101501868D01*
X110946176Y-101515534D01*
X110927176Y-101525690D01*
X110906558Y-101531944D01*
X110878980Y-101534660D01*
X110370260Y-101534660D01*
X110342682Y-101531944D01*
X110322064Y-101525690D01*
X110303064Y-101515534D01*
X110286412Y-101501868D01*
X110272746Y-101485216D01*
X110262590Y-101466216D01*
X110256336Y-101445598D01*
X110253620Y-101418020D01*
X110253620Y-100959300D01*
X110256336Y-100931722D01*
X110262590Y-100911104D01*
X110272746Y-100892104D01*
X110286412Y-100875452D01*
X110303064Y-100861786D01*
X110322064Y-100851630D01*
X110342682Y-100845376D01*
X110370260Y-100842660D01*
X110878980Y-100842660D01*
X110906558Y-100845376D01*
X110906558Y-100845376D01*
G37*
G36*
X108569758Y-100845376D02*
X108590376Y-100851630D01*
X108609376Y-100861786D01*
X108626028Y-100875452D01*
X108639694Y-100892104D01*
X108649850Y-100911104D01*
X108656104Y-100931722D01*
X108658820Y-100959300D01*
X108658820Y-101418020D01*
X108656104Y-101445598D01*
X108649850Y-101466216D01*
X108639694Y-101485216D01*
X108626028Y-101501868D01*
X108609376Y-101515534D01*
X108590376Y-101525690D01*
X108569758Y-101531944D01*
X108542180Y-101534660D01*
X108033460Y-101534660D01*
X108005882Y-101531944D01*
X107985264Y-101525690D01*
X107966264Y-101515534D01*
X107949612Y-101501868D01*
X107935946Y-101485216D01*
X107925790Y-101466216D01*
X107919536Y-101445598D01*
X107916820Y-101418020D01*
X107916820Y-100959300D01*
X107919536Y-100931722D01*
X107925790Y-100911104D01*
X107935946Y-100892104D01*
X107949612Y-100875452D01*
X107966264Y-100861786D01*
X107985264Y-100851630D01*
X108005882Y-100845376D01*
X108033460Y-100842660D01*
X108542180Y-100842660D01*
X108569758Y-100845376D01*
X108569758Y-100845376D01*
G37*
G36*
X107393738Y-100845376D02*
X107414356Y-100851630D01*
X107433356Y-100861786D01*
X107450008Y-100875452D01*
X107463674Y-100892104D01*
X107473830Y-100911104D01*
X107480084Y-100931722D01*
X107482800Y-100959300D01*
X107482800Y-101418020D01*
X107480084Y-101445598D01*
X107473830Y-101466216D01*
X107463674Y-101485216D01*
X107450008Y-101501868D01*
X107433356Y-101515534D01*
X107414356Y-101525690D01*
X107393738Y-101531944D01*
X107366160Y-101534660D01*
X106857440Y-101534660D01*
X106829862Y-101531944D01*
X106809244Y-101525690D01*
X106790244Y-101515534D01*
X106773592Y-101501868D01*
X106759926Y-101485216D01*
X106749770Y-101466216D01*
X106743516Y-101445598D01*
X106740800Y-101418020D01*
X106740800Y-100959300D01*
X106743516Y-100931722D01*
X106749770Y-100911104D01*
X106759926Y-100892104D01*
X106773592Y-100875452D01*
X106790244Y-100861786D01*
X106809244Y-100851630D01*
X106829862Y-100845376D01*
X106857440Y-100842660D01*
X107366160Y-100842660D01*
X107393738Y-100845376D01*
X107393738Y-100845376D01*
G37*
G36*
X106232958Y-100845376D02*
X106253576Y-100851630D01*
X106272576Y-100861786D01*
X106289228Y-100875452D01*
X106302894Y-100892104D01*
X106313050Y-100911104D01*
X106319304Y-100931722D01*
X106322020Y-100959300D01*
X106322020Y-101418020D01*
X106319304Y-101445598D01*
X106313050Y-101466216D01*
X106302894Y-101485216D01*
X106289228Y-101501868D01*
X106272576Y-101515534D01*
X106253576Y-101525690D01*
X106232958Y-101531944D01*
X106205380Y-101534660D01*
X105696660Y-101534660D01*
X105669082Y-101531944D01*
X105648464Y-101525690D01*
X105629464Y-101515534D01*
X105612812Y-101501868D01*
X105599146Y-101485216D01*
X105588990Y-101466216D01*
X105582736Y-101445598D01*
X105580020Y-101418020D01*
X105580020Y-100959300D01*
X105582736Y-100931722D01*
X105588990Y-100911104D01*
X105599146Y-100892104D01*
X105612812Y-100875452D01*
X105629464Y-100861786D01*
X105648464Y-100851630D01*
X105669082Y-100845376D01*
X105696660Y-100842660D01*
X106205380Y-100842660D01*
X106232958Y-100845376D01*
X106232958Y-100845376D01*
G37*
G36*
X105064558Y-100845376D02*
X105085176Y-100851630D01*
X105104176Y-100861786D01*
X105120828Y-100875452D01*
X105134494Y-100892104D01*
X105144650Y-100911104D01*
X105150904Y-100931722D01*
X105153620Y-100959300D01*
X105153620Y-101418020D01*
X105150904Y-101445598D01*
X105144650Y-101466216D01*
X105134494Y-101485216D01*
X105120828Y-101501868D01*
X105104176Y-101515534D01*
X105085176Y-101525690D01*
X105064558Y-101531944D01*
X105036980Y-101534660D01*
X104528260Y-101534660D01*
X104500682Y-101531944D01*
X104480064Y-101525690D01*
X104461064Y-101515534D01*
X104444412Y-101501868D01*
X104430746Y-101485216D01*
X104420590Y-101466216D01*
X104414336Y-101445598D01*
X104411620Y-101418020D01*
X104411620Y-100959300D01*
X104414336Y-100931722D01*
X104420590Y-100911104D01*
X104430746Y-100892104D01*
X104444412Y-100875452D01*
X104461064Y-100861786D01*
X104480064Y-100851630D01*
X104500682Y-100845376D01*
X104528260Y-100842660D01*
X105036980Y-100842660D01*
X105064558Y-100845376D01*
X105064558Y-100845376D01*
G37*
G36*
X112092738Y-100822516D02*
X112113356Y-100828770D01*
X112132356Y-100838926D01*
X112149008Y-100852592D01*
X112162674Y-100869244D01*
X112172830Y-100888244D01*
X112179084Y-100908862D01*
X112181800Y-100936440D01*
X112181800Y-101395160D01*
X112179084Y-101422738D01*
X112172830Y-101443356D01*
X112162674Y-101462356D01*
X112149008Y-101479008D01*
X112132356Y-101492674D01*
X112113356Y-101502830D01*
X112092738Y-101509084D01*
X112065160Y-101511800D01*
X111556440Y-101511800D01*
X111528862Y-101509084D01*
X111508244Y-101502830D01*
X111489244Y-101492674D01*
X111472592Y-101479008D01*
X111458926Y-101462356D01*
X111448770Y-101443356D01*
X111442516Y-101422738D01*
X111439800Y-101395160D01*
X111439800Y-100936440D01*
X111442516Y-100908862D01*
X111448770Y-100888244D01*
X111458926Y-100869244D01*
X111472592Y-100852592D01*
X111489244Y-100838926D01*
X111508244Y-100828770D01*
X111528862Y-100822516D01*
X111556440Y-100819800D01*
X112065160Y-100819800D01*
X112092738Y-100822516D01*
X112092738Y-100822516D01*
G37*
G36*
X97962536Y-99760494D02*
X98071112Y-99793431D01*
X98171177Y-99846916D01*
X98258884Y-99918896D01*
X98330864Y-100006603D01*
X98384349Y-100106668D01*
X98417286Y-100215244D01*
X98428407Y-100328160D01*
X98417286Y-100441076D01*
X98384349Y-100549652D01*
X98330864Y-100649717D01*
X98258884Y-100737424D01*
X98171177Y-100809404D01*
X98071112Y-100862889D01*
X97962536Y-100895826D01*
X97877918Y-100904160D01*
X97621322Y-100904160D01*
X97536704Y-100895826D01*
X97428128Y-100862889D01*
X97328063Y-100809404D01*
X97240356Y-100737424D01*
X97168376Y-100649717D01*
X97114891Y-100549652D01*
X97081954Y-100441076D01*
X97070833Y-100328160D01*
X97081954Y-100215244D01*
X97114891Y-100106668D01*
X97168376Y-100006603D01*
X97240356Y-99918896D01*
X97328063Y-99846916D01*
X97428128Y-99793431D01*
X97536704Y-99760494D01*
X97621322Y-99752160D01*
X97877918Y-99752160D01*
X97962536Y-99760494D01*
X97962536Y-99760494D01*
G37*
G36*
X95750620Y-100204160D02*
X93748620Y-100204160D01*
X93748620Y-98002160D01*
X95750620Y-98002160D01*
X95750620Y-100204160D01*
X95750620Y-100204160D01*
G37*
G36*
X103005683Y-91144098D02*
X103026301Y-91150352D01*
X103045301Y-91160508D01*
X103066726Y-91178091D01*
X103391083Y-91502448D01*
X103408666Y-91523873D01*
X103418822Y-91542873D01*
X103425076Y-91563491D01*
X103427187Y-91584929D01*
X103425076Y-91606367D01*
X103418822Y-91626985D01*
X103408666Y-91645985D01*
X103391083Y-91667410D01*
X103031370Y-92027123D01*
X103009945Y-92044706D01*
X102990945Y-92054862D01*
X102970327Y-92061116D01*
X102948889Y-92063227D01*
X102927451Y-92061116D01*
X102906833Y-92054862D01*
X102887833Y-92044706D01*
X102866408Y-92027123D01*
X102542051Y-91702766D01*
X102524468Y-91681341D01*
X102514312Y-91662341D01*
X102508058Y-91641723D01*
X102505947Y-91620285D01*
X102508058Y-91598847D01*
X102514312Y-91578229D01*
X102524468Y-91559229D01*
X102542051Y-91537804D01*
X102901764Y-91178091D01*
X102923189Y-91160508D01*
X102942189Y-91150352D01*
X102962807Y-91144098D01*
X102984245Y-91141987D01*
X103005683Y-91144098D01*
X103005683Y-91144098D01*
G37*
G36*
X102319789Y-90458204D02*
X102340407Y-90464458D01*
X102359407Y-90474614D01*
X102380832Y-90492197D01*
X102705189Y-90816554D01*
X102722772Y-90837979D01*
X102732928Y-90856979D01*
X102739182Y-90877597D01*
X102741293Y-90899035D01*
X102739182Y-90920473D01*
X102732928Y-90941091D01*
X102722772Y-90960091D01*
X102705189Y-90981516D01*
X102345476Y-91341229D01*
X102324051Y-91358812D01*
X102305051Y-91368968D01*
X102284433Y-91375222D01*
X102262995Y-91377333D01*
X102241557Y-91375222D01*
X102220939Y-91368968D01*
X102201939Y-91358812D01*
X102180514Y-91341229D01*
X101856157Y-91016872D01*
X101838574Y-90995447D01*
X101828418Y-90976447D01*
X101822164Y-90955829D01*
X101820053Y-90934391D01*
X101822164Y-90912953D01*
X101828418Y-90892335D01*
X101838574Y-90873335D01*
X101856157Y-90851910D01*
X102215870Y-90492197D01*
X102237295Y-90474614D01*
X102256295Y-90464458D01*
X102276913Y-90458204D01*
X102298351Y-90456093D01*
X102319789Y-90458204D01*
X102319789Y-90458204D01*
G37*
G36*
X105395078Y-89672858D02*
X103767318Y-91300618D01*
X102740598Y-90273898D01*
X104368358Y-88646138D01*
X105395078Y-89672858D01*
X105395078Y-89672858D01*
G37*
G36*
X106726258Y-90269076D02*
X106746876Y-90275330D01*
X106765876Y-90285486D01*
X106782528Y-90299152D01*
X106796194Y-90315804D01*
X106806350Y-90334804D01*
X106812604Y-90355422D01*
X106815320Y-90383000D01*
X106815320Y-90891720D01*
X106812604Y-90919298D01*
X106806350Y-90939916D01*
X106796194Y-90958916D01*
X106782528Y-90975568D01*
X106765876Y-90989234D01*
X106746876Y-90999390D01*
X106726258Y-91005644D01*
X106698680Y-91008360D01*
X106239960Y-91008360D01*
X106212382Y-91005644D01*
X106191764Y-90999390D01*
X106172764Y-90989234D01*
X106156112Y-90975568D01*
X106142446Y-90958916D01*
X106132290Y-90939916D01*
X106126036Y-90919298D01*
X106123320Y-90891720D01*
X106123320Y-90383000D01*
X106126036Y-90355422D01*
X106132290Y-90334804D01*
X106142446Y-90315804D01*
X106156112Y-90299152D01*
X106172764Y-90285486D01*
X106191764Y-90275330D01*
X106212382Y-90269076D01*
X106239960Y-90266360D01*
X106698680Y-90266360D01*
X106726258Y-90269076D01*
X106726258Y-90269076D01*
G37*
G36*
X107696258Y-90269076D02*
X107716876Y-90275330D01*
X107735876Y-90285486D01*
X107752528Y-90299152D01*
X107766194Y-90315804D01*
X107776350Y-90334804D01*
X107782604Y-90355422D01*
X107785320Y-90383000D01*
X107785320Y-90891720D01*
X107782604Y-90919298D01*
X107776350Y-90939916D01*
X107766194Y-90958916D01*
X107752528Y-90975568D01*
X107735876Y-90989234D01*
X107716876Y-90999390D01*
X107696258Y-91005644D01*
X107668680Y-91008360D01*
X107209960Y-91008360D01*
X107182382Y-91005644D01*
X107161764Y-90999390D01*
X107142764Y-90989234D01*
X107126112Y-90975568D01*
X107112446Y-90958916D01*
X107102290Y-90939916D01*
X107096036Y-90919298D01*
X107093320Y-90891720D01*
X107093320Y-90383000D01*
X107096036Y-90355422D01*
X107102290Y-90334804D01*
X107112446Y-90315804D01*
X107126112Y-90299152D01*
X107142764Y-90285486D01*
X107161764Y-90275330D01*
X107182382Y-90269076D01*
X107209960Y-90266360D01*
X107668680Y-90266360D01*
X107696258Y-90269076D01*
X107696258Y-90269076D01*
G37*
G36*
X101545183Y-89683598D02*
X101565801Y-89689852D01*
X101584801Y-89700008D01*
X101606226Y-89717591D01*
X101930583Y-90041948D01*
X101948166Y-90063373D01*
X101958322Y-90082373D01*
X101964576Y-90102991D01*
X101966687Y-90124429D01*
X101964576Y-90145867D01*
X101958322Y-90166485D01*
X101948166Y-90185485D01*
X101930583Y-90206910D01*
X101570870Y-90566623D01*
X101549445Y-90584206D01*
X101530445Y-90594362D01*
X101509827Y-90600616D01*
X101488389Y-90602727D01*
X101466951Y-90600616D01*
X101446333Y-90594362D01*
X101427333Y-90584206D01*
X101405908Y-90566623D01*
X101081551Y-90242266D01*
X101063968Y-90220841D01*
X101053812Y-90201841D01*
X101047558Y-90181223D01*
X101045447Y-90159785D01*
X101047558Y-90138347D01*
X101053812Y-90117729D01*
X101063968Y-90098729D01*
X101081551Y-90077304D01*
X101441264Y-89717591D01*
X101462689Y-89700008D01*
X101481689Y-89689852D01*
X101502307Y-89683598D01*
X101523745Y-89681487D01*
X101545183Y-89683598D01*
X101545183Y-89683598D01*
G37*
G36*
X110714630Y-89391545D02*
X110735248Y-89397799D01*
X110754248Y-89407955D01*
X110775673Y-89425538D01*
X111100030Y-89749895D01*
X111117613Y-89771320D01*
X111127769Y-89790320D01*
X111134023Y-89810938D01*
X111136134Y-89832376D01*
X111134023Y-89853814D01*
X111127769Y-89874432D01*
X111117613Y-89893432D01*
X111100030Y-89914857D01*
X110740317Y-90274570D01*
X110718892Y-90292153D01*
X110699892Y-90302309D01*
X110679274Y-90308563D01*
X110657836Y-90310674D01*
X110636398Y-90308563D01*
X110615780Y-90302309D01*
X110596780Y-90292153D01*
X110575355Y-90274570D01*
X110250998Y-89950213D01*
X110233415Y-89928788D01*
X110223259Y-89909788D01*
X110217005Y-89889170D01*
X110214894Y-89867732D01*
X110217005Y-89846294D01*
X110223259Y-89825676D01*
X110233415Y-89806676D01*
X110250998Y-89785251D01*
X110610711Y-89425538D01*
X110632136Y-89407955D01*
X110651136Y-89397799D01*
X110671754Y-89391545D01*
X110693192Y-89389434D01*
X110714630Y-89391545D01*
X110714630Y-89391545D01*
G37*
G36*
X104157642Y-88435422D02*
X102529882Y-90063182D01*
X101503162Y-89036462D01*
X103130922Y-87408702D01*
X104157642Y-88435422D01*
X104157642Y-88435422D01*
G37*
G36*
X100859289Y-88997704D02*
X100879907Y-89003958D01*
X100898907Y-89014114D01*
X100920332Y-89031697D01*
X101244689Y-89356054D01*
X101262272Y-89377479D01*
X101272428Y-89396479D01*
X101278682Y-89417097D01*
X101280793Y-89438535D01*
X101278682Y-89459973D01*
X101272428Y-89480591D01*
X101262272Y-89499591D01*
X101244689Y-89521016D01*
X100884976Y-89880729D01*
X100863551Y-89898312D01*
X100844551Y-89908468D01*
X100823933Y-89914722D01*
X100802495Y-89916833D01*
X100781057Y-89914722D01*
X100760439Y-89908468D01*
X100741439Y-89898312D01*
X100720014Y-89880729D01*
X100395657Y-89556372D01*
X100378074Y-89534947D01*
X100367918Y-89515947D01*
X100361664Y-89495329D01*
X100359553Y-89473891D01*
X100361664Y-89452453D01*
X100367918Y-89431835D01*
X100378074Y-89412835D01*
X100395657Y-89391410D01*
X100755370Y-89031697D01*
X100776795Y-89014114D01*
X100795795Y-89003958D01*
X100816413Y-88997704D01*
X100837851Y-88995593D01*
X100859289Y-88997704D01*
X100859289Y-88997704D01*
G37*
G36*
X111491933Y-88731098D02*
X111512551Y-88737352D01*
X111531551Y-88747508D01*
X111552976Y-88765091D01*
X111912689Y-89124804D01*
X111930272Y-89146229D01*
X111940428Y-89165229D01*
X111946682Y-89185847D01*
X111948793Y-89207285D01*
X111946682Y-89228723D01*
X111940428Y-89249341D01*
X111930272Y-89268341D01*
X111912689Y-89289766D01*
X111588332Y-89614123D01*
X111566907Y-89631706D01*
X111547907Y-89641862D01*
X111527289Y-89648116D01*
X111505851Y-89650227D01*
X111484413Y-89648116D01*
X111463795Y-89641862D01*
X111444795Y-89631706D01*
X111423370Y-89614123D01*
X111063657Y-89254410D01*
X111046074Y-89232985D01*
X111035918Y-89213985D01*
X111029664Y-89193367D01*
X111027553Y-89171929D01*
X111029664Y-89150491D01*
X111035918Y-89129873D01*
X111046074Y-89110873D01*
X111063657Y-89089448D01*
X111388014Y-88765091D01*
X111409439Y-88747508D01*
X111428439Y-88737352D01*
X111449057Y-88731098D01*
X111470495Y-88728987D01*
X111491933Y-88731098D01*
X111491933Y-88731098D01*
G37*
G36*
X110028736Y-88705651D02*
X110049354Y-88711905D01*
X110068354Y-88722061D01*
X110089779Y-88739644D01*
X110414136Y-89064001D01*
X110431719Y-89085426D01*
X110441875Y-89104426D01*
X110448129Y-89125044D01*
X110450240Y-89146482D01*
X110448129Y-89167920D01*
X110441875Y-89188538D01*
X110431719Y-89207538D01*
X110414136Y-89228963D01*
X110054423Y-89588676D01*
X110032998Y-89606259D01*
X110013998Y-89616415D01*
X109993380Y-89622669D01*
X109971942Y-89624780D01*
X109950504Y-89622669D01*
X109929886Y-89616415D01*
X109910886Y-89606259D01*
X109889461Y-89588676D01*
X109565104Y-89264319D01*
X109547521Y-89242894D01*
X109537365Y-89223894D01*
X109531111Y-89203276D01*
X109529000Y-89181838D01*
X109531111Y-89160400D01*
X109537365Y-89139782D01*
X109547521Y-89120782D01*
X109565104Y-89099357D01*
X109924817Y-88739644D01*
X109946242Y-88722061D01*
X109965242Y-88711905D01*
X109985860Y-88705651D01*
X110007298Y-88703540D01*
X110028736Y-88705651D01*
X110028736Y-88705651D01*
G37*
G36*
X111850439Y-83894538D02*
X111878899Y-83903172D01*
X111878901Y-83903173D01*
X111905134Y-83917194D01*
X111922368Y-83931339D01*
X111922374Y-83931344D01*
X112357110Y-84366079D01*
X112357115Y-84366085D01*
X112371260Y-84383320D01*
X112375487Y-84391229D01*
X112385282Y-84409554D01*
X112393916Y-84438014D01*
X112396831Y-84467617D01*
X112393916Y-84497219D01*
X112385566Y-84524742D01*
X112385281Y-84525681D01*
X112371260Y-84551914D01*
X112352390Y-84574906D01*
X112329398Y-84593776D01*
X112303165Y-84607797D01*
X112303163Y-84607798D01*
X112274703Y-84616432D01*
X112238964Y-84619951D01*
X112226740Y-84619951D01*
X112202707Y-84624731D01*
X112180068Y-84634108D01*
X112159693Y-84647721D01*
X112142365Y-84665048D01*
X112128751Y-84685422D01*
X112119373Y-84708061D01*
X112114592Y-84732094D01*
X112114592Y-84744323D01*
X112111073Y-84780062D01*
X112102723Y-84807585D01*
X112102438Y-84808524D01*
X112088417Y-84834757D01*
X112069547Y-84857749D01*
X112046555Y-84876619D01*
X112020898Y-84890332D01*
X112020320Y-84890641D01*
X111991860Y-84899275D01*
X111956121Y-84902794D01*
X111943897Y-84902794D01*
X111919864Y-84907574D01*
X111897225Y-84916951D01*
X111876850Y-84930564D01*
X111859522Y-84947891D01*
X111845908Y-84968265D01*
X111836530Y-84990904D01*
X111831749Y-85014937D01*
X111831749Y-85027166D01*
X111828230Y-85062905D01*
X111819596Y-85091365D01*
X111819595Y-85091367D01*
X111805574Y-85117600D01*
X111786704Y-85140592D01*
X111763712Y-85159462D01*
X111737479Y-85173483D01*
X111737477Y-85173484D01*
X111709017Y-85182118D01*
X111673283Y-85185636D01*
X111661057Y-85185636D01*
X111637024Y-85190416D01*
X111614384Y-85199793D01*
X111594009Y-85213406D01*
X111576681Y-85230732D01*
X111563067Y-85251107D01*
X111553689Y-85273745D01*
X111548907Y-85297778D01*
X111548907Y-85310009D01*
X111545388Y-85345748D01*
X111536754Y-85374208D01*
X111536753Y-85374210D01*
X111522732Y-85400443D01*
X111503862Y-85423435D01*
X111480870Y-85442305D01*
X111474991Y-85445447D01*
X111454635Y-85456327D01*
X111426175Y-85464961D01*
X111390436Y-85468480D01*
X111378212Y-85468480D01*
X111354179Y-85473260D01*
X111331540Y-85482637D01*
X111311165Y-85496250D01*
X111293837Y-85513577D01*
X111280223Y-85533951D01*
X111270845Y-85556590D01*
X111266064Y-85580623D01*
X111266064Y-85592851D01*
X111262545Y-85628590D01*
X111254195Y-85656113D01*
X111253910Y-85657052D01*
X111239889Y-85683285D01*
X111221019Y-85706277D01*
X111198027Y-85725147D01*
X111171794Y-85739168D01*
X111171792Y-85739169D01*
X111143332Y-85747803D01*
X111107593Y-85751322D01*
X111095369Y-85751322D01*
X111071336Y-85756102D01*
X111048697Y-85765479D01*
X111028322Y-85779092D01*
X111010994Y-85796419D01*
X110997380Y-85816793D01*
X110988002Y-85839432D01*
X110983221Y-85863465D01*
X110983221Y-85875694D01*
X110979702Y-85911433D01*
X110971068Y-85939893D01*
X110971067Y-85939895D01*
X110957046Y-85966128D01*
X110938176Y-85989120D01*
X110915184Y-86007990D01*
X110890120Y-86021386D01*
X110888949Y-86022012D01*
X110860489Y-86030646D01*
X110824755Y-86034164D01*
X110812529Y-86034164D01*
X110788496Y-86038944D01*
X110765856Y-86048321D01*
X110745481Y-86061934D01*
X110728153Y-86079260D01*
X110714539Y-86099635D01*
X110705161Y-86122273D01*
X110700379Y-86146306D01*
X110700379Y-86158537D01*
X110696860Y-86194276D01*
X110688226Y-86222736D01*
X110688225Y-86222738D01*
X110674204Y-86248971D01*
X110655334Y-86271963D01*
X110632342Y-86290833D01*
X110606109Y-86304854D01*
X110606107Y-86304855D01*
X110577647Y-86313489D01*
X110541908Y-86317008D01*
X110529684Y-86317008D01*
X110505651Y-86321788D01*
X110483012Y-86331165D01*
X110462637Y-86344778D01*
X110445309Y-86362105D01*
X110431695Y-86382479D01*
X110422317Y-86405118D01*
X110417536Y-86429151D01*
X110417536Y-86441379D01*
X110414017Y-86477118D01*
X110405667Y-86504641D01*
X110405382Y-86505580D01*
X110391361Y-86531813D01*
X110372491Y-86554805D01*
X110349499Y-86573675D01*
X110328864Y-86584704D01*
X110323264Y-86587697D01*
X110294804Y-86596331D01*
X110259065Y-86599850D01*
X110246841Y-86599850D01*
X110222808Y-86604630D01*
X110200169Y-86614007D01*
X110179794Y-86627620D01*
X110162466Y-86644947D01*
X110148852Y-86665321D01*
X110139474Y-86687960D01*
X110134693Y-86711993D01*
X110134693Y-86724222D01*
X110131174Y-86759961D01*
X110122824Y-86787484D01*
X110122539Y-86788423D01*
X110108518Y-86814656D01*
X110089648Y-86837648D01*
X110066656Y-86856518D01*
X110040423Y-86870539D01*
X110040421Y-86870540D01*
X110011961Y-86879174D01*
X109976222Y-86882693D01*
X109963998Y-86882693D01*
X109939965Y-86887473D01*
X109917326Y-86896850D01*
X109896951Y-86910463D01*
X109879623Y-86927790D01*
X109866009Y-86948164D01*
X109856631Y-86970803D01*
X109851850Y-86994836D01*
X109851850Y-87007065D01*
X109848331Y-87042804D01*
X109839697Y-87071264D01*
X109839696Y-87071266D01*
X109825675Y-87097499D01*
X109806805Y-87120491D01*
X109783813Y-87139361D01*
X109767904Y-87147864D01*
X109757578Y-87153383D01*
X109729118Y-87162017D01*
X109693384Y-87165535D01*
X109681158Y-87165535D01*
X109657125Y-87170315D01*
X109634485Y-87179692D01*
X109614110Y-87193305D01*
X109596782Y-87210631D01*
X109583168Y-87231006D01*
X109573790Y-87253644D01*
X109569008Y-87277677D01*
X109569008Y-87289908D01*
X109565489Y-87325647D01*
X109556855Y-87354107D01*
X109556854Y-87354109D01*
X109542833Y-87380342D01*
X109523963Y-87403334D01*
X109500971Y-87422204D01*
X109490353Y-87427879D01*
X109474736Y-87436226D01*
X109446276Y-87444860D01*
X109410537Y-87448379D01*
X109398313Y-87448379D01*
X109374280Y-87453159D01*
X109351641Y-87462536D01*
X109331266Y-87476149D01*
X109313938Y-87493476D01*
X109300324Y-87513850D01*
X109290946Y-87536489D01*
X109286165Y-87560522D01*
X109286165Y-87572750D01*
X109282646Y-87608489D01*
X109274296Y-87636012D01*
X109274011Y-87636951D01*
X109259990Y-87663184D01*
X109241120Y-87686176D01*
X109218128Y-87705046D01*
X109191895Y-87719067D01*
X109191893Y-87719068D01*
X109163433Y-87727702D01*
X109127694Y-87731221D01*
X109115470Y-87731221D01*
X109091437Y-87736001D01*
X109068798Y-87745378D01*
X109048423Y-87758991D01*
X109031095Y-87776318D01*
X109017481Y-87796692D01*
X109008103Y-87819331D01*
X109003322Y-87843364D01*
X109003322Y-87855593D01*
X108999803Y-87891332D01*
X108991169Y-87919792D01*
X108991168Y-87919794D01*
X108977147Y-87946027D01*
X108958277Y-87969019D01*
X108935285Y-87987889D01*
X108927088Y-87992270D01*
X108909050Y-88001911D01*
X108880590Y-88010545D01*
X108844856Y-88014063D01*
X108832630Y-88014063D01*
X108808597Y-88018843D01*
X108785957Y-88028220D01*
X108765582Y-88041833D01*
X108748254Y-88059159D01*
X108734640Y-88079534D01*
X108725262Y-88102172D01*
X108720480Y-88126205D01*
X108720480Y-88138436D01*
X108716961Y-88174175D01*
X108708327Y-88202635D01*
X108708326Y-88202637D01*
X108694305Y-88228870D01*
X108675435Y-88251862D01*
X108652443Y-88270732D01*
X108626210Y-88284753D01*
X108626208Y-88284754D01*
X108597748Y-88293388D01*
X108562009Y-88296907D01*
X108549785Y-88296907D01*
X108525752Y-88301687D01*
X108503113Y-88311064D01*
X108482738Y-88324677D01*
X108465410Y-88342004D01*
X108451796Y-88362378D01*
X108442418Y-88385017D01*
X108437637Y-88409050D01*
X108437637Y-88421278D01*
X108434118Y-88457017D01*
X108425768Y-88484540D01*
X108425483Y-88485479D01*
X108411462Y-88511712D01*
X108392592Y-88534704D01*
X108369600Y-88553574D01*
X108344920Y-88566765D01*
X108343365Y-88567596D01*
X108314905Y-88576230D01*
X108279166Y-88579749D01*
X108266942Y-88579749D01*
X108242909Y-88584529D01*
X108220270Y-88593906D01*
X108199895Y-88607519D01*
X108182567Y-88624846D01*
X108168953Y-88645220D01*
X108159575Y-88667859D01*
X108154794Y-88691892D01*
X108154794Y-88704121D01*
X108151275Y-88739860D01*
X108142908Y-88767439D01*
X108142640Y-88768322D01*
X108128619Y-88794555D01*
X108109749Y-88817547D01*
X108086757Y-88836417D01*
X108067914Y-88846488D01*
X108060522Y-88850439D01*
X108032062Y-88859073D01*
X107996323Y-88862592D01*
X107984099Y-88862592D01*
X107960066Y-88867372D01*
X107937427Y-88876749D01*
X107917052Y-88890362D01*
X107899724Y-88907689D01*
X107886110Y-88928063D01*
X107876732Y-88950702D01*
X107871951Y-88974735D01*
X107871951Y-88986964D01*
X107868432Y-89022703D01*
X107860272Y-89049600D01*
X107859797Y-89051165D01*
X107845776Y-89077398D01*
X107826906Y-89100390D01*
X107803914Y-89119260D01*
X107801066Y-89120782D01*
X107777679Y-89133282D01*
X107749219Y-89141916D01*
X107719617Y-89144831D01*
X107690014Y-89141916D01*
X107661554Y-89133282D01*
X107655176Y-89129873D01*
X107635320Y-89119260D01*
X107618085Y-89105115D01*
X107618079Y-89105110D01*
X107183344Y-88670374D01*
X107181280Y-88667859D01*
X107169194Y-88653134D01*
X107155173Y-88626901D01*
X107155172Y-88626899D01*
X107146538Y-88598439D01*
X107143623Y-88568837D01*
X107146538Y-88539235D01*
X107155172Y-88510775D01*
X107165348Y-88491736D01*
X107169194Y-88484540D01*
X107188064Y-88461548D01*
X107211056Y-88442678D01*
X107237289Y-88428657D01*
X107237291Y-88428656D01*
X107265751Y-88420022D01*
X107301490Y-88416503D01*
X107313714Y-88416503D01*
X107337747Y-88411723D01*
X107360386Y-88402346D01*
X107380761Y-88388733D01*
X107398089Y-88371406D01*
X107411703Y-88351032D01*
X107421081Y-88328393D01*
X107425862Y-88304360D01*
X107425862Y-88292131D01*
X107429381Y-88256392D01*
X107438015Y-88227932D01*
X107444909Y-88215033D01*
X107452037Y-88201697D01*
X107470907Y-88178705D01*
X107493899Y-88159835D01*
X107520132Y-88145814D01*
X107520134Y-88145813D01*
X107548594Y-88137179D01*
X107584333Y-88133660D01*
X107596557Y-88133660D01*
X107620590Y-88128880D01*
X107643229Y-88119503D01*
X107663604Y-88105890D01*
X107680932Y-88088563D01*
X107694546Y-88068189D01*
X107703924Y-88045550D01*
X107708705Y-88021517D01*
X107708705Y-88009288D01*
X107712224Y-87973549D01*
X107720858Y-87945089D01*
X107734881Y-87918853D01*
X107753750Y-87895862D01*
X107776741Y-87876993D01*
X107776740Y-87876993D01*
X107776742Y-87876992D01*
X107802975Y-87862971D01*
X107802977Y-87862970D01*
X107831437Y-87854336D01*
X107867176Y-87850817D01*
X107879400Y-87850817D01*
X107903433Y-87846037D01*
X107926072Y-87836660D01*
X107946447Y-87823047D01*
X107963775Y-87805720D01*
X107977389Y-87785346D01*
X107986767Y-87762707D01*
X107991548Y-87738674D01*
X107991548Y-87726446D01*
X107995067Y-87690707D01*
X108003701Y-87662247D01*
X108009888Y-87650671D01*
X108017723Y-87636012D01*
X108036593Y-87613020D01*
X108059585Y-87594150D01*
X108085818Y-87580129D01*
X108085820Y-87580128D01*
X108114280Y-87571494D01*
X108150014Y-87567976D01*
X108162240Y-87567976D01*
X108186273Y-87563196D01*
X108208913Y-87553819D01*
X108229288Y-87540206D01*
X108246616Y-87522880D01*
X108260230Y-87502505D01*
X108269608Y-87479867D01*
X108274390Y-87455834D01*
X108274390Y-87443603D01*
X108277909Y-87407864D01*
X108286543Y-87379404D01*
X108289812Y-87373288D01*
X108300565Y-87353169D01*
X108319435Y-87330177D01*
X108342427Y-87311307D01*
X108368660Y-87297286D01*
X108368662Y-87297285D01*
X108397122Y-87288651D01*
X108432861Y-87285132D01*
X108445085Y-87285132D01*
X108469118Y-87280352D01*
X108491757Y-87270975D01*
X108512132Y-87257362D01*
X108529460Y-87240035D01*
X108543074Y-87219661D01*
X108552452Y-87197022D01*
X108557233Y-87172989D01*
X108557233Y-87160760D01*
X108560752Y-87125021D01*
X108569386Y-87096561D01*
X108583409Y-87070325D01*
X108585920Y-87067266D01*
X108602278Y-87047334D01*
X108625270Y-87028464D01*
X108651503Y-87014443D01*
X108651505Y-87014442D01*
X108679965Y-87005808D01*
X108715704Y-87002289D01*
X108727928Y-87002289D01*
X108751961Y-86997509D01*
X108774600Y-86988132D01*
X108794975Y-86974519D01*
X108812303Y-86957192D01*
X108825917Y-86936818D01*
X108835295Y-86914179D01*
X108840076Y-86890146D01*
X108840076Y-86877918D01*
X108843595Y-86842179D01*
X108852229Y-86813719D01*
X108854459Y-86809546D01*
X108866251Y-86787484D01*
X108885121Y-86764492D01*
X108908113Y-86745622D01*
X108934346Y-86731601D01*
X108934348Y-86731600D01*
X108962808Y-86722966D01*
X108998542Y-86719448D01*
X109010768Y-86719448D01*
X109034801Y-86714668D01*
X109057441Y-86705291D01*
X109077816Y-86691678D01*
X109095144Y-86674352D01*
X109108758Y-86653977D01*
X109118136Y-86631339D01*
X109122918Y-86607306D01*
X109122918Y-86595075D01*
X109126437Y-86559336D01*
X109135071Y-86530876D01*
X109141004Y-86519776D01*
X109149093Y-86504641D01*
X109167963Y-86481649D01*
X109190955Y-86462779D01*
X109217188Y-86448758D01*
X109217190Y-86448757D01*
X109245650Y-86440123D01*
X109281389Y-86436604D01*
X109293613Y-86436604D01*
X109317646Y-86431824D01*
X109340285Y-86422447D01*
X109360660Y-86408834D01*
X109377988Y-86391507D01*
X109391602Y-86371133D01*
X109400980Y-86348494D01*
X109405761Y-86324461D01*
X109405761Y-86312232D01*
X109409280Y-86276493D01*
X109417914Y-86248033D01*
X109431937Y-86221797D01*
X109447792Y-86202479D01*
X109450806Y-86198806D01*
X109473798Y-86179936D01*
X109500031Y-86165915D01*
X109500033Y-86165914D01*
X109528493Y-86157280D01*
X109564232Y-86153761D01*
X109576456Y-86153761D01*
X109600489Y-86148981D01*
X109623128Y-86139604D01*
X109643503Y-86125991D01*
X109660831Y-86108664D01*
X109674445Y-86088290D01*
X109683823Y-86065651D01*
X109688604Y-86041618D01*
X109688604Y-86029389D01*
X109692123Y-85993650D01*
X109700757Y-85965190D01*
X109714780Y-85938954D01*
X109733649Y-85915963D01*
X109756640Y-85897094D01*
X109756639Y-85897094D01*
X109756641Y-85897093D01*
X109782874Y-85883072D01*
X109782876Y-85883071D01*
X109811336Y-85874437D01*
X109847075Y-85870918D01*
X109859299Y-85870918D01*
X109883332Y-85866138D01*
X109905971Y-85856761D01*
X109926346Y-85843148D01*
X109943674Y-85825821D01*
X109957288Y-85805447D01*
X109966666Y-85782808D01*
X109971447Y-85758775D01*
X109971447Y-85746547D01*
X109974966Y-85710808D01*
X109983600Y-85682348D01*
X109992903Y-85664943D01*
X109997622Y-85656113D01*
X110016492Y-85633121D01*
X110039484Y-85614251D01*
X110065717Y-85600230D01*
X110065719Y-85600229D01*
X110094179Y-85591595D01*
X110129913Y-85588077D01*
X110142139Y-85588077D01*
X110166172Y-85583297D01*
X110188812Y-85573920D01*
X110209187Y-85560307D01*
X110226515Y-85542981D01*
X110240129Y-85522606D01*
X110249507Y-85499968D01*
X110254289Y-85475935D01*
X110254289Y-85463704D01*
X110257808Y-85427965D01*
X110266442Y-85399505D01*
X110280465Y-85373269D01*
X110299334Y-85350278D01*
X110322325Y-85331409D01*
X110322324Y-85331409D01*
X110322326Y-85331408D01*
X110348559Y-85317387D01*
X110348561Y-85317386D01*
X110377021Y-85308752D01*
X110412760Y-85305233D01*
X110424984Y-85305233D01*
X110449017Y-85300453D01*
X110471656Y-85291076D01*
X110492031Y-85277463D01*
X110509359Y-85260136D01*
X110522973Y-85239762D01*
X110532351Y-85217123D01*
X110537132Y-85193090D01*
X110537132Y-85180861D01*
X110540651Y-85145122D01*
X110549285Y-85116662D01*
X110563308Y-85090426D01*
X110582177Y-85067435D01*
X110605168Y-85048566D01*
X110605167Y-85048566D01*
X110605169Y-85048565D01*
X110631402Y-85034544D01*
X110631404Y-85034543D01*
X110659864Y-85025909D01*
X110695603Y-85022390D01*
X110707827Y-85022390D01*
X110731860Y-85017610D01*
X110754499Y-85008233D01*
X110774874Y-84994620D01*
X110792202Y-84977293D01*
X110805816Y-84956919D01*
X110815194Y-84934280D01*
X110819975Y-84910247D01*
X110819975Y-84898019D01*
X110823494Y-84862280D01*
X110832128Y-84833820D01*
X110841536Y-84816218D01*
X110846150Y-84807585D01*
X110865020Y-84784593D01*
X110888012Y-84765723D01*
X110914245Y-84751702D01*
X110914247Y-84751701D01*
X110942707Y-84743067D01*
X110978441Y-84739549D01*
X110990667Y-84739549D01*
X111014700Y-84734769D01*
X111037340Y-84725392D01*
X111057715Y-84711779D01*
X111075043Y-84694453D01*
X111088657Y-84674078D01*
X111098035Y-84651440D01*
X111102817Y-84627407D01*
X111102817Y-84615176D01*
X111106336Y-84579437D01*
X111114970Y-84550977D01*
X111114971Y-84550975D01*
X111128992Y-84524742D01*
X111147862Y-84501750D01*
X111170854Y-84482880D01*
X111197087Y-84468859D01*
X111197089Y-84468858D01*
X111225549Y-84460224D01*
X111261288Y-84456705D01*
X111273512Y-84456705D01*
X111297545Y-84451925D01*
X111320184Y-84442548D01*
X111340559Y-84428935D01*
X111357887Y-84411608D01*
X111371501Y-84391234D01*
X111380879Y-84368595D01*
X111385660Y-84344562D01*
X111385660Y-84332333D01*
X111389179Y-84296594D01*
X111397813Y-84268134D01*
X111411836Y-84241898D01*
X111430705Y-84218907D01*
X111453696Y-84200038D01*
X111453695Y-84200038D01*
X111453697Y-84200037D01*
X111479930Y-84186016D01*
X111479932Y-84186015D01*
X111508392Y-84177381D01*
X111544131Y-84173862D01*
X111556355Y-84173862D01*
X111580388Y-84169082D01*
X111603027Y-84159705D01*
X111623402Y-84146092D01*
X111640730Y-84128765D01*
X111654344Y-84108391D01*
X111663722Y-84085752D01*
X111668503Y-84061719D01*
X111668503Y-84049490D01*
X111672022Y-84013751D01*
X111680656Y-83985291D01*
X111694679Y-83959055D01*
X111713548Y-83936064D01*
X111736539Y-83917195D01*
X111736538Y-83917195D01*
X111736540Y-83917194D01*
X111762773Y-83903173D01*
X111762775Y-83903172D01*
X111791235Y-83894538D01*
X111820837Y-83891623D01*
X111850439Y-83894538D01*
X111850439Y-83894538D01*
G37*
G36*
X102092365Y-83894538D02*
X102120825Y-83903172D01*
X102120827Y-83903173D01*
X102147060Y-83917194D01*
X102147062Y-83917195D01*
X102147061Y-83917195D01*
X102170052Y-83936064D01*
X102188921Y-83959055D01*
X102202944Y-83985291D01*
X102211578Y-84013751D01*
X102215097Y-84049490D01*
X102215097Y-84061714D01*
X102219877Y-84085747D01*
X102229254Y-84108386D01*
X102242867Y-84128761D01*
X102260194Y-84146089D01*
X102280568Y-84159703D01*
X102303207Y-84169081D01*
X102327240Y-84173862D01*
X102339469Y-84173862D01*
X102375208Y-84177381D01*
X102403668Y-84186015D01*
X102403670Y-84186016D01*
X102429903Y-84200037D01*
X102429905Y-84200038D01*
X102429904Y-84200038D01*
X102452895Y-84218907D01*
X102471764Y-84241898D01*
X102485787Y-84268134D01*
X102494421Y-84296594D01*
X102497940Y-84332333D01*
X102497940Y-84344557D01*
X102502720Y-84368590D01*
X102512097Y-84391229D01*
X102525710Y-84411604D01*
X102543037Y-84428932D01*
X102563411Y-84442546D01*
X102586050Y-84451924D01*
X102610083Y-84456705D01*
X102622312Y-84456705D01*
X102658051Y-84460224D01*
X102686511Y-84468858D01*
X102686513Y-84468859D01*
X102712746Y-84482880D01*
X102735738Y-84501750D01*
X102754608Y-84524742D01*
X102768629Y-84550975D01*
X102768630Y-84550977D01*
X102777264Y-84579437D01*
X102780783Y-84615176D01*
X102780783Y-84627400D01*
X102785563Y-84651433D01*
X102794940Y-84674072D01*
X102808553Y-84694447D01*
X102825880Y-84711775D01*
X102846254Y-84725389D01*
X102868893Y-84734767D01*
X102892926Y-84739548D01*
X102905154Y-84739548D01*
X102940893Y-84743067D01*
X102969353Y-84751701D01*
X102969355Y-84751702D01*
X102995588Y-84765723D01*
X103018580Y-84784593D01*
X103037450Y-84807585D01*
X103042064Y-84816218D01*
X103051472Y-84833820D01*
X103060106Y-84862280D01*
X103063624Y-84898014D01*
X103063624Y-84910240D01*
X103068404Y-84934273D01*
X103077781Y-84956913D01*
X103091394Y-84977288D01*
X103108720Y-84994616D01*
X103129095Y-85008230D01*
X103151733Y-85017608D01*
X103175766Y-85022390D01*
X103187997Y-85022390D01*
X103223736Y-85025909D01*
X103252196Y-85034543D01*
X103252198Y-85034544D01*
X103278431Y-85048565D01*
X103278433Y-85048566D01*
X103278432Y-85048566D01*
X103301423Y-85067435D01*
X103320292Y-85090426D01*
X103334315Y-85116662D01*
X103342949Y-85145122D01*
X103346468Y-85180861D01*
X103346468Y-85193085D01*
X103351248Y-85217118D01*
X103360625Y-85239757D01*
X103374238Y-85260132D01*
X103391565Y-85277460D01*
X103411939Y-85291074D01*
X103434578Y-85300452D01*
X103458611Y-85305233D01*
X103470840Y-85305233D01*
X103506579Y-85308752D01*
X103535039Y-85317386D01*
X103535041Y-85317387D01*
X103561274Y-85331408D01*
X103561276Y-85331409D01*
X103561275Y-85331409D01*
X103584266Y-85350278D01*
X103603135Y-85373269D01*
X103617158Y-85399505D01*
X103625792Y-85427965D01*
X103629311Y-85463704D01*
X103629311Y-85475928D01*
X103634091Y-85499961D01*
X103643468Y-85522600D01*
X103657081Y-85542975D01*
X103674408Y-85560303D01*
X103694782Y-85573917D01*
X103717421Y-85583295D01*
X103741454Y-85588076D01*
X103753682Y-85588076D01*
X103789421Y-85591595D01*
X103817881Y-85600229D01*
X103817883Y-85600230D01*
X103844116Y-85614251D01*
X103867108Y-85633121D01*
X103885978Y-85656113D01*
X103890697Y-85664943D01*
X103900000Y-85682348D01*
X103908634Y-85710808D01*
X103912152Y-85746542D01*
X103912152Y-85758768D01*
X103916932Y-85782801D01*
X103926309Y-85805441D01*
X103939922Y-85825816D01*
X103957248Y-85843144D01*
X103977623Y-85856758D01*
X104000261Y-85866136D01*
X104024294Y-85870918D01*
X104036525Y-85870918D01*
X104072264Y-85874437D01*
X104100724Y-85883071D01*
X104100726Y-85883072D01*
X104126959Y-85897093D01*
X104126961Y-85897094D01*
X104126960Y-85897094D01*
X104149951Y-85915963D01*
X104168820Y-85938954D01*
X104182843Y-85965190D01*
X104191477Y-85993650D01*
X104194996Y-86029389D01*
X104194996Y-86041613D01*
X104199776Y-86065646D01*
X104209153Y-86088285D01*
X104222766Y-86108660D01*
X104240093Y-86125988D01*
X104260467Y-86139602D01*
X104283106Y-86148980D01*
X104307139Y-86153761D01*
X104319368Y-86153761D01*
X104355107Y-86157280D01*
X104383567Y-86165914D01*
X104383569Y-86165915D01*
X104409802Y-86179936D01*
X104432794Y-86198806D01*
X104435809Y-86202479D01*
X104451663Y-86221797D01*
X104465686Y-86248033D01*
X104474320Y-86276493D01*
X104477839Y-86312232D01*
X104477839Y-86324456D01*
X104482619Y-86348489D01*
X104491996Y-86371128D01*
X104505609Y-86391503D01*
X104522936Y-86408831D01*
X104543310Y-86422445D01*
X104565949Y-86431823D01*
X104589982Y-86436604D01*
X104602211Y-86436604D01*
X104637950Y-86440123D01*
X104666410Y-86448757D01*
X104666412Y-86448758D01*
X104692645Y-86462779D01*
X104715637Y-86481649D01*
X104734507Y-86504641D01*
X104742596Y-86519776D01*
X104748529Y-86530876D01*
X104757163Y-86559336D01*
X104760682Y-86595075D01*
X104760682Y-86607299D01*
X104765462Y-86631332D01*
X104774839Y-86653971D01*
X104788452Y-86674346D01*
X104805779Y-86691674D01*
X104826153Y-86705288D01*
X104848792Y-86714666D01*
X104872825Y-86719447D01*
X104885053Y-86719447D01*
X104920792Y-86722966D01*
X104949252Y-86731600D01*
X104949254Y-86731601D01*
X104975487Y-86745622D01*
X104998479Y-86764492D01*
X105017349Y-86787484D01*
X105029141Y-86809546D01*
X105031371Y-86813719D01*
X105040005Y-86842179D01*
X105043523Y-86877913D01*
X105043523Y-86890139D01*
X105048303Y-86914172D01*
X105057680Y-86936812D01*
X105071293Y-86957187D01*
X105088619Y-86974515D01*
X105108994Y-86988129D01*
X105131632Y-86997507D01*
X105155665Y-87002289D01*
X105167896Y-87002289D01*
X105203635Y-87005808D01*
X105232095Y-87014442D01*
X105232097Y-87014443D01*
X105258330Y-87028464D01*
X105281322Y-87047334D01*
X105297681Y-87067266D01*
X105300191Y-87070325D01*
X105314214Y-87096561D01*
X105322848Y-87125021D01*
X105326367Y-87160760D01*
X105326367Y-87172984D01*
X105331147Y-87197017D01*
X105340524Y-87219656D01*
X105354137Y-87240031D01*
X105371464Y-87257359D01*
X105391838Y-87270973D01*
X105414477Y-87280351D01*
X105438510Y-87285132D01*
X105450739Y-87285132D01*
X105486478Y-87288651D01*
X105514938Y-87297285D01*
X105514940Y-87297286D01*
X105541173Y-87311307D01*
X105564165Y-87330177D01*
X105583035Y-87353169D01*
X105593788Y-87373288D01*
X105597057Y-87379404D01*
X105605691Y-87407864D01*
X105609210Y-87443603D01*
X105609210Y-87455827D01*
X105613990Y-87479860D01*
X105623367Y-87502499D01*
X105636980Y-87522874D01*
X105654307Y-87540202D01*
X105674681Y-87553816D01*
X105697320Y-87563194D01*
X105721353Y-87567975D01*
X105733581Y-87567975D01*
X105769320Y-87571494D01*
X105797780Y-87580128D01*
X105797782Y-87580129D01*
X105824015Y-87594150D01*
X105847007Y-87613020D01*
X105865877Y-87636012D01*
X105873712Y-87650671D01*
X105879899Y-87662247D01*
X105888533Y-87690707D01*
X105892051Y-87726441D01*
X105892051Y-87738667D01*
X105896831Y-87762700D01*
X105906208Y-87785340D01*
X105919821Y-87805715D01*
X105937147Y-87823043D01*
X105957522Y-87836657D01*
X105980160Y-87846035D01*
X106004193Y-87850817D01*
X106016424Y-87850817D01*
X106052163Y-87854336D01*
X106080623Y-87862970D01*
X106080625Y-87862971D01*
X106106858Y-87876992D01*
X106106860Y-87876993D01*
X106106859Y-87876993D01*
X106129850Y-87895862D01*
X106148719Y-87918853D01*
X106162742Y-87945089D01*
X106171376Y-87973549D01*
X106174895Y-88009288D01*
X106174895Y-88021512D01*
X106179675Y-88045545D01*
X106189052Y-88068184D01*
X106202665Y-88088559D01*
X106219992Y-88105887D01*
X106240366Y-88119501D01*
X106263005Y-88128879D01*
X106287038Y-88133660D01*
X106299267Y-88133660D01*
X106335006Y-88137179D01*
X106363466Y-88145813D01*
X106363468Y-88145814D01*
X106389701Y-88159835D01*
X106412693Y-88178705D01*
X106431563Y-88201697D01*
X106438691Y-88215033D01*
X106445585Y-88227932D01*
X106454219Y-88256392D01*
X106457738Y-88292131D01*
X106457738Y-88304355D01*
X106462518Y-88328388D01*
X106471895Y-88351027D01*
X106485508Y-88371402D01*
X106502835Y-88388730D01*
X106523209Y-88402344D01*
X106545848Y-88411722D01*
X106569881Y-88416503D01*
X106582110Y-88416503D01*
X106617849Y-88420022D01*
X106646309Y-88428656D01*
X106646311Y-88428657D01*
X106672544Y-88442678D01*
X106695536Y-88461548D01*
X106714406Y-88484540D01*
X106718252Y-88491736D01*
X106728428Y-88510775D01*
X106737062Y-88539235D01*
X106739977Y-88568837D01*
X106737062Y-88598440D01*
X106728428Y-88626899D01*
X106728427Y-88626902D01*
X106714406Y-88653134D01*
X106702321Y-88667859D01*
X106700256Y-88670375D01*
X106265520Y-89105110D01*
X106265514Y-89105115D01*
X106248280Y-89119260D01*
X106228423Y-89129873D01*
X106222045Y-89133282D01*
X106193585Y-89141916D01*
X106163983Y-89144831D01*
X106134381Y-89141916D01*
X106105921Y-89133282D01*
X106082534Y-89120782D01*
X106079686Y-89119260D01*
X106056694Y-89100390D01*
X106037824Y-89077398D01*
X106023803Y-89051165D01*
X106023328Y-89049600D01*
X106015168Y-89022703D01*
X106011649Y-88986964D01*
X106011649Y-88974740D01*
X106006869Y-88950707D01*
X105997492Y-88928068D01*
X105983879Y-88907693D01*
X105966552Y-88890365D01*
X105946178Y-88876751D01*
X105923539Y-88867373D01*
X105899506Y-88862592D01*
X105887277Y-88862592D01*
X105851538Y-88859073D01*
X105823078Y-88850439D01*
X105815686Y-88846488D01*
X105796843Y-88836417D01*
X105773851Y-88817547D01*
X105754981Y-88794555D01*
X105740960Y-88768322D01*
X105740692Y-88767439D01*
X105732325Y-88739860D01*
X105728806Y-88704121D01*
X105728806Y-88691897D01*
X105724026Y-88667864D01*
X105714649Y-88645225D01*
X105701036Y-88624850D01*
X105683709Y-88607522D01*
X105663335Y-88593908D01*
X105640696Y-88584530D01*
X105616663Y-88579749D01*
X105604434Y-88579749D01*
X105568695Y-88576230D01*
X105540235Y-88567596D01*
X105538680Y-88566765D01*
X105514000Y-88553574D01*
X105491008Y-88534704D01*
X105472138Y-88511712D01*
X105458117Y-88485479D01*
X105457832Y-88484540D01*
X105449482Y-88457017D01*
X105445964Y-88421283D01*
X105445964Y-88409057D01*
X105441184Y-88385024D01*
X105431807Y-88362384D01*
X105418194Y-88342009D01*
X105400868Y-88324681D01*
X105380493Y-88311067D01*
X105357855Y-88301689D01*
X105333822Y-88296907D01*
X105321591Y-88296907D01*
X105285852Y-88293388D01*
X105257392Y-88284754D01*
X105257390Y-88284753D01*
X105231157Y-88270732D01*
X105208165Y-88251862D01*
X105189295Y-88228870D01*
X105175274Y-88202637D01*
X105175273Y-88202635D01*
X105166639Y-88174175D01*
X105163120Y-88138436D01*
X105163120Y-88126212D01*
X105158340Y-88102179D01*
X105148963Y-88079540D01*
X105135350Y-88059165D01*
X105118023Y-88041837D01*
X105097649Y-88028223D01*
X105075010Y-88018845D01*
X105050977Y-88014064D01*
X105038749Y-88014064D01*
X105003010Y-88010545D01*
X104974550Y-88001911D01*
X104956512Y-87992270D01*
X104948315Y-87987889D01*
X104925323Y-87969019D01*
X104906453Y-87946027D01*
X104892432Y-87919794D01*
X104892431Y-87919792D01*
X104883797Y-87891332D01*
X104880278Y-87855593D01*
X104880278Y-87843369D01*
X104875498Y-87819336D01*
X104866121Y-87796697D01*
X104852508Y-87776322D01*
X104835181Y-87758994D01*
X104814807Y-87745380D01*
X104792168Y-87736002D01*
X104768135Y-87731221D01*
X104755906Y-87731221D01*
X104720167Y-87727702D01*
X104691707Y-87719068D01*
X104691705Y-87719067D01*
X104665472Y-87705046D01*
X104642480Y-87686176D01*
X104623610Y-87663184D01*
X104609589Y-87636951D01*
X104609304Y-87636012D01*
X104600954Y-87608489D01*
X104597436Y-87572755D01*
X104597436Y-87560529D01*
X104592656Y-87536496D01*
X104583279Y-87513856D01*
X104569666Y-87493481D01*
X104552340Y-87476153D01*
X104531965Y-87462539D01*
X104509327Y-87453161D01*
X104485294Y-87448379D01*
X104473063Y-87448379D01*
X104437324Y-87444860D01*
X104408864Y-87436226D01*
X104393247Y-87427879D01*
X104382629Y-87422204D01*
X104359637Y-87403334D01*
X104340767Y-87380342D01*
X104326746Y-87354109D01*
X104326745Y-87354107D01*
X104318111Y-87325647D01*
X104314592Y-87289908D01*
X104314592Y-87277684D01*
X104309812Y-87253651D01*
X104300435Y-87231012D01*
X104286822Y-87210637D01*
X104269495Y-87193309D01*
X104249121Y-87179695D01*
X104226482Y-87170317D01*
X104202449Y-87165536D01*
X104190221Y-87165536D01*
X104154482Y-87162017D01*
X104126022Y-87153383D01*
X104115696Y-87147864D01*
X104099787Y-87139361D01*
X104076795Y-87120491D01*
X104057925Y-87097499D01*
X104043904Y-87071266D01*
X104043903Y-87071264D01*
X104035269Y-87042804D01*
X104031750Y-87007065D01*
X104031750Y-86994841D01*
X104026970Y-86970808D01*
X104017593Y-86948169D01*
X104003980Y-86927794D01*
X103986653Y-86910466D01*
X103966279Y-86896852D01*
X103943640Y-86887474D01*
X103919607Y-86882693D01*
X103907378Y-86882693D01*
X103871639Y-86879174D01*
X103843179Y-86870540D01*
X103843177Y-86870539D01*
X103816944Y-86856518D01*
X103793952Y-86837648D01*
X103775082Y-86814656D01*
X103761061Y-86788423D01*
X103760776Y-86787484D01*
X103752426Y-86759961D01*
X103748907Y-86724222D01*
X103748907Y-86711998D01*
X103744127Y-86687965D01*
X103734750Y-86665326D01*
X103721137Y-86644951D01*
X103703810Y-86627623D01*
X103683436Y-86614009D01*
X103660797Y-86604631D01*
X103636764Y-86599850D01*
X103624535Y-86599850D01*
X103588796Y-86596331D01*
X103560336Y-86587697D01*
X103554736Y-86584704D01*
X103534101Y-86573675D01*
X103511109Y-86554805D01*
X103492239Y-86531813D01*
X103478218Y-86505580D01*
X103477933Y-86504641D01*
X103469583Y-86477118D01*
X103466065Y-86441384D01*
X103466065Y-86429158D01*
X103461285Y-86405125D01*
X103451908Y-86382485D01*
X103438295Y-86362110D01*
X103420969Y-86344782D01*
X103400594Y-86331168D01*
X103377956Y-86321790D01*
X103353923Y-86317008D01*
X103341692Y-86317008D01*
X103305953Y-86313489D01*
X103277493Y-86304855D01*
X103277491Y-86304854D01*
X103251258Y-86290833D01*
X103228266Y-86271963D01*
X103209396Y-86248971D01*
X103195375Y-86222738D01*
X103195374Y-86222736D01*
X103186740Y-86194276D01*
X103183221Y-86158537D01*
X103183221Y-86146313D01*
X103178441Y-86122280D01*
X103169064Y-86099641D01*
X103155451Y-86079266D01*
X103138124Y-86061938D01*
X103117750Y-86048324D01*
X103095111Y-86038946D01*
X103071078Y-86034165D01*
X103058850Y-86034165D01*
X103023111Y-86030646D01*
X102994651Y-86022012D01*
X102993480Y-86021386D01*
X102968416Y-86007990D01*
X102945424Y-85989120D01*
X102926554Y-85966128D01*
X102912533Y-85939895D01*
X102912532Y-85939893D01*
X102903898Y-85911433D01*
X102900379Y-85875694D01*
X102900379Y-85863470D01*
X102895599Y-85839437D01*
X102886222Y-85816798D01*
X102872609Y-85796423D01*
X102855282Y-85779095D01*
X102834908Y-85765481D01*
X102812269Y-85756103D01*
X102788236Y-85751322D01*
X102776007Y-85751322D01*
X102740268Y-85747803D01*
X102711808Y-85739169D01*
X102711806Y-85739168D01*
X102685573Y-85725147D01*
X102662581Y-85706277D01*
X102643711Y-85683285D01*
X102629690Y-85657052D01*
X102629405Y-85656113D01*
X102621055Y-85628590D01*
X102617537Y-85592856D01*
X102617537Y-85580630D01*
X102612757Y-85556597D01*
X102603380Y-85533957D01*
X102589767Y-85513582D01*
X102572441Y-85496254D01*
X102552066Y-85482640D01*
X102529428Y-85473262D01*
X102505395Y-85468480D01*
X102493164Y-85468480D01*
X102457425Y-85464961D01*
X102428965Y-85456327D01*
X102408609Y-85445447D01*
X102402730Y-85442305D01*
X102379738Y-85423435D01*
X102360868Y-85400443D01*
X102346847Y-85374210D01*
X102346846Y-85374208D01*
X102338212Y-85345748D01*
X102334693Y-85310009D01*
X102334693Y-85297785D01*
X102329913Y-85273752D01*
X102320536Y-85251113D01*
X102306923Y-85230738D01*
X102289596Y-85213410D01*
X102269222Y-85199796D01*
X102246583Y-85190418D01*
X102222550Y-85185637D01*
X102210322Y-85185637D01*
X102174583Y-85182118D01*
X102146123Y-85173484D01*
X102146121Y-85173483D01*
X102119888Y-85159462D01*
X102096896Y-85140592D01*
X102078026Y-85117600D01*
X102064005Y-85091367D01*
X102064004Y-85091365D01*
X102055370Y-85062905D01*
X102051851Y-85027166D01*
X102051851Y-85014942D01*
X102047071Y-84990909D01*
X102037694Y-84968270D01*
X102024081Y-84947895D01*
X102006754Y-84930567D01*
X101986380Y-84916953D01*
X101963741Y-84907575D01*
X101939708Y-84902794D01*
X101927479Y-84902794D01*
X101891740Y-84899275D01*
X101863280Y-84890641D01*
X101862702Y-84890332D01*
X101837045Y-84876619D01*
X101814053Y-84857749D01*
X101795183Y-84834757D01*
X101781162Y-84808524D01*
X101780877Y-84807585D01*
X101772527Y-84780062D01*
X101769008Y-84744323D01*
X101769008Y-84732099D01*
X101764228Y-84708066D01*
X101754851Y-84685427D01*
X101741238Y-84665052D01*
X101723911Y-84647724D01*
X101703537Y-84634110D01*
X101680898Y-84624732D01*
X101656865Y-84619951D01*
X101644636Y-84619951D01*
X101608897Y-84616432D01*
X101580437Y-84607798D01*
X101580435Y-84607797D01*
X101554202Y-84593776D01*
X101531210Y-84574906D01*
X101512340Y-84551914D01*
X101498319Y-84525681D01*
X101498034Y-84524742D01*
X101489684Y-84497219D01*
X101486769Y-84467617D01*
X101489684Y-84438015D01*
X101498318Y-84409555D01*
X101498320Y-84409552D01*
X101512340Y-84383320D01*
X101526485Y-84366086D01*
X101526486Y-84366085D01*
X101526490Y-84366080D01*
X101961225Y-83931344D01*
X101961231Y-83931339D01*
X101978466Y-83917194D01*
X102004698Y-83903173D01*
X102004700Y-83903172D01*
X102033160Y-83894538D01*
X102062763Y-83891623D01*
X102092365Y-83894538D01*
X102092365Y-83894538D01*
G37*
G36*
X112177827Y-88045204D02*
X112198445Y-88051458D01*
X112217445Y-88061614D01*
X112238870Y-88079197D01*
X112598583Y-88438910D01*
X112616166Y-88460335D01*
X112626322Y-88479335D01*
X112632576Y-88499953D01*
X112634687Y-88521391D01*
X112632576Y-88542829D01*
X112626322Y-88563447D01*
X112616166Y-88582447D01*
X112598583Y-88603872D01*
X112274226Y-88928229D01*
X112252801Y-88945812D01*
X112233801Y-88955968D01*
X112213183Y-88962222D01*
X112191745Y-88964333D01*
X112170307Y-88962222D01*
X112149689Y-88955968D01*
X112130689Y-88945812D01*
X112109264Y-88928229D01*
X111749551Y-88568516D01*
X111731968Y-88547091D01*
X111721812Y-88528091D01*
X111715558Y-88507473D01*
X111713447Y-88486035D01*
X111715558Y-88464597D01*
X111721812Y-88443979D01*
X111731968Y-88424979D01*
X111749551Y-88403554D01*
X112073908Y-88079197D01*
X112095333Y-88061614D01*
X112114333Y-88051458D01*
X112134951Y-88045204D01*
X112156389Y-88043093D01*
X112177827Y-88045204D01*
X112177827Y-88045204D01*
G37*
G36*
X100188933Y-87981798D02*
X100209551Y-87988052D01*
X100228551Y-87998208D01*
X100249976Y-88015791D01*
X100609689Y-88375504D01*
X100627272Y-88396929D01*
X100637428Y-88415929D01*
X100643682Y-88436547D01*
X100645793Y-88457985D01*
X100643682Y-88479423D01*
X100637428Y-88500041D01*
X100627272Y-88519041D01*
X100609689Y-88540466D01*
X100285332Y-88864823D01*
X100263907Y-88882406D01*
X100244907Y-88892562D01*
X100224289Y-88898816D01*
X100202851Y-88900927D01*
X100181413Y-88898816D01*
X100160795Y-88892562D01*
X100141795Y-88882406D01*
X100120370Y-88864823D01*
X99760657Y-88505110D01*
X99743074Y-88483685D01*
X99732918Y-88464685D01*
X99726664Y-88444067D01*
X99724553Y-88422629D01*
X99726664Y-88401191D01*
X99732918Y-88380573D01*
X99743074Y-88361573D01*
X99760657Y-88340148D01*
X100085014Y-88015791D01*
X100106439Y-87998208D01*
X100125439Y-87988052D01*
X100146057Y-87981798D01*
X100167495Y-87979687D01*
X100188933Y-87981798D01*
X100188933Y-87981798D01*
G37*
G36*
X110729933Y-87969098D02*
X110750551Y-87975352D01*
X110769551Y-87985508D01*
X110790976Y-88003091D01*
X111150689Y-88362804D01*
X111168272Y-88384229D01*
X111178428Y-88403229D01*
X111184682Y-88423847D01*
X111186793Y-88445285D01*
X111184682Y-88466723D01*
X111178428Y-88487341D01*
X111168272Y-88506341D01*
X111150689Y-88527766D01*
X110826332Y-88852123D01*
X110804907Y-88869706D01*
X110785907Y-88879862D01*
X110765289Y-88886116D01*
X110743851Y-88888227D01*
X110722413Y-88886116D01*
X110701795Y-88879862D01*
X110682795Y-88869706D01*
X110661370Y-88852123D01*
X110301657Y-88492410D01*
X110284074Y-88470985D01*
X110273918Y-88451985D01*
X110267664Y-88431367D01*
X110265553Y-88409929D01*
X110267664Y-88388491D01*
X110273918Y-88367873D01*
X110284074Y-88348873D01*
X110301657Y-88327448D01*
X110626014Y-88003091D01*
X110647439Y-87985508D01*
X110666439Y-87975352D01*
X110687057Y-87969098D01*
X110708495Y-87966987D01*
X110729933Y-87969098D01*
X110729933Y-87969098D01*
G37*
G36*
X95659476Y-86809546D02*
X95832546Y-86881234D01*
X95988310Y-86985312D01*
X96120768Y-87117770D01*
X96224846Y-87273534D01*
X96296534Y-87446604D01*
X96333080Y-87630333D01*
X96333080Y-87817667D01*
X96296534Y-88001396D01*
X96224846Y-88174466D01*
X96120768Y-88330230D01*
X95988310Y-88462688D01*
X95832546Y-88566766D01*
X95659476Y-88638454D01*
X95475747Y-88675000D01*
X95288413Y-88675000D01*
X95104684Y-88638454D01*
X94931614Y-88566766D01*
X94775850Y-88462688D01*
X94643392Y-88330230D01*
X94539314Y-88174466D01*
X94467626Y-88001396D01*
X94431080Y-87817667D01*
X94431080Y-87630333D01*
X94467626Y-87446604D01*
X94539314Y-87273534D01*
X94643392Y-87117770D01*
X94775850Y-86985312D01*
X94931614Y-86881234D01*
X95104684Y-86809546D01*
X95288413Y-86773000D01*
X95475747Y-86773000D01*
X95659476Y-86809546D01*
X95659476Y-86809546D01*
G37*
G36*
X100874827Y-87295904D02*
X100895445Y-87302158D01*
X100914445Y-87312314D01*
X100935870Y-87329897D01*
X101295583Y-87689610D01*
X101313166Y-87711035D01*
X101323322Y-87730035D01*
X101329576Y-87750653D01*
X101331687Y-87772091D01*
X101329576Y-87793529D01*
X101323322Y-87814147D01*
X101313166Y-87833147D01*
X101295583Y-87854572D01*
X100971226Y-88178929D01*
X100949801Y-88196512D01*
X100930801Y-88206668D01*
X100910183Y-88212922D01*
X100888745Y-88215033D01*
X100867307Y-88212922D01*
X100846689Y-88206668D01*
X100827689Y-88196512D01*
X100806264Y-88178929D01*
X100446551Y-87819216D01*
X100428968Y-87797791D01*
X100418812Y-87778791D01*
X100412558Y-87758173D01*
X100410447Y-87736735D01*
X100412558Y-87715297D01*
X100418812Y-87694679D01*
X100428968Y-87675679D01*
X100446551Y-87654254D01*
X100770908Y-87329897D01*
X100792333Y-87312314D01*
X100811333Y-87302158D01*
X100831951Y-87295904D01*
X100853389Y-87293793D01*
X100874827Y-87295904D01*
X100874827Y-87295904D01*
G37*
G36*
X111415827Y-87283204D02*
X111436445Y-87289458D01*
X111455445Y-87299614D01*
X111476870Y-87317197D01*
X111836583Y-87676910D01*
X111854166Y-87698335D01*
X111864322Y-87717335D01*
X111870576Y-87737953D01*
X111872687Y-87759391D01*
X111870576Y-87780829D01*
X111864322Y-87801447D01*
X111854166Y-87820447D01*
X111836583Y-87841872D01*
X111512226Y-88166229D01*
X111490801Y-88183812D01*
X111471801Y-88193968D01*
X111451183Y-88200222D01*
X111429745Y-88202333D01*
X111408307Y-88200222D01*
X111387689Y-88193968D01*
X111368689Y-88183812D01*
X111347264Y-88166229D01*
X110987551Y-87806516D01*
X110969968Y-87785091D01*
X110959812Y-87766091D01*
X110953558Y-87745473D01*
X110951447Y-87724035D01*
X110953558Y-87702597D01*
X110959812Y-87681979D01*
X110969968Y-87662979D01*
X110987551Y-87641554D01*
X111311908Y-87317197D01*
X111333333Y-87299614D01*
X111352333Y-87289458D01*
X111372951Y-87283204D01*
X111394389Y-87281093D01*
X111415827Y-87283204D01*
X111415827Y-87283204D01*
G37*
G36*
X99426933Y-87270598D02*
X99447551Y-87276852D01*
X99466551Y-87287008D01*
X99487976Y-87304591D01*
X99847689Y-87664304D01*
X99865272Y-87685729D01*
X99875428Y-87704729D01*
X99881682Y-87725347D01*
X99883793Y-87746785D01*
X99881682Y-87768223D01*
X99875428Y-87788841D01*
X99865272Y-87807841D01*
X99847689Y-87829266D01*
X99523332Y-88153623D01*
X99501907Y-88171206D01*
X99482907Y-88181362D01*
X99462289Y-88187616D01*
X99440851Y-88189727D01*
X99419413Y-88187616D01*
X99398795Y-88181362D01*
X99379795Y-88171206D01*
X99358370Y-88153623D01*
X98998657Y-87793910D01*
X98981074Y-87772485D01*
X98970918Y-87753485D01*
X98964664Y-87732867D01*
X98962553Y-87711429D01*
X98964664Y-87689991D01*
X98970918Y-87669373D01*
X98981074Y-87650373D01*
X98998657Y-87628948D01*
X99323014Y-87304591D01*
X99344439Y-87287008D01*
X99363439Y-87276852D01*
X99384057Y-87270598D01*
X99405495Y-87268487D01*
X99426933Y-87270598D01*
X99426933Y-87270598D01*
G37*
G36*
X111044434Y-83689800D02*
X106941800Y-87792434D01*
X102839166Y-83689800D01*
X106941800Y-79587166D01*
X111044434Y-83689800D01*
X111044434Y-83689800D01*
G37*
G36*
X100112827Y-86584704D02*
X100133445Y-86590958D01*
X100152445Y-86601114D01*
X100173870Y-86618697D01*
X100533583Y-86978410D01*
X100551166Y-86999835D01*
X100561322Y-87018835D01*
X100567576Y-87039453D01*
X100569687Y-87060891D01*
X100567576Y-87082329D01*
X100561322Y-87102947D01*
X100551166Y-87121947D01*
X100533583Y-87143372D01*
X100209226Y-87467729D01*
X100187801Y-87485312D01*
X100168801Y-87495468D01*
X100148183Y-87501722D01*
X100126745Y-87503833D01*
X100105307Y-87501722D01*
X100084689Y-87495468D01*
X100065689Y-87485312D01*
X100044264Y-87467729D01*
X99684551Y-87108016D01*
X99666968Y-87086591D01*
X99656812Y-87067591D01*
X99650558Y-87046973D01*
X99648447Y-87025535D01*
X99650558Y-87004097D01*
X99656812Y-86983479D01*
X99666968Y-86964479D01*
X99684551Y-86943054D01*
X100008908Y-86618697D01*
X100030333Y-86601114D01*
X100049333Y-86590958D01*
X100069951Y-86584704D01*
X100091389Y-86582593D01*
X100112827Y-86584704D01*
X100112827Y-86584704D01*
G37*
G36*
X98664933Y-86508598D02*
X98685551Y-86514852D01*
X98704551Y-86525008D01*
X98725976Y-86542591D01*
X99085689Y-86902304D01*
X99103272Y-86923729D01*
X99113428Y-86942729D01*
X99119682Y-86963347D01*
X99121793Y-86984785D01*
X99119682Y-87006223D01*
X99113428Y-87026841D01*
X99103272Y-87045841D01*
X99085689Y-87067266D01*
X98761332Y-87391623D01*
X98739907Y-87409206D01*
X98720907Y-87419362D01*
X98700289Y-87425616D01*
X98678851Y-87427727D01*
X98657413Y-87425616D01*
X98636795Y-87419362D01*
X98617795Y-87409206D01*
X98596370Y-87391623D01*
X98236657Y-87031910D01*
X98219074Y-87010485D01*
X98208918Y-86991485D01*
X98202664Y-86970867D01*
X98200553Y-86949429D01*
X98202664Y-86927991D01*
X98208918Y-86907373D01*
X98219074Y-86888373D01*
X98236657Y-86866948D01*
X98561014Y-86542591D01*
X98582439Y-86525008D01*
X98601439Y-86514852D01*
X98622057Y-86508598D01*
X98643495Y-86506487D01*
X98664933Y-86508598D01*
X98664933Y-86508598D01*
G37*
G36*
X99350827Y-85822704D02*
X99371445Y-85828958D01*
X99390445Y-85839114D01*
X99411870Y-85856697D01*
X99771583Y-86216410D01*
X99789166Y-86237835D01*
X99799322Y-86256835D01*
X99805576Y-86277453D01*
X99807687Y-86298891D01*
X99805576Y-86320329D01*
X99799322Y-86340947D01*
X99789166Y-86359947D01*
X99771583Y-86381372D01*
X99447226Y-86705729D01*
X99425801Y-86723312D01*
X99406801Y-86733468D01*
X99386183Y-86739722D01*
X99364745Y-86741833D01*
X99343307Y-86739722D01*
X99322689Y-86733468D01*
X99303689Y-86723312D01*
X99282264Y-86705729D01*
X98922551Y-86346016D01*
X98904968Y-86324591D01*
X98894812Y-86305591D01*
X98888558Y-86284973D01*
X98886447Y-86263535D01*
X98888558Y-86242097D01*
X98894812Y-86221479D01*
X98904968Y-86202479D01*
X98922551Y-86181054D01*
X99246908Y-85856697D01*
X99268333Y-85839114D01*
X99287333Y-85828958D01*
X99307951Y-85822704D01*
X99329389Y-85820593D01*
X99350827Y-85822704D01*
X99350827Y-85822704D01*
G37*
G36*
X95659476Y-84309546D02*
X95832546Y-84381234D01*
X95988310Y-84485312D01*
X96120768Y-84617770D01*
X96224846Y-84773534D01*
X96296534Y-84946604D01*
X96333080Y-85130333D01*
X96333080Y-85317667D01*
X96296534Y-85501396D01*
X96224846Y-85674466D01*
X96120768Y-85830230D01*
X95988310Y-85962688D01*
X95832546Y-86066766D01*
X95659476Y-86138454D01*
X95475747Y-86175000D01*
X95288413Y-86175000D01*
X95104684Y-86138454D01*
X94931614Y-86066766D01*
X94775850Y-85962688D01*
X94643392Y-85830230D01*
X94539314Y-85674466D01*
X94467626Y-85501396D01*
X94431080Y-85317667D01*
X94431080Y-85130333D01*
X94467626Y-84946604D01*
X94539314Y-84773534D01*
X94643392Y-84617770D01*
X94775850Y-84485312D01*
X94931614Y-84381234D01*
X95104684Y-84309546D01*
X95288413Y-84273000D01*
X95475747Y-84273000D01*
X95659476Y-84309546D01*
X95659476Y-84309546D01*
G37*
G36*
X95659476Y-81809546D02*
X95832546Y-81881234D01*
X95988310Y-81985312D01*
X96120768Y-82117770D01*
X96224846Y-82273534D01*
X96296534Y-82446604D01*
X96333080Y-82630333D01*
X96333080Y-82817667D01*
X96296534Y-83001396D01*
X96224846Y-83174466D01*
X96120768Y-83330230D01*
X95988310Y-83462688D01*
X95832546Y-83566766D01*
X95659476Y-83638454D01*
X95475747Y-83675000D01*
X95288413Y-83675000D01*
X95104684Y-83638454D01*
X94931614Y-83566766D01*
X94775850Y-83462688D01*
X94643392Y-83330230D01*
X94539314Y-83174466D01*
X94467626Y-83001396D01*
X94431080Y-82817667D01*
X94431080Y-82630333D01*
X94467626Y-82446604D01*
X94539314Y-82273534D01*
X94643392Y-82117770D01*
X94775850Y-81985312D01*
X94931614Y-81881234D01*
X95104684Y-81809546D01*
X95288413Y-81773000D01*
X95475747Y-81773000D01*
X95659476Y-81809546D01*
X95659476Y-81809546D01*
G37*
G36*
X106193585Y-78237684D02*
X106222045Y-78246318D01*
X106222047Y-78246319D01*
X106248280Y-78260340D01*
X106265514Y-78274485D01*
X106265520Y-78274490D01*
X106700256Y-78709225D01*
X106700261Y-78709231D01*
X106714406Y-78726466D01*
X106718633Y-78734375D01*
X106728428Y-78752700D01*
X106737062Y-78781160D01*
X106739977Y-78810763D01*
X106737062Y-78840365D01*
X106728712Y-78867888D01*
X106728427Y-78868827D01*
X106714406Y-78895060D01*
X106695536Y-78918052D01*
X106672544Y-78936922D01*
X106646311Y-78950943D01*
X106646309Y-78950944D01*
X106617849Y-78959578D01*
X106582110Y-78963097D01*
X106569886Y-78963097D01*
X106545853Y-78967877D01*
X106523214Y-78977254D01*
X106502839Y-78990867D01*
X106485511Y-79008194D01*
X106471897Y-79028568D01*
X106462519Y-79051207D01*
X106457738Y-79075240D01*
X106457738Y-79087469D01*
X106454219Y-79123208D01*
X106445585Y-79151668D01*
X106445584Y-79151670D01*
X106431563Y-79177903D01*
X106412693Y-79200895D01*
X106389701Y-79219765D01*
X106382026Y-79223867D01*
X106363466Y-79233787D01*
X106335006Y-79242421D01*
X106299267Y-79245940D01*
X106287043Y-79245940D01*
X106263010Y-79250720D01*
X106240371Y-79260097D01*
X106219996Y-79273710D01*
X106202668Y-79291037D01*
X106189054Y-79311411D01*
X106179676Y-79334050D01*
X106174895Y-79358083D01*
X106174895Y-79370312D01*
X106171376Y-79406051D01*
X106162742Y-79434511D01*
X106162741Y-79434513D01*
X106148720Y-79460746D01*
X106129850Y-79483738D01*
X106106858Y-79502608D01*
X106080625Y-79516629D01*
X106080623Y-79516630D01*
X106052163Y-79525264D01*
X106016424Y-79528783D01*
X106004200Y-79528783D01*
X105980167Y-79533563D01*
X105957528Y-79542940D01*
X105937153Y-79556553D01*
X105919825Y-79573880D01*
X105906211Y-79594254D01*
X105896833Y-79616893D01*
X105892052Y-79640926D01*
X105892052Y-79653154D01*
X105888533Y-79688893D01*
X105880183Y-79716416D01*
X105879898Y-79717355D01*
X105865877Y-79743588D01*
X105847007Y-79766580D01*
X105824015Y-79785450D01*
X105797782Y-79799471D01*
X105797780Y-79799472D01*
X105769320Y-79808106D01*
X105733586Y-79811624D01*
X105721360Y-79811624D01*
X105697327Y-79816404D01*
X105674687Y-79825781D01*
X105654312Y-79839394D01*
X105636984Y-79856720D01*
X105623370Y-79877095D01*
X105613992Y-79899733D01*
X105609210Y-79923766D01*
X105609210Y-79935997D01*
X105605691Y-79971736D01*
X105597057Y-80000196D01*
X105597056Y-80000198D01*
X105583035Y-80026431D01*
X105564165Y-80049423D01*
X105541173Y-80068293D01*
X105521898Y-80078595D01*
X105514938Y-80082315D01*
X105486478Y-80090949D01*
X105450739Y-80094468D01*
X105438515Y-80094468D01*
X105414482Y-80099248D01*
X105391843Y-80108625D01*
X105371468Y-80122238D01*
X105354140Y-80139565D01*
X105340526Y-80159939D01*
X105331148Y-80182578D01*
X105326367Y-80206611D01*
X105326367Y-80218840D01*
X105322848Y-80254579D01*
X105314214Y-80283039D01*
X105314213Y-80283041D01*
X105300192Y-80309274D01*
X105281322Y-80332266D01*
X105258330Y-80351136D01*
X105255351Y-80352728D01*
X105232095Y-80365158D01*
X105203635Y-80373792D01*
X105167896Y-80377311D01*
X105155672Y-80377311D01*
X105131639Y-80382091D01*
X105109000Y-80391468D01*
X105088625Y-80405081D01*
X105071297Y-80422408D01*
X105057683Y-80442782D01*
X105048305Y-80465421D01*
X105043524Y-80489454D01*
X105043524Y-80501682D01*
X105040005Y-80537421D01*
X105031655Y-80564944D01*
X105031370Y-80565883D01*
X105017349Y-80592116D01*
X104998479Y-80615108D01*
X104975487Y-80633978D01*
X104969404Y-80637229D01*
X104949252Y-80648000D01*
X104920792Y-80656634D01*
X104885058Y-80660152D01*
X104872832Y-80660152D01*
X104848799Y-80664932D01*
X104826159Y-80674309D01*
X104805784Y-80687922D01*
X104788456Y-80705248D01*
X104774842Y-80725623D01*
X104765464Y-80748261D01*
X104760682Y-80772294D01*
X104760682Y-80784525D01*
X104757163Y-80820264D01*
X104748813Y-80847787D01*
X104748528Y-80848726D01*
X104734507Y-80874959D01*
X104715637Y-80897951D01*
X104692645Y-80916821D01*
X104674487Y-80926526D01*
X104666410Y-80930843D01*
X104637950Y-80939477D01*
X104602211Y-80942996D01*
X104589987Y-80942996D01*
X104565954Y-80947776D01*
X104543315Y-80957153D01*
X104522940Y-80970766D01*
X104505612Y-80988093D01*
X104491998Y-81008467D01*
X104482620Y-81031106D01*
X104477839Y-81055139D01*
X104477839Y-81067368D01*
X104474320Y-81103107D01*
X104465686Y-81131567D01*
X104465685Y-81131569D01*
X104451664Y-81157802D01*
X104432794Y-81180794D01*
X104409802Y-81199664D01*
X104383569Y-81213685D01*
X104383567Y-81213686D01*
X104355107Y-81222320D01*
X104319368Y-81225839D01*
X104307144Y-81225839D01*
X104283111Y-81230619D01*
X104260472Y-81239996D01*
X104240097Y-81253609D01*
X104222769Y-81270936D01*
X104209155Y-81291310D01*
X104199777Y-81313949D01*
X104194996Y-81337982D01*
X104194996Y-81350211D01*
X104191477Y-81385950D01*
X104182843Y-81414410D01*
X104182842Y-81414412D01*
X104168821Y-81440645D01*
X104149951Y-81463637D01*
X104126959Y-81482507D01*
X104100726Y-81496528D01*
X104100724Y-81496529D01*
X104072264Y-81505163D01*
X104036525Y-81508682D01*
X104024301Y-81508682D01*
X104000268Y-81513462D01*
X103977629Y-81522839D01*
X103957254Y-81536452D01*
X103939926Y-81553779D01*
X103926312Y-81574153D01*
X103916934Y-81596792D01*
X103912153Y-81620825D01*
X103912153Y-81633053D01*
X103908634Y-81668792D01*
X103900284Y-81696315D01*
X103899999Y-81697254D01*
X103885978Y-81723487D01*
X103867108Y-81746479D01*
X103844116Y-81765349D01*
X103829801Y-81773000D01*
X103817881Y-81779371D01*
X103789421Y-81788005D01*
X103753687Y-81791523D01*
X103741461Y-81791523D01*
X103717428Y-81796303D01*
X103694788Y-81805680D01*
X103674413Y-81819293D01*
X103657085Y-81836619D01*
X103643471Y-81856994D01*
X103634093Y-81879632D01*
X103629311Y-81903665D01*
X103629311Y-81915896D01*
X103625792Y-81951635D01*
X103617158Y-81980095D01*
X103617157Y-81980097D01*
X103603136Y-82006330D01*
X103584266Y-82029322D01*
X103561274Y-82048192D01*
X103535041Y-82062213D01*
X103535039Y-82062214D01*
X103506579Y-82070848D01*
X103470840Y-82074367D01*
X103458616Y-82074367D01*
X103434583Y-82079147D01*
X103411944Y-82088524D01*
X103391569Y-82102137D01*
X103374241Y-82119464D01*
X103360627Y-82139838D01*
X103351249Y-82162477D01*
X103346468Y-82186510D01*
X103346468Y-82198739D01*
X103342949Y-82234478D01*
X103334315Y-82262938D01*
X103334314Y-82262940D01*
X103320293Y-82289173D01*
X103301423Y-82312165D01*
X103278431Y-82331035D01*
X103261276Y-82340204D01*
X103252196Y-82345057D01*
X103223736Y-82353691D01*
X103187997Y-82357210D01*
X103175773Y-82357210D01*
X103151740Y-82361990D01*
X103129101Y-82371367D01*
X103108726Y-82384980D01*
X103091398Y-82402307D01*
X103077784Y-82422681D01*
X103068406Y-82445320D01*
X103063625Y-82469353D01*
X103063625Y-82481581D01*
X103060106Y-82517320D01*
X103051756Y-82544843D01*
X103051471Y-82545782D01*
X103037450Y-82572015D01*
X103018580Y-82595007D01*
X102995588Y-82613877D01*
X102977782Y-82623394D01*
X102969353Y-82627899D01*
X102940893Y-82636533D01*
X102905159Y-82640051D01*
X102892933Y-82640051D01*
X102868900Y-82644831D01*
X102846260Y-82654208D01*
X102825885Y-82667821D01*
X102808557Y-82685147D01*
X102794943Y-82705522D01*
X102785565Y-82728160D01*
X102780783Y-82752193D01*
X102780783Y-82764424D01*
X102777264Y-82800163D01*
X102768914Y-82827686D01*
X102768629Y-82828625D01*
X102754608Y-82854858D01*
X102735738Y-82877850D01*
X102712746Y-82896720D01*
X102693761Y-82906867D01*
X102686511Y-82910742D01*
X102658051Y-82919376D01*
X102622312Y-82922895D01*
X102610088Y-82922895D01*
X102586055Y-82927675D01*
X102563416Y-82937052D01*
X102543041Y-82950665D01*
X102525713Y-82967992D01*
X102512099Y-82988366D01*
X102502721Y-83011005D01*
X102497940Y-83035038D01*
X102497940Y-83047267D01*
X102494421Y-83083006D01*
X102485787Y-83111466D01*
X102485786Y-83111468D01*
X102471765Y-83137701D01*
X102452895Y-83160693D01*
X102429903Y-83179563D01*
X102403670Y-83193584D01*
X102403668Y-83193585D01*
X102375208Y-83202219D01*
X102339469Y-83205738D01*
X102327245Y-83205738D01*
X102303212Y-83210518D01*
X102280573Y-83219895D01*
X102260198Y-83233508D01*
X102242870Y-83250835D01*
X102229256Y-83271209D01*
X102219878Y-83293848D01*
X102215097Y-83317881D01*
X102215097Y-83330110D01*
X102211578Y-83365849D01*
X102202944Y-83394309D01*
X102202943Y-83394311D01*
X102188922Y-83420544D01*
X102170052Y-83443536D01*
X102147060Y-83462406D01*
X102120827Y-83476427D01*
X102120825Y-83476428D01*
X102092365Y-83485062D01*
X102062763Y-83487977D01*
X102033160Y-83485062D01*
X102004700Y-83476428D01*
X102004698Y-83476427D01*
X101978466Y-83462406D01*
X101961231Y-83448261D01*
X101961225Y-83448256D01*
X101526490Y-83013520D01*
X101521761Y-83007758D01*
X101512340Y-82996280D01*
X101498319Y-82970047D01*
X101498318Y-82970045D01*
X101489684Y-82941585D01*
X101486769Y-82911983D01*
X101489684Y-82882381D01*
X101498318Y-82853921D01*
X101506665Y-82838304D01*
X101512340Y-82827686D01*
X101531210Y-82804694D01*
X101554202Y-82785824D01*
X101580435Y-82771803D01*
X101580437Y-82771802D01*
X101608897Y-82763168D01*
X101644636Y-82759649D01*
X101656860Y-82759649D01*
X101680893Y-82754869D01*
X101703532Y-82745492D01*
X101723907Y-82731879D01*
X101741235Y-82714552D01*
X101754849Y-82694178D01*
X101764227Y-82671539D01*
X101769008Y-82647506D01*
X101769008Y-82635277D01*
X101772527Y-82599538D01*
X101781161Y-82571078D01*
X101785274Y-82563382D01*
X101795183Y-82544843D01*
X101814053Y-82521851D01*
X101837045Y-82502981D01*
X101863278Y-82488960D01*
X101863280Y-82488959D01*
X101891740Y-82480325D01*
X101927479Y-82476806D01*
X101939703Y-82476806D01*
X101963736Y-82472026D01*
X101986375Y-82462649D01*
X102006750Y-82449036D01*
X102024078Y-82431709D01*
X102037692Y-82411335D01*
X102047070Y-82388696D01*
X102051851Y-82364663D01*
X102051851Y-82352434D01*
X102055370Y-82316695D01*
X102064004Y-82288235D01*
X102071119Y-82274923D01*
X102078026Y-82262000D01*
X102096896Y-82239008D01*
X102119888Y-82220138D01*
X102146121Y-82206117D01*
X102146123Y-82206116D01*
X102174583Y-82197482D01*
X102210317Y-82193964D01*
X102222543Y-82193964D01*
X102246576Y-82189184D01*
X102269216Y-82179807D01*
X102289591Y-82166194D01*
X102306919Y-82148868D01*
X102320533Y-82128493D01*
X102329911Y-82105855D01*
X102334693Y-82081822D01*
X102334693Y-82069591D01*
X102338212Y-82033852D01*
X102346846Y-82005392D01*
X102346847Y-82005390D01*
X102360868Y-81979157D01*
X102379738Y-81956165D01*
X102402730Y-81937295D01*
X102428963Y-81923274D01*
X102428965Y-81923273D01*
X102457425Y-81914639D01*
X102493164Y-81911120D01*
X102505388Y-81911120D01*
X102529421Y-81906340D01*
X102552060Y-81896963D01*
X102572435Y-81883350D01*
X102589763Y-81866023D01*
X102603377Y-81845649D01*
X102612755Y-81823010D01*
X102617536Y-81798977D01*
X102617536Y-81786749D01*
X102621055Y-81751010D01*
X102629689Y-81722550D01*
X102633908Y-81714657D01*
X102643711Y-81696315D01*
X102662581Y-81673323D01*
X102685573Y-81654453D01*
X102711806Y-81640432D01*
X102711808Y-81640431D01*
X102740268Y-81631797D01*
X102776007Y-81628278D01*
X102788231Y-81628278D01*
X102812264Y-81623498D01*
X102834903Y-81614121D01*
X102855278Y-81600508D01*
X102872606Y-81583181D01*
X102886220Y-81562807D01*
X102895598Y-81540168D01*
X102900379Y-81516135D01*
X102900379Y-81503906D01*
X102903898Y-81468167D01*
X102912532Y-81439707D01*
X102926555Y-81413471D01*
X102945424Y-81390480D01*
X102968415Y-81371611D01*
X102968414Y-81371611D01*
X102968416Y-81371610D01*
X102994649Y-81357589D01*
X102994651Y-81357588D01*
X103023111Y-81348954D01*
X103058845Y-81345436D01*
X103071071Y-81345436D01*
X103095104Y-81340656D01*
X103117744Y-81331279D01*
X103138119Y-81317666D01*
X103155447Y-81300340D01*
X103169061Y-81279965D01*
X103178439Y-81257327D01*
X103183221Y-81233294D01*
X103183221Y-81221063D01*
X103186740Y-81185324D01*
X103195374Y-81156864D01*
X103205214Y-81138454D01*
X103209396Y-81130629D01*
X103228266Y-81107637D01*
X103251258Y-81088767D01*
X103277491Y-81074746D01*
X103277493Y-81074745D01*
X103305953Y-81066111D01*
X103341692Y-81062592D01*
X103353916Y-81062592D01*
X103377949Y-81057812D01*
X103400588Y-81048435D01*
X103420963Y-81034822D01*
X103438291Y-81017495D01*
X103451905Y-80997121D01*
X103461283Y-80974482D01*
X103466064Y-80950449D01*
X103466064Y-80938221D01*
X103469583Y-80902482D01*
X103478217Y-80874022D01*
X103478218Y-80874020D01*
X103492239Y-80847787D01*
X103511109Y-80824795D01*
X103534101Y-80805925D01*
X103560334Y-80791904D01*
X103560336Y-80791903D01*
X103588796Y-80783269D01*
X103624535Y-80779750D01*
X103636759Y-80779750D01*
X103660792Y-80774970D01*
X103683431Y-80765593D01*
X103703806Y-80751980D01*
X103721134Y-80734653D01*
X103734748Y-80714279D01*
X103744126Y-80691640D01*
X103748907Y-80667607D01*
X103748907Y-80655378D01*
X103752426Y-80619639D01*
X103761060Y-80591179D01*
X103761061Y-80591177D01*
X103775082Y-80564944D01*
X103793952Y-80541952D01*
X103816944Y-80523082D01*
X103843177Y-80509061D01*
X103843179Y-80509060D01*
X103871639Y-80500426D01*
X103907378Y-80496907D01*
X103919602Y-80496907D01*
X103943635Y-80492127D01*
X103966274Y-80482750D01*
X103986649Y-80469137D01*
X104003977Y-80451810D01*
X104017591Y-80431436D01*
X104026969Y-80408797D01*
X104031750Y-80384764D01*
X104031750Y-80372535D01*
X104035269Y-80336796D01*
X104043903Y-80308336D01*
X104057926Y-80282100D01*
X104076795Y-80259109D01*
X104099786Y-80240240D01*
X104099785Y-80240240D01*
X104099787Y-80240239D01*
X104126020Y-80226218D01*
X104126022Y-80226217D01*
X104154482Y-80217583D01*
X104190216Y-80214065D01*
X104202442Y-80214065D01*
X104226475Y-80209285D01*
X104249115Y-80199908D01*
X104269490Y-80186295D01*
X104286818Y-80168969D01*
X104300432Y-80148594D01*
X104309810Y-80125956D01*
X104314592Y-80101923D01*
X104314592Y-80089692D01*
X104318111Y-80053953D01*
X104326745Y-80025493D01*
X104334606Y-80010786D01*
X104340767Y-79999258D01*
X104359637Y-79976266D01*
X104382629Y-79957396D01*
X104408862Y-79943375D01*
X104408864Y-79943374D01*
X104437324Y-79934740D01*
X104473063Y-79931221D01*
X104485287Y-79931221D01*
X104509320Y-79926441D01*
X104531959Y-79917064D01*
X104552334Y-79903451D01*
X104569662Y-79886124D01*
X104583276Y-79865750D01*
X104592654Y-79843111D01*
X104597435Y-79819078D01*
X104597435Y-79806850D01*
X104600954Y-79771111D01*
X104609588Y-79742651D01*
X104621014Y-79721273D01*
X104623610Y-79716416D01*
X104642480Y-79693424D01*
X104665472Y-79674554D01*
X104691705Y-79660533D01*
X104691707Y-79660532D01*
X104720167Y-79651898D01*
X104755906Y-79648379D01*
X104768130Y-79648379D01*
X104792163Y-79643599D01*
X104814802Y-79634222D01*
X104835177Y-79620609D01*
X104852505Y-79603282D01*
X104866119Y-79582908D01*
X104875497Y-79560269D01*
X104880278Y-79536236D01*
X104880278Y-79524007D01*
X104883797Y-79488268D01*
X104892431Y-79459808D01*
X104906454Y-79433572D01*
X104925323Y-79410581D01*
X104948314Y-79391712D01*
X104948313Y-79391712D01*
X104948315Y-79391711D01*
X104974548Y-79377690D01*
X104974550Y-79377689D01*
X105003010Y-79369055D01*
X105038744Y-79365537D01*
X105050970Y-79365537D01*
X105075003Y-79360757D01*
X105097643Y-79351380D01*
X105118018Y-79337767D01*
X105135346Y-79320441D01*
X105148960Y-79300066D01*
X105158338Y-79277428D01*
X105163120Y-79253395D01*
X105163120Y-79241164D01*
X105166639Y-79205425D01*
X105175273Y-79176965D01*
X105179702Y-79168678D01*
X105189295Y-79150730D01*
X105208165Y-79127738D01*
X105231157Y-79108868D01*
X105257390Y-79094847D01*
X105257392Y-79094846D01*
X105285852Y-79086212D01*
X105321591Y-79082693D01*
X105333815Y-79082693D01*
X105357848Y-79077913D01*
X105380487Y-79068536D01*
X105400862Y-79054923D01*
X105418190Y-79037596D01*
X105431804Y-79017222D01*
X105441182Y-78994583D01*
X105445963Y-78970550D01*
X105445963Y-78958322D01*
X105449482Y-78922583D01*
X105458116Y-78894123D01*
X105458117Y-78894121D01*
X105472138Y-78867888D01*
X105491008Y-78844896D01*
X105514000Y-78826026D01*
X105540233Y-78812005D01*
X105540235Y-78812004D01*
X105568695Y-78803370D01*
X105604434Y-78799851D01*
X105616658Y-78799851D01*
X105640691Y-78795071D01*
X105663330Y-78785694D01*
X105683705Y-78772081D01*
X105701033Y-78754754D01*
X105714647Y-78734380D01*
X105724025Y-78711741D01*
X105728806Y-78687708D01*
X105728806Y-78675479D01*
X105732325Y-78639740D01*
X105740959Y-78611280D01*
X105754982Y-78585044D01*
X105773851Y-78562053D01*
X105786233Y-78551891D01*
X105796843Y-78543183D01*
X105823076Y-78529162D01*
X105823078Y-78529161D01*
X105851538Y-78520527D01*
X105887277Y-78517008D01*
X105899501Y-78517008D01*
X105923534Y-78512228D01*
X105946173Y-78502851D01*
X105966548Y-78489238D01*
X105983876Y-78471911D01*
X105997490Y-78451537D01*
X106006868Y-78428898D01*
X106011649Y-78404865D01*
X106011649Y-78392636D01*
X106015168Y-78356897D01*
X106023802Y-78328437D01*
X106037825Y-78302201D01*
X106056694Y-78279210D01*
X106079685Y-78260341D01*
X106079684Y-78260341D01*
X106079686Y-78260340D01*
X106105919Y-78246319D01*
X106105921Y-78246318D01*
X106134381Y-78237684D01*
X106163983Y-78234769D01*
X106193585Y-78237684D01*
X106193585Y-78237684D01*
G37*
G36*
X107749219Y-78237684D02*
X107777679Y-78246318D01*
X107777681Y-78246319D01*
X107803914Y-78260340D01*
X107803916Y-78260341D01*
X107803915Y-78260341D01*
X107826906Y-78279210D01*
X107845775Y-78302201D01*
X107859798Y-78328437D01*
X107868432Y-78356897D01*
X107871951Y-78392636D01*
X107871951Y-78404860D01*
X107876731Y-78428893D01*
X107886108Y-78451532D01*
X107899721Y-78471907D01*
X107917048Y-78489235D01*
X107937422Y-78502849D01*
X107960061Y-78512227D01*
X107984094Y-78517008D01*
X107996323Y-78517008D01*
X108032062Y-78520527D01*
X108060522Y-78529161D01*
X108060524Y-78529162D01*
X108086757Y-78543183D01*
X108097367Y-78551891D01*
X108109749Y-78562053D01*
X108128618Y-78585044D01*
X108142641Y-78611280D01*
X108151275Y-78639740D01*
X108154794Y-78675479D01*
X108154794Y-78687703D01*
X108159574Y-78711736D01*
X108168951Y-78734375D01*
X108182564Y-78754750D01*
X108199891Y-78772078D01*
X108220265Y-78785692D01*
X108242904Y-78795070D01*
X108266937Y-78799851D01*
X108279166Y-78799851D01*
X108314905Y-78803370D01*
X108343365Y-78812004D01*
X108343367Y-78812005D01*
X108369600Y-78826026D01*
X108392592Y-78844896D01*
X108411462Y-78867888D01*
X108425483Y-78894121D01*
X108425484Y-78894123D01*
X108434118Y-78922583D01*
X108437636Y-78958317D01*
X108437636Y-78970543D01*
X108442416Y-78994576D01*
X108451793Y-79017216D01*
X108465406Y-79037591D01*
X108482732Y-79054919D01*
X108503107Y-79068533D01*
X108525745Y-79077911D01*
X108549778Y-79082693D01*
X108562009Y-79082693D01*
X108597748Y-79086212D01*
X108626208Y-79094846D01*
X108626210Y-79094847D01*
X108652443Y-79108868D01*
X108675435Y-79127738D01*
X108694305Y-79150730D01*
X108703898Y-79168678D01*
X108708327Y-79176965D01*
X108716961Y-79205425D01*
X108720480Y-79241164D01*
X108720480Y-79253388D01*
X108725260Y-79277421D01*
X108734637Y-79300060D01*
X108748250Y-79320435D01*
X108765577Y-79337763D01*
X108785951Y-79351377D01*
X108808590Y-79360755D01*
X108832623Y-79365536D01*
X108844851Y-79365536D01*
X108880590Y-79369055D01*
X108909050Y-79377689D01*
X108909052Y-79377690D01*
X108935285Y-79391711D01*
X108935287Y-79391712D01*
X108935286Y-79391712D01*
X108958277Y-79410581D01*
X108977146Y-79433572D01*
X108991169Y-79459808D01*
X108999803Y-79488268D01*
X109003322Y-79524007D01*
X109003322Y-79536231D01*
X109008102Y-79560264D01*
X109017479Y-79582903D01*
X109031092Y-79603278D01*
X109048419Y-79620606D01*
X109068793Y-79634220D01*
X109091432Y-79643598D01*
X109115465Y-79648379D01*
X109127694Y-79648379D01*
X109163433Y-79651898D01*
X109191893Y-79660532D01*
X109191895Y-79660533D01*
X109218128Y-79674554D01*
X109241120Y-79693424D01*
X109259990Y-79716416D01*
X109262586Y-79721273D01*
X109274012Y-79742651D01*
X109282646Y-79771111D01*
X109286164Y-79806845D01*
X109286164Y-79819071D01*
X109290944Y-79843104D01*
X109300321Y-79865744D01*
X109313934Y-79886119D01*
X109331260Y-79903447D01*
X109351635Y-79917061D01*
X109374273Y-79926439D01*
X109398306Y-79931221D01*
X109410537Y-79931221D01*
X109446276Y-79934740D01*
X109474736Y-79943374D01*
X109474738Y-79943375D01*
X109500971Y-79957396D01*
X109523963Y-79976266D01*
X109542833Y-79999258D01*
X109548994Y-80010786D01*
X109556855Y-80025493D01*
X109565489Y-80053953D01*
X109569008Y-80089692D01*
X109569008Y-80101916D01*
X109573788Y-80125949D01*
X109583165Y-80148588D01*
X109596778Y-80168963D01*
X109614105Y-80186291D01*
X109634479Y-80199905D01*
X109657118Y-80209283D01*
X109681151Y-80214064D01*
X109693379Y-80214064D01*
X109729118Y-80217583D01*
X109757578Y-80226217D01*
X109757580Y-80226218D01*
X109783813Y-80240239D01*
X109783815Y-80240240D01*
X109783814Y-80240240D01*
X109806805Y-80259109D01*
X109825674Y-80282100D01*
X109839697Y-80308336D01*
X109848331Y-80336796D01*
X109851850Y-80372535D01*
X109851850Y-80384759D01*
X109856630Y-80408792D01*
X109866007Y-80431431D01*
X109879620Y-80451806D01*
X109896947Y-80469134D01*
X109917321Y-80482748D01*
X109939960Y-80492126D01*
X109963993Y-80496907D01*
X109976222Y-80496907D01*
X110011961Y-80500426D01*
X110040421Y-80509060D01*
X110040423Y-80509061D01*
X110066656Y-80523082D01*
X110089648Y-80541952D01*
X110108518Y-80564944D01*
X110122539Y-80591177D01*
X110122540Y-80591179D01*
X110131174Y-80619639D01*
X110134693Y-80655378D01*
X110134693Y-80667602D01*
X110139473Y-80691635D01*
X110148850Y-80714274D01*
X110162463Y-80734649D01*
X110179790Y-80751977D01*
X110200164Y-80765591D01*
X110222803Y-80774969D01*
X110246836Y-80779750D01*
X110259065Y-80779750D01*
X110294804Y-80783269D01*
X110323264Y-80791903D01*
X110323266Y-80791904D01*
X110349499Y-80805925D01*
X110372491Y-80824795D01*
X110391361Y-80847787D01*
X110405382Y-80874020D01*
X110405383Y-80874022D01*
X110414017Y-80902482D01*
X110417535Y-80938216D01*
X110417535Y-80950442D01*
X110422315Y-80974475D01*
X110431692Y-80997115D01*
X110445305Y-81017490D01*
X110462631Y-81034818D01*
X110483006Y-81048432D01*
X110505644Y-81057810D01*
X110529677Y-81062592D01*
X110541908Y-81062592D01*
X110577647Y-81066111D01*
X110606107Y-81074745D01*
X110606109Y-81074746D01*
X110632342Y-81088767D01*
X110655334Y-81107637D01*
X110674204Y-81130629D01*
X110678386Y-81138454D01*
X110688226Y-81156864D01*
X110696860Y-81185324D01*
X110700379Y-81221063D01*
X110700379Y-81233287D01*
X110705159Y-81257320D01*
X110714536Y-81279959D01*
X110728149Y-81300334D01*
X110745476Y-81317662D01*
X110765850Y-81331276D01*
X110788489Y-81340654D01*
X110812522Y-81345435D01*
X110824750Y-81345435D01*
X110860489Y-81348954D01*
X110888949Y-81357588D01*
X110888951Y-81357589D01*
X110915184Y-81371610D01*
X110915186Y-81371611D01*
X110915185Y-81371611D01*
X110938176Y-81390480D01*
X110957045Y-81413471D01*
X110971068Y-81439707D01*
X110979702Y-81468167D01*
X110983221Y-81503906D01*
X110983221Y-81516130D01*
X110988001Y-81540163D01*
X110997378Y-81562802D01*
X111010991Y-81583177D01*
X111028318Y-81600505D01*
X111048692Y-81614119D01*
X111071331Y-81623497D01*
X111095364Y-81628278D01*
X111107593Y-81628278D01*
X111143332Y-81631797D01*
X111171792Y-81640431D01*
X111171794Y-81640432D01*
X111198027Y-81654453D01*
X111221019Y-81673323D01*
X111239889Y-81696315D01*
X111249692Y-81714657D01*
X111253911Y-81722550D01*
X111262545Y-81751010D01*
X111266063Y-81786744D01*
X111266063Y-81798970D01*
X111270843Y-81823003D01*
X111280220Y-81845643D01*
X111293833Y-81866018D01*
X111311159Y-81883346D01*
X111331534Y-81896960D01*
X111354172Y-81906338D01*
X111378205Y-81911120D01*
X111390436Y-81911120D01*
X111426175Y-81914639D01*
X111454635Y-81923273D01*
X111454637Y-81923274D01*
X111480870Y-81937295D01*
X111503862Y-81956165D01*
X111522732Y-81979157D01*
X111536753Y-82005390D01*
X111536754Y-82005392D01*
X111545388Y-82033852D01*
X111548907Y-82069591D01*
X111548907Y-82081815D01*
X111553687Y-82105848D01*
X111563064Y-82128487D01*
X111576677Y-82148862D01*
X111594004Y-82166190D01*
X111614378Y-82179804D01*
X111637017Y-82189182D01*
X111661050Y-82193963D01*
X111673278Y-82193963D01*
X111709017Y-82197482D01*
X111737477Y-82206116D01*
X111737479Y-82206117D01*
X111763712Y-82220138D01*
X111786704Y-82239008D01*
X111805574Y-82262000D01*
X111812481Y-82274923D01*
X111819596Y-82288235D01*
X111828230Y-82316695D01*
X111831749Y-82352434D01*
X111831749Y-82364658D01*
X111836529Y-82388691D01*
X111845906Y-82411330D01*
X111859519Y-82431705D01*
X111876846Y-82449033D01*
X111897220Y-82462647D01*
X111919859Y-82472025D01*
X111943892Y-82476806D01*
X111956121Y-82476806D01*
X111991860Y-82480325D01*
X112020320Y-82488959D01*
X112020322Y-82488960D01*
X112046555Y-82502981D01*
X112069547Y-82521851D01*
X112088417Y-82544843D01*
X112098326Y-82563382D01*
X112102439Y-82571078D01*
X112111073Y-82599538D01*
X112114592Y-82635277D01*
X112114592Y-82647501D01*
X112119372Y-82671534D01*
X112128749Y-82694173D01*
X112142362Y-82714548D01*
X112159689Y-82731876D01*
X112180063Y-82745490D01*
X112202702Y-82754868D01*
X112226735Y-82759649D01*
X112238964Y-82759649D01*
X112274703Y-82763168D01*
X112303163Y-82771802D01*
X112303165Y-82771803D01*
X112329398Y-82785824D01*
X112352390Y-82804694D01*
X112371260Y-82827686D01*
X112376935Y-82838304D01*
X112385282Y-82853921D01*
X112393916Y-82882381D01*
X112396831Y-82911983D01*
X112393916Y-82941586D01*
X112385282Y-82970045D01*
X112385281Y-82970048D01*
X112371260Y-82996280D01*
X112368233Y-82999968D01*
X112357110Y-83013521D01*
X111922374Y-83448256D01*
X111922368Y-83448261D01*
X111905134Y-83462406D01*
X111878901Y-83476427D01*
X111878899Y-83476428D01*
X111850439Y-83485062D01*
X111820837Y-83487977D01*
X111791235Y-83485062D01*
X111762775Y-83476428D01*
X111762773Y-83476427D01*
X111736540Y-83462406D01*
X111713548Y-83443536D01*
X111694678Y-83420544D01*
X111680657Y-83394311D01*
X111680656Y-83394309D01*
X111672022Y-83365849D01*
X111668503Y-83330110D01*
X111668503Y-83317886D01*
X111663723Y-83293853D01*
X111654346Y-83271214D01*
X111640733Y-83250839D01*
X111623406Y-83233511D01*
X111603032Y-83219897D01*
X111580393Y-83210519D01*
X111556360Y-83205738D01*
X111544131Y-83205738D01*
X111508392Y-83202219D01*
X111479932Y-83193585D01*
X111479930Y-83193584D01*
X111453697Y-83179563D01*
X111430705Y-83160693D01*
X111411835Y-83137701D01*
X111397814Y-83111468D01*
X111397813Y-83111466D01*
X111389179Y-83083006D01*
X111385660Y-83047267D01*
X111385660Y-83035043D01*
X111380880Y-83011010D01*
X111371503Y-82988371D01*
X111357890Y-82967996D01*
X111340563Y-82950668D01*
X111320189Y-82937054D01*
X111297550Y-82927676D01*
X111273517Y-82922895D01*
X111261288Y-82922895D01*
X111225549Y-82919376D01*
X111197089Y-82910742D01*
X111189839Y-82906867D01*
X111170854Y-82896720D01*
X111147862Y-82877850D01*
X111128992Y-82854858D01*
X111114971Y-82828625D01*
X111114686Y-82827686D01*
X111106336Y-82800163D01*
X111102817Y-82764424D01*
X111102817Y-82752200D01*
X111098037Y-82728167D01*
X111088660Y-82705528D01*
X111075047Y-82685153D01*
X111057720Y-82667825D01*
X111037346Y-82654211D01*
X111014707Y-82644833D01*
X110990674Y-82640052D01*
X110978446Y-82640052D01*
X110942707Y-82636533D01*
X110914247Y-82627899D01*
X110905818Y-82623394D01*
X110888012Y-82613877D01*
X110865020Y-82595007D01*
X110846150Y-82572015D01*
X110832129Y-82545782D01*
X110831844Y-82544843D01*
X110823494Y-82517320D01*
X110819976Y-82481586D01*
X110819976Y-82469360D01*
X110815196Y-82445327D01*
X110805819Y-82422687D01*
X110792206Y-82402312D01*
X110774880Y-82384984D01*
X110754505Y-82371370D01*
X110731867Y-82361992D01*
X110707834Y-82357210D01*
X110695603Y-82357210D01*
X110659864Y-82353691D01*
X110631404Y-82345057D01*
X110622324Y-82340204D01*
X110605169Y-82331035D01*
X110582177Y-82312165D01*
X110563307Y-82289173D01*
X110549286Y-82262940D01*
X110549285Y-82262938D01*
X110540651Y-82234478D01*
X110537132Y-82198739D01*
X110537132Y-82186515D01*
X110532352Y-82162482D01*
X110522975Y-82139843D01*
X110509362Y-82119468D01*
X110492035Y-82102140D01*
X110471661Y-82088526D01*
X110449022Y-82079148D01*
X110424989Y-82074367D01*
X110412760Y-82074367D01*
X110377021Y-82070848D01*
X110348561Y-82062214D01*
X110348559Y-82062213D01*
X110322326Y-82048192D01*
X110299334Y-82029322D01*
X110280464Y-82006330D01*
X110266443Y-81980097D01*
X110266442Y-81980095D01*
X110257808Y-81951635D01*
X110254289Y-81915896D01*
X110254289Y-81903672D01*
X110249509Y-81879639D01*
X110240132Y-81857000D01*
X110226519Y-81836625D01*
X110209192Y-81819297D01*
X110188818Y-81805683D01*
X110166179Y-81796305D01*
X110142146Y-81791524D01*
X110129918Y-81791524D01*
X110094179Y-81788005D01*
X110065719Y-81779371D01*
X110053799Y-81773000D01*
X110039484Y-81765349D01*
X110016492Y-81746479D01*
X109997622Y-81723487D01*
X109983601Y-81697254D01*
X109983316Y-81696315D01*
X109974966Y-81668792D01*
X109971448Y-81633058D01*
X109971448Y-81620832D01*
X109966668Y-81596799D01*
X109957291Y-81574159D01*
X109943678Y-81553784D01*
X109926352Y-81536456D01*
X109905977Y-81522842D01*
X109883339Y-81513464D01*
X109859306Y-81508682D01*
X109847075Y-81508682D01*
X109811336Y-81505163D01*
X109782876Y-81496529D01*
X109782874Y-81496528D01*
X109756641Y-81482507D01*
X109733649Y-81463637D01*
X109714779Y-81440645D01*
X109700758Y-81414412D01*
X109700757Y-81414410D01*
X109692123Y-81385950D01*
X109688604Y-81350211D01*
X109688604Y-81337987D01*
X109683824Y-81313954D01*
X109674447Y-81291315D01*
X109660834Y-81270940D01*
X109643507Y-81253612D01*
X109623133Y-81239998D01*
X109600494Y-81230620D01*
X109576461Y-81225839D01*
X109564232Y-81225839D01*
X109528493Y-81222320D01*
X109500033Y-81213686D01*
X109500031Y-81213685D01*
X109473798Y-81199664D01*
X109450806Y-81180794D01*
X109431936Y-81157802D01*
X109417915Y-81131569D01*
X109417914Y-81131567D01*
X109409280Y-81103107D01*
X109405761Y-81067368D01*
X109405761Y-81055144D01*
X109400981Y-81031111D01*
X109391604Y-81008472D01*
X109377991Y-80988097D01*
X109360664Y-80970769D01*
X109340290Y-80957155D01*
X109317651Y-80947777D01*
X109293618Y-80942996D01*
X109281389Y-80942996D01*
X109245650Y-80939477D01*
X109217190Y-80930843D01*
X109209113Y-80926526D01*
X109190955Y-80916821D01*
X109167963Y-80897951D01*
X109149093Y-80874959D01*
X109135072Y-80848726D01*
X109134787Y-80847787D01*
X109126437Y-80820264D01*
X109122918Y-80784525D01*
X109122918Y-80772301D01*
X109118138Y-80748268D01*
X109108761Y-80725629D01*
X109095148Y-80705254D01*
X109077821Y-80687926D01*
X109057447Y-80674312D01*
X109034808Y-80664934D01*
X109010775Y-80660153D01*
X108998547Y-80660153D01*
X108962808Y-80656634D01*
X108934348Y-80648000D01*
X108914196Y-80637229D01*
X108908113Y-80633978D01*
X108885121Y-80615108D01*
X108866251Y-80592116D01*
X108852230Y-80565883D01*
X108851945Y-80564944D01*
X108843595Y-80537421D01*
X108840077Y-80501687D01*
X108840077Y-80489461D01*
X108835297Y-80465428D01*
X108825920Y-80442788D01*
X108812307Y-80422413D01*
X108794981Y-80405085D01*
X108774606Y-80391471D01*
X108751968Y-80382093D01*
X108727935Y-80377311D01*
X108715704Y-80377311D01*
X108679965Y-80373792D01*
X108651505Y-80365158D01*
X108628249Y-80352728D01*
X108625270Y-80351136D01*
X108602278Y-80332266D01*
X108583408Y-80309274D01*
X108569387Y-80283041D01*
X108569386Y-80283039D01*
X108560752Y-80254579D01*
X108557233Y-80218840D01*
X108557233Y-80206616D01*
X108552453Y-80182583D01*
X108543076Y-80159944D01*
X108529463Y-80139569D01*
X108512136Y-80122241D01*
X108491762Y-80108627D01*
X108469123Y-80099249D01*
X108445090Y-80094468D01*
X108432861Y-80094468D01*
X108397122Y-80090949D01*
X108368662Y-80082315D01*
X108361702Y-80078595D01*
X108342427Y-80068293D01*
X108319435Y-80049423D01*
X108300565Y-80026431D01*
X108286544Y-80000198D01*
X108286543Y-80000196D01*
X108277909Y-79971736D01*
X108274390Y-79935997D01*
X108274390Y-79923773D01*
X108269610Y-79899740D01*
X108260233Y-79877101D01*
X108246620Y-79856726D01*
X108229293Y-79839398D01*
X108208919Y-79825784D01*
X108186280Y-79816406D01*
X108162247Y-79811625D01*
X108150019Y-79811625D01*
X108114280Y-79808106D01*
X108085820Y-79799472D01*
X108085818Y-79799471D01*
X108059585Y-79785450D01*
X108036593Y-79766580D01*
X108017723Y-79743588D01*
X108003702Y-79717355D01*
X108003417Y-79716416D01*
X107995067Y-79688893D01*
X107991549Y-79653159D01*
X107991549Y-79640933D01*
X107986769Y-79616900D01*
X107977392Y-79594260D01*
X107963779Y-79573885D01*
X107946453Y-79556557D01*
X107926078Y-79542943D01*
X107903440Y-79533565D01*
X107879407Y-79528783D01*
X107867176Y-79528783D01*
X107831437Y-79525264D01*
X107802977Y-79516630D01*
X107802975Y-79516629D01*
X107776742Y-79502608D01*
X107753750Y-79483738D01*
X107734880Y-79460746D01*
X107720859Y-79434513D01*
X107720858Y-79434511D01*
X107712224Y-79406051D01*
X107708705Y-79370312D01*
X107708705Y-79358088D01*
X107703925Y-79334055D01*
X107694548Y-79311416D01*
X107680935Y-79291041D01*
X107663608Y-79273713D01*
X107643234Y-79260099D01*
X107620595Y-79250721D01*
X107596562Y-79245940D01*
X107584333Y-79245940D01*
X107548594Y-79242421D01*
X107520134Y-79233787D01*
X107501574Y-79223867D01*
X107493899Y-79219765D01*
X107470907Y-79200895D01*
X107452037Y-79177903D01*
X107438016Y-79151670D01*
X107438015Y-79151668D01*
X107429381Y-79123208D01*
X107425862Y-79087469D01*
X107425862Y-79075245D01*
X107421082Y-79051212D01*
X107411705Y-79028573D01*
X107398092Y-79008198D01*
X107380765Y-78990870D01*
X107360391Y-78977256D01*
X107337752Y-78967878D01*
X107313719Y-78963097D01*
X107301490Y-78963097D01*
X107265751Y-78959578D01*
X107237291Y-78950944D01*
X107237289Y-78950943D01*
X107211056Y-78936922D01*
X107188064Y-78918052D01*
X107169194Y-78895060D01*
X107155173Y-78868827D01*
X107154888Y-78867888D01*
X107146538Y-78840365D01*
X107143623Y-78810763D01*
X107146538Y-78781161D01*
X107155172Y-78752701D01*
X107155174Y-78752698D01*
X107169194Y-78726466D01*
X107183339Y-78709232D01*
X107183340Y-78709231D01*
X107183344Y-78709226D01*
X107618079Y-78274490D01*
X107618085Y-78274485D01*
X107635320Y-78260340D01*
X107661552Y-78246319D01*
X107661554Y-78246318D01*
X107690014Y-78237684D01*
X107719617Y-78234769D01*
X107749219Y-78237684D01*
X107749219Y-78237684D01*
G37*
G36*
X100061933Y-82444598D02*
X100082551Y-82450852D01*
X100101551Y-82461008D01*
X100122976Y-82478591D01*
X100482689Y-82838304D01*
X100500272Y-82859729D01*
X100510428Y-82878729D01*
X100516682Y-82899347D01*
X100518793Y-82920785D01*
X100516682Y-82942223D01*
X100510428Y-82962841D01*
X100500272Y-82981841D01*
X100482689Y-83003266D01*
X100158332Y-83327623D01*
X100136907Y-83345206D01*
X100117907Y-83355362D01*
X100097289Y-83361616D01*
X100075851Y-83363727D01*
X100054413Y-83361616D01*
X100033795Y-83355362D01*
X100014795Y-83345206D01*
X99993370Y-83327623D01*
X99633657Y-82967910D01*
X99616074Y-82946485D01*
X99605918Y-82927485D01*
X99599664Y-82906867D01*
X99597553Y-82885429D01*
X99599664Y-82863991D01*
X99605918Y-82843373D01*
X99616074Y-82824373D01*
X99633657Y-82802948D01*
X99958014Y-82478591D01*
X99979439Y-82461008D01*
X99998439Y-82450852D01*
X100019057Y-82444598D01*
X100040495Y-82442487D01*
X100061933Y-82444598D01*
X100061933Y-82444598D01*
G37*
G36*
X113406458Y-82293476D02*
X113427076Y-82299730D01*
X113446076Y-82309886D01*
X113462728Y-82323552D01*
X113476394Y-82340204D01*
X113486550Y-82359204D01*
X113492804Y-82379822D01*
X113495520Y-82407400D01*
X113495520Y-82916120D01*
X113492804Y-82943698D01*
X113486550Y-82964316D01*
X113476394Y-82983316D01*
X113462728Y-82999968D01*
X113446076Y-83013634D01*
X113427076Y-83023790D01*
X113406458Y-83030044D01*
X113378880Y-83032760D01*
X112920160Y-83032760D01*
X112892582Y-83030044D01*
X112871964Y-83023790D01*
X112852964Y-83013634D01*
X112836312Y-82999968D01*
X112822646Y-82983316D01*
X112812490Y-82964316D01*
X112806236Y-82943698D01*
X112803520Y-82916120D01*
X112803520Y-82407400D01*
X112806236Y-82379822D01*
X112812490Y-82359204D01*
X112822646Y-82340204D01*
X112836312Y-82323552D01*
X112852964Y-82309886D01*
X112871964Y-82299730D01*
X112892582Y-82293476D01*
X112920160Y-82290760D01*
X113378880Y-82290760D01*
X113406458Y-82293476D01*
X113406458Y-82293476D01*
G37*
G36*
X114376458Y-82293476D02*
X114397076Y-82299730D01*
X114416076Y-82309886D01*
X114432728Y-82323552D01*
X114446394Y-82340204D01*
X114456550Y-82359204D01*
X114462804Y-82379822D01*
X114465520Y-82407400D01*
X114465520Y-82916120D01*
X114462804Y-82943698D01*
X114456550Y-82964316D01*
X114446394Y-82983316D01*
X114432728Y-82999968D01*
X114416076Y-83013634D01*
X114397076Y-83023790D01*
X114376458Y-83030044D01*
X114348880Y-83032760D01*
X113890160Y-83032760D01*
X113862582Y-83030044D01*
X113841964Y-83023790D01*
X113822964Y-83013634D01*
X113806312Y-82999968D01*
X113792646Y-82983316D01*
X113782490Y-82964316D01*
X113776236Y-82943698D01*
X113773520Y-82916120D01*
X113773520Y-82407400D01*
X113776236Y-82379822D01*
X113782490Y-82359204D01*
X113792646Y-82340204D01*
X113806312Y-82323552D01*
X113822964Y-82309886D01*
X113841964Y-82299730D01*
X113862582Y-82293476D01*
X113890160Y-82290760D01*
X114348880Y-82290760D01*
X114376458Y-82293476D01*
X114376458Y-82293476D01*
G37*
G36*
X100747827Y-81758704D02*
X100768445Y-81764958D01*
X100787445Y-81775114D01*
X100808870Y-81792697D01*
X101168583Y-82152410D01*
X101186166Y-82173835D01*
X101196322Y-82192835D01*
X101202576Y-82213453D01*
X101204687Y-82234891D01*
X101202576Y-82256329D01*
X101196322Y-82276947D01*
X101186166Y-82295947D01*
X101168583Y-82317372D01*
X100844226Y-82641729D01*
X100822801Y-82659312D01*
X100803801Y-82669468D01*
X100783183Y-82675722D01*
X100761745Y-82677833D01*
X100740307Y-82675722D01*
X100719689Y-82669468D01*
X100700689Y-82659312D01*
X100679264Y-82641729D01*
X100319551Y-82282016D01*
X100301968Y-82260591D01*
X100291812Y-82241591D01*
X100285558Y-82220973D01*
X100283447Y-82199535D01*
X100285558Y-82178097D01*
X100291812Y-82157479D01*
X100301968Y-82138479D01*
X100319551Y-82117054D01*
X100643908Y-81792697D01*
X100665333Y-81775114D01*
X100684333Y-81764958D01*
X100704951Y-81758704D01*
X100726389Y-81756593D01*
X100747827Y-81758704D01*
X100747827Y-81758704D01*
G37*
G36*
X95659476Y-79309546D02*
X95832546Y-79381234D01*
X95988310Y-79485312D01*
X96120768Y-79617770D01*
X96224846Y-79773534D01*
X96296534Y-79946604D01*
X96333080Y-80130333D01*
X96333080Y-80317667D01*
X96296534Y-80501396D01*
X96224846Y-80674466D01*
X96120768Y-80830230D01*
X95988310Y-80962688D01*
X95832546Y-81066766D01*
X95659476Y-81138454D01*
X95475747Y-81175000D01*
X95288413Y-81175000D01*
X95104684Y-81138454D01*
X94931614Y-81066766D01*
X94775850Y-80962688D01*
X94643392Y-80830230D01*
X94539314Y-80674466D01*
X94467626Y-80501396D01*
X94431080Y-80317667D01*
X94431080Y-80130333D01*
X94467626Y-79946604D01*
X94539314Y-79773534D01*
X94643392Y-79617770D01*
X94775850Y-79485312D01*
X94931614Y-79381234D01*
X95104684Y-79309546D01*
X95288413Y-79273000D01*
X95475747Y-79273000D01*
X95659476Y-79309546D01*
X95659476Y-79309546D01*
G37*
G36*
X112126933Y-80222098D02*
X112147551Y-80228352D01*
X112166551Y-80238508D01*
X112187976Y-80256091D01*
X112547689Y-80615804D01*
X112565272Y-80637229D01*
X112575428Y-80656229D01*
X112581682Y-80676847D01*
X112583793Y-80698285D01*
X112581682Y-80719723D01*
X112575428Y-80740341D01*
X112565272Y-80759341D01*
X112547689Y-80780766D01*
X112223332Y-81105123D01*
X112201907Y-81122706D01*
X112182907Y-81132862D01*
X112162289Y-81139116D01*
X112140851Y-81141227D01*
X112119413Y-81139116D01*
X112098795Y-81132862D01*
X112079795Y-81122706D01*
X112058370Y-81105123D01*
X111698657Y-80745410D01*
X111681074Y-80723985D01*
X111670918Y-80704985D01*
X111664664Y-80684367D01*
X111662553Y-80662929D01*
X111664664Y-80641491D01*
X111670918Y-80620873D01*
X111681074Y-80601873D01*
X111698657Y-80580448D01*
X112023014Y-80256091D01*
X112044439Y-80238508D01*
X112063439Y-80228352D01*
X112084057Y-80222098D01*
X112105495Y-80219987D01*
X112126933Y-80222098D01*
X112126933Y-80222098D01*
G37*
G36*
X112812827Y-79536204D02*
X112833445Y-79542458D01*
X112852445Y-79552614D01*
X112873870Y-79570197D01*
X113233583Y-79929910D01*
X113251166Y-79951335D01*
X113261322Y-79970335D01*
X113267576Y-79990953D01*
X113269687Y-80012391D01*
X113267576Y-80033829D01*
X113261322Y-80054447D01*
X113251166Y-80073447D01*
X113233583Y-80094872D01*
X112909226Y-80419229D01*
X112887801Y-80436812D01*
X112868801Y-80446968D01*
X112848183Y-80453222D01*
X112826745Y-80455333D01*
X112805307Y-80453222D01*
X112784689Y-80446968D01*
X112765689Y-80436812D01*
X112744264Y-80419229D01*
X112384551Y-80059516D01*
X112366968Y-80038091D01*
X112356812Y-80019091D01*
X112350558Y-79998473D01*
X112348447Y-79977035D01*
X112350558Y-79955597D01*
X112356812Y-79934979D01*
X112366968Y-79915979D01*
X112384551Y-79894554D01*
X112708908Y-79570197D01*
X112730333Y-79552614D01*
X112749333Y-79542458D01*
X112769951Y-79536204D01*
X112791389Y-79534093D01*
X112812827Y-79536204D01*
X112812827Y-79536204D01*
G37*
G36*
X111481663Y-79488038D02*
X111502281Y-79494292D01*
X111521281Y-79504448D01*
X111542706Y-79522031D01*
X111867063Y-79846388D01*
X111884646Y-79867813D01*
X111894802Y-79886813D01*
X111901056Y-79907431D01*
X111903167Y-79928869D01*
X111901056Y-79950307D01*
X111894802Y-79970925D01*
X111884646Y-79989925D01*
X111867063Y-80011350D01*
X111507350Y-80371063D01*
X111485925Y-80388646D01*
X111466925Y-80398802D01*
X111446307Y-80405056D01*
X111424869Y-80407167D01*
X111403431Y-80405056D01*
X111382813Y-80398802D01*
X111363813Y-80388646D01*
X111342388Y-80371063D01*
X111018031Y-80046706D01*
X111000448Y-80025281D01*
X110990292Y-80006281D01*
X110984038Y-79985663D01*
X110981927Y-79964225D01*
X110984038Y-79942787D01*
X110990292Y-79922169D01*
X111000448Y-79903169D01*
X111018031Y-79881744D01*
X111377744Y-79522031D01*
X111399169Y-79504448D01*
X111418169Y-79494292D01*
X111438787Y-79488038D01*
X111460225Y-79485927D01*
X111481663Y-79488038D01*
X111481663Y-79488038D01*
G37*
G36*
X110795769Y-78802144D02*
X110816387Y-78808398D01*
X110835387Y-78818554D01*
X110856812Y-78836137D01*
X111181169Y-79160494D01*
X111198752Y-79181919D01*
X111208908Y-79200919D01*
X111215162Y-79221537D01*
X111217273Y-79242975D01*
X111215162Y-79264413D01*
X111208908Y-79285031D01*
X111198752Y-79304031D01*
X111181169Y-79325456D01*
X110821456Y-79685169D01*
X110800031Y-79702752D01*
X110781031Y-79712908D01*
X110760413Y-79719162D01*
X110738975Y-79721273D01*
X110717537Y-79719162D01*
X110696919Y-79712908D01*
X110677919Y-79702752D01*
X110656494Y-79685169D01*
X110332137Y-79360812D01*
X110314554Y-79339387D01*
X110304398Y-79320387D01*
X110298144Y-79299769D01*
X110296033Y-79278331D01*
X110298144Y-79256893D01*
X110304398Y-79236275D01*
X110314554Y-79217275D01*
X110332137Y-79195850D01*
X110691850Y-78836137D01*
X110713275Y-78818554D01*
X110732275Y-78808398D01*
X110752893Y-78802144D01*
X110774331Y-78800033D01*
X110795769Y-78802144D01*
X110795769Y-78802144D01*
G37*
G36*
X112213183Y-78761598D02*
X112233801Y-78767852D01*
X112252801Y-78778008D01*
X112274226Y-78795591D01*
X112598583Y-79119948D01*
X112616166Y-79141373D01*
X112626322Y-79160373D01*
X112632576Y-79180991D01*
X112634687Y-79202429D01*
X112632576Y-79223867D01*
X112626322Y-79244485D01*
X112616166Y-79263485D01*
X112598583Y-79284910D01*
X112238870Y-79644623D01*
X112217445Y-79662206D01*
X112198445Y-79672362D01*
X112177827Y-79678616D01*
X112156389Y-79680727D01*
X112134951Y-79678616D01*
X112114333Y-79672362D01*
X112095333Y-79662206D01*
X112073908Y-79644623D01*
X111749551Y-79320266D01*
X111731968Y-79298841D01*
X111721812Y-79279841D01*
X111715558Y-79259223D01*
X111713447Y-79237785D01*
X111715558Y-79216347D01*
X111721812Y-79195729D01*
X111731968Y-79176729D01*
X111749551Y-79155304D01*
X112109264Y-78795591D01*
X112130689Y-78778008D01*
X112149689Y-78767852D01*
X112170307Y-78761598D01*
X112191745Y-78759487D01*
X112213183Y-78761598D01*
X112213183Y-78761598D01*
G37*
G36*
X111527289Y-78075704D02*
X111547907Y-78081958D01*
X111566907Y-78092114D01*
X111588332Y-78109697D01*
X111912689Y-78434054D01*
X111930272Y-78455479D01*
X111940428Y-78474479D01*
X111946682Y-78495097D01*
X111948793Y-78516535D01*
X111946682Y-78537973D01*
X111940428Y-78558591D01*
X111930272Y-78577591D01*
X111912689Y-78599016D01*
X111552976Y-78958729D01*
X111531551Y-78976312D01*
X111512551Y-78986468D01*
X111491933Y-78992722D01*
X111470495Y-78994833D01*
X111449057Y-78992722D01*
X111428439Y-78986468D01*
X111409439Y-78976312D01*
X111388014Y-78958729D01*
X111063657Y-78634372D01*
X111046074Y-78612947D01*
X111035918Y-78593947D01*
X111029664Y-78573329D01*
X111027553Y-78551891D01*
X111029664Y-78530453D01*
X111035918Y-78509835D01*
X111046074Y-78490835D01*
X111063657Y-78469410D01*
X111423370Y-78109697D01*
X111444795Y-78092114D01*
X111463795Y-78081958D01*
X111484413Y-78075704D01*
X111505851Y-78073593D01*
X111527289Y-78075704D01*
X111527289Y-78075704D01*
G37*
G36*
X96333080Y-78675000D02*
X94431080Y-78675000D01*
X94431080Y-76773000D01*
X96333080Y-76773000D01*
X96333080Y-78675000D01*
X96333080Y-78675000D01*
G37*
G36*
X107959018Y-76876656D02*
X107979636Y-76882910D01*
X107998636Y-76893066D01*
X108015288Y-76906732D01*
X108028954Y-76923384D01*
X108039110Y-76942384D01*
X108045364Y-76963002D01*
X108048080Y-76990580D01*
X108048080Y-77499300D01*
X108045364Y-77526878D01*
X108039110Y-77547496D01*
X108028954Y-77566496D01*
X108015288Y-77583148D01*
X107998636Y-77596814D01*
X107979636Y-77606970D01*
X107959018Y-77613224D01*
X107931440Y-77615940D01*
X107472720Y-77615940D01*
X107445142Y-77613224D01*
X107424524Y-77606970D01*
X107405524Y-77596814D01*
X107388872Y-77583148D01*
X107375206Y-77566496D01*
X107365050Y-77547496D01*
X107358796Y-77526878D01*
X107356080Y-77499300D01*
X107356080Y-76990580D01*
X107358796Y-76963002D01*
X107365050Y-76942384D01*
X107375206Y-76923384D01*
X107388872Y-76906732D01*
X107405524Y-76893066D01*
X107424524Y-76882910D01*
X107445142Y-76876656D01*
X107472720Y-76873940D01*
X107931440Y-76873940D01*
X107959018Y-76876656D01*
X107959018Y-76876656D01*
G37*
G36*
X108929018Y-76876656D02*
X108949636Y-76882910D01*
X108968636Y-76893066D01*
X108985288Y-76906732D01*
X108998954Y-76923384D01*
X109009110Y-76942384D01*
X109015364Y-76963002D01*
X109018080Y-76990580D01*
X109018080Y-77499300D01*
X109015364Y-77526878D01*
X109009110Y-77547496D01*
X108998954Y-77566496D01*
X108985288Y-77583148D01*
X108968636Y-77596814D01*
X108949636Y-77606970D01*
X108929018Y-77613224D01*
X108901440Y-77615940D01*
X108442720Y-77615940D01*
X108415142Y-77613224D01*
X108394524Y-77606970D01*
X108375524Y-77596814D01*
X108358872Y-77583148D01*
X108345206Y-77566496D01*
X108335050Y-77547496D01*
X108328796Y-77526878D01*
X108326080Y-77499300D01*
X108326080Y-76990580D01*
X108328796Y-76963002D01*
X108335050Y-76942384D01*
X108345206Y-76923384D01*
X108358872Y-76906732D01*
X108375524Y-76893066D01*
X108394524Y-76882910D01*
X108415142Y-76876656D01*
X108442720Y-76873940D01*
X108901440Y-76873940D01*
X108929018Y-76876656D01*
X108929018Y-76876656D01*
G37*
G36*
X119170900Y-72773440D02*
X119173302Y-72797826D01*
X119180415Y-72821275D01*
X119191966Y-72842886D01*
X119207512Y-72861828D01*
X119226454Y-72877374D01*
X119248065Y-72888925D01*
X119271514Y-72896038D01*
X119295900Y-72898440D01*
X119445900Y-72898440D01*
X119445900Y-74350440D01*
X119295900Y-74350440D01*
X119271514Y-74352842D01*
X119248065Y-74359955D01*
X119226454Y-74371506D01*
X119207512Y-74387052D01*
X119191966Y-74405994D01*
X119180415Y-74427605D01*
X119173302Y-74451054D01*
X119170900Y-74475440D01*
X119170900Y-75125440D01*
X116718900Y-75125440D01*
X116718900Y-74475440D01*
X116716498Y-74451054D01*
X116709385Y-74427605D01*
X116697834Y-74405994D01*
X116682288Y-74387052D01*
X116663346Y-74371506D01*
X116641735Y-74359955D01*
X116618286Y-74352842D01*
X116593900Y-74350440D01*
X116443900Y-74350440D01*
X116443900Y-72950440D01*
X117145900Y-72950440D01*
X117145900Y-74298440D01*
X117148302Y-74322826D01*
X117155415Y-74346275D01*
X117166966Y-74367886D01*
X117182512Y-74386828D01*
X117201454Y-74402374D01*
X117223065Y-74413925D01*
X117246514Y-74421038D01*
X117270900Y-74423440D01*
X118618900Y-74423440D01*
X118643286Y-74421038D01*
X118666735Y-74413925D01*
X118688346Y-74402374D01*
X118707288Y-74386828D01*
X118722834Y-74367886D01*
X118734385Y-74346275D01*
X118741498Y-74322826D01*
X118743900Y-74298440D01*
X118743900Y-72950440D01*
X118741498Y-72926054D01*
X118734385Y-72902605D01*
X118722834Y-72880994D01*
X118707288Y-72862052D01*
X118688346Y-72846506D01*
X118666735Y-72834955D01*
X118643286Y-72827842D01*
X118618900Y-72825440D01*
X117270900Y-72825440D01*
X117246514Y-72827842D01*
X117223065Y-72834955D01*
X117201454Y-72846506D01*
X117182512Y-72862052D01*
X117166966Y-72880994D01*
X117155415Y-72902605D01*
X117148302Y-72926054D01*
X117145900Y-72950440D01*
X116443900Y-72950440D01*
X116443900Y-72898440D01*
X116593900Y-72898440D01*
X116618286Y-72896038D01*
X116641735Y-72888925D01*
X116663346Y-72877374D01*
X116682288Y-72861828D01*
X116697834Y-72842886D01*
X116709385Y-72821275D01*
X116716498Y-72797826D01*
X116718900Y-72773440D01*
X116718900Y-72123440D01*
X119170900Y-72123440D01*
X119170900Y-72773440D01*
X119170900Y-72773440D01*
G37*
G36*
X114050678Y-73019936D02*
X114071296Y-73026190D01*
X114090296Y-73036346D01*
X114106948Y-73050012D01*
X114120614Y-73066664D01*
X114130770Y-73085664D01*
X114137024Y-73106282D01*
X114139740Y-73133860D01*
X114139740Y-73642580D01*
X114137024Y-73670158D01*
X114130770Y-73690776D01*
X114120614Y-73709776D01*
X114106948Y-73726428D01*
X114090296Y-73740094D01*
X114071296Y-73750250D01*
X114050678Y-73756504D01*
X114023100Y-73759220D01*
X113564380Y-73759220D01*
X113536802Y-73756504D01*
X113516184Y-73750250D01*
X113497184Y-73740094D01*
X113480532Y-73726428D01*
X113466866Y-73709776D01*
X113456710Y-73690776D01*
X113450456Y-73670158D01*
X113447740Y-73642580D01*
X113447740Y-73133860D01*
X113450456Y-73106282D01*
X113456710Y-73085664D01*
X113466866Y-73066664D01*
X113480532Y-73050012D01*
X113497184Y-73036346D01*
X113516184Y-73026190D01*
X113536802Y-73019936D01*
X113564380Y-73017220D01*
X114023100Y-73017220D01*
X114050678Y-73019936D01*
X114050678Y-73019936D01*
G37*
G36*
X113080678Y-73019936D02*
X113101296Y-73026190D01*
X113120296Y-73036346D01*
X113136948Y-73050012D01*
X113150614Y-73066664D01*
X113160770Y-73085664D01*
X113167024Y-73106282D01*
X113169740Y-73133860D01*
X113169740Y-73642580D01*
X113167024Y-73670158D01*
X113160770Y-73690776D01*
X113150614Y-73709776D01*
X113136948Y-73726428D01*
X113120296Y-73740094D01*
X113101296Y-73750250D01*
X113080678Y-73756504D01*
X113053100Y-73759220D01*
X112594380Y-73759220D01*
X112566802Y-73756504D01*
X112546184Y-73750250D01*
X112527184Y-73740094D01*
X112510532Y-73726428D01*
X112496866Y-73709776D01*
X112486710Y-73690776D01*
X112480456Y-73670158D01*
X112477740Y-73642580D01*
X112477740Y-73133860D01*
X112480456Y-73106282D01*
X112486710Y-73085664D01*
X112496866Y-73066664D01*
X112510532Y-73050012D01*
X112527184Y-73036346D01*
X112546184Y-73026190D01*
X112566802Y-73019936D01*
X112594380Y-73017220D01*
X113053100Y-73017220D01*
X113080678Y-73019936D01*
X113080678Y-73019936D01*
G37*
G36*
X102979591Y-71778085D02*
X103013569Y-71788393D01*
X103044887Y-71805133D01*
X103072339Y-71827661D01*
X103094867Y-71855113D01*
X103111607Y-71886431D01*
X103121915Y-71920409D01*
X103126000Y-71961890D01*
X103126000Y-72638110D01*
X103121915Y-72679591D01*
X103111607Y-72713569D01*
X103094867Y-72744887D01*
X103072339Y-72772339D01*
X103044887Y-72794867D01*
X103013569Y-72811607D01*
X102979591Y-72821915D01*
X102938110Y-72826000D01*
X102336890Y-72826000D01*
X102295409Y-72821915D01*
X102261431Y-72811607D01*
X102230113Y-72794867D01*
X102202661Y-72772339D01*
X102180133Y-72744887D01*
X102163393Y-72713569D01*
X102153085Y-72679591D01*
X102149000Y-72638110D01*
X102149000Y-71961890D01*
X102153085Y-71920409D01*
X102163393Y-71886431D01*
X102180133Y-71855113D01*
X102202661Y-71827661D01*
X102230113Y-71805133D01*
X102261431Y-71788393D01*
X102295409Y-71778085D01*
X102336890Y-71774000D01*
X102938110Y-71774000D01*
X102979591Y-71778085D01*
X102979591Y-71778085D01*
G37*
G36*
X101404591Y-71778085D02*
X101438569Y-71788393D01*
X101469887Y-71805133D01*
X101497339Y-71827661D01*
X101519867Y-71855113D01*
X101536607Y-71886431D01*
X101546915Y-71920409D01*
X101551000Y-71961890D01*
X101551000Y-72638110D01*
X101546915Y-72679591D01*
X101536607Y-72713569D01*
X101519867Y-72744887D01*
X101497339Y-72772339D01*
X101469887Y-72794867D01*
X101438569Y-72811607D01*
X101404591Y-72821915D01*
X101363110Y-72826000D01*
X100761890Y-72826000D01*
X100720409Y-72821915D01*
X100686431Y-72811607D01*
X100655113Y-72794867D01*
X100627661Y-72772339D01*
X100605133Y-72744887D01*
X100588393Y-72713569D01*
X100578085Y-72679591D01*
X100574000Y-72638110D01*
X100574000Y-71961890D01*
X100578085Y-71920409D01*
X100588393Y-71886431D01*
X100605133Y-71855113D01*
X100627661Y-71827661D01*
X100655113Y-71805133D01*
X100686431Y-71788393D01*
X100720409Y-71778085D01*
X100761890Y-71774000D01*
X101363110Y-71774000D01*
X101404591Y-71778085D01*
X101404591Y-71778085D01*
G37*
G36*
X94254591Y-71728085D02*
X94288569Y-71738393D01*
X94319887Y-71755133D01*
X94347339Y-71777661D01*
X94369867Y-71805113D01*
X94386607Y-71836431D01*
X94396915Y-71870409D01*
X94401000Y-71911890D01*
X94401000Y-72588110D01*
X94396915Y-72629591D01*
X94386607Y-72663569D01*
X94369867Y-72694887D01*
X94347339Y-72722339D01*
X94319887Y-72744867D01*
X94288569Y-72761607D01*
X94254591Y-72771915D01*
X94213110Y-72776000D01*
X93611890Y-72776000D01*
X93570409Y-72771915D01*
X93536431Y-72761607D01*
X93505113Y-72744867D01*
X93477661Y-72722339D01*
X93455133Y-72694887D01*
X93438393Y-72663569D01*
X93428085Y-72629591D01*
X93424000Y-72588110D01*
X93424000Y-71911890D01*
X93428085Y-71870409D01*
X93438393Y-71836431D01*
X93455133Y-71805113D01*
X93477661Y-71777661D01*
X93505113Y-71755133D01*
X93536431Y-71738393D01*
X93570409Y-71728085D01*
X93611890Y-71724000D01*
X94213110Y-71724000D01*
X94254591Y-71728085D01*
X94254591Y-71728085D01*
G37*
G36*
X95829591Y-71728085D02*
X95863569Y-71738393D01*
X95894887Y-71755133D01*
X95922339Y-71777661D01*
X95944867Y-71805113D01*
X95961607Y-71836431D01*
X95971915Y-71870409D01*
X95976000Y-71911890D01*
X95976000Y-72588110D01*
X95971915Y-72629591D01*
X95961607Y-72663569D01*
X95944867Y-72694887D01*
X95922339Y-72722339D01*
X95894887Y-72744867D01*
X95863569Y-72761607D01*
X95829591Y-72771915D01*
X95788110Y-72776000D01*
X95186890Y-72776000D01*
X95145409Y-72771915D01*
X95111431Y-72761607D01*
X95080113Y-72744867D01*
X95052661Y-72722339D01*
X95030133Y-72694887D01*
X95013393Y-72663569D01*
X95003085Y-72629591D01*
X94999000Y-72588110D01*
X94999000Y-71911890D01*
X95003085Y-71870409D01*
X95013393Y-71836431D01*
X95030133Y-71805113D01*
X95052661Y-71777661D01*
X95080113Y-71755133D01*
X95111431Y-71738393D01*
X95145409Y-71728085D01*
X95186890Y-71724000D01*
X95788110Y-71724000D01*
X95829591Y-71728085D01*
X95829591Y-71728085D01*
G37*
G36*
X106629458Y-71997016D02*
X106650076Y-72003270D01*
X106669076Y-72013426D01*
X106685728Y-72027092D01*
X106699394Y-72043744D01*
X106709550Y-72062744D01*
X106715804Y-72083362D01*
X106718520Y-72110940D01*
X106718520Y-72619660D01*
X106715804Y-72647238D01*
X106709550Y-72667856D01*
X106699394Y-72686856D01*
X106685728Y-72703508D01*
X106669076Y-72717174D01*
X106650076Y-72727330D01*
X106629458Y-72733584D01*
X106601880Y-72736300D01*
X106143160Y-72736300D01*
X106115582Y-72733584D01*
X106094964Y-72727330D01*
X106075964Y-72717174D01*
X106059312Y-72703508D01*
X106045646Y-72686856D01*
X106035490Y-72667856D01*
X106029236Y-72647238D01*
X106026520Y-72619660D01*
X106026520Y-72110940D01*
X106029236Y-72083362D01*
X106035490Y-72062744D01*
X106045646Y-72043744D01*
X106059312Y-72027092D01*
X106075964Y-72013426D01*
X106094964Y-72003270D01*
X106115582Y-71997016D01*
X106143160Y-71994300D01*
X106601880Y-71994300D01*
X106629458Y-71997016D01*
X106629458Y-71997016D01*
G37*
G36*
X105659458Y-71997016D02*
X105680076Y-72003270D01*
X105699076Y-72013426D01*
X105715728Y-72027092D01*
X105729394Y-72043744D01*
X105739550Y-72062744D01*
X105745804Y-72083362D01*
X105748520Y-72110940D01*
X105748520Y-72619660D01*
X105745804Y-72647238D01*
X105739550Y-72667856D01*
X105729394Y-72686856D01*
X105715728Y-72703508D01*
X105699076Y-72717174D01*
X105680076Y-72727330D01*
X105659458Y-72733584D01*
X105631880Y-72736300D01*
X105173160Y-72736300D01*
X105145582Y-72733584D01*
X105124964Y-72727330D01*
X105105964Y-72717174D01*
X105089312Y-72703508D01*
X105075646Y-72686856D01*
X105065490Y-72667856D01*
X105059236Y-72647238D01*
X105056520Y-72619660D01*
X105056520Y-72110940D01*
X105059236Y-72083362D01*
X105065490Y-72062744D01*
X105075646Y-72043744D01*
X105089312Y-72027092D01*
X105105964Y-72013426D01*
X105124964Y-72003270D01*
X105145582Y-71997016D01*
X105173160Y-71994300D01*
X105631880Y-71994300D01*
X105659458Y-71997016D01*
X105659458Y-71997016D01*
G37*
G36*
X99121938Y-71681716D02*
X99142556Y-71687970D01*
X99161556Y-71698126D01*
X99178208Y-71711792D01*
X99191874Y-71728444D01*
X99202030Y-71747444D01*
X99208284Y-71768062D01*
X99211000Y-71795640D01*
X99211000Y-72304360D01*
X99208284Y-72331938D01*
X99202030Y-72352556D01*
X99191874Y-72371556D01*
X99178208Y-72388208D01*
X99161556Y-72401874D01*
X99142556Y-72412030D01*
X99121938Y-72418284D01*
X99094360Y-72421000D01*
X98635640Y-72421000D01*
X98608062Y-72418284D01*
X98587444Y-72412030D01*
X98568444Y-72401874D01*
X98551792Y-72388208D01*
X98538126Y-72371556D01*
X98527970Y-72352556D01*
X98521716Y-72331938D01*
X98519000Y-72304360D01*
X98519000Y-71795640D01*
X98521716Y-71768062D01*
X98527970Y-71747444D01*
X98538126Y-71728444D01*
X98551792Y-71711792D01*
X98568444Y-71698126D01*
X98587444Y-71687970D01*
X98608062Y-71681716D01*
X98635640Y-71679000D01*
X99094360Y-71679000D01*
X99121938Y-71681716D01*
X99121938Y-71681716D01*
G37*
G36*
X100091938Y-71681716D02*
X100112556Y-71687970D01*
X100131556Y-71698126D01*
X100148208Y-71711792D01*
X100161874Y-71728444D01*
X100172030Y-71747444D01*
X100178284Y-71768062D01*
X100181000Y-71795640D01*
X100181000Y-72304360D01*
X100178284Y-72331938D01*
X100172030Y-72352556D01*
X100161874Y-72371556D01*
X100148208Y-72388208D01*
X100131556Y-72401874D01*
X100112556Y-72412030D01*
X100091938Y-72418284D01*
X100064360Y-72421000D01*
X99605640Y-72421000D01*
X99578062Y-72418284D01*
X99557444Y-72412030D01*
X99538444Y-72401874D01*
X99521792Y-72388208D01*
X99508126Y-72371556D01*
X99497970Y-72352556D01*
X99491716Y-72331938D01*
X99489000Y-72304360D01*
X99489000Y-71795640D01*
X99491716Y-71768062D01*
X99497970Y-71747444D01*
X99508126Y-71728444D01*
X99521792Y-71711792D01*
X99538444Y-71698126D01*
X99557444Y-71687970D01*
X99578062Y-71681716D01*
X99605640Y-71679000D01*
X100064360Y-71679000D01*
X100091938Y-71681716D01*
X100091938Y-71681716D01*
G37*
G36*
X97021938Y-71631716D02*
X97042556Y-71637970D01*
X97061556Y-71648126D01*
X97078208Y-71661792D01*
X97091874Y-71678444D01*
X97102030Y-71697444D01*
X97108284Y-71718062D01*
X97111000Y-71745640D01*
X97111000Y-72254360D01*
X97108284Y-72281938D01*
X97102030Y-72302556D01*
X97091874Y-72321556D01*
X97078208Y-72338208D01*
X97061556Y-72351874D01*
X97042556Y-72362030D01*
X97021938Y-72368284D01*
X96994360Y-72371000D01*
X96535640Y-72371000D01*
X96508062Y-72368284D01*
X96487444Y-72362030D01*
X96468444Y-72351874D01*
X96451792Y-72338208D01*
X96438126Y-72321556D01*
X96427970Y-72302556D01*
X96421716Y-72281938D01*
X96419000Y-72254360D01*
X96419000Y-71745640D01*
X96421716Y-71718062D01*
X96427970Y-71697444D01*
X96438126Y-71678444D01*
X96451792Y-71661792D01*
X96468444Y-71648126D01*
X96487444Y-71637970D01*
X96508062Y-71631716D01*
X96535640Y-71629000D01*
X96994360Y-71629000D01*
X97021938Y-71631716D01*
X97021938Y-71631716D01*
G37*
G36*
X97991938Y-71631716D02*
X98012556Y-71637970D01*
X98031556Y-71648126D01*
X98048208Y-71661792D01*
X98061874Y-71678444D01*
X98072030Y-71697444D01*
X98078284Y-71718062D01*
X98081000Y-71745640D01*
X98081000Y-72254360D01*
X98078284Y-72281938D01*
X98072030Y-72302556D01*
X98061874Y-72321556D01*
X98048208Y-72338208D01*
X98031556Y-72351874D01*
X98012556Y-72362030D01*
X97991938Y-72368284D01*
X97964360Y-72371000D01*
X97505640Y-72371000D01*
X97478062Y-72368284D01*
X97457444Y-72362030D01*
X97438444Y-72351874D01*
X97421792Y-72338208D01*
X97408126Y-72321556D01*
X97397970Y-72302556D01*
X97391716Y-72281938D01*
X97389000Y-72254360D01*
X97389000Y-71745640D01*
X97391716Y-71718062D01*
X97397970Y-71697444D01*
X97408126Y-71678444D01*
X97421792Y-71661792D01*
X97438444Y-71648126D01*
X97457444Y-71637970D01*
X97478062Y-71631716D01*
X97505640Y-71629000D01*
X97964360Y-71629000D01*
X97991938Y-71631716D01*
X97991938Y-71631716D01*
G37*
G36*
X106897840Y-71543400D02*
X104995840Y-71543400D01*
X104995840Y-70591400D01*
X106897840Y-70591400D01*
X106897840Y-71543400D01*
X106897840Y-71543400D01*
G37*
G36*
X119225058Y-70763876D02*
X119245676Y-70770130D01*
X119264676Y-70780286D01*
X119281328Y-70793952D01*
X119294994Y-70810604D01*
X119305150Y-70829604D01*
X119311404Y-70850222D01*
X119314120Y-70877800D01*
X119314120Y-71336520D01*
X119311404Y-71364098D01*
X119305150Y-71384716D01*
X119294994Y-71403716D01*
X119281328Y-71420368D01*
X119264676Y-71434034D01*
X119245676Y-71444190D01*
X119225058Y-71450444D01*
X119197480Y-71453160D01*
X118688760Y-71453160D01*
X118661182Y-71450444D01*
X118640564Y-71444190D01*
X118621564Y-71434034D01*
X118604912Y-71420368D01*
X118591246Y-71403716D01*
X118581090Y-71384716D01*
X118574836Y-71364098D01*
X118572120Y-71336520D01*
X118572120Y-70877800D01*
X118574836Y-70850222D01*
X118581090Y-70829604D01*
X118591246Y-70810604D01*
X118604912Y-70793952D01*
X118621564Y-70780286D01*
X118640564Y-70770130D01*
X118661182Y-70763876D01*
X118688760Y-70761160D01*
X119197480Y-70761160D01*
X119225058Y-70763876D01*
X119225058Y-70763876D01*
G37*
G36*
X118001816Y-70245945D02*
X118040487Y-70257676D01*
X118076129Y-70276728D01*
X118107367Y-70302363D01*
X118133002Y-70333601D01*
X118152054Y-70369243D01*
X118163785Y-70407914D01*
X118168350Y-70454268D01*
X118168350Y-71105492D01*
X118163785Y-71151846D01*
X118152054Y-71190517D01*
X118133002Y-71226159D01*
X118107367Y-71257397D01*
X118076129Y-71283032D01*
X118040487Y-71302084D01*
X118001816Y-71313815D01*
X117955462Y-71318380D01*
X116879238Y-71318380D01*
X116832884Y-71313815D01*
X116794213Y-71302084D01*
X116758571Y-71283032D01*
X116727333Y-71257397D01*
X116701698Y-71226159D01*
X116682646Y-71190517D01*
X116670915Y-71151846D01*
X116666350Y-71105492D01*
X116666350Y-70454268D01*
X116670915Y-70407914D01*
X116682646Y-70369243D01*
X116701698Y-70333601D01*
X116727333Y-70302363D01*
X116758571Y-70276728D01*
X116794213Y-70257676D01*
X116832884Y-70245945D01*
X116879238Y-70241380D01*
X117955462Y-70241380D01*
X118001816Y-70245945D01*
X118001816Y-70245945D01*
G37*
G36*
X95776000Y-71221000D02*
X95024000Y-71221000D01*
X95024000Y-69899000D01*
X95776000Y-69899000D01*
X95776000Y-71221000D01*
X95776000Y-71221000D01*
G37*
G36*
X101226000Y-71221000D02*
X100474000Y-71221000D01*
X100474000Y-69899000D01*
X101226000Y-69899000D01*
X101226000Y-71221000D01*
X101226000Y-71221000D01*
G37*
G36*
X99326000Y-71221000D02*
X98574000Y-71221000D01*
X98574000Y-69899000D01*
X99326000Y-69899000D01*
X99326000Y-71221000D01*
X99326000Y-71221000D01*
G37*
G36*
X97676000Y-71221000D02*
X96924000Y-71221000D01*
X96924000Y-69899000D01*
X97676000Y-69899000D01*
X97676000Y-71221000D01*
X97676000Y-71221000D01*
G37*
G36*
X108169338Y-70116876D02*
X108189956Y-70123130D01*
X108208956Y-70133286D01*
X108225608Y-70146952D01*
X108239274Y-70163604D01*
X108249430Y-70182604D01*
X108255684Y-70203222D01*
X108258400Y-70230800D01*
X108258400Y-70689520D01*
X108255684Y-70717098D01*
X108249430Y-70737716D01*
X108239274Y-70756716D01*
X108225608Y-70773368D01*
X108208956Y-70787034D01*
X108189956Y-70797190D01*
X108169338Y-70803444D01*
X108141760Y-70806160D01*
X107633040Y-70806160D01*
X107605462Y-70803444D01*
X107584844Y-70797190D01*
X107565844Y-70787034D01*
X107549192Y-70773368D01*
X107535526Y-70756716D01*
X107525370Y-70737716D01*
X107519116Y-70717098D01*
X107516400Y-70689520D01*
X107516400Y-70230800D01*
X107519116Y-70203222D01*
X107525370Y-70182604D01*
X107535526Y-70163604D01*
X107549192Y-70146952D01*
X107565844Y-70133286D01*
X107584844Y-70123130D01*
X107605462Y-70116876D01*
X107633040Y-70114160D01*
X108141760Y-70114160D01*
X108169338Y-70116876D01*
X108169338Y-70116876D01*
G37*
G36*
X119225058Y-69793876D02*
X119245676Y-69800130D01*
X119264676Y-69810286D01*
X119281328Y-69823952D01*
X119294994Y-69840604D01*
X119305150Y-69859604D01*
X119311404Y-69880222D01*
X119314120Y-69907800D01*
X119314120Y-70366520D01*
X119311404Y-70394098D01*
X119305150Y-70414716D01*
X119294994Y-70433716D01*
X119281328Y-70450368D01*
X119264676Y-70464034D01*
X119245676Y-70474190D01*
X119225058Y-70480444D01*
X119197480Y-70483160D01*
X118688760Y-70483160D01*
X118661182Y-70480444D01*
X118640564Y-70474190D01*
X118621564Y-70464034D01*
X118604912Y-70450368D01*
X118591246Y-70433716D01*
X118581090Y-70414716D01*
X118574836Y-70394098D01*
X118572120Y-70366520D01*
X118572120Y-69907800D01*
X118574836Y-69880222D01*
X118581090Y-69859604D01*
X118591246Y-69840604D01*
X118604912Y-69823952D01*
X118621564Y-69810286D01*
X118640564Y-69800130D01*
X118661182Y-69793876D01*
X118688760Y-69791160D01*
X119197480Y-69791160D01*
X119225058Y-69793876D01*
X119225058Y-69793876D01*
G37*
G36*
X108169338Y-69146876D02*
X108189956Y-69153130D01*
X108208956Y-69163286D01*
X108225608Y-69176952D01*
X108239274Y-69193604D01*
X108249430Y-69212604D01*
X108255684Y-69233222D01*
X108258400Y-69260800D01*
X108258400Y-69719520D01*
X108255684Y-69747098D01*
X108249430Y-69767716D01*
X108239274Y-69786716D01*
X108225608Y-69803368D01*
X108208956Y-69817034D01*
X108189956Y-69827190D01*
X108169338Y-69833444D01*
X108141760Y-69836160D01*
X107633040Y-69836160D01*
X107605462Y-69833444D01*
X107584844Y-69827190D01*
X107565844Y-69817034D01*
X107549192Y-69803368D01*
X107535526Y-69786716D01*
X107525370Y-69767716D01*
X107519116Y-69747098D01*
X107516400Y-69719520D01*
X107516400Y-69260800D01*
X107519116Y-69233222D01*
X107525370Y-69212604D01*
X107535526Y-69193604D01*
X107549192Y-69176952D01*
X107565844Y-69163286D01*
X107584844Y-69153130D01*
X107605462Y-69146876D01*
X107633040Y-69144160D01*
X108141760Y-69144160D01*
X108169338Y-69146876D01*
X108169338Y-69146876D01*
G37*
G36*
X106897840Y-69643400D02*
X104995840Y-69643400D01*
X104995840Y-68691400D01*
X106897840Y-68691400D01*
X106897840Y-69643400D01*
X106897840Y-69643400D01*
G37*
G36*
X118001816Y-68370945D02*
X118040487Y-68382676D01*
X118076129Y-68401728D01*
X118107367Y-68427363D01*
X118133002Y-68458601D01*
X118152054Y-68494243D01*
X118163785Y-68532914D01*
X118168350Y-68579268D01*
X118168350Y-69230492D01*
X118163785Y-69276846D01*
X118152054Y-69315517D01*
X118133002Y-69351159D01*
X118107367Y-69382397D01*
X118076129Y-69408032D01*
X118040487Y-69427084D01*
X118001816Y-69438815D01*
X117955462Y-69443380D01*
X116879238Y-69443380D01*
X116832884Y-69438815D01*
X116794213Y-69427084D01*
X116758571Y-69408032D01*
X116727333Y-69382397D01*
X116701698Y-69351159D01*
X116682646Y-69315517D01*
X116670915Y-69276846D01*
X116666350Y-69230492D01*
X116666350Y-68579268D01*
X116670915Y-68532914D01*
X116682646Y-68494243D01*
X116701698Y-68458601D01*
X116727333Y-68427363D01*
X116758571Y-68401728D01*
X116794213Y-68382676D01*
X116832884Y-68370945D01*
X116879238Y-68366380D01*
X117955462Y-68366380D01*
X118001816Y-68370945D01*
X118001816Y-68370945D01*
G37*
G36*
X97676000Y-68601000D02*
X95024000Y-68601000D01*
X95024000Y-67279000D01*
X97676000Y-67279000D01*
X97676000Y-68601000D01*
X97676000Y-68601000D01*
G37*
G36*
X101226000Y-68601000D02*
X98574000Y-68601000D01*
X98574000Y-67279000D01*
X101226000Y-67279000D01*
X101226000Y-68601000D01*
X101226000Y-68601000D01*
G37*
G36*
X107524178Y-66647236D02*
X107544796Y-66653490D01*
X107563796Y-66663646D01*
X107580448Y-66677312D01*
X107594114Y-66693964D01*
X107604270Y-66712964D01*
X107610524Y-66733582D01*
X107613240Y-66761160D01*
X107613240Y-67219880D01*
X107610524Y-67247458D01*
X107604270Y-67268076D01*
X107594114Y-67287076D01*
X107580448Y-67303728D01*
X107563796Y-67317394D01*
X107544796Y-67327550D01*
X107524178Y-67333804D01*
X107496600Y-67336520D01*
X106987880Y-67336520D01*
X106960302Y-67333804D01*
X106939684Y-67327550D01*
X106920684Y-67317394D01*
X106904032Y-67303728D01*
X106890366Y-67287076D01*
X106880210Y-67268076D01*
X106873956Y-67247458D01*
X106871240Y-67219880D01*
X106871240Y-66761160D01*
X106873956Y-66733582D01*
X106880210Y-66712964D01*
X106890366Y-66693964D01*
X106904032Y-66677312D01*
X106920684Y-66663646D01*
X106939684Y-66653490D01*
X106960302Y-66647236D01*
X106987880Y-66644520D01*
X107496600Y-66644520D01*
X107524178Y-66647236D01*
X107524178Y-66647236D01*
G37*
G36*
X105542978Y-66647236D02*
X105563596Y-66653490D01*
X105582596Y-66663646D01*
X105599248Y-66677312D01*
X105612914Y-66693964D01*
X105623070Y-66712964D01*
X105629324Y-66733582D01*
X105632040Y-66761160D01*
X105632040Y-67219880D01*
X105629324Y-67247458D01*
X105623070Y-67268076D01*
X105612914Y-67287076D01*
X105599248Y-67303728D01*
X105582596Y-67317394D01*
X105563596Y-67327550D01*
X105542978Y-67333804D01*
X105515400Y-67336520D01*
X105006680Y-67336520D01*
X104979102Y-67333804D01*
X104958484Y-67327550D01*
X104939484Y-67317394D01*
X104922832Y-67303728D01*
X104909166Y-67287076D01*
X104899010Y-67268076D01*
X104892756Y-67247458D01*
X104890040Y-67219880D01*
X104890040Y-66761160D01*
X104892756Y-66733582D01*
X104899010Y-66712964D01*
X104909166Y-66693964D01*
X104922832Y-66677312D01*
X104939484Y-66663646D01*
X104958484Y-66653490D01*
X104979102Y-66647236D01*
X105006680Y-66644520D01*
X105515400Y-66644520D01*
X105542978Y-66647236D01*
X105542978Y-66647236D01*
G37*
G36*
X103730058Y-66611876D02*
X103750676Y-66618130D01*
X103769676Y-66628286D01*
X103786328Y-66641952D01*
X103799994Y-66658604D01*
X103810150Y-66677604D01*
X103816404Y-66698222D01*
X103819120Y-66725800D01*
X103819120Y-67184520D01*
X103816404Y-67212098D01*
X103810150Y-67232716D01*
X103799994Y-67251716D01*
X103786328Y-67268368D01*
X103769676Y-67282034D01*
X103750676Y-67292190D01*
X103730058Y-67298444D01*
X103702480Y-67301160D01*
X103193760Y-67301160D01*
X103166182Y-67298444D01*
X103145564Y-67292190D01*
X103126564Y-67282034D01*
X103109912Y-67268368D01*
X103096246Y-67251716D01*
X103086090Y-67232716D01*
X103079836Y-67212098D01*
X103077120Y-67184520D01*
X103077120Y-66725800D01*
X103079836Y-66698222D01*
X103086090Y-66677604D01*
X103096246Y-66658604D01*
X103109912Y-66641952D01*
X103126564Y-66628286D01*
X103145564Y-66618130D01*
X103166182Y-66611876D01*
X103193760Y-66609160D01*
X103702480Y-66609160D01*
X103730058Y-66611876D01*
X103730058Y-66611876D01*
G37*
G36*
X119034411Y-65463205D02*
X119068389Y-65473513D01*
X119099707Y-65490253D01*
X119127159Y-65512781D01*
X119149687Y-65540233D01*
X119166427Y-65571551D01*
X119176735Y-65605529D01*
X119180820Y-65647010D01*
X119180820Y-66323230D01*
X119176735Y-66364711D01*
X119166427Y-66398689D01*
X119149687Y-66430007D01*
X119127159Y-66457459D01*
X119099707Y-66479987D01*
X119068389Y-66496727D01*
X119034411Y-66507035D01*
X118992930Y-66511120D01*
X118391710Y-66511120D01*
X118350229Y-66507035D01*
X118316251Y-66496727D01*
X118284933Y-66479987D01*
X118257481Y-66457459D01*
X118234953Y-66430007D01*
X118218213Y-66398689D01*
X118207905Y-66364711D01*
X118203820Y-66323230D01*
X118203820Y-65647010D01*
X118207905Y-65605529D01*
X118218213Y-65571551D01*
X118234953Y-65540233D01*
X118257481Y-65512781D01*
X118284933Y-65490253D01*
X118316251Y-65473513D01*
X118350229Y-65463205D01*
X118391710Y-65459120D01*
X118992930Y-65459120D01*
X119034411Y-65463205D01*
X119034411Y-65463205D01*
G37*
G36*
X120609411Y-65463205D02*
X120643389Y-65473513D01*
X120674707Y-65490253D01*
X120702159Y-65512781D01*
X120724687Y-65540233D01*
X120741427Y-65571551D01*
X120751735Y-65605529D01*
X120755820Y-65647010D01*
X120755820Y-66323230D01*
X120751735Y-66364711D01*
X120741427Y-66398689D01*
X120724687Y-66430007D01*
X120702159Y-66457459D01*
X120674707Y-66479987D01*
X120643389Y-66496727D01*
X120609411Y-66507035D01*
X120567930Y-66511120D01*
X119966710Y-66511120D01*
X119925229Y-66507035D01*
X119891251Y-66496727D01*
X119859933Y-66479987D01*
X119832481Y-66457459D01*
X119809953Y-66430007D01*
X119793213Y-66398689D01*
X119782905Y-66364711D01*
X119778820Y-66323230D01*
X119778820Y-65647010D01*
X119782905Y-65605529D01*
X119793213Y-65571551D01*
X119809953Y-65540233D01*
X119832481Y-65512781D01*
X119859933Y-65490253D01*
X119891251Y-65473513D01*
X119925229Y-65463205D01*
X119966710Y-65459120D01*
X120567930Y-65459120D01*
X120609411Y-65463205D01*
X120609411Y-65463205D01*
G37*
G36*
X97571938Y-65731716D02*
X97592556Y-65737970D01*
X97611556Y-65748126D01*
X97628208Y-65761792D01*
X97641874Y-65778444D01*
X97652030Y-65797444D01*
X97658284Y-65818062D01*
X97661000Y-65845640D01*
X97661000Y-66354360D01*
X97658284Y-66381938D01*
X97652030Y-66402556D01*
X97641874Y-66421556D01*
X97628208Y-66438208D01*
X97611556Y-66451874D01*
X97592556Y-66462030D01*
X97571938Y-66468284D01*
X97544360Y-66471000D01*
X97085640Y-66471000D01*
X97058062Y-66468284D01*
X97037444Y-66462030D01*
X97018444Y-66451874D01*
X97001792Y-66438208D01*
X96988126Y-66421556D01*
X96977970Y-66402556D01*
X96971716Y-66381938D01*
X96969000Y-66354360D01*
X96969000Y-65845640D01*
X96971716Y-65818062D01*
X96977970Y-65797444D01*
X96988126Y-65778444D01*
X97001792Y-65761792D01*
X97018444Y-65748126D01*
X97037444Y-65737970D01*
X97058062Y-65731716D01*
X97085640Y-65729000D01*
X97544360Y-65729000D01*
X97571938Y-65731716D01*
X97571938Y-65731716D01*
G37*
G36*
X100541938Y-65731716D02*
X100562556Y-65737970D01*
X100581556Y-65748126D01*
X100598208Y-65761792D01*
X100611874Y-65778444D01*
X100622030Y-65797444D01*
X100628284Y-65818062D01*
X100631000Y-65845640D01*
X100631000Y-66354360D01*
X100628284Y-66381938D01*
X100622030Y-66402556D01*
X100611874Y-66421556D01*
X100598208Y-66438208D01*
X100581556Y-66451874D01*
X100562556Y-66462030D01*
X100541938Y-66468284D01*
X100514360Y-66471000D01*
X100055640Y-66471000D01*
X100028062Y-66468284D01*
X100007444Y-66462030D01*
X99988444Y-66451874D01*
X99971792Y-66438208D01*
X99958126Y-66421556D01*
X99947970Y-66402556D01*
X99941716Y-66381938D01*
X99939000Y-66354360D01*
X99939000Y-65845640D01*
X99941716Y-65818062D01*
X99947970Y-65797444D01*
X99958126Y-65778444D01*
X99971792Y-65761792D01*
X99988444Y-65748126D01*
X100007444Y-65737970D01*
X100028062Y-65731716D01*
X100055640Y-65729000D01*
X100514360Y-65729000D01*
X100541938Y-65731716D01*
X100541938Y-65731716D01*
G37*
G36*
X98541938Y-65731716D02*
X98562556Y-65737970D01*
X98581556Y-65748126D01*
X98598208Y-65761792D01*
X98611874Y-65778444D01*
X98622030Y-65797444D01*
X98628284Y-65818062D01*
X98631000Y-65845640D01*
X98631000Y-66354360D01*
X98628284Y-66381938D01*
X98622030Y-66402556D01*
X98611874Y-66421556D01*
X98598208Y-66438208D01*
X98581556Y-66451874D01*
X98562556Y-66462030D01*
X98541938Y-66468284D01*
X98514360Y-66471000D01*
X98055640Y-66471000D01*
X98028062Y-66468284D01*
X98007444Y-66462030D01*
X97988444Y-66451874D01*
X97971792Y-66438208D01*
X97958126Y-66421556D01*
X97947970Y-66402556D01*
X97941716Y-66381938D01*
X97939000Y-66354360D01*
X97939000Y-65845640D01*
X97941716Y-65818062D01*
X97947970Y-65797444D01*
X97958126Y-65778444D01*
X97971792Y-65761792D01*
X97988444Y-65748126D01*
X98007444Y-65737970D01*
X98028062Y-65731716D01*
X98055640Y-65729000D01*
X98514360Y-65729000D01*
X98541938Y-65731716D01*
X98541938Y-65731716D01*
G37*
G36*
X99571938Y-65731716D02*
X99592556Y-65737970D01*
X99611556Y-65748126D01*
X99628208Y-65761792D01*
X99641874Y-65778444D01*
X99652030Y-65797444D01*
X99658284Y-65818062D01*
X99661000Y-65845640D01*
X99661000Y-66354360D01*
X99658284Y-66381938D01*
X99652030Y-66402556D01*
X99641874Y-66421556D01*
X99628208Y-66438208D01*
X99611556Y-66451874D01*
X99592556Y-66462030D01*
X99571938Y-66468284D01*
X99544360Y-66471000D01*
X99085640Y-66471000D01*
X99058062Y-66468284D01*
X99037444Y-66462030D01*
X99018444Y-66451874D01*
X99001792Y-66438208D01*
X98988126Y-66421556D01*
X98977970Y-66402556D01*
X98971716Y-66381938D01*
X98969000Y-66354360D01*
X98969000Y-65845640D01*
X98971716Y-65818062D01*
X98977970Y-65797444D01*
X98988126Y-65778444D01*
X99001792Y-65761792D01*
X99018444Y-65748126D01*
X99037444Y-65737970D01*
X99058062Y-65731716D01*
X99085640Y-65729000D01*
X99544360Y-65729000D01*
X99571938Y-65731716D01*
X99571938Y-65731716D01*
G37*
G36*
X116521858Y-65694576D02*
X116542476Y-65700830D01*
X116561476Y-65710986D01*
X116578128Y-65724652D01*
X116591794Y-65741304D01*
X116601950Y-65760304D01*
X116608204Y-65780922D01*
X116610920Y-65808500D01*
X116610920Y-66317220D01*
X116608204Y-66344798D01*
X116601950Y-66365416D01*
X116591794Y-66384416D01*
X116578128Y-66401068D01*
X116561476Y-66414734D01*
X116542476Y-66424890D01*
X116521858Y-66431144D01*
X116494280Y-66433860D01*
X116035560Y-66433860D01*
X116007982Y-66431144D01*
X115987364Y-66424890D01*
X115968364Y-66414734D01*
X115951712Y-66401068D01*
X115938046Y-66384416D01*
X115927890Y-66365416D01*
X115921636Y-66344798D01*
X115918920Y-66317220D01*
X115918920Y-65808500D01*
X115921636Y-65780922D01*
X115927890Y-65760304D01*
X115938046Y-65741304D01*
X115951712Y-65724652D01*
X115968364Y-65710986D01*
X115987364Y-65700830D01*
X116007982Y-65694576D01*
X116035560Y-65691860D01*
X116494280Y-65691860D01*
X116521858Y-65694576D01*
X116521858Y-65694576D01*
G37*
G36*
X117491858Y-65694576D02*
X117512476Y-65700830D01*
X117531476Y-65710986D01*
X117548128Y-65724652D01*
X117561794Y-65741304D01*
X117571950Y-65760304D01*
X117578204Y-65780922D01*
X117580920Y-65808500D01*
X117580920Y-66317220D01*
X117578204Y-66344798D01*
X117571950Y-66365416D01*
X117561794Y-66384416D01*
X117548128Y-66401068D01*
X117531476Y-66414734D01*
X117512476Y-66424890D01*
X117491858Y-66431144D01*
X117464280Y-66433860D01*
X117005560Y-66433860D01*
X116977982Y-66431144D01*
X116957364Y-66424890D01*
X116938364Y-66414734D01*
X116921712Y-66401068D01*
X116908046Y-66384416D01*
X116897890Y-66365416D01*
X116891636Y-66344798D01*
X116888920Y-66317220D01*
X116888920Y-65808500D01*
X116891636Y-65780922D01*
X116897890Y-65760304D01*
X116908046Y-65741304D01*
X116921712Y-65724652D01*
X116938364Y-65710986D01*
X116957364Y-65700830D01*
X116977982Y-65694576D01*
X117005560Y-65691860D01*
X117464280Y-65691860D01*
X117491858Y-65694576D01*
X117491858Y-65694576D01*
G37*
G36*
X107524178Y-65677236D02*
X107544796Y-65683490D01*
X107563796Y-65693646D01*
X107580448Y-65707312D01*
X107594114Y-65723964D01*
X107604270Y-65742964D01*
X107610524Y-65763582D01*
X107613240Y-65791160D01*
X107613240Y-66249880D01*
X107610524Y-66277458D01*
X107604270Y-66298076D01*
X107594114Y-66317076D01*
X107580448Y-66333728D01*
X107563796Y-66347394D01*
X107544796Y-66357550D01*
X107524178Y-66363804D01*
X107496600Y-66366520D01*
X106987880Y-66366520D01*
X106960302Y-66363804D01*
X106939684Y-66357550D01*
X106920684Y-66347394D01*
X106904032Y-66333728D01*
X106890366Y-66317076D01*
X106880210Y-66298076D01*
X106873956Y-66277458D01*
X106871240Y-66249880D01*
X106871240Y-65791160D01*
X106873956Y-65763582D01*
X106880210Y-65742964D01*
X106890366Y-65723964D01*
X106904032Y-65707312D01*
X106920684Y-65693646D01*
X106939684Y-65683490D01*
X106960302Y-65677236D01*
X106987880Y-65674520D01*
X107496600Y-65674520D01*
X107524178Y-65677236D01*
X107524178Y-65677236D01*
G37*
G36*
X105542978Y-65677236D02*
X105563596Y-65683490D01*
X105582596Y-65693646D01*
X105599248Y-65707312D01*
X105612914Y-65723964D01*
X105623070Y-65742964D01*
X105629324Y-65763582D01*
X105632040Y-65791160D01*
X105632040Y-66249880D01*
X105629324Y-66277458D01*
X105623070Y-66298076D01*
X105612914Y-66317076D01*
X105599248Y-66333728D01*
X105582596Y-66347394D01*
X105563596Y-66357550D01*
X105542978Y-66363804D01*
X105515400Y-66366520D01*
X105006680Y-66366520D01*
X104979102Y-66363804D01*
X104958484Y-66357550D01*
X104939484Y-66347394D01*
X104922832Y-66333728D01*
X104909166Y-66317076D01*
X104899010Y-66298076D01*
X104892756Y-66277458D01*
X104890040Y-66249880D01*
X104890040Y-65791160D01*
X104892756Y-65763582D01*
X104899010Y-65742964D01*
X104909166Y-65723964D01*
X104922832Y-65707312D01*
X104939484Y-65693646D01*
X104958484Y-65683490D01*
X104979102Y-65677236D01*
X105006680Y-65674520D01*
X105515400Y-65674520D01*
X105542978Y-65677236D01*
X105542978Y-65677236D01*
G37*
G36*
X103730058Y-65641876D02*
X103750676Y-65648130D01*
X103769676Y-65658286D01*
X103786328Y-65671952D01*
X103799994Y-65688604D01*
X103810150Y-65707604D01*
X103816404Y-65728222D01*
X103819120Y-65755800D01*
X103819120Y-66214520D01*
X103816404Y-66242098D01*
X103810150Y-66262716D01*
X103799994Y-66281716D01*
X103786328Y-66298368D01*
X103769676Y-66312034D01*
X103750676Y-66322190D01*
X103730058Y-66328444D01*
X103702480Y-66331160D01*
X103193760Y-66331160D01*
X103166182Y-66328444D01*
X103145564Y-66322190D01*
X103126564Y-66312034D01*
X103109912Y-66298368D01*
X103096246Y-66281716D01*
X103086090Y-66262716D01*
X103079836Y-66242098D01*
X103077120Y-66214520D01*
X103077120Y-65755800D01*
X103079836Y-65728222D01*
X103086090Y-65707604D01*
X103096246Y-65688604D01*
X103109912Y-65671952D01*
X103126564Y-65658286D01*
X103145564Y-65648130D01*
X103166182Y-65641876D01*
X103193760Y-65639160D01*
X103702480Y-65639160D01*
X103730058Y-65641876D01*
X103730058Y-65641876D01*
G37*
G36*
X119034411Y-63553125D02*
X119068389Y-63563433D01*
X119099707Y-63580173D01*
X119127159Y-63602701D01*
X119149687Y-63630153D01*
X119166427Y-63661471D01*
X119176735Y-63695449D01*
X119180820Y-63736930D01*
X119180820Y-64413150D01*
X119176735Y-64454631D01*
X119166427Y-64488609D01*
X119149687Y-64519927D01*
X119127159Y-64547379D01*
X119099707Y-64569907D01*
X119068389Y-64586647D01*
X119034411Y-64596955D01*
X118992930Y-64601040D01*
X118391710Y-64601040D01*
X118350229Y-64596955D01*
X118316251Y-64586647D01*
X118284933Y-64569907D01*
X118257481Y-64547379D01*
X118234953Y-64519927D01*
X118218213Y-64488609D01*
X118207905Y-64454631D01*
X118203820Y-64413150D01*
X118203820Y-63736930D01*
X118207905Y-63695449D01*
X118218213Y-63661471D01*
X118234953Y-63630153D01*
X118257481Y-63602701D01*
X118284933Y-63580173D01*
X118316251Y-63563433D01*
X118350229Y-63553125D01*
X118391710Y-63549040D01*
X118992930Y-63549040D01*
X119034411Y-63553125D01*
X119034411Y-63553125D01*
G37*
G36*
X120609411Y-63553125D02*
X120643389Y-63563433D01*
X120674707Y-63580173D01*
X120702159Y-63602701D01*
X120724687Y-63630153D01*
X120741427Y-63661471D01*
X120751735Y-63695449D01*
X120755820Y-63736930D01*
X120755820Y-64413150D01*
X120751735Y-64454631D01*
X120741427Y-64488609D01*
X120724687Y-64519927D01*
X120702159Y-64547379D01*
X120674707Y-64569907D01*
X120643389Y-64586647D01*
X120609411Y-64596955D01*
X120567930Y-64601040D01*
X119966710Y-64601040D01*
X119925229Y-64596955D01*
X119891251Y-64586647D01*
X119859933Y-64569907D01*
X119832481Y-64547379D01*
X119809953Y-64519927D01*
X119793213Y-64488609D01*
X119782905Y-64454631D01*
X119778820Y-64413150D01*
X119778820Y-63736930D01*
X119782905Y-63695449D01*
X119793213Y-63661471D01*
X119809953Y-63630153D01*
X119832481Y-63602701D01*
X119859933Y-63580173D01*
X119891251Y-63563433D01*
X119925229Y-63553125D01*
X119966710Y-63549040D01*
X120567930Y-63549040D01*
X120609411Y-63553125D01*
X120609411Y-63553125D01*
G37*
G36*
X117491858Y-63726076D02*
X117512476Y-63732330D01*
X117531476Y-63742486D01*
X117548128Y-63756152D01*
X117561794Y-63772804D01*
X117571950Y-63791804D01*
X117578204Y-63812422D01*
X117580920Y-63840000D01*
X117580920Y-64348720D01*
X117578204Y-64376298D01*
X117571950Y-64396916D01*
X117561794Y-64415916D01*
X117548128Y-64432568D01*
X117531476Y-64446234D01*
X117512476Y-64456390D01*
X117491858Y-64462644D01*
X117464280Y-64465360D01*
X117005560Y-64465360D01*
X116977982Y-64462644D01*
X116957364Y-64456390D01*
X116938364Y-64446234D01*
X116921712Y-64432568D01*
X116908046Y-64415916D01*
X116897890Y-64396916D01*
X116891636Y-64376298D01*
X116888920Y-64348720D01*
X116888920Y-63840000D01*
X116891636Y-63812422D01*
X116897890Y-63791804D01*
X116908046Y-63772804D01*
X116921712Y-63756152D01*
X116938364Y-63742486D01*
X116957364Y-63732330D01*
X116977982Y-63726076D01*
X117005560Y-63723360D01*
X117464280Y-63723360D01*
X117491858Y-63726076D01*
X117491858Y-63726076D01*
G37*
G36*
X116521858Y-63726076D02*
X116542476Y-63732330D01*
X116561476Y-63742486D01*
X116578128Y-63756152D01*
X116591794Y-63772804D01*
X116601950Y-63791804D01*
X116608204Y-63812422D01*
X116610920Y-63840000D01*
X116610920Y-64348720D01*
X116608204Y-64376298D01*
X116601950Y-64396916D01*
X116591794Y-64415916D01*
X116578128Y-64432568D01*
X116561476Y-64446234D01*
X116542476Y-64456390D01*
X116521858Y-64462644D01*
X116494280Y-64465360D01*
X116035560Y-64465360D01*
X116007982Y-64462644D01*
X115987364Y-64456390D01*
X115968364Y-64446234D01*
X115951712Y-64432568D01*
X115938046Y-64415916D01*
X115927890Y-64396916D01*
X115921636Y-64376298D01*
X115918920Y-64348720D01*
X115918920Y-63840000D01*
X115921636Y-63812422D01*
X115927890Y-63791804D01*
X115938046Y-63772804D01*
X115951712Y-63756152D01*
X115968364Y-63742486D01*
X115987364Y-63732330D01*
X116007982Y-63726076D01*
X116035560Y-63723360D01*
X116494280Y-63723360D01*
X116521858Y-63726076D01*
X116521858Y-63726076D01*
G37*
G36*
X105824747Y-61457197D02*
X105937973Y-61491544D01*
X105994587Y-61508717D01*
X106133207Y-61582812D01*
X106151111Y-61592382D01*
X106186849Y-61621712D01*
X106288306Y-61704974D01*
X106369823Y-61804304D01*
X106400898Y-61842169D01*
X106484563Y-61998694D01*
X106536083Y-62168534D01*
X106549120Y-62300903D01*
X106549120Y-62639418D01*
X106536083Y-62771787D01*
X106501736Y-62885013D01*
X106484563Y-62941627D01*
X106410468Y-63080247D01*
X106400898Y-63098151D01*
X106371568Y-63133889D01*
X106288306Y-63235346D01*
X106151109Y-63347939D01*
X105994586Y-63431603D01*
X105953853Y-63443959D01*
X105824746Y-63483123D01*
X105648120Y-63500519D01*
X105471493Y-63483123D01*
X105342386Y-63443959D01*
X105301653Y-63431603D01*
X105145131Y-63347939D01*
X105145129Y-63347938D01*
X105102869Y-63313256D01*
X105007934Y-63235346D01*
X104895341Y-63098149D01*
X104811677Y-62941626D01*
X104794504Y-62885012D01*
X104760157Y-62771786D01*
X104747120Y-62639417D01*
X104747120Y-62300902D01*
X104760157Y-62168533D01*
X104811677Y-61998694D01*
X104811677Y-61998693D01*
X104895342Y-61842168D01*
X105007932Y-61704977D01*
X105102870Y-61627064D01*
X105145130Y-61592382D01*
X105163034Y-61582812D01*
X105301654Y-61508717D01*
X105358268Y-61491544D01*
X105471494Y-61457197D01*
X105648120Y-61439801D01*
X105824747Y-61457197D01*
X105824747Y-61457197D01*
G37*
G36*
X108324747Y-61457197D02*
X108437973Y-61491544D01*
X108494587Y-61508717D01*
X108633207Y-61582812D01*
X108651111Y-61592382D01*
X108686849Y-61621712D01*
X108788306Y-61704974D01*
X108869823Y-61804304D01*
X108900898Y-61842169D01*
X108984563Y-61998694D01*
X109036083Y-62168534D01*
X109049120Y-62300903D01*
X109049120Y-62639418D01*
X109036083Y-62771787D01*
X109001736Y-62885013D01*
X108984563Y-62941627D01*
X108910468Y-63080247D01*
X108900898Y-63098151D01*
X108871568Y-63133889D01*
X108788306Y-63235346D01*
X108651109Y-63347939D01*
X108494586Y-63431603D01*
X108453853Y-63443959D01*
X108324746Y-63483123D01*
X108148120Y-63500519D01*
X107971493Y-63483123D01*
X107842386Y-63443959D01*
X107801653Y-63431603D01*
X107645131Y-63347939D01*
X107645129Y-63347938D01*
X107602869Y-63313256D01*
X107507934Y-63235346D01*
X107395341Y-63098149D01*
X107311677Y-62941626D01*
X107294504Y-62885012D01*
X107260157Y-62771786D01*
X107247120Y-62639417D01*
X107247120Y-62300902D01*
X107260157Y-62168533D01*
X107311677Y-61998694D01*
X107311677Y-61998693D01*
X107395342Y-61842168D01*
X107507932Y-61704977D01*
X107602870Y-61627064D01*
X107645130Y-61592382D01*
X107663034Y-61582812D01*
X107801654Y-61508717D01*
X107858268Y-61491544D01*
X107971494Y-61457197D01*
X108148120Y-61439801D01*
X108324747Y-61457197D01*
X108324747Y-61457197D01*
G37*
G36*
X103324747Y-61457197D02*
X103437973Y-61491544D01*
X103494587Y-61508717D01*
X103633207Y-61582812D01*
X103651111Y-61592382D01*
X103686849Y-61621712D01*
X103788306Y-61704974D01*
X103869823Y-61804304D01*
X103900898Y-61842169D01*
X103984563Y-61998694D01*
X104036083Y-62168534D01*
X104049120Y-62300903D01*
X104049120Y-62639418D01*
X104036083Y-62771787D01*
X104001736Y-62885013D01*
X103984563Y-62941627D01*
X103910468Y-63080247D01*
X103900898Y-63098151D01*
X103871568Y-63133889D01*
X103788306Y-63235346D01*
X103651109Y-63347939D01*
X103494586Y-63431603D01*
X103453853Y-63443959D01*
X103324746Y-63483123D01*
X103148120Y-63500519D01*
X102971493Y-63483123D01*
X102842386Y-63443959D01*
X102801653Y-63431603D01*
X102645131Y-63347939D01*
X102645129Y-63347938D01*
X102602869Y-63313256D01*
X102507934Y-63235346D01*
X102395341Y-63098149D01*
X102311677Y-62941626D01*
X102294504Y-62885012D01*
X102260157Y-62771786D01*
X102247120Y-62639417D01*
X102247120Y-62300902D01*
X102260157Y-62168533D01*
X102311677Y-61998694D01*
X102311677Y-61998693D01*
X102395342Y-61842168D01*
X102507932Y-61704977D01*
X102602870Y-61627064D01*
X102645130Y-61592382D01*
X102663034Y-61582812D01*
X102801654Y-61508717D01*
X102858268Y-61491544D01*
X102971494Y-61457197D01*
X103148120Y-61439801D01*
X103324747Y-61457197D01*
X103324747Y-61457197D01*
G37*
G36*
X111406720Y-61448149D02*
X111439769Y-61458174D01*
X111470226Y-61474454D01*
X111496919Y-61496361D01*
X111518826Y-61523054D01*
X111535106Y-61553511D01*
X111545131Y-61586560D01*
X111549120Y-61627064D01*
X111549120Y-63313256D01*
X111545131Y-63353760D01*
X111535106Y-63386809D01*
X111518826Y-63417266D01*
X111496919Y-63443959D01*
X111470226Y-63465866D01*
X111439769Y-63482146D01*
X111406720Y-63492171D01*
X111366216Y-63496160D01*
X109930024Y-63496160D01*
X109889520Y-63492171D01*
X109856471Y-63482146D01*
X109826014Y-63465866D01*
X109799321Y-63443959D01*
X109777414Y-63417266D01*
X109761134Y-63386809D01*
X109751109Y-63353760D01*
X109747120Y-63313256D01*
X109747120Y-61627064D01*
X109751109Y-61586560D01*
X109761134Y-61553511D01*
X109777414Y-61523054D01*
X109799321Y-61496361D01*
X109826014Y-61474454D01*
X109856471Y-61458174D01*
X109889520Y-61448149D01*
X109930024Y-61444160D01*
X111366216Y-61444160D01*
X111406720Y-61448149D01*
X111406720Y-61448149D01*
G37*
G36*
X120609411Y-61643045D02*
X120643389Y-61653353D01*
X120674707Y-61670093D01*
X120702159Y-61692621D01*
X120724687Y-61720073D01*
X120741427Y-61751391D01*
X120751735Y-61785369D01*
X120755820Y-61826850D01*
X120755820Y-62503070D01*
X120751735Y-62544551D01*
X120741427Y-62578529D01*
X120724687Y-62609847D01*
X120702159Y-62637299D01*
X120674707Y-62659827D01*
X120643389Y-62676567D01*
X120609411Y-62686875D01*
X120567930Y-62690960D01*
X119966710Y-62690960D01*
X119925229Y-62686875D01*
X119891251Y-62676567D01*
X119859933Y-62659827D01*
X119832481Y-62637299D01*
X119809953Y-62609847D01*
X119793213Y-62578529D01*
X119782905Y-62544551D01*
X119778820Y-62503070D01*
X119778820Y-61826850D01*
X119782905Y-61785369D01*
X119793213Y-61751391D01*
X119809953Y-61720073D01*
X119832481Y-61692621D01*
X119859933Y-61670093D01*
X119891251Y-61653353D01*
X119925229Y-61643045D01*
X119966710Y-61638960D01*
X120567930Y-61638960D01*
X120609411Y-61643045D01*
X120609411Y-61643045D01*
G37*
G36*
X119034411Y-61643045D02*
X119068389Y-61653353D01*
X119099707Y-61670093D01*
X119127159Y-61692621D01*
X119149687Y-61720073D01*
X119166427Y-61751391D01*
X119176735Y-61785369D01*
X119180820Y-61826850D01*
X119180820Y-62503070D01*
X119176735Y-62544551D01*
X119166427Y-62578529D01*
X119149687Y-62609847D01*
X119127159Y-62637299D01*
X119099707Y-62659827D01*
X119068389Y-62676567D01*
X119034411Y-62686875D01*
X118992930Y-62690960D01*
X118391710Y-62690960D01*
X118350229Y-62686875D01*
X118316251Y-62676567D01*
X118284933Y-62659827D01*
X118257481Y-62637299D01*
X118234953Y-62609847D01*
X118218213Y-62578529D01*
X118207905Y-62544551D01*
X118203820Y-62503070D01*
X118203820Y-61826850D01*
X118207905Y-61785369D01*
X118218213Y-61751391D01*
X118234953Y-61720073D01*
X118257481Y-61692621D01*
X118284933Y-61670093D01*
X118316251Y-61653353D01*
X118350229Y-61643045D01*
X118391710Y-61638960D01*
X118992930Y-61638960D01*
X119034411Y-61643045D01*
X119034411Y-61643045D01*
G37*
G36*
X116510338Y-61757576D02*
X116530956Y-61763830D01*
X116549956Y-61773986D01*
X116566608Y-61787652D01*
X116580274Y-61804304D01*
X116590430Y-61823304D01*
X116596684Y-61843922D01*
X116599400Y-61871500D01*
X116599400Y-62380220D01*
X116596684Y-62407798D01*
X116590430Y-62428416D01*
X116580274Y-62447416D01*
X116566608Y-62464068D01*
X116549956Y-62477734D01*
X116530956Y-62487890D01*
X116510338Y-62494144D01*
X116482760Y-62496860D01*
X116024040Y-62496860D01*
X115996462Y-62494144D01*
X115975844Y-62487890D01*
X115956844Y-62477734D01*
X115940192Y-62464068D01*
X115926526Y-62447416D01*
X115916370Y-62428416D01*
X115910116Y-62407798D01*
X115907400Y-62380220D01*
X115907400Y-61871500D01*
X115910116Y-61843922D01*
X115916370Y-61823304D01*
X115926526Y-61804304D01*
X115940192Y-61787652D01*
X115956844Y-61773986D01*
X115975844Y-61763830D01*
X115996462Y-61757576D01*
X116024040Y-61754860D01*
X116482760Y-61754860D01*
X116510338Y-61757576D01*
X116510338Y-61757576D01*
G37*
G36*
X117480338Y-61757576D02*
X117500956Y-61763830D01*
X117519956Y-61773986D01*
X117536608Y-61787652D01*
X117550274Y-61804304D01*
X117560430Y-61823304D01*
X117566684Y-61843922D01*
X117569400Y-61871500D01*
X117569400Y-62380220D01*
X117566684Y-62407798D01*
X117560430Y-62428416D01*
X117550274Y-62447416D01*
X117536608Y-62464068D01*
X117519956Y-62477734D01*
X117500956Y-62487890D01*
X117480338Y-62494144D01*
X117452760Y-62496860D01*
X116994040Y-62496860D01*
X116966462Y-62494144D01*
X116945844Y-62487890D01*
X116926844Y-62477734D01*
X116910192Y-62464068D01*
X116896526Y-62447416D01*
X116886370Y-62428416D01*
X116880116Y-62407798D01*
X116877400Y-62380220D01*
X116877400Y-61871500D01*
X116880116Y-61843922D01*
X116886370Y-61823304D01*
X116896526Y-61804304D01*
X116910192Y-61787652D01*
X116926844Y-61773986D01*
X116945844Y-61763830D01*
X116966462Y-61757576D01*
X116994040Y-61754860D01*
X117452760Y-61754860D01*
X117480338Y-61757576D01*
X117480338Y-61757576D01*
G37*
G36*
X97225256Y-51741298D02*
X97331579Y-51762447D01*
X97632042Y-51886903D01*
X97898852Y-52065180D01*
X97902454Y-52067587D01*
X98132413Y-52297546D01*
X98313098Y-52567960D01*
X98437553Y-52868422D01*
X98501000Y-53187389D01*
X98501000Y-53512611D01*
X98437553Y-53831578D01*
X98313098Y-54132040D01*
X98132413Y-54402454D01*
X97902454Y-54632413D01*
X97902451Y-54632415D01*
X97632042Y-54813097D01*
X97331579Y-54937553D01*
X97225256Y-54958702D01*
X97012611Y-55001000D01*
X96687389Y-55001000D01*
X96474744Y-54958702D01*
X96368421Y-54937553D01*
X96067958Y-54813097D01*
X95797549Y-54632415D01*
X95797546Y-54632413D01*
X95567587Y-54402454D01*
X95386902Y-54132040D01*
X95262447Y-53831578D01*
X95199000Y-53512611D01*
X95199000Y-53187389D01*
X95262447Y-52868422D01*
X95386902Y-52567960D01*
X95567587Y-52297546D01*
X95797546Y-52067587D01*
X95801148Y-52065180D01*
X96067958Y-51886903D01*
X96368421Y-51762447D01*
X96474744Y-51741298D01*
X96687389Y-51699000D01*
X97012611Y-51699000D01*
X97225256Y-51741298D01*
X97225256Y-51741298D01*
G37*
G36*
X117225256Y-51741298D02*
X117331579Y-51762447D01*
X117632042Y-51886903D01*
X117898852Y-52065180D01*
X117902454Y-52067587D01*
X118132413Y-52297546D01*
X118313098Y-52567960D01*
X118437553Y-52868422D01*
X118501000Y-53187389D01*
X118501000Y-53512611D01*
X118437553Y-53831578D01*
X118313098Y-54132040D01*
X118132413Y-54402454D01*
X117902454Y-54632413D01*
X117902451Y-54632415D01*
X117632042Y-54813097D01*
X117331579Y-54937553D01*
X117225256Y-54958702D01*
X117012611Y-55001000D01*
X116687389Y-55001000D01*
X116474744Y-54958702D01*
X116368421Y-54937553D01*
X116067958Y-54813097D01*
X115797549Y-54632415D01*
X115797546Y-54632413D01*
X115567587Y-54402454D01*
X115386902Y-54132040D01*
X115262447Y-53831578D01*
X115199000Y-53512611D01*
X115199000Y-53187389D01*
X115262447Y-52868422D01*
X115386902Y-52567960D01*
X115567587Y-52297546D01*
X115797546Y-52067587D01*
X115801148Y-52065180D01*
X116067958Y-51886903D01*
X116368421Y-51762447D01*
X116474744Y-51741298D01*
X116687389Y-51699000D01*
X117012611Y-51699000D01*
X117225256Y-51741298D01*
X117225256Y-51741298D01*
G37*
M02*
