M48
;DRILL file {KiCad (5.0.2)-1} date 2019/10/12 13:33:21
;FORMAT={-:-/ absolute / metric / decimal}
FMAT,2
METRIC,TZ
T1C0.300
T2C0.356
T3C0.400
T4C0.650
T5C0.825
T6C0.900
T7C0.950
T8C3.200
%
G90
G05
T1
X93.3Y-69.875
X93.348Y-57.87
X93.348Y-61.87
X93.348Y-65.87
X93.348Y-73.87
X93.348Y-77.87
X93.348Y-81.87
X93.348Y-85.87
X93.348Y-89.87
X93.348Y-93.87
X93.348Y-108.87
X95.3Y-69.45
X96.25Y-70.4
X96.35Y-69.4
X96.548Y-74.37
X96.848Y-87.87
X97.091Y-78.74
X98.05Y-69.35
X98.15Y-70.9
X98.196Y-86.457
X98.207Y-88.458
X98.207Y-91.994
X98.222Y-96.068
X98.588Y-83.297
X99.146Y-101.122
X99.172Y-105.059
X99.245Y-76.528
X99.45Y-61.
X99.646Y-79.324
X99.736Y-82.078
X99.85Y-69.35
X99.893Y-71.003
X100.173Y-83.97
X100.515Y-78.128
X100.592Y-79.093
X100.655Y-86.27
X100.787Y-105.796
X100.846Y-85.608
X100.846Y-106.627
X100.976Y-85.022
X101.021Y-80.874
X101.189Y-98.562
X101.29Y-100.848
X101.305Y-108.123
X101.354Y-103.452
X101.417Y-112.659
X101.417Y-116.659
X101.481Y-49.858
X101.481Y-53.858
X101.481Y-57.858
X101.608Y-66.177
X101.671Y-86.201
X101.85Y-71.2
X101.934Y-81.744
X102.243Y-63.955
X102.306Y-98.689
X102.599Y-104.52
X102.606Y-78.151
X102.753Y-79.096
X103.576Y-64.399
X103.64Y-73.734
X103.754Y-69.86
X104.275Y-68.654
X104.303Y-78.633
X104.592Y-70.051
X104.704Y-86.062
X105.017Y-112.659
X105.017Y-116.659
X105.081Y-49.858
X105.081Y-53.858
X105.081Y-57.858
X105.392Y-76.744
X105.522Y-90.094
X106.243Y-64.907
X106.497Y-73.734
X107.061Y-78.168
X107.107Y-72.705
X107.577Y-64.018
X107.825Y-75.471
X107.996Y-72.832
X108.617Y-112.659
X108.617Y-116.659
X108.681Y-49.858
X108.681Y-53.858
X108.681Y-57.858
X108.961Y-78.039
X109.156Y-100.33
X109.228Y-71.638
X109.418Y-88.085
X109.495Y-78.598
X109.799Y-94.244
X110.053Y-77.036
X110.185Y-82.332
X110.866Y-84.237
X111.647Y-77.727
X111.74Y-106.335
X111.768Y-86.815
X112.116Y-107.432
X112.149Y-86.18
X112.217Y-112.659
X112.217Y-116.659
X112.281Y-49.858
X112.281Y-53.858
X112.281Y-57.858
X112.314Y-76.756
X112.331Y-87.503
X112.486Y-108.737
X112.657Y-85.608
X112.784Y-83.475
X113.118Y-85.166
X113.165Y-84.529
X113.165Y-78.814
X113.254Y-74.724
X113.8Y-70.305
X113.99Y-76.236
X114.054Y-89.101
X114.117Y-87.513
X114.314Y-77.07
X114.752Y-77.48
X115.235Y-72.807
X115.26Y-76.871
X115.379Y-72.009
X115.963Y-73.67
X116.144Y-86.436
X116.213Y-63.129
X116.368Y-84.552
X117.165Y-77.163
X117.165Y-80.274
X117.165Y-84.148
X117.411Y-69.85
X117.648Y-73.594
X117.8Y-63.129
X117.927Y-67.561
X118.689Y-67.003
X119.451Y-67.053
X119.578Y-63.129
X120.348Y-57.87
X120.35Y-108.875
X120.467Y-68.019
X120.467Y-72.019
X120.467Y-76.019
X120.467Y-80.019
X120.467Y-84.019
X120.467Y-88.019
X120.467Y-92.019
X120.467Y-96.019
X120.467Y-100.019
X120.467Y-104.019
T2
X103.919Y-83.69
X104.927Y-82.682
X104.927Y-84.697
X105.934Y-81.675
X105.934Y-83.69
X105.934Y-85.705
X106.942Y-80.667
X106.942Y-82.682
X106.942Y-84.697
X106.942Y-86.713
X107.949Y-81.675
X107.949Y-83.69
X107.949Y-85.705
X108.957Y-82.682
X108.957Y-84.697
X109.965Y-83.69
T3
X109.113Y-75.016
X113.99Y-81.354
T6
X95.382Y-77.724
X95.382Y-80.224
X95.382Y-82.724
X95.382Y-85.224
X95.382Y-87.724
T7
X103.148Y-62.47
X105.648Y-62.47
X108.148Y-62.47
X110.648Y-62.47
T8
X96.85Y-53.35
X96.85Y-113.35
X116.85Y-113.35
X116.85Y-53.35
T4
X97.85Y-100.328G85X97.65Y-100.328
G05
X97.85Y-105.178G85X97.65Y-105.178
G05
T5
X95.087Y-99.203G85X94.412Y-99.203
G05
X95.087Y-106.303G85X94.412Y-106.303
G05
T0
M30
