G04 #@! TF.GenerationSoftware,KiCad,Pcbnew,(5.0.2)-1*
G04 #@! TF.CreationDate,2019-10-12T13:33:17+09:00*
G04 #@! TF.ProjectId,High_range_accelerometer,48696768-5f72-4616-9e67-655f61636365,rev?*
G04 #@! TF.SameCoordinates,Original*
G04 #@! TF.FileFunction,Copper,L2,Bot*
G04 #@! TF.FilePolarity,Positive*
%FSLAX46Y46*%
G04 Gerber Fmt 4.6, Leading zero omitted, Abs format (unit mm)*
G04 Created by KiCad (PCBNEW (5.0.2)-1) date 2019/10/12 13:33:17*
%MOMM*%
%LPD*%
G01*
G04 APERTURE LIST*
G04 #@! TA.AperFunction,Conductor*
%ADD10C,0.100000*%
G04 #@! TD*
G04 #@! TA.AperFunction,ComponentPad*
%ADD11C,1.700000*%
G04 #@! TD*
G04 #@! TA.AperFunction,ComponentPad*
%ADD12O,1.700000X1.950000*%
G04 #@! TD*
G04 #@! TA.AperFunction,ComponentPad*
%ADD13R,1.800000X1.800000*%
G04 #@! TD*
G04 #@! TA.AperFunction,ComponentPad*
%ADD14C,1.800000*%
G04 #@! TD*
G04 #@! TA.AperFunction,ComponentPad*
%ADD15C,0.712500*%
G04 #@! TD*
G04 #@! TA.AperFunction,ComponentPad*
%ADD16O,1.250000X1.050000*%
G04 #@! TD*
G04 #@! TA.AperFunction,ComponentPad*
%ADD17R,1.900000X2.100000*%
G04 #@! TD*
G04 #@! TA.AperFunction,ViaPad*
%ADD18C,0.400000*%
G04 #@! TD*
G04 #@! TA.AperFunction,ViaPad*
%ADD19C,0.800000*%
G04 #@! TD*
G04 #@! TA.AperFunction,Conductor*
%ADD20C,0.250000*%
G04 #@! TD*
G04 #@! TA.AperFunction,Conductor*
%ADD21C,0.190000*%
G04 #@! TD*
G04 #@! TA.AperFunction,Conductor*
%ADD22C,0.200000*%
G04 #@! TD*
G04 #@! TA.AperFunction,Conductor*
%ADD23C,0.210000*%
G04 #@! TD*
G04 APERTURE END LIST*
D10*
G04 #@! TO.N,GND*
G04 #@! TO.C,U1*
G36*
X111272624Y-61496364D02*
X111296893Y-61499964D01*
X111320691Y-61505925D01*
X111343791Y-61514190D01*
X111365969Y-61524680D01*
X111387013Y-61537293D01*
X111406718Y-61551907D01*
X111424897Y-61568383D01*
X111441373Y-61586562D01*
X111455987Y-61606267D01*
X111468600Y-61627311D01*
X111479090Y-61649489D01*
X111487355Y-61672589D01*
X111493316Y-61696387D01*
X111496916Y-61720656D01*
X111498120Y-61745160D01*
X111498120Y-63195160D01*
X111496916Y-63219664D01*
X111493316Y-63243933D01*
X111487355Y-63267731D01*
X111479090Y-63290831D01*
X111468600Y-63313009D01*
X111455987Y-63334053D01*
X111441373Y-63353758D01*
X111424897Y-63371937D01*
X111406718Y-63388413D01*
X111387013Y-63403027D01*
X111365969Y-63415640D01*
X111343791Y-63426130D01*
X111320691Y-63434395D01*
X111296893Y-63440356D01*
X111272624Y-63443956D01*
X111248120Y-63445160D01*
X110048120Y-63445160D01*
X110023616Y-63443956D01*
X109999347Y-63440356D01*
X109975549Y-63434395D01*
X109952449Y-63426130D01*
X109930271Y-63415640D01*
X109909227Y-63403027D01*
X109889522Y-63388413D01*
X109871343Y-63371937D01*
X109854867Y-63353758D01*
X109840253Y-63334053D01*
X109827640Y-63313009D01*
X109817150Y-63290831D01*
X109808885Y-63267731D01*
X109802924Y-63243933D01*
X109799324Y-63219664D01*
X109798120Y-63195160D01*
X109798120Y-61745160D01*
X109799324Y-61720656D01*
X109802924Y-61696387D01*
X109808885Y-61672589D01*
X109817150Y-61649489D01*
X109827640Y-61627311D01*
X109840253Y-61606267D01*
X109854867Y-61586562D01*
X109871343Y-61568383D01*
X109889522Y-61551907D01*
X109909227Y-61537293D01*
X109930271Y-61524680D01*
X109952449Y-61514190D01*
X109975549Y-61505925D01*
X109999347Y-61499964D01*
X110023616Y-61496364D01*
X110048120Y-61495160D01*
X111248120Y-61495160D01*
X111272624Y-61496364D01*
X111272624Y-61496364D01*
G37*
D11*
G04 #@! TD*
G04 #@! TO.P,U1,1*
G04 #@! TO.N,GND*
X110648120Y-62470160D03*
D12*
G04 #@! TO.P,U1,2*
G04 #@! TO.N,Net-(C1-Pad1)*
X108148120Y-62470160D03*
G04 #@! TO.P,U1,3*
G04 #@! TO.N,Net-(R2-Pad2)*
X105648120Y-62470160D03*
G04 #@! TO.P,U1,4*
G04 #@! TO.N,Net-(R3-Pad1)*
X103148120Y-62470160D03*
G04 #@! TD*
D13*
G04 #@! TO.P,P1,1*
G04 #@! TO.N,N/C*
X95382080Y-77724000D03*
D14*
G04 #@! TO.P,P1,2*
G04 #@! TO.N,GND*
X95382080Y-80224000D03*
G04 #@! TO.P,P1,3*
G04 #@! TO.N,XRESS*
X95382080Y-82724000D03*
G04 #@! TO.P,P1,4*
G04 #@! TO.N,SCLK*
X95382080Y-85224000D03*
G04 #@! TO.P,P1,5*
G04 #@! TO.N,SDATA*
X95382080Y-87724000D03*
G04 #@! TD*
D15*
G04 #@! TO.P,U5,69*
G04 #@! TO.N,GND*
X106941800Y-80666919D03*
X105934173Y-81674546D03*
X104926546Y-82682173D03*
X103918919Y-83689800D03*
X107949427Y-81674546D03*
X106941800Y-82682173D03*
X105934173Y-83689800D03*
X104926546Y-84697427D03*
X108957054Y-82682173D03*
X107949427Y-83689800D03*
X106941800Y-84697427D03*
X105934173Y-85705054D03*
X109964681Y-83689800D03*
X108957054Y-84697427D03*
X107949427Y-85705054D03*
X106941800Y-86712681D03*
G04 #@! TD*
D16*
G04 #@! TO.P,J1,5*
G04 #@! TO.N,GND*
X97749620Y-100328160D03*
X97749620Y-105178160D03*
D17*
X94749620Y-99103160D03*
X94749620Y-106403160D03*
G04 #@! TD*
D18*
G04 #@! TO.N,GND*
X105392220Y-76743560D03*
X99245420Y-76527660D03*
X100172520Y-83969860D03*
X112783620Y-83474560D03*
X93348120Y-108870160D03*
X120348120Y-57870160D03*
X93348120Y-57870160D03*
X102242620Y-63954660D03*
X113253520Y-74724260D03*
X112313720Y-76756260D03*
X101480620Y-49857660D03*
X105521760Y-90093800D03*
X120350280Y-108874560D03*
X101305360Y-108122720D03*
X99171760Y-105059480D03*
X99146360Y-101122480D03*
X111739680Y-106334560D03*
X98221800Y-96067880D03*
X98206560Y-91993720D03*
X98206560Y-88458040D03*
X98196400Y-86456520D03*
X98587560Y-83296760D03*
X99735640Y-82077560D03*
X101020880Y-80873600D03*
X102753160Y-79095600D03*
X96848120Y-87870160D03*
X96548120Y-74370160D03*
X117800120Y-63129160D03*
X116212620Y-63129160D03*
X106243120Y-64907160D03*
X103576120Y-64399160D03*
X103639620Y-73733660D03*
X106497120Y-73733660D03*
X104592120Y-70050660D03*
X99893120Y-71003160D03*
X101607620Y-66177160D03*
X111647481Y-77727299D03*
X117165120Y-84147660D03*
X119578120Y-63129160D03*
X117165120Y-77162660D03*
X117165120Y-80274160D03*
G04 #@! TO.N,*
X101353620Y-103451660D03*
X101290120Y-100848160D03*
X100845620Y-106626660D03*
G04 #@! TO.N,GND*
X101934402Y-81743942D03*
X113799620Y-70304660D03*
X109227620Y-71638160D03*
X118689120Y-67002660D03*
X107576620Y-64018160D03*
X104274620Y-68653660D03*
X105080620Y-49857660D03*
X108680620Y-49857660D03*
X112280620Y-49857660D03*
X101480620Y-53857660D03*
X105080620Y-53857660D03*
X108680620Y-53857660D03*
X112280620Y-53857660D03*
X101480620Y-57857660D03*
X105080620Y-57857660D03*
X108680620Y-57857660D03*
X112280620Y-57857660D03*
X101417120Y-112659160D03*
X105017120Y-112659160D03*
X108617120Y-112659160D03*
X112217120Y-112659160D03*
X101417120Y-116659160D03*
X105017120Y-116659160D03*
X108617120Y-116659160D03*
X112217120Y-116659160D03*
X120467120Y-68018660D03*
X120467120Y-72018660D03*
X120467120Y-76018660D03*
X120467120Y-80018660D03*
X120467120Y-84018660D03*
X120467120Y-88018660D03*
X120467120Y-92018660D03*
X120467120Y-96018660D03*
X120467120Y-100018660D03*
X120467120Y-104018660D03*
X93348120Y-61870160D03*
X93348120Y-65870160D03*
X93348120Y-73870160D03*
X93348120Y-77870160D03*
X93348120Y-81870160D03*
X93348120Y-85870160D03*
X93348120Y-89870160D03*
X93348120Y-93870160D03*
X114053620Y-89100660D03*
X109418120Y-88084660D03*
X109799120Y-94244160D03*
X114117120Y-87513160D03*
X112331500Y-87503000D03*
X97091500Y-78740000D03*
X107824531Y-75470681D03*
X115379500Y-72009000D03*
X107061000Y-78168500D03*
X117411500Y-69850000D03*
X109156500Y-100330000D03*
X93299990Y-69875490D03*
X101850000Y-71200000D03*
X95300000Y-69450000D03*
X96350000Y-69400000D03*
X98050000Y-69350000D03*
X99850000Y-69350000D03*
X98150000Y-70900000D03*
X96250000Y-70400000D03*
X99450000Y-61000000D03*
D19*
G04 #@! TO.N,+3V3*
X109113320Y-75016360D03*
X113990120Y-81353658D03*
D18*
G04 #@! TO.N,Net-(C19-Pad1)*
X110185200Y-82331560D03*
X104703646Y-86062304D03*
G04 #@! TO.N,XRESS*
X100515420Y-78127860D03*
G04 #@! TO.N,SCLK*
X99646235Y-79323507D03*
G04 #@! TO.N,SDATA*
X100591620Y-79093060D03*
G04 #@! TO.N,Net-(R4-Pad2)*
X102306120Y-98689160D03*
X101671120Y-86200608D03*
G04 #@! TO.N,Net-(R5-Pad2)*
X101188520Y-98562160D03*
X100655114Y-86270014D03*
G04 #@! TO.N,Sensor-CS*
X110865920Y-84236560D03*
X113164622Y-78813660D03*
G04 #@! TO.N,Flash-~CS*
X102598720Y-104519560D03*
X100845619Y-85608159D03*
G04 #@! TO.N,CAN-TXD*
X107995716Y-72831960D03*
X110053120Y-77035672D03*
G04 #@! TO.N,CAN-RXD*
X107106720Y-72704960D03*
X109494610Y-78597760D03*
G04 #@! TO.N,CAN-STB*
X108960920Y-78038960D03*
X103753920Y-69860160D03*
G04 #@! TO.N,Flash-CLK*
X112115600Y-107431840D03*
X104302560Y-78633320D03*
G04 #@! TO.N,Flash-MOSI*
X112486440Y-108737400D03*
X102605840Y-78150720D03*
G04 #@! TO.N,Flash-MISO*
X100787200Y-105796080D03*
X100975780Y-85022436D03*
G04 #@! TO.N,Sensor-CLK*
X117647720Y-73593960D03*
X112148620Y-86179660D03*
G04 #@! TO.N,Sensor-MOSI*
X115234720Y-72806560D03*
X112656620Y-85608160D03*
G04 #@! TO.N,Sensor-MISO*
X115963330Y-73670160D03*
X116367560Y-84551520D03*
X116144040Y-86436200D03*
X111767620Y-86814660D03*
G04 #@! TO.N,INT1*
X113117684Y-85166407D03*
X115260120Y-76870560D03*
G04 #@! TO.N,INT2*
X114752120Y-77480160D03*
X113164620Y-84528660D03*
G04 #@! TO.N,LED_G_1*
X114314396Y-77069794D03*
X119451120Y-67053460D03*
G04 #@! TO.N,LED_G_2*
X113990120Y-76235560D03*
X117927120Y-67561460D03*
G04 #@! TD*
D20*
G04 #@! TO.N,GND*
X99171760Y-101147880D02*
X99146360Y-101122480D01*
X98221800Y-98812490D02*
X98221800Y-96067880D01*
X99146360Y-101122480D02*
X99146360Y-99737050D01*
X99146360Y-99737050D02*
X98221800Y-98812490D01*
X98206560Y-91993720D02*
X98206560Y-88458040D01*
X98206560Y-88458040D02*
X98206560Y-86466680D01*
X98206560Y-86466680D02*
X98196400Y-86456520D01*
X98196400Y-86456520D02*
X98196400Y-83687920D01*
X98196400Y-83687920D02*
X98587560Y-83296760D01*
X99735640Y-82077560D02*
X99816920Y-82077560D01*
X99816920Y-82077560D02*
X101020880Y-80873600D01*
X101020880Y-80873600D02*
X101020880Y-80827880D01*
X101020880Y-80827880D02*
X102753160Y-79095600D01*
X106497120Y-73450818D02*
X106497120Y-73733660D01*
X117122719Y-84105259D02*
X117165120Y-84147660D01*
G04 #@! TO.N,*
X101353620Y-100911660D02*
X101290120Y-100848160D01*
X100845620Y-106514662D02*
X100845620Y-106626660D01*
X101353620Y-103451660D02*
X101353620Y-106006662D01*
X101353620Y-106006662D02*
X100845620Y-106514662D01*
G04 #@! TO.N,GND*
X115389160Y-72018660D02*
X115379500Y-72009000D01*
G04 #@! TO.N,+3V3*
X113990120Y-78651288D02*
X113990120Y-80787973D01*
X109113320Y-75016360D02*
X109679005Y-75016360D01*
X109679005Y-75016360D02*
X112855543Y-78192898D01*
X112855543Y-78192898D02*
X113531730Y-78192898D01*
X113531730Y-78192898D02*
X113990120Y-78651288D01*
X113990120Y-80787973D02*
X113990120Y-81353658D01*
D21*
G04 #@! TO.N,Net-(C19-Pad1)*
X110169960Y-82362040D02*
X110053120Y-82362040D01*
X110053120Y-82362040D02*
X109608305Y-82806855D01*
X109608305Y-82806855D02*
X109608305Y-82994774D01*
X109608305Y-82994774D02*
X106246774Y-86356305D01*
X104903645Y-86262303D02*
X104703646Y-86062304D01*
X106246774Y-86356305D02*
X104997647Y-86356305D01*
X104997647Y-86356305D02*
X104903645Y-86262303D01*
D20*
G04 #@! TO.N,XRESS*
X95382080Y-82724000D02*
X99978220Y-78127860D01*
X99978220Y-78127860D02*
X100232578Y-78127860D01*
X100232578Y-78127860D02*
X100515420Y-78127860D01*
G04 #@! TO.N,SCLK*
X99446236Y-79523506D02*
X99646235Y-79323507D01*
X96607081Y-82362661D02*
X99446236Y-79523506D01*
X95382080Y-85224000D02*
X96607081Y-83998999D01*
X96607081Y-83998999D02*
X96607081Y-82362661D01*
D21*
G04 #@! TO.N,SDATA*
X95382080Y-87724000D02*
X95382080Y-87561200D01*
D20*
X100591620Y-79375902D02*
X100591620Y-79093060D01*
X100591620Y-79474060D02*
X100591620Y-79375902D01*
X97057092Y-83008588D02*
X100591620Y-79474060D01*
X95382080Y-87724000D02*
X97057092Y-86048988D01*
X97057092Y-86048988D02*
X97057092Y-83008588D01*
D22*
G04 #@! TO.N,Net-(R4-Pad2)*
X100845620Y-97228660D02*
X102306120Y-98689160D01*
X100845620Y-87572889D02*
X100845620Y-97228660D01*
D21*
X101471121Y-86400607D02*
X101671120Y-86200608D01*
X100845620Y-87026108D02*
X101471121Y-86400607D01*
X100845620Y-87572889D02*
X100845620Y-87026108D01*
D22*
G04 #@! TO.N,Net-(R5-Pad2)*
X100988521Y-98362161D02*
X101188520Y-98562160D01*
X100401120Y-97774760D02*
X100988521Y-98362161D01*
X100401120Y-86829130D02*
X100401120Y-97774760D01*
D21*
X100401120Y-86829130D02*
X100401120Y-86524008D01*
X100455115Y-86470013D02*
X100655114Y-86270014D01*
X100401120Y-86524008D02*
X100455115Y-86470013D01*
G04 #@! TO.N,Sensor-CS*
X111065919Y-84036561D02*
X111065919Y-83604761D01*
X110865920Y-84236560D02*
X111065919Y-84036561D01*
X111065919Y-83604761D02*
X112821720Y-81848960D01*
D22*
X112821720Y-81848960D02*
X113164622Y-81506058D01*
X113164622Y-79096502D02*
X113164622Y-78813660D01*
X113164622Y-81506058D02*
X113164622Y-79096502D01*
D20*
G04 #@! TO.N,Flash-~CS*
X102598720Y-104519560D02*
X102598720Y-101202850D01*
X99956620Y-98560750D02*
X99956620Y-86214316D01*
X99956620Y-86214316D02*
X100562777Y-85608159D01*
X100562777Y-85608159D02*
X100845619Y-85608159D01*
X102598720Y-101202850D02*
X99956620Y-98560750D01*
D22*
G04 #@! TO.N,CAN-TXD*
X110027720Y-76966762D02*
X107995716Y-74934758D01*
X107995716Y-74934758D02*
X107995716Y-73114802D01*
X107995716Y-73114802D02*
X107995716Y-72831960D01*
D21*
X110027720Y-76966762D02*
X110027720Y-77010272D01*
X110027720Y-77010272D02*
X110053120Y-77035672D01*
G04 #@! TO.N,CAN-RXD*
X109494610Y-77861450D02*
X109494610Y-78314918D01*
X107106720Y-75473560D02*
X109494610Y-77861450D01*
X109494610Y-78314918D02*
X109494610Y-78597760D01*
X107106720Y-72704960D02*
X107106720Y-75473560D01*
G04 #@! TO.N,CAN-STB*
X108760921Y-77838961D02*
X108960920Y-78038960D01*
X103271320Y-72349360D02*
X108760921Y-77838961D01*
X103271320Y-72298560D02*
X103271320Y-72349360D01*
D22*
X103271320Y-72349360D02*
X103271320Y-70342760D01*
X103271320Y-70342760D02*
X103753920Y-69860160D01*
D20*
G04 #@! TO.N,Flash-CLK*
X104102561Y-78833319D02*
X104302560Y-78633320D01*
X100481220Y-107431840D02*
X100025200Y-106975820D01*
X112115600Y-107431840D02*
X100481220Y-107431840D01*
X100025200Y-106975820D02*
X100025200Y-99979480D01*
X100025200Y-99979480D02*
X98866960Y-98821240D01*
X98866960Y-98821240D02*
X98866960Y-84068920D01*
X98866960Y-84068920D02*
X104102561Y-78833319D01*
G04 #@! TO.N,Flash-MOSI*
X102405841Y-78350719D02*
X102605840Y-78150720D01*
X97543620Y-99192969D02*
X97543620Y-83212940D01*
X112486440Y-108737400D02*
X99822000Y-108737400D01*
X99822000Y-108737400D02*
X98281130Y-107196530D01*
X97543620Y-83212940D02*
X102405841Y-78350719D01*
D21*
X96450000Y-105365400D02*
X98281130Y-107196530D01*
X97543620Y-99192969D02*
X96450000Y-100286589D01*
X96450000Y-100286589D02*
X96450000Y-105365400D01*
D20*
G04 #@! TO.N,Flash-MISO*
X100591620Y-99832160D02*
X99448620Y-98689160D01*
X100591620Y-105600500D02*
X100591620Y-99832160D01*
X99448620Y-98689160D02*
X99448620Y-85961511D01*
X100787200Y-105796080D02*
X100591620Y-105600500D01*
D21*
X100692938Y-85022436D02*
X100975780Y-85022436D01*
X99448620Y-85961511D02*
X100387695Y-85022436D01*
X100387695Y-85022436D02*
X100692938Y-85022436D01*
D22*
G04 #@! TO.N,Sensor-CLK*
X116428520Y-85785960D02*
X115564920Y-85785960D01*
X116657120Y-85557360D02*
X116428520Y-85785960D01*
D20*
X117647720Y-73876802D02*
X117647720Y-73593960D01*
X117972840Y-74201922D02*
X117647720Y-73876802D01*
X116657120Y-85557360D02*
X117972840Y-84241640D01*
X117972840Y-84241640D02*
X117972840Y-74201922D01*
D21*
X115171220Y-86179660D02*
X112431462Y-86179660D01*
X112431462Y-86179660D02*
X112148620Y-86179660D01*
X115564920Y-85785960D02*
X115171220Y-86179660D01*
D22*
G04 #@! TO.N,Sensor-MOSI*
X115234720Y-75117960D02*
X115234720Y-72806560D01*
X115793520Y-75676760D02*
X115234720Y-75117960D01*
X115285520Y-85150960D02*
X115793520Y-84642960D01*
X115793520Y-84642960D02*
X115793520Y-75676760D01*
D21*
X115285520Y-85150960D02*
X114775071Y-85661409D01*
X114775071Y-85661409D02*
X112709869Y-85661409D01*
X112709869Y-85661409D02*
X112656620Y-85608160D01*
D22*
G04 #@! TO.N,Sensor-MISO*
X116367560Y-84268678D02*
X116367560Y-84551520D01*
X115963330Y-73670160D02*
X116367560Y-74074390D01*
X116367560Y-74074390D02*
X116367560Y-84268678D01*
D21*
X115765580Y-86814660D02*
X112050462Y-86814660D01*
X112050462Y-86814660D02*
X111767620Y-86814660D01*
X116144040Y-86436200D02*
X115765580Y-86814660D01*
G04 #@! TO.N,INT1*
X113400526Y-85166407D02*
X113117684Y-85166407D01*
X114752120Y-84973160D02*
X114558873Y-85166407D01*
X114558873Y-85166407D02*
X113400526Y-85166407D01*
D22*
X114759019Y-84973160D02*
X115285520Y-84446659D01*
X115285520Y-84446659D02*
X115285520Y-77099160D01*
X115260120Y-77073760D02*
X115260120Y-76870560D01*
X115285520Y-77099160D02*
X115260120Y-77073760D01*
G04 #@! TO.N,INT2*
X114752120Y-82941160D02*
X113364619Y-84328661D01*
X114752120Y-77480160D02*
X114752120Y-82941160D01*
X113364619Y-84328661D02*
X113164620Y-84528660D01*
D21*
G04 #@! TO.N,LED_G_1*
X114314396Y-77069794D02*
X114739719Y-76644471D01*
X119251121Y-67253459D02*
X119451120Y-67053460D01*
X114739719Y-71764861D02*
X119251121Y-67253459D01*
X114739719Y-76644471D02*
X114739719Y-71764861D01*
G04 #@! TO.N,LED_G_2*
X113990120Y-76235560D02*
X113990120Y-71498460D01*
X117727121Y-67761459D02*
X117927120Y-67561460D01*
X113990120Y-71498460D02*
X117727121Y-67761459D01*
G04 #@! TD*
D23*
G04 #@! TO.N,GND*
G36*
X111838349Y-49040606D02*
X112295166Y-49229826D01*
X112687447Y-49530833D01*
X112988454Y-49923114D01*
X113177674Y-50379931D01*
X113243120Y-50877044D01*
X113243120Y-54870160D01*
X113244018Y-54883865D01*
X113312166Y-55401503D01*
X113319261Y-55427980D01*
X113519062Y-55910342D01*
X113532767Y-55934080D01*
X113850604Y-56348294D01*
X113869986Y-56367676D01*
X114284200Y-56685513D01*
X114307938Y-56699218D01*
X114790300Y-56899019D01*
X114816777Y-56906114D01*
X115334415Y-56974262D01*
X115348120Y-56975160D01*
X119341236Y-56975160D01*
X119838349Y-57040606D01*
X120295166Y-57229826D01*
X120687447Y-57530833D01*
X120988454Y-57923114D01*
X121177674Y-58379931D01*
X121243120Y-58877044D01*
X121243120Y-107863276D01*
X121177674Y-108360389D01*
X120988454Y-108817206D01*
X120687447Y-109209487D01*
X120295166Y-109510494D01*
X119838349Y-109699714D01*
X119341236Y-109765160D01*
X115348120Y-109765160D01*
X115334415Y-109766058D01*
X114816777Y-109834206D01*
X114790300Y-109841301D01*
X114307938Y-110041102D01*
X114284200Y-110054807D01*
X113869986Y-110372644D01*
X113850604Y-110392026D01*
X113532767Y-110806240D01*
X113519062Y-110829978D01*
X113319261Y-111312340D01*
X113312166Y-111338817D01*
X113244018Y-111856455D01*
X113243120Y-111870160D01*
X113243120Y-115863276D01*
X113177674Y-116360389D01*
X112988454Y-116817206D01*
X112687447Y-117209487D01*
X112295166Y-117510494D01*
X111838349Y-117699714D01*
X111341236Y-117765160D01*
X102355004Y-117765160D01*
X101857891Y-117699714D01*
X101401074Y-117510494D01*
X101008793Y-117209487D01*
X100707786Y-116817206D01*
X100518566Y-116360389D01*
X100453120Y-115863276D01*
X100453120Y-111870160D01*
X100452222Y-111856455D01*
X100384074Y-111338817D01*
X100376979Y-111312340D01*
X100177178Y-110829978D01*
X100163473Y-110806240D01*
X99845636Y-110392026D01*
X99826254Y-110372644D01*
X99412040Y-110054807D01*
X99388302Y-110041102D01*
X98905940Y-109841301D01*
X98879463Y-109834206D01*
X98361825Y-109766058D01*
X98348120Y-109765160D01*
X94355004Y-109765160D01*
X93857891Y-109699714D01*
X93401074Y-109510494D01*
X93008793Y-109209487D01*
X92707786Y-108817206D01*
X92518566Y-108360389D01*
X92453120Y-107863276D01*
X92453120Y-106834904D01*
X92473197Y-106830910D01*
X92586959Y-106808281D01*
X92715963Y-106722084D01*
X92802160Y-106593080D01*
X92832429Y-106440910D01*
X92824789Y-106402502D01*
X92824789Y-99004318D01*
X92832429Y-98965910D01*
X92802160Y-98813740D01*
X92715963Y-98684736D01*
X92586959Y-98598539D01*
X92473197Y-98575910D01*
X92453120Y-98571916D01*
X92453120Y-82482322D01*
X94167080Y-82482322D01*
X94167080Y-82965678D01*
X94243120Y-83149255D01*
X94243120Y-84798745D01*
X94167080Y-84982322D01*
X94167080Y-85465678D01*
X94243120Y-85649255D01*
X94243120Y-87298745D01*
X94167080Y-87482322D01*
X94167080Y-87965678D01*
X94352053Y-88412242D01*
X94693838Y-88754027D01*
X95140402Y-88939000D01*
X95623758Y-88939000D01*
X96070322Y-88754027D01*
X96412107Y-88412242D01*
X96551731Y-88075160D01*
X97103621Y-88075160D01*
X97103620Y-99053142D01*
X96188639Y-99968123D01*
X96154407Y-99990996D01*
X96063789Y-100126616D01*
X96040000Y-100246211D01*
X96040000Y-100246214D01*
X96031969Y-100286589D01*
X96040000Y-100326964D01*
X96040001Y-105325020D01*
X96031969Y-105365400D01*
X96063789Y-105525373D01*
X96131534Y-105626761D01*
X96131537Y-105626764D01*
X96154408Y-105660993D01*
X96188637Y-105683864D01*
X97865090Y-107360318D01*
X97866660Y-107368209D01*
X97939360Y-107477013D01*
X99480229Y-109017882D01*
X99504778Y-109054622D01*
X99611915Y-109126209D01*
X99650319Y-109151870D01*
X99650320Y-109151870D01*
X99650321Y-109151871D01*
X99778664Y-109177400D01*
X99778668Y-109177400D01*
X99821999Y-109186019D01*
X99865330Y-109177400D01*
X112202934Y-109177400D01*
X112384000Y-109252400D01*
X112588880Y-109252400D01*
X112778164Y-109173996D01*
X112923036Y-109029124D01*
X113001440Y-108839840D01*
X113001440Y-108634960D01*
X112923036Y-108445676D01*
X112778164Y-108300804D01*
X112588880Y-108222400D01*
X112384000Y-108222400D01*
X112202934Y-108297400D01*
X100004253Y-108297400D01*
X98561613Y-106854760D01*
X98452809Y-106782060D01*
X98444918Y-106780490D01*
X96860000Y-105195573D01*
X96860000Y-100456416D01*
X97707406Y-99609010D01*
X97715298Y-99607440D01*
X97860842Y-99510191D01*
X97958091Y-99364648D01*
X97983620Y-99236305D01*
X97983620Y-84068920D01*
X98418341Y-84068920D01*
X98426961Y-84112256D01*
X98426960Y-98777909D01*
X98418341Y-98821240D01*
X98426960Y-98864571D01*
X98426960Y-98864575D01*
X98452489Y-98992918D01*
X98549738Y-99138462D01*
X98586478Y-99163011D01*
X99585201Y-100161735D01*
X99585200Y-106932489D01*
X99576581Y-106975820D01*
X99585200Y-107019151D01*
X99585200Y-107019155D01*
X99610729Y-107147498D01*
X99707978Y-107293042D01*
X99744718Y-107317591D01*
X100139451Y-107712325D01*
X100163998Y-107749062D01*
X100200735Y-107773609D01*
X100200736Y-107773610D01*
X100259062Y-107812582D01*
X100309541Y-107846311D01*
X100437884Y-107871840D01*
X100437889Y-107871840D01*
X100481220Y-107880459D01*
X100524551Y-107871840D01*
X111832094Y-107871840D01*
X112013160Y-107946840D01*
X112218040Y-107946840D01*
X112407324Y-107868436D01*
X112552196Y-107723564D01*
X112630600Y-107534280D01*
X112630600Y-107329400D01*
X112552196Y-107140116D01*
X112407324Y-106995244D01*
X112218040Y-106916840D01*
X112013160Y-106916840D01*
X111832094Y-106991840D01*
X101208760Y-106991840D01*
X101282216Y-106918384D01*
X101360620Y-106729100D01*
X101360620Y-106621915D01*
X101634105Y-106348431D01*
X101670842Y-106323884D01*
X101730781Y-106234179D01*
X101768090Y-106178343D01*
X101768090Y-106178342D01*
X101768091Y-106178341D01*
X101793620Y-106049998D01*
X101793620Y-106049994D01*
X101802239Y-106006663D01*
X101793620Y-105963332D01*
X101793620Y-103735166D01*
X101868620Y-103554100D01*
X101868620Y-103349220D01*
X101790216Y-103159936D01*
X101645344Y-103015064D01*
X101456060Y-102936660D01*
X101251180Y-102936660D01*
X101061896Y-103015064D01*
X101031620Y-103045340D01*
X101031620Y-101298518D01*
X101187680Y-101363160D01*
X101392560Y-101363160D01*
X101441916Y-101342716D01*
X101525300Y-101326130D01*
X101670842Y-101228882D01*
X101768090Y-101083340D01*
X101782834Y-101009218D01*
X102158721Y-101385105D01*
X102158720Y-104236054D01*
X102083720Y-104417120D01*
X102083720Y-104622000D01*
X102162124Y-104811284D01*
X102306996Y-104956156D01*
X102496280Y-105034560D01*
X102701160Y-105034560D01*
X102890444Y-104956156D01*
X103035316Y-104811284D01*
X103113720Y-104622000D01*
X103113720Y-104417120D01*
X103038720Y-104236054D01*
X103038720Y-101274018D01*
X103039434Y-101242590D01*
X103047339Y-101202850D01*
X103041055Y-101171260D01*
X103101973Y-98490886D01*
X103095115Y-98451105D01*
X103073336Y-98416405D01*
X103039936Y-98392680D01*
X102999999Y-98383543D01*
X102720847Y-98375567D01*
X102597844Y-98252564D01*
X102408560Y-98174160D01*
X102378019Y-98174160D01*
X101260620Y-97056762D01*
X101260620Y-87532017D01*
X101255620Y-87506880D01*
X101255620Y-87195935D01*
X101735948Y-86715608D01*
X101773560Y-86715608D01*
X101962844Y-86637204D01*
X102107716Y-86492332D01*
X102186120Y-86303048D01*
X102186120Y-86098168D01*
X102128833Y-85959864D01*
X104188646Y-85959864D01*
X104188646Y-86164744D01*
X104267050Y-86354028D01*
X104411922Y-86498900D01*
X104601206Y-86577304D01*
X104638819Y-86577304D01*
X104679181Y-86617666D01*
X104702054Y-86651898D01*
X104837673Y-86742516D01*
X104957268Y-86766305D01*
X104957272Y-86766305D01*
X104997647Y-86774336D01*
X105038022Y-86766305D01*
X106206399Y-86766305D01*
X106246774Y-86774336D01*
X106287149Y-86766305D01*
X106287153Y-86766305D01*
X106406748Y-86742516D01*
X106542367Y-86651898D01*
X106565240Y-86617666D01*
X109869668Y-83313239D01*
X109903898Y-83290367D01*
X109926769Y-83256138D01*
X109926771Y-83256136D01*
X109994516Y-83154748D01*
X110004919Y-83102448D01*
X110018305Y-83035152D01*
X110018305Y-83035150D01*
X110026336Y-82994774D01*
X110022002Y-82972985D01*
X110148427Y-82846560D01*
X110287640Y-82846560D01*
X110476924Y-82768156D01*
X110621796Y-82623284D01*
X110700200Y-82434000D01*
X110700200Y-82229120D01*
X110621796Y-82039836D01*
X110476924Y-81894964D01*
X110287640Y-81816560D01*
X110082760Y-81816560D01*
X109893476Y-81894964D01*
X109748604Y-82039836D01*
X109715446Y-82119887D01*
X109346944Y-82488389D01*
X109312712Y-82511262D01*
X109222094Y-82646882D01*
X109198305Y-82766477D01*
X109198305Y-82766480D01*
X109190274Y-82806855D01*
X109194608Y-82828643D01*
X106076947Y-85946305D01*
X105213030Y-85946305D01*
X105140242Y-85770580D01*
X104995370Y-85625708D01*
X104806086Y-85547304D01*
X104601206Y-85547304D01*
X104411922Y-85625708D01*
X104267050Y-85770580D01*
X104188646Y-85959864D01*
X102128833Y-85959864D01*
X102107716Y-85908884D01*
X101962844Y-85764012D01*
X101773560Y-85685608D01*
X101568680Y-85685608D01*
X101379396Y-85764012D01*
X101309573Y-85833835D01*
X101360619Y-85710599D01*
X101360619Y-85505719D01*
X101319672Y-85406864D01*
X101412376Y-85314160D01*
X101490780Y-85124876D01*
X101490780Y-84919996D01*
X101412376Y-84730712D01*
X101267504Y-84585840D01*
X101078220Y-84507436D01*
X100873340Y-84507436D01*
X100684056Y-84585840D01*
X100657460Y-84612436D01*
X100596709Y-84612436D01*
X100594761Y-84604775D01*
X100570241Y-84571954D01*
X99736524Y-83821609D01*
X104413218Y-79144916D01*
X104594284Y-79069916D01*
X104739156Y-78925044D01*
X104817560Y-78735760D01*
X104817560Y-78530880D01*
X104739156Y-78341596D01*
X104594284Y-78196724D01*
X104405000Y-78118320D01*
X104200120Y-78118320D01*
X104010836Y-78196724D01*
X103865964Y-78341596D01*
X103790964Y-78522662D01*
X98586476Y-83727151D01*
X98549739Y-83751698D01*
X98525192Y-83788435D01*
X98525190Y-83788437D01*
X98452490Y-83897241D01*
X98418341Y-84068920D01*
X97983620Y-84068920D01*
X97983620Y-83395193D01*
X102716498Y-78662316D01*
X102897564Y-78587316D01*
X103042436Y-78442444D01*
X103120840Y-78253160D01*
X103120840Y-78048280D01*
X103042436Y-77858996D01*
X102897564Y-77714124D01*
X102708280Y-77635720D01*
X102503400Y-77635720D01*
X102365935Y-77692660D01*
X100808540Y-77692660D01*
X100807144Y-77691264D01*
X100617860Y-77612860D01*
X100412980Y-77612860D01*
X100231914Y-77687860D01*
X100021551Y-77687860D01*
X99978220Y-77679241D01*
X99934889Y-77687860D01*
X99934884Y-77687860D01*
X99806541Y-77713389D01*
X99806539Y-77713390D01*
X99806540Y-77713390D01*
X99697736Y-77786090D01*
X99697735Y-77786091D01*
X99660998Y-77810638D01*
X99636451Y-77847375D01*
X95968667Y-81515160D01*
X95638630Y-81515160D01*
X95623758Y-81509000D01*
X95140402Y-81509000D01*
X95125530Y-81515160D01*
X94348120Y-81515160D01*
X94307938Y-81523153D01*
X94273874Y-81545914D01*
X94251113Y-81579978D01*
X94243120Y-81620160D01*
X94243120Y-82298745D01*
X94167080Y-82482322D01*
X92453120Y-82482322D01*
X92453120Y-76824000D01*
X94160909Y-76824000D01*
X94160909Y-78624000D01*
X94185357Y-78746907D01*
X94254978Y-78851102D01*
X94359173Y-78920723D01*
X94482080Y-78945171D01*
X96282080Y-78945171D01*
X96404987Y-78920723D01*
X96509182Y-78851102D01*
X96578803Y-78746907D01*
X96603251Y-78624000D01*
X96603251Y-76824000D01*
X96578803Y-76701093D01*
X96509182Y-76596898D01*
X96404987Y-76527277D01*
X96282080Y-76502829D01*
X94482080Y-76502829D01*
X94359173Y-76527277D01*
X94254978Y-76596898D01*
X94185357Y-76701093D01*
X94160909Y-76824000D01*
X92453120Y-76824000D01*
X92453120Y-70342760D01*
X102848191Y-70342760D01*
X102856321Y-70383633D01*
X102856320Y-72334122D01*
X102853289Y-72349360D01*
X102856320Y-72364598D01*
X102856320Y-72390231D01*
X102880399Y-72511284D01*
X102972122Y-72648558D01*
X103028083Y-72685950D01*
X108445920Y-78103787D01*
X108445920Y-78141400D01*
X108524324Y-78330684D01*
X108669196Y-78475556D01*
X108858480Y-78553960D01*
X108979610Y-78553960D01*
X108979610Y-78700200D01*
X109058014Y-78889484D01*
X109202886Y-79034356D01*
X109392170Y-79112760D01*
X109597050Y-79112760D01*
X109786334Y-79034356D01*
X109931206Y-78889484D01*
X110009610Y-78700200D01*
X110009610Y-78495320D01*
X109931206Y-78306036D01*
X109904610Y-78279440D01*
X109904610Y-77901823D01*
X109912641Y-77861449D01*
X109904610Y-77821075D01*
X109904610Y-77821071D01*
X109880821Y-77701476D01*
X109790203Y-77565857D01*
X109755971Y-77542984D01*
X107565487Y-75352500D01*
X107826560Y-75352500D01*
X109538120Y-77064061D01*
X109538120Y-77138112D01*
X109616524Y-77327396D01*
X109761396Y-77472268D01*
X109950680Y-77550672D01*
X110155560Y-77550672D01*
X110344844Y-77472268D01*
X110436326Y-77380786D01*
X111371935Y-77331544D01*
X112513774Y-78473383D01*
X112538321Y-78510120D01*
X112575058Y-78534667D01*
X112575059Y-78534668D01*
X112586528Y-78542331D01*
X112683864Y-78607369D01*
X112691971Y-78608981D01*
X112649622Y-78711220D01*
X112649622Y-78916100D01*
X112728026Y-79105384D01*
X112749622Y-79126980D01*
X112749622Y-79137373D01*
X112749623Y-79137378D01*
X112749622Y-81334159D01*
X112499370Y-81584412D01*
X112485133Y-81605719D01*
X110804556Y-83286297D01*
X110770327Y-83309168D01*
X110747456Y-83343397D01*
X110747453Y-83343400D01*
X110679708Y-83444788D01*
X110677238Y-83457207D01*
X110655919Y-83564382D01*
X110655919Y-83564386D01*
X110647888Y-83604761D01*
X110655919Y-83645136D01*
X110655919Y-83766113D01*
X110574196Y-83799964D01*
X110429324Y-83944836D01*
X110350920Y-84134120D01*
X110350920Y-84339000D01*
X110429324Y-84528284D01*
X110574196Y-84673156D01*
X110763480Y-84751560D01*
X110968360Y-84751560D01*
X111157644Y-84673156D01*
X111302516Y-84528284D01*
X111380920Y-84339000D01*
X111380920Y-84303108D01*
X111452130Y-84196535D01*
X111475919Y-84076940D01*
X111475919Y-84076936D01*
X111483950Y-84036562D01*
X111475919Y-83996188D01*
X111475919Y-83774588D01*
X113064961Y-82185547D01*
X113086268Y-82171310D01*
X113429172Y-81828407D01*
X113443879Y-81818580D01*
X113585105Y-81959806D01*
X113847898Y-82068658D01*
X114132342Y-82068658D01*
X114337121Y-81983836D01*
X114337121Y-82769260D01*
X113092722Y-84013660D01*
X113062180Y-84013660D01*
X112872896Y-84092064D01*
X112728024Y-84236936D01*
X112649620Y-84426220D01*
X112649620Y-84631100D01*
X112728024Y-84820384D01*
X112731706Y-84824066D01*
X112681088Y-84874683D01*
X112602684Y-85063967D01*
X112602684Y-85093160D01*
X112554180Y-85093160D01*
X112364896Y-85171564D01*
X112220024Y-85316436D01*
X112141620Y-85505720D01*
X112141620Y-85664660D01*
X112046180Y-85664660D01*
X111856896Y-85743064D01*
X111712024Y-85887936D01*
X111633620Y-86077220D01*
X111633620Y-86282100D01*
X111644450Y-86308247D01*
X111475896Y-86378064D01*
X111331024Y-86522936D01*
X111252620Y-86712220D01*
X111252620Y-86917100D01*
X111331024Y-87106384D01*
X111475896Y-87251256D01*
X111665180Y-87329660D01*
X111870060Y-87329660D01*
X112059344Y-87251256D01*
X112085940Y-87224660D01*
X115725205Y-87224660D01*
X115765580Y-87232691D01*
X115805955Y-87224660D01*
X115805959Y-87224660D01*
X115925554Y-87200871D01*
X116061173Y-87110253D01*
X116084046Y-87076021D01*
X116208867Y-86951200D01*
X116246480Y-86951200D01*
X116435764Y-86872796D01*
X116580636Y-86727924D01*
X116659040Y-86538640D01*
X116659040Y-86333760D01*
X116593275Y-86174990D01*
X116727718Y-86085158D01*
X116750871Y-86050507D01*
X116831056Y-85970322D01*
X116937603Y-85899130D01*
X118253326Y-84583408D01*
X118290062Y-84558862D01*
X118317674Y-84517539D01*
X118353582Y-84463798D01*
X118387311Y-84413319D01*
X118412840Y-84284976D01*
X118412840Y-84284972D01*
X118421459Y-84241641D01*
X118412840Y-84198310D01*
X118412840Y-74245252D01*
X118421459Y-74201921D01*
X118412840Y-74158590D01*
X118412840Y-74158586D01*
X118387311Y-74030243D01*
X118341635Y-73961884D01*
X118314610Y-73921438D01*
X118314609Y-73921437D01*
X118290062Y-73884700D01*
X118253325Y-73860153D01*
X118141295Y-73748124D01*
X118162720Y-73696400D01*
X118162720Y-73491520D01*
X118084316Y-73302236D01*
X117939444Y-73157364D01*
X117750160Y-73078960D01*
X117545280Y-73078960D01*
X117355996Y-73157364D01*
X117211124Y-73302236D01*
X117132720Y-73491520D01*
X117132720Y-73696400D01*
X117201808Y-73863193D01*
X117199101Y-73876802D01*
X117207720Y-73920133D01*
X117207720Y-73920137D01*
X117233249Y-74048480D01*
X117330498Y-74194024D01*
X117367237Y-74218573D01*
X117532841Y-74384177D01*
X117532840Y-84059386D01*
X116843169Y-84749057D01*
X116882560Y-84653960D01*
X116882560Y-84449080D01*
X116804156Y-84259796D01*
X116782560Y-84238200D01*
X116782560Y-74115262D01*
X116790690Y-74074390D01*
X116758481Y-73912465D01*
X116689910Y-73809841D01*
X116689909Y-73809840D01*
X116666758Y-73775192D01*
X116632110Y-73752041D01*
X116478330Y-73598261D01*
X116478330Y-73567720D01*
X116399926Y-73378436D01*
X116255054Y-73233564D01*
X116065770Y-73155160D01*
X115860890Y-73155160D01*
X115671606Y-73233564D01*
X115649720Y-73255450D01*
X115649720Y-73119880D01*
X115671316Y-73098284D01*
X115749720Y-72909000D01*
X115749720Y-72704120D01*
X115671316Y-72514836D01*
X115526444Y-72369964D01*
X115337160Y-72291560D01*
X115149719Y-72291560D01*
X115149719Y-71934688D01*
X119515948Y-67568460D01*
X119553560Y-67568460D01*
X119742844Y-67490056D01*
X119887716Y-67345184D01*
X119966120Y-67155900D01*
X119966120Y-66951020D01*
X119887716Y-66761736D01*
X119742844Y-66616864D01*
X119553560Y-66538460D01*
X119348680Y-66538460D01*
X119159396Y-66616864D01*
X119014524Y-66761736D01*
X118936120Y-66951020D01*
X118936120Y-66988632D01*
X118442120Y-67482632D01*
X118442120Y-67459020D01*
X118363716Y-67269736D01*
X118218844Y-67124864D01*
X118029560Y-67046460D01*
X117824680Y-67046460D01*
X117635396Y-67124864D01*
X117490524Y-67269736D01*
X117412120Y-67459020D01*
X117412120Y-67496633D01*
X113728757Y-71179996D01*
X113694528Y-71202867D01*
X113671657Y-71237096D01*
X113671654Y-71237099D01*
X113603909Y-71338487D01*
X113572089Y-71498460D01*
X113580121Y-71538840D01*
X113580120Y-75917240D01*
X113553524Y-75943836D01*
X113475120Y-76133120D01*
X113475120Y-76338000D01*
X113493493Y-76382356D01*
X111706110Y-76421212D01*
X110020776Y-74735878D01*
X109996227Y-74699138D01*
X109850684Y-74601889D01*
X109722341Y-74576360D01*
X109722336Y-74576360D01*
X109679005Y-74567741D01*
X109676385Y-74568262D01*
X109518335Y-74410212D01*
X109255542Y-74301360D01*
X108971098Y-74301360D01*
X108708305Y-74410212D01*
X108507172Y-74611345D01*
X108434543Y-74786687D01*
X108410716Y-74762860D01*
X108410716Y-73145280D01*
X108432312Y-73123684D01*
X108510716Y-72934400D01*
X108510716Y-72729520D01*
X108432312Y-72540236D01*
X108287440Y-72395364D01*
X108098156Y-72316960D01*
X107893276Y-72316960D01*
X107703992Y-72395364D01*
X107585142Y-72514214D01*
X107543316Y-72413236D01*
X107398444Y-72268364D01*
X107209160Y-72189960D01*
X107004280Y-72189960D01*
X106814996Y-72268364D01*
X106670124Y-72413236D01*
X106591720Y-72602520D01*
X106591720Y-72807400D01*
X106670124Y-72996684D01*
X106696720Y-73023280D01*
X106696721Y-75194934D01*
X103686320Y-72184533D01*
X103686320Y-70514658D01*
X103825818Y-70375160D01*
X103856360Y-70375160D01*
X104045644Y-70296756D01*
X104190516Y-70151884D01*
X104268920Y-69962600D01*
X104268920Y-69757720D01*
X104190516Y-69568436D01*
X104045644Y-69423564D01*
X103856360Y-69345160D01*
X103651480Y-69345160D01*
X103462196Y-69423564D01*
X103317324Y-69568436D01*
X103238920Y-69757720D01*
X103238920Y-69788262D01*
X103006771Y-70020411D01*
X102972123Y-70043562D01*
X102948972Y-70078210D01*
X102948970Y-70078212D01*
X102880399Y-70180836D01*
X102848191Y-70342760D01*
X92453120Y-70342760D01*
X92453120Y-62230422D01*
X101983120Y-62230422D01*
X101983120Y-62709897D01*
X102050715Y-63049719D01*
X102308202Y-63435078D01*
X102693560Y-63692565D01*
X103148120Y-63782983D01*
X103602679Y-63692565D01*
X103988038Y-63435078D01*
X104245525Y-63049720D01*
X104313120Y-62709898D01*
X104313120Y-62230423D01*
X104313120Y-62230422D01*
X104483120Y-62230422D01*
X104483120Y-62709897D01*
X104550715Y-63049719D01*
X104808202Y-63435078D01*
X105193560Y-63692565D01*
X105648120Y-63782983D01*
X106102679Y-63692565D01*
X106488038Y-63435078D01*
X106745525Y-63049720D01*
X106813120Y-62709898D01*
X106813120Y-62230423D01*
X106813120Y-62230422D01*
X106983120Y-62230422D01*
X106983120Y-62709897D01*
X107050715Y-63049719D01*
X107308202Y-63435078D01*
X107693560Y-63692565D01*
X108148120Y-63782983D01*
X108602679Y-63692565D01*
X108988038Y-63435078D01*
X109245525Y-63049720D01*
X109313120Y-62709898D01*
X109313120Y-62230423D01*
X109245525Y-61890601D01*
X108988038Y-61505242D01*
X108602680Y-61247755D01*
X108148120Y-61157337D01*
X107693561Y-61247755D01*
X107308203Y-61505242D01*
X107050715Y-61890600D01*
X106983120Y-62230422D01*
X106813120Y-62230422D01*
X106745525Y-61890601D01*
X106488038Y-61505242D01*
X106102680Y-61247755D01*
X105648120Y-61157337D01*
X105193561Y-61247755D01*
X104808203Y-61505242D01*
X104550715Y-61890600D01*
X104483120Y-62230422D01*
X104313120Y-62230422D01*
X104245525Y-61890601D01*
X103988038Y-61505242D01*
X103602680Y-61247755D01*
X103148120Y-61157337D01*
X102693561Y-61247755D01*
X102308203Y-61505242D01*
X102050715Y-61890600D01*
X101983120Y-62230422D01*
X92453120Y-62230422D01*
X92453120Y-58877044D01*
X92518566Y-58379931D01*
X92707786Y-57923114D01*
X93008793Y-57530833D01*
X93401074Y-57229826D01*
X93857891Y-57040606D01*
X94355004Y-56975160D01*
X98348120Y-56975160D01*
X98361825Y-56974262D01*
X98879463Y-56906114D01*
X98905940Y-56899019D01*
X99388302Y-56699218D01*
X99412040Y-56685513D01*
X99826254Y-56367676D01*
X99845636Y-56348294D01*
X100163473Y-55934080D01*
X100177178Y-55910342D01*
X100376979Y-55427980D01*
X100384074Y-55401503D01*
X100452222Y-54883865D01*
X100453120Y-54870160D01*
X100453120Y-50877044D01*
X100518566Y-50379931D01*
X100707786Y-49923114D01*
X101008793Y-49530833D01*
X101401074Y-49229826D01*
X101857891Y-49040606D01*
X102355004Y-48975160D01*
X111341236Y-48975160D01*
X111838349Y-49040606D01*
X111838349Y-49040606D01*
G37*
X111838349Y-49040606D02*
X112295166Y-49229826D01*
X112687447Y-49530833D01*
X112988454Y-49923114D01*
X113177674Y-50379931D01*
X113243120Y-50877044D01*
X113243120Y-54870160D01*
X113244018Y-54883865D01*
X113312166Y-55401503D01*
X113319261Y-55427980D01*
X113519062Y-55910342D01*
X113532767Y-55934080D01*
X113850604Y-56348294D01*
X113869986Y-56367676D01*
X114284200Y-56685513D01*
X114307938Y-56699218D01*
X114790300Y-56899019D01*
X114816777Y-56906114D01*
X115334415Y-56974262D01*
X115348120Y-56975160D01*
X119341236Y-56975160D01*
X119838349Y-57040606D01*
X120295166Y-57229826D01*
X120687447Y-57530833D01*
X120988454Y-57923114D01*
X121177674Y-58379931D01*
X121243120Y-58877044D01*
X121243120Y-107863276D01*
X121177674Y-108360389D01*
X120988454Y-108817206D01*
X120687447Y-109209487D01*
X120295166Y-109510494D01*
X119838349Y-109699714D01*
X119341236Y-109765160D01*
X115348120Y-109765160D01*
X115334415Y-109766058D01*
X114816777Y-109834206D01*
X114790300Y-109841301D01*
X114307938Y-110041102D01*
X114284200Y-110054807D01*
X113869986Y-110372644D01*
X113850604Y-110392026D01*
X113532767Y-110806240D01*
X113519062Y-110829978D01*
X113319261Y-111312340D01*
X113312166Y-111338817D01*
X113244018Y-111856455D01*
X113243120Y-111870160D01*
X113243120Y-115863276D01*
X113177674Y-116360389D01*
X112988454Y-116817206D01*
X112687447Y-117209487D01*
X112295166Y-117510494D01*
X111838349Y-117699714D01*
X111341236Y-117765160D01*
X102355004Y-117765160D01*
X101857891Y-117699714D01*
X101401074Y-117510494D01*
X101008793Y-117209487D01*
X100707786Y-116817206D01*
X100518566Y-116360389D01*
X100453120Y-115863276D01*
X100453120Y-111870160D01*
X100452222Y-111856455D01*
X100384074Y-111338817D01*
X100376979Y-111312340D01*
X100177178Y-110829978D01*
X100163473Y-110806240D01*
X99845636Y-110392026D01*
X99826254Y-110372644D01*
X99412040Y-110054807D01*
X99388302Y-110041102D01*
X98905940Y-109841301D01*
X98879463Y-109834206D01*
X98361825Y-109766058D01*
X98348120Y-109765160D01*
X94355004Y-109765160D01*
X93857891Y-109699714D01*
X93401074Y-109510494D01*
X93008793Y-109209487D01*
X92707786Y-108817206D01*
X92518566Y-108360389D01*
X92453120Y-107863276D01*
X92453120Y-106834904D01*
X92473197Y-106830910D01*
X92586959Y-106808281D01*
X92715963Y-106722084D01*
X92802160Y-106593080D01*
X92832429Y-106440910D01*
X92824789Y-106402502D01*
X92824789Y-99004318D01*
X92832429Y-98965910D01*
X92802160Y-98813740D01*
X92715963Y-98684736D01*
X92586959Y-98598539D01*
X92473197Y-98575910D01*
X92453120Y-98571916D01*
X92453120Y-82482322D01*
X94167080Y-82482322D01*
X94167080Y-82965678D01*
X94243120Y-83149255D01*
X94243120Y-84798745D01*
X94167080Y-84982322D01*
X94167080Y-85465678D01*
X94243120Y-85649255D01*
X94243120Y-87298745D01*
X94167080Y-87482322D01*
X94167080Y-87965678D01*
X94352053Y-88412242D01*
X94693838Y-88754027D01*
X95140402Y-88939000D01*
X95623758Y-88939000D01*
X96070322Y-88754027D01*
X96412107Y-88412242D01*
X96551731Y-88075160D01*
X97103621Y-88075160D01*
X97103620Y-99053142D01*
X96188639Y-99968123D01*
X96154407Y-99990996D01*
X96063789Y-100126616D01*
X96040000Y-100246211D01*
X96040000Y-100246214D01*
X96031969Y-100286589D01*
X96040000Y-100326964D01*
X96040001Y-105325020D01*
X96031969Y-105365400D01*
X96063789Y-105525373D01*
X96131534Y-105626761D01*
X96131537Y-105626764D01*
X96154408Y-105660993D01*
X96188637Y-105683864D01*
X97865090Y-107360318D01*
X97866660Y-107368209D01*
X97939360Y-107477013D01*
X99480229Y-109017882D01*
X99504778Y-109054622D01*
X99611915Y-109126209D01*
X99650319Y-109151870D01*
X99650320Y-109151870D01*
X99650321Y-109151871D01*
X99778664Y-109177400D01*
X99778668Y-109177400D01*
X99821999Y-109186019D01*
X99865330Y-109177400D01*
X112202934Y-109177400D01*
X112384000Y-109252400D01*
X112588880Y-109252400D01*
X112778164Y-109173996D01*
X112923036Y-109029124D01*
X113001440Y-108839840D01*
X113001440Y-108634960D01*
X112923036Y-108445676D01*
X112778164Y-108300804D01*
X112588880Y-108222400D01*
X112384000Y-108222400D01*
X112202934Y-108297400D01*
X100004253Y-108297400D01*
X98561613Y-106854760D01*
X98452809Y-106782060D01*
X98444918Y-106780490D01*
X96860000Y-105195573D01*
X96860000Y-100456416D01*
X97707406Y-99609010D01*
X97715298Y-99607440D01*
X97860842Y-99510191D01*
X97958091Y-99364648D01*
X97983620Y-99236305D01*
X97983620Y-84068920D01*
X98418341Y-84068920D01*
X98426961Y-84112256D01*
X98426960Y-98777909D01*
X98418341Y-98821240D01*
X98426960Y-98864571D01*
X98426960Y-98864575D01*
X98452489Y-98992918D01*
X98549738Y-99138462D01*
X98586478Y-99163011D01*
X99585201Y-100161735D01*
X99585200Y-106932489D01*
X99576581Y-106975820D01*
X99585200Y-107019151D01*
X99585200Y-107019155D01*
X99610729Y-107147498D01*
X99707978Y-107293042D01*
X99744718Y-107317591D01*
X100139451Y-107712325D01*
X100163998Y-107749062D01*
X100200735Y-107773609D01*
X100200736Y-107773610D01*
X100259062Y-107812582D01*
X100309541Y-107846311D01*
X100437884Y-107871840D01*
X100437889Y-107871840D01*
X100481220Y-107880459D01*
X100524551Y-107871840D01*
X111832094Y-107871840D01*
X112013160Y-107946840D01*
X112218040Y-107946840D01*
X112407324Y-107868436D01*
X112552196Y-107723564D01*
X112630600Y-107534280D01*
X112630600Y-107329400D01*
X112552196Y-107140116D01*
X112407324Y-106995244D01*
X112218040Y-106916840D01*
X112013160Y-106916840D01*
X111832094Y-106991840D01*
X101208760Y-106991840D01*
X101282216Y-106918384D01*
X101360620Y-106729100D01*
X101360620Y-106621915D01*
X101634105Y-106348431D01*
X101670842Y-106323884D01*
X101730781Y-106234179D01*
X101768090Y-106178343D01*
X101768090Y-106178342D01*
X101768091Y-106178341D01*
X101793620Y-106049998D01*
X101793620Y-106049994D01*
X101802239Y-106006663D01*
X101793620Y-105963332D01*
X101793620Y-103735166D01*
X101868620Y-103554100D01*
X101868620Y-103349220D01*
X101790216Y-103159936D01*
X101645344Y-103015064D01*
X101456060Y-102936660D01*
X101251180Y-102936660D01*
X101061896Y-103015064D01*
X101031620Y-103045340D01*
X101031620Y-101298518D01*
X101187680Y-101363160D01*
X101392560Y-101363160D01*
X101441916Y-101342716D01*
X101525300Y-101326130D01*
X101670842Y-101228882D01*
X101768090Y-101083340D01*
X101782834Y-101009218D01*
X102158721Y-101385105D01*
X102158720Y-104236054D01*
X102083720Y-104417120D01*
X102083720Y-104622000D01*
X102162124Y-104811284D01*
X102306996Y-104956156D01*
X102496280Y-105034560D01*
X102701160Y-105034560D01*
X102890444Y-104956156D01*
X103035316Y-104811284D01*
X103113720Y-104622000D01*
X103113720Y-104417120D01*
X103038720Y-104236054D01*
X103038720Y-101274018D01*
X103039434Y-101242590D01*
X103047339Y-101202850D01*
X103041055Y-101171260D01*
X103101973Y-98490886D01*
X103095115Y-98451105D01*
X103073336Y-98416405D01*
X103039936Y-98392680D01*
X102999999Y-98383543D01*
X102720847Y-98375567D01*
X102597844Y-98252564D01*
X102408560Y-98174160D01*
X102378019Y-98174160D01*
X101260620Y-97056762D01*
X101260620Y-87532017D01*
X101255620Y-87506880D01*
X101255620Y-87195935D01*
X101735948Y-86715608D01*
X101773560Y-86715608D01*
X101962844Y-86637204D01*
X102107716Y-86492332D01*
X102186120Y-86303048D01*
X102186120Y-86098168D01*
X102128833Y-85959864D01*
X104188646Y-85959864D01*
X104188646Y-86164744D01*
X104267050Y-86354028D01*
X104411922Y-86498900D01*
X104601206Y-86577304D01*
X104638819Y-86577304D01*
X104679181Y-86617666D01*
X104702054Y-86651898D01*
X104837673Y-86742516D01*
X104957268Y-86766305D01*
X104957272Y-86766305D01*
X104997647Y-86774336D01*
X105038022Y-86766305D01*
X106206399Y-86766305D01*
X106246774Y-86774336D01*
X106287149Y-86766305D01*
X106287153Y-86766305D01*
X106406748Y-86742516D01*
X106542367Y-86651898D01*
X106565240Y-86617666D01*
X109869668Y-83313239D01*
X109903898Y-83290367D01*
X109926769Y-83256138D01*
X109926771Y-83256136D01*
X109994516Y-83154748D01*
X110004919Y-83102448D01*
X110018305Y-83035152D01*
X110018305Y-83035150D01*
X110026336Y-82994774D01*
X110022002Y-82972985D01*
X110148427Y-82846560D01*
X110287640Y-82846560D01*
X110476924Y-82768156D01*
X110621796Y-82623284D01*
X110700200Y-82434000D01*
X110700200Y-82229120D01*
X110621796Y-82039836D01*
X110476924Y-81894964D01*
X110287640Y-81816560D01*
X110082760Y-81816560D01*
X109893476Y-81894964D01*
X109748604Y-82039836D01*
X109715446Y-82119887D01*
X109346944Y-82488389D01*
X109312712Y-82511262D01*
X109222094Y-82646882D01*
X109198305Y-82766477D01*
X109198305Y-82766480D01*
X109190274Y-82806855D01*
X109194608Y-82828643D01*
X106076947Y-85946305D01*
X105213030Y-85946305D01*
X105140242Y-85770580D01*
X104995370Y-85625708D01*
X104806086Y-85547304D01*
X104601206Y-85547304D01*
X104411922Y-85625708D01*
X104267050Y-85770580D01*
X104188646Y-85959864D01*
X102128833Y-85959864D01*
X102107716Y-85908884D01*
X101962844Y-85764012D01*
X101773560Y-85685608D01*
X101568680Y-85685608D01*
X101379396Y-85764012D01*
X101309573Y-85833835D01*
X101360619Y-85710599D01*
X101360619Y-85505719D01*
X101319672Y-85406864D01*
X101412376Y-85314160D01*
X101490780Y-85124876D01*
X101490780Y-84919996D01*
X101412376Y-84730712D01*
X101267504Y-84585840D01*
X101078220Y-84507436D01*
X100873340Y-84507436D01*
X100684056Y-84585840D01*
X100657460Y-84612436D01*
X100596709Y-84612436D01*
X100594761Y-84604775D01*
X100570241Y-84571954D01*
X99736524Y-83821609D01*
X104413218Y-79144916D01*
X104594284Y-79069916D01*
X104739156Y-78925044D01*
X104817560Y-78735760D01*
X104817560Y-78530880D01*
X104739156Y-78341596D01*
X104594284Y-78196724D01*
X104405000Y-78118320D01*
X104200120Y-78118320D01*
X104010836Y-78196724D01*
X103865964Y-78341596D01*
X103790964Y-78522662D01*
X98586476Y-83727151D01*
X98549739Y-83751698D01*
X98525192Y-83788435D01*
X98525190Y-83788437D01*
X98452490Y-83897241D01*
X98418341Y-84068920D01*
X97983620Y-84068920D01*
X97983620Y-83395193D01*
X102716498Y-78662316D01*
X102897564Y-78587316D01*
X103042436Y-78442444D01*
X103120840Y-78253160D01*
X103120840Y-78048280D01*
X103042436Y-77858996D01*
X102897564Y-77714124D01*
X102708280Y-77635720D01*
X102503400Y-77635720D01*
X102365935Y-77692660D01*
X100808540Y-77692660D01*
X100807144Y-77691264D01*
X100617860Y-77612860D01*
X100412980Y-77612860D01*
X100231914Y-77687860D01*
X100021551Y-77687860D01*
X99978220Y-77679241D01*
X99934889Y-77687860D01*
X99934884Y-77687860D01*
X99806541Y-77713389D01*
X99806539Y-77713390D01*
X99806540Y-77713390D01*
X99697736Y-77786090D01*
X99697735Y-77786091D01*
X99660998Y-77810638D01*
X99636451Y-77847375D01*
X95968667Y-81515160D01*
X95638630Y-81515160D01*
X95623758Y-81509000D01*
X95140402Y-81509000D01*
X95125530Y-81515160D01*
X94348120Y-81515160D01*
X94307938Y-81523153D01*
X94273874Y-81545914D01*
X94251113Y-81579978D01*
X94243120Y-81620160D01*
X94243120Y-82298745D01*
X94167080Y-82482322D01*
X92453120Y-82482322D01*
X92453120Y-76824000D01*
X94160909Y-76824000D01*
X94160909Y-78624000D01*
X94185357Y-78746907D01*
X94254978Y-78851102D01*
X94359173Y-78920723D01*
X94482080Y-78945171D01*
X96282080Y-78945171D01*
X96404987Y-78920723D01*
X96509182Y-78851102D01*
X96578803Y-78746907D01*
X96603251Y-78624000D01*
X96603251Y-76824000D01*
X96578803Y-76701093D01*
X96509182Y-76596898D01*
X96404987Y-76527277D01*
X96282080Y-76502829D01*
X94482080Y-76502829D01*
X94359173Y-76527277D01*
X94254978Y-76596898D01*
X94185357Y-76701093D01*
X94160909Y-76824000D01*
X92453120Y-76824000D01*
X92453120Y-70342760D01*
X102848191Y-70342760D01*
X102856321Y-70383633D01*
X102856320Y-72334122D01*
X102853289Y-72349360D01*
X102856320Y-72364598D01*
X102856320Y-72390231D01*
X102880399Y-72511284D01*
X102972122Y-72648558D01*
X103028083Y-72685950D01*
X108445920Y-78103787D01*
X108445920Y-78141400D01*
X108524324Y-78330684D01*
X108669196Y-78475556D01*
X108858480Y-78553960D01*
X108979610Y-78553960D01*
X108979610Y-78700200D01*
X109058014Y-78889484D01*
X109202886Y-79034356D01*
X109392170Y-79112760D01*
X109597050Y-79112760D01*
X109786334Y-79034356D01*
X109931206Y-78889484D01*
X110009610Y-78700200D01*
X110009610Y-78495320D01*
X109931206Y-78306036D01*
X109904610Y-78279440D01*
X109904610Y-77901823D01*
X109912641Y-77861449D01*
X109904610Y-77821075D01*
X109904610Y-77821071D01*
X109880821Y-77701476D01*
X109790203Y-77565857D01*
X109755971Y-77542984D01*
X107565487Y-75352500D01*
X107826560Y-75352500D01*
X109538120Y-77064061D01*
X109538120Y-77138112D01*
X109616524Y-77327396D01*
X109761396Y-77472268D01*
X109950680Y-77550672D01*
X110155560Y-77550672D01*
X110344844Y-77472268D01*
X110436326Y-77380786D01*
X111371935Y-77331544D01*
X112513774Y-78473383D01*
X112538321Y-78510120D01*
X112575058Y-78534667D01*
X112575059Y-78534668D01*
X112586528Y-78542331D01*
X112683864Y-78607369D01*
X112691971Y-78608981D01*
X112649622Y-78711220D01*
X112649622Y-78916100D01*
X112728026Y-79105384D01*
X112749622Y-79126980D01*
X112749622Y-79137373D01*
X112749623Y-79137378D01*
X112749622Y-81334159D01*
X112499370Y-81584412D01*
X112485133Y-81605719D01*
X110804556Y-83286297D01*
X110770327Y-83309168D01*
X110747456Y-83343397D01*
X110747453Y-83343400D01*
X110679708Y-83444788D01*
X110677238Y-83457207D01*
X110655919Y-83564382D01*
X110655919Y-83564386D01*
X110647888Y-83604761D01*
X110655919Y-83645136D01*
X110655919Y-83766113D01*
X110574196Y-83799964D01*
X110429324Y-83944836D01*
X110350920Y-84134120D01*
X110350920Y-84339000D01*
X110429324Y-84528284D01*
X110574196Y-84673156D01*
X110763480Y-84751560D01*
X110968360Y-84751560D01*
X111157644Y-84673156D01*
X111302516Y-84528284D01*
X111380920Y-84339000D01*
X111380920Y-84303108D01*
X111452130Y-84196535D01*
X111475919Y-84076940D01*
X111475919Y-84076936D01*
X111483950Y-84036562D01*
X111475919Y-83996188D01*
X111475919Y-83774588D01*
X113064961Y-82185547D01*
X113086268Y-82171310D01*
X113429172Y-81828407D01*
X113443879Y-81818580D01*
X113585105Y-81959806D01*
X113847898Y-82068658D01*
X114132342Y-82068658D01*
X114337121Y-81983836D01*
X114337121Y-82769260D01*
X113092722Y-84013660D01*
X113062180Y-84013660D01*
X112872896Y-84092064D01*
X112728024Y-84236936D01*
X112649620Y-84426220D01*
X112649620Y-84631100D01*
X112728024Y-84820384D01*
X112731706Y-84824066D01*
X112681088Y-84874683D01*
X112602684Y-85063967D01*
X112602684Y-85093160D01*
X112554180Y-85093160D01*
X112364896Y-85171564D01*
X112220024Y-85316436D01*
X112141620Y-85505720D01*
X112141620Y-85664660D01*
X112046180Y-85664660D01*
X111856896Y-85743064D01*
X111712024Y-85887936D01*
X111633620Y-86077220D01*
X111633620Y-86282100D01*
X111644450Y-86308247D01*
X111475896Y-86378064D01*
X111331024Y-86522936D01*
X111252620Y-86712220D01*
X111252620Y-86917100D01*
X111331024Y-87106384D01*
X111475896Y-87251256D01*
X111665180Y-87329660D01*
X111870060Y-87329660D01*
X112059344Y-87251256D01*
X112085940Y-87224660D01*
X115725205Y-87224660D01*
X115765580Y-87232691D01*
X115805955Y-87224660D01*
X115805959Y-87224660D01*
X115925554Y-87200871D01*
X116061173Y-87110253D01*
X116084046Y-87076021D01*
X116208867Y-86951200D01*
X116246480Y-86951200D01*
X116435764Y-86872796D01*
X116580636Y-86727924D01*
X116659040Y-86538640D01*
X116659040Y-86333760D01*
X116593275Y-86174990D01*
X116727718Y-86085158D01*
X116750871Y-86050507D01*
X116831056Y-85970322D01*
X116937603Y-85899130D01*
X118253326Y-84583408D01*
X118290062Y-84558862D01*
X118317674Y-84517539D01*
X118353582Y-84463798D01*
X118387311Y-84413319D01*
X118412840Y-84284976D01*
X118412840Y-84284972D01*
X118421459Y-84241641D01*
X118412840Y-84198310D01*
X118412840Y-74245252D01*
X118421459Y-74201921D01*
X118412840Y-74158590D01*
X118412840Y-74158586D01*
X118387311Y-74030243D01*
X118341635Y-73961884D01*
X118314610Y-73921438D01*
X118314609Y-73921437D01*
X118290062Y-73884700D01*
X118253325Y-73860153D01*
X118141295Y-73748124D01*
X118162720Y-73696400D01*
X118162720Y-73491520D01*
X118084316Y-73302236D01*
X117939444Y-73157364D01*
X117750160Y-73078960D01*
X117545280Y-73078960D01*
X117355996Y-73157364D01*
X117211124Y-73302236D01*
X117132720Y-73491520D01*
X117132720Y-73696400D01*
X117201808Y-73863193D01*
X117199101Y-73876802D01*
X117207720Y-73920133D01*
X117207720Y-73920137D01*
X117233249Y-74048480D01*
X117330498Y-74194024D01*
X117367237Y-74218573D01*
X117532841Y-74384177D01*
X117532840Y-84059386D01*
X116843169Y-84749057D01*
X116882560Y-84653960D01*
X116882560Y-84449080D01*
X116804156Y-84259796D01*
X116782560Y-84238200D01*
X116782560Y-74115262D01*
X116790690Y-74074390D01*
X116758481Y-73912465D01*
X116689910Y-73809841D01*
X116689909Y-73809840D01*
X116666758Y-73775192D01*
X116632110Y-73752041D01*
X116478330Y-73598261D01*
X116478330Y-73567720D01*
X116399926Y-73378436D01*
X116255054Y-73233564D01*
X116065770Y-73155160D01*
X115860890Y-73155160D01*
X115671606Y-73233564D01*
X115649720Y-73255450D01*
X115649720Y-73119880D01*
X115671316Y-73098284D01*
X115749720Y-72909000D01*
X115749720Y-72704120D01*
X115671316Y-72514836D01*
X115526444Y-72369964D01*
X115337160Y-72291560D01*
X115149719Y-72291560D01*
X115149719Y-71934688D01*
X119515948Y-67568460D01*
X119553560Y-67568460D01*
X119742844Y-67490056D01*
X119887716Y-67345184D01*
X119966120Y-67155900D01*
X119966120Y-66951020D01*
X119887716Y-66761736D01*
X119742844Y-66616864D01*
X119553560Y-66538460D01*
X119348680Y-66538460D01*
X119159396Y-66616864D01*
X119014524Y-66761736D01*
X118936120Y-66951020D01*
X118936120Y-66988632D01*
X118442120Y-67482632D01*
X118442120Y-67459020D01*
X118363716Y-67269736D01*
X118218844Y-67124864D01*
X118029560Y-67046460D01*
X117824680Y-67046460D01*
X117635396Y-67124864D01*
X117490524Y-67269736D01*
X117412120Y-67459020D01*
X117412120Y-67496633D01*
X113728757Y-71179996D01*
X113694528Y-71202867D01*
X113671657Y-71237096D01*
X113671654Y-71237099D01*
X113603909Y-71338487D01*
X113572089Y-71498460D01*
X113580121Y-71538840D01*
X113580120Y-75917240D01*
X113553524Y-75943836D01*
X113475120Y-76133120D01*
X113475120Y-76338000D01*
X113493493Y-76382356D01*
X111706110Y-76421212D01*
X110020776Y-74735878D01*
X109996227Y-74699138D01*
X109850684Y-74601889D01*
X109722341Y-74576360D01*
X109722336Y-74576360D01*
X109679005Y-74567741D01*
X109676385Y-74568262D01*
X109518335Y-74410212D01*
X109255542Y-74301360D01*
X108971098Y-74301360D01*
X108708305Y-74410212D01*
X108507172Y-74611345D01*
X108434543Y-74786687D01*
X108410716Y-74762860D01*
X108410716Y-73145280D01*
X108432312Y-73123684D01*
X108510716Y-72934400D01*
X108510716Y-72729520D01*
X108432312Y-72540236D01*
X108287440Y-72395364D01*
X108098156Y-72316960D01*
X107893276Y-72316960D01*
X107703992Y-72395364D01*
X107585142Y-72514214D01*
X107543316Y-72413236D01*
X107398444Y-72268364D01*
X107209160Y-72189960D01*
X107004280Y-72189960D01*
X106814996Y-72268364D01*
X106670124Y-72413236D01*
X106591720Y-72602520D01*
X106591720Y-72807400D01*
X106670124Y-72996684D01*
X106696720Y-73023280D01*
X106696721Y-75194934D01*
X103686320Y-72184533D01*
X103686320Y-70514658D01*
X103825818Y-70375160D01*
X103856360Y-70375160D01*
X104045644Y-70296756D01*
X104190516Y-70151884D01*
X104268920Y-69962600D01*
X104268920Y-69757720D01*
X104190516Y-69568436D01*
X104045644Y-69423564D01*
X103856360Y-69345160D01*
X103651480Y-69345160D01*
X103462196Y-69423564D01*
X103317324Y-69568436D01*
X103238920Y-69757720D01*
X103238920Y-69788262D01*
X103006771Y-70020411D01*
X102972123Y-70043562D01*
X102948972Y-70078210D01*
X102948970Y-70078212D01*
X102880399Y-70180836D01*
X102848191Y-70342760D01*
X92453120Y-70342760D01*
X92453120Y-62230422D01*
X101983120Y-62230422D01*
X101983120Y-62709897D01*
X102050715Y-63049719D01*
X102308202Y-63435078D01*
X102693560Y-63692565D01*
X103148120Y-63782983D01*
X103602679Y-63692565D01*
X103988038Y-63435078D01*
X104245525Y-63049720D01*
X104313120Y-62709898D01*
X104313120Y-62230423D01*
X104313120Y-62230422D01*
X104483120Y-62230422D01*
X104483120Y-62709897D01*
X104550715Y-63049719D01*
X104808202Y-63435078D01*
X105193560Y-63692565D01*
X105648120Y-63782983D01*
X106102679Y-63692565D01*
X106488038Y-63435078D01*
X106745525Y-63049720D01*
X106813120Y-62709898D01*
X106813120Y-62230423D01*
X106813120Y-62230422D01*
X106983120Y-62230422D01*
X106983120Y-62709897D01*
X107050715Y-63049719D01*
X107308202Y-63435078D01*
X107693560Y-63692565D01*
X108148120Y-63782983D01*
X108602679Y-63692565D01*
X108988038Y-63435078D01*
X109245525Y-63049720D01*
X109313120Y-62709898D01*
X109313120Y-62230423D01*
X109245525Y-61890601D01*
X108988038Y-61505242D01*
X108602680Y-61247755D01*
X108148120Y-61157337D01*
X107693561Y-61247755D01*
X107308203Y-61505242D01*
X107050715Y-61890600D01*
X106983120Y-62230422D01*
X106813120Y-62230422D01*
X106745525Y-61890601D01*
X106488038Y-61505242D01*
X106102680Y-61247755D01*
X105648120Y-61157337D01*
X105193561Y-61247755D01*
X104808203Y-61505242D01*
X104550715Y-61890600D01*
X104483120Y-62230422D01*
X104313120Y-62230422D01*
X104245525Y-61890601D01*
X103988038Y-61505242D01*
X103602680Y-61247755D01*
X103148120Y-61157337D01*
X102693561Y-61247755D01*
X102308203Y-61505242D01*
X102050715Y-61890600D01*
X101983120Y-62230422D01*
X92453120Y-62230422D01*
X92453120Y-58877044D01*
X92518566Y-58379931D01*
X92707786Y-57923114D01*
X93008793Y-57530833D01*
X93401074Y-57229826D01*
X93857891Y-57040606D01*
X94355004Y-56975160D01*
X98348120Y-56975160D01*
X98361825Y-56974262D01*
X98879463Y-56906114D01*
X98905940Y-56899019D01*
X99388302Y-56699218D01*
X99412040Y-56685513D01*
X99826254Y-56367676D01*
X99845636Y-56348294D01*
X100163473Y-55934080D01*
X100177178Y-55910342D01*
X100376979Y-55427980D01*
X100384074Y-55401503D01*
X100452222Y-54883865D01*
X100453120Y-54870160D01*
X100453120Y-50877044D01*
X100518566Y-50379931D01*
X100707786Y-49923114D01*
X101008793Y-49530833D01*
X101401074Y-49229826D01*
X101857891Y-49040606D01*
X102355004Y-48975160D01*
X111341236Y-48975160D01*
X111838349Y-49040606D01*
G04 #@! TD*
M02*
