<?xml version="1.0" standalone="no"?>
 <!DOCTYPE svg PUBLIC "-//W3C//DTD SVG 1.1//EN" 
 "http://www.w3.org/Graphics/SVG/1.1/DTD/svg11.dtd"> 
<svg xmlns="http://www.w3.org/2000/svg" version="1.1" 
    width="29.7002cm" height="21.0007cm" viewBox="0 0 116930 82680 ">
<title>SVG Picture created as High_range_accelerometer-Edge.Cuts.svg date 2019/10/12 16:16:47 </title>
  <desc>Picture generated by PCBNEW </desc>
<g style="fill:#000000; fill-opacity:1;stroke:#000000; stroke-opacity:1;
stroke-linecap:round; stroke-linejoin:round; "
 transform="translate(0 0) scale(1 1)">
</g>
<g style="fill:#000000; fill-opacity:0.0; 
stroke:#000000; stroke-width:-0.000393701; stroke-opacity:1; 
stroke-linecap:round; stroke-linejoin:round;">
</g>
<g style="fill:#000000; fill-opacity:0.0; 
stroke:#000000; stroke-width:59.0551; stroke-opacity:1; 
stroke-linecap:round; stroke-linejoin:round;">
<path d="M47971 44633
L47971 21011
" />
<path d="M36160 21011
L36160 38964
" />
<path d="M36160 44633
L36160 41917
" />
<path d="M36391 38962
L36391 41905
" />
<path d="M36391 41905
L36165 41905
" />
<path d="M36165 38962
L36391 38962
" />
<path d="M36161.4 44626 A1968.5 1968.5 0.0 0 0 38129.9 46594.5 " />
<path d="M46003 46594
L38129 46594
" />
<path d="M38129.9 19035.4 A1968.5 1968.5 0.0 0 0 36161.4 21003.9 " />
<path d="M46003 19035
L38129 19035
" />
<path d="M47972.4 21003.9 A1968.5 1968.5 0.0 0 0 46003.9 19035.4 " />
<path d="M46003.9 46594.5 A1968.5 1968.5 0.0 0 0 47972.4 44626 " />
</g> 
</svg>
