<?xml version="1.0" standalone="no"?>
 <!DOCTYPE svg PUBLIC "-//W3C//DTD SVG 1.1//EN" 
 "http://www.w3.org/Graphics/SVG/1.1/DTD/svg11.dtd"> 
<svg xmlns="http://www.w3.org/2000/svg" version="1.1" 
    width="29.7002cm" height="21.0007cm" viewBox="0 0 116930 82680 ">
<title>SVG Picture created as High_range_accelerometer-F.Paste.svg date 2019/10/12 12:30:53 </title>
  <desc>Picture generated by PCBNEW </desc>
<g style="fill:#000000; fill-opacity:1;stroke:#000000; stroke-opacity:1;
stroke-linecap:round; stroke-linejoin:round; "
 transform="translate(0 0) scale(1 1)">
</g>
<g style="fill:#000000; fill-opacity:0.0; 
stroke:#000000; stroke-width:-0.000393701; stroke-opacity:1; 
stroke-linecap:round; stroke-linejoin:round;">
</g>
<g style="fill:#000000; fill-opacity:0.0; 
stroke:#000000; stroke-width:0; stroke-opacity:1; 
stroke-linecap:round; stroke-linejoin:round;">
</g>
<g style="fill:#000000; fill-opacity:1.0; 
stroke:#000000; stroke-width:0; stroke-opacity:1; 
stroke-linecap:round; stroke-linejoin:round;">
<polyline style="fill-rule:evenodd;"
points="46416,27674
46425,27676
46434,27678
46443,27681
46452,27685
46460,27690
46467,27695
46474,27702
46481,27709
46486,27716
46491,27724
46495,27733
46498,27742
46501,27751
46502,27760
46502,27770
46502,27962
46502,27971
46501,27980
46498,27989
46495,27998
46491,28007
46486,28015
46481,28022
46474,28029
46467,28036
46460,28041
46452,28046
46443,28050
46434,28053
46425,28056
46416,28057
46406,28058
46047,28058
46038,28057
46028,28056
46019,28053
46010,28050
46002,28046
45994,28041
45986,28036
45979,28029
45973,28022
45967,28015
45963,28007
45959,27998
45955,27989
45953,27980
45952,27971
45951,27962
45951,27770
45952,27760
45953,27751
45955,27742
45959,27733
45963,27724
45967,27716
45973,27709
45979,27702
45986,27695
45994,27690
46002,27685
46010,27681
46019,27678
46028,27676
46038,27674
46047,27674
46406,27674
46416,27674
" /> 
<polyline style="fill-rule:evenodd;"
points="46416,26936
46425,26937
46434,26940
46443,26943
46452,26947
46460,26952
46467,26957
46474,26964
46481,26971
46486,26978
46491,26986
46495,26995
46498,27004
46501,27013
46502,27022
46502,27031
46502,27223
46502,27233
46501,27242
46498,27251
46495,27260
46491,27269
46486,27277
46481,27284
46474,27291
46467,27298
46460,27303
46452,27308
46443,27312
46434,27315
46425,27317
46416,27319
46406,27319
46047,27319
46038,27319
46028,27317
46019,27315
46010,27312
46002,27308
45994,27303
45986,27298
45979,27291
45973,27284
45967,27277
45963,27269
45959,27260
45955,27251
45953,27242
45952,27233
45951,27223
45951,27031
45952,27022
45953,27013
45955,27004
45959,26995
45963,26986
45967,26978
45973,26971
45979,26964
45986,26957
45994,26952
46002,26947
46010,26943
46019,26940
46028,26937
46038,26936
46047,26935
46406,26935
46416,26936
" /> 
<polyline style="fill-rule:evenodd;"
points="47443,24287
47452,24289
47460,24291
47468,24293
47476,24297
47483,24301
47490,24306
47496,24312
47502,24318
47507,24325
47511,24332
47515,24340
47517,24348
47519,24356
47521,24365
47521,24373
47521,24575
47521,24583
47519,24592
47517,24600
47515,24608
47511,24615
47507,24623
47502,24629
47496,24636
47490,24641
47483,24646
47476,24651
47468,24654
47460,24657
47452,24659
47443,24660
47435,24661
47263,24661
47254,24660
47246,24659
47238,24657
47230,24654
47222,24651
47215,24646
47208,24641
47202,24636
47196,24629
47191,24623
47187,24615
47183,24608
47180,24600
47178,24592
47177,24583
47177,24575
47177,24373
47177,24365
47178,24356
47180,24348
47183,24340
47187,24332
47191,24325
47196,24318
47202,24312
47208,24306
47215,24301
47222,24297
47230,24293
47238,24291
47246,24289
47254,24287
47263,24287
47435,24287
47443,24287
" /> 
<polyline style="fill-rule:evenodd;"
points="46823,24287
46832,24289
46840,24291
46848,24293
46855,24297
46863,24301
46870,24306
46876,24312
46881,24318
46886,24325
46891,24332
46894,24340
46897,24348
46899,24356
46901,24365
46901,24373
46901,24575
46901,24583
46899,24592
46897,24600
46894,24608
46891,24615
46886,24623
46881,24629
46876,24636
46870,24641
46863,24646
46855,24651
46848,24654
46840,24657
46832,24659
46823,24660
46815,24661
46643,24661
46634,24660
46626,24659
46618,24657
46610,24654
46602,24651
46595,24646
46588,24641
46582,24636
46576,24629
46571,24623
46567,24615
46563,24608
46560,24600
46558,24592
46557,24583
46557,24575
46557,24373
46557,24365
46558,24356
46560,24348
46563,24340
46567,24332
46571,24325
46576,24318
46582,24312
46588,24306
46595,24301
46602,24297
46610,24293
46618,24291
46626,24289
46634,24287
46643,24287
46815,24287
46823,24287
" /> 
<polyline style="fill-rule:evenodd;"
points="46823,25039
46832,25041
46840,25043
46848,25045
46855,25049
46863,25053
46870,25058
46876,25064
46881,25070
46886,25077
46891,25084
46894,25092
46897,25100
46899,25108
46901,25117
46901,25125
46901,25327
46901,25335
46899,25344
46897,25352
46894,25360
46891,25367
46886,25375
46881,25381
46876,25388
46870,25393
46863,25398
46855,25403
46848,25406
46840,25409
46832,25411
46823,25412
46815,25413
46643,25413
46634,25412
46626,25411
46618,25409
46610,25406
46602,25403
46595,25398
46588,25393
46582,25388
46576,25381
46571,25375
46567,25367
46563,25360
46560,25352
46558,25344
46557,25335
46557,25327
46557,25125
46557,25117
46558,25108
46560,25100
46563,25092
46567,25084
46571,25077
46576,25070
46582,25064
46588,25058
46595,25053
46602,25049
46610,25045
46618,25043
46626,25041
46634,25039
46643,25039
46815,25039
46823,25039
" /> 
<polyline style="fill-rule:evenodd;"
points="47443,25039
47452,25041
47460,25043
47468,25045
47476,25049
47483,25053
47490,25058
47496,25064
47502,25070
47507,25077
47511,25084
47515,25092
47517,25100
47519,25108
47521,25117
47521,25125
47521,25327
47521,25335
47519,25344
47517,25352
47515,25360
47511,25367
47507,25375
47502,25381
47496,25388
47490,25393
47483,25398
47476,25403
47468,25406
47460,25409
47452,25411
47443,25412
47435,25413
47263,25413
47254,25412
47246,25411
47238,25409
47230,25406
47222,25403
47215,25398
47208,25393
47202,25388
47196,25381
47191,25375
47187,25367
47183,25360
47180,25352
47178,25344
47177,25335
47177,25327
47177,25125
47177,25117
47178,25108
47180,25100
47183,25092
47187,25084
47191,25077
47196,25070
47202,25064
47208,25058
47215,25053
47222,25049
47230,25045
47238,25043
47246,25041
47254,25039
47263,25039
47435,25039
47443,25039
" /> 
<polyline style="fill-rule:evenodd;"
points="47443,25791
47452,25793
47460,25795
47468,25797
47476,25801
47483,25805
47490,25810
47496,25816
47502,25822
47507,25829
47511,25836
47515,25844
47517,25852
47519,25860
47521,25869
47521,25877
47521,26079
47521,26087
47519,26096
47517,26104
47515,26112
47511,26119
47507,26127
47502,26133
47496,26140
47490,26145
47483,26150
47476,26155
47468,26158
47460,26161
47452,26163
47443,26164
47435,26165
47263,26165
47254,26164
47246,26163
47238,26161
47230,26158
47222,26155
47215,26150
47208,26145
47202,26140
47196,26133
47191,26127
47187,26119
47183,26112
47180,26104
47178,26096
47177,26087
47177,26079
47177,25877
47177,25869
47178,25860
47180,25852
47183,25844
47187,25836
47191,25829
47196,25822
47202,25816
47208,25810
47215,25805
47222,25801
47230,25797
47238,25795
47246,25793
47254,25791
47263,25791
47435,25791
47443,25791
" /> 
<polyline style="fill-rule:evenodd;"
points="46823,25791
46832,25793
46840,25795
46848,25797
46855,25801
46863,25805
46870,25810
46876,25816
46881,25822
46886,25829
46891,25836
46894,25844
46897,25852
46899,25860
46901,25869
46901,25877
46901,26079
46901,26087
46899,26096
46897,26104
46894,26112
46891,26119
46886,26127
46881,26133
46876,26140
46870,26145
46863,26150
46855,26155
46848,26158
46840,26161
46832,26163
46823,26164
46815,26165
46643,26165
46634,26164
46626,26163
46618,26161
46610,26158
46602,26155
46595,26150
46588,26145
46582,26140
46576,26133
46571,26127
46567,26119
46563,26112
46560,26104
46558,26096
46557,26087
46557,26079
46557,25877
46557,25869
46558,25860
46560,25852
46563,25844
46567,25836
46571,25829
46576,25822
46582,25816
46588,25810
46595,25805
46602,25801
46610,25797
46618,25795
46626,25793
46634,25791
46643,25791
46815,25791
46823,25791
" /> 
<polyline style="fill-rule:evenodd;"
points="46152,24272
46160,24273
46169,24275
46177,24278
46184,24282
46192,24286
46198,24291
46205,24297
46210,24303
46215,24310
46220,24317
46223,24325
46226,24333
46228,24341
46229,24349
46230,24358
46230,24559
46229,24568
46228,24576
46226,24584
46223,24592
46220,24600
46215,24607
46210,24614
46205,24620
46198,24626
46192,24631
46184,24635
46177,24639
46169,24642
46160,24644
46152,24645
46144,24646
45971,24646
45963,24645
45955,24644
45946,24642
45938,24639
45931,24635
45924,24631
45917,24626
45911,24620
45905,24614
45900,24607
45895,24600
45892,24592
45889,24584
45887,24576
45886,24568
45885,24559
45885,24358
45886,24349
45887,24341
45889,24333
45892,24325
45895,24317
45900,24310
45905,24303
45911,24297
45917,24291
45924,24286
45931,24282
45938,24278
45946,24275
45955,24273
45963,24272
45971,24271
46144,24271
46152,24272
" /> 
<polyline style="fill-rule:evenodd;"
points="45532,24272
45540,24273
45549,24275
45557,24278
45564,24282
45571,24286
45578,24291
45584,24297
45590,24303
45595,24310
45600,24317
45603,24325
45606,24333
45608,24341
45609,24349
45610,24358
45610,24559
45609,24568
45608,24576
45606,24584
45603,24592
45600,24600
45595,24607
45590,24614
45584,24620
45578,24626
45571,24631
45564,24635
45557,24639
45549,24642
45540,24644
45532,24645
45524,24646
45351,24646
45343,24645
45335,24644
45326,24642
45318,24639
45311,24635
45303,24631
45297,24626
45290,24620
45285,24614
45280,24607
45275,24600
45272,24592
45269,24584
45267,24576
45266,24568
45265,24559
45265,24358
45266,24349
45267,24341
45269,24333
45272,24325
45275,24317
45280,24310
45285,24303
45290,24297
45297,24291
45303,24286
45311,24282
45318,24278
45326,24275
45335,24273
45343,24272
45351,24271
45524,24271
45532,24272
" /> 
<polyline style="fill-rule:evenodd;"
points="39576,26507
39832,26507
39832,26988
39576,26988
39576,26507
" /> 
<polyline style="fill-rule:evenodd;"
points="39202,26507
39458,26507
39458,26988
39202,26988
39202,26507
" /> 
<polyline style="fill-rule:evenodd;"
points="38828,26507
39084,26507
39084,26988
38828,26988
38828,26507
" /> 
<polyline style="fill-rule:evenodd;"
points="38828,27539
39084,27539
39084,28019
38828,28019
38828,27539
" /> 
<polyline style="fill-rule:evenodd;"
points="39576,27539
39832,27539
39832,28019
39576,28019
39576,27539
" /> 
<polyline style="fill-rule:evenodd;"
points="41475,28146
41357,28146
41357,27811
41475,27811
41475,28146
" /> 
<polyline style="fill-rule:evenodd;"
points="41671,28146
41553,28146
41553,27811
41671,27811
41671,28146
" /> 
<polyline style="fill-rule:evenodd;"
points="41868,28146
41750,28146
41750,27811
41868,27811
41868,28146
" /> 
<polyline style="fill-rule:evenodd;"
points="42065,28146
41947,28146
41947,27811
42065,27811
42065,28146
" /> 
<polyline style="fill-rule:evenodd;"
points="42065,27398
41947,27398
41947,27063
42065,27063
42065,27398
" /> 
<polyline style="fill-rule:evenodd;"
points="41868,27398
41750,27398
41750,27063
41868,27063
41868,27398
" /> 
<polyline style="fill-rule:evenodd;"
points="41671,27398
41553,27398
41553,27063
41671,27063
41671,27398
" /> 
<polyline style="fill-rule:evenodd;"
points="41475,27398
41357,27398
41357,27063
41475,27063
41475,27398
" /> 
<polyline style="fill-rule:evenodd;"
points="46759,28415
46897,28415
46897,28651
46759,28651
46759,28415
" /> 
<polyline style="fill-rule:evenodd;"
points="46562,28415
46700,28415
46700,28651
46562,28651
46562,28415
" /> 
<polyline style="fill-rule:evenodd;"
points="46366,28415
46503,28415
46503,28651
46366,28651
46366,28415
" /> 
<polyline style="fill-rule:evenodd;"
points="46169,28415
46307,28415
46307,28651
46169,28651
46169,28415
" /> 
<polyline style="fill-rule:evenodd;"
points="45972,28415
46110,28415
46110,28651
45972,28651
45972,28415
" /> 
<polyline style="fill-rule:evenodd;"
points="45864,28720
46100,28720
46100,28858
45864,28858
45864,28720
" /> 
<polyline style="fill-rule:evenodd;"
points="45864,28917
46100,28917
46100,29054
45864,29054
45864,28917
" /> 
<polyline style="fill-rule:evenodd;"
points="45864,29113
46100,29113
46100,29251
45864,29251
45864,29113
" /> 
<polyline style="fill-rule:evenodd;"
points="45972,29320
46110,29320
46110,29556
45972,29556
45972,29320
" /> 
<polyline style="fill-rule:evenodd;"
points="46169,29320
46307,29320
46307,29556
46169,29556
46169,29320
" /> 
<polyline style="fill-rule:evenodd;"
points="46366,29320
46503,29320
46503,29556
46366,29556
46366,29320
" /> 
<polyline style="fill-rule:evenodd;"
points="46562,29320
46700,29320
46700,29556
46562,29556
46562,29320
" /> 
<polyline style="fill-rule:evenodd;"
points="46759,29320
46897,29320
46897,29556
46759,29556
46759,29320
" /> 
<polyline style="fill-rule:evenodd;"
points="46769,29113
47005,29113
47005,29251
46769,29251
46769,29113
" /> 
<polyline style="fill-rule:evenodd;"
points="46769,28917
47005,28917
47005,29054
46769,29054
46769,28917
" /> 
<polyline style="fill-rule:evenodd;"
points="46769,28720
47005,28720
47005,28858
46769,28858
46769,28720
" /> 
<polyline style="fill-rule:evenodd;"
points="40196,43182
40196,43025
40590,43025
40590,43182
40196,43182
" /> 
<polyline style="fill-rule:evenodd;"
points="43345,42682
43345,42525
43739,42525
43739,42682
43345,42682
" /> 
<polyline style="fill-rule:evenodd;"
points="43345,42182
43345,42025
43739,42025
43739,42182
43345,42182
" /> 
<polyline style="fill-rule:evenodd;"
points="40196,42182
40196,42025
40590,42025
40590,42182
40196,42182
" /> 
<polyline style="fill-rule:evenodd;"
points="43345,43182
43345,43025
43739,43025
43739,43182
43345,43182
" /> 
<polyline style="fill-rule:evenodd;"
points="43345,41682
43345,41525
43739,41525
43739,41682
43345,41682
" /> 
<polyline style="fill-rule:evenodd;"
points="41042,43259
41042,41448
42893,41448
42893,43259
41042,43259
" /> 
<polyline style="fill-rule:evenodd;"
points="40196,42682
40196,42525
40590,42525
40590,42682
40196,42682
" /> 
<polyline style="fill-rule:evenodd;"
points="40196,41682
40196,41525
40590,41525
40590,41682
40196,41682
" /> 
<polyline style="fill-rule:evenodd;"
points="40978,34817
40366,35429
39990,35053
40602,34441
40978,34817
" /> 
<polyline style="fill-rule:evenodd;"
points="41465,35304
40853,35916
40477,35540
41089,34928
41465,35304
" /> 
</g>
<g style="fill:#000000; fill-opacity:1.0; 
stroke:#000000; stroke-width:78.7402; stroke-opacity:1; 
stroke-linecap:round; stroke-linejoin:round;">
</g>
<g style="fill:#000000; fill-opacity:0.0; 
stroke:#000000; stroke-width:78.7402; stroke-opacity:1; 
stroke-linecap:round; stroke-linejoin:round;">
<path d="M41796 30860
L41963 31027
" />
<path d="M41685 30972
L41852 31139
" />
<path d="M41574 31083
L41741 31250
" />
<path d="M41462 31194
L41629 31361
" />
<path d="M41351 31306
L41518 31473
" />
<path d="M41240 31417
L41407 31584
" />
<path d="M41128 31528
L41295 31695
" />
<path d="M41017 31640
L41184 31807
" />
<path d="M40906 31751
L41073 31918
" />
<path d="M40794 31863
L40961 32030
" />
<path d="M40683 31974
L40850 32141
" />
<path d="M40571 32085
L40738 32252
" />
<path d="M40460 32197
L40627 32364
" />
<path d="M40349 32308
L40516 32475
" />
<path d="M40237 32419
L40404 32586
" />
<path d="M40126 32531
L40293 32698
" />
<path d="M40015 32642
L40182 32809
" />
<path d="M40182 33087
L40015 33254
" />
<path d="M40293 33199
L40126 33366
" />
<path d="M40404 33310
L40237 33477
" />
<path d="M40516 33422
L40349 33589
" />
<path d="M40627 33533
L40460 33700
" />
<path d="M40738 33644
L40571 33811
" />
<path d="M40850 33756
L40683 33923
" />
<path d="M40961 33867
L40794 34034
" />
<path d="M41073 33978
L40906 34145
" />
<path d="M41184 34090
L41017 34257
" />
<path d="M41295 34201
L41128 34368
" />
<path d="M41407 34312
L41240 34479
" />
<path d="M41518 34424
L41351 34591
" />
<path d="M41629 34535
L41462 34702
" />
<path d="M41741 34646
L41574 34813
" />
<path d="M41852 34758
L41685 34925
" />
<path d="M41963 34869
L41796 35036
" />
<path d="M42242 34869
L42409 35036
" />
<path d="M42353 34758
L42520 34925
" />
<path d="M42464 34646
L42632 34813
" />
<path d="M42576 34535
L42743 34702
" />
<path d="M42687 34424
L42854 34591
" />
<path d="M42799 34312
L42966 34479
" />
<path d="M42910 34201
L43077 34368
" />
<path d="M43021 34090
L43188 34257
" />
<path d="M43133 33978
L43300 34145
" />
<path d="M43244 33867
L43411 34034
" />
<path d="M43355 33756
L43522 33923
" />
<path d="M43467 33644
L43634 33811
" />
<path d="M43578 33533
L43745 33700
" />
<path d="M43689 33422
L43856 33589
" />
<path d="M43801 33310
L43968 33477
" />
<path d="M43912 33199
L44079 33366
" />
<path d="M44023 33087
L44190 33254
" />
<path d="M44190 32642
L44023 32809
" />
<path d="M44079 32531
L43912 32698
" />
<path d="M43968 32419
L43801 32586
" />
<path d="M43856 32308
L43689 32475
" />
<path d="M43745 32197
L43578 32364
" />
<path d="M43634 32085
L43467 32252
" />
<path d="M43522 31974
L43355 32141
" />
<path d="M43411 31863
L43244 32030
" />
<path d="M43300 31751
L43133 31918
" />
<path d="M43188 31640
L43021 31807
" />
<path d="M43077 31528
L42910 31695
" />
<path d="M42966 31417
L42799 31584
" />
<path d="M42854 31306
L42687 31473
" />
<path d="M42743 31194
L42576 31361
" />
<path d="M42632 31083
L42464 31250
" />
<path d="M42520 30972
L42353 31139
" />
<path d="M42409 30860
L42242 31027
" />
</g>
<g style="fill:#000000; fill-opacity:0.0; 
stroke:#000000; stroke-width:0; stroke-opacity:1; 
stroke-linecap:round; stroke-linejoin:round;">
</g>
<g style="fill:#000000; fill-opacity:1.0; 
stroke:#000000; stroke-width:0; stroke-opacity:1; 
stroke-linecap:round; stroke-linejoin:round;">
<polyline style="fill-rule:evenodd;"
points="41514,26258
41520,26259
41526,26260
41531,26262
41536,26264
41541,26267
41546,26271
41550,26275
41554,26279
41557,26283
41560,26288
41562,26293
41564,26299
41566,26304
41567,26310
41567,26316
41567,26432
41567,26437
41566,26443
41564,26449
41562,26454
41560,26459
41557,26464
41554,26469
41550,26473
41546,26477
41541,26480
41536,26483
41531,26485
41526,26487
41520,26489
41514,26490
41509,26490
41373,26490
41367,26490
41362,26489
41356,26487
41351,26485
41346,26483
41341,26480
41336,26477
41332,26473
41328,26469
41325,26464
41322,26459
41319,26454
41317,26449
41316,26443
41315,26437
41315,26432
41315,26316
41315,26310
41316,26304
41317,26299
41319,26293
41322,26288
41325,26283
41328,26279
41332,26275
41336,26271
41341,26267
41346,26264
41351,26262
41356,26260
41362,26259
41367,26258
41373,26258
41509,26258
41514,26258
" /> 
<polyline style="fill-rule:evenodd;"
points="41514,25876
41520,25877
41526,25878
41531,25880
41536,25883
41541,25885
41546,25889
41550,25893
41554,25897
41557,25901
41560,25906
41562,25912
41564,25917
41566,25922
41567,25928
41567,25934
41567,26050
41567,26056
41566,26061
41564,26067
41562,26072
41560,26077
41557,26082
41554,26087
41550,26091
41546,26095
41541,26098
41536,26101
41531,26104
41526,26105
41520,26107
41514,26108
41509,26108
41373,26108
41367,26108
41362,26107
41356,26105
41351,26104
41346,26101
41341,26098
41336,26095
41332,26091
41328,26087
41325,26082
41322,26077
41319,26072
41317,26067
41316,26061
41315,26056
41315,26050
41315,25934
41315,25928
41316,25922
41317,25917
41319,25912
41322,25906
41325,25901
41328,25897
41332,25893
41336,25889
41341,25885
41346,25883
41351,25880
41356,25878
41362,25877
41367,25876
41373,25876
41509,25876
41514,25876
" /> 
<polyline style="fill-rule:evenodd;"
points="41560,28364
41566,28365
41571,28366
41577,28368
41582,28371
41587,28374
41591,28377
41596,28381
41600,28385
41603,28390
41606,28394
41608,28400
41610,28405
41612,28411
41612,28416
41613,28422
41613,28558
41612,28563
41612,28569
41610,28575
41608,28580
41606,28585
41603,28590
41600,28595
41596,28599
41591,28603
41587,28606
41582,28609
41577,28611
41571,28613
41566,28615
41560,28615
41555,28616
41438,28616
41433,28615
41427,28615
41422,28613
41416,28611
41411,28609
41406,28606
41402,28603
41397,28599
41394,28595
41390,28590
41387,28585
41385,28580
41383,28575
41382,28569
41381,28563
41380,28558
41380,28422
41381,28416
41382,28411
41383,28405
41385,28400
41387,28394
41390,28390
41394,28385
41397,28381
41402,28377
41406,28374
41411,28371
41416,28368
41422,28366
41427,28365
41433,28364
41438,28364
41555,28364
41560,28364
" /> 
<polyline style="fill-rule:evenodd;"
points="41942,28364
41948,28365
41953,28366
41959,28368
41964,28371
41969,28374
41973,28377
41978,28381
41981,28385
41985,28390
41988,28394
41990,28400
41992,28405
41993,28411
41994,28416
41995,28422
41995,28558
41994,28563
41993,28569
41992,28575
41990,28580
41988,28585
41985,28590
41981,28595
41978,28599
41973,28603
41969,28606
41964,28609
41959,28611
41953,28613
41948,28615
41942,28615
41937,28616
41820,28616
41815,28615
41809,28615
41804,28613
41798,28611
41793,28609
41788,28606
41784,28603
41779,28599
41775,28595
41772,28590
41769,28585
41767,28580
41765,28575
41763,28569
41763,28563
41762,28558
41762,28422
41763,28416
41763,28411
41765,28405
41767,28400
41769,28394
41772,28390
41775,28385
41779,28381
41784,28377
41788,28374
41793,28371
41798,28368
41804,28366
41809,28365
41815,28364
41820,28364
41937,28364
41942,28364
" /> 
<polyline style="fill-rule:evenodd;"
points="42548,27624
42554,27625
42560,27626
42565,27628
42570,27630
42575,27633
42580,27637
42584,27641
42588,27645
42591,27649
42594,27654
42596,27659
42598,27665
42600,27670
42601,27676
42601,27682
42601,27798
42601,27803
42600,27809
42598,27815
42596,27820
42594,27825
42591,27830
42588,27835
42584,27839
42580,27843
42575,27846
42570,27849
42565,27851
42560,27853
42554,27855
42548,27856
42543,27856
42407,27856
42401,27856
42396,27855
42390,27853
42385,27851
42380,27849
42375,27846
42370,27843
42366,27839
42362,27835
42359,27830
42356,27825
42353,27820
42351,27815
42350,27809
42349,27803
42349,27798
42349,27682
42349,27676
42350,27670
42351,27665
42353,27659
42356,27654
42359,27649
42362,27645
42366,27641
42370,27637
42375,27633
42380,27630
42385,27628
42390,27626
42396,27625
42401,27624
42407,27624
42543,27624
42548,27624
" /> 
<polyline style="fill-rule:evenodd;"
points="42548,27242
42554,27243
42560,27244
42565,27246
42570,27249
42575,27251
42580,27255
42584,27259
42588,27263
42591,27267
42594,27272
42596,27278
42598,27283
42600,27288
42601,27294
42601,27300
42601,27416
42601,27422
42600,27427
42598,27433
42596,27438
42594,27443
42591,27448
42588,27453
42584,27457
42580,27461
42575,27464
42570,27467
42565,27470
42560,27471
42554,27473
42548,27474
42543,27474
42407,27474
42401,27474
42396,27473
42390,27471
42385,27470
42380,27467
42375,27464
42370,27461
42366,27457
42362,27453
42359,27448
42356,27443
42353,27438
42351,27433
42350,27427
42349,27422
42349,27416
42349,27300
42349,27294
42350,27288
42351,27283
42353,27278
42356,27272
42359,27267
42362,27263
42366,27259
42370,27255
42375,27251
42380,27249
42385,27246
42390,27244
42396,27243
42401,27242
42407,27242
42543,27242
42548,27242
" /> 
<polyline style="fill-rule:evenodd;"
points="44992,32418
44998,32419
45003,32420
45009,32422
45014,32424
45019,32427
45023,32431
45028,32435
45031,32439
45035,32443
45038,32448
45040,32453
45042,32459
45043,32464
45044,32470
45045,32476
45045,32611
45044,32617
45043,32623
45042,32628
45040,32634
45038,32639
45035,32644
45031,32648
45028,32652
45023,32656
45019,32660
45014,32663
45009,32665
45003,32667
44998,32668
44992,32669
44987,32669
44870,32669
44865,32669
44859,32668
44854,32667
44848,32665
44843,32663
44838,32660
44834,32656
44829,32652
44825,32648
44822,32644
44819,32639
44817,32634
44815,32628
44813,32623
44813,32617
44812,32611
44812,32476
44813,32470
44813,32464
44815,32459
44817,32453
44819,32448
44822,32443
44825,32439
44829,32435
44834,32431
44838,32427
44843,32424
44848,32422
44854,32420
44859,32419
44865,32418
44870,32418
44987,32418
44992,32418
" /> 
<polyline style="fill-rule:evenodd;"
points="44610,32418
44616,32419
44621,32420
44627,32422
44632,32424
44637,32427
44641,32431
44646,32435
44650,32439
44653,32443
44656,32448
44658,32453
44660,32459
44662,32464
44662,32470
44663,32476
44663,32611
44662,32617
44662,32623
44660,32628
44658,32634
44656,32639
44653,32644
44650,32648
44646,32652
44641,32656
44637,32660
44632,32663
44627,32665
44621,32667
44616,32668
44610,32669
44605,32669
44488,32669
44483,32669
44477,32668
44472,32667
44466,32665
44461,32663
44456,32660
44452,32656
44447,32652
44444,32648
44440,32644
44437,32639
44435,32634
44433,32628
44432,32623
44431,32617
44430,32611
44430,32476
44431,32470
44432,32464
44433,32459
44435,32453
44437,32448
44440,32443
44444,32439
44447,32435
44452,32431
44456,32427
44461,32424
44466,32422
44472,32420
44477,32419
44483,32418
44488,32418
44605,32418
44610,32418
" /> 
<polyline style="fill-rule:evenodd;"
points="39661,32222
39667,32222
39672,32224
39678,32226
39683,32228
39688,32231
39692,32235
39697,32238
39793,32334
39796,32339
39800,32343
39803,32348
39805,32353
39807,32359
39809,32364
39809,32370
39810,32375
39809,32381
39809,32387
39807,32392
39805,32398
39803,32403
39800,32408
39796,32412
39793,32417
39711,32499
39706,32502
39702,32506
39697,32509
39692,32511
39686,32513
39681,32515
39675,32515
39669,32516
39664,32515
39658,32515
39653,32513
39647,32511
39642,32509
39637,32506
39633,32502
39628,32499
39532,32403
39529,32398
39525,32394
39522,32389
39520,32384
39518,32378
39516,32373
39516,32367
39515,32362
39516,32356
39516,32350
39518,32345
39520,32339
39522,32334
39525,32329
39529,32325
39532,32320
39614,32238
39619,32235
39623,32231
39628,32228
39633,32226
39639,32224
39644,32222
39650,32222
39656,32221
39661,32222
" /> 
<polyline style="fill-rule:evenodd;"
points="39391,32492
39397,32492
39402,32494
39408,32496
39413,32498
39418,32501
39422,32505
39427,32508
39523,32604
39526,32609
39530,32613
39533,32618
39535,32623
39537,32629
39539,32634
39539,32640
39540,32645
39539,32651
39539,32657
39537,32662
39535,32668
39533,32673
39530,32678
39526,32682
39523,32687
39441,32769
39436,32772
39432,32776
39427,32779
39422,32781
39416,32783
39411,32785
39405,32785
39399,32786
39394,32785
39388,32785
39383,32783
39377,32781
39372,32779
39367,32776
39363,32772
39358,32769
39262,32673
39259,32668
39255,32664
39252,32659
39250,32654
39248,32648
39246,32643
39246,32637
39245,32632
39246,32626
39246,32620
39248,32615
39250,32609
39252,32604
39255,32599
39259,32595
39262,32590
39344,32508
39349,32505
39353,32501
39358,32498
39363,32496
39369,32494
39374,32492
39380,32492
39386,32491
39391,32492
" /> 
<polyline style="fill-rule:evenodd;"
points="42466,30285
42471,30286
42477,30287
42482,30289
42487,30292
42492,30295
42497,30298
42501,30302
42505,30306
42508,30311
42511,30316
42514,30321
42516,30326
42517,30332
42518,30337
42518,30343
42518,30479
42518,30484
42517,30490
42516,30496
42514,30501
42511,30506
42508,30511
42505,30516
42501,30520
42497,30524
42492,30527
42487,30530
42482,30532
42477,30534
42471,30536
42466,30537
42460,30537
42344,30537
42338,30537
42332,30536
42327,30534
42322,30532
42316,30530
42312,30527
42307,30524
42303,30520
42299,30516
42296,30511
42293,30506
42290,30501
42288,30496
42287,30490
42286,30484
42286,30479
42286,30343
42286,30337
42287,30332
42288,30326
42290,30321
42293,30316
42296,30311
42299,30306
42303,30302
42307,30298
42312,30295
42316,30292
42322,30289
42327,30287
42332,30286
42338,30285
42344,30285
42460,30285
42466,30285
" /> 
<polyline style="fill-rule:evenodd;"
points="42848,30285
42853,30286
42859,30287
42864,30289
42869,30292
42874,30295
42879,30298
42883,30302
42887,30306
42890,30311
42893,30316
42896,30321
42897,30326
42899,30332
42900,30337
42900,30343
42900,30479
42900,30484
42899,30490
42897,30496
42896,30501
42893,30506
42890,30511
42887,30516
42883,30520
42879,30524
42874,30527
42869,30530
42864,30532
42859,30534
42853,30536
42848,30537
42842,30537
42726,30537
42720,30537
42714,30536
42709,30534
42703,30532
42698,30530
42693,30527
42689,30524
42685,30520
42681,30516
42677,30511
42674,30506
42672,30501
42670,30496
42669,30490
42668,30484
42668,30479
42668,30343
42668,30337
42669,30332
42670,30326
42672,30321
42674,30316
42677,30311
42681,30306
42685,30302
42689,30298
42693,30295
42698,30292
42703,30289
42709,30287
42714,30286
42720,30285
42726,30285
42842,30285
42848,30285
" /> 
<polyline style="fill-rule:evenodd;"
points="44175,31042
44181,31042
44186,31044
44192,31046
44197,31048
44202,31051
44206,31055
44211,31058
44293,31140
44296,31145
44300,31149
44303,31154
44305,31159
44307,31165
44309,31170
44309,31176
44310,31182
44309,31187
44309,31193
44307,31198
44305,31204
44303,31209
44300,31214
44296,31218
44293,31223
44197,31319
44192,31322
44188,31326
44183,31329
44178,31331
44172,31333
44167,31335
44161,31335
44156,31336
44150,31335
44144,31335
44139,31333
44133,31331
44128,31329
44123,31326
44119,31322
44114,31319
44032,31237
44029,31232
44025,31228
44022,31223
44020,31218
44018,31212
44016,31207
44016,31201
44015,31195
44016,31190
44016,31184
44018,31179
44020,31173
44022,31168
44025,31163
44029,31159
44032,31154
44128,31058
44133,31055
44137,31051
44142,31048
44147,31046
44153,31044
44158,31042
44164,31042
44169,31041
44175,31042
" /> 
<polyline style="fill-rule:evenodd;"
points="43905,30772
43911,30772
43916,30774
43922,30776
43927,30778
43932,30781
43936,30785
43941,30788
44023,30870
44026,30875
44030,30879
44033,30884
44035,30889
44037,30895
44039,30900
44039,30906
44040,30912
44039,30917
44039,30923
44037,30928
44035,30934
44033,30939
44030,30944
44026,30948
44023,30953
43927,31049
43922,31052
43918,31056
43913,31059
43908,31061
43902,31063
43897,31065
43891,31065
43886,31066
43880,31065
43874,31065
43869,31063
43863,31061
43858,31059
43853,31056
43849,31052
43844,31049
43762,30967
43759,30962
43755,30958
43752,30953
43750,30948
43748,30942
43746,30937
43746,30931
43745,30925
43746,30920
43746,30914
43748,30909
43750,30903
43752,30898
43755,30893
43759,30889
43762,30884
43858,30788
43863,30785
43867,30781
43872,30778
43877,30776
43883,30774
43888,30772
43894,30772
43899,30771
43905,30772
" /> 
<polyline style="fill-rule:evenodd;"
points="42362,35558
42368,35559
42373,35560
42379,35562
42384,35564
42389,35567
42393,35571
42398,35575
42401,35579
42405,35583
42408,35588
42410,35593
42412,35599
42413,35604
42414,35610
42415,35616
42415,35751
42414,35757
42413,35763
42412,35768
42410,35774
42408,35779
42405,35784
42401,35788
42398,35792
42393,35796
42389,35800
42384,35803
42379,35805
42373,35807
42368,35808
42362,35809
42357,35809
42240,35809
42235,35809
42229,35808
42224,35807
42218,35805
42213,35803
42208,35800
42204,35796
42199,35792
42195,35788
42192,35784
42189,35779
42187,35774
42185,35768
42183,35763
42183,35757
42182,35751
42182,35616
42183,35610
42183,35604
42185,35599
42187,35593
42189,35588
42192,35583
42195,35579
42199,35575
42204,35571
42208,35567
42213,35564
42218,35562
42224,35560
42229,35559
42235,35558
42240,35558
42357,35558
42362,35558
" /> 
<polyline style="fill-rule:evenodd;"
points="41980,35558
41986,35559
41991,35560
41997,35562
42002,35564
42007,35567
42011,35571
42016,35575
42020,35579
42023,35583
42026,35588
42028,35593
42030,35599
42032,35604
42032,35610
42033,35616
42033,35751
42032,35757
42032,35763
42030,35768
42028,35774
42026,35779
42023,35784
42020,35788
42016,35792
42011,35796
42007,35800
42002,35803
41997,35805
41991,35807
41986,35808
41980,35809
41975,35809
41858,35809
41853,35809
41847,35808
41842,35807
41836,35805
41831,35803
41826,35800
41822,35796
41817,35792
41814,35788
41810,35784
41807,35779
41805,35774
41803,35768
41802,35763
41801,35757
41800,35751
41800,35616
41801,35610
41802,35604
41803,35599
41805,35593
41807,35588
41810,35583
41814,35579
41817,35575
41822,35571
41826,35567
41831,35564
41836,35562
41842,35560
41847,35559
41853,35558
41858,35558
41975,35558
41980,35558
" /> 
<polyline style="fill-rule:evenodd;"
points="43887,31328
43893,31328
43898,31330
43904,31332
43909,31334
43914,31337
43918,31341
43923,31344
44005,31426
44008,31431
44012,31435
44015,31440
44017,31445
44019,31451
44021,31456
44021,31462
44022,31468
44021,31473
44021,31479
44019,31484
44017,31490
44015,31495
44012,31500
44008,31504
44005,31509
43909,31605
43904,31608
43900,31612
43895,31615
43890,31617
43884,31619
43879,31621
43873,31621
43868,31622
43862,31621
43856,31621
43851,31619
43845,31617
43840,31615
43835,31612
43831,31608
43826,31605
43744,31523
43741,31518
43737,31514
43734,31509
43732,31504
43730,31498
43728,31493
43728,31487
43727,31481
43728,31476
43728,31470
43730,31465
43732,31459
43734,31454
43737,31449
43741,31445
43744,31440
43840,31344
43845,31341
43849,31337
43854,31334
43859,31332
43865,31330
43870,31328
43876,31328
43881,31327
43887,31328
" /> 
<polyline style="fill-rule:evenodd;"
points="43617,31058
43623,31058
43628,31060
43634,31062
43639,31064
43644,31067
43648,31071
43653,31074
43735,31156
43738,31161
43742,31165
43745,31170
43747,31175
43749,31181
43751,31186
43751,31192
43752,31198
43751,31203
43751,31209
43749,31214
43747,31220
43745,31225
43742,31230
43738,31234
43735,31239
43639,31335
43634,31338
43630,31342
43625,31345
43620,31347
43614,31349
43609,31351
43603,31351
43598,31352
43592,31351
43586,31351
43581,31349
43575,31347
43570,31345
43565,31342
43561,31338
43556,31335
43474,31253
43471,31248
43467,31244
43464,31239
43462,31234
43460,31228
43458,31223
43458,31217
43457,31211
43458,31206
43458,31200
43460,31195
43462,31189
43464,31184
43467,31179
43471,31175
43474,31170
43570,31074
43575,31071
43579,31067
43584,31064
43589,31062
43595,31060
43600,31058
43606,31058
43611,31057
43617,31058
" /> 
<polyline style="fill-rule:evenodd;"
points="39111,33822
39117,33822
39122,33824
39128,33826
39133,33828
39138,33831
39142,33835
39147,33838
39243,33934
39246,33939
39250,33943
39253,33948
39255,33953
39257,33959
39259,33964
39259,33970
39260,33975
39259,33981
39259,33987
39257,33992
39255,33998
39253,34003
39250,34008
39246,34012
39243,34017
39161,34099
39156,34102
39152,34106
39147,34109
39142,34111
39136,34113
39131,34115
39125,34115
39119,34116
39114,34115
39108,34115
39103,34113
39097,34111
39092,34109
39087,34106
39083,34102
39078,34099
38982,34003
38979,33998
38975,33994
38972,33989
38970,33984
38968,33978
38966,33973
38966,33967
38965,33962
38966,33956
38966,33950
38968,33945
38970,33939
38972,33934
38975,33929
38979,33925
38982,33920
39064,33838
39069,33835
39073,33831
39078,33828
39083,33826
39089,33824
39094,33822
39100,33822
39106,33821
39111,33822
" /> 
<polyline style="fill-rule:evenodd;"
points="38841,34092
38847,34092
38852,34094
38858,34096
38863,34098
38868,34101
38872,34105
38877,34108
38973,34204
38976,34209
38980,34213
38983,34218
38985,34223
38987,34229
38989,34234
38989,34240
38990,34245
38989,34251
38989,34257
38987,34262
38985,34268
38983,34273
38980,34278
38976,34282
38973,34287
38891,34369
38886,34372
38882,34376
38877,34379
38872,34381
38866,34383
38861,34385
38855,34385
38849,34386
38844,34385
38838,34385
38833,34383
38827,34381
38822,34379
38817,34376
38813,34372
38808,34369
38712,34273
38709,34268
38705,34264
38702,34259
38700,34254
38698,34248
38696,34243
38696,34237
38695,34232
38696,34226
38696,34220
38698,34215
38700,34209
38702,34204
38705,34199
38709,34195
38712,34190
38794,34108
38799,34105
38803,34101
38808,34098
38813,34096
38819,34094
38824,34092
38830,34092
38836,34091
38841,34092
" /> 
<polyline style="fill-rule:evenodd;"
points="39141,34392
39147,34392
39152,34394
39158,34396
39163,34398
39168,34401
39172,34405
39177,34408
39273,34504
39276,34509
39280,34513
39283,34518
39285,34523
39287,34529
39289,34534
39289,34540
39290,34545
39289,34551
39289,34557
39287,34562
39285,34568
39283,34573
39280,34578
39276,34582
39273,34587
39191,34669
39186,34672
39182,34676
39177,34679
39172,34681
39166,34683
39161,34685
39155,34685
39149,34686
39144,34685
39138,34685
39133,34683
39127,34681
39122,34679
39117,34676
39113,34672
39108,34669
39012,34573
39009,34568
39005,34564
39002,34559
39000,34554
38998,34548
38996,34543
38996,34537
38995,34532
38996,34526
38996,34520
38998,34515
39000,34509
39002,34504
39005,34499
39009,34495
39012,34490
39094,34408
39099,34405
39103,34401
39108,34398
39113,34396
39119,34394
39124,34392
39130,34392
39136,34391
39141,34392
" /> 
<polyline style="fill-rule:evenodd;"
points="39411,34122
39417,34122
39422,34124
39428,34126
39433,34128
39438,34131
39442,34135
39447,34138
39543,34234
39546,34239
39550,34243
39553,34248
39555,34253
39557,34259
39559,34264
39559,34270
39560,34275
39559,34281
39559,34287
39557,34292
39555,34298
39553,34303
39550,34308
39546,34312
39543,34317
39461,34399
39456,34402
39452,34406
39447,34409
39442,34411
39436,34413
39431,34415
39425,34415
39419,34416
39414,34415
39408,34415
39403,34413
39397,34411
39392,34409
39387,34406
39383,34402
39378,34399
39282,34303
39279,34298
39275,34294
39272,34289
39270,34284
39268,34278
39266,34273
39266,34267
39265,34262
39266,34256
39266,34250
39268,34245
39270,34239
39272,34234
39275,34229
39279,34225
39282,34220
39364,34138
39369,34135
39373,34131
39378,34128
39383,34126
39389,34124
39394,34122
39400,34122
39406,34121
39411,34122
" /> 
<polyline style="fill-rule:evenodd;"
points="43591,34667
43597,34667
43602,34669
43608,34671
43613,34673
43618,34676
43622,34680
43627,34683
43723,34779
43726,34784
43730,34788
43733,34793
43735,34798
43737,34804
43739,34809
43739,34815
43740,34820
43739,34826
43739,34832
43737,34837
43735,34843
43733,34848
43730,34853
43726,34857
43723,34862
43641,34944
43636,34947
43632,34951
43627,34954
43622,34956
43616,34958
43611,34960
43605,34960
43599,34961
43594,34960
43588,34960
43583,34958
43577,34956
43572,34954
43567,34951
43563,34947
43558,34944
43462,34848
43459,34843
43455,34839
43452,34834
43450,34829
43448,34823
43446,34818
43446,34812
43445,34807
43446,34801
43446,34795
43448,34790
43450,34784
43452,34779
43455,34774
43459,34770
43462,34765
43544,34683
43549,34680
43553,34676
43558,34673
43563,34671
43569,34669
43574,34667
43580,34667
43586,34666
43591,34667
" /> 
<polyline style="fill-rule:evenodd;"
points="43861,34397
43867,34397
43872,34399
43878,34401
43883,34403
43888,34406
43892,34410
43897,34413
43993,34509
43996,34514
44000,34518
44003,34523
44005,34528
44007,34534
44009,34539
44009,34545
44010,34550
44009,34556
44009,34562
44007,34567
44005,34573
44003,34578
44000,34583
43996,34587
43993,34592
43911,34674
43906,34677
43902,34681
43897,34684
43892,34686
43886,34688
43881,34690
43875,34690
43869,34691
43864,34690
43858,34690
43853,34688
43847,34686
43842,34684
43837,34681
43833,34677
43828,34674
43732,34578
43729,34573
43725,34569
43722,34564
43720,34559
43718,34553
43716,34548
43716,34542
43715,34537
43716,34531
43716,34525
43718,34520
43720,34514
43722,34509
43725,34504
43729,34500
43732,34495
43814,34413
43819,34410
43823,34406
43828,34403
43833,34401
43839,34399
43844,34397
43850,34397
43856,34396
43861,34397
" /> 
<polyline style="fill-rule:evenodd;"
points="43891,34967
43897,34967
43902,34969
43908,34971
43913,34973
43918,34976
43922,34980
43927,34983
44023,35079
44026,35084
44030,35088
44033,35093
44035,35098
44037,35104
44039,35109
44039,35115
44040,35120
44039,35126
44039,35132
44037,35137
44035,35143
44033,35148
44030,35153
44026,35157
44023,35162
43941,35244
43936,35247
43932,35251
43927,35254
43922,35256
43916,35258
43911,35260
43905,35260
43899,35261
43894,35260
43888,35260
43883,35258
43877,35256
43872,35254
43867,35251
43863,35247
43858,35244
43762,35148
43759,35143
43755,35139
43752,35134
43750,35129
43748,35123
43746,35118
43746,35112
43745,35107
43746,35101
43746,35095
43748,35090
43750,35084
43752,35079
43755,35074
43759,35070
43762,35065
43844,34983
43849,34980
43853,34976
43858,34973
43863,34971
43869,34969
43874,34967
43880,34967
43886,34966
43891,34967
" /> 
<polyline style="fill-rule:evenodd;"
points="44161,34697
44167,34697
44172,34699
44178,34701
44183,34703
44188,34706
44192,34710
44197,34713
44293,34809
44296,34814
44300,34818
44303,34823
44305,34828
44307,34834
44309,34839
44309,34845
44310,34850
44309,34856
44309,34862
44307,34867
44305,34873
44303,34878
44300,34883
44296,34887
44293,34892
44211,34974
44206,34977
44202,34981
44197,34984
44192,34986
44186,34988
44181,34990
44175,34990
44169,34991
44164,34990
44158,34990
44153,34988
44147,34986
44142,34984
44137,34981
44133,34977
44128,34974
44032,34878
44029,34873
44025,34869
44022,34864
44020,34859
44018,34853
44016,34848
44016,34842
44015,34837
44016,34831
44016,34825
44018,34820
44020,34814
44022,34809
44025,34804
44029,34800
44032,34795
44114,34713
44119,34710
44123,34706
44128,34703
44133,34701
44139,34699
44144,34697
44150,34697
44156,34696
44161,34697
" /> 
<polyline style="fill-rule:evenodd;"
points="43315,34957
43321,34957
43326,34959
43332,34961
43337,34963
43342,34966
43346,34970
43351,34973
43433,35055
43436,35060
43440,35064
43443,35069
43445,35074
43447,35080
43449,35085
43449,35091
43450,35097
43449,35102
43449,35108
43447,35113
43445,35119
43443,35124
43440,35129
43436,35133
43433,35138
43337,35234
43332,35237
43328,35241
43323,35244
43318,35246
43312,35248
43307,35250
43301,35250
43296,35251
43290,35250
43284,35250
43279,35248
43273,35246
43268,35244
43263,35241
43259,35237
43254,35234
43172,35152
43169,35147
43165,35143
43162,35138
43160,35133
43158,35127
43156,35122
43156,35116
43155,35110
43156,35105
43156,35099
43158,35094
43160,35088
43162,35083
43165,35078
43169,35074
43172,35069
43268,34973
43273,34970
43277,34966
43282,34963
43287,34961
43293,34959
43298,34957
43304,34957
43309,34956
43315,34957
" /> 
<polyline style="fill-rule:evenodd;"
points="43585,35227
43591,35227
43596,35229
43602,35231
43607,35233
43612,35236
43616,35240
43621,35243
43703,35326
43707,35330
43710,35334
43713,35339
43715,35344
43717,35350
43719,35355
43719,35361
43720,35367
43719,35372
43719,35378
43717,35383
43715,35389
43713,35394
43710,35399
43707,35403
43703,35408
43607,35504
43602,35508
43598,35511
43593,35514
43588,35516
43582,35518
43577,35520
43571,35520
43566,35521
43560,35520
43554,35520
43549,35518
43543,35516
43538,35514
43533,35511
43529,35508
43525,35504
43442,35422
43439,35417
43435,35413
43432,35408
43430,35403
43428,35397
43426,35392
43426,35386
43425,35380
43426,35375
43426,35369
43428,35364
43430,35358
43432,35353
43435,35348
43439,35344
43442,35339
43538,35243
43543,35240
43547,35236
43552,35233
43557,35231
43563,35229
43568,35227
43574,35227
43579,35226
43585,35227
" /> 
<polyline style="fill-rule:evenodd;"
points="39441,34672
39447,34672
39452,34674
39458,34676
39463,34678
39468,34681
39472,34685
39477,34688
39573,34784
39576,34789
39580,34793
39583,34798
39585,34803
39587,34809
39589,34814
39589,34820
39590,34825
39589,34831
39589,34837
39587,34842
39585,34848
39583,34853
39580,34858
39576,34862
39573,34867
39491,34949
39486,34952
39482,34956
39477,34959
39472,34961
39466,34963
39461,34965
39455,34965
39449,34966
39444,34965
39438,34965
39433,34963
39427,34961
39422,34959
39417,34956
39413,34952
39408,34949
39312,34853
39309,34848
39305,34844
39302,34839
39300,34834
39298,34828
39296,34823
39296,34817
39295,34812
39296,34806
39296,34800
39298,34795
39300,34789
39302,34784
39305,34779
39309,34775
39312,34770
39394,34688
39399,34685
39403,34681
39408,34678
39413,34676
39419,34674
39424,34672
39430,34672
39436,34671
39441,34672
" /> 
<polyline style="fill-rule:evenodd;"
points="39711,34402
39717,34402
39722,34404
39728,34406
39733,34408
39738,34411
39742,34415
39747,34418
39843,34514
39846,34519
39850,34523
39853,34528
39855,34533
39857,34539
39859,34544
39859,34550
39860,34555
39859,34561
39859,34567
39857,34572
39855,34578
39853,34583
39850,34588
39846,34592
39843,34597
39761,34679
39756,34682
39752,34686
39747,34689
39742,34691
39736,34693
39731,34695
39725,34695
39719,34696
39714,34695
39708,34695
39703,34693
39697,34691
39692,34689
39687,34686
39683,34682
39678,34679
39582,34583
39579,34578
39575,34574
39572,34569
39570,34564
39568,34558
39566,34553
39566,34547
39565,34542
39566,34536
39566,34530
39568,34525
39570,34519
39572,34514
39575,34509
39579,34505
39582,34500
39664,34418
39669,34415
39673,34411
39678,34408
39683,34406
39689,34404
39694,34402
39700,34402
39706,34401
39711,34402
" /> 
<polyline style="fill-rule:evenodd;"
points="44141,31617
44147,31617
44152,31619
44158,31621
44163,31623
44168,31626
44172,31630
44177,31633
44273,31729
44276,31734
44280,31738
44283,31743
44285,31748
44287,31754
44289,31759
44289,31765
44290,31770
44289,31776
44289,31782
44287,31787
44285,31793
44283,31798
44280,31803
44276,31807
44273,31812
44191,31894
44186,31897
44182,31901
44177,31904
44172,31906
44166,31908
44161,31910
44155,31910
44149,31911
44144,31910
44138,31910
44133,31908
44127,31906
44122,31904
44117,31901
44113,31897
44108,31894
44012,31798
44009,31793
44005,31789
44002,31784
44000,31779
43998,31773
43996,31768
43996,31762
43995,31757
43996,31751
43996,31745
43998,31740
44000,31734
44002,31729
44005,31724
44009,31720
44012,31715
44094,31633
44099,31630
44103,31626
44108,31623
44113,31621
44119,31619
44124,31617
44130,31617
44136,31616
44141,31617
" /> 
<polyline style="fill-rule:evenodd;"
points="44411,31347
44417,31347
44422,31349
44428,31351
44433,31353
44438,31356
44442,31360
44447,31363
44543,31459
44546,31464
44550,31468
44553,31473
44555,31478
44557,31484
44559,31489
44559,31495
44560,31500
44559,31506
44559,31512
44557,31517
44555,31523
44553,31528
44550,31533
44546,31537
44543,31542
44461,31624
44456,31627
44452,31631
44447,31634
44442,31636
44436,31638
44431,31640
44425,31640
44419,31641
44414,31640
44408,31640
44403,31638
44397,31636
44392,31634
44387,31631
44383,31627
44378,31624
44282,31528
44279,31523
44275,31519
44272,31514
44270,31509
44268,31503
44266,31498
44266,31492
44265,31487
44266,31481
44266,31475
44268,31470
44270,31464
44272,31459
44275,31454
44279,31450
44282,31445
44364,31363
44369,31360
44373,31356
44378,31353
44383,31351
44389,31349
44394,31347
44400,31347
44406,31346
44411,31347
" /> 
<polyline style="fill-rule:evenodd;"
points="40550,35917
40556,35917
40561,35919
40567,35921
40572,35923
40577,35926
40581,35930
40586,35933
40668,36015
40671,36020
40675,36024
40678,36029
40680,36034
40682,36040
40684,36045
40684,36051
40685,36057
40684,36062
40684,36068
40682,36073
40680,36079
40678,36084
40675,36089
40671,36093
40668,36098
40572,36194
40567,36197
40563,36201
40558,36204
40553,36206
40547,36208
40542,36210
40536,36210
40531,36211
40525,36210
40519,36210
40514,36208
40508,36206
40503,36204
40498,36201
40494,36197
40489,36194
40407,36112
40404,36107
40400,36103
40397,36098
40395,36093
40393,36087
40391,36082
40391,36076
40390,36070
40391,36065
40391,36059
40393,36054
40395,36048
40397,36043
40400,36038
40404,36034
40407,36029
40503,35933
40508,35930
40512,35926
40517,35923
40522,35921
40528,35919
40533,35917
40539,35917
40544,35916
40550,35917
" /> 
<polyline style="fill-rule:evenodd;"
points="40280,35647
40286,35647
40291,35649
40297,35651
40302,35653
40307,35656
40311,35660
40316,35663
40398,35745
40401,35750
40405,35754
40408,35759
40410,35764
40412,35770
40414,35775
40414,35781
40415,35787
40414,35792
40414,35798
40412,35803
40410,35809
40408,35814
40405,35819
40401,35823
40398,35828
40302,35924
40297,35927
40293,35931
40288,35934
40283,35936
40277,35938
40272,35940
40266,35940
40261,35941
40255,35940
40249,35940
40244,35938
40238,35936
40233,35934
40228,35931
40224,35927
40219,35924
40137,35842
40134,35837
40130,35833
40127,35828
40125,35823
40123,35817
40121,35812
40121,35806
40120,35800
40121,35795
40121,35789
40123,35784
40125,35778
40127,35773
40130,35768
40134,35764
40137,35759
40233,35663
40238,35660
40242,35656
40247,35653
40252,35651
40258,35649
40263,35647
40269,35647
40274,35646
40280,35647
" /> 
<polyline style="fill-rule:evenodd;"
points="46901,27879
46907,27879
46912,27881
46918,27883
46923,27885
46928,27888
46932,27891
46936,27895
46940,27900
46944,27904
46947,27909
46949,27914
46951,27920
46952,27925
46953,27931
46953,27936
46953,28053
46953,28058
46952,28064
46951,28069
46949,28075
46947,28080
46944,28085
46940,28089
46936,28094
46932,28097
46928,28101
46923,28104
46918,28106
46912,28108
46907,28109
46901,28110
46895,28111
46760,28111
46754,28110
46748,28109
46743,28108
46737,28106
46732,28104
46727,28101
46723,28097
46719,28094
46715,28089
46711,28085
46708,28080
46706,28075
46704,28069
46703,28064
46702,28058
46702,28053
46702,27936
46702,27931
46703,27925
46704,27920
46706,27914
46708,27909
46711,27904
46715,27900
46719,27895
46723,27891
46727,27888
46732,27885
46737,27883
46743,27881
46748,27879
46754,27879
46760,27878
46895,27878
46901,27879
" /> 
<polyline style="fill-rule:evenodd;"
points="46901,27497
46907,27498
46912,27499
46918,27501
46923,27503
46928,27506
46932,27510
46936,27513
46940,27518
46944,27522
46947,27527
46949,27532
46951,27538
46952,27543
46953,27549
46953,27554
46953,27671
46953,27676
46952,27682
46951,27687
46949,27693
46947,27698
46944,27703
46940,27707
46936,27712
46932,27716
46928,27719
46923,27722
46918,27724
46912,27726
46907,27728
46901,27728
46895,27729
46760,27729
46754,27728
46748,27728
46743,27726
46737,27724
46732,27722
46727,27719
46723,27716
46719,27712
46715,27707
46711,27703
46708,27698
46706,27693
46704,27687
46703,27682
46702,27676
46702,27671
46702,27554
46702,27549
46703,27543
46704,27538
46706,27532
46708,27527
46711,27522
46715,27518
46719,27513
46723,27510
46727,27506
46732,27503
46737,27501
46743,27499
46748,27498
46754,27497
46760,27496
46895,27496
46901,27497
" /> 
<polyline style="fill-rule:evenodd;"
points="39975,35342
39981,35342
39986,35344
39992,35346
39997,35348
40002,35351
40006,35355
40011,35358
40093,35440
40096,35445
40100,35449
40103,35454
40105,35459
40107,35465
40109,35470
40109,35476
40110,35482
40109,35487
40109,35493
40107,35498
40105,35504
40103,35509
40100,35514
40096,35518
40093,35523
39997,35619
39992,35622
39988,35626
39983,35629
39978,35631
39972,35633
39967,35635
39961,35635
39956,35636
39950,35635
39944,35635
39939,35633
39933,35631
39928,35629
39923,35626
39919,35622
39914,35619
39832,35537
39829,35532
39825,35528
39822,35523
39820,35518
39818,35512
39816,35507
39816,35501
39815,35495
39816,35490
39816,35484
39818,35479
39820,35473
39822,35468
39825,35463
39829,35459
39832,35454
39928,35358
39933,35355
39937,35351
39942,35348
39947,35346
39953,35344
39958,35342
39964,35342
39969,35341
39975,35342
" /> 
<polyline style="fill-rule:evenodd;"
points="39705,35072
39711,35072
39716,35074
39722,35076
39727,35078
39732,35081
39736,35085
39741,35088
39823,35170
39826,35175
39830,35179
39833,35184
39835,35189
39837,35195
39839,35200
39839,35206
39840,35212
39839,35217
39839,35223
39837,35228
39835,35234
39833,35239
39830,35244
39826,35248
39823,35253
39727,35349
39722,35352
39718,35356
39713,35359
39708,35361
39702,35363
39697,35365
39691,35365
39686,35366
39680,35365
39674,35365
39669,35363
39663,35361
39658,35359
39653,35356
39649,35352
39644,35349
39562,35267
39559,35262
39555,35258
39552,35253
39550,35248
39548,35242
39546,35237
39546,35231
39545,35225
39546,35220
39546,35214
39548,35209
39550,35203
39552,35198
39555,35193
39559,35189
39562,35184
39658,35088
39663,35085
39667,35081
39672,35078
39677,35076
39683,35074
39688,35072
39694,35072
39699,35071
39705,35072
" /> 
<polyline style="fill-rule:evenodd;"
points="43626,40104
43632,40104
43637,40106
43643,40108
43648,40110
43653,40113
43657,40116
43661,40120
43665,40125
43669,40129
43672,40134
43674,40139
43676,40145
43677,40150
43678,40156
43678,40161
43678,40278
43678,40283
43677,40289
43676,40294
43674,40300
43672,40305
43669,40310
43665,40314
43661,40319
43657,40322
43653,40326
43648,40329
43643,40331
43637,40333
43632,40334
43626,40335
43620,40336
43485,40336
43479,40335
43473,40334
43468,40333
43462,40331
43457,40329
43452,40326
43448,40322
43444,40319
43440,40314
43436,40310
43433,40305
43431,40300
43429,40294
43428,40289
43427,40283
43427,40278
43427,40161
43427,40156
43428,40150
43429,40145
43431,40139
43433,40134
43436,40129
43440,40125
43444,40120
43448,40116
43452,40113
43457,40110
43462,40108
43468,40106
43473,40104
43479,40104
43485,40103
43620,40103
43626,40104
" /> 
<polyline style="fill-rule:evenodd;"
points="43626,39722
43632,39723
43637,39724
43643,39726
43648,39728
43653,39731
43657,39735
43661,39738
43665,39743
43669,39747
43672,39752
43674,39757
43676,39763
43677,39768
43678,39774
43678,39779
43678,39896
43678,39901
43677,39907
43676,39912
43674,39918
43672,39923
43669,39928
43665,39932
43661,39937
43657,39941
43653,39944
43648,39947
43643,39949
43637,39951
43632,39953
43626,39953
43620,39954
43485,39954
43479,39953
43473,39953
43468,39951
43462,39949
43457,39947
43452,39944
43448,39941
43444,39937
43440,39932
43436,39928
43433,39923
43431,39918
43429,39912
43428,39907
43427,39901
43427,39896
43427,39779
43427,39774
43428,39768
43429,39763
43431,39757
43433,39752
43436,39747
43440,39743
43444,39738
43448,39735
43452,39731
43457,39728
43462,39726
43468,39724
43473,39723
43479,39722
43485,39721
43620,39721
43626,39722
" /> 
<polyline style="fill-rule:evenodd;"
points="38090,39863
38621,39863
38621,40020
38090,40020
38090,39863
" /> 
<polyline style="fill-rule:evenodd;"
points="38090,40119
38621,40119
38621,40276
38090,40276
38090,40119
" /> 
<polyline style="fill-rule:evenodd;"
points="38090,40375
38621,40375
38621,40532
38090,40532
38090,40375
" /> 
<polyline style="fill-rule:evenodd;"
points="38090,40631
38621,40631
38621,40788
38090,40788
38090,40631
" /> 
<polyline style="fill-rule:evenodd;"
points="38090,40887
38621,40887
38621,41044
38090,41044
38090,40887
" /> 
<polyline style="fill-rule:evenodd;"
points="36928,39646
37677,39646
37677,40355
36928,40355
36928,39646
" /> 
<polyline style="fill-rule:evenodd;"
points="36928,40552
37677,40552
37677,41261
36928,41261
36928,40552
" /> 
<polyline style="fill-rule:evenodd;"
points="40801,25862
40806,25863
40812,25864
40817,25866
40822,25869
40827,25872
40832,25875
40836,25879
40840,25883
40843,25888
40846,25892
40849,25898
40851,25903
40852,25909
40853,25914
40853,25920
40853,26036
40853,26042
40852,26047
40851,26053
40849,26058
40846,26063
40843,26068
40840,26073
40836,26077
40832,26081
40827,26084
40822,26087
40817,26090
40812,26092
40806,26093
40801,26094
40795,26094
40659,26094
40654,26094
40648,26093
40642,26092
40637,26090
40632,26087
40627,26084
40622,26081
40618,26077
40614,26073
40611,26068
40608,26063
40606,26058
40604,26053
40602,26047
40601,26042
40601,26036
40601,25920
40601,25914
40602,25909
40604,25903
40606,25898
40608,25892
40611,25888
40614,25883
40618,25879
40622,25875
40627,25872
40632,25869
40637,25866
40642,25864
40648,25863
40654,25862
40659,25862
40795,25862
40801,25862
" /> 
<polyline style="fill-rule:evenodd;"
points="40801,26244
40806,26245
40812,26246
40817,26248
40822,26251
40827,26253
40832,26257
40836,26261
40840,26265
40843,26269
40846,26274
40849,26280
40851,26285
40852,26290
40853,26296
40853,26302
40853,26418
40853,26424
40852,26429
40851,26435
40849,26440
40846,26445
40843,26450
40840,26455
40836,26459
40832,26463
40827,26466
40822,26469
40817,26472
40812,26473
40806,26475
40801,26476
40795,26476
40659,26476
40654,26476
40648,26475
40642,26473
40637,26472
40632,26469
40627,26466
40622,26463
40618,26459
40614,26455
40611,26450
40608,26445
40606,26440
40604,26435
40602,26429
40601,26424
40601,26418
40601,26302
40601,26296
40602,26290
40604,26285
40606,26280
40608,26274
40611,26269
40614,26265
40618,26261
40622,26257
40627,26253
40632,26251
40637,26248
40642,26246
40648,26245
40654,26244
40659,26244
40795,26244
40801,26244
" /> 
<polyline style="fill-rule:evenodd;"
points="42294,25876
42300,25877
42306,25878
42311,25880
42316,25883
42321,25885
42326,25889
42330,25893
42334,25897
42337,25901
42340,25906
42342,25912
42344,25917
42346,25922
42347,25928
42347,25934
42347,26050
42347,26056
42346,26061
42344,26067
42342,26072
42340,26077
42337,26082
42334,26087
42330,26091
42326,26095
42321,26098
42316,26101
42311,26104
42306,26105
42300,26107
42294,26108
42289,26108
42153,26108
42147,26108
42142,26107
42136,26105
42131,26104
42126,26101
42121,26098
42116,26095
42112,26091
42108,26087
42105,26082
42102,26077
42099,26072
42097,26067
42096,26061
42095,26056
42095,26050
42095,25934
42095,25928
42096,25922
42097,25917
42099,25912
42102,25906
42105,25901
42108,25897
42112,25893
42116,25889
42121,25885
42126,25883
42131,25880
42136,25878
42142,25877
42147,25876
42153,25876
42289,25876
42294,25876
" /> 
<polyline style="fill-rule:evenodd;"
points="42294,26258
42300,26259
42306,26260
42311,26262
42316,26264
42321,26267
42326,26271
42330,26275
42334,26279
42337,26283
42340,26288
42342,26293
42344,26299
42346,26304
42347,26310
42347,26316
42347,26432
42347,26437
42346,26443
42344,26449
42342,26454
42340,26459
42337,26464
42334,26469
42330,26473
42326,26477
42321,26480
42316,26483
42311,26485
42306,26487
42300,26489
42294,26490
42289,26490
42153,26490
42147,26490
42142,26489
42136,26487
42131,26485
42126,26483
42121,26480
42116,26477
42112,26473
42108,26469
42105,26464
42102,26459
42099,26454
42097,26449
42096,26443
42095,26437
42095,26432
42095,26316
42095,26310
42096,26304
42097,26299
42099,26293
42102,26288
42105,26283
42108,26279
42112,26275
42116,26271
42121,26267
42126,26264
42131,26262
42136,26260
42142,26259
42147,26258
42153,26258
42289,26258
42294,26258
" /> 
<polyline style="fill-rule:evenodd;"
points="41786,40104
41792,40104
41797,40106
41803,40108
41808,40110
41813,40113
41817,40116
41821,40120
41825,40125
41829,40129
41832,40134
41834,40139
41836,40145
41837,40150
41838,40156
41838,40161
41838,40278
41838,40283
41837,40289
41836,40294
41834,40300
41832,40305
41829,40310
41825,40314
41821,40319
41817,40322
41813,40326
41808,40329
41803,40331
41797,40333
41792,40334
41786,40335
41780,40336
41645,40336
41639,40335
41633,40334
41628,40333
41622,40331
41617,40329
41612,40326
41608,40322
41604,40319
41600,40314
41596,40310
41593,40305
41591,40300
41589,40294
41588,40289
41587,40283
41587,40278
41587,40161
41587,40156
41588,40150
41589,40145
41591,40139
41593,40134
41596,40129
41600,40125
41604,40120
41608,40116
41612,40113
41617,40110
41622,40108
41628,40106
41633,40104
41639,40104
41645,40103
41780,40103
41786,40104
" /> 
<polyline style="fill-rule:evenodd;"
points="41786,39722
41792,39723
41797,39724
41803,39726
41808,39728
41813,39731
41817,39735
41821,39738
41825,39743
41829,39747
41832,39752
41834,39757
41836,39763
41837,39768
41838,39774
41838,39779
41838,39896
41838,39901
41837,39907
41836,39912
41834,39918
41832,39923
41829,39928
41825,39932
41821,39937
41817,39941
41813,39944
41808,39947
41803,39949
41797,39951
41792,39953
41786,39953
41780,39954
41645,39954
41639,39953
41633,39953
41628,39951
41622,39949
41617,39947
41612,39944
41608,39941
41604,39937
41600,39932
41596,39928
41593,39923
41591,39918
41589,39912
41588,39907
41587,39901
41587,39896
41587,39779
41587,39774
41588,39768
41589,39763
41591,39757
41593,39752
41596,39747
41600,39743
41604,39738
41608,39735
41612,39731
41617,39728
41622,39726
41628,39724
41633,39723
41639,39722
41645,39721
41780,39721
41786,39722
" /> 
<polyline style="fill-rule:evenodd;"
points="41326,39722
41332,39723
41337,39724
41343,39726
41348,39728
41353,39731
41357,39735
41361,39738
41365,39743
41369,39747
41372,39752
41374,39757
41376,39763
41377,39768
41378,39774
41378,39779
41378,39896
41378,39901
41377,39907
41376,39912
41374,39918
41372,39923
41369,39928
41365,39932
41361,39937
41357,39941
41353,39944
41348,39947
41343,39949
41337,39951
41332,39953
41326,39953
41320,39954
41185,39954
41179,39953
41173,39953
41168,39951
41162,39949
41157,39947
41152,39944
41148,39941
41144,39937
41140,39932
41136,39928
41133,39923
41131,39918
41129,39912
41128,39907
41127,39901
41127,39896
41127,39779
41127,39774
41128,39768
41129,39763
41131,39757
41133,39752
41136,39747
41140,39743
41144,39738
41148,39735
41152,39731
41157,39728
41162,39726
41168,39724
41173,39723
41179,39722
41185,39721
41320,39721
41326,39722
" /> 
<polyline style="fill-rule:evenodd;"
points="41326,40104
41332,40104
41337,40106
41343,40108
41348,40110
41353,40113
41357,40116
41361,40120
41365,40125
41369,40129
41372,40134
41374,40139
41376,40145
41377,40150
41378,40156
41378,40161
41378,40278
41378,40283
41377,40289
41376,40294
41374,40300
41372,40305
41369,40310
41365,40314
41361,40319
41357,40322
41353,40326
41348,40329
41343,40331
41337,40333
41332,40334
41326,40335
41320,40336
41185,40336
41179,40335
41173,40334
41168,40333
41162,40331
41157,40329
41152,40326
41148,40322
41144,40319
41140,40314
41136,40310
41133,40305
41131,40300
41129,40294
41128,40289
41127,40283
41127,40278
41127,40161
41127,40156
41128,40150
41129,40145
41131,40139
41133,40134
41136,40129
41140,40125
41144,40120
41148,40116
41152,40113
41157,40110
41162,40108
41168,40106
41173,40104
41179,40104
41185,40103
41320,40103
41326,40104
" /> 
<polyline style="fill-rule:evenodd;"
points="46219,25108
46224,25109
46230,25110
46235,25112
46240,25114
46245,25117
46250,25121
46254,25125
46258,25129
46261,25133
46264,25138
46267,25143
46269,25149
46270,25154
46271,25160
46271,25166
46271,25301
46271,25307
46270,25313
46269,25318
46267,25324
46264,25329
46261,25334
46258,25338
46254,25342
46250,25346
46245,25350
46240,25353
46235,25355
46230,25357
46224,25358
46219,25359
46213,25359
46097,25359
46091,25359
46086,25358
46080,25357
46075,25355
46070,25353
46065,25350
46060,25346
46056,25342
46052,25338
46049,25334
46046,25329
46043,25324
46041,25318
46040,25313
46039,25307
46039,25301
46039,25166
46039,25160
46040,25154
46041,25149
46043,25143
46046,25138
46049,25133
46052,25129
46056,25125
46060,25121
46065,25117
46070,25114
46075,25112
46080,25110
46086,25109
46091,25108
46097,25108
46213,25108
46219,25108
" /> 
<polyline style="fill-rule:evenodd;"
points="45837,25108
45842,25109
45848,25110
45853,25112
45859,25114
45863,25117
45868,25121
45872,25125
45876,25129
45879,25133
45882,25138
45885,25143
45887,25149
45888,25154
45889,25160
45889,25166
45889,25301
45889,25307
45888,25313
45887,25318
45885,25324
45882,25329
45879,25334
45876,25338
45872,25342
45868,25346
45863,25350
45859,25353
45853,25355
45848,25357
45842,25358
45837,25359
45831,25359
45715,25359
45709,25359
45704,25358
45698,25357
45693,25355
45688,25353
45683,25350
45678,25346
45674,25342
45670,25338
45667,25334
45664,25329
45661,25324
45659,25318
45658,25313
45657,25307
45657,25301
45657,25166
45657,25160
45658,25154
45659,25149
45661,25143
45664,25138
45667,25133
45670,25129
45674,25125
45678,25121
45683,25117
45688,25114
45693,25112
45698,25110
45704,25109
45709,25108
45715,25108
45831,25108
45837,25108
" /> 
<polyline style="fill-rule:evenodd;"
points="45837,25883
45842,25884
45848,25885
45853,25887
45859,25889
45863,25892
45868,25896
45872,25900
45876,25904
45879,25908
45882,25913
45885,25918
45887,25924
45888,25929
45889,25935
45889,25941
45889,26076
45889,26082
45888,26088
45887,26093
45885,26099
45882,26104
45879,26109
45876,26113
45872,26117
45868,26121
45863,26125
45859,26128
45853,26130
45848,26132
45842,26133
45837,26134
45831,26134
45715,26134
45709,26134
45704,26133
45698,26132
45693,26130
45688,26128
45683,26125
45678,26121
45674,26117
45670,26113
45667,26109
45664,26104
45661,26099
45659,26093
45658,26088
45657,26082
45657,26076
45657,25941
45657,25935
45658,25929
45659,25924
45661,25918
45664,25913
45667,25908
45670,25904
45674,25900
45678,25896
45683,25892
45688,25889
45693,25887
45698,25885
45704,25884
45709,25883
45715,25883
45831,25883
45837,25883
" /> 
<polyline style="fill-rule:evenodd;"
points="46219,25883
46224,25884
46230,25885
46235,25887
46240,25889
46245,25892
46250,25896
46254,25900
46258,25904
46261,25908
46264,25913
46267,25918
46269,25924
46270,25929
46271,25935
46271,25941
46271,26076
46271,26082
46270,26088
46269,26093
46267,26099
46264,26104
46261,26109
46258,26113
46254,26117
46250,26121
46245,26125
46240,26128
46235,26130
46230,26132
46224,26133
46219,26134
46213,26134
46097,26134
46091,26134
46086,26133
46080,26132
46075,26130
46070,26128
46065,26125
46060,26121
46056,26117
46052,26113
46049,26109
46046,26104
46043,26099
46041,26093
46040,26088
46039,26082
46039,26076
46039,25941
46039,25935
46040,25929
46041,25924
46043,25918
46046,25913
46049,25908
46052,25904
46056,25900
46060,25896
46065,25892
46070,25889
46075,25887
46080,25885
46086,25884
46091,25883
46097,25883
46213,25883
46219,25883
" /> 
<polyline style="fill-rule:evenodd;"
points="44864,28767
44870,28768
44875,28769
44880,28771
44886,28773
44891,28776
44895,28780
44899,28784
44903,28788
44907,28792
44909,28797
44912,28802
44914,28808
44915,28813
44916,28819
44916,28825
44916,28960
44916,28966
44915,28972
44914,28977
44912,28983
44909,28988
44907,28993
44903,28997
44899,29001
44895,29005
44891,29009
44886,29012
44880,29014
44875,29016
44870,29017
44864,29018
44858,29018
44742,29018
44736,29018
44731,29017
44725,29016
44720,29014
44715,29012
44710,29009
44705,29005
44701,29001
44697,28997
44694,28993
44691,28988
44688,28983
44687,28977
44685,28972
44684,28966
44684,28960
44684,28825
44684,28819
44685,28813
44687,28808
44688,28802
44691,28797
44694,28792
44697,28788
44701,28784
44705,28780
44710,28776
44715,28773
44720,28771
44725,28769
44731,28768
44736,28767
44742,28767
44858,28767
44864,28767
" /> 
<polyline style="fill-rule:evenodd;"
points="44482,28767
44488,28768
44493,28769
44499,28771
44504,28773
44509,28776
44513,28780
44517,28784
44521,28788
44525,28792
44528,28797
44530,28802
44532,28808
44533,28813
44534,28819
44534,28825
44534,28960
44534,28966
44533,28972
44532,28977
44530,28983
44528,28988
44525,28993
44521,28997
44517,29001
44513,29005
44509,29009
44504,29012
44499,29014
44493,29016
44488,29017
44482,29018
44476,29018
44360,29018
44355,29018
44349,29017
44343,29016
44338,29014
44333,29012
44328,29009
44323,29005
44319,29001
44315,28997
44312,28993
44309,28988
44307,28983
44305,28977
44303,28972
44302,28966
44302,28960
44302,28825
44302,28819
44303,28813
44305,28808
44307,28802
44309,28797
44312,28792
44315,28788
44319,28784
44323,28780
44328,28776
44333,28773
44338,28771
44343,28769
44349,28768
44355,28767
44360,28767
44476,28767
44482,28767
" /> 
<polyline style="fill-rule:evenodd;"
points="43166,40104
43172,40104
43177,40106
43183,40108
43188,40110
43193,40113
43197,40116
43201,40120
43205,40125
43209,40129
43212,40134
43214,40139
43216,40145
43217,40150
43218,40156
43218,40161
43218,40278
43218,40283
43217,40289
43216,40294
43214,40300
43212,40305
43209,40310
43205,40314
43201,40319
43197,40322
43193,40326
43188,40329
43183,40331
43177,40333
43172,40334
43166,40335
43160,40336
43025,40336
43019,40335
43013,40334
43008,40333
43002,40331
42997,40329
42992,40326
42988,40322
42984,40319
42980,40314
42976,40310
42973,40305
42971,40300
42969,40294
42968,40289
42967,40283
42967,40278
42967,40161
42967,40156
42968,40150
42969,40145
42971,40139
42973,40134
42976,40129
42980,40125
42984,40120
42988,40116
42992,40113
42997,40110
43002,40108
43008,40106
43013,40104
43019,40104
43025,40103
43160,40103
43166,40104
" /> 
<polyline style="fill-rule:evenodd;"
points="43166,39722
43172,39723
43177,39724
43183,39726
43188,39728
43193,39731
43197,39735
43201,39738
43205,39743
43209,39747
43212,39752
43214,39757
43216,39763
43217,39768
43218,39774
43218,39779
43218,39896
43218,39901
43217,39907
43216,39912
43214,39918
43212,39923
43209,39928
43205,39932
43201,39937
43197,39941
43193,39944
43188,39947
43183,39949
43177,39951
43172,39953
43166,39953
43160,39954
43025,39954
43019,39953
43013,39953
43008,39951
43002,39949
42997,39947
42992,39944
42988,39941
42984,39937
42980,39932
42976,39928
42973,39923
42971,39918
42969,39912
42968,39907
42967,39901
42967,39896
42967,39779
42967,39774
42968,39768
42969,39763
42971,39757
42973,39752
42976,39747
42980,39743
42984,39738
42988,39735
42992,39731
42997,39728
43002,39726
43008,39724
43013,39723
43019,39722
43025,39721
43160,39721
43166,39722
" /> 
<polyline style="fill-rule:evenodd;"
points="42706,39722
42712,39723
42717,39724
42723,39726
42728,39728
42733,39731
42737,39735
42741,39738
42745,39743
42749,39747
42752,39752
42754,39757
42756,39763
42757,39768
42758,39774
42758,39779
42758,39896
42758,39901
42757,39907
42756,39912
42754,39918
42752,39923
42749,39928
42745,39932
42741,39937
42737,39941
42733,39944
42728,39947
42723,39949
42717,39951
42712,39953
42706,39953
42700,39954
42565,39954
42559,39953
42553,39953
42548,39951
42542,39949
42537,39947
42532,39944
42528,39941
42524,39937
42520,39932
42516,39928
42513,39923
42511,39918
42509,39912
42508,39907
42507,39901
42507,39896
42507,39779
42507,39774
42508,39768
42509,39763
42511,39757
42513,39752
42516,39747
42520,39743
42524,39738
42528,39735
42532,39731
42537,39728
42542,39726
42548,39724
42553,39723
42559,39722
42565,39721
42700,39721
42706,39722
" /> 
<polyline style="fill-rule:evenodd;"
points="42706,40104
42712,40104
42717,40106
42723,40108
42728,40110
42733,40113
42737,40116
42741,40120
42745,40125
42749,40129
42752,40134
42754,40139
42756,40145
42757,40150
42758,40156
42758,40161
42758,40278
42758,40283
42757,40289
42756,40294
42754,40300
42752,40305
42749,40310
42745,40314
42741,40319
42737,40322
42733,40326
42728,40329
42723,40331
42717,40333
42712,40334
42706,40335
42700,40336
42565,40336
42559,40335
42553,40334
42548,40333
42542,40331
42537,40329
42532,40326
42528,40322
42524,40319
42520,40314
42516,40310
42513,40305
42511,40300
42509,40294
42508,40289
42507,40283
42507,40278
42507,40161
42507,40156
42508,40150
42509,40145
42511,40139
42513,40134
42516,40129
42520,40125
42524,40120
42528,40116
42532,40113
42537,40110
42542,40108
42548,40106
42553,40104
42559,40104
42565,40103
42700,40103
42706,40104
" /> 
<polyline style="fill-rule:evenodd;"
points="42246,39722
42252,39723
42257,39724
42263,39726
42268,39728
42273,39731
42277,39735
42281,39738
42285,39743
42289,39747
42292,39752
42294,39757
42296,39763
42297,39768
42298,39774
42298,39779
42298,39896
42298,39901
42297,39907
42296,39912
42294,39918
42292,39923
42289,39928
42285,39932
42281,39937
42277,39941
42273,39944
42268,39947
42263,39949
42257,39951
42252,39953
42246,39953
42240,39954
42105,39954
42099,39953
42093,39953
42088,39951
42082,39949
42077,39947
42072,39944
42068,39941
42064,39937
42060,39932
42056,39928
42053,39923
42051,39918
42049,39912
42048,39907
42047,39901
42047,39896
42047,39779
42047,39774
42048,39768
42049,39763
42051,39757
42053,39752
42056,39747
42060,39743
42064,39738
42068,39735
42072,39731
42077,39728
42082,39726
42088,39724
42093,39723
42099,39722
42105,39721
42240,39721
42246,39722
" /> 
<polyline style="fill-rule:evenodd;"
points="42246,40104
42252,40104
42257,40106
42263,40108
42268,40110
42273,40113
42277,40116
42281,40120
42285,40125
42289,40129
42292,40134
42294,40139
42296,40145
42297,40150
42298,40156
42298,40161
42298,40278
42298,40283
42297,40289
42296,40294
42294,40300
42292,40305
42289,40310
42285,40314
42281,40319
42277,40322
42273,40326
42268,40329
42263,40331
42257,40333
42252,40334
42246,40335
42240,40336
42105,40336
42099,40335
42093,40334
42088,40333
42082,40331
42077,40329
42072,40326
42068,40322
42064,40319
42060,40314
42056,40310
42053,40305
42051,40300
42049,40294
42048,40289
42047,40283
42047,40278
42047,40161
42047,40156
42048,40150
42049,40145
42051,40139
42053,40134
42056,40129
42060,40125
42064,40120
42068,40116
42072,40113
42077,40110
42082,40108
42088,40106
42093,40104
42099,40104
42105,40103
42240,40103
42246,40104
" /> 
<polyline style="fill-rule:evenodd;"
points="39164,25897
39169,25898
39175,25900
39180,25902
39185,25904
39190,25907
39195,25910
39199,25914
39203,25918
39206,25923
39209,25928
39212,25933
39214,25938
39215,25944
39216,25950
39216,25955
39216,26091
39216,26097
39215,26102
39214,26108
39212,26113
39209,26118
39206,26123
39203,26128
39199,26132
39195,26136
39190,26139
39185,26142
39180,26145
39175,26147
39169,26148
39164,26149
39158,26149
39042,26149
39036,26149
39030,26148
39025,26147
39020,26145
39014,26142
39010,26139
39005,26136
39001,26132
38997,26128
38994,26123
38991,26118
38988,26113
38986,26108
38985,26102
38984,26097
38984,26091
38984,25955
38984,25950
38985,25944
38986,25938
38988,25933
38991,25928
38994,25923
38997,25918
39001,25914
39005,25910
39010,25907
39014,25904
39020,25902
39025,25900
39030,25898
39036,25897
39042,25897
39158,25897
39164,25897
" /> 
<polyline style="fill-rule:evenodd;"
points="39546,25897
39551,25898
39557,25900
39562,25902
39567,25904
39572,25907
39577,25910
39581,25914
39585,25918
39588,25923
39591,25928
39594,25933
39595,25938
39597,25944
39598,25950
39598,25955
39598,26091
39598,26097
39597,26102
39595,26108
39594,26113
39591,26118
39588,26123
39585,26128
39581,26132
39577,26136
39572,26139
39567,26142
39562,26145
39557,26147
39551,26148
39546,26149
39540,26149
39424,26149
39418,26149
39412,26148
39407,26147
39401,26145
39396,26142
39391,26139
39387,26136
39383,26132
39379,26128
39375,26123
39372,26118
39370,26113
39368,26108
39367,26102
39366,26097
39366,26091
39366,25955
39366,25950
39367,25944
39368,25938
39370,25933
39372,25928
39375,25923
39379,25918
39383,25914
39387,25910
39391,25907
39396,25904
39401,25902
39407,25900
39412,25898
39418,25897
39424,25897
39540,25897
39546,25897
" /> 
<polyline style="fill-rule:evenodd;"
points="38758,25897
38764,25898
38769,25900
38775,25902
38780,25904
38785,25907
38789,25910
38794,25914
38797,25918
38801,25923
38804,25928
38806,25933
38808,25938
38809,25944
38810,25950
38811,25955
38811,26091
38810,26097
38809,26102
38808,26108
38806,26113
38804,26118
38801,26123
38797,26128
38794,26132
38789,26136
38785,26139
38780,26142
38775,26145
38769,26147
38764,26148
38758,26149
38752,26149
38636,26149
38631,26149
38625,26148
38619,26147
38614,26145
38609,26142
38604,26139
38599,26136
38595,26132
38591,26128
38588,26123
38585,26118
38583,26113
38581,26108
38579,26102
38579,26097
38578,26091
38578,25955
38579,25950
38579,25944
38581,25938
38583,25933
38585,25928
38588,25923
38591,25918
38595,25914
38599,25910
38604,25907
38609,25904
38614,25902
38619,25900
38625,25898
38631,25897
38636,25897
38752,25897
38758,25897
" /> 
<polyline style="fill-rule:evenodd;"
points="38376,25897
38382,25898
38387,25900
38393,25902
38398,25904
38403,25907
38407,25910
38412,25914
38415,25918
38419,25923
38422,25928
38424,25933
38426,25938
38428,25944
38428,25950
38429,25955
38429,26091
38428,26097
38428,26102
38426,26108
38424,26113
38422,26118
38419,26123
38415,26128
38412,26132
38407,26136
38403,26139
38398,26142
38393,26145
38387,26147
38382,26148
38376,26149
38371,26149
38254,26149
38249,26149
38243,26148
38238,26147
38232,26145
38227,26142
38222,26139
38218,26136
38213,26132
38210,26128
38206,26123
38203,26118
38201,26113
38199,26108
38197,26102
38197,26097
38196,26091
38196,25955
38197,25950
38197,25944
38199,25938
38201,25933
38203,25928
38206,25923
38210,25918
38213,25914
38218,25910
38222,25907
38227,25904
38232,25902
38238,25900
38243,25898
38249,25897
38254,25897
38371,25897
38376,25897
" /> 
<polyline style="fill-rule:evenodd;"
points="39368,28240
39374,28241
39380,28242
39385,28244
39390,28247
39395,28249
39400,28253
39404,28257
39408,28261
39411,28265
39414,28270
39416,28276
39418,28281
39420,28286
39420,28292
39421,28298
39421,28434
39420,28439
39420,28445
39418,28450
39416,28456
39414,28461
39411,28466
39408,28470
39404,28475
39400,28478
39395,28482
39390,28485
39385,28487
39380,28489
39374,28491
39368,28491
39363,28492
39247,28492
39241,28491
39235,28491
39230,28489
39224,28487
39219,28485
39214,28482
39210,28478
39205,28475
39202,28470
39198,28466
39195,28461
39193,28456
39191,28450
39190,28445
39189,28439
39188,28434
39188,28298
39189,28292
39190,28286
39191,28281
39193,28276
39195,28270
39198,28265
39202,28261
39205,28257
39210,28253
39214,28249
39219,28247
39224,28244
39230,28242
39235,28241
39241,28240
39247,28240
39363,28240
39368,28240
" /> 
<polyline style="fill-rule:evenodd;"
points="38986,28240
38992,28241
38998,28242
39003,28244
39008,28247
39013,28249
39018,28253
39022,28257
39026,28261
39029,28265
39032,28270
39034,28276
39036,28281
39038,28286
39039,28292
39039,28298
39039,28434
39039,28439
39038,28445
39036,28450
39034,28456
39032,28461
39029,28466
39026,28470
39022,28475
39018,28478
39013,28482
39008,28485
39003,28487
38998,28489
38992,28491
38986,28491
38981,28492
38865,28492
38859,28491
38853,28491
38848,28489
38842,28487
38837,28485
38832,28482
38828,28478
38824,28475
38820,28470
38816,28466
38813,28461
38811,28456
38809,28450
38808,28445
38807,28439
38807,28434
38807,28298
38807,28292
38808,28286
38809,28281
38811,28276
38813,28270
38816,28265
38820,28261
38824,28257
38828,28253
38832,28249
38837,28247
38842,28244
38848,28242
38853,28241
38859,28240
38865,28240
38981,28240
38986,28240
" /> 
<polyline style="fill-rule:evenodd;"
points="38160,28220
38165,28221
38171,28222
38176,28224
38181,28227
38186,28230
38191,28233
38195,28237
38199,28241
38202,28246
38205,28251
38208,28256
38210,28261
38211,28267
38212,28272
38212,28278
38212,28414
38212,28420
38211,28425
38210,28431
38208,28436
38205,28441
38202,28446
38199,28451
38195,28455
38191,28459
38186,28462
38181,28465
38176,28468
38171,28469
38165,28471
38160,28472
38154,28472
38038,28472
38032,28472
38027,28471
38021,28469
38016,28468
38011,28465
38006,28462
38001,28459
37997,28455
37993,28451
37990,28446
37987,28441
37984,28436
37982,28431
37981,28425
37980,28420
37980,28414
37980,28278
37980,28272
37981,28267
37982,28261
37984,28256
37987,28251
37990,28246
37993,28241
37997,28237
38001,28233
38006,28230
38011,28227
38016,28224
38021,28222
38027,28221
38032,28220
38038,28220
38154,28220
38160,28220
" /> 
<polyline style="fill-rule:evenodd;"
points="38542,28220
38547,28221
38553,28222
38558,28224
38563,28227
38568,28230
38573,28233
38577,28237
38581,28241
38584,28246
38587,28251
38590,28256
38591,28261
38593,28267
38594,28272
38594,28278
38594,28414
38594,28420
38593,28425
38591,28431
38590,28436
38587,28441
38584,28446
38581,28451
38577,28455
38573,28459
38568,28462
38563,28465
38558,28468
38553,28469
38547,28471
38542,28472
38536,28472
38420,28472
38414,28472
38408,28471
38403,28469
38398,28468
38392,28465
38388,28462
38383,28459
38379,28455
38375,28451
38371,28446
38369,28441
38366,28436
38364,28431
38363,28425
38362,28420
38362,28414
38362,28278
38362,28272
38363,28267
38364,28261
38366,28256
38369,28251
38371,28246
38375,28241
38379,28237
38383,28233
38388,28230
38392,28227
38398,28224
38403,28222
38408,28221
38414,28220
38420,28220
38536,28220
38542,28220
" /> 
<polyline style="fill-rule:evenodd;"
points="37688,28258
37696,28259
37704,28261
37712,28264
37720,28268
37727,28272
37734,28277
37740,28283
37746,28289
37751,28296
37755,28303
37759,28311
37762,28318
37764,28327
37765,28335
37765,28343
37765,28545
37765,28554
37764,28562
37762,28570
37759,28578
37755,28586
37751,28593
37746,28600
37740,28606
37734,28612
37727,28617
37720,28621
37712,28625
37704,28628
37696,28630
37688,28631
37679,28631
37507,28631
37498,28631
37490,28630
37482,28628
37474,28625
37466,28621
37459,28617
37452,28612
37446,28606
37440,28600
37435,28593
37431,28586
37427,28578
37424,28570
37422,28562
37421,28554
37421,28545
37421,28343
37421,28335
37422,28327
37424,28318
37427,28311
37431,28303
37435,28296
37440,28289
37446,28283
37452,28277
37459,28272
37466,28268
37474,28264
37482,28261
37490,28259
37498,28258
37507,28257
37679,28257
37688,28258
" /> 
<polyline style="fill-rule:evenodd;"
points="37067,28258
37076,28259
37084,28261
37092,28264
37100,28268
37107,28272
37114,28277
37120,28283
37126,28289
37131,28296
37135,28303
37139,28311
37141,28318
37144,28327
37145,28335
37145,28343
37145,28545
37145,28554
37144,28562
37141,28570
37139,28578
37135,28586
37131,28593
37126,28600
37120,28606
37114,28612
37107,28617
37100,28621
37092,28625
37084,28628
37076,28630
37067,28631
37059,28631
36887,28631
36878,28631
36870,28630
36862,28628
36854,28625
36846,28621
36839,28617
36832,28612
36826,28606
36820,28600
36815,28593
36811,28586
36807,28578
36804,28570
36802,28562
36801,28554
36801,28545
36801,28343
36801,28335
36802,28327
36804,28318
36807,28311
36811,28303
36815,28296
36820,28289
36826,28283
36832,28277
36839,28272
36846,28268
36854,28264
36862,28261
36870,28259
36878,28258
36887,28257
37059,28257
37067,28258
" /> 
<polyline style="fill-rule:evenodd;"
points="40503,28277
40511,28279
40519,28281
40527,28284
40535,28287
40542,28292
40549,28297
40555,28302
40561,28309
40566,28315
40570,28323
40574,28330
40577,28338
40579,28346
40580,28355
40580,28363
40580,28565
40580,28573
40579,28582
40577,28590
40574,28598
40570,28606
40566,28613
40561,28620
40555,28626
40549,28632
40542,28637
40535,28641
40527,28645
40519,28647
40511,28649
40503,28651
40494,28651
40322,28651
40313,28651
40305,28649
40297,28647
40289,28645
40281,28641
40274,28637
40267,28632
40261,28626
40255,28620
40250,28613
40246,28606
40242,28598
40239,28590
40237,28582
40236,28573
40236,28565
40236,28363
40236,28355
40237,28346
40239,28338
40242,28330
40246,28323
40250,28315
40255,28309
40261,28302
40267,28297
40274,28292
40281,28287
40289,28284
40297,28281
40305,28279
40313,28277
40322,28277
40494,28277
40503,28277
" /> 
<polyline style="fill-rule:evenodd;"
points="39882,28277
39891,28279
39899,28281
39907,28284
39915,28287
39922,28292
39929,28297
39935,28302
39941,28309
39946,28315
39950,28323
39954,28330
39956,28338
39958,28346
39960,28355
39960,28363
39960,28565
39960,28573
39958,28582
39956,28590
39954,28598
39950,28606
39946,28613
39941,28620
39935,28626
39929,28632
39922,28637
39915,28641
39907,28645
39899,28647
39891,28649
39882,28651
39874,28651
39702,28651
39693,28651
39685,28649
39677,28647
39669,28645
39661,28641
39654,28637
39647,28632
39641,28626
39635,28620
39630,28613
39626,28606
39622,28598
39619,28590
39617,28582
39616,28573
39616,28565
39616,28363
39616,28355
39617,28346
39619,28338
39622,28330
39626,28323
39630,28315
39635,28309
39641,28302
39647,28297
39654,28292
39661,28287
39669,28284
39677,28281
39685,28279
39693,28277
39702,28277
39874,28277
39882,28277
" /> 
<polyline style="fill-rule:evenodd;"
points="38179,26507
38435,26507
38435,26988
38179,26988
38179,26507
" /> 
<polyline style="fill-rule:evenodd;"
points="37805,26507
38061,26507
38061,26988
37805,26988
37805,26507
" /> 
<polyline style="fill-rule:evenodd;"
points="37431,26507
37687,26507
37687,26988
37431,26988
37431,26507
" /> 
<polyline style="fill-rule:evenodd;"
points="37431,27539
37687,27539
37687,28019
37431,28019
37431,27539
" /> 
<polyline style="fill-rule:evenodd;"
points="38179,27539
38435,27539
38435,28019
38179,28019
38179,27539
" /> 
</g> 
</svg>
