<?xml version="1.0" standalone="no"?>
 <!DOCTYPE svg PUBLIC "-//W3C//DTD SVG 1.1//EN" 
 "http://www.w3.org/Graphics/SVG/1.1/DTD/svg11.dtd"> 
<svg xmlns="http://www.w3.org/2000/svg" version="1.1" 
    width="29.7002cm" height="21.0007cm" viewBox="0 0 116930 82680 ">
<title>SVG Picture created as High_range_accelerometer-F.SilkS.svg date 2019/10/12 16:16:47 </title>
  <desc>Picture generated by PCBNEW </desc>
<g style="fill:#000000; fill-opacity:1;stroke:#000000; stroke-opacity:1;
stroke-linecap:round; stroke-linejoin:round; "
 transform="translate(0 0) scale(1 1)">
</g>
<g style="fill:#000000; fill-opacity:0.0; 
stroke:#000000; stroke-width:-0.000393701; stroke-opacity:1; 
stroke-linecap:round; stroke-linejoin:round;">
</g>
<g style="fill:#000000; fill-opacity:0.0; 
stroke:#000000; stroke-width:39.3701; stroke-opacity:1; 
stroke-linecap:round; stroke-linejoin:round;">
<circle cx="42100" cy="31200" r="125.3" /> 
</g>
<g style="fill:#000000; fill-opacity:0.0; 
stroke:#000000; stroke-width:78.7402; stroke-opacity:1; 
stroke-linecap:round; stroke-linejoin:round;">
<circle cx="40866.1" cy="41397.6" r="126.046" /> 
<path d="M46023 30629
L45748 30826
" />
<path d="M46023 30669
L46023 30629
" />
<path d="M46692 30826
L45748 30826
" />
<path d="M45748 30826
L46023 31023
" />
<path d="M46023 31023
L46023 30669
" />
<path d="M46129 31032
L46208 31373
" />
<path d="M46373 31032
L46208 31373
L46144 31495
L46117 31519
L46065 31543
" />
<path d="M46889 30157
L46692 29881
" />
<path d="M46850 30157
L46889 30157
" />
<path d="M46496 30157
L46850 30157
" />
<path d="M46692 29881
L46496 30157
" />
<path d="M46692 30826
L46692 29881
" />
<path d="M47058 30231
L47369 29890
" />
<path d="M47101 29890
L47326 30231
" />
</g>
<g style="fill:#000000; fill-opacity:0.0; 
stroke:#000000; stroke-width:39.3701; stroke-opacity:1; 
stroke-linecap:round; stroke-linejoin:round;">
<circle cx="47000" cy="28580" r="44.7213" /> 
</g>
<g style="fill:#000000; fill-opacity:0.0; 
stroke:#000000; stroke-width:47.2441; stroke-opacity:1; 
stroke-linecap:round; stroke-linejoin:round;">
<path d="M42085 20929
L44570 20929
" />
<path d="M44570 20929
L44570 25543
" />
<path d="M44570 25543
L44011 25543
" />
<path d="M44011 25543
L44011 23771
" />
<path d="M44011 23771
L42085 23771
" />
<path d="M42085 20929
L39601 20929
" />
<path d="M39601 20929
L39601 25543
" />
<path d="M39601 25543
L40160 25543
" />
<path d="M40160 25543
L40160 23771
" />
<path d="M40160 23771
L42085 23771
" />
<path d="M43660 23334
L43660 21169
" />
<path d="M43660 21169
L43463 21169
" />
<path d="M43463 21169
L43463 23334
" />
<path d="M43463 23334
L43660 23334
" />
<path d="M42676 23334
L42676 21169
" />
<path d="M42676 21169
L42479 21169
" />
<path d="M42479 21169
L42479 23334
" />
<path d="M42479 23334
L42676 23334
" />
<path d="M41692 23334
L41692 21169
" />
<path d="M41692 21169
L41495 21169
" />
<path d="M41495 21169
L41495 23334
" />
<path d="M41495 23334
L41692 23334
" />
<path d="M40707 23334
L40707 21169
" />
<path d="M40707 21169
L40511 21169
" />
<path d="M40511 21169
L40511 23334
" />
<path d="M40511 23334
L40707 23334
" />
<path d="M43562 25185
L43680 25421
" />
<path d="M43680 25421
L43444 25421
" />
<path d="M43444 25421
L43562 25185
" />
<path d="M45947 27598
L45947 27395
" />
<path d="M46506 27598
L46506 27395
" />
<path d="M46724 24763
L47623 24763
" />
<path d="M47623 24763
L47623 24185
" />
<path d="M47623 24185
L46724 24185
" />
<path d="M47623 24937
L46724 24937
" />
<path d="M47623 25515
L47623 24937
" />
<path d="M46724 25515
L47623 25515
" />
<path d="M46724 26267
L47623 26267
" />
<path d="M47623 26267
L47623 25689
" />
<path d="M47623 25689
L46724 25689
" />
</g>
<g style="fill:#000000; fill-opacity:0.0; 
stroke:#000000; stroke-width:59.0551; stroke-opacity:1; 
stroke-linecap:round; stroke-linejoin:round;">
<path d="M38614 35521
L36252 35521
" />
<path d="M38614 29615
L38614 29812
" />
<path d="M36252 29615
L38614 29615
" />
<path d="M36252 29812
L36252 29615
" />
<path d="M37552 35166
L36607 35166
" />
<path d="M37552 35166
L38221 35166
" />
<path d="M37552 29970
L36607 29970
" />
<path d="M37552 29970
L38221 29970
" />
<path d="M38221 30954
L38221 35166
" />
<path d="M36607 35166
L36607 30954
" />
<path d="M36252 30166
L36607 30166
" />
<path d="M38221 30166
L38614 30166
" />
<path d="M38614 29812
L38614 30166
" />
<path d="M36607 34970
L36252 34970
" />
<path d="M38614 34970
L38614 35521
" />
<path d="M38221 34970
L38614 34970
" />
<path d="M36252 34970
L36252 35521
" />
<path d="M36252 29812
L36252 30166
" />
<path d="M36370 34458
L36607 34458
" />
<path d="M36370 34733
L36370 34458
" />
<path d="M36607 34733
L36370 34733
" />
<path d="M36370 30678
L36607 30678
" />
<path d="M36370 30403
L36370 30678
" />
<path d="M36607 30403
L36370 30403
" />
<path d="M36449 31662
L36449 34458
" />
<path d="M36607 29970
L36607 30954
" />
<path d="M36449 31662
L36449 30678
" />
<path d="M38221 29970
L38221 30954
" />
</g>
<g style="fill:#000000; fill-opacity:0.0; 
stroke:#000000; stroke-width:47.2441; stroke-opacity:1; 
stroke-linecap:round; stroke-linejoin:round;">
<path d="M38716 26917
L38716 27610
" />
<path d="M39925 27610
L39925 26653
" />
<path d="M42164 27861
L42164 27349
" />
<path d="M41258 28097
L41258 27349
" />
<path d="M47068 29354
L47068 29619
" />
<path d="M47068 29619
L46999 29619
" />
<path d="M45801 29354
L45801 29619
" />
<path d="M45801 29619
L45870 29619
" />
<path d="M45801 28617
L45801 28352
" />
<path d="M45801 28352
L45870 28352
" />
</g>
<g style="fill:#000000; fill-opacity:0.0; 
stroke:#000000; stroke-width:59.0551; stroke-opacity:1; 
stroke-linecap:round; stroke-linejoin:round;">
<path d="M40393 41172
L40393 43535
" />
<path d="M43542 43535
L43542 42354
" />
<path d="M43542 42354
L43542 41172
" />
<path d="M43542 41172
L40393 41172
" />
<path d="M40393 43535
L43542 43535
" />
<path d="M41082 34893
L41013 34824
" />
<path d="M40442 35533
L40373 35464
" />
</g>
<g style="fill:#000000; fill-opacity:0.0; 
stroke:#000000; stroke-width:47.2441; stroke-opacity:1; 
stroke-linecap:round; stroke-linejoin:round;">
<path d="M44260 32795
L44413 32948
" />
<path d="M44413 32948
L44260 33101
" />
<path d="M41949 35106
L42103 35259
" />
<path d="M42103 35259
L42256 35106
" />
<path d="M39945 33101
L39792 32948
" />
<path d="M39792 32948
L39945 32795
" />
<path d="M42256 30791
L42033 30568
" />
<path d="M37736 38898
L38444 38898
" />
<path d="M38444 38898
L38444 39233
" />
<path d="M37736 42009
L38425 42009
" />
<path d="M38425 42009
L38444 42009
" />
<path d="M38444 42009
L38444 41654
" />
<path d="M36889 38898
L36417 38898
" />
<path d="M38680 39942
L38759 39863
" />
<path d="M38759 39863
L38759 40020
" />
<path d="M38759 40020
L38680 39942
" />
<path d="M36889 42009
L36417 42009
" />
<path d="M38444 39233
L38779 39233
" />
<path d="M38779 39233
L38779 39784
" />
<path d="M38444 41654
L38779 41654
" />
<path d="M38779 41654
L38779 41123
" />
<path d="M36698 28734
L37598 28734
" />
<path d="M36698 28155
L36698 28734
" />
<path d="M37598 28155
L36698 28155
" />
<path d="M39783 28753
L40683 28753
" />
<path d="M40683 28753
L40683 28175
" />
<path d="M40683 28175
L39783 28175
" />
<path d="M37318 26917
L37318 27610
" />
<path d="M38527 27610
L38527 26653
" />
</g>
<g style="fill:#000000; fill-opacity:0.0; 
stroke:#000000; stroke-width:59.0551; stroke-opacity:1; 
stroke-linecap:round; stroke-linejoin:round;">
<path d="M42300 25174
L42300 25493
L42318 25530
L42337 25549
L42375 25568
L42450 25568
L42487 25549
L42506 25530
L42525 25493
L42525 25174
" />
<path d="M42918 25568
L42693 25568
" />
<path d="M42806 25568
L42806 25174
L42768 25230
L42731 25268
L42693 25286
" />
<path d="M45620 27753
L45639 27771
L45658 27828
L45658 27865
L45639 27921
L45601 27959
L45564 27978
L45489 27996
L45433 27996
L45358 27978
L45320 27959
L45283 27921
L45264 27865
L45264 27828
L45283 27771
L45301 27753
" />
<path d="M45301 27603
L45283 27584
L45264 27546
L45264 27453
L45283 27415
L45301 27396
L45339 27378
L45376 27378
L45433 27396
L45658 27621
L45658 27378
" />
<path d="M45264 27040
L45264 27115
L45283 27153
L45301 27171
L45358 27209
L45433 27228
L45583 27228
L45620 27209
L45639 27190
L45658 27153
L45658 27078
L45639 27040
L45620 27021
L45583 27003
L45489 27003
L45451 27021
L45433 27040
L45414 27078
L45414 27153
L45433 27190
L45451 27209
L45489 27228
" />
<path d="M46736 22922
L46736 22528
L46829 22528
L46886 22547
L46923 22584
L46942 22622
L46961 22697
L46961 22753
L46942 22828
L46923 22866
L46886 22903
L46829 22922
L46736 22922
" />
<path d="M47336 22922
L47111 22922
" />
<path d="M47223 22922
L47223 22528
L47186 22584
L47148 22622
L47111 22641
" />
<path d="M46736 23473
L46736 23079
L46829 23079
L46886 23098
L46923 23135
L46942 23173
L46961 23248
L46961 23304
L46942 23379
L46923 23417
L46886 23454
L46829 23473
L46736 23473
" />
<path d="M47111 23117
L47129 23098
L47167 23079
L47261 23079
L47298 23098
L47317 23117
L47336 23154
L47336 23192
L47317 23248
L47092 23473
L47336 23473
" />
<path d="M46736 23985
L46736 23591
L46829 23591
L46886 23610
L46923 23647
L46942 23685
L46961 23760
L46961 23816
L46942 23891
L46923 23929
L46886 23966
L46829 23985
L46736 23985
" />
<path d="M47092 23591
L47336 23591
L47204 23741
L47261 23741
L47298 23760
L47317 23779
L47336 23816
L47336 23910
L47317 23947
L47298 23966
L47261 23985
L47148 23985
L47111 23966
L47092 23947
" />
<path d="M38714 31814
L38320 31814
L38320 31664
L38339 31626
L38358 31608
L38395 31589
L38451 31589
L38489 31608
L38508 31626
L38526 31664
L38526 31814
" />
<path d="M38714 31214
L38714 31439
" />
<path d="M38714 31326
L38320 31326
L38376 31364
L38414 31401
L38433 31439
" />
<path d="M40079 27563
L40398 27563
L40435 27544
L40454 27526
L40473 27488
L40473 27413
L40454 27376
L40435 27357
L40398 27338
L40079 27338
" />
<path d="M40079 27188
L40079 26945
L40229 27076
L40229 27020
L40248 26982
L40267 26963
L40304 26945
L40398 26945
L40435 26963
L40454 26982
L40473 27020
L40473 27132
L40454 27170
L40435 27188
" />
<path d="M40678 27905
L40997 27905
L41035 27886
L41053 27867
L41072 27830
L41072 27755
L41053 27717
L41035 27699
L40997 27680
L40678 27680
" />
<path d="M40810 27324
L41072 27324
" />
<path d="M40660 27417
L40941 27511
L40941 27267
" />
<path d="M47183 29285
L47502 29285
L47540 29267
L47558 29248
L47577 29210
L47577 29135
L47558 29098
L47540 29079
L47502 29060
L47183 29060
" />
<path d="M47183 28704
L47183 28779
L47202 28817
L47221 28836
L47277 28873
L47352 28892
L47502 28892
L47540 28873
L47558 28854
L47577 28817
L47577 28742
L47558 28704
L47540 28686
L47502 28667
L47408 28667
L47371 28686
L47352 28704
L47333 28742
L47333 28817
L47352 28854
L47371 28873
L47408 28892
" />
<path d="M41668 40681
L41668 41000
L41686 41037
L41705 41056
L41743 41075
L41818 41075
L41855 41056
L41874 41037
L41893 41000
L41893 40681
" />
<path d="M42042 40681
L42305 40681
L42136 41075
" />
<path d="M41184 35900
L41051 36033
" />
<path d="M41237 35662
L41184 35900
L41422 35847
" />
<path d="M41475 35953
L41502 35953
L41541 35967
L41608 36033
L41621 36073
L41621 36099
L41608 36139
L41581 36165
L41528 36192
L41210 36192
L41382 36364
" />
<path d="M41180 30115
L40954 30340
L40941 30380
L40941 30407
L40954 30446
L41008 30499
L41047 30513
L41074 30513
L41114 30499
L41339 30274
" />
<path d="M41604 30539
L41471 30407
L41326 30526
L41352 30526
L41392 30539
L41458 30605
L41471 30645
L41471 30672
L41458 30711
L41392 30778
L41352 30791
L41326 30791
L41286 30778
L41220 30711
L41206 30672
L41206 30645
" />
<path d="M43400 26255
L43419 26274
L43438 26330
L43438 26368
L43419 26424
L43381 26461
L43344 26480
L43269 26499
L43213 26499
L43138 26480
L43100 26461
L43063 26424
L43044 26368
L43044 26330
L43063 26274
L43081 26255
" />
<path d="M43081 26105
L43063 26086
L43044 26049
L43044 25955
L43063 25918
L43081 25899
L43119 25880
L43156 25880
L43213 25899
L43438 26124
L43438 25880
" />
<path d="M41622 29091
L41603 29110
L41547 29129
L41509 29129
L41453 29110
L41416 29072
L41397 29035
L41378 28960
L41378 28904
L41397 28829
L41416 28791
L41453 28754
L41509 28735
L41547 28735
L41603 28754
L41622 28772
" />
<path d="M41959 28866
L41959 29129
" />
<path d="M41866 28716
L41772 28997
L42016 28997
" />
<path d="M43160 27605
L43179 27624
L43198 27680
L43198 27718
L43179 27774
L43141 27811
L43104 27830
L43029 27849
L42973 27849
L42898 27830
L42860 27811
L42823 27774
L42804 27718
L42804 27680
L42823 27624
L42841 27605
" />
<path d="M42804 27474
L42804 27211
L43198 27380
" />
<path d="M45459 32690
L45440 32709
L45384 32728
L45346 32728
L45290 32709
L45253 32671
L45234 32634
L45215 32559
L45215 32503
L45234 32428
L45253 32390
L45290 32353
L45346 32334
L45384 32334
L45440 32353
L45459 32371
" />
<path d="M45684 32503
L45646 32484
L45628 32465
L45609 32428
L45609 32409
L45628 32371
L45646 32353
L45684 32334
L45759 32334
L45796 32353
L45815 32371
L45834 32409
L45834 32428
L45815 32465
L45796 32484
L45759 32503
L45684 32503
L45646 32521
L45628 32540
L45609 32578
L45609 32653
L45628 32690
L45646 32709
L45684 32728
L45759 32728
L45796 32709
L45815 32690
L45834 32653
L45834 32578
L45815 32540
L45796 32521
L45759 32503
" />
<path d="M39253 32285
L39253 32312
L39226 32365
L39200 32391
L39146 32418
L39093 32418
L39054 32405
L38987 32365
L38948 32325
L38908 32259
L38895 32219
L38895 32166
L38921 32113
L38948 32086
L39001 32060
L39027 32060
" />
<path d="M39412 32179
L39465 32126
L39478 32086
L39478 32060
L39465 31994
L39425 31927
L39319 31821
L39279 31808
L39253 31808
L39213 31821
L39160 31874
L39146 31914
L39146 31941
L39160 31980
L39226 32047
L39266 32060
L39292 32060
L39332 32047
L39385 31994
L39398 31954
L39398 31927
L39385 31888
" />
<path d="M42306 30120
L42288 30139
L42231 30158
L42194 30158
L42138 30139
L42100 30101
L42081 30064
L42063 29989
L42063 29933
L42081 29858
L42100 29820
L42138 29783
L42194 29764
L42231 29764
L42288 29783
L42306 29801
" />
<path d="M42681 30158
L42456 30158
" />
<path d="M42569 30158
L42569 29764
L42531 29820
L42494 29858
L42456 29876
" />
<path d="M42925 29764
L42963 29764
L43000 29783
L43019 29801
L43038 29839
L43056 29914
L43056 30008
L43038 30083
L43019 30120
L43000 30139
L42963 30158
L42925 30158
L42888 30139
L42869 30120
L42850 30083
L42831 30008
L42831 29914
L42850 29839
L42869 29801
L42888 29783
L42925 29764
" />
<path d="M44461 30300
L44435 30300
L44382 30273
L44355 30247
L44329 30194
L44329 30141
L44342 30101
L44382 30035
L44421 29995
L44488 29955
L44527 29942
L44580 29942
L44633 29969
L44660 29995
L44686 30048
L44686 30075
" />
<path d="M44700 30592
L44541 30433
" />
<path d="M44620 30512
L44899 30234
L44832 30247
L44779 30247
L44740 30234
" />
<path d="M44965 30857
L44806 30698
" />
<path d="M44885 30777
L45164 30499
L45097 30512
L45044 30512
L45005 30499
" />
<path d="M42046 36240
L42028 36259
L41971 36278
L41934 36278
L41878 36259
L41840 36221
L41821 36184
L41803 36109
L41803 36053
L41821 35978
L41840 35940
L41878 35903
L41934 35884
L41971 35884
L42028 35903
L42046 35921
" />
<path d="M42421 36278
L42196 36278
" />
<path d="M42309 36278
L42309 35884
L42271 35940
L42234 35978
L42196 35996
" />
<path d="M42571 35921
L42590 35903
L42628 35884
L42721 35884
L42759 35903
L42778 35921
L42796 35959
L42796 35996
L42778 36053
L42553 36278
L42796 36278
" />
<path d="M44061 30660
L44035 30660
L43982 30633
L43955 30607
L43929 30554
L43929 30501
L43942 30461
L43982 30395
L44021 30355
L44088 30315
L44127 30302
L44180 30302
L44233 30329
L44260 30355
L44286 30408
L44286 30435
" />
<path d="M44300 30952
L44141 30793
" />
<path d="M44220 30872
L44499 30594
L44432 30607
L44379 30607
L44340 30594
" />
<path d="M44671 30766
L44843 30938
L44644 30952
L44684 30991
L44697 31031
L44697 31058
L44684 31097
L44618 31164
L44578 31177
L44552 31177
L44512 31164
L44432 31084
L44419 31044
L44419 31018
" />
<path d="M37000 36358
L37000 36384
L36973 36437
L36947 36464
L36894 36490
L36841 36490
L36801 36477
L36735 36437
L36695 36398
L36655 36331
L36642 36292
L36642 36239
L36669 36186
L36695 36159
L36748 36133
L36775 36133
" />
<path d="M37292 36119
L37133 36278
" />
<path d="M37212 36199
L36934 35920
L36947 35987
L36947 36040
L36934 36080
" />
<path d="M37345 35695
L37530 35881
" />
<path d="M37172 35655
L37305 35920
L37477 35748
" />
<path d="M37360 36678
L37360 36704
L37333 36757
L37307 36784
L37254 36810
L37201 36810
L37161 36797
L37095 36757
L37055 36718
L37015 36651
L37002 36612
L37002 36559
L37029 36506
L37055 36479
L37108 36453
L37135 36453
" />
<path d="M37652 36439
L37493 36598
" />
<path d="M37572 36519
L37294 36240
L37307 36307
L37307 36360
L37294 36400
" />
<path d="M37625 35909
L37493 36042
L37612 36187
L37612 36161
L37625 36121
L37691 36055
L37731 36042
L37758 36042
L37797 36055
L37864 36121
L37877 36161
L37877 36187
L37864 36227
L37797 36293
L37758 36307
L37731 36307
" />
<path d="M44300 34258
L44300 34284
L44273 34337
L44247 34364
L44194 34390
L44141 34390
L44101 34377
L44035 34337
L43995 34298
L43955 34231
L43942 34192
L43942 34139
L43969 34086
L43995 34059
L44048 34033
L44075 34033
" />
<path d="M44592 34019
L44433 34178
" />
<path d="M44512 34099
L44234 33820
L44247 33887
L44247 33940
L44234 33980
" />
<path d="M44552 33502
L44499 33555
L44486 33595
L44486 33622
L44499 33688
L44539 33754
L44645 33860
L44684 33873
L44711 33873
L44751 33860
L44804 33807
L44817 33767
L44817 33741
L44804 33701
L44737 33635
L44698 33622
L44671 33622
L44631 33635
L44578 33688
L44565 33728
L44565 33754
L44578 33794
" />
<path d="M44680 34618
L44680 34644
L44653 34697
L44627 34724
L44574 34750
L44521 34750
L44481 34737
L44415 34697
L44375 34658
L44335 34591
L44322 34552
L44322 34499
L44349 34446
L44375 34419
L44428 34393
L44455 34393
" />
<path d="M44972 34379
L44813 34538
" />
<path d="M44892 34459
L44614 34180
L44627 34247
L44627 34300
L44614 34340
" />
<path d="M44786 34008
L44972 33822
L45131 34220
" />
<path d="M42781 35560
L42755 35560
L42702 35533
L42675 35507
L42649 35454
L42649 35401
L42662 35361
L42702 35295
L42741 35255
L42808 35215
L42847 35202
L42900 35202
L42953 35229
L42980 35255
L43006 35308
L43006 35335
" />
<path d="M43020 35852
L42861 35693
" />
<path d="M42940 35772
L43219 35494
L43152 35507
L43099 35507
L43060 35494
" />
<path d="M43338 35852
L43325 35812
L43325 35785
L43338 35746
L43351 35732
L43391 35719
L43417 35719
L43457 35732
L43510 35785
L43523 35825
L43523 35852
L43510 35891
L43497 35905
L43457 35918
L43431 35918
L43391 35905
L43338 35852
L43298 35838
L43272 35838
L43232 35852
L43179 35905
L43166 35944
L43166 35971
L43179 36011
L43232 36064
L43272 36077
L43298 36077
L43338 36064
L43391 36011
L43404 35971
L43404 35944
L43391 35905
" />
<path d="M37740 37018
L37740 37044
L37713 37097
L37687 37124
L37634 37150
L37581 37150
L37541 37137
L37475 37097
L37435 37058
L37395 36991
L37382 36952
L37382 36899
L37409 36846
L37435 36819
L37488 36793
L37515 36793
" />
<path d="M38032 36779
L37873 36938
" />
<path d="M37952 36859
L37674 36580
L37687 36647
L37687 36700
L37674 36740
" />
<path d="M38164 36647
L38217 36594
L38230 36554
L38230 36527
L38217 36461
L38177 36395
L38071 36289
L38032 36276
L38005 36276
L37965 36289
L37912 36342
L37899 36382
L37899 36408
L37912 36448
L37979 36514
L38018 36527
L38045 36527
L38085 36514
L38138 36461
L38151 36421
L38151 36395
L38138 36355
" />
<path d="M44670 32078
L44670 32104
L44643 32157
L44617 32184
L44564 32210
L44511 32210
L44471 32197
L44405 32157
L44365 32118
L44325 32051
L44312 32012
L44312 31959
L44339 31906
L44365 31879
L44418 31853
L44445 31853
" />
<path d="M44551 31746
L44551 31720
L44564 31680
L44630 31614
L44670 31601
L44696 31601
L44736 31614
L44763 31640
L44789 31693
L44789 32012
L44962 31839
" />
<path d="M44856 31389
L44882 31362
L44922 31349
L44948 31349
L44988 31362
L45054 31402
L45121 31468
L45160 31534
L45174 31574
L45174 31601
L45160 31640
L45134 31667
L45094 31680
L45068 31680
L45028 31667
L44962 31627
L44895 31561
L44856 31495
L44842 31455
L44842 31428
L44856 31389
" />
<path d="M40181 36540
L40155 36540
L40102 36513
L40075 36487
L40049 36434
L40049 36381
L40062 36341
L40102 36275
L40141 36235
L40208 36195
L40247 36182
L40300 36182
L40353 36209
L40380 36235
L40406 36288
L40406 36315
" />
<path d="M40513 36421
L40539 36421
L40579 36434
L40645 36500
L40658 36540
L40658 36566
L40645 36606
L40619 36633
L40566 36659
L40247 36659
L40420 36832
" />
<path d="M40791 36646
L40963 36818
L40764 36832
L40804 36871
L40817 36911
L40817 36938
L40804 36977
L40738 37044
L40698 37057
L40672 37057
L40632 37044
L40552 36964
L40539 36924
L40539 36898
" />
<path d="M47480 27833
L47499 27851
L47518 27908
L47518 27945
L47499 28001
L47461 28039
L47424 28058
L47349 28076
L47293 28076
L47218 28058
L47180 28039
L47143 28001
L47124 27945
L47124 27908
L47143 27851
L47161 27833
" />
<path d="M47161 27683
L47143 27664
L47124 27626
L47124 27533
L47143 27495
L47161 27476
L47199 27458
L47236 27458
L47293 27476
L47518 27701
L47518 27458
" />
<path d="M47255 27120
L47518 27120
" />
<path d="M47105 27214
L47386 27308
L47386 27064
" />
<path d="M39381 35840
L39355 35840
L39302 35813
L39275 35787
L39249 35734
L39249 35681
L39262 35641
L39302 35575
L39341 35535
L39408 35495
L39447 35482
L39500 35482
L39553 35509
L39580 35535
L39606 35588
L39606 35615
" />
<path d="M39713 35721
L39739 35721
L39779 35734
L39845 35800
L39858 35840
L39858 35866
L39845 35906
L39819 35933
L39766 35959
L39447 35959
L39620 36132
" />
<path d="M40150 36105
L40017 35973
L39872 36092
L39898 36092
L39938 36105
L40004 36171
L40017 36211
L40017 36238
L40004 36277
L39938 36344
L39898 36357
L39872 36357
L39832 36344
L39766 36277
L39752 36238
L39752 36211
" />
<path d="M43715 39305
L43734 39324
L43753 39380
L43753 39418
L43734 39474
L43696 39511
L43659 39530
L43584 39549
L43528 39549
L43453 39530
L43415 39511
L43378 39474
L43359 39418
L43359 39380
L43378 39324
L43396 39305
" />
<path d="M43396 39155
L43378 39136
L43359 39099
L43359 39005
L43378 38968
L43396 38949
L43434 38930
L43471 38930
L43528 38949
L43753 39174
L43753 38930
" />
<path d="M43359 38799
L43359 38536
L43753 38705
" />
<path d="M38977 40585
L39258 40585
L39314 40603
L39352 40641
L39370 40697
L39370 40735
" />
<path d="M39370 40191
L39370 40416
" />
<path d="M39370 40304
L38977 40304
L39033 40341
L39070 40379
L39089 40416
" />
<path d="M39164 25690
L39145 25709
L39089 25728
L39051 25728
L38995 25709
L38958 25671
L38939 25634
L38920 25559
L38920 25503
L38939 25428
L38958 25390
L38995 25353
L39051 25334
L39089 25334
L39145 25353
L39164 25371
" />
<path d="M39539 25728
L39314 25728
" />
<path d="M39426 25728
L39426 25334
L39389 25390
L39351 25428
L39314 25446
" />
<path d="M38438 25703
L38419 25722
L38363 25741
L38325 25741
L38269 25722
L38232 25684
L38213 25647
L38194 25572
L38194 25516
L38213 25441
L38232 25403
L38269 25366
L38325 25347
L38363 25347
L38419 25366
L38438 25384
" />
<path d="M38569 25347
L38813 25347
L38682 25497
L38738 25497
L38775 25516
L38794 25534
L38813 25572
L38813 25666
L38794 25703
L38775 25722
L38738 25741
L38625 25741
L38588 25722
L38569 25703
" />
<path d="M39054 29200
L39035 29219
L38979 29238
L38941 29238
L38885 29219
L38848 29181
L38829 29144
L38810 29069
L38810 29013
L38829 28938
L38848 28900
L38885 28863
L38941 28844
L38979 28844
L39035 28863
L39054 28881
" />
<path d="M39410 28844
L39223 28844
L39204 29031
L39223 29013
L39260 28994
L39354 28994
L39391 29013
L39410 29031
L39429 29069
L39429 29163
L39410 29200
L39391 29219
L39354 29238
L39260 29238
L39223 29219
L39204 29200
" />
<path d="M38244 29200
L38225 29219
L38169 29238
L38131 29238
L38075 29219
L38038 29181
L38019 29144
L38000 29069
L38000 29013
L38019 28938
L38038 28900
L38075 28863
L38131 28844
L38169 28844
L38225 28863
L38244 28881
" />
<path d="M38581 28844
L38506 28844
L38469 28863
L38450 28881
L38413 28938
L38394 29013
L38394 29163
L38413 29200
L38431 29219
L38469 29238
L38544 29238
L38581 29219
L38600 29200
L38619 29163
L38619 29069
L38600 29031
L38581 29013
L38544 28994
L38469 28994
L38431 29013
L38413 29031
L38394 29069
" />
<path d="M36999 29238
L36999 28844
L37093 28844
L37149 28863
L37186 28900
L37205 28938
L37224 29013
L37224 29069
L37205 29144
L37186 29181
L37149 29219
L37093 29238
L36999 29238
" />
<path d="M37561 28975
L37561 29238
" />
<path d="M37468 28825
L37374 29106
L37618 29106
" />
<path d="M39807 29238
L39807 28844
L39901 28844
L39957 28863
L39995 28900
L40014 28938
L40032 29013
L40032 29069
L40014 29144
L39995 29181
L39957 29219
L39901 29238
L39807 29238
" />
<path d="M40389 28844
L40201 28844
L40182 29031
L40201 29013
L40239 28994
L40332 28994
L40370 29013
L40389 29031
L40407 29069
L40407 29163
L40389 29200
L40370 29219
L40332 29238
L40239 29238
L40201 29219
L40182 29200
" />
<path d="M36734 27559
L37053 27559
L37090 27541
L37109 27522
L37128 27484
L37128 27409
L37109 27372
L37090 27353
L37053 27334
L36734 27334
" />
<path d="M36771 27166
L36753 27147
L36734 27110
L36734 27016
L36753 26978
L36771 26960
L36809 26941
L36846 26941
L36903 26960
L37128 27185
L37128 26941
" />
<path d="M45944 22928
L45813 22740
" />
<path d="M45719 22928
L45719 22534
L45869 22534
L45906 22553
L45925 22571
L45944 22609
L45944 22665
L45925 22703
L45906 22721
L45869 22740
L45719 22740
" />
<path d="M46319 22928
L46094 22928
" />
<path d="M46206 22928
L46206 22534
L46169 22590
L46131 22628
L46094 22646
" />
<path d="M42908 26255
L42720 26386
" />
<path d="M42908 26480
L42514 26480
L42514 26330
L42533 26293
L42551 26274
L42589 26255
L42645 26255
L42683 26274
L42701 26293
L42720 26330
L42720 26480
" />
<path d="M42551 26105
L42533 26086
L42514 26049
L42514 25955
L42533 25918
L42551 25899
L42589 25880
L42626 25880
L42683 25899
L42908 26124
L42908 25880
" />
<path d="M43968 26255
L43780 26386
" />
<path d="M43968 26480
L43574 26480
L43574 26330
L43593 26293
L43611 26274
L43649 26255
L43705 26255
L43743 26274
L43761 26293
L43780 26330
L43780 26480
" />
<path d="M43574 26124
L43574 25880
L43724 26011
L43724 25955
L43743 25918
L43761 25899
L43799 25880
L43893 25880
L43930 25899
L43949 25918
L43968 25955
L43968 26068
L43949 26105
L43930 26124
" />
<path d="M41893 39305
L41705 39436
" />
<path d="M41893 39530
L41499 39530
L41499 39380
L41518 39343
L41536 39324
L41574 39305
L41630 39305
L41668 39324
L41686 39343
L41705 39380
L41705 39530
" />
<path d="M41630 38968
L41893 38968
" />
<path d="M41480 39061
L41761 39155
L41761 38911
" />
<path d="M41428 39305
L41240 39436
" />
<path d="M41428 39530
L41034 39530
L41034 39380
L41053 39343
L41071 39324
L41109 39305
L41165 39305
L41203 39324
L41221 39343
L41240 39380
L41240 39530
" />
<path d="M41034 38949
L41034 39136
L41221 39155
L41203 39136
L41184 39099
L41184 39005
L41203 38968
L41221 38949
L41259 38930
L41353 38930
L41390 38949
L41409 38968
L41428 39005
L41428 39099
L41409 39136
L41390 39155
" />
<path d="M45944 23473
L45813 23285
" />
<path d="M45719 23473
L45719 23079
L45869 23079
L45906 23098
L45925 23116
L45944 23154
L45944 23210
L45925 23248
L45906 23266
L45869 23285
L45719 23285
" />
<path d="M46281 23079
L46206 23079
L46169 23098
L46150 23116
L46113 23173
L46094 23248
L46094 23398
L46113 23435
L46131 23454
L46169 23473
L46244 23473
L46281 23454
L46300 23435
L46319 23398
L46319 23304
L46300 23266
L46281 23248
L46244 23229
L46169 23229
L46131 23248
L46113 23266
L46094 23304
" />
<path d="M45944 24018
L45813 23830
" />
<path d="M45719 24018
L45719 23624
L45869 23624
L45906 23643
L45925 23661
L45944 23699
L45944 23755
L45925 23793
L45906 23811
L45869 23830
L45719 23830
" />
<path d="M46075 23624
L46338 23624
L46169 24018
" />
<path d="M44544 28610
L44412 28422
" />
<path d="M44319 28610
L44319 28216
L44469 28216
L44506 28235
L44525 28254
L44544 28291
L44544 28348
L44525 28385
L44506 28404
L44469 28422
L44319 28422
" />
<path d="M44769 28385
L44731 28366
L44712 28348
L44694 28310
L44694 28291
L44712 28254
L44731 28235
L44769 28216
L44844 28216
L44881 28235
L44900 28254
L44919 28291
L44919 28310
L44900 28348
L44881 28366
L44844 28385
L44769 28385
L44731 28404
L44712 28422
L44694 28460
L44694 28535
L44712 28572
L44731 28591
L44769 28610
L44844 28610
L44881 28591
L44900 28572
L44919 28535
L44919 28460
L44900 28422
L44881 28404
L44844 28385
" />
<path d="M43288 39305
L43100 39436
" />
<path d="M43288 39530
L42894 39530
L42894 39380
L42913 39343
L42931 39324
L42969 39305
L43025 39305
L43063 39324
L43081 39343
L43100 39380
L43100 39530
" />
<path d="M43288 39118
L43288 39043
L43269 39005
L43250 38986
L43194 38949
L43119 38930
L42969 38930
L42931 38949
L42913 38968
L42894 39005
L42894 39080
L42913 39118
L42931 39136
L42969 39155
L43063 39155
L43100 39136
L43119 39118
L43138 39080
L43138 39005
L43119 38968
L43100 38949
L43063 38930
" />
<path d="M42823 39305
L42635 39436
" />
<path d="M42823 39530
L42429 39530
L42429 39380
L42448 39343
L42466 39324
L42504 39305
L42560 39305
L42598 39324
L42616 39343
L42635 39380
L42635 39530
" />
<path d="M42823 38930
L42823 39155
" />
<path d="M42823 39043
L42429 39043
L42485 39080
L42523 39118
L42541 39155
" />
<path d="M42429 38686
L42429 38649
L42448 38611
L42466 38593
L42504 38574
L42579 38555
L42673 38555
L42748 38574
L42785 38593
L42804 38611
L42823 38649
L42823 38686
L42804 38724
L42785 38743
L42748 38761
L42673 38780
L42579 38780
L42504 38761
L42466 38743
L42448 38724
L42429 38686
" />
<path d="M42358 39305
L42170 39436
" />
<path d="M42358 39530
L41964 39530
L41964 39380
L41983 39343
L42001 39324
L42039 39305
L42095 39305
L42133 39324
L42151 39343
L42170 39380
L42170 39530
" />
<path d="M42358 38930
L42358 39155
" />
<path d="M42358 39043
L41964 39043
L42020 39080
L42058 39118
L42076 39155
" />
<path d="M42358 38555
L42358 38780
" />
<path d="M42358 38668
L41964 38668
L42020 38705
L42058 38743
L42076 38780
" />
<path d="M44218 39305
L44030 39436
" />
<path d="M44218 39530
L43824 39530
L43824 39380
L43843 39343
L43861 39324
L43899 39305
L43955 39305
L43993 39324
L44011 39343
L44030 39380
L44030 39530
" />
<path d="M44218 38930
L44218 39155
" />
<path d="M44218 39043
L43824 39043
L43880 39080
L43918 39118
L43936 39155
" />
<path d="M43861 38780
L43843 38761
L43824 38724
L43824 38630
L43843 38593
L43861 38574
L43899 38555
L43936 38555
L43993 38574
L44218 38799
L44218 38555
" />
</g> 
</svg>
