<?xml version="1.0" standalone="no"?>
 <!DOCTYPE svg PUBLIC "-//W3C//DTD SVG 1.1//EN" 
 "http://www.w3.org/Graphics/SVG/1.1/DTD/svg11.dtd"> 
<svg xmlns="http://www.w3.org/2000/svg" version="1.1" 
    width="29.7002cm" height="21.0007cm" viewBox="0 0 116930 82680 ">
<title>SVG Picture created as High_range_accelerometer-F.Mask.svg date 2019/10/12 16:16:47 </title>
  <desc>Picture generated by PCBNEW </desc>
<g style="fill:#000000; fill-opacity:1;stroke:#000000; stroke-opacity:1;
stroke-linecap:round; stroke-linejoin:round; "
 transform="translate(0 0) scale(1 1)">
</g>
<g style="fill:#000000; fill-opacity:0.0; 
stroke:#000000; stroke-width:-0.000393701; stroke-opacity:1; 
stroke-linecap:round; stroke-linejoin:round;">
</g>
<g style="fill:#000000; fill-opacity:1.0; 
stroke:#000000; stroke-width:0; stroke-opacity:1; 
stroke-linecap:round; stroke-linejoin:round;">
<polyline style="fill-rule:evenodd;"
points="46151,43992
46193,44000
46311,44049
46416,44120
46418,44121
46508,44211
46579,44318
46628,44436
46653,44561
46653,44690
46628,44815
46579,44933
46508,45040
46418,45130
46418,45130
46311,45202
46193,45251
46151,45259
46067,45275
45939,45275
45856,45259
45814,45251
45696,45202
45589,45130
45589,45130
45499,45040
45427,44933
45378,44815
45353,44690
45353,44561
45378,44436
45427,44318
45499,44211
45589,44121
45591,44120
45696,44049
45814,44000
45856,43992
45939,43975
46067,43975
46151,43992
" /> 
<polyline style="fill-rule:evenodd;"
points="38277,43992
38319,44000
38437,44049
38542,44120
38544,44121
38634,44211
38705,44318
38754,44436
38779,44561
38779,44690
38754,44815
38705,44933
38634,45040
38544,45130
38544,45130
38437,45202
38319,45251
38277,45259
38193,45275
38065,45275
37982,45259
37940,45251
37822,45202
37715,45130
37715,45130
37625,45040
37553,44933
37504,44815
37479,44690
37479,44561
37504,44436
37553,44318
37625,44211
37715,44121
37716,44120
37822,44049
37940,44000
37982,43992
38065,43975
38193,43975
38277,43992
" /> 
<polyline style="fill-rule:evenodd;"
points="42913,43279
41022,43279
41022,41428
42913,41428
42913,43279
" /> 
<polyline style="fill-rule:evenodd;"
points="40610,43202
40176,43202
40176,43005
40610,43005
40610,43202
" /> 
<polyline style="fill-rule:evenodd;"
points="43759,43202
43325,43202
43325,43005
43759,43005
43759,43202
" /> 
<polyline style="fill-rule:evenodd;"
points="40610,42702
40176,42702
40176,42505
40610,42505
40610,42702
" /> 
<polyline style="fill-rule:evenodd;"
points="43759,42702
43325,42702
43325,42505
43759,42505
43759,42702
" /> 
<polyline style="fill-rule:evenodd;"
points="37697,42324
36908,42324
36908,41457
37697,41457
37697,42324
" /> 
<polyline style="fill-rule:evenodd;"
points="40610,42202
40176,42202
40176,42005
40610,42005
40610,42202
" /> 
<polyline style="fill-rule:evenodd;"
points="43759,42202
43325,42202
43325,42005
43759,42005
43759,42202
" /> 
<polyline style="fill-rule:evenodd;"
points="40610,41702
40176,41702
40176,41505
40610,41505
40610,41702
" /> 
<polyline style="fill-rule:evenodd;"
points="43759,41702
43325,41702
43325,41505
43759,41505
43759,41702
" /> 
<polyline style="fill-rule:evenodd;"
points="38567,41185
38610,41198
38650,41219
38684,41247
38712,41282
38733,41321
38746,41364
38751,41408
38746,41453
38733,41495
38712,41535
38684,41569
38650,41598
38610,41619
38567,41632
38534,41635
38433,41635
38400,41632
38357,41619
38318,41598
38283,41569
38255,41535
38234,41495
38221,41453
38216,41408
38221,41364
38234,41321
38255,41282
38283,41247
38318,41219
38357,41198
38400,41185
38433,41181
38534,41181
38567,41185
" /> 
<polyline style="fill-rule:evenodd;"
points="37697,41281
36908,41281
36908,40532
37697,40532
37697,41281
" /> 
<polyline style="fill-rule:evenodd;"
points="38641,41064
38070,41064
38070,39843
38641,39843
38641,41064
" /> 
<polyline style="fill-rule:evenodd;"
points="37697,40375
36908,40375
36908,39626
37697,39626
37697,40375
" /> 
<polyline style="fill-rule:evenodd;"
points="41363,40084
41372,40087
41379,40091
41386,40096
41391,40103
41395,40110
41397,40118
41399,40129
41399,40310
41397,40321
41395,40329
41391,40336
41386,40343
41379,40348
41372,40352
41363,40355
41353,40356
41152,40356
41142,40355
41133,40352
41126,40348
41119,40343
41114,40336
41110,40329
41108,40321
41106,40310
41106,40129
41108,40118
41110,40110
41114,40103
41119,40096
41126,40091
41133,40087
41142,40084
41152,40083
41353,40083
41363,40084
" /> 
<polyline style="fill-rule:evenodd;"
points="42280,40084
42289,40087
42296,40091
42303,40096
42308,40103
42312,40110
42314,40118
42316,40129
42316,40310
42314,40321
42312,40329
42308,40336
42303,40343
42296,40348
42289,40352
42280,40355
42270,40356
42069,40356
42059,40355
42050,40352
42043,40348
42036,40343
42031,40336
42027,40329
42025,40321
42023,40310
42023,40129
42025,40118
42027,40110
42031,40103
42036,40096
42043,40091
42050,40087
42059,40084
42069,40083
42270,40083
42280,40084
" /> 
<polyline style="fill-rule:evenodd;"
points="42743,40084
42752,40087
42759,40091
42766,40096
42771,40103
42775,40110
42777,40118
42779,40129
42779,40310
42777,40321
42775,40329
42771,40336
42766,40343
42759,40348
42752,40352
42743,40355
42733,40356
42532,40356
42522,40355
42513,40352
42506,40348
42499,40343
42494,40336
42490,40329
42488,40321
42486,40310
42486,40129
42488,40118
42490,40110
42494,40103
42499,40096
42506,40091
42513,40087
42522,40084
42532,40083
42733,40083
42743,40084
" /> 
<polyline style="fill-rule:evenodd;"
points="41823,40084
41832,40087
41839,40091
41846,40096
41851,40103
41855,40110
41857,40118
41859,40129
41859,40310
41857,40321
41855,40329
41851,40336
41846,40343
41839,40348
41832,40352
41823,40355
41813,40356
41612,40356
41602,40355
41593,40352
41586,40348
41579,40343
41574,40336
41570,40329
41568,40321
41566,40310
41566,40129
41568,40118
41570,40110
41574,40103
41579,40096
41586,40091
41593,40087
41602,40084
41612,40083
41813,40083
41823,40084
" /> 
<polyline style="fill-rule:evenodd;"
points="43203,40084
43212,40087
43219,40091
43226,40096
43231,40103
43235,40110
43237,40118
43239,40129
43239,40310
43237,40321
43235,40329
43231,40336
43226,40343
43219,40348
43212,40352
43203,40355
43193,40356
42992,40356
42982,40355
42973,40352
42966,40348
42959,40343
42954,40336
42950,40329
42948,40321
42946,40310
42946,40129
42948,40118
42950,40110
42954,40103
42959,40096
42966,40091
42973,40087
42982,40084
42992,40083
43193,40083
43203,40084
" /> 
<polyline style="fill-rule:evenodd;"
points="43663,40084
43672,40087
43679,40091
43686,40096
43691,40103
43695,40110
43697,40118
43699,40129
43699,40310
43697,40321
43695,40329
43691,40336
43686,40343
43679,40348
43672,40352
43663,40355
43653,40356
43452,40356
43442,40355
43433,40352
43426,40348
43419,40343
43414,40336
43410,40329
43408,40321
43406,40310
43406,40129
43408,40118
43410,40110
43414,40103
43419,40096
43426,40091
43433,40087
43442,40084
43452,40083
43653,40083
43663,40084
" /> 
<polyline style="fill-rule:evenodd;"
points="44130,40075
44139,40078
44146,40082
44153,40087
44158,40094
44162,40101
44164,40109
44166,40120
44166,40301
44164,40312
44162,40320
44158,40327
44153,40334
44146,40339
44139,40343
44130,40346
44120,40347
43919,40347
43909,40346
43900,40343
43893,40339
43886,40334
43881,40327
43877,40320
43875,40312
43873,40301
43873,40120
43875,40109
43877,40101
43881,40094
43886,40087
43893,40082
43900,40078
43909,40075
43919,40074
44120,40074
44130,40075
" /> 
<polyline style="fill-rule:evenodd;"
points="43203,39702
43212,39705
43219,39709
43226,39714
43231,39721
43235,39728
43237,39736
43239,39747
43239,39928
43237,39939
43235,39947
43231,39954
43226,39961
43219,39966
43212,39970
43203,39973
43193,39974
42992,39974
42982,39973
42973,39970
42966,39966
42959,39961
42954,39954
42950,39947
42948,39939
42946,39928
42946,39747
42948,39736
42950,39728
42954,39721
42959,39714
42966,39709
42973,39705
42982,39702
42992,39701
43193,39701
43203,39702
" /> 
<polyline style="fill-rule:evenodd;"
points="43663,39702
43672,39705
43679,39709
43686,39714
43691,39721
43695,39728
43697,39736
43699,39747
43699,39928
43697,39939
43695,39947
43691,39954
43686,39961
43679,39966
43672,39970
43663,39973
43653,39974
43452,39974
43442,39973
43433,39970
43426,39966
43419,39961
43414,39954
43410,39947
43408,39939
43406,39928
43406,39747
43408,39736
43410,39728
43414,39721
43419,39714
43426,39709
43433,39705
43442,39702
43452,39701
43653,39701
43663,39702
" /> 
<polyline style="fill-rule:evenodd;"
points="42743,39702
42752,39705
42759,39709
42766,39714
42771,39721
42775,39728
42777,39736
42779,39747
42779,39928
42777,39939
42775,39947
42771,39954
42766,39961
42759,39966
42752,39970
42743,39973
42733,39974
42532,39974
42522,39973
42513,39970
42506,39966
42499,39961
42494,39954
42490,39947
42488,39939
42486,39928
42486,39747
42488,39736
42490,39728
42494,39721
42499,39714
42506,39709
42513,39705
42522,39702
42532,39701
42733,39701
42743,39702
" /> 
<polyline style="fill-rule:evenodd;"
points="42280,39702
42289,39705
42296,39709
42303,39714
42308,39721
42312,39728
42314,39736
42316,39747
42316,39928
42314,39939
42312,39947
42308,39954
42303,39961
42296,39966
42289,39970
42280,39973
42270,39974
42069,39974
42059,39973
42050,39970
42043,39966
42036,39961
42031,39954
42027,39947
42025,39939
42023,39928
42023,39747
42025,39736
42027,39728
42031,39721
42036,39714
42043,39709
42050,39705
42059,39702
42069,39701
42270,39701
42280,39702
" /> 
<polyline style="fill-rule:evenodd;"
points="41823,39702
41832,39705
41839,39709
41846,39714
41851,39721
41855,39728
41857,39736
41859,39747
41859,39928
41857,39939
41855,39947
41851,39954
41846,39961
41839,39966
41832,39970
41823,39973
41813,39974
41612,39974
41602,39973
41593,39970
41586,39966
41579,39961
41574,39954
41570,39947
41568,39939
41566,39928
41566,39747
41568,39736
41570,39728
41574,39721
41579,39714
41586,39709
41593,39705
41602,39702
41612,39701
41813,39701
41823,39702
" /> 
<polyline style="fill-rule:evenodd;"
points="41363,39702
41372,39705
41379,39709
41386,39714
41391,39721
41395,39728
41397,39736
41399,39747
41399,39928
41397,39939
41395,39947
41391,39954
41386,39961
41379,39966
41372,39970
41363,39973
41353,39974
41152,39974
41142,39973
41133,39970
41126,39966
41119,39961
41114,39954
41110,39947
41108,39939
41106,39928
41106,39747
41108,39736
41110,39728
41114,39721
41119,39714
41126,39709
41133,39705
41142,39702
41152,39701
41353,39701
41363,39702
" /> 
<polyline style="fill-rule:evenodd;"
points="44130,39693
44139,39696
44146,39700
44153,39705
44158,39712
44162,39719
44164,39727
44166,39738
44166,39919
44164,39930
44162,39938
44158,39945
44153,39952
44146,39957
44139,39961
44130,39964
44120,39965
43919,39965
43909,39964
43900,39961
43893,39957
43886,39952
43881,39945
43877,39938
43875,39930
43873,39919
43873,39738
43875,39727
43877,39719
43881,39712
43886,39705
43893,39700
43900,39696
43909,39693
43919,39692
44120,39692
44130,39693
" /> 
<polyline style="fill-rule:evenodd;"
points="38567,39275
38610,39288
38650,39309
38684,39338
38712,39372
38733,39412
38746,39454
38751,39499
38746,39543
38733,39586
38712,39625
38684,39660
38650,39688
38610,39709
38567,39722
38534,39726
38433,39726
38400,39722
38357,39709
38318,39688
38283,39660
38255,39625
38234,39586
38221,39543
38216,39499
38221,39454
38234,39412
38255,39372
38283,39338
38318,39309
38357,39288
38400,39275
38433,39272
38534,39272
38567,39275
" /> 
<polyline style="fill-rule:evenodd;"
points="37697,39450
36908,39450
36908,38583
37697,38583
37697,39450
" /> 
<polyline style="fill-rule:evenodd;"
points="40553,35883
40561,35885
40569,35889
40577,35896
40705,36024
40712,36033
40716,36040
40718,36048
40719,36057
40718,36065
40716,36073
40712,36081
40705,36089
40563,36231
40555,36238
40547,36242
40539,36244
40531,36245
40522,36244
40514,36242
40507,36238
40498,36231
40370,36103
40363,36095
40359,36087
40357,36079
40356,36070
40357,36062
40359,36054
40363,36046
40370,36038
40512,35896
40520,35889
40528,35885
40536,35883
40544,35882
40553,35883
" /> 
<polyline style="fill-rule:evenodd;"
points="40283,35613
40291,35615
40298,35619
40307,35626
40435,35754
40442,35762
40446,35770
40448,35778
40449,35787
40448,35795
40446,35803
40442,35811
40435,35819
40293,35961
40285,35968
40277,35972
40269,35974
40261,35975
40252,35974
40244,35972
40236,35968
40228,35961
40100,35833
40093,35824
40089,35817
40087,35809
40086,35800
40087,35792
40089,35784
40093,35776
40100,35768
40242,35626
40250,35619
40258,35615
40266,35613
40274,35612
40283,35613
" /> 
<polyline style="fill-rule:evenodd;"
points="41494,35304
40853,35945
40449,35540
41089,34900
41494,35304
" /> 
<polyline style="fill-rule:evenodd;"
points="42018,35539
42026,35541
42033,35545
42040,35550
42045,35557
42049,35564
42052,35573
42053,35583
42053,35784
42052,35794
42049,35803
42045,35810
42040,35817
42033,35822
42026,35826
42018,35828
42007,35830
41826,35830
41815,35828
41807,35826
41800,35822
41793,35817
41788,35810
41784,35803
41781,35794
41780,35784
41780,35583
41781,35573
41784,35564
41788,35557
41793,35550
41800,35545
41807,35541
41815,35539
41826,35537
42007,35537
42018,35539
" /> 
<polyline style="fill-rule:evenodd;"
points="42400,35539
42408,35541
42415,35545
42422,35550
42427,35557
42431,35564
42434,35573
42435,35583
42435,35784
42434,35794
42431,35803
42427,35810
42422,35817
42415,35822
42408,35826
42400,35828
42389,35830
42208,35830
42197,35828
42189,35826
42182,35822
42175,35817
42170,35810
42166,35803
42163,35794
42162,35784
42162,35583
42163,35573
42166,35564
42170,35557
42175,35550
42182,35545
42189,35541
42197,35539
42208,35537
42389,35537
42400,35539
" /> 
<polyline style="fill-rule:evenodd;"
points="39978,35308
39986,35310
39994,35314
40002,35321
40130,35449
40137,35458
40141,35465
40143,35473
40144,35482
40143,35490
40141,35498
40137,35506
40130,35514
39988,35656
39980,35663
39972,35667
39964,35669
39956,35670
39947,35669
39939,35667
39932,35663
39923,35656
39795,35528
39788,35520
39784,35512
39782,35504
39781,35495
39782,35487
39784,35479
39788,35471
39795,35463
39937,35321
39945,35314
39953,35310
39961,35308
39969,35307
39978,35308
" /> 
<polyline style="fill-rule:evenodd;"
points="43588,35193
43596,35195
43604,35199
43612,35206
43740,35334
43747,35343
43751,35350
43753,35358
43754,35367
43753,35375
43751,35383
43747,35391
43740,35399
43598,35541
43590,35548
43582,35552
43574,35554
43566,35555
43557,35554
43549,35552
43542,35548
43533,35541
43405,35413
43398,35405
43394,35397
43392,35389
43391,35380
43392,35372
43394,35364
43398,35356
43405,35348
43547,35206
43555,35199
43563,35195
43571,35193
43579,35192
43588,35193
" /> 
<polyline style="fill-rule:evenodd;"
points="41006,34817
40366,35457
39961,35053
40602,34412
41006,34817
" /> 
<polyline style="fill-rule:evenodd;"
points="39708,35038
39716,35040
39723,35044
39732,35051
39860,35179
39867,35187
39871,35195
39873,35203
39874,35212
39873,35220
39871,35228
39867,35236
39860,35244
39718,35386
39710,35393
39702,35397
39694,35399
39686,35400
39677,35399
39669,35397
39661,35393
39653,35386
39525,35258
39518,35249
39514,35242
39512,35234
39511,35225
39512,35217
39514,35209
39518,35201
39525,35193
39667,35051
39675,35044
39683,35040
39691,35038
39699,35037
39708,35038
" /> 
<polyline style="fill-rule:evenodd;"
points="43894,34933
43902,34935
43910,34939
43918,34946
44060,35088
44067,35096
44071,35104
44073,35112
44074,35120
44073,35129
44071,35137
44067,35145
44060,35153
43932,35281
43923,35288
43916,35292
43908,35294
43899,35295
43891,35294
43883,35292
43875,35288
43867,35281
43725,35139
43718,35131
43714,35123
43712,35115
43711,35107
43712,35098
43714,35090
43718,35083
43725,35074
43853,34946
43861,34939
43869,34935
43877,34933
43886,34932
43894,34933
" /> 
<polyline style="fill-rule:evenodd;"
points="43318,34923
43326,34925
43333,34929
43342,34936
43470,35064
43477,35073
43481,35080
43483,35088
43484,35097
43483,35105
43481,35113
43477,35121
43470,35129
43328,35271
43320,35278
43312,35282
43304,35284
43296,35285
43287,35284
43279,35282
43272,35278
43263,35271
43135,35143
43128,35134
43124,35127
43122,35119
43121,35110
43122,35102
43124,35094
43128,35086
43135,35078
43277,34936
43285,34929
43293,34925
43301,34923
43309,34922
43318,34923
" /> 
<polyline style="fill-rule:evenodd;"
points="44035,33029
44046,33032
44046,33032
44057,33038
44063,33043
44063,33043
44235,33214
44235,33214
44240,33221
44242,33224
44246,33232
44249,33243
44250,33254
44249,33266
44246,33277
44246,33277
44240,33288
44233,33297
44224,33304
44213,33310
44213,33310
44202,33313
44188,33314
44183,33314
44174,33316
44165,33320
44157,33325
44150,33332
44145,33340
44141,33349
44139,33359
44139,33363
44138,33377
44134,33388
44134,33389
44129,33399
44121,33408
44112,33415
44102,33421
44102,33421
44091,33424
44077,33426
44072,33426
44062,33428
44054,33431
44046,33437
44039,33444
44033,33452
44030,33460
44028,33470
44028,33475
44026,33489
44023,33500
44023,33500
44017,33510
44010,33519
44001,33527
43991,33532
43991,33532
43979,33536
43965,33537
43961,33537
43951,33539
43942,33543
43934,33548
43927,33555
43922,33563
43918,33572
43916,33581
43916,33586
43915,33600
43912,33611
43912,33611
43906,33622
43899,33631
43890,33638
43887,33639
43879,33644
43868,33647
43854,33649
43849,33649
43840,33650
43831,33654
43823,33659
43816,33666
43811,33674
43807,33683
43805,33693
43805,33697
43804,33712
43800,33722
43800,33723
43795,33733
43787,33742
43778,33750
43768,33755
43768,33755
43757,33758
43743,33760
43738,33760
43728,33762
43719,33765
43711,33771
43705,33778
43699,33786
43696,33795
43694,33804
43694,33809
43692,33823
43689,33834
43689,33834
43683,33844
43676,33853
43667,33861
43657,33866
43657,33866
43645,33870
43631,33871
43626,33871
43617,33873
43608,33877
43600,33882
43593,33889
43588,33897
43584,33906
43582,33915
43582,33920
43581,33934
43578,33945
43578,33945
43572,33956
43565,33965
43556,33972
43545,33978
43545,33978
43534,33981
43520,33983
43515,33983
43506,33984
43497,33988
43489,33994
43482,34000
43477,34008
43473,34017
43471,34027
43471,34032
43470,34046
43466,34056
43466,34057
43461,34067
43453,34076
43444,34084
43436,34088
43434,34089
43423,34093
43409,34094
43404,34094
43394,34096
43385,34100
43377,34105
43371,34112
43365,34120
43361,34129
43360,34138
43360,34143
43358,34157
43355,34168
43355,34168
43349,34178
43342,34188
43333,34195
43323,34200
43323,34201
43311,34204
43297,34205
43292,34205
43283,34207
43274,34211
43266,34216
43259,34223
43254,34231
43250,34240
43248,34249
43248,34254
43247,34268
43243,34280
43243,34280
43238,34290
43231,34299
43221,34306
43215,34310
43211,34312
43200,34315
43186,34317
43181,34317
43172,34319
43163,34322
43155,34328
43148,34334
43142,34342
43139,34351
43137,34361
43137,34366
43136,34380
43132,34391
43132,34391
43127,34401
43119,34410
43110,34418
43106,34420
43100,34423
43089,34427
43075,34428
43070,34428
43060,34430
43051,34434
43043,34439
43036,34446
43031,34454
43027,34463
43026,34472
43026,34477
43024,34491
43021,34502
43021,34502
43015,34513
43008,34522
42999,34529
42988,34535
42988,34535
42977,34538
42963,34539
42958,34539
42949,34541
42940,34545
42932,34550
42925,34557
42920,34565
42916,34574
42914,34584
42914,34588
42913,34602
42909,34614
42909,34614
42904,34624
42896,34633
42887,34640
42884,34642
42877,34646
42866,34649
42852,34651
42847,34651
42838,34653
42829,34656
42821,34662
42814,34668
42808,34676
42805,34685
42803,34695
42803,34700
42801,34714
42798,34725
42798,34725
42793,34735
42785,34744
42776,34752
42766,34757
42766,34757
42755,34761
42740,34762
42736,34762
42726,34764
42717,34768
42709,34773
42702,34780
42697,34788
42693,34797
42691,34806
42691,34811
42690,34825
42687,34836
42687,34836
42681,34847
42674,34856
42665,34863
42655,34868
42654,34869
42643,34872
42629,34873
42624,34873
42615,34875
42606,34879
42598,34884
42591,34891
42586,34899
42582,34908
42580,34918
42580,34922
42579,34936
42575,34947
42575,34948
42570,34958
42562,34967
42553,34974
42546,34978
42543,34980
42532,34983
42518,34985
42513,34985
42503,34987
42495,34990
42487,34996
42480,35003
42474,35011
42471,35019
42469,35029
42469,35034
42467,35048
42464,35058
42464,35059
42458,35069
42451,35078
42442,35086
42441,35086
42432,35091
42420,35095
42409,35096
42397,35095
42386,35091
42383,35090
42376,35086
42369,35080
42369,35080
42198,34909
42197,34908
42192,34902
42187,34892
42187,34892
42183,34881
42182,34869
42183,34857
42187,34846
42191,34839
42192,34836
42200,34827
42209,34819
42219,34814
42219,34814
42230,34811
42244,34809
42249,34809
42258,34807
42267,34804
42275,34798
42282,34791
42288,34783
42291,34774
42293,34765
42293,34760
42295,34746
42298,34735
42301,34730
42303,34725
42311,34716
42320,34708
42330,34703
42330,34703
42341,34699
42356,34698
42360,34698
42370,34696
42379,34692
42387,34687
42394,34680
42399,34672
42403,34663
42405,34654
42405,34649
42406,34635
42409,34624
42415,34613
42422,34604
42431,34597
42431,34597
42431,34597
42442,34591
42442,34591
42453,34588
42467,34586
42472,34586
42481,34585
42490,34581
42498,34576
42505,34569
42510,34561
42514,34552
42516,34542
42516,34537
42517,34523
42521,34512
42523,34508
42526,34502
42534,34493
42543,34485
42553,34480
42553,34480
42564,34476
42578,34475
42583,34475
42593,34473
42601,34470
42609,34464
42616,34457
42622,34449
42625,34440
42627,34431
42627,34426
42629,34412
42632,34401
42633,34398
42638,34391
42645,34381
42654,34374
42664,34369
42664,34369
42676,34365
42690,34364
42694,34364
42704,34362
42713,34358
42721,34353
42728,34346
42733,34338
42737,34329
42739,34320
42739,34315
42740,34301
42743,34289
42749,34279
42750,34278
42756,34270
42765,34263
42776,34257
42776,34257
42787,34254
42801,34252
42806,34252
42815,34250
42824,34247
42832,34241
42839,34235
42844,34227
42848,34218
42850,34208
42850,34203
42851,34189
42855,34178
42856,34176
42860,34168
42868,34159
42877,34151
42887,34146
42887,34146
42898,34142
42912,34141
42917,34141
42927,34139
42936,34135
42944,34130
42950,34123
42956,34115
42959,34106
42961,34097
42961,34092
42963,34078
42966,34067
42968,34062
42972,34056
42979,34047
42988,34040
42998,34034
42998,34034
43010,34031
43024,34030
43028,34030
43038,34028
43047,34024
43055,34019
43062,34012
43067,34004
43071,33995
43073,33986
43073,33981
43074,33967
43077,33955
43083,33945
43089,33937
43090,33936
43099,33929
43110,33923
43110,33923
43121,33920
43135,33918
43140,33918
43149,33916
43158,33913
43166,33907
43173,33901
43178,33893
43182,33884
43184,33874
43184,33869
43185,33855
43189,33844
43194,33834
43202,33825
43211,33817
43211,33817
43211,33817
43221,33812
43221,33812
43232,33808
43246,33807
43251,33807
43261,33805
43270,33801
43278,33796
43284,33789
43290,33781
43293,33772
43295,33763
43295,33758
43297,33744
43300,33733
43304,33726
43306,33722
43313,33713
43322,33706
43332,33700
43332,33700
43344,33697
43358,33696
43363,33696
43372,33694
43381,33690
43389,33685
43396,33678
43401,33670
43405,33661
43407,33651
43407,33647
43408,33633
43411,33621
43417,33611
43424,33602
43433,33595
43433,33595
43433,33595
43444,33589
43444,33589
43455,33586
43469,33584
43474,33584
43483,33582
43492,33579
43500,33573
43507,33566
43512,33558
43516,33550
43518,33540
43518,33535
43519,33521
43523,33510
43528,33500
43536,33491
43545,33483
43545,33483
43545,33483
43555,33478
43555,33478
43566,33474
43580,33473
43585,33473
43595,33471
43604,33467
43612,33462
43618,33455
43624,33447
43628,33438
43629,33429
43629,33424
43631,33410
43634,33399
43638,33392
43640,33388
43647,33379
43656,33372
43667,33366
43667,33366
43678,33363
43692,33362
43697,33362
43706,33360
43715,33356
43723,33351
43730,33344
43735,33336
43739,33327
43741,33317
43741,33313
43742,33298
43746,33287
43746,33287
43751,33277
43759,33268
43768,33260
43778,33255
43778,33255
43789,33252
43803,33250
43808,33250
43817,33248
43826,33245
43834,33239
43841,33232
43847,33224
43850,33215
43852,33206
43852,33201
43854,33187
43857,33176
43862,33166
43870,33157
43879,33149
43879,33149
43879,33149
43889,33144
43889,33144
43900,33140
43915,33139
43919,33139
43929,33137
43938,33133
43946,33128
43953,33121
43958,33113
43962,33104
43963,33095
43963,33090
43965,33076
43968,33065
43974,33054
43981,33045
43990,33038
43990,33038
43990,33038
44001,33032
44001,33032
44012,33029
44023,33028
44035,33029
" /> 
<polyline style="fill-rule:evenodd;"
points="40193,33029
40205,33032
40205,33032
40215,33038
40215,33038
40215,33038
40224,33045
40231,33054
40237,33065
40240,33076
40242,33090
40242,33095
40244,33104
40247,33113
40253,33121
40259,33128
40267,33133
40276,33137
40286,33139
40291,33139
40305,33140
40316,33144
40316,33144
40326,33149
40326,33149
40326,33149
40335,33157
40343,33166
40348,33176
40352,33187
40353,33201
40353,33206
40355,33215
40359,33224
40364,33232
40371,33239
40379,33245
40388,33248
40397,33250
40402,33250
40416,33252
40427,33255
40427,33255
40438,33260
40447,33268
40454,33277
40460,33287
40460,33287
40463,33298
40464,33313
40464,33317
40466,33327
40470,33336
40475,33344
40482,33351
40490,33356
40499,33360
40509,33362
40513,33362
40527,33363
40539,33366
40539,33366
40549,33372
40558,33379
40565,33388
40567,33392
40571,33399
40574,33410
40576,33424
40576,33429
40578,33438
40581,33447
40587,33455
40593,33462
40602,33467
40610,33471
40620,33473
40625,33473
40639,33474
40650,33478
40650,33478
40660,33483
40660,33483
40660,33483
40669,33491
40677,33500
40682,33510
40686,33521
40687,33535
40687,33540
40689,33550
40693,33558
40698,33566
40705,33573
40713,33579
40722,33582
40731,33584
40736,33584
40750,33586
40761,33589
40761,33589
40772,33595
40772,33595
40772,33595
40781,33602
40788,33611
40794,33621
40797,33633
40798,33647
40798,33651
40800,33661
40804,33670
40809,33678
40816,33685
40824,33690
40833,33694
40843,33696
40847,33696
40861,33697
40873,33700
40873,33700
40883,33706
40892,33713
40899,33722
40901,33726
40905,33733
40908,33744
40910,33758
40910,33763
40912,33772
40915,33781
40921,33789
40928,33796
40936,33801
40944,33805
40954,33807
40959,33807
40973,33808
40984,33812
40984,33812
40994,33817
40994,33817
40994,33817
41003,33825
41011,33834
41016,33844
41020,33855
41021,33869
41021,33874
41023,33884
41027,33893
41032,33901
41039,33907
41047,33913
41056,33916
41065,33918
41070,33918
41084,33920
41095,33923
41095,33923
41106,33929
41115,33936
41116,33937
41122,33945
41128,33955
41131,33967
41133,33981
41133,33986
41134,33995
41138,34004
41143,34012
41150,34019
41158,34024
41167,34028
41177,34030
41181,34030
41196,34031
41207,34034
41207,34034
41217,34040
41226,34047
41234,34056
41237,34062
41239,34067
41242,34078
41244,34092
41244,34097
41246,34106
41249,34115
41255,34123
41262,34130
41270,34135
41279,34139
41288,34141
41293,34141
41307,34142
41318,34146
41318,34146
41328,34151
41337,34159
41345,34168
41350,34176
41350,34178
41354,34189
41355,34203
41355,34208
41357,34218
41361,34227
41366,34235
41373,34241
41381,34247
41390,34250
41399,34252
41404,34252
41418,34254
41429,34257
41429,34257
41440,34263
41449,34270
41455,34278
41456,34279
41462,34289
41465,34301
41467,34315
41467,34320
41468,34329
41472,34338
41478,34346
41484,34353
41492,34358
41501,34362
41511,34364
41516,34364
41530,34365
41541,34369
41541,34369
41551,34374
41560,34381
41568,34391
41572,34398
41573,34401
41577,34412
41578,34426
41578,34431
41580,34440
41584,34449
41589,34457
41596,34464
41604,34470
41613,34473
41622,34475
41627,34475
41641,34476
41652,34480
41652,34480
41662,34485
41672,34493
41679,34502
41682,34508
41684,34512
41688,34523
41689,34537
41689,34542
41691,34552
41695,34561
41700,34569
41707,34576
41715,34581
41724,34585
41733,34586
41738,34586
41752,34588
41764,34591
41764,34591
41774,34597
41774,34597
41774,34597
41783,34604
41790,34613
41796,34624
41799,34635
41801,34649
41801,34654
41803,34663
41806,34672
41812,34680
41818,34687
41826,34692
41835,34696
41845,34698
41850,34698
41864,34699
41875,34703
41875,34703
41885,34708
41894,34716
41902,34725
41904,34730
41907,34735
41911,34746
41912,34760
41912,34765
41914,34774
41918,34783
41923,34791
41930,34798
41938,34804
41947,34807
41956,34809
41961,34809
41975,34811
41986,34814
41986,34814
41997,34819
42006,34827
42013,34836
42015,34839
42019,34846
42022,34857
42023,34869
42022,34881
42019,34892
42019,34892
42013,34902
42008,34908
42007,34909
41836,35080
41836,35080
41830,35086
41822,35090
41819,35091
41808,35095
41796,35096
41785,35095
41773,35091
41764,35086
41763,35086
41754,35078
41747,35069
41741,35059
41741,35058
41738,35048
41736,35034
41736,35029
41734,35019
41731,35011
41725,35003
41719,34996
41711,34990
41702,34987
41692,34985
41687,34985
41673,34983
41662,34980
41659,34978
41652,34974
41643,34967
41635,34958
41630,34948
41630,34947
41626,34936
41625,34922
41625,34918
41623,34908
41619,34899
41614,34891
41607,34884
41599,34879
41590,34875
41581,34873
41576,34873
41562,34872
41551,34869
41550,34868
41540,34863
41531,34856
41524,34847
41518,34836
41518,34836
41515,34825
41514,34811
41514,34806
41512,34797
41508,34788
41503,34780
41496,34773
41488,34768
41479,34764
41470,34762
41465,34762
41451,34761
41439,34757
41439,34757
41429,34752
41420,34744
41413,34735
41407,34725
41407,34725
41404,34714
41402,34700
41402,34695
41400,34685
41397,34676
41391,34668
41385,34662
41377,34656
41368,34653
41358,34651
41353,34651
41339,34649
41328,34646
41321,34642
41318,34640
41309,34633
41301,34624
41296,34614
41296,34614
41292,34602
41291,34588
41291,34584
41289,34574
41285,34565
41280,34557
41273,34550
41265,34545
41256,34541
41247,34539
41242,34539
41228,34538
41217,34535
41217,34535
41206,34529
41197,34522
41190,34513
41184,34502
41184,34502
41181,34491
41180,34477
41180,34472
41178,34463
41174,34454
41169,34446
41162,34439
41154,34434
41145,34430
41135,34428
41131,34428
41117,34427
41105,34423
41099,34420
41095,34418
41086,34410
41079,34401
41073,34391
41073,34391
41070,34380
41068,34366
41068,34361
41066,34351
41063,34342
41057,34334
41050,34328
41042,34322
41034,34319
41024,34317
41019,34317
41005,34315
40994,34312
40990,34310
40984,34306
40975,34299
40967,34290
40962,34280
40962,34280
40958,34268
40957,34254
40957,34249
40955,34240
40951,34231
40946,34223
40939,34216
40931,34211
40922,34207
40913,34205
40908,34205
40894,34204
40883,34201
40883,34200
40872,34195
40863,34188
40856,34178
40850,34168
40850,34168
40847,34157
40846,34143
40846,34138
40844,34129
40840,34120
40835,34112
40828,34105
40820,34100
40811,34096
40801,34094
40797,34094
40782,34093
40771,34089
40769,34088
40761,34084
40752,34076
40744,34067
40739,34057
40739,34056
40736,34046
40734,34032
40734,34027
40732,34017
40729,34008
40723,34000
40716,33994
40708,33988
40699,33984
40690,33983
40685,33983
40671,33981
40660,33978
40660,33978
40650,33972
40641,33965
40633,33956
40628,33945
40628,33945
40624,33934
40623,33920
40623,33915
40621,33906
40617,33897
40612,33889
40605,33882
40597,33877
40588,33873
40579,33871
40574,33871
40560,33870
40549,33866
40548,33866
40538,33861
40529,33853
40522,33844
40516,33834
40516,33834
40513,33823
40511,33809
40511,33804
40510,33795
40506,33786
40501,33778
40494,33771
40486,33765
40477,33762
40467,33760
40462,33760
40448,33758
40437,33755
40437,33755
40427,33750
40418,33742
40410,33733
40405,33723
40405,33722
40401,33712
40400,33697
40400,33693
40398,33683
40395,33674
40389,33666
40382,33659
40374,33654
40365,33650
40356,33649
40351,33649
40337,33647
40326,33644
40318,33639
40316,33638
40306,33631
40299,33622
40294,33611
40294,33611
40290,33600
40289,33586
40289,33581
40287,33572
40283,33563
40278,33555
40271,33548
40263,33543
40254,33539
40245,33537
40240,33537
40226,33536
40215,33532
40215,33532
40204,33527
40195,33519
40188,33510
40182,33500
40182,33500
40179,33489
40177,33475
40177,33470
40176,33460
40172,33452
40166,33444
40160,33437
40152,33431
40143,33428
40133,33426
40128,33426
40114,33424
40103,33421
40103,33421
40093,33415
40084,33408
40076,33399
40071,33389
40071,33388
40067,33377
40066,33363
40066,33359
40064,33349
40060,33340
40055,33332
40048,33325
40040,33320
40031,33316
40022,33314
40017,33314
40003,33313
39992,33310
39992,33310
39981,33304
39972,33297
39965,33288
39959,33277
39959,33277
39956,33266
39955,33254
39956,33243
39959,33232
39959,33232
39965,33221
39971,33214
39971,33214
39971,33214
40142,33043
40142,33043
40149,33038
40159,33032
40159,33032
40170,33029
40182,33028
40193,33029
" /> 
<polyline style="fill-rule:evenodd;"
points="44164,34663
44172,34665
44180,34669
44188,34676
44330,34818
44337,34826
44341,34834
44343,34842
44344,34850
44343,34859
44341,34867
44337,34874
44330,34883
44202,35011
44194,35018
44186,35022
44178,35024
44169,35025
44161,35024
44153,35022
44145,35018
44137,35011
43995,34869
43988,34861
43984,34853
43982,34845
43981,34837
43982,34828
43984,34820
43988,34812
43995,34804
44123,34676
44132,34669
44139,34665
44147,34663
44156,34662
44164,34663
" /> 
<polyline style="fill-rule:evenodd;"
points="39444,34638
39452,34640
39460,34644
39468,34651
39610,34793
39617,34801
39621,34809
39623,34817
39624,34825
39623,34834
39621,34842
39617,34850
39610,34858
39482,34986
39473,34993
39466,34997
39458,34999
39449,35000
39441,34999
39433,34997
39425,34993
39417,34986
39275,34844
39268,34836
39264,34828
39262,34820
39261,34812
39262,34803
39264,34795
39268,34788
39275,34779
39403,34651
39411,34644
39419,34640
39427,34638
39436,34637
39444,34638
" /> 
<polyline style="fill-rule:evenodd;"
points="43594,34633
43602,34635
43610,34639
43618,34646
43760,34788
43767,34796
43771,34804
43773,34812
43774,34820
43773,34829
43771,34837
43767,34845
43760,34853
43632,34981
43623,34988
43616,34992
43608,34994
43599,34995
43591,34994
43583,34992
43575,34988
43567,34981
43425,34839
43418,34831
43414,34823
43412,34815
43411,34807
43412,34798
43414,34790
43418,34783
43425,34774
43553,34646
43561,34639
43569,34635
43577,34633
43586,34632
43594,34633
" /> 
<polyline style="fill-rule:evenodd;"
points="37661,34176
37729,34205
37790,34246
37842,34298
37883,34359
37912,34427
37926,34500
37926,34573
37912,34646
37883,34714
37842,34775
37790,34827
37729,34868
37661,34897
37588,34911
37515,34911
37442,34897
37374,34868
37313,34827
37261,34775
37220,34714
37191,34646
37177,34573
37177,34500
37191,34427
37220,34359
37261,34298
37313,34246
37374,34205
37442,34176
37515,34162
37588,34162
37661,34176
" /> 
<polyline style="fill-rule:evenodd;"
points="39714,34368
39722,34370
39730,34374
39738,34381
39880,34523
39887,34531
39891,34539
39893,34547
39894,34555
39893,34564
39891,34572
39887,34579
39880,34588
39752,34716
39744,34723
39736,34727
39728,34729
39719,34730
39711,34729
39703,34727
39695,34723
39687,34716
39545,34574
39538,34566
39534,34558
39532,34550
39531,34542
39532,34533
39534,34525
39538,34517
39545,34509
39673,34381
39682,34374
39689,34370
39697,34368
39706,34367
39714,34368
" /> 
<polyline style="fill-rule:evenodd;"
points="43864,34363
43872,34365
43880,34369
43888,34376
44030,34518
44037,34526
44041,34534
44043,34542
44044,34550
44043,34559
44041,34567
44037,34574
44030,34583
43902,34711
43894,34718
43886,34722
43878,34724
43869,34725
43861,34724
43853,34722
43845,34718
43837,34711
43695,34569
43688,34561
43684,34553
43682,34545
43681,34537
43682,34528
43684,34520
43688,34512
43695,34504
43823,34376
43832,34369
43839,34365
43847,34363
43856,34362
43864,34363
" /> 
<polyline style="fill-rule:evenodd;"
points="39144,34358
39152,34360
39160,34364
39168,34371
39310,34513
39317,34521
39321,34529
39323,34537
39324,34545
39323,34554
39321,34562
39317,34570
39310,34578
39182,34706
39173,34713
39166,34717
39158,34719
39149,34720
39141,34719
39133,34717
39125,34713
39117,34706
38975,34564
38968,34556
38964,34548
38962,34540
38961,34532
38962,34523
38964,34515
38968,34508
38975,34499
39103,34371
39111,34364
39119,34360
39127,34358
39136,34357
39144,34358
" /> 
<polyline style="fill-rule:evenodd;"
points="43718,32948
42103,34563
40487,32948
42103,31333
43718,32948
" /> 
<polyline style="fill-rule:evenodd;"
points="39414,34088
39422,34090
39430,34094
39438,34101
39580,34243
39587,34251
39591,34259
39593,34267
39594,34275
39593,34284
39591,34292
39587,34299
39580,34308
39452,34436
39444,34443
39436,34447
39428,34449
39419,34450
39411,34449
39403,34447
39395,34443
39387,34436
39245,34294
39238,34286
39234,34278
39232,34270
39231,34262
39232,34253
39234,34245
39238,34237
39245,34229
39373,34101
39382,34094
39389,34090
39397,34088
39406,34087
39414,34088
" /> 
<polyline style="fill-rule:evenodd;"
points="38844,34058
38852,34060
38860,34064
38868,34071
39010,34213
39017,34221
39021,34229
39023,34237
39024,34245
39023,34254
39021,34262
39017,34270
39010,34278
38882,34406
38873,34413
38866,34417
38858,34419
38849,34420
38841,34419
38833,34417
38825,34413
38817,34406
38675,34264
38668,34256
38664,34248
38662,34240
38661,34232
38662,34223
38664,34215
38668,34208
38675,34199
38803,34071
38811,34064
38819,34060
38827,34058
38836,34057
38844,34058
" /> 
<polyline style="fill-rule:evenodd;"
points="39114,33788
39122,33790
39130,33794
39138,33801
39280,33943
39287,33951
39291,33959
39293,33967
39294,33975
39293,33984
39291,33992
39287,33999
39280,34008
39152,34136
39144,34143
39136,34147
39128,34149
39119,34150
39111,34149
39103,34147
39095,34143
39087,34136
38945,33994
38938,33986
38934,33978
38932,33970
38931,33962
38932,33953
38934,33945
38938,33937
38945,33929
39073,33801
39082,33794
39089,33790
39097,33788
39106,33787
39114,33788
" /> 
<polyline style="fill-rule:evenodd;"
points="37661,33192
37729,33220
37790,33261
37842,33314
37883,33375
37912,33443
37926,33515
37926,33589
37912,33661
37883,33730
37842,33791
37790,33843
37729,33884
37661,33912
37588,33927
37515,33927
37442,33912
37374,33884
37313,33843
37261,33791
37220,33730
37191,33661
37177,33589
37177,33515
37191,33443
37220,33375
37261,33314
37313,33261
37374,33220
37442,33192
37515,33178
37588,33178
37661,33192
" /> 
<polyline style="fill-rule:evenodd;"
points="37661,32208
37729,32236
37790,32277
37842,32329
37883,32391
37912,32459
37926,32531
37926,32605
37912,32677
37883,32745
37842,32807
37790,32859
37729,32900
37661,32928
37588,32942
37515,32942
37442,32928
37374,32900
37313,32859
37261,32807
37220,32745
37191,32677
37177,32605
37177,32531
37191,32459
37220,32391
37261,32329
37313,32277
37374,32236
37442,32208
37515,32194
37588,32194
37661,32208
" /> 
<polyline style="fill-rule:evenodd;"
points="41808,30802
41819,30805
41819,30805
41830,30811
41836,30816
41836,30816
42007,30987
42007,30987
42013,30994
42015,30997
42019,31005
42022,31016
42023,31027
42022,31039
42019,31050
42019,31050
42013,31061
42006,31070
41997,31077
41986,31083
41986,31083
41975,31086
41961,31087
41956,31087
41947,31089
41938,31093
41930,31098
41923,31105
41918,31113
41914,31122
41912,31131
41912,31136
41911,31150
41907,31162
41907,31162
41902,31172
41894,31181
41885,31188
41882,31190
41875,31194
41864,31197
41850,31199
41845,31199
41835,31201
41826,31204
41818,31210
41812,31216
41806,31224
41803,31233
41801,31243
41801,31248
41799,31262
41796,31273
41796,31273
41790,31283
41783,31292
41774,31300
41764,31305
41764,31305
41752,31309
41738,31310
41733,31310
41724,31312
41715,31316
41707,31321
41700,31328
41695,31336
41691,31345
41689,31354
41689,31359
41688,31373
41685,31384
41684,31384
41679,31395
41672,31404
41662,31411
41652,31417
41652,31417
41641,31420
41627,31421
41622,31421
41613,31423
41604,31427
41596,31432
41589,31439
41584,31447
41580,31456
41578,31466
41578,31470
41577,31484
41573,31496
41573,31496
41568,31506
41560,31515
41551,31522
41544,31527
41541,31528
41530,31531
41516,31533
41511,31533
41501,31535
41492,31538
41484,31544
41478,31551
41472,31559
41468,31567
41467,31577
41467,31582
41465,31596
41462,31607
41462,31607
41456,31617
41449,31626
41440,31634
41439,31634
41429,31639
41418,31643
41404,31644
41399,31644
41390,31646
41381,31650
41373,31655
41366,31662
41361,31670
41357,31679
41355,31688
41355,31693
41354,31707
41351,31718
41350,31718
41345,31729
41337,31738
41328,31745
41326,31746
41318,31751
41307,31754
41293,31755
41288,31755
41279,31757
41270,31761
41262,31766
41255,31773
41249,31781
41246,31790
41244,31800
41244,31804
41242,31819
41239,31829
41239,31830
41234,31840
41226,31849
41217,31857
41210,31860
41207,31862
41196,31865
41181,31867
41177,31867
41167,31869
41158,31872
41150,31878
41143,31885
41138,31893
41134,31902
41133,31911
41133,31916
41131,31930
41128,31941
41128,31941
41122,31951
41115,31960
41106,31968
41095,31973
41095,31973
41084,31977
41070,31978
41065,31978
41056,31980
41047,31984
41039,31989
41032,31996
41027,32004
41023,32013
41021,32022
41021,32027
41020,32041
41016,32052
41016,32052
41011,32063
41003,32072
40994,32079
40984,32085
40984,32085
40973,32088
40959,32090
40954,32090
40944,32091
40936,32095
40928,32100
40921,32107
40915,32115
40912,32124
40910,32134
40910,32138
40908,32153
40905,32163
40905,32164
40899,32174
40892,32183
40883,32191
40877,32194
40873,32196
40861,32200
40847,32201
40843,32201
40833,32203
40824,32206
40816,32212
40809,32219
40804,32227
40800,32236
40798,32245
40798,32250
40797,32264
40794,32275
40794,32275
40788,32285
40781,32295
40772,32302
40761,32307
40761,32307
40750,32311
40736,32312
40731,32312
40722,32314
40713,32318
40705,32323
40698,32330
40693,32338
40689,32347
40687,32356
40687,32361
40686,32375
40682,32386
40682,32386
40677,32397
40669,32406
40660,32413
40654,32417
40650,32419
40639,32422
40625,32424
40620,32424
40610,32425
40602,32429
40593,32435
40587,32441
40581,32449
40578,32458
40576,32468
40576,32473
40574,32487
40571,32497
40571,32498
40565,32508
40558,32517
40549,32525
40542,32528
40539,32530
40527,32534
40513,32535
40509,32535
40499,32537
40490,32541
40482,32546
40475,32553
40470,32561
40466,32570
40464,32579
40464,32584
40463,32598
40460,32609
40460,32609
40454,32620
40447,32629
40438,32636
40430,32640
40427,32642
40416,32645
40402,32646
40397,32646
40388,32648
40379,32652
40371,32657
40364,32664
40359,32672
40355,32681
40353,32690
40353,32695
40352,32709
40348,32721
40348,32721
40343,32731
40335,32740
40326,32747
40316,32753
40316,32753
40305,32756
40291,32758
40286,32758
40276,32760
40267,32763
40259,32769
40253,32775
40247,32783
40244,32792
40242,32802
40242,32807
40240,32821
40237,32832
40237,32832
40231,32842
40224,32851
40215,32859
40205,32864
40205,32864
40193,32868
40182,32869
40170,32868
40159,32864
40159,32864
40149,32859
40142,32853
40142,32853
39971,32682
39969,32680
39965,32675
39959,32665
39959,32665
39956,32654
39955,32642
39956,32630
39959,32619
39963,32613
39965,32609
39972,32600
39981,32592
39992,32587
39992,32587
40003,32583
40017,32582
40022,32582
40031,32580
40040,32576
40048,32571
40055,32564
40060,32556
40064,32547
40066,32538
40066,32533
40067,32519
40071,32508
40072,32505
40076,32497
40084,32488
40093,32481
40103,32475
40103,32475
40114,32472
40128,32471
40133,32471
40143,32469
40152,32465
40160,32460
40166,32453
40172,32445
40176,32436
40177,32427
40177,32422
40179,32408
40182,32396
40185,32391
40188,32386
40195,32377
40204,32370
40215,32364
40215,32364
40226,32361
40240,32359
40245,32359
40254,32357
40263,32354
40271,32348
40278,32342
40283,32334
40287,32325
40289,32315
40289,32310
40290,32296
40294,32285
40294,32285
40299,32275
40306,32266
40316,32258
40326,32253
40326,32253
40337,32249
40351,32248
40356,32248
40365,32246
40374,32242
40382,32237
40389,32230
40395,32222
40398,32213
40400,32204
40400,32199
40401,32185
40405,32174
40407,32171
40410,32163
40418,32154
40427,32147
40437,32141
40437,32141
40448,32138
40462,32137
40467,32137
40477,32135
40486,32131
40494,32126
40501,32119
40506,32111
40510,32102
40511,32092
40511,32088
40513,32074
40516,32062
40522,32052
40529,32043
40538,32036
40538,32036
40538,32036
40549,32030
40549,32030
40560,32027
40574,32025
40579,32025
40588,32023
40597,32020
40605,32014
40612,32008
40617,31999
40621,31991
40623,31981
40623,31976
40624,31962
40628,31951
40631,31944
40633,31941
40641,31932
40650,31924
40660,31919
40660,31919
40671,31915
40685,31914
40690,31914
40699,31912
40708,31908
40716,31903
40723,31896
40729,31888
40732,31879
40734,31870
40734,31865
40736,31851
40739,31840
40739,31840
40744,31829
40752,31820
40761,31813
40771,31807
40771,31807
40782,31804
40797,31803
40801,31803
40811,31801
40820,31797
40828,31792
40835,31785
40840,31777
40844,31768
40846,31758
40846,31754
40847,31740
40850,31728
40850,31728
40856,31718
40863,31709
40872,31702
40883,31696
40883,31696
40894,31693
40908,31691
40913,31691
40922,31689
40931,31686
40939,31680
40946,31673
40951,31665
40955,31657
40957,31647
40957,31642
40958,31628
40962,31617
40967,31607
40975,31598
40984,31590
40984,31590
40984,31590
40994,31585
40994,31585
41005,31581
41019,31580
41024,31580
41034,31578
41042,31574
41050,31569
41057,31562
41063,31554
41066,31545
41068,31536
41068,31531
41070,31517
41073,31506
41076,31500
41079,31495
41086,31486
41095,31479
41105,31473
41105,31473
41117,31470
41131,31468
41135,31468
41145,31467
41154,31463
41162,31458
41169,31451
41174,31443
41178,31434
41180,31424
41180,31420
41181,31405
41184,31394
41189,31386
41190,31384
41197,31375
41206,31367
41217,31362
41217,31362
41228,31359
41242,31357
41247,31357
41256,31355
41265,31352
41273,31346
41280,31339
41285,31331
41289,31322
41291,31313
41291,31308
41292,31294
41296,31283
41301,31273
41309,31264
41318,31256
41318,31256
41318,31256
41328,31251
41328,31251
41339,31247
41353,31246
41358,31246
41368,31244
41377,31240
41385,31235
41391,31228
41397,31220
41400,31211
41402,31202
41402,31197
41404,31183
41407,31172
41409,31168
41413,31161
41420,31152
41429,31145
41439,31139
41439,31139
41451,31136
41465,31134
41470,31134
41479,31133
41488,31129
41496,31123
41503,31117
41508,31109
41512,31100
41514,31090
41514,31085
41515,31071
41518,31060
41518,31060
41524,31050
41531,31041
41540,31033
41551,31028
41551,31028
41562,31024
41576,31023
41581,31023
41590,31021
41599,31017
41607,31012
41614,31005
41619,30997
41623,30988
41625,30979
41625,30974
41626,30960
41630,30949
41635,30938
41643,30929
41648,30925
41652,30922
41662,30916
41662,30916
41673,30913
41687,30912
41692,30912
41702,30910
41711,30906
41719,30901
41725,30894
41731,30886
41734,30877
41736,30868
41736,30863
41738,30849
41741,30837
41747,30827
41754,30818
41763,30811
41763,30811
41763,30811
41773,30805
41773,30805
41785,30802
41796,30801
41808,30802
" /> 
<polyline style="fill-rule:evenodd;"
points="42420,30802
42432,30805
42432,30805
42442,30811
42442,30811
42442,30811
42451,30818
42458,30827
42464,30837
42467,30849
42469,30863
42469,30868
42471,30877
42474,30886
42480,30894
42487,30901
42495,30906
42503,30910
42513,30912
42518,30912
42532,30913
42543,30916
42543,30916
42553,30922
42558,30925
42562,30929
42570,30938
42575,30949
42579,30960
42580,30974
42580,30979
42582,30988
42586,30997
42591,31005
42598,31012
42606,31017
42615,31021
42624,31023
42629,31023
42643,31024
42654,31028
42654,31028
42665,31033
42674,31041
42681,31050
42687,31060
42687,31060
42690,31071
42691,31085
42691,31090
42693,31100
42697,31109
42702,31117
42709,31123
42717,31129
42726,31133
42736,31134
42740,31134
42755,31136
42766,31139
42766,31139
42776,31145
42785,31152
42793,31161
42796,31168
42798,31172
42801,31183
42803,31197
42803,31202
42805,31211
42808,31220
42814,31228
42821,31235
42829,31240
42838,31244
42847,31246
42852,31246
42866,31247
42877,31251
42877,31251
42887,31256
42887,31256
42887,31256
42896,31264
42904,31273
42909,31283
42913,31294
42914,31308
42914,31313
42916,31322
42920,31331
42925,31339
42932,31346
42940,31352
42949,31355
42958,31357
42963,31357
42977,31359
42988,31362
42988,31362
42999,31367
43008,31375
43015,31384
43016,31386
43021,31394
43024,31405
43026,31420
43026,31424
43027,31434
43031,31443
43036,31451
43043,31458
43051,31463
43060,31467
43070,31468
43075,31468
43089,31470
43100,31473
43100,31473
43110,31479
43119,31486
43127,31495
43129,31500
43132,31506
43136,31517
43137,31531
43137,31536
43139,31545
43142,31554
43148,31562
43155,31569
43163,31574
43172,31578
43181,31580
43186,31580
43200,31581
43211,31585
43211,31585
43221,31590
43221,31590
43221,31590
43231,31598
43238,31607
43243,31617
43247,31628
43248,31642
43248,31647
43250,31657
43254,31665
43259,31673
43266,31680
43274,31686
43283,31689
43292,31691
43297,31691
43311,31693
43323,31696
43323,31696
43333,31702
43342,31709
43349,31718
43355,31728
43355,31728
43358,31740
43360,31754
43360,31758
43361,31768
43365,31777
43371,31785
43377,31792
43385,31797
43394,31801
43404,31803
43409,31803
43423,31804
43434,31807
43434,31807
43444,31813
43453,31820
43461,31829
43466,31840
43466,31840
43470,31851
43471,31865
43471,31870
43473,31879
43477,31888
43482,31896
43489,31903
43497,31908
43506,31912
43515,31914
43520,31914
43534,31915
43545,31919
43545,31919
43556,31924
43565,31932
43572,31941
43574,31944
43578,31951
43581,31962
43582,31976
43582,31981
43584,31991
43588,31999
43593,32008
43600,32014
43608,32020
43617,32023
43626,32025
43631,32025
43645,32027
43657,32030
43657,32030
43667,32036
43667,32036
43667,32036
43676,32043
43683,32052
43689,32062
43692,32074
43694,32088
43694,32092
43696,32102
43699,32111
43705,32119
43711,32126
43719,32131
43728,32135
43738,32137
43743,32137
43757,32138
43768,32141
43768,32141
43778,32147
43787,32154
43795,32163
43799,32171
43800,32174
43804,32185
43805,32199
43805,32204
43807,32213
43811,32222
43816,32230
43823,32237
43831,32242
43840,32246
43849,32248
43854,32248
43868,32249
43879,32253
43879,32253
43890,32258
43899,32266
43906,32275
43912,32285
43912,32285
43915,32296
43916,32310
43916,32315
43918,32325
43922,32334
43927,32342
43934,32348
43942,32354
43951,32357
43961,32359
43965,32359
43979,32361
43991,32364
43991,32364
44001,32370
44010,32377
44017,32386
44020,32391
44023,32396
44026,32408
44028,32422
44028,32427
44030,32436
44033,32445
44039,32453
44046,32460
44054,32465
44062,32469
44072,32471
44077,32471
44091,32472
44102,32475
44102,32475
44112,32481
44121,32488
44129,32497
44133,32505
44134,32508
44138,32519
44139,32533
44139,32538
44141,32547
44145,32556
44150,32564
44157,32571
44165,32576
44174,32580
44183,32582
44188,32582
44202,32583
44213,32587
44213,32587
44224,32592
44233,32600
44240,32609
44242,32613
44246,32619
44249,32630
44250,32642
44249,32654
44246,32665
44246,32665
44240,32675
44239,32677
44235,32682
44063,32853
44063,32853
44057,32859
44046,32864
44046,32864
44035,32868
44023,32869
44012,32868
44001,32864
44001,32864
43990,32859
43981,32851
43974,32842
43968,32832
43968,32832
43965,32821
43963,32807
43963,32802
43962,32792
43958,32783
43953,32775
43946,32769
43938,32763
43929,32760
43919,32758
43915,32758
43900,32756
43889,32753
43889,32753
43879,32747
43870,32740
43862,32731
43857,32721
43857,32721
43854,32709
43852,32695
43852,32690
43850,32681
43847,32672
43841,32664
43834,32657
43826,32652
43817,32648
43808,32646
43803,32646
43789,32645
43778,32642
43775,32640
43768,32636
43759,32629
43751,32620
43746,32609
43745,32609
43742,32598
43741,32584
43741,32579
43739,32570
43735,32561
43730,32553
43723,32546
43715,32541
43706,32537
43697,32535
43692,32535
43678,32534
43667,32530
43663,32528
43656,32525
43647,32517
43640,32508
43634,32498
43634,32497
43631,32487
43629,32473
43629,32468
43628,32458
43624,32449
43618,32441
43612,32435
43604,32429
43595,32425
43585,32424
43580,32424
43566,32422
43555,32419
43552,32417
43545,32413
43536,32406
43528,32397
43523,32386
43523,32386
43519,32375
43518,32361
43518,32356
43516,32347
43512,32338
43507,32330
43500,32323
43492,32318
43483,32314
43474,32312
43469,32312
43455,32311
43444,32307
43444,32307
43433,32302
43424,32295
43417,32285
43411,32275
43411,32275
43408,32264
43407,32250
43407,32245
43405,32236
43401,32227
43396,32219
43389,32212
43381,32206
43372,32203
43363,32201
43358,32201
43344,32200
43332,32196
43328,32194
43322,32191
43313,32183
43306,32174
43300,32164
43300,32163
43297,32153
43295,32138
43295,32134
43293,32124
43290,32115
43284,32107
43278,32100
43270,32095
43261,32091
43251,32090
43246,32090
43232,32088
43221,32085
43221,32085
43211,32079
43202,32072
43194,32063
43189,32052
43189,32052
43185,32041
43184,32027
43184,32022
43182,32013
43178,32004
43173,31996
43166,31989
43158,31984
43149,31980
43140,31978
43135,31978
43121,31977
43110,31973
43110,31973
43099,31968
43090,31960
43083,31951
43077,31941
43077,31941
43074,31930
43073,31916
43073,31911
43071,31902
43067,31893
43062,31885
43055,31878
43047,31872
43038,31869
43028,31867
43024,31867
43010,31865
42998,31862
42995,31860
42988,31857
42979,31849
42972,31840
42966,31830
42966,31829
42963,31819
42961,31804
42961,31800
42959,31790
42956,31781
42950,31773
42944,31766
42936,31761
42927,31757
42917,31755
42912,31755
42898,31754
42887,31751
42879,31746
42877,31745
42868,31738
42860,31729
42855,31718
42855,31718
42851,31707
42850,31693
42850,31688
42848,31679
42844,31670
42839,31662
42832,31655
42824,31650
42815,31646
42806,31644
42801,31644
42787,31643
42776,31639
42767,31634
42765,31634
42756,31626
42749,31617
42743,31607
42743,31607
42740,31596
42739,31582
42739,31577
42737,31567
42733,31559
42728,31551
42721,31544
42713,31538
42704,31535
42694,31533
42690,31533
42676,31531
42664,31528
42662,31527
42654,31522
42645,31515
42638,31506
42632,31496
42632,31496
42629,31484
42627,31470
42627,31466
42625,31456
42622,31447
42616,31439
42609,31432
42601,31427
42593,31423
42583,31421
42578,31421
42564,31420
42553,31417
42553,31417
42543,31411
42534,31404
42526,31395
42521,31384
42521,31384
42517,31373
42516,31359
42516,31354
42514,31345
42510,31336
42505,31328
42498,31321
42490,31316
42481,31312
42472,31310
42467,31310
42453,31309
42442,31305
42442,31305
42431,31300
42422,31292
42415,31283
42409,31273
42409,31273
42406,31262
42405,31248
42405,31243
42403,31233
42399,31224
42394,31216
42387,31210
42379,31204
42370,31201
42360,31199
42356,31199
42341,31197
42330,31194
42323,31190
42320,31188
42311,31181
42303,31172
42298,31162
42298,31162
42295,31150
42293,31136
42293,31131
42291,31122
42288,31113
42282,31105
42275,31098
42267,31093
42258,31089
42249,31087
42244,31087
42230,31086
42219,31083
42219,31083
42209,31077
42200,31070
42192,31061
42187,31050
42186,31050
42183,31039
42182,31027
42183,31016
42187,31005
42187,31004
42192,30994
42198,30987
42198,30987
42198,30987
42369,30816
42369,30816
42376,30811
42386,30805
42386,30805
42397,30802
42409,30801
42420,30802
" /> 
<polyline style="fill-rule:evenodd;"
points="39394,32458
39402,32460
39410,32464
39418,32471
39560,32613
39567,32621
39571,32629
39573,32637
39574,32645
39573,32654
39571,32662
39567,32670
39560,32678
39432,32806
39423,32813
39416,32817
39408,32819
39399,32820
39391,32819
39383,32817
39375,32813
39367,32806
39225,32664
39218,32656
39214,32648
39212,32640
39211,32632
39212,32623
39214,32615
39218,32608
39225,32599
39353,32471
39361,32464
39369,32460
39377,32458
39386,32457
39394,32458
" /> 
<polyline style="fill-rule:evenodd;"
points="44648,32399
44656,32401
44663,32405
44670,32410
44675,32417
44679,32424
44682,32433
44683,32443
44683,32644
44682,32654
44679,32663
44675,32670
44670,32677
44663,32682
44656,32686
44648,32688
44637,32690
44456,32690
44445,32688
44437,32686
44430,32682
44423,32677
44418,32670
44414,32663
44411,32654
44410,32644
44410,32443
44411,32433
44414,32424
44418,32417
44423,32410
44430,32405
44437,32401
44445,32399
44456,32397
44637,32397
44648,32399
" /> 
<polyline style="fill-rule:evenodd;"
points="45030,32399
45038,32401
45045,32405
45052,32410
45057,32417
45061,32424
45064,32433
45065,32443
45065,32644
45064,32654
45061,32663
45057,32670
45052,32677
45045,32682
45038,32686
45030,32688
45019,32690
44838,32690
44827,32688
44819,32686
44812,32682
44805,32677
44800,32670
44796,32663
44793,32654
44792,32644
44792,32443
44793,32433
44796,32424
44800,32417
44805,32410
44812,32405
44819,32401
44827,32399
44838,32397
45019,32397
45030,32399
" /> 
<polyline style="fill-rule:evenodd;"
points="39664,32188
39672,32190
39680,32194
39688,32201
39830,32343
39837,32351
39841,32359
39843,32367
39844,32375
39843,32384
39841,32392
39837,32399
39830,32408
39702,32536
39694,32543
39686,32547
39678,32549
39669,32550
39661,32549
39653,32547
39645,32543
39637,32536
39495,32394
39488,32386
39484,32378
39482,32370
39481,32362
39482,32353
39484,32345
39488,32337
39495,32329
39623,32201
39632,32194
39639,32190
39647,32188
39656,32187
39664,32188
" /> 
<polyline style="fill-rule:evenodd;"
points="37661,31224
37729,31252
37790,31293
37842,31345
37883,31406
37912,31475
37926,31547
37926,31621
37912,31693
37883,31761
37842,31822
37790,31875
37729,31916
37661,31944
37588,31958
37515,31958
37442,31944
37374,31916
37313,31875
37261,31822
37220,31761
37191,31693
37177,31621
37177,31547
37191,31475
37220,31406
37261,31345
37313,31293
37374,31252
37442,31224
37515,31209
37588,31209
37661,31224
" /> 
<polyline style="fill-rule:evenodd;"
points="44144,31583
44152,31585
44160,31589
44168,31596
44310,31738
44317,31746
44321,31754
44323,31762
44324,31770
44323,31779
44321,31787
44317,31795
44310,31803
44182,31931
44173,31938
44166,31942
44158,31944
44149,31945
44141,31944
44133,31942
44125,31938
44117,31931
43975,31789
43968,31781
43964,31773
43962,31765
43961,31757
43962,31748
43964,31740
43968,31733
43975,31724
44103,31596
44111,31589
44119,31585
44127,31583
44136,31582
44144,31583
" /> 
<polyline style="fill-rule:evenodd;"
points="44414,31313
44422,31315
44430,31319
44438,31326
44580,31468
44587,31476
44591,31484
44593,31492
44594,31500
44593,31509
44591,31517
44587,31524
44580,31533
44452,31661
44444,31668
44436,31672
44428,31674
44419,31675
44411,31674
44403,31672
44395,31668
44387,31661
44245,31519
44238,31511
44234,31503
44232,31495
44231,31487
44232,31478
44234,31470
44238,31462
44245,31454
44373,31326
44382,31319
44389,31315
44397,31313
44406,31312
44414,31313
" /> 
<polyline style="fill-rule:evenodd;"
points="43890,31294
43898,31296
43906,31300
43914,31307
44042,31435
44049,31444
44053,31451
44055,31459
44056,31468
44055,31476
44053,31484
44049,31492
44042,31500
43900,31642
43892,31649
43884,31653
43876,31655
43868,31656
43859,31655
43851,31653
43844,31649
43835,31642
43707,31514
43700,31506
43696,31498
43694,31490
43693,31481
43694,31473
43696,31465
43700,31457
43707,31449
43849,31307
43857,31300
43865,31296
43873,31294
43881,31293
43890,31294
" /> 
<polyline style="fill-rule:evenodd;"
points="43620,31024
43628,31026
43635,31030
43644,31037
43772,31165
43779,31173
43783,31181
43785,31189
43786,31198
43785,31206
43783,31214
43779,31222
43772,31230
43630,31372
43622,31379
43614,31383
43606,31385
43598,31386
43589,31385
43581,31383
43573,31379
43565,31372
43437,31244
43430,31235
43426,31228
43424,31220
43423,31211
43424,31203
43426,31195
43430,31187
43437,31179
43579,31037
43587,31030
43595,31026
43603,31024
43611,31023
43620,31024
" /> 
<polyline style="fill-rule:evenodd;"
points="44178,31008
44186,31010
44194,31014
44202,31021
44330,31149
44337,31158
44341,31165
44343,31173
44344,31182
44343,31190
44341,31198
44337,31206
44330,31214
44188,31356
44180,31363
44172,31367
44164,31369
44156,31370
44147,31369
44139,31367
44132,31363
44123,31356
43995,31228
43988,31220
43984,31212
43982,31204
43981,31195
43982,31187
43984,31179
43988,31171
43995,31163
44137,31021
44145,31014
44153,31010
44161,31008
44169,31007
44178,31008
" /> 
<polyline style="fill-rule:evenodd;"
points="43908,30738
43916,30740
43923,30744
43932,30751
44060,30879
44067,30887
44071,30895
44073,30903
44074,30912
44073,30920
44071,30928
44067,30936
44060,30944
43918,31086
43910,31093
43902,31097
43894,31099
43886,31100
43877,31099
43869,31097
43861,31093
43853,31086
43725,30958
43718,30949
43714,30942
43712,30934
43711,30925
43712,30917
43714,30909
43718,30901
43725,30893
43867,30751
43875,30744
43883,30740
43891,30738
43899,30737
43908,30738
" /> 
<polyline style="fill-rule:evenodd;"
points="37926,30974
37177,30974
37177,30225
37926,30225
37926,30974
" /> 
<polyline style="fill-rule:evenodd;"
points="42503,30266
42511,30268
42519,30272
42525,30278
42531,30284
42535,30292
42537,30300
42538,30311
42538,30511
42537,30522
42535,30530
42531,30537
42525,30544
42519,30549
42511,30553
42503,30556
42492,30557
42312,30557
42301,30556
42293,30553
42285,30549
42279,30544
42273,30537
42269,30530
42267,30522
42266,30511
42266,30311
42267,30300
42269,30292
42273,30284
42279,30278
42285,30272
42293,30268
42301,30266
42312,30265
42492,30265
42503,30266
" /> 
<polyline style="fill-rule:evenodd;"
points="42885,30266
42893,30268
42901,30272
42907,30278
42912,30284
42916,30292
42919,30300
42920,30311
42920,30511
42919,30522
42916,30530
42912,30537
42907,30544
42901,30549
42893,30553
42885,30556
42874,30557
42693,30557
42683,30556
42675,30553
42667,30549
42660,30544
42655,30537
42651,30530
42649,30522
42648,30511
42648,30311
42649,30300
42651,30292
42655,30284
42660,30278
42667,30272
42675,30268
42683,30266
42693,30265
42874,30265
42885,30266
" /> 
<polyline style="fill-rule:evenodd;"
points="46917,28650
46918,28660
46921,28669
46925,28678
46932,28685
46939,28691
46948,28696
46957,28699
46966,28700
47025,28700
47025,29271
46966,29271
46957,29272
46948,29275
46939,29280
46932,29286
46925,29293
46921,29302
46918,29311
46917,29321
46917,29576
45952,29576
45952,29321
45951,29311
45948,29302
45944,29293
45937,29286
45930,29280
45921,29275
45912,29272
45903,29271
45844,29271
45844,28720
46120,28720
46120,29251
46121,29260
46124,29270
46128,29278
46134,29286
46142,29292
46150,29296
46160,29299
46169,29300
46700,29300
46709,29299
46719,29296
46727,29292
46735,29286
46741,29278
46745,29270
46748,29260
46749,29251
46749,28720
46748,28711
46745,28701
46741,28693
46735,28685
46727,28679
46719,28675
46709,28672
46700,28671
46169,28671
46160,28672
46150,28675
46142,28679
46134,28685
46128,28693
46124,28701
46121,28711
46120,28720
45844,28720
45844,28700
45903,28700
45912,28699
45921,28696
45930,28691
45937,28685
45944,28678
45948,28669
45951,28660
45952,28650
45952,28395
46917,28395
46917,28650
" /> 
<polyline style="fill-rule:evenodd;"
points="44901,28748
44909,28750
44917,28754
44923,28759
44929,28766
44933,28773
44935,28782
44936,28792
44936,28993
44935,29003
44933,29012
44929,29019
44923,29026
44917,29031
44909,29035
44901,29037
44890,29039
44710,29039
44699,29037
44691,29035
44683,29031
44677,29026
44671,29019
44667,29012
44665,29003
44664,28993
44664,28792
44665,28782
44667,28773
44671,28766
44677,28759
44683,28754
44691,28750
44699,28748
44710,28746
44890,28746
44901,28748
" /> 
<polyline style="fill-rule:evenodd;"
points="44519,28748
44528,28750
44535,28754
44542,28759
44547,28766
44551,28773
44553,28782
44555,28792
44555,28993
44553,29003
44551,29012
44547,29019
44542,29026
44535,29031
44528,29035
44519,29037
44509,29039
44328,29039
44317,29037
44309,29035
44302,29031
44295,29026
44290,29019
44286,29012
44283,29003
44282,28993
44282,28792
44283,28782
44286,28773
44290,28766
44295,28759
44302,28754
44309,28750
44317,28748
44328,28746
44509,28746
44519,28748
" /> 
<polyline style="fill-rule:evenodd;"
points="40543,28259
40556,28263
40568,28269
40579,28278
40588,28289
40595,28301
40599,28315
40600,28331
40600,28597
40599,28614
40595,28627
40588,28639
40579,28650
40568,28659
40556,28665
40543,28670
40526,28671
40290,28671
40273,28670
40260,28665
40248,28659
40237,28650
40228,28639
40221,28627
40217,28614
40216,28597
40216,28331
40217,28315
40221,28301
40228,28289
40237,28278
40248,28269
40260,28263
40273,28259
40290,28257
40526,28257
40543,28259
" /> 
<polyline style="fill-rule:evenodd;"
points="39923,28259
39936,28263
39948,28269
39959,28278
39968,28289
39975,28301
39979,28315
39980,28331
39980,28597
39979,28614
39975,28627
39968,28639
39959,28650
39948,28659
39936,28665
39923,28670
39906,28671
39670,28671
39653,28670
39640,28665
39627,28659
39617,28650
39608,28639
39601,28627
39597,28614
39596,28597
39596,28331
39597,28315
39601,28301
39608,28289
39617,28278
39627,28269
39640,28263
39653,28259
39670,28257
39906,28257
39923,28259
" /> 
<polyline style="fill-rule:evenodd;"
points="37108,28239
37121,28243
37133,28250
37144,28258
37153,28269
37160,28282
37164,28295
37165,28311
37165,28577
37164,28594
37160,28607
37153,28620
37144,28630
37133,28639
37121,28646
37108,28650
37091,28651
36855,28651
36838,28650
36825,28646
36813,28639
36802,28630
36793,28620
36786,28607
36782,28594
36781,28577
36781,28311
36782,28295
36786,28282
36793,28269
36802,28258
36813,28250
36825,28243
36838,28239
36855,28237
37091,28237
37108,28239
" /> 
<polyline style="fill-rule:evenodd;"
points="37728,28239
37741,28243
37753,28250
37764,28258
37773,28269
37780,28282
37784,28295
37785,28311
37785,28577
37784,28594
37780,28607
37773,28620
37764,28630
37753,28639
37741,28646
37728,28650
37711,28651
37475,28651
37458,28650
37445,28646
37433,28639
37422,28630
37413,28620
37406,28607
37402,28594
37401,28577
37401,28311
37402,28295
37406,28282
37413,28269
37422,28258
37433,28250
37445,28243
37458,28239
37475,28237
37711,28237
37728,28239
" /> 
<polyline style="fill-rule:evenodd;"
points="41980,28345
41988,28347
41995,28351
42002,28357
42007,28363
42011,28371
42014,28379
42015,28390
42015,28590
42014,28601
42011,28609
42007,28616
42002,28623
41995,28628
41988,28632
41980,28635
41969,28636
41788,28636
41777,28635
41769,28632
41762,28628
41755,28623
41750,28616
41746,28609
41743,28601
41742,28590
41742,28390
41743,28379
41746,28371
41750,28363
41755,28357
41762,28351
41769,28347
41777,28345
41788,28344
41969,28344
41980,28345
" /> 
<polyline style="fill-rule:evenodd;"
points="41598,28345
41606,28347
41613,28351
41620,28357
41625,28363
41629,28371
41632,28379
41633,28390
41633,28590
41632,28601
41629,28609
41625,28616
41620,28623
41613,28628
41606,28632
41598,28635
41587,28636
41406,28636
41395,28635
41387,28632
41380,28628
41373,28623
41368,28616
41364,28609
41361,28601
41360,28590
41360,28390
41361,28379
41364,28371
41368,28363
41373,28357
41380,28351
41387,28347
41395,28345
41406,28344
41587,28344
41598,28345
" /> 
<polyline style="fill-rule:evenodd;"
points="39024,28221
39032,28223
39039,28227
39046,28232
39051,28239
39055,28247
39058,28255
39059,28266
39059,28466
39058,28477
39055,28485
39051,28492
39046,28499
39039,28504
39032,28508
39024,28511
39013,28512
38832,28512
38822,28511
38813,28508
38806,28504
38799,28499
38794,28492
38790,28485
38788,28477
38787,28466
38787,28266
38788,28255
38790,28247
38794,28239
38799,28232
38806,28227
38813,28223
38822,28221
38832,28220
39013,28220
39024,28221
" /> 
<polyline style="fill-rule:evenodd;"
points="39406,28221
39414,28223
39421,28227
39428,28232
39433,28239
39437,28247
39440,28255
39441,28266
39441,28466
39440,28477
39437,28485
39433,28492
39428,28499
39421,28504
39414,28508
39406,28511
39395,28512
39214,28512
39203,28511
39195,28508
39188,28504
39181,28499
39176,28492
39172,28485
39169,28477
39168,28466
39168,28266
39169,28255
39172,28247
39176,28239
39181,28232
39188,28227
39195,28223
39203,28221
39214,28220
39395,28220
39406,28221
" /> 
<polyline style="fill-rule:evenodd;"
points="38197,28201
38205,28203
38213,28207
38219,28213
38225,28219
38229,28227
38231,28235
38232,28246
38232,28446
38231,28457
38229,28465
38225,28473
38219,28479
38213,28484
38205,28488
38197,28491
38186,28492
38006,28492
37995,28491
37987,28488
37979,28484
37973,28479
37967,28473
37963,28465
37961,28457
37960,28446
37960,28246
37961,28235
37963,28227
37967,28219
37973,28213
37979,28207
37987,28203
37995,28201
38006,28200
38186,28200
38197,28201
" /> 
<polyline style="fill-rule:evenodd;"
points="38579,28201
38587,28203
38595,28207
38601,28213
38607,28219
38611,28227
38613,28235
38614,28246
38614,28446
38613,28457
38611,28465
38607,28473
38601,28479
38595,28484
38587,28488
38579,28491
38568,28492
38388,28492
38377,28491
38369,28488
38361,28484
38355,28479
38349,28473
38345,28465
38343,28457
38342,28446
38342,28246
38343,28235
38345,28227
38349,28219
38355,28213
38361,28207
38369,28203
38377,28201
38388,28200
38568,28200
38579,28201
" /> 
<polyline style="fill-rule:evenodd;"
points="42085,28166
41336,28166
41336,27791
42085,27791
42085,28166
" /> 
<polyline style="fill-rule:evenodd;"
points="46938,27859
46947,27862
46954,27866
46961,27871
46966,27878
46970,27885
46972,27893
46974,27904
46974,28085
46972,28096
46970,28104
46966,28111
46961,28118
46954,28123
46947,28127
46938,28130
46928,28131
46727,28131
46717,28130
46708,28127
46701,28123
46694,28118
46689,28111
46685,28104
46683,28096
46681,28085
46681,27904
46683,27893
46685,27885
46689,27878
46694,27871
46701,27866
46708,27862
46717,27859
46727,27858
46928,27858
46938,27859
" /> 
<polyline style="fill-rule:evenodd;"
points="46457,27655
46472,27660
46486,27668
46498,27678
46509,27690
46516,27704
46521,27719
46522,27737
46522,27994
46521,28012
46516,28027
46509,28041
46498,28054
46486,28064
46472,28071
46457,28076
46439,28078
46015,28078
45997,28076
45981,28071
45967,28064
45955,28054
45945,28041
45938,28027
45933,28012
45931,27994
45931,27737
45933,27719
45938,27704
45945,27690
45955,27678
45967,27668
45981,27660
45997,27655
46015,27654
46439,27654
46457,27655
" /> 
<polyline style="fill-rule:evenodd;"
points="37707,28039
37411,28039
37411,27519
37707,27519
37707,28039
" /> 
<polyline style="fill-rule:evenodd;"
points="39852,28039
39556,28039
39556,27519
39852,27519
39852,28039
" /> 
<polyline style="fill-rule:evenodd;"
points="39104,28039
38808,28039
38808,27519
39104,27519
39104,28039
" /> 
<polyline style="fill-rule:evenodd;"
points="38455,28039
38159,28039
38159,27519
38455,27519
38455,28039
" /> 
<polyline style="fill-rule:evenodd;"
points="42586,27605
42594,27607
42601,27611
42608,27616
42613,27623
42617,27630
42620,27639
42621,27649
42621,27830
42620,27841
42617,27849
42613,27856
42608,27863
42601,27868
42594,27872
42586,27875
42575,27876
42375,27876
42364,27875
42356,27872
42348,27868
42342,27863
42336,27856
42332,27849
42330,27841
42329,27830
42329,27649
42330,27639
42332,27630
42336,27623
42342,27616
42348,27611
42356,27607
42364,27605
42375,27604
42575,27604
42586,27605
" /> 
<polyline style="fill-rule:evenodd;"
points="46938,27477
46947,27480
46954,27484
46961,27489
46966,27496
46970,27503
46972,27511
46974,27522
46974,27703
46972,27714
46970,27722
46966,27729
46961,27736
46954,27741
46947,27745
46938,27748
46928,27749
46727,27749
46717,27748
46708,27745
46701,27741
46694,27736
46689,27729
46685,27722
46683,27714
46681,27703
46681,27522
46683,27511
46685,27503
46689,27496
46694,27489
46701,27484
46708,27480
46717,27477
46727,27476
46928,27476
46938,27477
" /> 
<polyline style="fill-rule:evenodd;"
points="42586,27223
42594,27225
42601,27229
42608,27235
42613,27241
42617,27249
42620,27257
42621,27268
42621,27448
42620,27459
42617,27467
42613,27475
42608,27481
42601,27487
42594,27491
42586,27493
42575,27494
42375,27494
42364,27493
42356,27491
42348,27487
42342,27481
42336,27475
42332,27467
42330,27459
42329,27448
42329,27268
42330,27257
42332,27249
42336,27241
42342,27235
42348,27229
42356,27225
42364,27223
42375,27222
42575,27222
42586,27223
" /> 
<polyline style="fill-rule:evenodd;"
points="42085,27418
41336,27418
41336,27043
42085,27043
42085,27418
" /> 
<polyline style="fill-rule:evenodd;"
points="46457,26917
46472,26922
46486,26929
46498,26939
46509,26952
46516,26966
46521,26981
46522,26999
46522,27256
46521,27274
46516,27289
46509,27303
46498,27315
46486,27325
46472,27333
46457,27338
46439,27339
46015,27339
45997,27338
45981,27333
45967,27325
45955,27315
45945,27303
45938,27289
45933,27274
45931,27256
45931,26999
45933,26981
45938,26966
45945,26952
45955,26939
45967,26929
45981,26922
45997,26917
46015,26915
46439,26915
46457,26917
" /> 
<polyline style="fill-rule:evenodd;"
points="38455,27008
37411,27008
37411,26487
38455,26487
38455,27008
" /> 
<polyline style="fill-rule:evenodd;"
points="39852,27008
38808,27008
38808,26487
39852,26487
39852,27008
" /> 
<polyline style="fill-rule:evenodd;"
points="42332,26239
42340,26241
42347,26245
42354,26250
42359,26257
42363,26264
42366,26273
42367,26283
42367,26464
42366,26475
42363,26483
42359,26490
42354,26497
42347,26502
42340,26506
42332,26509
42321,26510
42121,26510
42110,26509
42102,26506
42094,26502
42088,26497
42082,26490
42078,26483
42076,26475
42075,26464
42075,26283
42076,26273
42078,26264
42082,26257
42088,26250
42094,26245
42102,26241
42110,26239
42121,26238
42321,26238
42332,26239
" /> 
<polyline style="fill-rule:evenodd;"
points="41552,26239
41560,26241
41567,26245
41574,26250
41579,26257
41583,26264
41586,26273
41587,26283
41587,26464
41586,26475
41583,26483
41579,26490
41574,26497
41567,26502
41560,26506
41552,26509
41541,26510
41341,26510
41330,26509
41322,26506
41314,26502
41308,26497
41302,26490
41298,26483
41296,26475
41295,26464
41295,26283
41296,26273
41298,26264
41302,26257
41308,26250
41314,26245
41322,26241
41330,26239
41341,26238
41541,26238
41552,26239
" /> 
<polyline style="fill-rule:evenodd;"
points="40838,26225
40846,26227
40854,26231
40860,26236
40866,26243
40870,26251
40872,26259
40873,26270
40873,26450
40872,26461
40870,26469
40866,26477
40860,26483
40854,26488
40846,26492
40838,26495
40827,26496
40627,26496
40616,26495
40608,26492
40601,26488
40594,26483
40589,26477
40585,26469
40582,26461
40581,26450
40581,26270
40582,26259
40585,26251
40589,26243
40594,26236
40601,26231
40608,26227
40616,26225
40627,26224
40827,26224
40838,26225
" /> 
<polyline style="fill-rule:evenodd;"
points="46863,25772
46877,25776
46889,25783
46900,25792
46909,25803
46915,25815
46919,25828
46921,25845
46921,26111
46919,26127
46915,26141
46909,26153
46900,26164
46889,26173
46877,26179
46863,26183
46847,26185
46610,26185
46594,26183
46581,26179
46568,26173
46558,26164
46549,26153
46542,26141
46538,26127
46536,26111
46536,25845
46538,25828
46542,25815
46549,25803
46558,25792
46568,25783
46581,25776
46594,25772
46610,25771
46847,25771
46863,25772
" /> 
<polyline style="fill-rule:evenodd;"
points="47484,25772
47497,25776
47509,25783
47520,25792
47529,25803
47535,25815
47540,25828
47541,25845
47541,26111
47540,26127
47535,26141
47529,26153
47520,26164
47509,26173
47497,26179
47484,26183
47467,26185
47230,26185
47214,26183
47201,26179
47188,26173
47178,26164
47169,26153
47162,26141
47158,26127
47157,26111
47157,25845
47158,25828
47162,25815
47169,25803
47178,25792
47188,25783
47201,25776
47214,25772
47230,25771
47467,25771
47484,25772
" /> 
<polyline style="fill-rule:evenodd;"
points="38414,25878
38422,25881
38429,25885
38436,25890
38441,25897
38445,25904
38448,25912
38449,25923
38449,26123
38448,26134
38445,26142
38441,26150
38436,26156
38429,26162
38422,26166
38414,26168
38403,26169
38222,26169
38211,26168
38203,26166
38196,26162
38189,26156
38184,26150
38180,26142
38177,26134
38176,26123
38176,25923
38177,25912
38180,25904
38184,25897
38189,25890
38196,25885
38203,25881
38211,25878
38222,25877
38403,25877
38414,25878
" /> 
<polyline style="fill-rule:evenodd;"
points="39583,25878
39591,25881
39599,25885
39605,25890
39610,25897
39614,25904
39617,25912
39618,25923
39618,26123
39617,26134
39614,26142
39610,26150
39605,26156
39599,26162
39591,26166
39583,26168
39572,26169
39391,26169
39381,26168
39373,26166
39365,26162
39358,26156
39353,26150
39349,26142
39347,26134
39346,26123
39346,25923
39347,25912
39349,25904
39353,25897
39358,25890
39365,25885
39373,25881
39381,25878
39391,25877
39572,25877
39583,25878
" /> 
<polyline style="fill-rule:evenodd;"
points="38796,25878
38804,25881
38811,25885
38818,25890
38823,25897
38827,25904
38830,25912
38831,25923
38831,26123
38830,26134
38827,26142
38823,26150
38818,26156
38811,26162
38804,26166
38796,26168
38785,26169
38604,26169
38593,26168
38585,26166
38578,26162
38571,26156
38566,26150
38562,26142
38559,26134
38558,26123
38558,25923
38559,25912
38562,25904
38566,25897
38571,25890
38578,25885
38585,25881
38593,25878
38604,25877
38785,25877
38796,25878
" /> 
<polyline style="fill-rule:evenodd;"
points="39201,25878
39209,25881
39217,25885
39223,25890
39229,25897
39233,25904
39235,25912
39236,25923
39236,26123
39235,26134
39233,26142
39229,26150
39223,26156
39217,26162
39209,26166
39201,26168
39190,26169
39010,26169
38999,26168
38991,26166
38983,26162
38977,26156
38971,26150
38967,26142
38965,26134
38964,26123
38964,25923
38965,25912
38967,25904
38971,25897
38977,25890
38983,25885
38991,25881
38999,25878
39010,25877
39190,25877
39201,25878
" /> 
<polyline style="fill-rule:evenodd;"
points="45874,25864
45882,25866
45890,25870
45896,25875
45902,25882
45906,25889
45908,25898
45909,25908
45909,26109
45908,26119
45906,26128
45902,26135
45896,26142
45890,26147
45882,26151
45874,26153
45863,26155
45683,26155
45672,26153
45664,26151
45656,26147
45650,26142
45644,26135
45640,26128
45638,26119
45637,26109
45637,25908
45638,25898
45640,25889
45644,25882
45650,25875
45656,25870
45664,25866
45672,25864
45683,25862
45863,25862
45874,25864
" /> 
<polyline style="fill-rule:evenodd;"
points="46256,25864
46264,25866
46272,25870
46278,25875
46284,25882
46288,25889
46290,25898
46291,25908
46291,26109
46290,26119
46288,26128
46284,26135
46278,26142
46272,26147
46264,26151
46256,26153
46245,26155
46065,26155
46054,26153
46046,26151
46038,26147
46032,26142
46026,26135
46022,26128
46020,26119
46019,26109
46019,25908
46020,25898
46022,25889
46026,25882
46032,25875
46038,25870
46046,25866
46054,25864
46065,25862
46245,25862
46256,25864
" /> 
<polyline style="fill-rule:evenodd;"
points="42332,25857
42340,25859
42347,25863
42354,25869
42359,25875
42363,25883
42366,25891
42367,25902
42367,26082
42366,26093
42363,26101
42359,26109
42354,26115
42347,26121
42340,26125
42332,26127
42321,26128
42121,26128
42110,26127
42102,26125
42094,26121
42088,26115
42082,26109
42078,26101
42076,26093
42075,26082
42075,25902
42076,25891
42078,25883
42082,25875
42088,25869
42094,25863
42102,25859
42110,25857
42121,25856
42321,25856
42332,25857
" /> 
<polyline style="fill-rule:evenodd;"
points="41552,25857
41560,25859
41567,25863
41574,25869
41579,25875
41583,25883
41586,25891
41587,25902
41587,26082
41586,26093
41583,26101
41579,26109
41574,26115
41567,26121
41560,26125
41552,26127
41541,26128
41341,26128
41330,26127
41322,26125
41314,26121
41308,26115
41302,26109
41298,26101
41296,26093
41295,26082
41295,25902
41296,25891
41298,25883
41302,25875
41308,25869
41314,25863
41322,25859
41330,25857
41341,25856
41541,25856
41552,25857
" /> 
<polyline style="fill-rule:evenodd;"
points="40838,25843
40846,25845
40854,25849
40860,25855
40866,25861
40870,25869
40872,25877
40873,25888
40873,26068
40872,26079
40870,26087
40866,26095
40860,26101
40854,26107
40846,26111
40838,26113
40827,26114
40627,26114
40616,26113
40608,26111
40601,26107
40594,26101
40589,26095
40585,26087
40582,26079
40581,26068
40581,25888
40582,25877
40585,25869
40589,25861
40594,25855
40601,25849
40608,25845
40616,25843
40627,25842
40827,25842
40838,25843
" /> 
<polyline style="fill-rule:evenodd;"
points="46863,25020
46877,25024
46889,25031
46900,25040
46909,25051
46915,25063
46919,25076
46921,25093
46921,25359
46919,25375
46915,25389
46909,25401
46900,25412
46889,25421
46877,25427
46863,25431
46847,25433
46610,25433
46594,25431
46581,25427
46568,25421
46558,25412
46549,25401
46542,25389
46538,25375
46536,25359
46536,25093
46538,25076
46542,25063
46549,25051
46558,25040
46568,25031
46581,25024
46594,25020
46610,25019
46847,25019
46863,25020
" /> 
<polyline style="fill-rule:evenodd;"
points="47484,25020
47497,25024
47509,25031
47520,25040
47529,25051
47535,25063
47540,25076
47541,25093
47541,25359
47540,25375
47535,25389
47529,25401
47520,25412
47509,25421
47497,25427
47484,25431
47467,25433
47230,25433
47214,25431
47201,25427
47188,25421
47178,25412
47169,25401
47162,25389
47158,25375
47157,25359
47157,25093
47158,25076
47162,25063
47169,25051
47178,25040
47188,25031
47201,25024
47214,25020
47230,25019
47467,25019
47484,25020
" /> 
<polyline style="fill-rule:evenodd;"
points="46256,25089
46264,25091
46272,25095
46278,25100
46284,25107
46288,25114
46290,25123
46291,25133
46291,25334
46290,25344
46288,25353
46284,25360
46278,25367
46272,25372
46264,25376
46256,25378
46245,25380
46065,25380
46054,25378
46046,25376
46038,25372
46032,25367
46026,25360
46022,25353
46020,25344
46019,25334
46019,25133
46020,25123
46022,25114
46026,25107
46032,25100
46038,25095
46046,25091
46054,25089
46065,25087
46245,25087
46256,25089
" /> 
<polyline style="fill-rule:evenodd;"
points="45874,25089
45882,25091
45890,25095
45896,25100
45902,25107
45906,25114
45908,25123
45909,25133
45909,25334
45908,25344
45906,25353
45902,25360
45896,25367
45890,25372
45882,25376
45874,25378
45863,25380
45683,25380
45672,25378
45664,25376
45656,25372
45650,25367
45644,25360
45640,25353
45638,25344
45637,25334
45637,25133
45638,25123
45640,25114
45644,25107
45650,25100
45656,25095
45664,25091
45672,25089
45683,25087
45863,25087
45874,25089
" /> 
<polyline style="fill-rule:evenodd;"
points="41663,24195
41707,24209
41730,24216
41784,24245
41791,24248
41805,24260
41845,24293
41877,24332
41890,24347
41923,24408
41943,24475
41948,24527
41948,24661
41943,24713
41929,24757
41923,24780
41893,24834
41890,24841
41878,24855
41845,24895
41791,24940
41730,24973
41714,24977
41663,24993
41593,25000
41524,24993
41473,24977
41457,24973
41395,24940
41395,24940
41379,24926
41341,24895
41297,24841
41264,24780
41257,24757
41244,24713
41239,24661
41239,24527
41244,24475
41264,24408
41264,24408
41297,24347
41341,24293
41379,24262
41395,24248
41402,24245
41457,24216
41479,24209
41524,24195
41593,24188
41663,24195
" /> 
<polyline style="fill-rule:evenodd;"
points="42647,24195
42692,24209
42714,24216
42768,24245
42776,24248
42790,24260
42830,24293
42862,24332
42874,24347
42907,24408
42927,24475
42932,24527
42932,24661
42927,24713
42914,24757
42907,24780
42878,24834
42874,24841
42862,24855
42830,24895
42776,24940
42714,24973
42698,24977
42647,24993
42578,25000
42508,24993
42457,24977
42441,24973
42379,24940
42379,24940
42363,24926
42325,24895
42281,24841
42248,24780
42241,24757
42228,24713
42223,24661
42223,24527
42228,24475
42248,24408
42248,24408
42281,24347
42325,24293
42363,24262
42379,24248
42387,24245
42441,24216
42463,24209
42508,24195
42578,24188
42647,24195
" /> 
<polyline style="fill-rule:evenodd;"
points="40679,24195
40723,24209
40745,24216
40800,24245
40807,24248
40821,24260
40861,24293
40893,24332
40905,24347
40938,24408
40959,24475
40964,24527
40964,24661
40959,24713
40945,24757
40938,24780
40909,24834
40905,24841
40894,24855
40861,24895
40807,24940
40745,24973
40729,24977
40679,24993
40609,25000
40539,24993
40489,24977
40473,24973
40411,24940
40411,24940
40394,24926
40357,24895
40313,24841
40280,24780
40273,24757
40259,24713
40254,24661
40254,24527
40259,24475
40280,24408
40280,24408
40313,24347
40357,24293
40394,24262
40411,24248
40418,24245
40473,24216
40495,24209
40539,24195
40609,24188
40679,24195
" /> 
<polyline style="fill-rule:evenodd;"
points="43860,24192
43873,24196
43885,24202
43896,24211
43905,24221
43911,24233
43915,24246
43916,24262
43916,24926
43915,24942
43911,24955
43905,24967
43896,24977
43885,24986
43873,24992
43860,24996
43844,24998
43279,24998
43263,24996
43250,24992
43238,24986
43228,24977
43219,24967
43213,24955
43209,24942
43207,24926
43207,24262
43209,24246
43213,24233
43219,24221
43228,24211
43238,24202
43250,24196
43263,24192
43279,24190
43844,24190
43860,24192
" /> 
<polyline style="fill-rule:evenodd;"
points="47484,24268
47497,24272
47509,24279
47520,24288
47529,24299
47535,24311
47540,24324
47541,24341
47541,24607
47540,24623
47535,24637
47529,24649
47520,24660
47509,24669
47497,24675
47484,24679
47467,24681
47230,24681
47214,24679
47201,24675
47188,24669
47178,24660
47169,24649
47162,24637
47158,24623
47157,24607
47157,24341
47158,24324
47162,24311
47169,24299
47178,24288
47188,24279
47201,24272
47214,24268
47230,24267
47467,24267
47484,24268
" /> 
<polyline style="fill-rule:evenodd;"
points="46863,24268
46877,24272
46889,24279
46900,24288
46909,24299
46915,24311
46919,24324
46921,24341
46921,24607
46919,24623
46915,24637
46909,24649
46900,24660
46889,24669
46877,24675
46863,24679
46847,24681
46610,24681
46594,24679
46581,24675
46568,24669
46558,24660
46549,24649
46542,24637
46538,24623
46536,24607
46536,24341
46538,24324
46542,24311
46549,24299
46558,24288
46568,24279
46581,24272
46594,24268
46610,24267
46847,24267
46863,24268
" /> 
<polyline style="fill-rule:evenodd;"
points="45870,24314
45878,24316
45885,24320
45892,24325
45897,24332
45901,24339
45904,24348
45905,24358
45905,24559
45904,24569
45901,24578
45897,24585
45892,24592
45885,24597
45878,24601
45870,24603
45859,24605
45678,24605
45667,24603
45659,24601
45652,24597
45645,24592
45640,24585
45636,24578
45633,24569
45632,24559
45632,24358
45633,24348
45636,24339
45640,24332
45645,24325
45652,24320
45659,24316
45667,24314
45678,24312
45859,24312
45870,24314
" /> 
<polyline style="fill-rule:evenodd;"
points="46252,24314
46260,24316
46267,24320
46274,24325
46279,24332
46283,24339
46286,24348
46287,24358
46287,24559
46286,24569
46283,24578
46279,24585
46274,24592
46267,24597
46260,24601
46252,24603
46241,24605
46060,24605
46049,24603
46041,24601
46034,24597
46027,24592
46022,24585
46018,24578
46015,24569
46014,24559
46014,24358
46015,24348
46018,24339
46022,24332
46027,24325
46034,24320
46041,24316
46049,24314
46060,24312
46241,24312
46252,24314
" /> 
<polyline style="fill-rule:evenodd;"
points="38277,20370
38319,20378
38437,20427
38542,20498
38544,20499
38634,20589
38705,20696
38754,20814
38779,20939
38779,21067
38754,21193
38705,21311
38634,21418
38544,21508
38544,21508
38437,21579
38319,21628
38277,21637
38193,21653
38065,21653
37982,21637
37940,21628
37822,21579
37715,21508
37715,21508
37625,21418
37553,21311
37504,21193
37479,21067
37479,20939
37504,20814
37553,20696
37625,20589
37715,20499
37716,20498
37822,20427
37940,20378
37982,20370
38065,20353
38193,20353
38277,20370
" /> 
<polyline style="fill-rule:evenodd;"
points="46151,20370
46193,20378
46311,20427
46416,20498
46418,20499
46508,20589
46579,20696
46628,20814
46653,20939
46653,21067
46628,21193
46579,21311
46508,21418
46418,21508
46418,21508
46311,21579
46193,21628
46151,21637
46067,21653
45939,21653
45856,21637
45814,21628
45696,21579
45589,21508
45589,21508
45499,21418
45427,21311
45378,21193
45353,21067
45353,20939
45378,20814
45427,20696
45499,20589
45589,20499
45591,20498
45696,20427
45814,20378
45856,20370
45939,20353
46067,20353
46151,20370
" /> 
</g> 
</svg>
