<?xml version="1.0" standalone="no"?>
 <!DOCTYPE svg PUBLIC "-//W3C//DTD SVG 1.1//EN" 
 "http://www.w3.org/Graphics/SVG/1.1/DTD/svg11.dtd"> 
<svg xmlns="http://www.w3.org/2000/svg" version="1.1" 
    width="29.7002cm" height="21.0007cm" viewBox="0 0 116930 82680 ">
<title>SVG Picture created as High_range_accelerometer-B.SilkS.svg date 2019/10/12 12:30:53 </title>
  <desc>Picture generated by PCBNEW </desc>
<g style="fill:#000000; fill-opacity:1;stroke:#000000; stroke-opacity:1;
stroke-linecap:round; stroke-linejoin:round; "
 transform="translate(0 0) scale(1 1)">
</g>
<g style="fill:#000000; fill-opacity:0.0; 
stroke:#000000; stroke-width:-0.000393701; stroke-opacity:1; 
stroke-linecap:round; stroke-linejoin:round;">
</g>
<g style="fill:#000000; fill-opacity:0.0; 
stroke:#000000; stroke-width:78.7402; stroke-opacity:1; 
stroke-linecap:round; stroke-linejoin:round;">
<path d="M38140 35080
L40160 35080
" />
<path d="M40160 30050
L40160 35080
" />
<path d="M38140 30050
L40160 30050
" />
</g>
<g style="fill:#000000; fill-opacity:0.0; 
stroke:#000000; stroke-width:59.0551; stroke-opacity:1; 
stroke-linecap:round; stroke-linejoin:round;">
<path d="M38275 34368
L38331 34349
L38425 34349
L38462 34368
L38481 34386
L38500 34424
L38500 34461
L38481 34499
L38462 34518
L38425 34536
L38350 34555
L38312 34574
L38293 34593
L38275 34630
L38275 34668
L38293 34705
L38312 34724
L38350 34743
L38443 34743
L38500 34724
" />
<path d="M38668 34349
L38668 34743
L38762 34743
L38818 34724
L38856 34686
L38874 34649
L38893 34574
L38893 34518
L38874 34443
L38856 34405
L38818 34368
L38762 34349
L38668 34349
" />
<path d="M39043 34461
L39231 34461
" />
<path d="M39006 34349
L39137 34743
L39268 34349
" />
<path d="M39343 34743
L39568 34743
" />
<path d="M39456 34349
L39456 34743
" />
<path d="M39681 34461
L39868 34461
" />
<path d="M39643 34349
L39774 34743
L39906 34349
" />
<path d="M38275 33386
L38331 33367
L38425 33367
L38462 33386
L38481 33405
L38500 33442
L38500 33480
L38481 33517
L38462 33536
L38425 33555
L38350 33573
L38312 33592
L38293 33611
L38275 33648
L38275 33686
L38293 33723
L38312 33742
L38350 33761
L38443 33761
L38500 33742
" />
<path d="M38893 33405
L38874 33386
L38818 33367
L38781 33367
L38725 33386
L38687 33423
L38668 33461
L38650 33536
L38650 33592
L38668 33667
L38687 33705
L38725 33742
L38781 33761
L38818 33761
L38874 33742
L38893 33723
" />
<path d="M39249 33367
L39062 33367
L39062 33761
" />
<path d="M39381 33367
L39381 33761
" />
<path d="M39606 33367
L39437 33592
" />
<path d="M39606 33761
L39381 33536
" />
<path d="M38256 32779
L38518 32385
" />
<path d="M38518 32779
L38256 32385
" />
<path d="M38893 32385
L38762 32573
" />
<path d="M38668 32385
L38668 32779
L38818 32779
L38856 32760
L38874 32741
L38893 32704
L38893 32648
L38874 32610
L38856 32591
L38818 32573
L38668 32573
" />
<path d="M39062 32591
L39193 32591
" />
<path d="M39249 32385
L39062 32385
L39062 32779
L39249 32779
" />
<path d="M39399 32404
L39456 32385
L39549 32385
L39587 32404
L39606 32423
L39624 32460
L39624 32498
L39606 32535
L39587 32554
L39549 32573
L39474 32591
L39437 32610
L39418 32629
L39399 32666
L39399 32704
L39418 32741
L39437 32760
L39474 32779
L39568 32779
L39624 32760
" />
<path d="M39774 32404
L39831 32385
L39924 32385
L39962 32404
L39981 32423
L39999 32460
L39999 32498
L39981 32535
L39962 32554
L39924 32573
L39849 32591
L39812 32610
L39793 32629
L39774 32666
L39774 32704
L39793 32741
L39812 32760
L39849 32779
L39943 32779
L39999 32760
" />
<path d="M38500 31778
L38462 31797
L38406 31797
L38350 31778
L38312 31741
L38293 31703
L38275 31628
L38275 31572
L38293 31497
L38312 31460
L38350 31422
L38406 31403
L38443 31403
L38500 31422
L38518 31441
L38518 31572
L38443 31572
" />
<path d="M38687 31403
L38687 31797
L38912 31403
L38912 31797
" />
<path d="M39099 31403
L39099 31797
L39193 31797
L39249 31778
L39287 31741
L39306 31703
L39324 31628
L39324 31572
L39306 31497
L39287 31460
L39249 31422
L39193 31403
L39099 31403
" />
<path d="M38237 30815
L38368 30421
L38500 30815
" />
<path d="M38762 30628
L38818 30609
L38837 30590
L38856 30553
L38856 30496
L38837 30459
L38818 30440
L38781 30421
L38631 30421
L38631 30815
L38762 30815
L38800 30796
L38818 30778
L38837 30740
L38837 30703
L38818 30665
L38800 30646
L38762 30628
L38631 30628
" />
<path d="M39024 30815
L39024 30496
L39043 30459
L39062 30440
L39099 30421
L39174 30421
L39212 30440
L39231 30459
L39249 30496
L39249 30815
" />
<path d="M39418 30440
L39474 30421
L39568 30421
L39606 30440
L39624 30459
L39643 30496
L39643 30534
L39624 30571
L39606 30590
L39568 30609
L39493 30628
L39456 30646
L39437 30665
L39418 30703
L39418 30740
L39437 30778
L39456 30796
L39493 30815
L39587 30815
L39643 30796
" />
<path d="M45521 39241
L45539 39260
L45558 39297
L45558 39335
L45539 39372
L45521 39391
L45483 39410
L45446 39410
L45408 39391
L45389 39372
L45371 39335
L45371 39297
L45389 39260
L45408 39241
" />
<path d="M45558 39241
L45408 39241
L45389 39222
L45389 39204
L45408 39166
L45446 39147
L45539 39147
L45596 39185
L45633 39241
L45652 39316
L45633 39391
L45596 39447
L45539 39485
L45464 39504
L45389 39485
L45333 39447
L45296 39391
L45277 39316
L45296 39241
L45333 39185
" />
<path d="M45333 38979
L45727 38979
L45446 38847
L45727 38716
L45333 38716
" />
<path d="M45333 38360
L45539 38360
L45577 38379
L45596 38416
L45596 38491
L45577 38529
" />
<path d="M45352 38360
L45333 38398
L45333 38491
L45352 38529
L45389 38547
L45427 38547
L45464 38529
L45483 38491
L45483 38398
L45502 38360
" />
<path d="M45333 38116
L45352 38154
L45389 38173
L45727 38173
" />
<path d="M45596 37798
L45333 37798
" />
<path d="M45596 37966
L45389 37966
L45352 37948
L45333 37910
L45333 37854
L45352 37816
L45371 37798
" />
<path d="M45352 37629
L45333 37591
L45333 37516
L45352 37479
L45389 37460
L45408 37460
L45446 37479
L45464 37516
L45464 37573
L45483 37610
L45521 37629
L45539 37629
L45577 37610
L45596 37573
L45596 37516
L45577 37479
" />
<path d="M45296 37385
L45296 37085
" />
<path d="M45333 36991
L45727 36991
L45446 36860
L45727 36729
L45333 36729
" />
<path d="M45333 36541
L45596 36541
" />
<path d="M45727 36541
L45708 36560
L45689 36541
L45708 36523
L45727 36541
L45689 36541
" />
<path d="M45333 36298
L45352 36335
L45389 36354
L45727 36354
" />
<path d="M45333 36092
L45352 36129
L45389 36148
L45727 36148
" />
<path d="M45296 36035
L45296 35735
" />
<path d="M47065 35084
L47459 35084
L47459 34990
L47440 34934
L47403 34896
L47365 34878
L47290 34859
L47234 34859
L47159 34878
L47122 34896
L47084 34934
L47065 34990
L47065 35084
" />
<path d="M47084 34540
L47065 34578
L47065 34653
L47084 34690
L47122 34709
L47272 34709
L47309 34690
L47328 34653
L47328 34578
L47309 34540
L47272 34521
L47234 34521
L47197 34709
" />
<path d="M47084 34372
L47065 34334
L47065 34259
L47084 34222
L47122 34203
L47140 34203
L47178 34222
L47197 34259
L47197 34315
L47215 34353
L47253 34372
L47272 34372
L47309 34353
L47328 34315
L47328 34259
L47309 34222
" />
<path d="M47065 34034
L47328 34034
" />
<path d="M47459 34034
L47440 34053
L47422 34034
L47440 34015
L47459 34034
L47422 34034
" />
<path d="M47328 33678
L47009 33678
L46972 33697
L46953 33715
L46934 33753
L46934 33809
L46953 33847
" />
<path d="M47084 33678
L47065 33715
L47065 33790
L47084 33828
L47103 33847
L47140 33865
L47253 33865
L47290 33847
L47309 33828
L47328 33790
L47328 33715
L47309 33678
" />
<path d="M47328 33490
L47065 33490
" />
<path d="M47290 33490
L47309 33472
L47328 33434
L47328 33378
L47309 33340
L47272 33322
L47065 33322
" />
<path d="M47084 32984
L47065 33022
L47065 33097
L47084 33134
L47122 33153
L47272 33153
L47309 33134
L47328 33097
L47328 33022
L47309 32984
L47272 32965
L47234 32965
L47197 33153
" />
<path d="M47065 32628
L47459 32628
" />
<path d="M47084 32628
L47065 32665
L47065 32740
L47084 32778
L47103 32797
L47140 32815
L47253 32815
L47290 32797
L47309 32778
L47328 32740
L47328 32665
L47309 32628
" />
<path d="M47065 32141
L47459 32141
" />
<path d="M47309 32141
L47328 32103
L47328 32028
L47309 31991
L47290 31972
L47253 31953
L47140 31953
L47103 31972
L47084 31991
L47065 32028
L47065 32103
L47084 32141
" />
<path d="M47328 31822
L47065 31728
" />
<path d="M47328 31634
L47065 31728
L46972 31766
L46953 31784
L46934 31822
" />
<path d="M47065 31184
L47328 31184
" />
<path d="M47253 31184
L47290 31166
L47309 31147
L47328 31109
L47328 31072
" />
<path d="M47065 30941
L47328 30941
" />
<path d="M47459 30941
L47440 30959
L47422 30941
L47440 30922
L47459 30941
L47422 30941
" />
<path d="M47328 30753
L47065 30753
" />
<path d="M47290 30753
L47309 30734
L47328 30697
L47328 30641
L47309 30603
L47272 30584
L47065 30584
" />
<path d="M47328 30228
L47009 30228
L46972 30247
L46953 30266
L46934 30303
L46934 30360
L46953 30397
" />
<path d="M47084 30228
L47065 30266
L47065 30341
L47084 30378
L47103 30397
L47140 30416
L47253 30416
L47290 30397
L47309 30378
L47328 30341
L47328 30266
L47309 30228
" />
<path d="M47065 29985
L47084 30022
L47103 30041
L47140 30060
L47253 30060
L47290 30041
L47309 30022
L47328 29985
L47328 29928
L47309 29891
L47290 29872
L47253 29853
L47140 29853
L47103 29872
L47084 29891
L47065 29928
L47065 29985
" />
</g>
<g style="fill:#000000; fill-opacity:0.0; 
stroke:#000000; stroke-width:78.7402; stroke-opacity:1; 
stroke-linecap:round; stroke-linejoin:round;">
<path d="M40039 22125
L40039 23779
" />
<path d="M44094 22125
L44094 23779
" />
<path d="M40039 22125
L44094 22125
" />
</g>
<g style="fill:#000000; fill-opacity:0.0; 
stroke:#000000; stroke-width:59.0551; stroke-opacity:1; 
stroke-linecap:round; stroke-linejoin:round;">
<path d="M40449 23562
L40431 23580
L40412 23637
L40412 23674
L40431 23730
L40468 23768
L40506 23787
L40581 23805
L40637 23805
L40712 23787
L40749 23768
L40787 23730
L40806 23674
L40806 23637
L40787 23580
L40768 23562
" />
<path d="M40524 23412
L40524 23224
" />
<path d="M40412 23449
L40806 23318
L40412 23187
" />
<path d="M40412 23055
L40806 23055
L40412 22830
L40806 22830
" />
<path d="M40412 22455
L40412 22643
L40806 22643
" />
<path d="M41447 23562
L41428 23580
L41409 23637
L41409 23674
L41428 23730
L41466 23768
L41503 23787
L41578 23805
L41634 23805
L41709 23787
L41747 23768
L41784 23730
L41803 23674
L41803 23637
L41784 23580
L41766 23562
" />
<path d="M41522 23412
L41522 23224
" />
<path d="M41409 23449
L41803 23318
L41409 23187
" />
<path d="M41409 23055
L41803 23055
L41409 22830
L41803 22830
" />
<path d="M41409 22643
L41803 22643
" />
<path d="M41616 22643
L41616 22418
" />
<path d="M41409 22418
L41803 22418
" />
<path d="M43779 23580
L43798 23618
L43798 23674
L43779 23730
L43742 23768
L43704 23787
L43629 23805
L43573 23805
L43498 23787
L43460 23768
L43423 23730
L43404 23674
L43404 23637
L43423 23580
L43442 23562
L43573 23562
L43573 23637
" />
<path d="M43404 23393
L43798 23393
L43404 23168
L43798 23168
" />
<path d="M43404 22980
L43798 22980
L43798 22887
L43779 22830
L43742 22793
L43704 22774
L43629 22755
L43573 22755
L43498 22774
L43460 22793
L43423 22830
L43404 22887
L43404 22980
" />
<path d="M42800 23843
L42407 23712
L42800 23580
" />
<path d="M42407 23449
L42800 23449
L42800 23355
L42782 23299
L42744 23262
L42707 23243
L42632 23224
L42575 23224
L42500 23243
L42463 23262
L42425 23299
L42407 23355
L42407 23449
" />
<path d="M42407 23055
L42800 23055
L42800 22962
L42782 22905
L42744 22868
L42707 22849
L42632 22830
L42575 22830
L42500 22849
L42463 22868
L42425 22905
L42407 22962
L42407 23055
" />
</g>
<g style="fill:#000000; fill-opacity:1.0; 
stroke:#000000; stroke-width:3.93701; stroke-opacity:1; 
stroke-linecap:round; stroke-linejoin:round;">
<polyline style="fill-rule:evenodd;"
points="47725,26072
47716,26034
47699,26000
47675,25970
47646,25946
47611,25928
47573,25918
47535,25916
47498,25922
47463,25935
47432,25955
47405,25981
47384,26012
47369,26048
47364,26068
47361,26085
47360,26099
47360,26112
47363,26128
47366,26141
47378,26177
47398,26210
47426,26239
47459,26262
47470,26267
47484,26274
47497,26278
47509,26280
47525,26281
47544,26281
47577,26279
47604,26274
47628,26264
47651,26249
47668,26233
47694,26205
47712,26176
47723,26143
47727,26112
47725,26072
" /> 
<polyline style="fill-rule:evenodd;"
points="46762,22741
46670,22741
46586,22741
46510,22741
46442,22741
46381,22741
46327,22741
46279,22740
46237,22740
46200,22740
46168,22739
46141,22738
46118,22737
46098,22736
46082,22735
46069,22734
46058,22732
46049,22730
46041,22728
46035,22726
46029,22723
46023,22720
46018,22717
46014,22715
45990,22701
45990,23039
46028,23039
46045,23039
46058,23040
46065,23041
46066,23042
46063,23046
46056,23055
46048,23064
46032,23085
46016,23113
46001,23143
45990,23174
45986,23186
45980,23213
45976,23245
45974,23280
45974,23315
45976,23346
45979,23361
45994,23415
46016,23466
46047,23511
46084,23552
46129,23588
46173,23614
46219,23636
46266,23652
46315,23664
46369,23671
46429,23675
46459,23675
46481,23674
46481,23348
46445,23348
46410,23347
46380,23344
46356,23341
46351,23340
46309,23328
46274,23311
46248,23291
46229,23266
46219,23237
46215,23204
46220,23166
46226,23141
46233,23122
46243,23100
46253,23084
46271,23057
46724,23057
46741,23083
46757,23114
46767,23147
46772,23181
46771,23213
46763,23241
46757,23254
46740,23277
46718,23296
46689,23312
46654,23326
46610,23337
46608,23338
46583,23342
46553,23345
46518,23347
46481,23348
46481,23674
46543,23672
46620,23663
46690,23649
46754,23630
46811,23604
46860,23574
46903,23538
46939,23496
46951,23478
46974,23439
46989,23398
46999,23355
47003,23307
47002,23270
46998,23219
46989,23175
46976,23136
46958,23101
46944,23082
46936,23071
46930,23062
46928,23059
46932,23058
46944,23058
46963,23057
46988,23057
47016,23057
47049,23057
47084,23057
47120,23057
47156,23057
47192,23058
47225,23058
47256,23059
47282,23059
47304,23060
47319,23060
47321,23061
47349,23064
47371,23068
47389,23075
47408,23085
47411,23088
47426,23098
47426,22741
46762,22741
" /> 
<polyline style="fill-rule:evenodd;"
points="47001,24124
46993,24064
46980,24011
46961,23964
46937,23923
46912,23892
46883,23865
46851,23844
46815,23827
46798,23821
46783,23816
46768,23812
46754,23808
46740,23804
46725,23802
46708,23799
46689,23797
46666,23796
46639,23795
46608,23794
46571,23793
46529,23792
46479,23791
46422,23791
46366,23790
46304,23790
46251,23789
46205,23789
46167,23788
46134,23788
46107,23787
46085,23786
46068,23785
46054,23783
46043,23781
46035,23779
46028,23776
46022,23773
46017,23769
46011,23765
46009,23763
46000,23757
45994,23754
45994,23754
45993,23759
45992,23771
45992,23790
45991,23815
45991,23845
45990,23879
45990,23917
45990,23921
45990,24087
46028,24089
46066,24090
46046,24114
46019,24153
45998,24196
45986,24230
45980,24257
45976,24290
45974,24325
45974,24360
45977,24391
45979,24406
45994,24461
46015,24510
46043,24555
46077,24593
46117,24624
46162,24649
46212,24666
46234,24671
46258,24674
46288,24676
46301,24676
46303,24676
46303,24377
46273,24373
46248,24362
46226,24343
46224,24341
46211,24322
46202,24301
46197,24277
46196,24248
46196,24241
46197,24219
46199,24204
46203,24190
46210,24175
46212,24170
46226,24147
46243,24128
46249,24123
46271,24106
46348,24106
46379,24106
46402,24106
46417,24108
46426,24109
46429,24111
46430,24117
46431,24130
46432,24149
46432,24171
46432,24174
46430,24222
46423,24262
46413,24296
46397,24325
46378,24346
46356,24364
46331,24374
46303,24377
46303,24676
46338,24675
46369,24672
46397,24665
46425,24655
46446,24646
46483,24623
46518,24592
46549,24554
46576,24511
46598,24463
46615,24411
46621,24386
46630,24332
46636,24273
46638,24214
46638,24164
46635,24100
46658,24103
46697,24111
46729,24123
46754,24140
46772,24163
46783,24191
46788,24226
46787,24266
46786,24281
46776,24337
46760,24391
46745,24428
46737,24446
46731,24461
46727,24471
46726,24474
46730,24478
46741,24485
46761,24494
46788,24506
46824,24521
46830,24524
46859,24536
46884,24546
46906,24555
46923,24562
46934,24566
46937,24568
46939,24564
46941,24553
46943,24542
46945,24530
46948,24512
46954,24487
46960,24460
46967,24430
46970,24419
46980,24378
46988,24343
46994,24314
46998,24288
47001,24264
47003,24239
47003,24214
47003,24191
47001,24124
" /> 
<polyline style="fill-rule:evenodd;"
points="47362,25047
47354,24984
47338,24920
47315,24853
47283,24783
47281,24779
47270,24756
47261,24736
47253,24719
47249,24708
47248,24704
47246,24697
47244,24695
47240,24697
47230,24703
47214,24713
47195,24726
47172,24741
47148,24757
47122,24774
47097,24791
47074,24807
47053,24822
47035,24834
47022,24843
47014,24849
47013,24850
47015,24854
47022,24863
47032,24875
47038,24881
47068,24919
47090,24961
47103,25006
47109,25055
47109,25082
47102,25130
47088,25173
47066,25211
47037,25245
47000,25275
46955,25300
46921,25315
46868,25332
46810,25345
46749,25353
46686,25357
46623,25356
46561,25351
46502,25342
46448,25328
46399,25310
46386,25303
46341,25276
46303,25245
46272,25209
46249,25169
46234,25126
46226,25079
46226,25063
46230,25015
46243,24968
46264,24921
46294,24877
46324,24841
46342,24822
46225,24751
46196,24733
46169,24717
46145,24703
46126,24691
46112,24683
46104,24679
46103,24678
46099,24681
46092,24691
46083,24707
46072,24727
46060,24750
46048,24775
46036,24800
46025,24824
46015,24846
46007,24865
46004,24874
45989,24927
45979,24981
45974,25039
45973,25089
45973,25116
45974,25142
45975,25165
45977,25182
45977,25187
45989,25242
46006,25298
46030,25352
46057,25402
46078,25432
46120,25482
46170,25529
46226,25571
46287,25608
46351,25639
46397,25656
46469,25676
46546,25689
46625,25695
46705,25695
46785,25689
46862,25676
46935,25656
46940,25654
47004,25630
47062,25599
47116,25563
47168,25519
47186,25501
47235,25448
47275,25393
47308,25335
47332,25275
47350,25210
47357,25172
47363,25110
47362,25047
" /> 
<polyline style="fill-rule:evenodd;"
points="47543,26337
47498,26332
47456,26320
47417,26300
47382,26273
47353,26239
47330,26201
47314,26159
47307,26117
47308,26076
47315,26035
47330,25997
47350,25962
47376,25931
47408,25905
47444,25884
47484,25869
47527,25862
47547,25861
47581,25861
47581,25841
47580,25826
47576,25816
47566,25805
47551,25790
46688,25790
46585,25790
46490,25790
46404,25790
46325,25790
46254,25790
46189,25790
46132,25790
46080,25790
46035,25791
45995,25791
45960,25791
45930,25791
45905,25792
45884,25792
45866,25792
45852,25793
45840,25793
45831,25794
45825,25795
45820,25795
45817,25796
45815,25797
45814,25798
45811,25799
45809,25801
45806,25802
45804,25804
45802,25807
45800,25811
45799,25817
45797,25824
45796,25834
45795,25846
45794,25862
45793,25881
45793,25904
45792,25930
45792,25962
45791,25998
45791,26039
45791,26086
45790,26139
45790,26198
45790,26263
45790,26336
45790,26416
45790,26504
45790,26600
45790,26705
45790,26720
45790,26825
45790,26922
45790,27010
45790,27091
45790,27164
45791,27230
45791,27289
45791,27342
45791,27389
45791,27431
45792,27467
45792,27498
45792,27525
45793,27547
45793,27566
45793,27581
45794,27593
45795,27603
45795,27610
45796,27615
45797,27618
45797,27620
45799,27623
45800,27626
45801,27629
45802,27631
45804,27634
45808,27636
45812,27638
45819,27639
45828,27641
45839,27642
45853,27643
45871,27644
45892,27645
45918,27646
45947,27646
45982,27647
46021,27647
46067,27647
46118,27648
46175,27648
46239,27648
46310,27648
46388,27648
46474,27648
46569,27648
46671,27648
46688,27648
46791,27648
46886,27648
46973,27648
47052,27648
47124,27648
47188,27648
47246,27648
47298,27647
47341,27647
47341,27528
47319,27512
47312,27508
47307,27504
47302,27500
47296,27497
47290,27494
47283,27492
47274,27490
47263,27488
47249,27486
47232,27485
47212,27484
47188,27483
47160,27482
47126,27482
47088,27482
47043,27481
46992,27481
46934,27481
46870,27481
46797,27481
46716,27481
46668,27481
46583,27481
46506,27481
46437,27481
46375,27481
46320,27481
46272,27481
46231,27482
46194,27482
46163,27483
46137,27483
46114,27484
46096,27486
46081,27487
46068,27489
46058,27491
46050,27493
46043,27495
46037,27498
46032,27502
46027,27505
46021,27510
46017,27512
45995,27527
45995,27318
45995,27269
45995,27229
45995,27196
45995,27170
45995,27150
45996,27135
45997,27125
45998,27118
45999,27115
46000,27114
46002,27115
46002,27115
46017,27125
46038,27136
46062,27145
46073,27148
46080,27150
46088,27151
46098,27153
46111,27154
46128,27155
46150,27155
46177,27156
46209,27157
46249,27157
46297,27157
46315,27158
46364,27158
46405,27158
46439,27159
46465,27159
46486,27158
46502,27158
46512,27158
46519,27157
46523,27156
46524,27154
46523,27153
46521,27151
46516,27147
46505,27138
46488,27125
46466,27109
46441,27091
46412,27070
46382,27047
46350,27024
46317,27000
46285,26977
46254,26954
46225,26933
46199,26914
46177,26898
46160,26886
46147,26877
46145,26875
46130,26866
46111,26855
46092,26845
46089,26844
46070,26836
46055,26831
46041,26828
46025,26828
45995,26828
45995,26374
46032,26410
46051,26428
46073,26448
46095,26466
46105,26474
46120,26486
46141,26502
46167,26521
46197,26543
46230,26567
46266,26594
46304,26621
46344,26650
46385,26679
46426,26709
46466,26738
46506,26766
46543,26793
46579,26819
46611,26842
46640,26862
46665,26879
46685,26893
46699,26902
46707,26907
46709,26908
46713,26905
46724,26897
46740,26884
46761,26867
46787,26847
46816,26824
46848,26799
46882,26772
46917,26743
46954,26714
46983,26690
46983,26292
46978,26290
46969,26284
46969,26284
46957,26276
46942,26269
46939,26267
46936,26266
46932,26265
46927,26263
46920,26263
46910,26262
46898,26261
46883,26260
46863,26260
46839,26259
46810,26259
46775,26259
46735,26259
46687,26258
46632,26258
46570,26258
46499,26258
46427,26257
46362,26257
46305,26257
46256,26257
46213,26257
46176,26258
46145,26258
46119,26259
46097,26259
46080,26261
46066,26262
46054,26264
46045,26266
46038,26268
46031,26271
46026,26274
46020,26278
46015,26281
46005,26288
45998,26292
45997,26292
45996,26288
45996,26276
45995,26256
45995,26231
45995,26200
45995,26165
45995,26126
45995,26099
45995,26058
45995,26019
45995,25985
45996,25956
45996,25933
45997,25916
45998,25907
45999,25906
46004,25909
46008,25912
46014,25917
46026,25924
46036,25928
46059,25939
46522,25940
46986,25941
46986,26117
46986,26155
46985,26191
46985,26223
46985,26249
46984,26271
46984,26285
46983,26292
46983,26292
46983,26690
46991,26684
47027,26655
47062,26627
47095,26600
47126,26575
47154,26552
47178,26533
47198,26516
47206,26510
47245,26476
47278,26446
47305,26418
47326,26394
47329,26390
47341,26374
47341,26820
47322,26818
47300,26819
47273,26828
47242,26843
47213,26861
47204,26868
47189,26879
47170,26894
47146,26912
47118,26933
47088,26956
47057,26981
47025,27006
46992,27031
46961,27056
46931,27079
46904,27101
46880,27119
46861,27135
46847,27147
46838,27154
46837,27155
46840,27156
46852,27157
46873,27158
46902,27158
46939,27158
46985,27158
47032,27158
47084,27157
47128,27157
47165,27156
47196,27155
47221,27153
47242,27151
47258,27149
47273,27146
47285,27142
47296,27137
47307,27131
47316,27126
47341,27111
47341,27528
47341,27647
47344,27647
47384,27647
47419,27646
47449,27646
47475,27645
47497,27645
47515,27644
47529,27643
47541,27642
47550,27640
47557,27639
47562,27637
47566,27635
47568,27633
47570,27631
47571,27629
47573,27626
47574,27624
47575,27622
47576,27618
47577,27614
47577,27607
47578,27598
47579,27585
47579,27570
47580,27551
47580,27527
47580,27499
47581,27466
47581,27428
47581,27383
47581,27333
47581,27275
47581,27210
47581,27138
47581,27058
47581,26975
47581,26337
47543,26337
" /> 
<polyline style="fill-rule:evenodd;"
points="45659,22724
45650,22712
45639,22701
45518,22701
45481,22701
45453,22701
45431,22702
45416,22702
45404,22703
45396,22704
45391,22706
45387,22708
45384,22710
45374,22722
45373,22736
45379,22749
45383,22753
45387,22756
45395,22758
45407,22759
45425,22759
45439,22759
45492,22759
45492,22954
45444,22954
45422,22955
45407,22955
45397,22957
45389,22960
45384,22964
45374,22976
45373,22990
45380,23003
45384,23006
45389,23009
45396,23011
45408,23012
45425,23012
45449,23012
45455,23012
45500,23013
45538,23013
45569,23013
45593,23012
45611,23012
45625,23011
45635,23010
45642,23009
45647,23008
45650,23006
45652,23003
45660,22991
45659,22978
45650,22965
45645,22960
45638,22957
45630,22955
45616,22955
45596,22954
45550,22954
45550,22759
45597,22759
45618,22759
45633,22758
45642,22756
45649,22753
45652,22750
45660,22737
45659,22724
" /> 
<polyline style="fill-rule:evenodd;"
points="45661,23223
45661,23192
45661,23168
45660,23150
45659,23136
45658,23127
45657,23121
45655,23117
45654,23115
45641,23105
45627,23104
45615,23110
45610,23114
45607,23119
45605,23125
45604,23135
45604,23150
45604,23173
45604,23177
45604,23234
45497,23234
45463,23234
45437,23235
45418,23235
45404,23236
45395,23237
45389,23238
45384,23241
45381,23243
45373,23256
45374,23270
45383,23282
45384,23283
45388,23286
45393,23288
45400,23290
45410,23291
45424,23292
45444,23292
45470,23292
45500,23292
45604,23292
45604,23347
45604,23371
45604,23387
45606,23398
45608,23404
45611,23409
45612,23409
45625,23416
45640,23415
45652,23408
45655,23405
45657,23401
45658,23396
45660,23387
45660,23375
45661,23358
45661,23336
45661,23307
45661,23269
45661,23262
45661,23223
" /> 
<polyline style="fill-rule:evenodd;"
points="45659,23528
45653,23518
45644,23508
45518,23508
45481,23508
45451,23508
45429,23508
45413,23509
45401,23510
45393,23511
45387,23513
45384,23515
45382,23516
45374,23529
45374,23543
45381,23555
45389,23566
45644,23566
45653,23555
45659,23545
45661,23537
45659,23528
" /> 
<polyline style="fill-rule:evenodd;"
points="45661,23702
45658,23695
45658,23694
45650,23684
45641,23678
45638,23677
45632,23677
45625,23679
45615,23682
45600,23688
45581,23696
45556,23707
45524,23722
45507,23730
45476,23744
45447,23758
45422,23770
45402,23780
45387,23788
45379,23793
45378,23794
45373,23806
45374,23820
45380,23831
45380,23831
45387,23835
45400,23843
45417,23852
45438,23863
45446,23867
45503,23896
45441,23927
45419,23938
45400,23949
45386,23957
45377,23964
45375,23966
45373,23982
45378,23996
45384,24000
45396,24007
45414,24016
45437,24027
45463,24039
45490,24052
45519,24065
45547,24077
45573,24089
45596,24099
45615,24107
45629,24112
45636,24114
45636,24114
45645,24109
45654,24101
45654,24100
45660,24089
45660,24079
45659,24076
45656,24071
45651,24066
45643,24061
45631,24054
45613,24045
45588,24033
45566,24022
45540,24010
45516,23999
45496,23990
45482,23984
45474,23980
45472,23980
45475,23977
45483,23972
45498,23964
45516,23954
45524,23950
45549,23937
45568,23927
45581,23919
45588,23913
45593,23907
45594,23900
45595,23896
45594,23889
45591,23883
45585,23876
45575,23869
45560,23860
45538,23849
45526,23843
45506,23832
45490,23823
45478,23817
45473,23813
45472,23812
45477,23810
45488,23804
45505,23796
45526,23785
45551,23774
45564,23768
45596,23753
45620,23741
45638,23731
45650,23723
45658,23716
45661,23709
45661,23702
" /> 
<polyline style="fill-rule:evenodd;"
points="45661,24776
45659,24725
45654,24682
45645,24645
45632,24615
45615,24591
45592,24571
45565,24555
45564,24554
45540,24545
45518,24542
45496,24544
45472,24553
45468,24555
45446,24566
45428,24579
45414,24596
45399,24619
45399,24620
45389,24640
45382,24662
45377,24689
45374,24721
45373,24759
45373,24773
45372,24838
45384,24847
45388,24850
45392,24852
45399,24854
45408,24855
45421,24856
45430,24856
45430,24794
45430,24757
45431,24736
45432,24714
45435,24695
45435,24694
45444,24662
45457,24637
45475,24618
45498,24605
45505,24603
45514,24601
45524,24602
45537,24606
45543,24609
45560,24618
45571,24629
45580,24642
45590,24666
45598,24697
45602,24734
45603,24760
45604,24794
45430,24794
45430,24856
45438,24856
45462,24857
45493,24857
45518,24857
45639,24857
45650,24846
45655,24841
45658,24836
45660,24828
45661,24817
45661,24801
45661,24777
45661,24776
" /> 
<polyline style="fill-rule:evenodd;"
points="45661,25086
45661,25056
45660,25033
45658,25016
45656,25004
45653,24997
45648,24992
45642,24990
45634,24990
45633,24990
45624,24990
45617,24992
45612,24997
45608,25004
45606,25017
45604,25035
45603,25059
45603,25092
45602,25101
45601,25197
45576,25198
45550,25199
45550,25133
45550,25107
45550,25089
45549,25076
45547,25068
45545,25063
45541,25059
45541,25059
45528,25052
45514,25052
45502,25060
45500,25061
45497,25066
45495,25073
45494,25084
45493,25099
45492,25121
45492,25135
45492,25199
45430,25199
45430,25102
45430,25070
45430,25045
45429,25028
45429,25015
45427,25007
45425,25002
45423,24998
45422,24997
45410,24991
45395,24991
45383,24996
45379,25000
45377,25004
45375,25011
45374,25021
45373,25035
45373,25056
45373,25082
45372,25116
45372,25124
45372,25159
45373,25186
45373,25206
45373,25221
45374,25231
45376,25238
45378,25243
45380,25246
45382,25248
45385,25250
45389,25252
45395,25254
45404,25255
45417,25256
45434,25256
45458,25257
45489,25257
45515,25257
45551,25257
45580,25257
45602,25256
45618,25256
45629,25255
45637,25253
45643,25252
45647,25249
45650,25247
45661,25238
45661,25124
45661,25086
" /> 
<polyline style="fill-rule:evenodd;"
points="45660,25689
45654,25679
45645,25667
45632,25651
45615,25632
45594,25607
45567,25577
45536,25543
45471,25472
45558,25470
45588,25469
45610,25468
45626,25468
45636,25466
45643,25465
45648,25462
45651,25459
45653,25457
45660,25444
45659,25431
45653,25420
45644,25410
45520,25409
45484,25408
45455,25408
45433,25408
45417,25409
45405,25409
45397,25410
45392,25412
45388,25414
45384,25417
45378,25422
45374,25427
45372,25433
45374,25441
45379,25450
45387,25463
45400,25479
45418,25500
45441,25525
45467,25554
45562,25659
45476,25661
45446,25662
45424,25663
45408,25664
45397,25665
45390,25667
45386,25669
45382,25672
45381,25674
45373,25688
45375,25702
45384,25714
45388,25717
45392,25719
45399,25721
45408,25722
45421,25723
45439,25723
45463,25723
45494,25723
45517,25723
45553,25723
45581,25723
45603,25723
45619,25722
45630,25721
45638,25720
45643,25718
45647,25716
45650,25714
45655,25710
45659,25706
45662,25701
45662,25696
45660,25689
" /> 
<polyline style="fill-rule:evenodd;"
points="45659,25944
45655,25917
45648,25897
45638,25883
45633,25880
45621,25876
45610,25878
45599,25886
45594,25899
45595,25917
45597,25930
45602,25961
45603,25993
45599,26028
45597,26037
45588,26070
45574,26096
45556,26114
45534,26124
45523,26127
45499,26125
45479,26116
45462,26100
45448,26078
45438,26050
45432,26018
45431,25983
45435,25945
45435,25943
45438,25927
45441,25919
45445,25915
45451,25914
45455,25914
45470,25914
45470,25941
45472,25965
45477,25981
45486,25991
45500,25994
45502,25994
45513,25992
45522,25985
45527,25973
45531,25953
45532,25934
45532,25906
45531,25886
45528,25872
45520,25863
45507,25859
45489,25857
45464,25857
45437,25857
45418,25859
45408,25862
45407,25862
45395,25878
45385,25900
45378,25928
45374,25961
45373,25996
45376,26033
45379,26054
45389,26088
45404,26120
45425,26146
45429,26150
45446,26163
45467,26175
45489,26184
45510,26189
45517,26190
45534,26187
45554,26180
45575,26170
45594,26159
45607,26149
45626,26125
45642,26094
45653,26057
45659,26015
45661,25977
45659,25944
" /> 
<polyline style="fill-rule:evenodd;"
points="45652,26328
45649,26325
45646,26323
45640,26322
45631,26320
45619,26320
45601,26319
45577,26319
45547,26319
45517,26319
45480,26319
45451,26319
45429,26319
45412,26320
45400,26321
45392,26322
45387,26324
45384,26326
45381,26328
45374,26341
45374,26355
45383,26367
45386,26370
45390,26372
45395,26374
45403,26375
45415,26376
45432,26376
45454,26377
45483,26377
45516,26377
45639,26377
45650,26366
45660,26352
45660,26339
45652,26328
" /> 
<polyline style="fill-rule:evenodd;"
points="45661,26630
45659,26601
45656,26573
45651,26550
45646,26531
45640,26519
45638,26518
45625,26511
45611,26513
45599,26523
45598,26523
45595,26529
45593,26535
45593,26543
45594,26556
45597,26575
45597,26577
45601,26605
45603,26636
45603,26667
45601,26696
45598,26721
45593,26739
45593,26740
45585,26753
45578,26758
45570,26754
45563,26743
45557,26723
45551,26697
45548,26679
45543,26642
45538,26612
45533,26589
45528,26571
45522,26557
45515,26545
45506,26535
45497,26526
45485,26516
45475,26512
45462,26510
45457,26510
45441,26511
45430,26516
45419,26524
45404,26540
45392,26558
45383,26579
45377,26604
45374,26636
45373,26675
45373,26681
45374,26707
45375,26733
45377,26755
45379,26772
45379,26773
45383,26790
45388,26804
45392,26812
45404,26820
45418,26820
45431,26814
45432,26812
45437,26806
45438,26799
45438,26787
45436,26773
45435,26758
45434,26736
45433,26710
45433,26684
45432,26677
45433,26650
45433,26630
45434,26616
45436,26606
45439,26598
45441,26592
45448,26581
45454,26574
45455,26573
45462,26575
45469,26586
45475,26604
45481,26628
45482,26635
45488,26673
45493,26703
45497,26727
45501,26745
45505,26760
45510,26771
45516,26780
45522,26789
45530,26798
45533,26802
45544,26813
45553,26818
45562,26821
45575,26821
45599,26817
45619,26805
45636,26785
45649,26757
45655,26737
45659,26715
45661,26689
45662,26660
45661,26630
" /> 
<polyline style="fill-rule:evenodd;"
points="45661,27032
45661,27005
45661,26984
45660,26969
45659,26959
45658,26952
45656,26947
45653,26943
45652,26942
45640,26934
45626,26933
45613,26938
45611,26940
45609,26944
45607,26950
45605,26960
45604,26974
45603,26994
45603,27021
45602,27046
45601,27143
45576,27145
45550,27146
45550,27080
45550,27051
45549,27030
45547,27015
45543,27006
45537,27001
45528,26999
45520,26999
45510,27000
45503,27004
45498,27011
45495,27024
45493,27042
45492,27068
45492,27082
45492,27146
45430,27146
45430,27048
45430,27016
45430,26991
45429,26974
45429,26961
45427,26952
45426,26947
45423,26943
45421,26941
45411,26934
45401,26932
45390,26935
45381,26941
45379,26944
45377,26948
45375,26954
45374,26963
45373,26976
45373,26995
45372,27019
45372,27051
45372,27068
45372,27103
45373,27131
45373,27152
45374,27167
45374,27178
45376,27185
45378,27190
45380,27193
45381,27194
45384,27197
45388,27199
45394,27201
45403,27202
45415,27202
45433,27203
45457,27203
45487,27203
45516,27203
45553,27203
45582,27203
45604,27203
45620,27202
45631,27202
45639,27200
45644,27199
45648,27197
45651,27194
45652,27193
45655,27190
45657,27186
45659,27180
45660,27172
45661,27159
45661,27142
45661,27119
45661,27089
45661,27067
45661,27032
" /> 
<polyline style="fill-rule:evenodd;"
points="45661,27587
45661,27571
45660,27526
45657,27487
45651,27455
45642,27428
45630,27404
45615,27383
45608,27375
45593,27362
45571,27351
45548,27342
45525,27337
45517,27337
45494,27340
45468,27348
45444,27361
45425,27375
45423,27377
45407,27397
45394,27419
45385,27444
45378,27474
45374,27509
45373,27551
45372,27570
45373,27595
45373,27612
45374,27623
45376,27631
45379,27636
45381,27639
45384,27641
45388,27644
45394,27645
45403,27646
45415,27647
45433,27647
45456,27648
45487,27648
45517,27648
45557,27648
45588,27648
45604,27647
45604,27590
45430,27590
45430,27553
45431,27531
45432,27508
45435,27489
45435,27488
45442,27457
45454,27433
45471,27415
45489,27403
45509,27396
45528,27396
45548,27405
45569,27421
45584,27444
45595,27473
45598,27493
45601,27515
45603,27539
45604,27559
45604,27560
45604,27590
45604,27647
45613,27647
45631,27646
45644,27642
45653,27637
45658,27629
45661,27619
45661,27605
45661,27587
" /> 
<polyline style="fill-rule:evenodd;"
points="46312,38402
46310,38404
46312,38405
46313,38404
46312,38402
" /> 
<polyline style="fill-rule:evenodd;"
points="47535,37169
47524,37123
47507,37079
47484,37038
47455,37000
47447,36991
47432,36975
47438,36948
47446,36918
47457,36884
47470,36849
47485,36815
47491,36802
47498,36787
47505,36774
47510,36764
47512,36758
47513,36758
47511,36757
47504,36759
47494,36762
47482,36768
47470,36774
47430,36797
47393,36826
47361,36859
47348,36876
47339,36887
47331,36897
47326,36902
47324,36904
47324,36900
47325,36890
47327,36876
47331,36858
47335,36838
47337,36829
47347,36792
47359,36754
47370,36726
47377,36708
47342,36734
47319,36753
47295,36775
47270,36799
47246,36823
47226,36846
47219,36856
47199,36881
47125,36883
47062,36886
47002,36893
46943,36904
46883,36919
46821,36939
46797,36947
46759,36963
46718,36982
46676,37004
46633,37028
46592,37054
46553,37080
46518,37106
46517,37107
46501,37120
46482,37137
46462,37157
46440,37178
46419,37200
46399,37221
46382,37239
46368,37255
46368,37255
46322,37318
46282,37385
46246,37455
46217,37528
46193,37603
46176,37681
46170,37713
46166,37750
46162,37790
46159,37832
46158,37872
46159,37909
46159,37910
46165,37991
46178,38071
46197,38149
46223,38226
46255,38302
46264,38320
46271,38334
46279,38349
46287,38364
46295,38378
46301,38389
46306,38396
46308,38399
46308,38395
46309,38387
46309,38373
46309,38356
46309,38337
46309,38336
46309,38314
46310,38291
46311,38270
46312,38252
46313,38242
46325,38174
46344,38107
46369,38043
46400,37981
46437,37922
46440,37917
46458,37891
46462,37923
46471,37971
46485,38015
46504,38056
46529,38094
46559,38129
46586,38154
46616,38177
46649,38196
46681,38211
46688,38214
46700,38218
46698,38204
46696,38189
46696,38169
46696,38146
46697,38124
46699,38103
46702,38087
46702,38087
46708,38060
46718,38094
46731,38131
46747,38163
46765,38192
46788,38221
46801,38234
46837,38267
46876,38294
46918,38315
46963,38330
46993,38337
47009,38339
47024,38341
47035,38342
47039,38342
47053,38342
47043,38321
47033,38297
47025,38269
47018,38240
47013,38215
47012,38199
47011,38190
47012,38186
47015,38187
47018,38191
47044,38223
47074,38253
47108,38279
47116,38284
47155,38305
47197,38321
47242,38332
47287,38338
47332,38337
47348,38335
47367,38332
47389,38327
47413,38320
47435,38313
47453,38305
47463,38301
47477,38293
47439,38260
47415,38237
47390,38211
47364,38184
47340,38157
47324,38137
47277,38072
47236,38003
47200,37931
47170,37857
47146,37780
47128,37702
47116,37622
47116,37616
47115,37600
47114,37587
47114,37577
47114,37573
47114,37573
47118,37573
47127,37573
47139,37575
47140,37575
47186,37579
47231,37577
47276,37569
47319,37555
47360,37536
47398,37511
47433,37482
47464,37448
47490,37410
47505,37384
47519,37352
47529,37324
47535,37294
47539,37264
47541,37216
47535,37169
" /> 
</g> 
</svg>
