<?xml version="1.0" standalone="no"?>
 <!DOCTYPE svg PUBLIC "-//W3C//DTD SVG 1.1//EN" 
 "http://www.w3.org/Graphics/SVG/1.1/DTD/svg11.dtd"> 
<svg xmlns="http://www.w3.org/2000/svg" version="1.1" 
    width="29.7002cm" height="21.0007cm" viewBox="0 0 116930 82680 ">
<title>SVG Picture created as High_range_accelerometer-B.SilkS.svg date 2019/10/12 16:16:47 </title>
  <desc>Picture generated by PCBNEW </desc>
<g style="fill:#000000; fill-opacity:1;stroke:#000000; stroke-opacity:1;
stroke-linecap:round; stroke-linejoin:round; "
 transform="translate(0 0) scale(1 1)">
</g>
<g style="fill:#000000; fill-opacity:0.0; 
stroke:#000000; stroke-width:-0.000393701; stroke-opacity:1; 
stroke-linecap:round; stroke-linejoin:round;">
</g>
<g style="fill:#000000; fill-opacity:0.0; 
stroke:#000000; stroke-width:59.0551; stroke-opacity:1; 
stroke-linecap:round; stroke-linejoin:round;">
<path d="M47061 25309
L47324 25309
" />
<path d="M47249 25309
L47286 25290
L47305 25271
L47324 25234
L47324 25196
" />
<path d="M47080 24915
L47061 24953
L47061 25028
L47080 25065
L47118 25084
L47268 25084
L47305 25065
L47324 25028
L47324 24953
L47305 24915
L47268 24896
L47230 24896
L47193 25084
" />
<path d="M47324 24765
L47061 24671
L47324 24578
" />
<path d="M47099 24428
L47080 24409
L47061 24428
L47080 24446
L47099 24428
L47061 24428
" />
<path d="M47061 23734
L47061 23959
" />
<path d="M47061 23846
L47455 23846
L47399 23884
L47361 23921
L47343 23959
" />
<path d="M47099 23565
L47080 23546
L47061 23565
L47080 23584
L47099 23565
L47061 23565
" />
<path d="M47418 23396
L47436 23378
L47455 23340
L47455 23247
L47436 23209
L47418 23190
L47380 23172
L47343 23172
L47286 23190
L47061 23415
L47061 23172
" />
</g>
<g style="fill:#000000; fill-opacity:0.0; 
stroke:#000000; stroke-width:78.7402; stroke-opacity:1; 
stroke-linecap:round; stroke-linejoin:round;">
<path d="M38140 35080
L40160 35080
" />
<path d="M40160 30050
L40160 35080
" />
<path d="M38140 30050
L40160 30050
" />
</g>
<g style="fill:#000000; fill-opacity:0.0; 
stroke:#000000; stroke-width:59.0551; stroke-opacity:1; 
stroke-linecap:round; stroke-linejoin:round;">
<path d="M38275 34368
L38331 34349
L38425 34349
L38462 34368
L38481 34386
L38500 34424
L38500 34461
L38481 34499
L38462 34518
L38425 34536
L38350 34555
L38312 34574
L38293 34593
L38275 34630
L38275 34668
L38293 34705
L38312 34724
L38350 34743
L38443 34743
L38500 34724
" />
<path d="M38668 34349
L38668 34743
L38762 34743
L38818 34724
L38856 34686
L38874 34649
L38893 34574
L38893 34518
L38874 34443
L38856 34405
L38818 34368
L38762 34349
L38668 34349
" />
<path d="M39043 34461
L39231 34461
" />
<path d="M39006 34349
L39137 34743
L39268 34349
" />
<path d="M39343 34743
L39568 34743
" />
<path d="M39456 34349
L39456 34743
" />
<path d="M39681 34461
L39868 34461
" />
<path d="M39643 34349
L39774 34743
L39906 34349
" />
<path d="M38275 33386
L38331 33367
L38425 33367
L38462 33386
L38481 33405
L38500 33442
L38500 33480
L38481 33517
L38462 33536
L38425 33555
L38350 33573
L38312 33592
L38293 33611
L38275 33648
L38275 33686
L38293 33723
L38312 33742
L38350 33761
L38443 33761
L38500 33742
" />
<path d="M38893 33405
L38874 33386
L38818 33367
L38781 33367
L38725 33386
L38687 33423
L38668 33461
L38650 33536
L38650 33592
L38668 33667
L38687 33705
L38725 33742
L38781 33761
L38818 33761
L38874 33742
L38893 33723
" />
<path d="M39249 33367
L39062 33367
L39062 33761
" />
<path d="M39381 33367
L39381 33761
" />
<path d="M39606 33367
L39437 33592
" />
<path d="M39606 33761
L39381 33536
" />
<path d="M38256 32779
L38518 32385
" />
<path d="M38518 32779
L38256 32385
" />
<path d="M38893 32385
L38762 32573
" />
<path d="M38668 32385
L38668 32779
L38818 32779
L38856 32760
L38874 32741
L38893 32704
L38893 32648
L38874 32610
L38856 32591
L38818 32573
L38668 32573
" />
<path d="M39062 32591
L39193 32591
" />
<path d="M39249 32385
L39062 32385
L39062 32779
L39249 32779
" />
<path d="M39399 32404
L39456 32385
L39549 32385
L39587 32404
L39606 32423
L39624 32460
L39624 32498
L39606 32535
L39587 32554
L39549 32573
L39474 32591
L39437 32610
L39418 32629
L39399 32666
L39399 32704
L39418 32741
L39437 32760
L39474 32779
L39568 32779
L39624 32760
" />
<path d="M39774 32404
L39831 32385
L39924 32385
L39962 32404
L39981 32423
L39999 32460
L39999 32498
L39981 32535
L39962 32554
L39924 32573
L39849 32591
L39812 32610
L39793 32629
L39774 32666
L39774 32704
L39793 32741
L39812 32760
L39849 32779
L39943 32779
L39999 32760
" />
<path d="M38500 31778
L38462 31797
L38406 31797
L38350 31778
L38312 31741
L38293 31703
L38275 31628
L38275 31572
L38293 31497
L38312 31460
L38350 31422
L38406 31403
L38443 31403
L38500 31422
L38518 31441
L38518 31572
L38443 31572
" />
<path d="M38687 31403
L38687 31797
L38912 31403
L38912 31797
" />
<path d="M39099 31403
L39099 31797
L39193 31797
L39249 31778
L39287 31741
L39306 31703
L39324 31628
L39324 31572
L39306 31497
L39287 31460
L39249 31422
L39193 31403
L39099 31403
" />
<path d="M38237 30815
L38368 30421
L38500 30815
" />
<path d="M38762 30628
L38818 30609
L38837 30590
L38856 30553
L38856 30496
L38837 30459
L38818 30440
L38781 30421
L38631 30421
L38631 30815
L38762 30815
L38800 30796
L38818 30778
L38837 30740
L38837 30703
L38818 30665
L38800 30646
L38762 30628
L38631 30628
" />
<path d="M39024 30815
L39024 30496
L39043 30459
L39062 30440
L39099 30421
L39174 30421
L39212 30440
L39231 30459
L39249 30496
L39249 30815
" />
<path d="M39418 30440
L39474 30421
L39568 30421
L39606 30440
L39624 30459
L39643 30496
L39643 30534
L39624 30571
L39606 30590
L39568 30609
L39493 30628
L39456 30646
L39437 30665
L39418 30703
L39418 30740
L39437 30778
L39456 30796
L39493 30815
L39587 30815
L39643 30796
" />
<path d="M44311 33961
L44329 33980
L44348 34017
L44348 34055
L44329 34092
L44311 34111
L44273 34130
L44236 34130
L44198 34111
L44179 34092
L44161 34055
L44161 34017
L44179 33980
L44198 33961
" />
<path d="M44348 33961
L44198 33961
L44179 33942
L44179 33924
L44198 33886
L44236 33867
L44329 33867
L44386 33905
L44423 33961
L44442 34036
L44423 34111
L44386 34167
L44329 34205
L44254 34224
L44179 34205
L44123 34167
L44086 34111
L44067 34036
L44086 33961
L44123 33905
" />
<path d="M44123 33699
L44517 33699
L44236 33567
L44517 33436
L44123 33436
" />
<path d="M44123 33080
L44329 33080
L44367 33099
L44386 33136
L44386 33211
L44367 33249
" />
<path d="M44142 33080
L44123 33118
L44123 33211
L44142 33249
L44179 33267
L44217 33267
L44254 33249
L44273 33211
L44273 33118
L44292 33080
" />
<path d="M44123 32836
L44142 32874
L44179 32893
L44517 32893
" />
<path d="M44386 32518
L44123 32518
" />
<path d="M44386 32686
L44179 32686
L44142 32668
L44123 32630
L44123 32574
L44142 32536
L44161 32518
" />
<path d="M44142 32349
L44123 32311
L44123 32236
L44142 32199
L44179 32180
L44198 32180
L44236 32199
L44254 32236
L44254 32293
L44273 32330
L44311 32349
L44329 32349
L44367 32330
L44386 32293
L44386 32236
L44367 32199
" />
<path d="M44086 32105
L44086 31805
" />
<path d="M44123 31711
L44517 31711
L44236 31580
L44517 31449
L44123 31449
" />
<path d="M44123 31261
L44386 31261
" />
<path d="M44517 31261
L44498 31280
L44479 31261
L44498 31243
L44517 31261
L44479 31261
" />
<path d="M44123 31018
L44142 31055
L44179 31074
L44517 31074
" />
<path d="M44123 30812
L44142 30849
L44179 30868
L44517 30868
" />
<path d="M44086 30755
L44086 30455
" />
<path d="M47065 35084
L47459 35084
L47459 34990
L47440 34934
L47403 34896
L47365 34878
L47290 34859
L47234 34859
L47159 34878
L47122 34896
L47084 34934
L47065 34990
L47065 35084
" />
<path d="M47084 34540
L47065 34578
L47065 34653
L47084 34690
L47122 34709
L47272 34709
L47309 34690
L47328 34653
L47328 34578
L47309 34540
L47272 34521
L47234 34521
L47197 34709
" />
<path d="M47084 34372
L47065 34334
L47065 34259
L47084 34222
L47122 34203
L47140 34203
L47178 34222
L47197 34259
L47197 34315
L47215 34353
L47253 34372
L47272 34372
L47309 34353
L47328 34315
L47328 34259
L47309 34222
" />
<path d="M47065 34034
L47328 34034
" />
<path d="M47459 34034
L47440 34053
L47422 34034
L47440 34015
L47459 34034
L47422 34034
" />
<path d="M47328 33678
L47009 33678
L46972 33697
L46953 33715
L46934 33753
L46934 33809
L46953 33847
" />
<path d="M47084 33678
L47065 33715
L47065 33790
L47084 33828
L47103 33847
L47140 33865
L47253 33865
L47290 33847
L47309 33828
L47328 33790
L47328 33715
L47309 33678
" />
<path d="M47328 33490
L47065 33490
" />
<path d="M47290 33490
L47309 33472
L47328 33434
L47328 33378
L47309 33340
L47272 33322
L47065 33322
" />
<path d="M47084 32984
L47065 33022
L47065 33097
L47084 33134
L47122 33153
L47272 33153
L47309 33134
L47328 33097
L47328 33022
L47309 32984
L47272 32965
L47234 32965
L47197 33153
" />
<path d="M47065 32628
L47459 32628
" />
<path d="M47084 32628
L47065 32665
L47065 32740
L47084 32778
L47103 32797
L47140 32815
L47253 32815
L47290 32797
L47309 32778
L47328 32740
L47328 32665
L47309 32628
" />
<path d="M47065 32141
L47459 32141
" />
<path d="M47309 32141
L47328 32103
L47328 32028
L47309 31991
L47290 31972
L47253 31953
L47140 31953
L47103 31972
L47084 31991
L47065 32028
L47065 32103
L47084 32141
" />
<path d="M47328 31822
L47065 31728
" />
<path d="M47328 31634
L47065 31728
L46972 31766
L46953 31784
L46934 31822
" />
<path d="M47065 31184
L47328 31184
" />
<path d="M47253 31184
L47290 31166
L47309 31147
L47328 31109
L47328 31072
" />
<path d="M47065 30941
L47328 30941
" />
<path d="M47459 30941
L47440 30959
L47422 30941
L47440 30922
L47459 30941
L47422 30941
" />
<path d="M47328 30753
L47065 30753
" />
<path d="M47290 30753
L47309 30734
L47328 30697
L47328 30641
L47309 30603
L47272 30584
L47065 30584
" />
<path d="M47328 30228
L47009 30228
L46972 30247
L46953 30266
L46934 30303
L46934 30360
L46953 30397
" />
<path d="M47084 30228
L47065 30266
L47065 30341
L47084 30378
L47103 30397
L47140 30416
L47253 30416
L47290 30397
L47309 30378
L47328 30341
L47328 30266
L47309 30228
" />
<path d="M47065 29985
L47084 30022
L47103 30041
L47140 30060
L47253 30060
L47290 30041
L47309 30022
L47328 29985
L47328 29928
L47309 29891
L47290 29872
L47253 29853
L47140 29853
L47103 29872
L47084 29891
L47065 29928
L47065 29985
" />
</g>
<g style="fill:#000000; fill-opacity:0.0; 
stroke:#000000; stroke-width:78.7402; stroke-opacity:1; 
stroke-linecap:round; stroke-linejoin:round;">
<path d="M40039 22125
L40039 23779
" />
<path d="M44094 22125
L44094 23779
" />
<path d="M40039 22125
L44094 22125
" />
</g>
<g style="fill:#000000; fill-opacity:0.0; 
stroke:#000000; stroke-width:59.0551; stroke-opacity:1; 
stroke-linecap:round; stroke-linejoin:round;">
<path d="M40449 23562
L40431 23580
L40412 23637
L40412 23674
L40431 23730
L40468 23768
L40506 23787
L40581 23805
L40637 23805
L40712 23787
L40749 23768
L40787 23730
L40806 23674
L40806 23637
L40787 23580
L40768 23562
" />
<path d="M40524 23412
L40524 23224
" />
<path d="M40412 23449
L40806 23318
L40412 23187
" />
<path d="M40412 23055
L40806 23055
L40412 22830
L40806 22830
" />
<path d="M40412 22455
L40412 22643
L40806 22643
" />
<path d="M41447 23562
L41428 23580
L41409 23637
L41409 23674
L41428 23730
L41466 23768
L41503 23787
L41578 23805
L41634 23805
L41709 23787
L41747 23768
L41784 23730
L41803 23674
L41803 23637
L41784 23580
L41766 23562
" />
<path d="M41522 23412
L41522 23224
" />
<path d="M41409 23449
L41803 23318
L41409 23187
" />
<path d="M41409 23055
L41803 23055
L41409 22830
L41803 22830
" />
<path d="M41409 22643
L41803 22643
" />
<path d="M41616 22643
L41616 22418
" />
<path d="M41409 22418
L41803 22418
" />
<path d="M43779 23580
L43798 23618
L43798 23674
L43779 23730
L43742 23768
L43704 23787
L43629 23805
L43573 23805
L43498 23787
L43460 23768
L43423 23730
L43404 23674
L43404 23637
L43423 23580
L43442 23562
L43573 23562
L43573 23637
" />
<path d="M43404 23393
L43798 23393
L43404 23168
L43798 23168
" />
<path d="M43404 22980
L43798 22980
L43798 22887
L43779 22830
L43742 22793
L43704 22774
L43629 22755
L43573 22755
L43498 22774
L43460 22793
L43423 22830
L43404 22887
L43404 22980
" />
<path d="M42800 23843
L42407 23712
L42800 23580
" />
<path d="M42407 23449
L42800 23449
L42800 23355
L42782 23299
L42744 23262
L42707 23243
L42632 23224
L42575 23224
L42500 23243
L42463 23262
L42425 23299
L42407 23355
L42407 23449
" />
<path d="M42407 23055
L42800 23055
L42800 22962
L42782 22905
L42744 22868
L42707 22849
L42632 22830
L42575 22830
L42500 22849
L42463 22868
L42425 22905
L42407 22962
L42407 23055
" />
</g>
<g style="fill:#000000; fill-opacity:0.0; 
stroke:#000000; stroke-width:47.2441; stroke-opacity:1; 
stroke-linecap:round; stroke-linejoin:round;">
<path d="M46811 41363
L46673 41162
" />
<path d="M46732 42351
L46732 42453
" />
<path d="M46811 42272
L46732 42351
" />
<path d="M46811 38571
L46732 38654
" />
<path d="M46673 38654
L46732 38654
" />
<path d="M46673 38654
L46673 41162
" />
<path d="M44858 37433
L45567 37433
" />
<path d="M42496 37433
L44346 37433
" />
<path d="M46811 37839
L46732 37760
" />
<path d="M46811 37839
L46811 38571
" />
<path d="M46811 42272
L46811 41363
" />
<path d="M40405 37433
L41826 37433
" />
<path d="M40405 37611
L40405 37433
" />
<path d="M40405 42933
L45921 42933
" />
<path d="M40405 42178
L40405 42933
" />
</g>
<g style="fill:#000000; fill-opacity:1.0; 
stroke:#000000; stroke-width:3.93701; stroke-opacity:1; 
stroke-linecap:round; stroke-linejoin:round;">
<polyline style="fill-rule:evenodd;"
points="44991,33213
44990,33215
44991,33216
44993,33215
44991,33213
" /> 
<polyline style="fill-rule:evenodd;"
points="46215,31980
46204,31934
46186,31890
46163,31849
46135,31811
46127,31802
46112,31786
46118,31759
46125,31729
46136,31695
46149,31660
46164,31626
46171,31613
46178,31598
46185,31584
46189,31575
46192,31569
46192,31569
46190,31568
46184,31570
46174,31573
46162,31579
46149,31585
46109,31608
46073,31637
46040,31670
46027,31687
46018,31698
46011,31708
46006,31713
46004,31715
46004,31711
46005,31701
46007,31687
46010,31669
46015,31649
46017,31640
46026,31603
46039,31565
46049,31537
46056,31519
46022,31545
45999,31564
45974,31586
45949,31610
45926,31634
45906,31657
45898,31667
45879,31692
45805,31694
45742,31697
45682,31704
45623,31715
45563,31730
45501,31749
45476,31758
45439,31774
45398,31793
45355,31815
45313,31839
45271,31865
45232,31891
45198,31917
45196,31918
45181,31931
45162,31948
45141,31968
45120,31989
45098,32011
45079,32031
45061,32050
45048,32066
45048,32066
45002,32129
44961,32196
44926,32266
44896,32339
44873,32414
44855,32492
44850,32524
44845,32561
44841,32601
44839,32643
44838,32683
44838,32720
44838,32721
44845,32802
44857,32882
44877,32960
44902,33037
44935,33113
44944,33131
44951,33145
44959,33160
44967,33175
44975,33189
44981,33200
44986,33207
44988,33210
44988,33206
44988,33198
44988,33184
44989,33167
44989,33148
44989,33147
44989,33124
44989,33102
44990,33080
44992,33063
44993,33053
45005,32985
45023,32918
45048,32854
45079,32792
45116,32733
45120,32728
45138,32702
45142,32734
45151,32782
45164,32826
45184,32867
45209,32905
45238,32940
45265,32965
45296,32988
45328,33007
45360,33022
45367,33025
45380,33029
45378,33015
45376,33000
45375,32980
45375,32957
45377,32935
45379,32914
45381,32898
45381,32898
45387,32871
45398,32905
45411,32941
45426,32974
45445,33003
45468,33031
45480,33045
45516,33078
45555,33105
45598,33126
45643,33141
45673,33147
45688,33150
45703,33152
45715,33153
45718,33153
45732,33153
45723,33132
45713,33108
45704,33080
45697,33051
45693,33026
45691,33010
45691,33001
45692,32997
45695,32998
45698,33002
45724,33034
45754,33064
45787,33090
45795,33095
45834,33116
45877,33132
45922,33143
45967,33149
46012,33148
46028,33146
46047,33143
46069,33138
46092,33131
46114,33124
46133,33116
46142,33112
46157,33104
46119,33070
46095,33048
46069,33022
46044,32995
46020,32968
46004,32948
45957,32883
45915,32814
45879,32742
45849,32668
45825,32591
45807,32513
45796,32433
45795,32427
45794,32411
45793,32398
45793,32388
45794,32384
45794,32384
45798,32383
45807,32384
45819,32386
45819,32386
45865,32390
45911,32388
45955,32380
45998,32366
46039,32347
46078,32322
46112,32293
46143,32259
46170,32221
46185,32195
46198,32163
46208,32134
46215,32105
46219,32075
46220,32027
46215,31980
" /> 
<polyline style="fill-rule:evenodd;"
points="38760,26334
38751,26296
38734,26262
38710,26233
38681,26209
38646,26191
38608,26181
38570,26179
38533,26184
38498,26198
38467,26218
38440,26244
38419,26275
38404,26310
38399,26331
38396,26348
38395,26362
38395,26375
38398,26390
38401,26403
38413,26440
38433,26473
38461,26502
38494,26525
38505,26530
38519,26537
38531,26541
38544,26543
38560,26544
38578,26544
38612,26542
38639,26537
38663,26527
38686,26511
38703,26496
38729,26468
38747,26438
38758,26406
38762,26375
38760,26334
" /> 
<polyline style="fill-rule:evenodd;"
points="37797,23004
37705,23004
37621,23004
37545,23004
37477,23004
37416,23004
37362,23003
37314,23003
37271,23003
37235,23002
37203,23002
37176,23001
37152,23000
37133,22999
37117,22998
37104,22996
37093,22995
37084,22993
37076,22991
37070,22988
37064,22986
37058,22983
37053,22979
37049,22977
37025,22964
37025,23302
37063,23302
37080,23302
37093,23303
37100,23304
37101,23304
37098,23309
37091,23318
37083,23327
37067,23348
37051,23376
37036,23406
37024,23436
37021,23449
37015,23475
37011,23508
37009,23543
37009,23578
37011,23609
37014,23624
37029,23678
37051,23728
37082,23774
37119,23815
37164,23851
37207,23877
37253,23898
37300,23915
37350,23927
37404,23934
37463,23938
37494,23938
37516,23937
37516,23611
37480,23611
37445,23609
37415,23607
37391,23604
37386,23603
37344,23590
37309,23574
37283,23554
37264,23529
37254,23500
37250,23467
37255,23429
37261,23404
37268,23385
37278,23363
37287,23347
37306,23320
37759,23320
37776,23346
37792,23377
37802,23410
37807,23444
37806,23476
37798,23504
37792,23517
37775,23540
37753,23559
37724,23575
37689,23589
37645,23600
37643,23601
37618,23605
37588,23608
37553,23610
37516,23611
37516,23937
37578,23935
37655,23926
37725,23912
37789,23892
37846,23867
37895,23837
37938,23800
37974,23759
37986,23741
38008,23701
38024,23661
38034,23617
38037,23570
38037,23533
38033,23482
38024,23438
38011,23399
37993,23364
37979,23345
37970,23333
37965,23325
37963,23322
37967,23321
37979,23321
37998,23320
38022,23320
38051,23320
38084,23320
38119,23320
38155,23320
38191,23320
38227,23320
38260,23321
38291,23321
38317,23322
38338,23323
38353,23323
38356,23323
38384,23326
38406,23331
38424,23338
38442,23348
38446,23351
38461,23360
38461,23004
37797,23004
" /> 
<polyline style="fill-rule:evenodd;"
points="38036,24387
38028,24327
38015,24274
37996,24227
37972,24186
37947,24155
37917,24128
37886,24107
37850,24090
37833,24084
37817,24079
37803,24074
37789,24071
37775,24067
37760,24065
37743,24062
37723,24060
37701,24059
37674,24057
37643,24056
37606,24056
37564,24055
37514,24054
37457,24054
37401,24053
37339,24053
37286,24052
37240,24052
37201,24051
37169,24051
37142,24050
37120,24049
37103,24048
37089,24046
37078,24044
37070,24042
37063,24039
37057,24036
37052,24032
37046,24028
37044,24026
37035,24020
37029,24017
37029,24017
37028,24022
37027,24034
37027,24053
37026,24078
37025,24108
37025,24142
37025,24179
37025,24184
37025,24350
37063,24352
37101,24353
37081,24377
37054,24416
37033,24459
37021,24493
37015,24520
37011,24553
37009,24588
37009,24623
37011,24654
37014,24668
37029,24724
37050,24773
37078,24817
37112,24855
37152,24887
37197,24912
37247,24929
37269,24934
37293,24937
37323,24938
37336,24939
37337,24939
37337,24639
37308,24636
37283,24625
37261,24606
37259,24604
37245,24585
37237,24564
37232,24540
37231,24511
37231,24503
37232,24482
37234,24467
37238,24453
37245,24437
37247,24433
37261,24409
37278,24391
37284,24386
37306,24368
37383,24368
37414,24369
37437,24369
37452,24370
37461,24372
37463,24374
37465,24380
37466,24393
37466,24412
37467,24434
37467,24437
37465,24485
37458,24525
37447,24559
37432,24588
37413,24609
37390,24627
37366,24637
37337,24639
37337,24939
37373,24938
37404,24935
37432,24928
37460,24918
37481,24909
37518,24886
37553,24855
37584,24817
37611,24774
37633,24726
37650,24674
37656,24648
37665,24595
37671,24536
37673,24477
37672,24427
37670,24363
37693,24366
37732,24374
37764,24386
37789,24403
37807,24426
37818,24454
37823,24488
37822,24529
37821,24544
37811,24600
37795,24653
37780,24691
37772,24708
37766,24724
37762,24734
37761,24737
37765,24741
37776,24747
37796,24757
37823,24769
37859,24784
37865,24787
37894,24799
37919,24809
37941,24818
37958,24825
37969,24829
37972,24830
37974,24827
37976,24816
37978,24805
37979,24793
37983,24774
37988,24750
37995,24723
38002,24693
38005,24682
38015,24640
38023,24606
38028,24576
38033,24551
38036,24526
38037,24502
38038,24476
38038,24454
38036,24387
" /> 
<polyline style="fill-rule:evenodd;"
points="38397,25310
38389,25247
38373,25183
38349,25116
38318,25046
38316,25041
38305,25019
38295,24998
38288,24982
38284,24971
38283,24967
38281,24960
38279,24958
38275,24960
38265,24966
38249,24976
38230,24989
38207,25004
38183,25020
38157,25037
38132,25054
38109,25070
38087,25084
38070,25097
38057,25106
38049,25112
38048,25113
38050,25117
38057,25125
38067,25137
38073,25144
38103,25182
38124,25224
38138,25269
38144,25317
38143,25345
38137,25392
38123,25435
38101,25474
38072,25508
38035,25538
37990,25563
37956,25578
37903,25595
37845,25608
37783,25616
37721,25620
37658,25619
37596,25614
37537,25605
37483,25591
37434,25573
37421,25566
37376,25539
37338,25508
37307,25472
37284,25432
37268,25388
37261,25342
37261,25326
37265,25278
37278,25230
37299,25184
37329,25139
37359,25103
37377,25085
37260,25014
37231,24996
37204,24980
37180,24966
37161,24954
37147,24946
37139,24941
37138,24941
37134,24944
37127,24954
37118,24970
37107,24990
37095,25013
37083,25037
37071,25062
37059,25087
37050,25109
37042,25128
37039,25137
37024,25190
37014,25244
37009,25302
37008,25352
37008,25379
37009,25405
37010,25427
37012,25444
37012,25450
37024,25505
37041,25560
37064,25615
37092,25665
37113,25695
37155,25745
37205,25792
37261,25834
37321,25871
37386,25901
37432,25919
37504,25938
37581,25952
37660,25958
37740,25958
37820,25952
37897,25939
37970,25919
37975,25917
38038,25893
38097,25862
38151,25826
38203,25781
38221,25764
38270,25711
38310,25655
38342,25598
38367,25537
38385,25473
38392,25435
38398,25373
38397,25310
" /> 
<polyline style="fill-rule:evenodd;"
points="38578,26600
38533,26595
38491,26583
38452,26563
38417,26536
38388,26502
38365,26464
38349,26422
38342,26380
38342,26338
38350,26298
38365,26260
38385,26225
38411,26194
38443,26168
38478,26147
38518,26132
38562,26125
38582,26124
38616,26124
38616,26104
38615,26089
38610,26079
38601,26068
38586,26053
37723,26053
37620,26053
37525,26053
37439,26053
37360,26053
37289,26053
37224,26053
37167,26053
37115,26053
37070,26053
37030,26054
36995,26054
36965,26054
36940,26055
36918,26055
36901,26055
36886,26056
36875,26056
36866,26057
36860,26058
36855,26058
36852,26059
36849,26060
36849,26060
36846,26062
36843,26063
36841,26065
36839,26067
36837,26070
36835,26074
36834,26079
36832,26087
36831,26097
36830,26109
36829,26125
36828,26144
36828,26166
36827,26193
36826,26224
36826,26260
36826,26302
36826,26349
36825,26401
36825,26461
36825,26526
36825,26599
36825,26679
36825,26767
36825,26863
36825,26968
36825,26983
36825,27088
36825,27184
36825,27273
36825,27353
36825,27427
36825,27493
36826,27552
36826,27605
36826,27652
36826,27694
36826,27730
36827,27761
36827,27788
36827,27810
36828,27829
36828,27844
36829,27856
36829,27865
36830,27872
36831,27877
36832,27881
36832,27883
36834,27886
36835,27889
36836,27892
36837,27894
36839,27897
36843,27899
36847,27901
36854,27902
36863,27904
36874,27905
36888,27906
36906,27907
36927,27908
36952,27909
36982,27909
37017,27910
37056,27910
37102,27910
37153,27910
37210,27911
37274,27911
37345,27911
37423,27911
37509,27911
37603,27911
37706,27911
37723,27911
37826,27911
37921,27911
38008,27911
38087,27911
38159,27911
38223,27911
38281,27910
38333,27910
38376,27910
38376,27791
38353,27775
38347,27771
38342,27767
38336,27763
38331,27760
38325,27757
38317,27755
38309,27753
38297,27751
38284,27749
38267,27748
38247,27747
38223,27746
38195,27745
38161,27745
38122,27744
38078,27744
38027,27744
37969,27744
37904,27744
37832,27744
37751,27744
37703,27744
37617,27744
37540,27744
37471,27744
37410,27744
37355,27744
37307,27744
37265,27745
37229,27745
37198,27746
37172,27746
37149,27747
37131,27748
37116,27750
37103,27752
37093,27753
37085,27756
37078,27758
37072,27761
37067,27765
37062,27768
37056,27772
37052,27775
37030,27790
37030,27581
37030,27532
37030,27492
37030,27459
37030,27433
37030,27413
37031,27398
37032,27388
37032,27381
37034,27378
37035,27377
37037,27378
37037,27378
37052,27388
37073,27398
37097,27408
37107,27411
37115,27413
37123,27414
37133,27416
37146,27417
37163,27418
37185,27418
37211,27419
37244,27419
37284,27420
37332,27420
37350,27420
37399,27421
37440,27421
37473,27421
37500,27421
37521,27421
37537,27421
37547,27420
37554,27420
37558,27418
37559,27417
37558,27416
37556,27414
37551,27410
37540,27401
37523,27388
37501,27372
37476,27353
37447,27332
37416,27310
37385,27287
37352,27263
37320,27239
37289,27217
37260,27196
37234,27177
37212,27161
37194,27148
37182,27140
37179,27138
37165,27129
37146,27118
37127,27108
37124,27107
37105,27099
37090,27094
37076,27091
37060,27091
37030,27091
37030,26637
37066,26672
37086,26691
37108,26711
37130,26729
37140,26737
37155,26749
37176,26765
37202,26784
37232,26806
37265,26830
37301,26856
37339,26884
37379,26913
37420,26942
37460,26972
37501,27001
37540,27029
37578,27056
37614,27081
37646,27104
37675,27125
37700,27142
37720,27156
37734,27165
37742,27170
37744,27171
37748,27168
37759,27160
37775,27147
37796,27130
37822,27110
37851,27087
37882,27062
37917,27034
37952,27006
37989,26977
38018,26953
38018,26555
38013,26553
38004,26547
38004,26547
37992,26539
37977,26532
37974,26530
37971,26529
37967,26527
37961,26526
37954,26525
37945,26525
37933,26524
37918,26523
37898,26523
37874,26522
37845,26522
37810,26522
37770,26521
37722,26521
37667,26521
37605,26521
37534,26521
37461,26520
37397,26520
37340,26520
37291,26520
37248,26520
37211,26520
37180,26521
37154,26521
37132,26522
37115,26523
37100,26525
37089,26526
37080,26529
37072,26531
37066,26534
37061,26537
37055,26541
37050,26544
37040,26551
37033,26555
37032,26555
37031,26551
37031,26538
37030,26519
37030,26494
37030,26463
37030,26428
37030,26389
37030,26362
37030,26320
37030,26282
37030,26248
37031,26219
37031,26196
37032,26179
37033,26170
37033,26168
37039,26171
37042,26175
37049,26180
37061,26187
37071,26191
37094,26202
37557,26203
38021,26204
38021,26380
38021,26418
38020,26454
38020,26485
38020,26512
38019,26533
38019,26548
38018,26555
38018,26555
38018,26953
38025,26947
38062,26918
38097,26890
38130,26863
38161,26838
38189,26815
38213,26795
38232,26779
38241,26773
38280,26739
38313,26708
38340,26681
38361,26657
38364,26653
38376,26637
38376,27083
38357,27081
38335,27082
38308,27091
38276,27106
38248,27124
38239,27131
38224,27142
38204,27157
38180,27175
38153,27196
38123,27219
38092,27244
38059,27269
38027,27294
37996,27319
37966,27342
37939,27363
37915,27382
37896,27398
37881,27410
37873,27417
37872,27418
37875,27419
37887,27420
37907,27421
37937,27421
37974,27421
38020,27421
38067,27420
38119,27420
38163,27419
38200,27419
38231,27418
38256,27416
38276,27414
38293,27412
38307,27409
38320,27405
38331,27400
38341,27394
38351,27388
38376,27373
38376,27791
38376,27910
38379,27910
38419,27910
38454,27909
38484,27909
38510,27908
38531,27907
38549,27907
38564,27906
38576,27904
38585,27903
38592,27902
38597,27900
38600,27898
38603,27896
38605,27894
38606,27892
38607,27889
38609,27887
38610,27884
38611,27881
38612,27876
38612,27870
38613,27860
38614,27848
38614,27833
38614,27813
38615,27790
38615,27762
38615,27729
38616,27691
38616,27646
38616,27595
38616,27538
38616,27473
38616,27401
38616,27321
38616,27237
38616,26600
38578,26600
" /> 
<polyline style="fill-rule:evenodd;"
points="36694,22987
36685,22975
36674,22964
36553,22964
36516,22964
36488,22964
36466,22964
36450,22965
36439,22966
36431,22967
36426,22969
36421,22971
36419,22973
36409,22985
36408,22999
36414,23012
36418,23016
36422,23019
36430,23021
36442,23021
36460,23022
36474,23022
36527,23022
36527,23217
36479,23217
36457,23217
36442,23218
36431,23220
36424,23223
36419,23226
36409,23239
36408,23252
36415,23266
36419,23269
36423,23272
36431,23273
36442,23274
36460,23275
36484,23275
36490,23275
36535,23275
36573,23275
36604,23275
36628,23275
36646,23275
36660,23274
36670,23273
36677,23272
36682,23270
36685,23268
36687,23266
36695,23254
36694,23241
36685,23228
36680,23223
36673,23220
36664,23218
36651,23217
36631,23217
36585,23217
36585,23022
36632,23022
36653,23022
36668,23021
36677,23019
36683,23016
36687,23013
36695,23000
36694,22987
" /> 
<polyline style="fill-rule:evenodd;"
points="36696,23486
36696,23455
36696,23430
36695,23412
36694,23399
36693,23390
36692,23384
36690,23380
36688,23378
36676,23368
36662,23367
36650,23373
36645,23377
36642,23382
36640,23388
36639,23398
36638,23413
36638,23435
36638,23440
36638,23497
36532,23497
36498,23497
36472,23497
36453,23498
36439,23499
36430,23500
36424,23501
36419,23503
36416,23506
36408,23519
36409,23533
36418,23545
36419,23546
36423,23549
36428,23551
36435,23553
36445,23554
36459,23554
36478,23555
36505,23555
36535,23555
36638,23555
36638,23610
36639,23633
36639,23650
36640,23660
36643,23667
36646,23672
36647,23672
36660,23679
36674,23678
36687,23671
36690,23668
36692,23664
36693,23659
36694,23650
36695,23638
36696,23621
36696,23599
36696,23569
36696,23532
36696,23524
36696,23486
" /> 
<polyline style="fill-rule:evenodd;"
points="36693,23790
36688,23781
36679,23771
36553,23771
36516,23771
36486,23771
36464,23771
36447,23772
36436,23773
36428,23774
36422,23775
36418,23778
36417,23779
36409,23791
36409,23806
36416,23818
36424,23828
36679,23828
36688,23818
36694,23808
36696,23800
36693,23790
" /> 
<polyline style="fill-rule:evenodd;"
points="36695,23965
36693,23958
36693,23957
36685,23947
36676,23941
36672,23940
36667,23940
36660,23941
36650,23945
36635,23951
36616,23959
36591,23970
36559,23985
36542,23993
36511,24007
36482,24020
36457,24033
36437,24043
36422,24051
36414,24055
36413,24056
36408,24069
36409,24082
36415,24093
36415,24094
36422,24098
36435,24106
36452,24115
36473,24126
36481,24130
36538,24158
36476,24190
36454,24201
36435,24211
36421,24220
36412,24226
36410,24228
36408,24245
36413,24258
36418,24262
36431,24269
36449,24279
36472,24290
36497,24302
36525,24315
36554,24328
36581,24340
36608,24352
36631,24362
36650,24370
36664,24375
36671,24376
36671,24376
36680,24372
36688,24363
36689,24363
36695,24352
36695,24342
36694,24339
36691,24334
36686,24329
36678,24324
36666,24317
36647,24307
36623,24296
36601,24285
36574,24273
36551,24262
36531,24253
36517,24247
36509,24243
36507,24242
36509,24240
36518,24234
36532,24226
36551,24217
36558,24213
36584,24200
36603,24190
36615,24182
36623,24176
36628,24170
36629,24163
36630,24159
36629,24152
36626,24145
36620,24139
36610,24132
36595,24123
36573,24112
36561,24105
36541,24095
36525,24086
36513,24079
36508,24076
36507,24075
36512,24072
36523,24067
36540,24059
36561,24048
36586,24037
36599,24031
36630,24016
36655,24004
36673,23994
36685,23986
36692,23979
36696,23972
36695,23965
" /> 
<polyline style="fill-rule:evenodd;"
points="36696,25039
36694,24988
36689,24945
36680,24908
36667,24878
36649,24853
36627,24834
36600,24818
36599,24817
36575,24808
36553,24804
36531,24807
36506,24816
36503,24818
36480,24829
36463,24842
36449,24859
36434,24882
36434,24883
36424,24903
36417,24925
36412,24951
36409,24983
36408,25022
36408,25036
36407,25101
36419,25110
36423,25113
36427,25115
36434,25117
36443,25118
36455,25119
36465,25119
36465,25057
36465,25020
36466,24999
36467,24976
36470,24958
36470,24957
36479,24925
36492,24900
36510,24881
36533,24868
36539,24866
36549,24864
36559,24865
36572,24869
36578,24872
36595,24881
36606,24892
36614,24904
36625,24929
36633,24960
36637,24996
36638,25023
36638,25057
36465,25057
36465,25119
36473,25119
36497,25119
36528,25119
36553,25120
36674,25120
36685,25109
36690,25104
36693,25099
36695,25091
36696,25080
36696,25064
36696,25040
36696,25039
" /> 
<polyline style="fill-rule:evenodd;"
points="36696,25349
36696,25319
36695,25296
36693,25279
36691,25267
36687,25259
36683,25255
36677,25253
36669,25253
36668,25253
36659,25253
36652,25255
36647,25259
36643,25267
36641,25280
36639,25298
36638,25322
36637,25354
36637,25364
36636,25460
36611,25461
36585,25462
36585,25396
36585,25370
36585,25352
36584,25339
36582,25331
36580,25326
36576,25322
36576,25322
36563,25315
36549,25315
36537,25322
36535,25324
36532,25329
36530,25336
36528,25346
36528,25362
36527,25384
36527,25398
36527,25462
36465,25462
36465,25365
36465,25333
36465,25308
36464,25290
36463,25278
36462,25270
36460,25264
36458,25261
36457,25260
36445,25254
36430,25253
36418,25259
36414,25263
36412,25267
36410,25274
36409,25284
36408,25298
36408,25318
36407,25345
36407,25379
36407,25387
36407,25422
36407,25449
36408,25469
36408,25484
36409,25494
36411,25501
36413,25505
36415,25509
36417,25510
36420,25513
36424,25515
36430,25517
36439,25518
36452,25519
36469,25519
36493,25519
36524,25519
36550,25520
36586,25519
36615,25519
36636,25519
36653,25518
36664,25518
36672,25516
36678,25515
36682,25512
36684,25510
36696,25501
36696,25387
36696,25349
" /> 
<polyline style="fill-rule:evenodd;"
points="36694,25951
36689,25942
36680,25930
36667,25914
36650,25895
36628,25870
36602,25840
36571,25806
36506,25735
36593,25733
36622,25732
36645,25731
36660,25730
36671,25729
36678,25727
36683,25725
36686,25722
36688,25720
36695,25707
36694,25694
36688,25683
36679,25673
36555,25672
36519,25671
36490,25671
36468,25671
36452,25671
36440,25672
36432,25673
36427,25675
36423,25677
36419,25680
36413,25685
36409,25690
36407,25696
36409,25704
36414,25713
36422,25726
36435,25742
36453,25763
36476,25788
36502,25817
36597,25922
36511,25924
36481,25925
36459,25926
36443,25926
36432,25928
36425,25929
36420,25932
36417,25935
36416,25937
36408,25951
36409,25965
36419,25977
36423,25980
36427,25982
36434,25983
36443,25985
36456,25985
36474,25986
36498,25986
36529,25986
36552,25986
36588,25986
36616,25986
36638,25986
36653,25985
36665,25984
36673,25983
36678,25981
36682,25979
36684,25977
36690,25973
36694,25968
36697,25964
36697,25958
36694,25951
" /> 
<polyline style="fill-rule:evenodd;"
points="36694,26207
36689,26180
36682,26160
36673,26146
36668,26142
36656,26139
36644,26141
36634,26149
36629,26161
36629,26179
36632,26193
36637,26224
36638,26255
36633,26291
36632,26300
36623,26333
36609,26359
36591,26377
36569,26387
36557,26389
36534,26388
36514,26379
36497,26363
36483,26340
36473,26313
36467,26281
36466,26246
36470,26208
36470,26205
36473,26190
36476,26182
36480,26178
36486,26177
36490,26177
36505,26177
36505,26204
36507,26228
36512,26244
36521,26254
36535,26257
36537,26257
36548,26255
36557,26248
36562,26236
36565,26216
36567,26197
36567,26169
36566,26149
36562,26135
36555,26126
36542,26122
36523,26120
36499,26120
36472,26120
36453,26122
36443,26125
36442,26125
36430,26140
36420,26163
36413,26191
36409,26223
36408,26259
36411,26296
36414,26317
36424,26351
36439,26383
36460,26409
36464,26413
36481,26426
36502,26438
36524,26447
36545,26452
36552,26453
36568,26450
36589,26443
36610,26433
36629,26422
36642,26411
36661,26387
36677,26356
36688,26319
36694,26278
36696,26240
36694,26207
" /> 
<polyline style="fill-rule:evenodd;"
points="36687,26591
36684,26588
36680,26586
36675,26584
36666,26583
36653,26583
36636,26582
36612,26582
36582,26582
36552,26582
36515,26582
36486,26582
36463,26582
36447,26583
36435,26584
36427,26585
36422,26586
36418,26589
36416,26591
36408,26604
36409,26617
36418,26630
36421,26633
36425,26635
36430,26637
36438,26638
36450,26639
36466,26639
36489,26639
36518,26639
36551,26640
36674,26640
36685,26629
36694,26615
36695,26602
36687,26591
" /> 
<polyline style="fill-rule:evenodd;"
points="36696,26893
36694,26863
36690,26836
36686,26812
36681,26794
36675,26782
36673,26780
36660,26774
36646,26776
36634,26786
36633,26786
36630,26792
36628,26798
36628,26806
36629,26819
36632,26838
36632,26840
36636,26868
36637,26899
36637,26930
36636,26959
36633,26984
36628,27002
36627,27003
36620,27016
36612,27021
36605,27017
36598,27006
36592,26986
36586,26960
36583,26942
36578,26905
36573,26875
36568,26852
36563,26834
36557,26820
36550,26808
36541,26798
36532,26789
36520,26779
36509,26774
36497,26773
36492,26773
36476,26774
36465,26779
36454,26786
36438,26803
36426,26821
36418,26842
36412,26867
36409,26899
36408,26938
36408,26944
36408,26970
36410,26995
36411,27018
36413,27035
36414,27036
36418,27053
36423,27067
36427,27075
36439,27082
36453,27083
36466,27077
36467,27075
36471,27069
36473,27062
36473,27050
36471,27036
36470,27021
36469,26999
36468,26973
36467,26947
36467,26940
36467,26913
36468,26893
36469,26879
36471,26869
36474,26860
36476,26855
36483,26844
36489,26837
36490,26836
36497,26838
36504,26849
36510,26866
36516,26891
36517,26898
36523,26936
36528,26966
36532,26990
36536,27008
36540,27022
36545,27034
36550,27043
36557,27052
36565,27061
36568,27064
36579,27075
36588,27081
36597,27084
36610,27084
36634,27080
36654,27068
36671,27048
36684,27020
36690,27000
36694,26978
36696,26952
36696,26923
36696,26893
" /> 
<polyline style="fill-rule:evenodd;"
points="36696,27295
36696,27268
36696,27247
36695,27232
36694,27221
36693,27214
36691,27210
36688,27206
36687,27205
36675,27197
36661,27196
36648,27201
36646,27203
36643,27207
36642,27213
36640,27223
36639,27237
36638,27257
36638,27284
36637,27309
36636,27406
36611,27407
36585,27409
36585,27343
36585,27314
36584,27293
36582,27278
36578,27269
36572,27264
36563,27262
36555,27262
36545,27263
36538,27266
36533,27274
36530,27286
36528,27305
36527,27331
36527,27345
36527,27408
36465,27408
36465,27311
36465,27279
36465,27254
36464,27236
36464,27224
36462,27215
36460,27210
36458,27206
36456,27204
36446,27197
36436,27195
36425,27198
36416,27204
36413,27207
36411,27211
36410,27217
36409,27226
36408,27239
36408,27257
36407,27282
36407,27314
36407,27331
36407,27366
36407,27394
36408,27415
36408,27430
36409,27441
36411,27448
36413,27453
36415,27456
36416,27457
36419,27460
36423,27462
36429,27463
36437,27465
36450,27465
36468,27466
36492,27466
36522,27466
36551,27466
36588,27466
36616,27466
36639,27466
36655,27465
36666,27465
36674,27463
36679,27462
36683,27459
36686,27457
36687,27456
36689,27452
36692,27449
36693,27443
36695,27435
36695,27422
36696,27405
36696,27382
36696,27352
36696,27330
36696,27295
" /> 
<polyline style="fill-rule:evenodd;"
points="36696,27849
36696,27834
36695,27788
36692,27750
36686,27718
36677,27691
36665,27667
36650,27646
36643,27638
36628,27625
36606,27614
36583,27605
36560,27600
36552,27600
36529,27603
36503,27611
36479,27623
36460,27638
36458,27640
36442,27660
36429,27682
36420,27707
36413,27737
36409,27772
36407,27814
36407,27833
36407,27858
36408,27875
36409,27886
36411,27894
36414,27899
36416,27902
36419,27904
36423,27906
36429,27908
36437,27909
36450,27910
36468,27910
36491,27910
36522,27911
36552,27911
36591,27911
36623,27911
36638,27910
36638,27853
36465,27853
36465,27816
36466,27794
36467,27771
36470,27752
36470,27751
36477,27720
36489,27696
36506,27677
36524,27666
36544,27659
36563,27659
36583,27667
36604,27684
36619,27706
36630,27736
36633,27756
36636,27778
36638,27802
36638,27822
36638,27823
36638,27853
36638,27910
36648,27910
36666,27908
36679,27905
36688,27900
36693,27892
36696,27882
36696,27867
36696,27849
" /> 
</g>
<g style="fill:#000000; fill-opacity:0.0; 
stroke:#000000; stroke-width:3.93701; stroke-opacity:1; 
stroke-linecap:round; stroke-linejoin:round;">
</g>
<g style="fill:#000000; fill-opacity:0.0; 
stroke:#000000; stroke-width:59.0551; stroke-opacity:1; 
stroke-linecap:round; stroke-linejoin:round;">
<path d="M39544 40019
L39825 40019
L39881 40000
L39919 39962
L39938 39906
L39938 39869
" />
<path d="M39581 40187
L39563 40206
L39544 40244
L39544 40337
L39563 40375
L39581 40394
L39619 40412
L39656 40412
L39713 40394
L39938 40169
L39938 40412
" />
</g> 
</svg>
