<?xml version="1.0" standalone="no"?>
 <!DOCTYPE svg PUBLIC "-//W3C//DTD SVG 1.1//EN" 
 "http://www.w3.org/Graphics/SVG/1.1/DTD/svg11.dtd"> 
<svg xmlns="http://www.w3.org/2000/svg" version="1.1" 
    width="29.7002cm" height="21.0007cm" viewBox="0 0 116930 82680 ">
<title>SVG Picture created as High_range_accelerometer-B.Mask.svg date 2019/10/12 12:30:53 </title>
  <desc>Picture generated by PCBNEW </desc>
<g style="fill:#000000; fill-opacity:1;stroke:#000000; stroke-opacity:1;
stroke-linecap:round; stroke-linejoin:round; "
 transform="translate(0 0) scale(1 1)">
</g>
<g style="fill:#000000; fill-opacity:0.0; 
stroke:#000000; stroke-width:-0.000393701; stroke-opacity:1; 
stroke-linecap:round; stroke-linejoin:round;">
</g>
<g style="fill:#000000; fill-opacity:1.0; 
stroke:#000000; stroke-width:0; stroke-opacity:1; 
stroke-linecap:round; stroke-linejoin:round;">
<polyline style="fill-rule:evenodd;"
points="46151,43992
46193,44000
46311,44049
46416,44120
46418,44121
46508,44211
46579,44318
46628,44436
46653,44561
46653,44690
46628,44815
46579,44933
46508,45040
46418,45130
46418,45130
46311,45202
46193,45251
46151,45259
46067,45275
45939,45275
45856,45259
45814,45251
45696,45202
45589,45130
45589,45130
45499,45040
45427,44933
45378,44815
45353,44690
45353,44561
45378,44436
45427,44318
45499,44211
45589,44121
45591,44120
45696,44049
45814,44000
45856,43992
45939,43975
46067,43975
46151,43992
" /> 
<polyline style="fill-rule:evenodd;"
points="38277,43992
38319,44000
38437,44049
38542,44120
38544,44121
38634,44211
38705,44318
38754,44436
38779,44561
38779,44690
38754,44815
38705,44933
38634,45040
38544,45130
38544,45130
38437,45202
38319,45251
38277,45259
38193,45275
38065,45275
37982,45259
37940,45251
37822,45202
37715,45130
37715,45130
37625,45040
37553,44933
37504,44815
37479,44690
37479,44561
37504,44436
37553,44318
37625,44211
37715,44121
37716,44120
37822,44049
37940,44000
37982,43992
38065,43975
38193,43975
38277,43992
" /> 
<polyline style="fill-rule:evenodd;"
points="37697,42324
36908,42324
36908,41457
37697,41457
37697,42324
" /> 
<polyline style="fill-rule:evenodd;"
points="38567,41185
38610,41198
38650,41219
38684,41247
38712,41282
38733,41321
38746,41364
38751,41408
38746,41453
38733,41495
38712,41535
38684,41569
38650,41598
38610,41619
38567,41632
38534,41635
38433,41635
38400,41632
38357,41619
38318,41598
38283,41569
38255,41535
38234,41495
38221,41453
38216,41408
38221,41364
38234,41321
38255,41282
38283,41247
38318,41219
38357,41198
38400,41185
38433,41181
38534,41181
38567,41185
" /> 
<polyline style="fill-rule:evenodd;"
points="38567,39275
38610,39288
38650,39309
38684,39338
38712,39372
38733,39412
38746,39454
38751,39499
38746,39543
38733,39586
38712,39625
38684,39660
38650,39688
38610,39709
38567,39722
38534,39726
38433,39726
38400,39722
38357,39709
38318,39688
38283,39660
38255,39625
38234,39586
38221,39543
38216,39499
38221,39454
38234,39412
38255,39372
38283,39338
38318,39309
38357,39288
38400,39275
38433,39272
38534,39272
38567,39275
" /> 
<polyline style="fill-rule:evenodd;"
points="37697,39450
36908,39450
36908,38583
37697,38583
37697,39450
" /> 
<polyline style="fill-rule:evenodd;"
points="37661,34176
37729,34205
37790,34246
37842,34298
37883,34359
37912,34427
37926,34500
37926,34573
37912,34646
37883,34714
37842,34775
37790,34827
37729,34868
37661,34897
37588,34911
37515,34911
37442,34897
37374,34868
37313,34827
37261,34775
37220,34714
37191,34646
37177,34573
37177,34500
37191,34427
37220,34359
37261,34298
37313,34246
37374,34205
37442,34176
37515,34162
37588,34162
37661,34176
" /> 
<polyline style="fill-rule:evenodd;"
points="42134,33981
42149,33984
42179,33996
42205,34014
42227,34036
42245,34062
42257,34092
42263,34123
42263,34154
42260,34170
42257,34185
42245,34214
42227,34241
42205,34263
42179,34280
42149,34293
42134,34296
42118,34299
42087,34299
42071,34296
42056,34293
42027,34280
42000,34263
41978,34241
41960,34214
41948,34185
41945,34170
41942,34154
41942,34123
41948,34092
41960,34062
41978,34036
42000,34014
42027,33996
42056,33984
42071,33981
42087,33978
42118,33978
42134,33981
" /> 
<polyline style="fill-rule:evenodd;"
points="37661,33192
37729,33220
37790,33261
37842,33314
37883,33375
37912,33443
37926,33515
37926,33589
37912,33661
37883,33730
37842,33791
37790,33843
37729,33884
37661,33912
37588,33927
37515,33927
37442,33912
37374,33884
37313,33843
37261,33791
37220,33730
37191,33661
37177,33589
37177,33515
37191,33443
37220,33375
37261,33314
37313,33261
37374,33220
37442,33192
37515,33178
37588,33178
37661,33192
" /> 
<polyline style="fill-rule:evenodd;"
points="42531,33584
42546,33587
42575,33600
42601,33617
42624,33639
42641,33666
42653,33695
42660,33726
42660,33757
42653,33788
42641,33818
42624,33844
42601,33866
42575,33884
42546,33896
42531,33899
42515,33902
42483,33902
42468,33899
42453,33896
42423,33884
42397,33866
42375,33844
42357,33818
42345,33788
42339,33757
42339,33726
42345,33695
42357,33666
42375,33639
42397,33617
42423,33600
42453,33587
42468,33584
42483,33581
42515,33581
42531,33584
" /> 
<polyline style="fill-rule:evenodd;"
points="41737,33584
41753,33587
41782,33600
41808,33617
41830,33639
41848,33666
41860,33695
41866,33726
41866,33757
41860,33788
41848,33818
41830,33844
41808,33866
41782,33884
41753,33896
41737,33899
41722,33902
41690,33902
41675,33899
41659,33896
41630,33884
41604,33866
41581,33844
41564,33818
41552,33788
41546,33757
41546,33726
41552,33695
41564,33666
41581,33639
41604,33617
41630,33600
41659,33587
41675,33584
41690,33581
41722,33581
41737,33584
" /> 
<polyline style="fill-rule:evenodd;"
points="41340,33188
41356,33191
41385,33203
41411,33220
41434,33243
41451,33269
41463,33298
41469,33329
41469,33361
41463,33392
41451,33421
41434,33447
41411,33469
41385,33487
41356,33499
41340,33502
41325,33505
41293,33505
41278,33502
41262,33499
41233,33487
41207,33469
41185,33447
41167,33421
41155,33392
41149,33361
41149,33329
41155,33298
41167,33269
41185,33243
41207,33220
41233,33203
41262,33191
41278,33188
41293,33185
41325,33185
41340,33188
" /> 
<polyline style="fill-rule:evenodd;"
points="42134,33188
42149,33191
42179,33203
42205,33220
42227,33243
42245,33269
42257,33298
42263,33329
42263,33361
42257,33392
42245,33421
42227,33447
42205,33469
42179,33487
42149,33499
42134,33502
42118,33505
42087,33505
42071,33502
42056,33499
42027,33487
42000,33469
41978,33447
41960,33421
41948,33392
41942,33361
41942,33329
41948,33298
41960,33269
41978,33243
42000,33220
42027,33203
42056,33191
42071,33188
42087,33185
42118,33185
42134,33188
" /> 
<polyline style="fill-rule:evenodd;"
points="42927,33188
42943,33191
42972,33203
42998,33220
43021,33243
43038,33269
43050,33298
43056,33329
43056,33361
43050,33392
43038,33421
43021,33447
42998,33469
42972,33487
42943,33499
42927,33502
42912,33505
42880,33505
42865,33502
42849,33499
42820,33487
42794,33469
42771,33447
42754,33421
42742,33392
42736,33361
42736,33329
42742,33298
42754,33269
42771,33243
42794,33220
42820,33203
42849,33191
42865,33188
42880,33185
42912,33185
42927,33188
" /> 
<polyline style="fill-rule:evenodd;"
points="40944,32791
40959,32794
40988,32806
41015,32824
41037,32846
41055,32872
41067,32901
41073,32932
41073,32964
41067,32995
41055,33024
41037,33050
41015,33073
40988,33090
40959,33102
40944,33105
40928,33109
40897,33109
40881,33105
40866,33102
40837,33090
40810,33073
40788,33050
40770,33024
40758,32995
40752,32964
40752,32932
40758,32901
40770,32872
40788,32846
40810,32824
40837,32806
40866,32794
40881,32791
40897,32788
40928,32788
40944,32791
" /> 
<polyline style="fill-rule:evenodd;"
points="41737,32791
41753,32794
41782,32806
41808,32824
41830,32846
41848,32872
41860,32901
41866,32932
41866,32964
41860,32995
41848,33024
41830,33050
41808,33073
41782,33090
41753,33102
41737,33105
41722,33109
41690,33109
41675,33105
41659,33102
41630,33090
41604,33073
41581,33050
41564,33024
41552,32995
41546,32964
41546,32932
41552,32901
41564,32872
41581,32846
41604,32824
41630,32806
41659,32794
41675,32791
41690,32788
41722,32788
41737,32791
" /> 
<polyline style="fill-rule:evenodd;"
points="42531,32791
42546,32794
42575,32806
42601,32824
42624,32846
42641,32872
42653,32901
42660,32932
42660,32964
42653,32995
42641,33024
42624,33050
42601,33073
42575,33090
42546,33102
42531,33105
42515,33109
42483,33109
42468,33105
42453,33102
42423,33090
42397,33073
42375,33050
42357,33024
42345,32995
42339,32964
42339,32932
42345,32901
42357,32872
42375,32846
42397,32824
42423,32806
42453,32794
42468,32791
42483,32788
42515,32788
42531,32791
" /> 
<polyline style="fill-rule:evenodd;"
points="43324,32791
43339,32794
43369,32806
43395,32824
43417,32846
43435,32872
43447,32901
43453,32932
43453,32964
43447,32995
43435,33024
43417,33050
43395,33073
43369,33090
43339,33102
43324,33105
43308,33109
43277,33109
43261,33105
43246,33102
43217,33090
43190,33073
43168,33050
43151,33024
43139,32995
43132,32964
43132,32932
43139,32901
43151,32872
43168,32846
43190,32824
43217,32806
43246,32794
43261,32791
43277,32788
43308,32788
43324,32791
" /> 
<polyline style="fill-rule:evenodd;"
points="37661,32208
37729,32236
37790,32277
37842,32329
37883,32391
37912,32459
37926,32531
37926,32605
37912,32677
37883,32745
37842,32807
37790,32859
37729,32900
37661,32928
37588,32942
37515,32942
37442,32928
37374,32900
37313,32859
37261,32807
37220,32745
37191,32677
37177,32605
37177,32531
37191,32459
37220,32391
37261,32329
37313,32277
37374,32236
37442,32208
37515,32194
37588,32194
37661,32208
" /> 
<polyline style="fill-rule:evenodd;"
points="42927,32394
42943,32397
42972,32409
42998,32427
43021,32449
43038,32476
43050,32505
43055,32531
43056,32536
43056,32567
43050,32598
43038,32627
43021,32654
42998,32676
42972,32694
42943,32706
42927,32709
42912,32712
42880,32712
42865,32709
42849,32706
42820,32694
42794,32676
42771,32654
42754,32627
42742,32598
42736,32567
42736,32536
42737,32531
42742,32505
42754,32476
42771,32449
42794,32427
42820,32409
42849,32397
42865,32394
42880,32391
42912,32391
42927,32394
" /> 
<polyline style="fill-rule:evenodd;"
points="42134,32394
42149,32397
42179,32409
42205,32427
42227,32449
42245,32476
42257,32505
42262,32531
42263,32536
42263,32567
42257,32598
42245,32627
42227,32654
42205,32676
42179,32694
42149,32706
42134,32709
42118,32712
42087,32712
42071,32709
42056,32706
42027,32694
42000,32676
41978,32654
41960,32627
41948,32598
41942,32567
41942,32536
41943,32531
41948,32505
41960,32476
41978,32449
42000,32427
42027,32409
42056,32397
42071,32394
42087,32391
42118,32391
42134,32394
" /> 
<polyline style="fill-rule:evenodd;"
points="41340,32394
41356,32397
41385,32409
41411,32427
41434,32449
41451,32476
41463,32505
41469,32531
41469,32536
41469,32567
41463,32598
41451,32627
41434,32654
41411,32676
41385,32694
41356,32706
41340,32709
41325,32712
41293,32712
41278,32709
41262,32706
41233,32694
41207,32676
41185,32654
41167,32627
41155,32598
41149,32567
41149,32536
41150,32531
41155,32505
41167,32476
41185,32449
41207,32427
41233,32409
41262,32397
41278,32394
41293,32391
41325,32391
41340,32394
" /> 
<polyline style="fill-rule:evenodd;"
points="42531,31998
42546,32001
42575,32013
42601,32030
42624,32053
42641,32079
42653,32108
42660,32139
42660,32171
42653,32202
42641,32231
42624,32257
42601,32279
42575,32297
42546,32309
42531,32312
42515,32315
42483,32315
42468,32312
42453,32309
42423,32297
42397,32279
42375,32257
42357,32231
42345,32202
42339,32171
42339,32139
42345,32108
42357,32079
42375,32053
42397,32030
42423,32013
42453,32001
42468,31998
42483,31994
42515,31994
42531,31998
" /> 
<polyline style="fill-rule:evenodd;"
points="41737,31998
41753,32001
41782,32013
41808,32030
41830,32053
41848,32079
41860,32108
41866,32139
41866,32171
41860,32202
41848,32231
41830,32257
41808,32279
41782,32297
41753,32309
41737,32312
41722,32315
41690,32315
41675,32312
41659,32309
41630,32297
41604,32279
41581,32257
41564,32231
41552,32202
41546,32171
41546,32139
41552,32108
41564,32079
41581,32053
41604,32030
41630,32013
41659,32001
41675,31998
41690,31994
41722,31994
41737,31998
" /> 
<polyline style="fill-rule:evenodd;"
points="37661,31224
37729,31252
37790,31293
37842,31345
37883,31406
37912,31475
37926,31547
37926,31621
37912,31693
37883,31761
37842,31822
37790,31875
37729,31916
37661,31944
37588,31958
37515,31958
37442,31944
37374,31916
37313,31875
37261,31822
37220,31761
37191,31693
37177,31621
37177,31547
37191,31475
37220,31406
37261,31345
37313,31293
37374,31252
37442,31224
37515,31209
37588,31209
37661,31224
" /> 
<polyline style="fill-rule:evenodd;"
points="42134,31601
42149,31604
42179,31616
42205,31634
42227,31656
42245,31682
42257,31711
42263,31742
42263,31774
42257,31805
42245,31834
42227,31860
42205,31883
42179,31900
42149,31912
42134,31915
42118,31918
42087,31918
42071,31915
42056,31912
42027,31900
42000,31883
41978,31860
41960,31834
41948,31805
41942,31774
41942,31742
41948,31711
41960,31682
41978,31656
42000,31634
42027,31616
42056,31604
42071,31601
42087,31598
42118,31598
42134,31601
" /> 
<polyline style="fill-rule:evenodd;"
points="37926,30974
37177,30974
37177,30225
37926,30225
37926,30974
" /> 
<polyline style="fill-rule:evenodd;"
points="41663,24195
41707,24209
41730,24216
41784,24245
41791,24248
41805,24260
41845,24293
41878,24333
41890,24347
41923,24408
41943,24475
41948,24527
41948,24661
41943,24713
41929,24757
41923,24780
41893,24834
41890,24841
41878,24855
41845,24895
41791,24940
41730,24973
41714,24977
41663,24993
41593,25000
41524,24993
41473,24977
41457,24973
41395,24940
41395,24940
41379,24926
41341,24895
41297,24841
41264,24780
41257,24757
41244,24713
41239,24661
41239,24527
41244,24475
41264,24408
41264,24408
41297,24347
41341,24293
41379,24262
41395,24248
41402,24245
41457,24216
41479,24209
41524,24195
41593,24188
41663,24195
" /> 
<polyline style="fill-rule:evenodd;"
points="42647,24195
42692,24209
42714,24216
42768,24245
42776,24248
42790,24260
42830,24293
42862,24333
42874,24347
42907,24408
42927,24475
42932,24527
42932,24661
42927,24713
42914,24757
42907,24780
42878,24834
42874,24841
42862,24855
42830,24895
42776,24940
42714,24973
42698,24977
42647,24993
42578,25000
42508,24993
42457,24977
42441,24973
42379,24940
42379,24940
42363,24926
42325,24895
42281,24841
42248,24780
42241,24757
42228,24713
42223,24661
42223,24527
42228,24475
42248,24408
42248,24408
42281,24347
42325,24293
42363,24262
42379,24248
42387,24245
42441,24216
42463,24209
42508,24195
42578,24188
42647,24195
" /> 
<polyline style="fill-rule:evenodd;"
points="40679,24195
40723,24209
40745,24216
40800,24245
40807,24248
40821,24260
40861,24293
40894,24333
40905,24347
40938,24408
40959,24475
40964,24527
40964,24661
40959,24713
40945,24757
40938,24780
40909,24834
40905,24841
40894,24855
40861,24895
40807,24940
40745,24973
40729,24977
40679,24993
40609,25000
40539,24993
40489,24977
40473,24973
40411,24940
40411,24940
40394,24926
40357,24895
40313,24841
40280,24780
40273,24757
40259,24713
40254,24661
40254,24527
40259,24475
40280,24408
40280,24408
40313,24347
40357,24293
40394,24262
40411,24248
40418,24245
40473,24216
40495,24209
40539,24195
40609,24188
40679,24195
" /> 
<polyline style="fill-rule:evenodd;"
points="43860,24192
43873,24196
43885,24202
43896,24211
43905,24221
43911,24233
43915,24246
43916,24262
43916,24926
43915,24942
43911,24955
43905,24967
43896,24977
43885,24986
43873,24992
43860,24996
43844,24998
43279,24998
43263,24996
43250,24992
43238,24986
43228,24977
43219,24967
43213,24955
43209,24942
43207,24926
43207,24262
43209,24246
43213,24233
43219,24221
43228,24211
43238,24202
43250,24196
43263,24192
43279,24190
43844,24190
43860,24192
" /> 
<polyline style="fill-rule:evenodd;"
points="38277,20370
38319,20378
38437,20427
38542,20498
38544,20499
38634,20589
38705,20696
38754,20814
38779,20939
38779,21067
38754,21193
38705,21311
38634,21418
38544,21508
38544,21508
38437,21579
38319,21628
38277,21637
38193,21653
38065,21653
37982,21637
37940,21628
37822,21579
37715,21508
37715,21508
37625,21418
37553,21311
37504,21193
37479,21067
37479,20939
37504,20814
37553,20696
37625,20589
37715,20499
37716,20498
37822,20427
37940,20378
37982,20370
38065,20353
38193,20353
38277,20370
" /> 
<polyline style="fill-rule:evenodd;"
points="46151,20370
46193,20378
46311,20427
46416,20498
46418,20499
46508,20589
46579,20696
46628,20814
46653,20939
46653,21067
46628,21193
46579,21311
46508,21418
46418,21508
46418,21508
46311,21579
46193,21628
46151,21637
46067,21653
45939,21653
45856,21637
45814,21628
45696,21579
45589,21508
45589,21508
45499,21418
45427,21311
45378,21193
45353,21067
45353,20939
45378,20814
45427,20696
45499,20589
45589,20499
45591,20498
45696,20427
45814,20378
45856,20370
45939,20353
46067,20353
46151,20370
" /> 
</g> 
</svg>
