G04 #@! TF.GenerationSoftware,KiCad,Pcbnew,(5.0.2)-1*
G04 #@! TF.CreationDate,2019-10-29T23:39:58+09:00*
G04 #@! TF.ProjectId,High_range_accelerometer,48696768-5f72-4616-9e67-655f61636365,rev?*
G04 #@! TF.SameCoordinates,Original*
G04 #@! TF.FileFunction,Legend,Bot*
G04 #@! TF.FilePolarity,Positive*
%FSLAX46Y46*%
G04 Gerber Fmt 4.6, Leading zero omitted, Abs format (unit mm)*
G04 Created by KiCad (PCBNEW (5.0.2)-1) date 2019/10/29 23:39:58*
%MOMM*%
%LPD*%
G01*
G04 APERTURE LIST*
%ADD10C,0.150000*%
%ADD11C,0.200000*%
%ADD12C,0.120000*%
%ADD13C,0.010000*%
G04 APERTURE END LIST*
D10*
X119511819Y-64285476D02*
X120178485Y-64285476D01*
X119988009Y-64285476D02*
X120083247Y-64237857D01*
X120130866Y-64190238D01*
X120178485Y-64095000D01*
X120178485Y-63999761D01*
X119559438Y-63285476D02*
X119511819Y-63380714D01*
X119511819Y-63571190D01*
X119559438Y-63666428D01*
X119654676Y-63714047D01*
X120035628Y-63714047D01*
X120130866Y-63666428D01*
X120178485Y-63571190D01*
X120178485Y-63380714D01*
X120130866Y-63285476D01*
X120035628Y-63237857D01*
X119940390Y-63237857D01*
X119845152Y-63714047D01*
X120178485Y-62904523D02*
X119511819Y-62666428D01*
X120178485Y-62428333D01*
X119607057Y-62047380D02*
X119559438Y-61999761D01*
X119511819Y-62047380D01*
X119559438Y-62095000D01*
X119607057Y-62047380D01*
X119511819Y-62047380D01*
X119511819Y-60285476D02*
X119511819Y-60856904D01*
X119511819Y-60571190D02*
X120511819Y-60571190D01*
X120368961Y-60666428D01*
X120273723Y-60761666D01*
X120226104Y-60856904D01*
X119607057Y-59856904D02*
X119559438Y-59809285D01*
X119511819Y-59856904D01*
X119559438Y-59904523D01*
X119607057Y-59856904D01*
X119511819Y-59856904D01*
X120511819Y-59475952D02*
X120511819Y-58856904D01*
X120130866Y-59190238D01*
X120130866Y-59047380D01*
X120083247Y-58952142D01*
X120035628Y-58904523D01*
X119940390Y-58856904D01*
X119702295Y-58856904D01*
X119607057Y-58904523D01*
X119559438Y-58952142D01*
X119511819Y-59047380D01*
X119511819Y-59333095D01*
X119559438Y-59428333D01*
X119607057Y-59475952D01*
D11*
X96875600Y-89103200D02*
X102006400Y-89103200D01*
X102006400Y-76327000D02*
X102006400Y-89103200D01*
X96875600Y-76327000D02*
X102006400Y-76327000D01*
D10*
X97218666Y-87295238D02*
X97361523Y-87247619D01*
X97599618Y-87247619D01*
X97694856Y-87295238D01*
X97742476Y-87342857D01*
X97790095Y-87438095D01*
X97790095Y-87533333D01*
X97742476Y-87628571D01*
X97694856Y-87676190D01*
X97599618Y-87723809D01*
X97409142Y-87771428D01*
X97313904Y-87819047D01*
X97266285Y-87866666D01*
X97218666Y-87961904D01*
X97218666Y-88057142D01*
X97266285Y-88152380D01*
X97313904Y-88200000D01*
X97409142Y-88247619D01*
X97647237Y-88247619D01*
X97790095Y-88200000D01*
X98218666Y-87247619D02*
X98218666Y-88247619D01*
X98456761Y-88247619D01*
X98599618Y-88200000D01*
X98694856Y-88104761D01*
X98742476Y-88009523D01*
X98790095Y-87819047D01*
X98790095Y-87676190D01*
X98742476Y-87485714D01*
X98694856Y-87390476D01*
X98599618Y-87295238D01*
X98456761Y-87247619D01*
X98218666Y-87247619D01*
X99171047Y-87533333D02*
X99647237Y-87533333D01*
X99075809Y-87247619D02*
X99409142Y-88247619D01*
X99742476Y-87247619D01*
X99932952Y-88247619D02*
X100504380Y-88247619D01*
X100218666Y-87247619D02*
X100218666Y-88247619D01*
X100790095Y-87533333D02*
X101266285Y-87533333D01*
X100694856Y-87247619D02*
X101028190Y-88247619D01*
X101361523Y-87247619D01*
X97218666Y-84801238D02*
X97361523Y-84753619D01*
X97599619Y-84753619D01*
X97694857Y-84801238D01*
X97742476Y-84848857D01*
X97790095Y-84944095D01*
X97790095Y-85039333D01*
X97742476Y-85134571D01*
X97694857Y-85182190D01*
X97599619Y-85229809D01*
X97409143Y-85277428D01*
X97313904Y-85325047D01*
X97266285Y-85372666D01*
X97218666Y-85467904D01*
X97218666Y-85563142D01*
X97266285Y-85658380D01*
X97313904Y-85706000D01*
X97409143Y-85753619D01*
X97647238Y-85753619D01*
X97790095Y-85706000D01*
X98790095Y-84848857D02*
X98742476Y-84801238D01*
X98599619Y-84753619D01*
X98504381Y-84753619D01*
X98361523Y-84801238D01*
X98266285Y-84896476D01*
X98218666Y-84991714D01*
X98171047Y-85182190D01*
X98171047Y-85325047D01*
X98218666Y-85515523D01*
X98266285Y-85610761D01*
X98361523Y-85706000D01*
X98504381Y-85753619D01*
X98599619Y-85753619D01*
X98742476Y-85706000D01*
X98790095Y-85658380D01*
X99694857Y-84753619D02*
X99218666Y-84753619D01*
X99218666Y-85753619D01*
X100028190Y-84753619D02*
X100028190Y-85753619D01*
X100599619Y-84753619D02*
X100171047Y-85325047D01*
X100599619Y-85753619D02*
X100028190Y-85182190D01*
X97171047Y-83259619D02*
X97837714Y-82259619D01*
X97837714Y-83259619D02*
X97171047Y-82259619D01*
X98790095Y-82259619D02*
X98456762Y-82735809D01*
X98218666Y-82259619D02*
X98218666Y-83259619D01*
X98599619Y-83259619D01*
X98694857Y-83212000D01*
X98742476Y-83164380D01*
X98790095Y-83069142D01*
X98790095Y-82926285D01*
X98742476Y-82831047D01*
X98694857Y-82783428D01*
X98599619Y-82735809D01*
X98218666Y-82735809D01*
X99218666Y-82783428D02*
X99552000Y-82783428D01*
X99694857Y-82259619D02*
X99218666Y-82259619D01*
X99218666Y-83259619D01*
X99694857Y-83259619D01*
X100075809Y-82307238D02*
X100218666Y-82259619D01*
X100456762Y-82259619D01*
X100552000Y-82307238D01*
X100599619Y-82354857D01*
X100647238Y-82450095D01*
X100647238Y-82545333D01*
X100599619Y-82640571D01*
X100552000Y-82688190D01*
X100456762Y-82735809D01*
X100266285Y-82783428D01*
X100171047Y-82831047D01*
X100123428Y-82878666D01*
X100075809Y-82973904D01*
X100075809Y-83069142D01*
X100123428Y-83164380D01*
X100171047Y-83212000D01*
X100266285Y-83259619D01*
X100504381Y-83259619D01*
X100647238Y-83212000D01*
X101028190Y-82307238D02*
X101171047Y-82259619D01*
X101409143Y-82259619D01*
X101504381Y-82307238D01*
X101552000Y-82354857D01*
X101599619Y-82450095D01*
X101599619Y-82545333D01*
X101552000Y-82640571D01*
X101504381Y-82688190D01*
X101409143Y-82735809D01*
X101218666Y-82783428D01*
X101123428Y-82831047D01*
X101075809Y-82878666D01*
X101028190Y-82973904D01*
X101028190Y-83069142D01*
X101075809Y-83164380D01*
X101123428Y-83212000D01*
X101218666Y-83259619D01*
X101456762Y-83259619D01*
X101599619Y-83212000D01*
X97790095Y-80718000D02*
X97694857Y-80765619D01*
X97552000Y-80765619D01*
X97409142Y-80718000D01*
X97313904Y-80622761D01*
X97266285Y-80527523D01*
X97218666Y-80337047D01*
X97218666Y-80194190D01*
X97266285Y-80003714D01*
X97313904Y-79908476D01*
X97409142Y-79813238D01*
X97552000Y-79765619D01*
X97647238Y-79765619D01*
X97790095Y-79813238D01*
X97837714Y-79860857D01*
X97837714Y-80194190D01*
X97647238Y-80194190D01*
X98266285Y-79765619D02*
X98266285Y-80765619D01*
X98837714Y-79765619D01*
X98837714Y-80765619D01*
X99313904Y-79765619D02*
X99313904Y-80765619D01*
X99552000Y-80765619D01*
X99694857Y-80718000D01*
X99790095Y-80622761D01*
X99837714Y-80527523D01*
X99885333Y-80337047D01*
X99885333Y-80194190D01*
X99837714Y-80003714D01*
X99790095Y-79908476D01*
X99694857Y-79813238D01*
X99552000Y-79765619D01*
X99313904Y-79765619D01*
X97123428Y-78271619D02*
X97456762Y-77271619D01*
X97790095Y-78271619D01*
X98456762Y-77795428D02*
X98599619Y-77747809D01*
X98647238Y-77700190D01*
X98694857Y-77604952D01*
X98694857Y-77462095D01*
X98647238Y-77366857D01*
X98599619Y-77319238D01*
X98504381Y-77271619D01*
X98123428Y-77271619D01*
X98123428Y-78271619D01*
X98456762Y-78271619D01*
X98552000Y-78224000D01*
X98599619Y-78176380D01*
X98647238Y-78081142D01*
X98647238Y-77985904D01*
X98599619Y-77890666D01*
X98552000Y-77843047D01*
X98456762Y-77795428D01*
X98123428Y-77795428D01*
X99123428Y-78271619D02*
X99123428Y-77462095D01*
X99171047Y-77366857D01*
X99218666Y-77319238D01*
X99313904Y-77271619D01*
X99504381Y-77271619D01*
X99599619Y-77319238D01*
X99647238Y-77366857D01*
X99694857Y-77462095D01*
X99694857Y-78271619D01*
X100123428Y-77319238D02*
X100266285Y-77271619D01*
X100504381Y-77271619D01*
X100599619Y-77319238D01*
X100647238Y-77366857D01*
X100694857Y-77462095D01*
X100694857Y-77557333D01*
X100647238Y-77652571D01*
X100599619Y-77700190D01*
X100504381Y-77747809D01*
X100313904Y-77795428D01*
X100218666Y-77843047D01*
X100171047Y-77890666D01*
X100123428Y-77985904D01*
X100123428Y-78081142D01*
X100171047Y-78176380D01*
X100218666Y-78224000D01*
X100313904Y-78271619D01*
X100552000Y-78271619D01*
X100694857Y-78224000D01*
X113104609Y-71511609D02*
X113152228Y-71559228D01*
X113199847Y-71654466D01*
X113199847Y-71749704D01*
X113152228Y-71844942D01*
X113104609Y-71892561D01*
X113009371Y-71940180D01*
X112914133Y-71940180D01*
X112818895Y-71892561D01*
X112771276Y-71844942D01*
X112723657Y-71749704D01*
X112723657Y-71654466D01*
X112771276Y-71559228D01*
X112818895Y-71511609D01*
X113199847Y-71511609D02*
X112818895Y-71511609D01*
X112771276Y-71463990D01*
X112771276Y-71416371D01*
X112818895Y-71321133D01*
X112914133Y-71273514D01*
X113152228Y-71273514D01*
X113295085Y-71368752D01*
X113390323Y-71511609D01*
X113437942Y-71702085D01*
X113390323Y-71892561D01*
X113295085Y-72035419D01*
X113152228Y-72130657D01*
X112961752Y-72178276D01*
X112771276Y-72130657D01*
X112628419Y-72035419D01*
X112533180Y-71892561D01*
X112485561Y-71702085D01*
X112533180Y-71511609D01*
X112628419Y-71368752D01*
X112628419Y-70844942D02*
X113628419Y-70844942D01*
X112914133Y-70511609D01*
X113628419Y-70178276D01*
X112628419Y-70178276D01*
X112628419Y-69273514D02*
X113152228Y-69273514D01*
X113247466Y-69321133D01*
X113295085Y-69416371D01*
X113295085Y-69606847D01*
X113247466Y-69702085D01*
X112676038Y-69273514D02*
X112628419Y-69368752D01*
X112628419Y-69606847D01*
X112676038Y-69702085D01*
X112771276Y-69749704D01*
X112866514Y-69749704D01*
X112961752Y-69702085D01*
X113009371Y-69606847D01*
X113009371Y-69368752D01*
X113056990Y-69273514D01*
X112628419Y-68654466D02*
X112676038Y-68749704D01*
X112771276Y-68797323D01*
X113628419Y-68797323D01*
X113295085Y-67844942D02*
X112628419Y-67844942D01*
X113295085Y-68273514D02*
X112771276Y-68273514D01*
X112676038Y-68225895D01*
X112628419Y-68130657D01*
X112628419Y-67987800D01*
X112676038Y-67892561D01*
X112723657Y-67844942D01*
X112676038Y-67416371D02*
X112628419Y-67321133D01*
X112628419Y-67130657D01*
X112676038Y-67035419D01*
X112771276Y-66987800D01*
X112818895Y-66987800D01*
X112914133Y-67035419D01*
X112961752Y-67130657D01*
X112961752Y-67273514D01*
X113009371Y-67368752D01*
X113104609Y-67416371D01*
X113152228Y-67416371D01*
X113247466Y-67368752D01*
X113295085Y-67273514D01*
X113295085Y-67130657D01*
X113247466Y-67035419D01*
X112533180Y-66797323D02*
X112533180Y-66035419D01*
X112628419Y-65797323D02*
X113628419Y-65797323D01*
X112914133Y-65463990D01*
X113628419Y-65130657D01*
X112628419Y-65130657D01*
X112628419Y-64654466D02*
X113295085Y-64654466D01*
X113628419Y-64654466D02*
X113580800Y-64702085D01*
X113533180Y-64654466D01*
X113580800Y-64606847D01*
X113628419Y-64654466D01*
X113533180Y-64654466D01*
X112628419Y-64035419D02*
X112676038Y-64130657D01*
X112771276Y-64178276D01*
X113628419Y-64178276D01*
X112628419Y-63511609D02*
X112676038Y-63606847D01*
X112771276Y-63654466D01*
X113628419Y-63654466D01*
X112533180Y-63368752D02*
X112533180Y-62606847D01*
X119511819Y-79953804D02*
X120511819Y-79953804D01*
X120511819Y-79715709D01*
X120464200Y-79572852D01*
X120368961Y-79477614D01*
X120273723Y-79429995D01*
X120083247Y-79382376D01*
X119940390Y-79382376D01*
X119749914Y-79429995D01*
X119654676Y-79477614D01*
X119559438Y-79572852D01*
X119511819Y-79715709D01*
X119511819Y-79953804D01*
X119559438Y-78572852D02*
X119511819Y-78668090D01*
X119511819Y-78858566D01*
X119559438Y-78953804D01*
X119654676Y-79001423D01*
X120035628Y-79001423D01*
X120130866Y-78953804D01*
X120178485Y-78858566D01*
X120178485Y-78668090D01*
X120130866Y-78572852D01*
X120035628Y-78525233D01*
X119940390Y-78525233D01*
X119845152Y-79001423D01*
X119559438Y-78144280D02*
X119511819Y-78049042D01*
X119511819Y-77858566D01*
X119559438Y-77763328D01*
X119654676Y-77715709D01*
X119702295Y-77715709D01*
X119797533Y-77763328D01*
X119845152Y-77858566D01*
X119845152Y-78001423D01*
X119892771Y-78096661D01*
X119988009Y-78144280D01*
X120035628Y-78144280D01*
X120130866Y-78096661D01*
X120178485Y-78001423D01*
X120178485Y-77858566D01*
X120130866Y-77763328D01*
X119511819Y-77287138D02*
X120178485Y-77287138D01*
X120511819Y-77287138D02*
X120464200Y-77334757D01*
X120416580Y-77287138D01*
X120464200Y-77239519D01*
X120511819Y-77287138D01*
X120416580Y-77287138D01*
X120178485Y-76382376D02*
X119368961Y-76382376D01*
X119273723Y-76429995D01*
X119226104Y-76477614D01*
X119178485Y-76572852D01*
X119178485Y-76715709D01*
X119226104Y-76810947D01*
X119559438Y-76382376D02*
X119511819Y-76477614D01*
X119511819Y-76668090D01*
X119559438Y-76763328D01*
X119607057Y-76810947D01*
X119702295Y-76858566D01*
X119988009Y-76858566D01*
X120083247Y-76810947D01*
X120130866Y-76763328D01*
X120178485Y-76668090D01*
X120178485Y-76477614D01*
X120130866Y-76382376D01*
X120178485Y-75906185D02*
X119511819Y-75906185D01*
X120083247Y-75906185D02*
X120130866Y-75858566D01*
X120178485Y-75763328D01*
X120178485Y-75620471D01*
X120130866Y-75525233D01*
X120035628Y-75477614D01*
X119511819Y-75477614D01*
X119559438Y-74620471D02*
X119511819Y-74715709D01*
X119511819Y-74906185D01*
X119559438Y-75001423D01*
X119654676Y-75049042D01*
X120035628Y-75049042D01*
X120130866Y-75001423D01*
X120178485Y-74906185D01*
X120178485Y-74715709D01*
X120130866Y-74620471D01*
X120035628Y-74572852D01*
X119940390Y-74572852D01*
X119845152Y-75049042D01*
X119511819Y-73715709D02*
X120511819Y-73715709D01*
X119559438Y-73715709D02*
X119511819Y-73810947D01*
X119511819Y-74001423D01*
X119559438Y-74096661D01*
X119607057Y-74144280D01*
X119702295Y-74191900D01*
X119988009Y-74191900D01*
X120083247Y-74144280D01*
X120130866Y-74096661D01*
X120178485Y-74001423D01*
X120178485Y-73810947D01*
X120130866Y-73715709D01*
X119511819Y-72477614D02*
X120511819Y-72477614D01*
X120130866Y-72477614D02*
X120178485Y-72382376D01*
X120178485Y-72191900D01*
X120130866Y-72096661D01*
X120083247Y-72049042D01*
X119988009Y-72001423D01*
X119702295Y-72001423D01*
X119607057Y-72049042D01*
X119559438Y-72096661D01*
X119511819Y-72191900D01*
X119511819Y-72382376D01*
X119559438Y-72477614D01*
X120178485Y-71668090D02*
X119511819Y-71429995D01*
X120178485Y-71191900D02*
X119511819Y-71429995D01*
X119273723Y-71525233D01*
X119226104Y-71572852D01*
X119178485Y-71668090D01*
X119511819Y-70049042D02*
X120178485Y-70049042D01*
X119988009Y-70049042D02*
X120083247Y-70001423D01*
X120130866Y-69953804D01*
X120178485Y-69858566D01*
X120178485Y-69763328D01*
X119511819Y-69429995D02*
X120178485Y-69429995D01*
X120511819Y-69429995D02*
X120464200Y-69477614D01*
X120416580Y-69429995D01*
X120464200Y-69382376D01*
X120511819Y-69429995D01*
X120416580Y-69429995D01*
X120178485Y-68953804D02*
X119511819Y-68953804D01*
X120083247Y-68953804D02*
X120130866Y-68906185D01*
X120178485Y-68810947D01*
X120178485Y-68668090D01*
X120130866Y-68572852D01*
X120035628Y-68525233D01*
X119511819Y-68525233D01*
X120178485Y-67620471D02*
X119368961Y-67620471D01*
X119273723Y-67668090D01*
X119226104Y-67715709D01*
X119178485Y-67810947D01*
X119178485Y-67953804D01*
X119226104Y-68049042D01*
X119559438Y-67620471D02*
X119511819Y-67715709D01*
X119511819Y-67906185D01*
X119559438Y-68001423D01*
X119607057Y-68049042D01*
X119702295Y-68096661D01*
X119988009Y-68096661D01*
X120083247Y-68049042D01*
X120130866Y-68001423D01*
X120178485Y-67906185D01*
X120178485Y-67715709D01*
X120130866Y-67620471D01*
X119511819Y-67001423D02*
X119559438Y-67096661D01*
X119607057Y-67144280D01*
X119702295Y-67191900D01*
X119988009Y-67191900D01*
X120083247Y-67144280D01*
X120130866Y-67096661D01*
X120178485Y-67001423D01*
X120178485Y-66858566D01*
X120130866Y-66763328D01*
X120083247Y-66715709D01*
X119988009Y-66668090D01*
X119702295Y-66668090D01*
X119607057Y-66715709D01*
X119559438Y-66763328D01*
X119511819Y-66858566D01*
X119511819Y-67001423D01*
D11*
X101700000Y-56200000D02*
X101700000Y-60400000D01*
X112000000Y-56200000D02*
X112000000Y-60400000D01*
X101700000Y-56200000D02*
X112000000Y-56200000D01*
D10*
X102742857Y-59847619D02*
X102695238Y-59895238D01*
X102647619Y-60038095D01*
X102647619Y-60133333D01*
X102695238Y-60276190D01*
X102790476Y-60371428D01*
X102885714Y-60419047D01*
X103076190Y-60466666D01*
X103219047Y-60466666D01*
X103409523Y-60419047D01*
X103504761Y-60371428D01*
X103600000Y-60276190D01*
X103647619Y-60133333D01*
X103647619Y-60038095D01*
X103600000Y-59895238D01*
X103552380Y-59847619D01*
X102933333Y-59466666D02*
X102933333Y-58990476D01*
X102647619Y-59561904D02*
X103647619Y-59228571D01*
X102647619Y-58895238D01*
X102647619Y-58561904D02*
X103647619Y-58561904D01*
X102647619Y-57990476D01*
X103647619Y-57990476D01*
X102647619Y-57038095D02*
X102647619Y-57514285D01*
X103647619Y-57514285D01*
X105276190Y-59847618D02*
X105228571Y-59895237D01*
X105180952Y-60038094D01*
X105180952Y-60133332D01*
X105228571Y-60276190D01*
X105323809Y-60371428D01*
X105419047Y-60419047D01*
X105609523Y-60466666D01*
X105752380Y-60466666D01*
X105942856Y-60419047D01*
X106038094Y-60371428D01*
X106133333Y-60276190D01*
X106180952Y-60133332D01*
X106180952Y-60038094D01*
X106133333Y-59895237D01*
X106085713Y-59847618D01*
X105466666Y-59466666D02*
X105466666Y-58990475D01*
X105180952Y-59561904D02*
X106180952Y-59228571D01*
X105180952Y-58895237D01*
X105180952Y-58561904D02*
X106180952Y-58561904D01*
X105180952Y-57990475D01*
X106180952Y-57990475D01*
X105180952Y-57514285D02*
X106180952Y-57514285D01*
X105704761Y-57514285D02*
X105704761Y-56942856D01*
X105180952Y-56942856D02*
X106180952Y-56942856D01*
X111200000Y-59895237D02*
X111247619Y-59990475D01*
X111247619Y-60133333D01*
X111200000Y-60276190D01*
X111104761Y-60371428D01*
X111009523Y-60419047D01*
X110819047Y-60466666D01*
X110676190Y-60466666D01*
X110485714Y-60419047D01*
X110390476Y-60371428D01*
X110295238Y-60276190D01*
X110247619Y-60133333D01*
X110247619Y-60038094D01*
X110295238Y-59895237D01*
X110342857Y-59847618D01*
X110676190Y-59847618D01*
X110676190Y-60038094D01*
X110247619Y-59419047D02*
X111247619Y-59419047D01*
X110247619Y-58847618D01*
X111247619Y-58847618D01*
X110247619Y-58371428D02*
X111247619Y-58371428D01*
X111247619Y-58133333D01*
X111200000Y-57990475D01*
X111104761Y-57895237D01*
X111009523Y-57847618D01*
X110819047Y-57799999D01*
X110676190Y-57799999D01*
X110485714Y-57847618D01*
X110390476Y-57895237D01*
X110295238Y-57990475D01*
X110247619Y-58133333D01*
X110247619Y-58371428D01*
X108714285Y-60561904D02*
X107714285Y-60228571D01*
X108714285Y-59895237D01*
X107714285Y-59561904D02*
X108714285Y-59561904D01*
X108714285Y-59323809D01*
X108666666Y-59180951D01*
X108571427Y-59085713D01*
X108476189Y-59038094D01*
X108285713Y-58990475D01*
X108142856Y-58990475D01*
X107952380Y-59038094D01*
X107857142Y-59085713D01*
X107761904Y-59180951D01*
X107714285Y-59323809D01*
X107714285Y-59561904D01*
X107714285Y-58561904D02*
X108714285Y-58561904D01*
X108714285Y-58323809D01*
X108666666Y-58180951D01*
X108571427Y-58085713D01*
X108476189Y-58038094D01*
X108285713Y-57990475D01*
X108142856Y-57990475D01*
X107952380Y-58038094D01*
X107857142Y-58085713D01*
X107761904Y-58180951D01*
X107714285Y-58323809D01*
X107714285Y-58561904D01*
D12*
G04 #@! TO.C,J2*
X118900400Y-105062200D02*
X118550400Y-104552200D01*
X118700400Y-107572200D02*
X118700400Y-107832200D01*
X118900400Y-107372200D02*
X118700400Y-107572200D01*
X118900400Y-97972200D02*
X118700400Y-98182200D01*
X118550400Y-98182200D02*
X118700400Y-98182200D01*
X118550400Y-98182200D02*
X118550400Y-104552200D01*
X113940400Y-95082200D02*
X115740400Y-95082200D01*
X107940400Y-95082200D02*
X112640400Y-95082200D01*
X118900400Y-96112200D02*
X118700400Y-95912200D01*
X118900400Y-96112200D02*
X118900400Y-97972200D01*
X118900400Y-107372200D02*
X118900400Y-105062200D01*
X102630400Y-95082200D02*
X106240400Y-95082200D01*
X102630400Y-95532200D02*
X102630400Y-95082200D01*
X102630400Y-109052200D02*
X116640400Y-109052200D01*
X102630400Y-107132200D02*
X102630400Y-109052200D01*
D13*
G04 #@! TO.C,G\002A\002A\002A*
G36*
X114228033Y-69350466D02*
X114223800Y-69354700D01*
X114228033Y-69358933D01*
X114232267Y-69354700D01*
X114228033Y-69350466D01*
X114228033Y-69350466D01*
G37*
X114228033Y-69350466D02*
X114223800Y-69354700D01*
X114228033Y-69358933D01*
X114232267Y-69354700D01*
X114228033Y-69350466D01*
G36*
X117336441Y-66217927D02*
X117307472Y-66101513D01*
X117263429Y-65990159D01*
X117204892Y-65885576D01*
X117132441Y-65789473D01*
X117111972Y-65766704D01*
X117074289Y-65726241D01*
X117088938Y-65658070D01*
X117108857Y-65580615D01*
X117136587Y-65494796D01*
X117170150Y-65406071D01*
X117207569Y-65319893D01*
X117223614Y-65286467D01*
X117242788Y-65247713D01*
X117259228Y-65214408D01*
X117271486Y-65189489D01*
X117278118Y-65175889D01*
X117278808Y-65174427D01*
X117274095Y-65172633D01*
X117257418Y-65177017D01*
X117232048Y-65186376D01*
X117201262Y-65199506D01*
X117169597Y-65214568D01*
X117068390Y-65274386D01*
X116975179Y-65347651D01*
X116892904Y-65431903D01*
X116859583Y-65473616D01*
X116836810Y-65503452D01*
X116817832Y-65527077D01*
X116804799Y-65541892D01*
X116799965Y-65545587D01*
X116799447Y-65535352D01*
X116802399Y-65511008D01*
X116808411Y-65474929D01*
X116817075Y-65429489D01*
X116827981Y-65377061D01*
X116832831Y-65354881D01*
X116856846Y-65262369D01*
X116888727Y-65163890D01*
X116915314Y-65093281D01*
X116933334Y-65048263D01*
X116846530Y-65114448D01*
X116788072Y-65162029D01*
X116725151Y-65218420D01*
X116661933Y-65279528D01*
X116602587Y-65341257D01*
X116551278Y-65399517D01*
X116531915Y-65423520D01*
X116482063Y-65487529D01*
X116294848Y-65492082D01*
X116134962Y-65500406D01*
X115981939Y-65517905D01*
X115831664Y-65545386D01*
X115680026Y-65583658D01*
X115522909Y-65633528D01*
X115459933Y-65656048D01*
X115364657Y-65694769D01*
X115261185Y-65743338D01*
X115153277Y-65799610D01*
X115044692Y-65861441D01*
X114939189Y-65926685D01*
X114840528Y-65993199D01*
X114752467Y-66058838D01*
X114748733Y-66061801D01*
X114709396Y-66095011D01*
X114661948Y-66138079D01*
X114609346Y-66188047D01*
X114554549Y-66241959D01*
X114500513Y-66296856D01*
X114450197Y-66349782D01*
X114406559Y-66397779D01*
X114372556Y-66437891D01*
X114372522Y-66437933D01*
X114255429Y-66597504D01*
X114151892Y-66766739D01*
X114062378Y-66944559D01*
X113987355Y-67129882D01*
X113927292Y-67321629D01*
X113882658Y-67518717D01*
X113869040Y-67600052D01*
X113857122Y-67693966D01*
X113847865Y-67797119D01*
X113841638Y-67903155D01*
X113838811Y-68005720D01*
X113839754Y-68098460D01*
X113839867Y-68101633D01*
X113855780Y-68306875D01*
X113888349Y-68509585D01*
X113937397Y-68709074D01*
X114002747Y-68904653D01*
X114084222Y-69095633D01*
X114107317Y-69143033D01*
X114125706Y-69178937D01*
X114146050Y-69217218D01*
X114166703Y-69254952D01*
X114186020Y-69289218D01*
X114202354Y-69317094D01*
X114214058Y-69335655D01*
X114219388Y-69342000D01*
X114220048Y-69333970D01*
X114220611Y-69311624D01*
X114221045Y-69277580D01*
X114221316Y-69234457D01*
X114221391Y-69184871D01*
X114221390Y-69183250D01*
X114221943Y-69126059D01*
X114223553Y-69068159D01*
X114226016Y-69014266D01*
X114229127Y-68969097D01*
X114231727Y-68944067D01*
X114262728Y-68770634D01*
X114309896Y-68602033D01*
X114373014Y-68438819D01*
X114451863Y-68281551D01*
X114546226Y-68130787D01*
X114554000Y-68119647D01*
X114600566Y-68053414D01*
X114610822Y-68135349D01*
X114632991Y-68256957D01*
X114668213Y-68368601D01*
X114717309Y-68472027D01*
X114781102Y-68568982D01*
X114856208Y-68656835D01*
X114924753Y-68720538D01*
X115002297Y-68778806D01*
X115084048Y-68828469D01*
X115165217Y-68866359D01*
X115182926Y-68872944D01*
X115215848Y-68884560D01*
X115209506Y-68848696D01*
X115205191Y-68809191D01*
X115203465Y-68758373D01*
X115204157Y-68701638D01*
X115207094Y-68644381D01*
X115212104Y-68591995D01*
X115219015Y-68549875D01*
X115219052Y-68549708D01*
X115233838Y-68483249D01*
X115260541Y-68567608D01*
X115294283Y-68661221D01*
X115333340Y-68742902D01*
X115380554Y-68817471D01*
X115438763Y-68889746D01*
X115470704Y-68924271D01*
X115561879Y-69007509D01*
X115661365Y-69076076D01*
X115768662Y-69129706D01*
X115883272Y-69168133D01*
X115958842Y-69184388D01*
X115998537Y-69190528D01*
X116036379Y-69195241D01*
X116066242Y-69197804D01*
X116074814Y-69198066D01*
X116110977Y-69198066D01*
X116086417Y-69145150D01*
X116061736Y-69083654D01*
X116039418Y-69012546D01*
X116021516Y-68939144D01*
X116010576Y-68874804D01*
X116006283Y-68835437D01*
X116005472Y-68811462D01*
X116008390Y-68801646D01*
X116015281Y-68804761D01*
X116022701Y-68814118D01*
X116088251Y-68895634D01*
X116165820Y-68971709D01*
X116250512Y-69037665D01*
X116270286Y-69050783D01*
X116369703Y-69104960D01*
X116477709Y-69146277D01*
X116591097Y-69174024D01*
X116706660Y-69187490D01*
X116821191Y-69185965D01*
X116860974Y-69181687D01*
X116909530Y-69172952D01*
X116965819Y-69159296D01*
X117024551Y-69142321D01*
X117080434Y-69123627D01*
X117128179Y-69104819D01*
X117151626Y-69093670D01*
X117188086Y-69074470D01*
X117092049Y-68988800D01*
X117031822Y-68932341D01*
X116966877Y-68866747D01*
X116901872Y-68796987D01*
X116841463Y-68728026D01*
X116800043Y-68677366D01*
X116680780Y-68512053D01*
X116575311Y-68337509D01*
X116484141Y-68154994D01*
X116407774Y-67965771D01*
X116346714Y-67771102D01*
X116301466Y-67572248D01*
X116272536Y-67370471D01*
X116270976Y-67354605D01*
X116267634Y-67314424D01*
X116265715Y-67280550D01*
X116265350Y-67256435D01*
X116266673Y-67245528D01*
X116266787Y-67245390D01*
X116277364Y-67243876D01*
X116299840Y-67245232D01*
X116329479Y-67249160D01*
X116331368Y-67249468D01*
X116448138Y-67260419D01*
X116563918Y-67255218D01*
X116677228Y-67234640D01*
X116786587Y-67199460D01*
X116890515Y-67150453D01*
X116987532Y-67088393D01*
X117076158Y-67014056D01*
X117154911Y-66928215D01*
X117222313Y-66831646D01*
X117259136Y-66763900D01*
X117294457Y-66684823D01*
X117319675Y-66611482D01*
X117336601Y-66537583D01*
X117346837Y-66459100D01*
X117349756Y-66337693D01*
X117336441Y-66217927D01*
X117336441Y-66217927D01*
G37*
X117336441Y-66217927D02*
X117307472Y-66101513D01*
X117263429Y-65990159D01*
X117204892Y-65885576D01*
X117132441Y-65789473D01*
X117111972Y-65766704D01*
X117074289Y-65726241D01*
X117088938Y-65658070D01*
X117108857Y-65580615D01*
X117136587Y-65494796D01*
X117170150Y-65406071D01*
X117207569Y-65319893D01*
X117223614Y-65286467D01*
X117242788Y-65247713D01*
X117259228Y-65214408D01*
X117271486Y-65189489D01*
X117278118Y-65175889D01*
X117278808Y-65174427D01*
X117274095Y-65172633D01*
X117257418Y-65177017D01*
X117232048Y-65186376D01*
X117201262Y-65199506D01*
X117169597Y-65214568D01*
X117068390Y-65274386D01*
X116975179Y-65347651D01*
X116892904Y-65431903D01*
X116859583Y-65473616D01*
X116836810Y-65503452D01*
X116817832Y-65527077D01*
X116804799Y-65541892D01*
X116799965Y-65545587D01*
X116799447Y-65535352D01*
X116802399Y-65511008D01*
X116808411Y-65474929D01*
X116817075Y-65429489D01*
X116827981Y-65377061D01*
X116832831Y-65354881D01*
X116856846Y-65262369D01*
X116888727Y-65163890D01*
X116915314Y-65093281D01*
X116933334Y-65048263D01*
X116846530Y-65114448D01*
X116788072Y-65162029D01*
X116725151Y-65218420D01*
X116661933Y-65279528D01*
X116602587Y-65341257D01*
X116551278Y-65399517D01*
X116531915Y-65423520D01*
X116482063Y-65487529D01*
X116294848Y-65492082D01*
X116134962Y-65500406D01*
X115981939Y-65517905D01*
X115831664Y-65545386D01*
X115680026Y-65583658D01*
X115522909Y-65633528D01*
X115459933Y-65656048D01*
X115364657Y-65694769D01*
X115261185Y-65743338D01*
X115153277Y-65799610D01*
X115044692Y-65861441D01*
X114939189Y-65926685D01*
X114840528Y-65993199D01*
X114752467Y-66058838D01*
X114748733Y-66061801D01*
X114709396Y-66095011D01*
X114661948Y-66138079D01*
X114609346Y-66188047D01*
X114554549Y-66241959D01*
X114500513Y-66296856D01*
X114450197Y-66349782D01*
X114406559Y-66397779D01*
X114372556Y-66437891D01*
X114372522Y-66437933D01*
X114255429Y-66597504D01*
X114151892Y-66766739D01*
X114062378Y-66944559D01*
X113987355Y-67129882D01*
X113927292Y-67321629D01*
X113882658Y-67518717D01*
X113869040Y-67600052D01*
X113857122Y-67693966D01*
X113847865Y-67797119D01*
X113841638Y-67903155D01*
X113838811Y-68005720D01*
X113839754Y-68098460D01*
X113839867Y-68101633D01*
X113855780Y-68306875D01*
X113888349Y-68509585D01*
X113937397Y-68709074D01*
X114002747Y-68904653D01*
X114084222Y-69095633D01*
X114107317Y-69143033D01*
X114125706Y-69178937D01*
X114146050Y-69217218D01*
X114166703Y-69254952D01*
X114186020Y-69289218D01*
X114202354Y-69317094D01*
X114214058Y-69335655D01*
X114219388Y-69342000D01*
X114220048Y-69333970D01*
X114220611Y-69311624D01*
X114221045Y-69277580D01*
X114221316Y-69234457D01*
X114221391Y-69184871D01*
X114221390Y-69183250D01*
X114221943Y-69126059D01*
X114223553Y-69068159D01*
X114226016Y-69014266D01*
X114229127Y-68969097D01*
X114231727Y-68944067D01*
X114262728Y-68770634D01*
X114309896Y-68602033D01*
X114373014Y-68438819D01*
X114451863Y-68281551D01*
X114546226Y-68130787D01*
X114554000Y-68119647D01*
X114600566Y-68053414D01*
X114610822Y-68135349D01*
X114632991Y-68256957D01*
X114668213Y-68368601D01*
X114717309Y-68472027D01*
X114781102Y-68568982D01*
X114856208Y-68656835D01*
X114924753Y-68720538D01*
X115002297Y-68778806D01*
X115084048Y-68828469D01*
X115165217Y-68866359D01*
X115182926Y-68872944D01*
X115215848Y-68884560D01*
X115209506Y-68848696D01*
X115205191Y-68809191D01*
X115203465Y-68758373D01*
X115204157Y-68701638D01*
X115207094Y-68644381D01*
X115212104Y-68591995D01*
X115219015Y-68549875D01*
X115219052Y-68549708D01*
X115233838Y-68483249D01*
X115260541Y-68567608D01*
X115294283Y-68661221D01*
X115333340Y-68742902D01*
X115380554Y-68817471D01*
X115438763Y-68889746D01*
X115470704Y-68924271D01*
X115561879Y-69007509D01*
X115661365Y-69076076D01*
X115768662Y-69129706D01*
X115883272Y-69168133D01*
X115958842Y-69184388D01*
X115998537Y-69190528D01*
X116036379Y-69195241D01*
X116066242Y-69197804D01*
X116074814Y-69198066D01*
X116110977Y-69198066D01*
X116086417Y-69145150D01*
X116061736Y-69083654D01*
X116039418Y-69012546D01*
X116021516Y-68939144D01*
X116010576Y-68874804D01*
X116006283Y-68835437D01*
X116005472Y-68811462D01*
X116008390Y-68801646D01*
X116015281Y-68804761D01*
X116022701Y-68814118D01*
X116088251Y-68895634D01*
X116165820Y-68971709D01*
X116250512Y-69037665D01*
X116270286Y-69050783D01*
X116369703Y-69104960D01*
X116477709Y-69146277D01*
X116591097Y-69174024D01*
X116706660Y-69187490D01*
X116821191Y-69185965D01*
X116860974Y-69181687D01*
X116909530Y-69172952D01*
X116965819Y-69159296D01*
X117024551Y-69142321D01*
X117080434Y-69123627D01*
X117128179Y-69104819D01*
X117151626Y-69093670D01*
X117188086Y-69074470D01*
X117092049Y-68988800D01*
X117031822Y-68932341D01*
X116966877Y-68866747D01*
X116901872Y-68796987D01*
X116841463Y-68728026D01*
X116800043Y-68677366D01*
X116680780Y-68512053D01*
X116575311Y-68337509D01*
X116484141Y-68154994D01*
X116407774Y-67965771D01*
X116346714Y-67771102D01*
X116301466Y-67572248D01*
X116272536Y-67370471D01*
X116270976Y-67354605D01*
X116267634Y-67314424D01*
X116265715Y-67280550D01*
X116265350Y-67256435D01*
X116266673Y-67245528D01*
X116266787Y-67245390D01*
X116277364Y-67243876D01*
X116299840Y-67245232D01*
X116329479Y-67249160D01*
X116331368Y-67249468D01*
X116448138Y-67260419D01*
X116563918Y-67255218D01*
X116677228Y-67234640D01*
X116786587Y-67199460D01*
X116890515Y-67150453D01*
X116987532Y-67088393D01*
X117076158Y-67014056D01*
X117154911Y-66928215D01*
X117222313Y-66831646D01*
X117259136Y-66763900D01*
X117294457Y-66684823D01*
X117319675Y-66611482D01*
X117336601Y-66537583D01*
X117346837Y-66459100D01*
X117349756Y-66337693D01*
X117336441Y-66217927D01*
G04 #@! TO.C,REF\002A\002A*
G36*
X98452029Y-66890643D02*
X98427791Y-66794368D01*
X98384959Y-66707784D01*
X98325181Y-66632973D01*
X98250106Y-66572018D01*
X98161380Y-66526999D01*
X98065070Y-66500736D01*
X97967805Y-66494886D01*
X97873946Y-66509740D01*
X97786089Y-66543440D01*
X97706830Y-66594128D01*
X97638764Y-66659945D01*
X97584488Y-66739034D01*
X97546598Y-66829534D01*
X97534174Y-66880800D01*
X97526653Y-66925298D01*
X97523681Y-66959599D01*
X97525506Y-66992560D01*
X97532375Y-67033034D01*
X97539350Y-67066131D01*
X97570859Y-67159547D01*
X97621983Y-67243219D01*
X97691171Y-67315265D01*
X97776872Y-67373800D01*
X97804111Y-67387748D01*
X97840478Y-67404186D01*
X97871018Y-67414494D01*
X97903150Y-67420060D01*
X97944293Y-67422269D01*
X97990378Y-67422548D01*
X98074735Y-67418461D01*
X98144014Y-67405046D01*
X98204639Y-67379856D01*
X98263033Y-67340446D01*
X98307298Y-67301898D01*
X98373116Y-67230006D01*
X98418547Y-67154913D01*
X98445750Y-67072162D01*
X98456024Y-66994528D01*
X98452029Y-66890643D01*
X98452029Y-66890643D01*
G37*
X98452029Y-66890643D02*
X98427791Y-66794368D01*
X98384959Y-66707784D01*
X98325181Y-66632973D01*
X98250106Y-66572018D01*
X98161380Y-66526999D01*
X98065070Y-66500736D01*
X97967805Y-66494886D01*
X97873946Y-66509740D01*
X97786089Y-66543440D01*
X97706830Y-66594128D01*
X97638764Y-66659945D01*
X97584488Y-66739034D01*
X97546598Y-66829534D01*
X97534174Y-66880800D01*
X97526653Y-66925298D01*
X97523681Y-66959599D01*
X97525506Y-66992560D01*
X97532375Y-67033034D01*
X97539350Y-67066131D01*
X97570859Y-67159547D01*
X97621983Y-67243219D01*
X97691171Y-67315265D01*
X97776872Y-67373800D01*
X97804111Y-67387748D01*
X97840478Y-67404186D01*
X97871018Y-67414494D01*
X97903150Y-67420060D01*
X97944293Y-67422269D01*
X97990378Y-67422548D01*
X98074735Y-67418461D01*
X98144014Y-67405046D01*
X98204639Y-67379856D01*
X98263033Y-67340446D01*
X98307298Y-67301898D01*
X98373116Y-67230006D01*
X98418547Y-67154913D01*
X98445750Y-67072162D01*
X98456024Y-66994528D01*
X98452029Y-66890643D01*
G36*
X96006355Y-58431093D02*
X95771938Y-58431074D01*
X95558997Y-58431048D01*
X95366432Y-58430975D01*
X95193141Y-58430818D01*
X95038024Y-58430536D01*
X94899980Y-58430091D01*
X94777908Y-58429444D01*
X94670706Y-58428555D01*
X94577274Y-58427387D01*
X94496510Y-58425899D01*
X94427314Y-58424054D01*
X94368585Y-58421811D01*
X94319221Y-58419131D01*
X94278122Y-58415977D01*
X94244187Y-58412308D01*
X94216314Y-58408087D01*
X94193402Y-58403273D01*
X94174351Y-58397827D01*
X94158060Y-58391712D01*
X94143427Y-58384888D01*
X94129351Y-58377315D01*
X94114732Y-58368955D01*
X94105626Y-58363761D01*
X94044911Y-58329496D01*
X94044911Y-59187645D01*
X94140867Y-59187645D01*
X94184230Y-59188376D01*
X94217395Y-59190328D01*
X94235176Y-59193137D01*
X94236822Y-59194379D01*
X94229938Y-59205801D01*
X94212095Y-59228516D01*
X94192721Y-59251215D01*
X94151986Y-59305800D01*
X94110983Y-59375279D01*
X94073477Y-59452330D01*
X94043236Y-59529635D01*
X94033588Y-59560487D01*
X94019022Y-59628984D01*
X94009061Y-59711836D01*
X94004017Y-59801229D01*
X94004204Y-59889352D01*
X94009934Y-59968393D01*
X94015742Y-60006089D01*
X94053803Y-60144186D01*
X94111527Y-60271487D01*
X94188389Y-60387308D01*
X94283861Y-60490963D01*
X94397421Y-60581767D01*
X94508219Y-60648569D01*
X94624975Y-60703436D01*
X94744324Y-60745437D01*
X94870317Y-60775433D01*
X95007006Y-60794289D01*
X95158442Y-60802868D01*
X95235889Y-60803594D01*
X95292666Y-60801500D01*
X95292666Y-59972383D01*
X95199598Y-59972176D01*
X95111908Y-59969263D01*
X95034828Y-59963600D01*
X94973591Y-59955145D01*
X94961250Y-59952562D01*
X94853967Y-59920760D01*
X94766942Y-59879102D01*
X94699958Y-59827237D01*
X94652795Y-59764819D01*
X94625235Y-59691500D01*
X94617059Y-59606931D01*
X94628049Y-59510765D01*
X94643771Y-59447289D01*
X94661961Y-59398146D01*
X94687809Y-59344017D01*
X94711511Y-59303356D01*
X94757879Y-59232800D01*
X95908070Y-59232800D01*
X95951638Y-59300208D01*
X95992560Y-59378733D01*
X96019211Y-59462919D01*
X96031135Y-59548043D01*
X96027878Y-59629384D01*
X96008985Y-59702220D01*
X95993416Y-59734174D01*
X95950419Y-59792099D01*
X95893647Y-59841056D01*
X95821025Y-59882210D01*
X95730479Y-59916726D01*
X95619934Y-59945767D01*
X95614067Y-59947048D01*
X95551812Y-59957219D01*
X95474006Y-59964861D01*
X95385880Y-59969930D01*
X95292666Y-59972383D01*
X95292666Y-60801500D01*
X95448705Y-60795743D01*
X95644541Y-60773798D01*
X95823268Y-60737814D01*
X95984755Y-60687841D01*
X96128874Y-60623932D01*
X96255494Y-60546138D01*
X96364485Y-60454511D01*
X96455717Y-60349103D01*
X96486668Y-60303938D01*
X96542815Y-60202989D01*
X96582426Y-60099699D01*
X96606586Y-59989611D01*
X96616381Y-59868270D01*
X96615335Y-59775764D01*
X96604369Y-59646110D01*
X96582554Y-59533516D01*
X96548886Y-59434725D01*
X96502364Y-59346479D01*
X96468152Y-59297614D01*
X96446238Y-59268247D01*
X96431267Y-59246557D01*
X96426867Y-59238347D01*
X96437696Y-59236732D01*
X96468349Y-59235441D01*
X96516074Y-59234462D01*
X96578121Y-59233783D01*
X96651738Y-59233390D01*
X96734173Y-59233270D01*
X96822675Y-59233412D01*
X96914493Y-59233803D01*
X97006876Y-59234429D01*
X97097072Y-59235280D01*
X97182329Y-59236340D01*
X97259897Y-59237599D01*
X97327024Y-59239044D01*
X97380959Y-59240662D01*
X97418950Y-59242439D01*
X97425933Y-59242931D01*
X97496349Y-59250508D01*
X97551498Y-59262069D01*
X97598619Y-59279808D01*
X97644953Y-59305918D01*
X97654533Y-59312185D01*
X97691222Y-59336617D01*
X97691222Y-58431289D01*
X96006355Y-58431093D01*
X96006355Y-58431093D01*
G37*
X96006355Y-58431093D02*
X95771938Y-58431074D01*
X95558997Y-58431048D01*
X95366432Y-58430975D01*
X95193141Y-58430818D01*
X95038024Y-58430536D01*
X94899980Y-58430091D01*
X94777908Y-58429444D01*
X94670706Y-58428555D01*
X94577274Y-58427387D01*
X94496510Y-58425899D01*
X94427314Y-58424054D01*
X94368585Y-58421811D01*
X94319221Y-58419131D01*
X94278122Y-58415977D01*
X94244187Y-58412308D01*
X94216314Y-58408087D01*
X94193402Y-58403273D01*
X94174351Y-58397827D01*
X94158060Y-58391712D01*
X94143427Y-58384888D01*
X94129351Y-58377315D01*
X94114732Y-58368955D01*
X94105626Y-58363761D01*
X94044911Y-58329496D01*
X94044911Y-59187645D01*
X94140867Y-59187645D01*
X94184230Y-59188376D01*
X94217395Y-59190328D01*
X94235176Y-59193137D01*
X94236822Y-59194379D01*
X94229938Y-59205801D01*
X94212095Y-59228516D01*
X94192721Y-59251215D01*
X94151986Y-59305800D01*
X94110983Y-59375279D01*
X94073477Y-59452330D01*
X94043236Y-59529635D01*
X94033588Y-59560487D01*
X94019022Y-59628984D01*
X94009061Y-59711836D01*
X94004017Y-59801229D01*
X94004204Y-59889352D01*
X94009934Y-59968393D01*
X94015742Y-60006089D01*
X94053803Y-60144186D01*
X94111527Y-60271487D01*
X94188389Y-60387308D01*
X94283861Y-60490963D01*
X94397421Y-60581767D01*
X94508219Y-60648569D01*
X94624975Y-60703436D01*
X94744324Y-60745437D01*
X94870317Y-60775433D01*
X95007006Y-60794289D01*
X95158442Y-60802868D01*
X95235889Y-60803594D01*
X95292666Y-60801500D01*
X95292666Y-59972383D01*
X95199598Y-59972176D01*
X95111908Y-59969263D01*
X95034828Y-59963600D01*
X94973591Y-59955145D01*
X94961250Y-59952562D01*
X94853967Y-59920760D01*
X94766942Y-59879102D01*
X94699958Y-59827237D01*
X94652795Y-59764819D01*
X94625235Y-59691500D01*
X94617059Y-59606931D01*
X94628049Y-59510765D01*
X94643771Y-59447289D01*
X94661961Y-59398146D01*
X94687809Y-59344017D01*
X94711511Y-59303356D01*
X94757879Y-59232800D01*
X95908070Y-59232800D01*
X95951638Y-59300208D01*
X95992560Y-59378733D01*
X96019211Y-59462919D01*
X96031135Y-59548043D01*
X96027878Y-59629384D01*
X96008985Y-59702220D01*
X95993416Y-59734174D01*
X95950419Y-59792099D01*
X95893647Y-59841056D01*
X95821025Y-59882210D01*
X95730479Y-59916726D01*
X95619934Y-59945767D01*
X95614067Y-59947048D01*
X95551812Y-59957219D01*
X95474006Y-59964861D01*
X95385880Y-59969930D01*
X95292666Y-59972383D01*
X95292666Y-60801500D01*
X95448705Y-60795743D01*
X95644541Y-60773798D01*
X95823268Y-60737814D01*
X95984755Y-60687841D01*
X96128874Y-60623932D01*
X96255494Y-60546138D01*
X96364485Y-60454511D01*
X96455717Y-60349103D01*
X96486668Y-60303938D01*
X96542815Y-60202989D01*
X96582426Y-60099699D01*
X96606586Y-59989611D01*
X96616381Y-59868270D01*
X96615335Y-59775764D01*
X96604369Y-59646110D01*
X96582554Y-59533516D01*
X96548886Y-59434725D01*
X96502364Y-59346479D01*
X96468152Y-59297614D01*
X96446238Y-59268247D01*
X96431267Y-59246557D01*
X96426867Y-59238347D01*
X96437696Y-59236732D01*
X96468349Y-59235441D01*
X96516074Y-59234462D01*
X96578121Y-59233783D01*
X96651738Y-59233390D01*
X96734173Y-59233270D01*
X96822675Y-59233412D01*
X96914493Y-59233803D01*
X97006876Y-59234429D01*
X97097072Y-59235280D01*
X97182329Y-59236340D01*
X97259897Y-59237599D01*
X97327024Y-59239044D01*
X97380959Y-59240662D01*
X97418950Y-59242439D01*
X97425933Y-59242931D01*
X97496349Y-59250508D01*
X97551498Y-59262069D01*
X97598619Y-59279808D01*
X97644953Y-59305918D01*
X97654533Y-59312185D01*
X97691222Y-59336617D01*
X97691222Y-58431289D01*
X96006355Y-58431093D01*
G36*
X96612048Y-61944026D02*
X96592033Y-61792108D01*
X96558398Y-61656844D01*
X96510875Y-61537361D01*
X96449195Y-61432785D01*
X96385635Y-61355176D01*
X96311501Y-61286335D01*
X96231729Y-61232594D01*
X96139509Y-61189690D01*
X96096439Y-61174216D01*
X96057458Y-61161356D01*
X96021311Y-61150154D01*
X95986166Y-61140480D01*
X95950190Y-61132204D01*
X95911550Y-61125197D01*
X95868415Y-61119328D01*
X95818951Y-61114469D01*
X95761327Y-61110490D01*
X95693709Y-61107260D01*
X95614266Y-61104651D01*
X95521164Y-61102533D01*
X95412573Y-61100776D01*
X95286658Y-61099251D01*
X95141588Y-61097828D01*
X94998822Y-61096575D01*
X94842632Y-61095249D01*
X94707361Y-61094044D01*
X94591354Y-61092834D01*
X94492955Y-61091494D01*
X94410507Y-61089900D01*
X94342354Y-61087925D01*
X94286840Y-61085444D01*
X94242308Y-61082331D01*
X94207102Y-61078462D01*
X94179566Y-61073711D01*
X94158044Y-61067952D01*
X94140878Y-61061061D01*
X94126414Y-61052911D01*
X94112994Y-61043377D01*
X94098962Y-61032334D01*
X94093529Y-61028034D01*
X94070690Y-61012214D01*
X94055137Y-61005178D01*
X94054678Y-61005156D01*
X94052479Y-61016033D01*
X94050453Y-61047018D01*
X94048658Y-61095643D01*
X94047149Y-61159437D01*
X94045984Y-61235931D01*
X94045220Y-61322656D01*
X94044914Y-61417143D01*
X94044911Y-61428050D01*
X94044911Y-61850943D01*
X94140978Y-61854205D01*
X94237044Y-61857467D01*
X94186057Y-61919556D01*
X94118543Y-62016886D01*
X94063851Y-62126787D01*
X94033622Y-62213251D01*
X94018934Y-62282322D01*
X94008941Y-62365675D01*
X94003954Y-62455441D01*
X94004287Y-62543755D01*
X94010249Y-62622749D01*
X94015962Y-62658978D01*
X94053824Y-62798997D01*
X94108668Y-62925422D01*
X94179676Y-63037340D01*
X94266032Y-63133838D01*
X94366921Y-63214000D01*
X94481524Y-63276913D01*
X94607616Y-63321288D01*
X94664199Y-63333622D01*
X94726398Y-63341232D01*
X94801237Y-63344861D01*
X94835133Y-63345355D01*
X94838318Y-63345290D01*
X94838318Y-62585352D01*
X94763267Y-62576059D01*
X94699440Y-62547872D01*
X94643802Y-62499403D01*
X94639389Y-62494346D01*
X94604563Y-62446052D01*
X94581980Y-62394343D01*
X94570060Y-62333611D01*
X94567217Y-62258248D01*
X94567622Y-62240141D01*
X94570275Y-62186322D01*
X94575691Y-62146292D01*
X94585855Y-62111276D01*
X94602750Y-62072497D01*
X94607928Y-62061855D01*
X94643756Y-62001204D01*
X94686388Y-61954385D01*
X94701627Y-61941648D01*
X94758138Y-61896978D01*
X94954014Y-61896978D01*
X95032661Y-61897514D01*
X95090612Y-61899204D01*
X95129725Y-61902172D01*
X95151859Y-61906543D01*
X95158326Y-61910628D01*
X95161489Y-61926553D01*
X95164112Y-61960336D01*
X95165945Y-62007260D01*
X95166743Y-62062607D01*
X95166758Y-62071494D01*
X95161504Y-62192270D01*
X95145337Y-62294940D01*
X95117639Y-62381494D01*
X95077792Y-62453919D01*
X95030842Y-62508849D01*
X94972955Y-62553396D01*
X94909907Y-62578120D01*
X94838318Y-62585352D01*
X94838318Y-63345290D01*
X94928888Y-63343422D01*
X95007788Y-63335078D01*
X95079010Y-63318832D01*
X95149736Y-63293195D01*
X95202107Y-63269199D01*
X95297404Y-63210580D01*
X95385430Y-63132483D01*
X95464583Y-63037285D01*
X95533260Y-62927362D01*
X95589859Y-62805090D01*
X95632779Y-62672845D01*
X95647718Y-62608178D01*
X95669823Y-62471996D01*
X95684406Y-62323551D01*
X95690787Y-62172095D01*
X95689155Y-62045536D01*
X95682376Y-61883650D01*
X95741355Y-61891070D01*
X95840508Y-61910362D01*
X95921228Y-61941496D01*
X95984134Y-61985331D01*
X96029844Y-62042729D01*
X96058978Y-62114552D01*
X96072153Y-62201659D01*
X96069989Y-62304914D01*
X96065988Y-62342889D01*
X96040820Y-62484080D01*
X95999786Y-62620893D01*
X95961785Y-62715422D01*
X95942410Y-62760582D01*
X95926840Y-62799015D01*
X95917195Y-62825366D01*
X95915148Y-62833054D01*
X95924226Y-62842798D01*
X95953195Y-62859517D01*
X96002383Y-62883368D01*
X96072116Y-62914507D01*
X96162721Y-62953093D01*
X96178511Y-62959690D01*
X96250828Y-62989747D01*
X96316175Y-63016726D01*
X96371694Y-63039464D01*
X96414528Y-63056794D01*
X96441819Y-63067552D01*
X96450658Y-63070659D01*
X96455413Y-63060660D01*
X96460690Y-63034383D01*
X96464369Y-63006111D01*
X96469126Y-62975954D01*
X96478572Y-62928167D01*
X96491780Y-62866988D01*
X96507824Y-62796654D01*
X96525780Y-62721406D01*
X96532803Y-62692845D01*
X96558391Y-62587784D01*
X96578453Y-62500120D01*
X96593631Y-62425532D01*
X96604565Y-62359697D01*
X96611896Y-62298293D01*
X96616265Y-62236998D01*
X96618313Y-62171490D01*
X96618711Y-62113472D01*
X96612048Y-61944026D01*
X96612048Y-61944026D01*
G37*
X96612048Y-61944026D02*
X96592033Y-61792108D01*
X96558398Y-61656844D01*
X96510875Y-61537361D01*
X96449195Y-61432785D01*
X96385635Y-61355176D01*
X96311501Y-61286335D01*
X96231729Y-61232594D01*
X96139509Y-61189690D01*
X96096439Y-61174216D01*
X96057458Y-61161356D01*
X96021311Y-61150154D01*
X95986166Y-61140480D01*
X95950190Y-61132204D01*
X95911550Y-61125197D01*
X95868415Y-61119328D01*
X95818951Y-61114469D01*
X95761327Y-61110490D01*
X95693709Y-61107260D01*
X95614266Y-61104651D01*
X95521164Y-61102533D01*
X95412573Y-61100776D01*
X95286658Y-61099251D01*
X95141588Y-61097828D01*
X94998822Y-61096575D01*
X94842632Y-61095249D01*
X94707361Y-61094044D01*
X94591354Y-61092834D01*
X94492955Y-61091494D01*
X94410507Y-61089900D01*
X94342354Y-61087925D01*
X94286840Y-61085444D01*
X94242308Y-61082331D01*
X94207102Y-61078462D01*
X94179566Y-61073711D01*
X94158044Y-61067952D01*
X94140878Y-61061061D01*
X94126414Y-61052911D01*
X94112994Y-61043377D01*
X94098962Y-61032334D01*
X94093529Y-61028034D01*
X94070690Y-61012214D01*
X94055137Y-61005178D01*
X94054678Y-61005156D01*
X94052479Y-61016033D01*
X94050453Y-61047018D01*
X94048658Y-61095643D01*
X94047149Y-61159437D01*
X94045984Y-61235931D01*
X94045220Y-61322656D01*
X94044914Y-61417143D01*
X94044911Y-61428050D01*
X94044911Y-61850943D01*
X94140978Y-61854205D01*
X94237044Y-61857467D01*
X94186057Y-61919556D01*
X94118543Y-62016886D01*
X94063851Y-62126787D01*
X94033622Y-62213251D01*
X94018934Y-62282322D01*
X94008941Y-62365675D01*
X94003954Y-62455441D01*
X94004287Y-62543755D01*
X94010249Y-62622749D01*
X94015962Y-62658978D01*
X94053824Y-62798997D01*
X94108668Y-62925422D01*
X94179676Y-63037340D01*
X94266032Y-63133838D01*
X94366921Y-63214000D01*
X94481524Y-63276913D01*
X94607616Y-63321288D01*
X94664199Y-63333622D01*
X94726398Y-63341232D01*
X94801237Y-63344861D01*
X94835133Y-63345355D01*
X94838318Y-63345290D01*
X94838318Y-62585352D01*
X94763267Y-62576059D01*
X94699440Y-62547872D01*
X94643802Y-62499403D01*
X94639389Y-62494346D01*
X94604563Y-62446052D01*
X94581980Y-62394343D01*
X94570060Y-62333611D01*
X94567217Y-62258248D01*
X94567622Y-62240141D01*
X94570275Y-62186322D01*
X94575691Y-62146292D01*
X94585855Y-62111276D01*
X94602750Y-62072497D01*
X94607928Y-62061855D01*
X94643756Y-62001204D01*
X94686388Y-61954385D01*
X94701627Y-61941648D01*
X94758138Y-61896978D01*
X94954014Y-61896978D01*
X95032661Y-61897514D01*
X95090612Y-61899204D01*
X95129725Y-61902172D01*
X95151859Y-61906543D01*
X95158326Y-61910628D01*
X95161489Y-61926553D01*
X95164112Y-61960336D01*
X95165945Y-62007260D01*
X95166743Y-62062607D01*
X95166758Y-62071494D01*
X95161504Y-62192270D01*
X95145337Y-62294940D01*
X95117639Y-62381494D01*
X95077792Y-62453919D01*
X95030842Y-62508849D01*
X94972955Y-62553396D01*
X94909907Y-62578120D01*
X94838318Y-62585352D01*
X94838318Y-63345290D01*
X94928888Y-63343422D01*
X95007788Y-63335078D01*
X95079010Y-63318832D01*
X95149736Y-63293195D01*
X95202107Y-63269199D01*
X95297404Y-63210580D01*
X95385430Y-63132483D01*
X95464583Y-63037285D01*
X95533260Y-62927362D01*
X95589859Y-62805090D01*
X95632779Y-62672845D01*
X95647718Y-62608178D01*
X95669823Y-62471996D01*
X95684406Y-62323551D01*
X95690787Y-62172095D01*
X95689155Y-62045536D01*
X95682376Y-61883650D01*
X95741355Y-61891070D01*
X95840508Y-61910362D01*
X95921228Y-61941496D01*
X95984134Y-61985331D01*
X96029844Y-62042729D01*
X96058978Y-62114552D01*
X96072153Y-62201659D01*
X96069989Y-62304914D01*
X96065988Y-62342889D01*
X96040820Y-62484080D01*
X95999786Y-62620893D01*
X95961785Y-62715422D01*
X95942410Y-62760582D01*
X95926840Y-62799015D01*
X95917195Y-62825366D01*
X95915148Y-62833054D01*
X95924226Y-62842798D01*
X95953195Y-62859517D01*
X96002383Y-62883368D01*
X96072116Y-62914507D01*
X96162721Y-62953093D01*
X96178511Y-62959690D01*
X96250828Y-62989747D01*
X96316175Y-63016726D01*
X96371694Y-63039464D01*
X96414528Y-63056794D01*
X96441819Y-63067552D01*
X96450658Y-63070659D01*
X96455413Y-63060660D01*
X96460690Y-63034383D01*
X96464369Y-63006111D01*
X96469126Y-62975954D01*
X96478572Y-62928167D01*
X96491780Y-62866988D01*
X96507824Y-62796654D01*
X96525780Y-62721406D01*
X96532803Y-62692845D01*
X96558391Y-62587784D01*
X96578453Y-62500120D01*
X96593631Y-62425532D01*
X96604565Y-62359697D01*
X96611896Y-62298293D01*
X96616265Y-62236998D01*
X96618313Y-62171490D01*
X96618711Y-62113472D01*
X96612048Y-61944026D01*
G36*
X97529529Y-64289171D02*
X97508355Y-64129030D01*
X97468215Y-63965090D01*
X97408711Y-63795287D01*
X97329446Y-63617557D01*
X97323901Y-63606290D01*
X97295875Y-63548595D01*
X97271798Y-63497048D01*
X97253351Y-63455409D01*
X97242214Y-63427438D01*
X97239667Y-63417867D01*
X97234659Y-63398650D01*
X97230453Y-63394039D01*
X97220020Y-63399142D01*
X97193732Y-63415182D01*
X97154343Y-63440312D01*
X97104609Y-63472686D01*
X97047285Y-63510457D01*
X96985124Y-63551778D01*
X96920882Y-63594802D01*
X96857315Y-63637683D01*
X96797175Y-63678574D01*
X96743220Y-63715629D01*
X96698203Y-63747000D01*
X96664879Y-63770841D01*
X96646003Y-63785306D01*
X96643813Y-63787291D01*
X96648462Y-63797409D01*
X96665638Y-63819750D01*
X96692160Y-63850320D01*
X96706636Y-63866064D01*
X96781918Y-63962553D01*
X96837359Y-64069264D01*
X96872459Y-64184768D01*
X96886720Y-64307638D01*
X96885549Y-64377039D01*
X96868388Y-64498177D01*
X96832506Y-64607395D01*
X96777641Y-64705018D01*
X96703530Y-64791372D01*
X96609912Y-64866785D01*
X96496524Y-64931582D01*
X96409933Y-64968999D01*
X96274234Y-65012852D01*
X96126750Y-65045172D01*
X95971286Y-65066043D01*
X95811644Y-65075549D01*
X95651627Y-65073773D01*
X95495039Y-65060797D01*
X95345682Y-65036706D01*
X95207360Y-65001582D01*
X95083876Y-64955508D01*
X95049622Y-64939227D01*
X94935536Y-64870980D01*
X94839043Y-64790521D01*
X94760930Y-64699030D01*
X94701983Y-64597689D01*
X94662988Y-64487680D01*
X94644732Y-64370185D01*
X94643389Y-64328717D01*
X94654310Y-64207159D01*
X94687126Y-64086722D01*
X94741161Y-63968934D01*
X94815735Y-63855323D01*
X94894061Y-63763915D01*
X94938592Y-63717385D01*
X94641329Y-63536117D01*
X94567167Y-63491020D01*
X94498954Y-63449781D01*
X94439141Y-63413865D01*
X94390180Y-63384734D01*
X94354521Y-63363850D01*
X94334616Y-63352676D01*
X94331521Y-63351225D01*
X94321882Y-63359454D01*
X94304601Y-63385033D01*
X94281317Y-63424727D01*
X94253666Y-63475303D01*
X94223285Y-63533526D01*
X94191810Y-63596163D01*
X94160878Y-63659979D01*
X94132127Y-63721740D01*
X94107192Y-63778212D01*
X94087711Y-63826162D01*
X94079282Y-63849614D01*
X94041467Y-63983379D01*
X94016464Y-64121273D01*
X94003460Y-64268978D01*
X94001132Y-64395767D01*
X94002227Y-64463722D01*
X94004325Y-64529323D01*
X94007166Y-64586753D01*
X94010494Y-64630197D01*
X94012178Y-64644302D01*
X94041013Y-64783316D01*
X94086132Y-64924843D01*
X94144850Y-65062325D01*
X94214480Y-65189206D01*
X94267159Y-65266711D01*
X94375361Y-65394119D01*
X94501929Y-65512422D01*
X94643734Y-65619428D01*
X94797649Y-65712948D01*
X94960547Y-65790790D01*
X95077844Y-65834644D01*
X95261472Y-65884892D01*
X95456019Y-65918391D01*
X95657275Y-65935151D01*
X95861032Y-65935184D01*
X96063079Y-65918499D01*
X96259208Y-65885107D01*
X96445209Y-65835020D01*
X96456797Y-65831203D01*
X96618850Y-65768319D01*
X96766768Y-65691572D01*
X96904735Y-65598358D01*
X97036939Y-65486073D01*
X97082201Y-65442208D01*
X97206143Y-65306066D01*
X97308685Y-65166109D01*
X97390944Y-65020189D01*
X97454036Y-64866158D01*
X97499077Y-64701868D01*
X97516567Y-64606311D01*
X97532134Y-64447577D01*
X97529529Y-64289171D01*
X97529529Y-64289171D01*
G37*
X97529529Y-64289171D02*
X97508355Y-64129030D01*
X97468215Y-63965090D01*
X97408711Y-63795287D01*
X97329446Y-63617557D01*
X97323901Y-63606290D01*
X97295875Y-63548595D01*
X97271798Y-63497048D01*
X97253351Y-63455409D01*
X97242214Y-63427438D01*
X97239667Y-63417867D01*
X97234659Y-63398650D01*
X97230453Y-63394039D01*
X97220020Y-63399142D01*
X97193732Y-63415182D01*
X97154343Y-63440312D01*
X97104609Y-63472686D01*
X97047285Y-63510457D01*
X96985124Y-63551778D01*
X96920882Y-63594802D01*
X96857315Y-63637683D01*
X96797175Y-63678574D01*
X96743220Y-63715629D01*
X96698203Y-63747000D01*
X96664879Y-63770841D01*
X96646003Y-63785306D01*
X96643813Y-63787291D01*
X96648462Y-63797409D01*
X96665638Y-63819750D01*
X96692160Y-63850320D01*
X96706636Y-63866064D01*
X96781918Y-63962553D01*
X96837359Y-64069264D01*
X96872459Y-64184768D01*
X96886720Y-64307638D01*
X96885549Y-64377039D01*
X96868388Y-64498177D01*
X96832506Y-64607395D01*
X96777641Y-64705018D01*
X96703530Y-64791372D01*
X96609912Y-64866785D01*
X96496524Y-64931582D01*
X96409933Y-64968999D01*
X96274234Y-65012852D01*
X96126750Y-65045172D01*
X95971286Y-65066043D01*
X95811644Y-65075549D01*
X95651627Y-65073773D01*
X95495039Y-65060797D01*
X95345682Y-65036706D01*
X95207360Y-65001582D01*
X95083876Y-64955508D01*
X95049622Y-64939227D01*
X94935536Y-64870980D01*
X94839043Y-64790521D01*
X94760930Y-64699030D01*
X94701983Y-64597689D01*
X94662988Y-64487680D01*
X94644732Y-64370185D01*
X94643389Y-64328717D01*
X94654310Y-64207159D01*
X94687126Y-64086722D01*
X94741161Y-63968934D01*
X94815735Y-63855323D01*
X94894061Y-63763915D01*
X94938592Y-63717385D01*
X94641329Y-63536117D01*
X94567167Y-63491020D01*
X94498954Y-63449781D01*
X94439141Y-63413865D01*
X94390180Y-63384734D01*
X94354521Y-63363850D01*
X94334616Y-63352676D01*
X94331521Y-63351225D01*
X94321882Y-63359454D01*
X94304601Y-63385033D01*
X94281317Y-63424727D01*
X94253666Y-63475303D01*
X94223285Y-63533526D01*
X94191810Y-63596163D01*
X94160878Y-63659979D01*
X94132127Y-63721740D01*
X94107192Y-63778212D01*
X94087711Y-63826162D01*
X94079282Y-63849614D01*
X94041467Y-63983379D01*
X94016464Y-64121273D01*
X94003460Y-64268978D01*
X94001132Y-64395767D01*
X94002227Y-64463722D01*
X94004325Y-64529323D01*
X94007166Y-64586753D01*
X94010494Y-64630197D01*
X94012178Y-64644302D01*
X94041013Y-64783316D01*
X94086132Y-64924843D01*
X94144850Y-65062325D01*
X94214480Y-65189206D01*
X94267159Y-65266711D01*
X94375361Y-65394119D01*
X94501929Y-65512422D01*
X94643734Y-65619428D01*
X94797649Y-65712948D01*
X94960547Y-65790790D01*
X95077844Y-65834644D01*
X95261472Y-65884892D01*
X95456019Y-65918391D01*
X95657275Y-65935151D01*
X95861032Y-65935184D01*
X96063079Y-65918499D01*
X96259208Y-65885107D01*
X96445209Y-65835020D01*
X96456797Y-65831203D01*
X96618850Y-65768319D01*
X96766768Y-65691572D01*
X96904735Y-65598358D01*
X97036939Y-65486073D01*
X97082201Y-65442208D01*
X97206143Y-65306066D01*
X97308685Y-65166109D01*
X97390944Y-65020189D01*
X97454036Y-64866158D01*
X97499077Y-64701868D01*
X97516567Y-64606311D01*
X97532134Y-64447577D01*
X97529529Y-64289171D01*
G36*
X97989546Y-67564000D02*
X97875607Y-67553135D01*
X97767984Y-67521518D01*
X97668985Y-67470615D01*
X97580916Y-67401893D01*
X97506084Y-67316819D01*
X97448216Y-67219832D01*
X97408595Y-67113564D01*
X97390027Y-67006550D01*
X97391166Y-66900900D01*
X97410670Y-66798725D01*
X97447194Y-66702134D01*
X97499395Y-66613238D01*
X97565927Y-66534146D01*
X97645448Y-66466969D01*
X97736613Y-66413817D01*
X97838077Y-66376799D01*
X97948498Y-66358027D01*
X97998394Y-66356089D01*
X98086333Y-66356089D01*
X98086333Y-66304160D01*
X98083489Y-66267853D01*
X98071689Y-66240955D01*
X98047951Y-66213849D01*
X98009569Y-66175467D01*
X95817998Y-66175467D01*
X95555861Y-66175476D01*
X95315359Y-66175508D01*
X95095552Y-66175572D01*
X94895499Y-66175676D01*
X94714256Y-66175827D01*
X94550884Y-66176034D01*
X94404440Y-66176306D01*
X94273983Y-66176650D01*
X94158571Y-66177074D01*
X94057262Y-66177587D01*
X93969116Y-66178197D01*
X93893190Y-66178912D01*
X93828543Y-66179740D01*
X93774233Y-66180689D01*
X93729320Y-66181767D01*
X93692860Y-66182983D01*
X93663913Y-66184345D01*
X93641537Y-66185861D01*
X93624791Y-66187538D01*
X93612732Y-66189386D01*
X93604420Y-66191413D01*
X93598913Y-66193625D01*
X93597063Y-66194708D01*
X93590051Y-66198871D01*
X93583604Y-66202405D01*
X93577700Y-66206235D01*
X93572314Y-66211282D01*
X93567422Y-66218471D01*
X93563002Y-66228723D01*
X93559028Y-66242964D01*
X93555479Y-66262114D01*
X93552330Y-66287099D01*
X93549558Y-66318840D01*
X93547139Y-66358262D01*
X93545049Y-66406286D01*
X93543265Y-66463837D01*
X93541763Y-66531837D01*
X93540520Y-66611210D01*
X93539511Y-66702879D01*
X93538715Y-66807766D01*
X93538106Y-66926796D01*
X93537661Y-67060890D01*
X93537357Y-67210973D01*
X93537170Y-67377967D01*
X93537076Y-67562796D01*
X93537052Y-67766383D01*
X93537075Y-67989650D01*
X93537120Y-68233522D01*
X93537163Y-68498921D01*
X93537168Y-68537304D01*
X93537211Y-68804282D01*
X93537282Y-69049602D01*
X93537387Y-69274183D01*
X93537534Y-69478945D01*
X93537731Y-69664806D01*
X93537984Y-69832688D01*
X93538300Y-69983508D01*
X93538687Y-70118187D01*
X93539153Y-70237644D01*
X93539703Y-70342799D01*
X93540347Y-70434571D01*
X93541089Y-70513879D01*
X93541939Y-70581643D01*
X93542903Y-70638782D01*
X93543989Y-70686217D01*
X93545203Y-70724866D01*
X93546553Y-70755649D01*
X93548045Y-70779485D01*
X93549689Y-70797294D01*
X93551489Y-70809995D01*
X93553455Y-70818508D01*
X93555123Y-70822866D01*
X93558694Y-70831328D01*
X93561330Y-70839097D01*
X93563966Y-70846202D01*
X93567538Y-70852673D01*
X93572979Y-70858539D01*
X93581225Y-70863829D01*
X93593210Y-70868574D01*
X93609869Y-70872802D01*
X93632137Y-70876543D01*
X93660948Y-70879827D01*
X93697237Y-70882683D01*
X93741939Y-70885140D01*
X93795989Y-70887229D01*
X93860321Y-70888978D01*
X93935870Y-70890417D01*
X94023570Y-70891576D01*
X94124357Y-70892483D01*
X94239166Y-70893169D01*
X94368930Y-70893663D01*
X94514585Y-70893995D01*
X94677065Y-70894193D01*
X94857305Y-70894287D01*
X95056240Y-70894308D01*
X95274804Y-70894285D01*
X95513932Y-70894246D01*
X95774560Y-70894222D01*
X95816711Y-70894222D01*
X96079608Y-70894236D01*
X96320868Y-70894261D01*
X96541435Y-70894271D01*
X96742248Y-70894242D01*
X96924251Y-70894148D01*
X97088384Y-70893962D01*
X97235589Y-70893659D01*
X97366808Y-70893214D01*
X97476733Y-70892634D01*
X97476733Y-70589797D01*
X97418889Y-70550007D01*
X97403121Y-70538836D01*
X97389159Y-70528766D01*
X97375816Y-70519738D01*
X97361907Y-70511697D01*
X97346244Y-70504586D01*
X97327642Y-70498347D01*
X97304914Y-70492925D01*
X97276873Y-70488262D01*
X97242333Y-70484301D01*
X97200108Y-70480985D01*
X97149011Y-70478259D01*
X97087856Y-70476064D01*
X97015456Y-70474345D01*
X96930625Y-70473044D01*
X96832178Y-70472105D01*
X96718926Y-70471470D01*
X96589684Y-70471084D01*
X96443266Y-70470888D01*
X96278484Y-70470827D01*
X96094153Y-70470843D01*
X95889087Y-70470880D01*
X95766467Y-70470889D01*
X95549518Y-70470865D01*
X95353958Y-70470831D01*
X95178601Y-70470843D01*
X95022259Y-70470958D01*
X94883743Y-70471230D01*
X94761866Y-70471718D01*
X94655440Y-70472476D01*
X94563278Y-70473562D01*
X94484191Y-70475031D01*
X94416992Y-70476940D01*
X94360493Y-70479344D01*
X94313507Y-70482301D01*
X94274845Y-70485866D01*
X94243320Y-70490095D01*
X94217745Y-70495046D01*
X94196930Y-70500773D01*
X94179689Y-70507333D01*
X94164835Y-70514783D01*
X94151178Y-70523179D01*
X94137531Y-70532576D01*
X94122707Y-70543032D01*
X94113817Y-70549123D01*
X94056200Y-70587896D01*
X94056200Y-70056332D01*
X94056235Y-69933083D01*
X94056385Y-69830587D01*
X94056722Y-69747020D01*
X94057314Y-69680556D01*
X94058233Y-69629371D01*
X94059549Y-69591641D01*
X94061331Y-69565540D01*
X94063649Y-69549244D01*
X94066574Y-69540928D01*
X94070176Y-69538768D01*
X94074525Y-69540939D01*
X94075955Y-69542135D01*
X94113027Y-69567285D01*
X94165828Y-69593183D01*
X94227830Y-69616792D01*
X94254243Y-69625061D01*
X94272184Y-69629678D01*
X94293245Y-69633579D01*
X94319511Y-69636848D01*
X94353068Y-69639566D01*
X94396001Y-69641815D01*
X94450396Y-69643677D01*
X94518338Y-69645236D01*
X94601912Y-69646572D01*
X94703205Y-69647769D01*
X94824300Y-69648908D01*
X94869000Y-69649285D01*
X94994151Y-69650302D01*
X95098518Y-69651060D01*
X95183893Y-69651503D01*
X95252067Y-69651570D01*
X95304835Y-69651205D01*
X95343986Y-69650348D01*
X95371315Y-69648941D01*
X95388614Y-69646925D01*
X95397674Y-69644243D01*
X95400288Y-69640836D01*
X95398249Y-69636644D01*
X95393933Y-69632171D01*
X95380998Y-69621816D01*
X95351924Y-69599758D01*
X95308841Y-69567557D01*
X95253882Y-69526774D01*
X95189177Y-69478970D01*
X95116858Y-69425705D01*
X95039056Y-69368540D01*
X94957902Y-69309037D01*
X94875528Y-69248755D01*
X94794064Y-69189255D01*
X94715643Y-69132098D01*
X94642396Y-69078845D01*
X94576453Y-69031057D01*
X94519946Y-68990293D01*
X94475007Y-68958116D01*
X94443766Y-68936085D01*
X94437134Y-68931517D01*
X94400231Y-68908596D01*
X94352241Y-68881788D01*
X94302703Y-68856389D01*
X94296023Y-68853168D01*
X94247828Y-68831490D01*
X94210266Y-68818904D01*
X94174440Y-68813174D01*
X94132400Y-68812056D01*
X94056200Y-68812690D01*
X94056200Y-67658251D01*
X94149931Y-67749415D01*
X94199825Y-67796212D01*
X94256305Y-67846499D01*
X94310574Y-67892544D01*
X94335927Y-67912969D01*
X94375472Y-67943407D01*
X94428684Y-67983462D01*
X94493933Y-68031961D01*
X94569589Y-68087735D01*
X94654023Y-68149611D01*
X94745606Y-68216419D01*
X94842708Y-68286987D01*
X94943699Y-68360145D01*
X95046950Y-68434721D01*
X95150832Y-68509544D01*
X95253715Y-68583443D01*
X95353969Y-68655246D01*
X95449964Y-68723784D01*
X95540073Y-68787884D01*
X95622664Y-68846375D01*
X95696108Y-68898086D01*
X95758776Y-68941847D01*
X95809039Y-68976485D01*
X95845266Y-69000830D01*
X95865829Y-69013711D01*
X95869932Y-69015469D01*
X95881258Y-69007510D01*
X95908438Y-68986715D01*
X95949771Y-68954447D01*
X96003556Y-68912070D01*
X96068094Y-68860947D01*
X96141682Y-68802441D01*
X96222622Y-68737914D01*
X96309212Y-68668731D01*
X96399752Y-68596253D01*
X96492540Y-68521846D01*
X96566898Y-68462117D01*
X96566898Y-67451111D01*
X96553941Y-67445202D01*
X96531692Y-67430872D01*
X96530209Y-67429825D01*
X96500056Y-67411038D01*
X96463225Y-67391391D01*
X96455089Y-67387492D01*
X96446660Y-67383956D01*
X96436541Y-67380830D01*
X96423340Y-67378086D01*
X96405662Y-67375692D01*
X96382116Y-67373619D01*
X96351307Y-67371835D01*
X96311843Y-67370312D01*
X96262331Y-67369019D01*
X96201377Y-67367926D01*
X96127589Y-67367003D01*
X96039572Y-67366219D01*
X95935935Y-67365545D01*
X95815284Y-67364950D01*
X95676226Y-67364405D01*
X95517368Y-67363879D01*
X95338511Y-67363345D01*
X95153393Y-67362806D01*
X94989455Y-67362372D01*
X94845297Y-67362109D01*
X94719521Y-67362084D01*
X94610729Y-67362365D01*
X94517523Y-67363019D01*
X94438503Y-67364114D01*
X94372272Y-67365718D01*
X94317430Y-67367897D01*
X94272579Y-67370719D01*
X94236322Y-67374251D01*
X94207259Y-67378561D01*
X94183991Y-67383717D01*
X94165121Y-67389785D01*
X94149249Y-67396833D01*
X94134978Y-67404929D01*
X94120909Y-67414140D01*
X94108442Y-67422640D01*
X94082148Y-67439776D01*
X94064563Y-67449922D01*
X94061343Y-67451111D01*
X94060266Y-67440204D01*
X94059265Y-67409011D01*
X94058365Y-67359823D01*
X94057590Y-67294933D01*
X94056963Y-67216630D01*
X94056509Y-67127207D01*
X94056251Y-67028956D01*
X94056200Y-66960045D01*
X94056420Y-66855052D01*
X94057052Y-66758210D01*
X94058051Y-66671707D01*
X94059373Y-66597732D01*
X94060974Y-66538474D01*
X94062809Y-66496120D01*
X94064835Y-66472860D01*
X94066107Y-66468978D01*
X94081009Y-66476676D01*
X94089040Y-66484674D01*
X94106166Y-66497846D01*
X94136417Y-66515085D01*
X94160978Y-66527007D01*
X94219889Y-66553645D01*
X95396755Y-66556720D01*
X96573622Y-66559795D01*
X96573622Y-67005453D01*
X96573458Y-67103270D01*
X96572989Y-67193664D01*
X96572253Y-67274230D01*
X96571284Y-67342562D01*
X96570120Y-67396256D01*
X96568797Y-67432905D01*
X96567351Y-67450104D01*
X96566898Y-67451111D01*
X96566898Y-68462117D01*
X96585878Y-68446870D01*
X96678063Y-68372690D01*
X96767396Y-68300669D01*
X96852176Y-68232169D01*
X96930702Y-68168555D01*
X97001274Y-68111188D01*
X97062191Y-68061433D01*
X97111753Y-68020652D01*
X97132422Y-68003488D01*
X97233084Y-67917196D01*
X97316341Y-67840597D01*
X97384162Y-67771783D01*
X97438511Y-67708848D01*
X97445878Y-67699467D01*
X97476483Y-67659956D01*
X97476733Y-68791716D01*
X97428756Y-68786427D01*
X97371412Y-68789730D01*
X97303137Y-68811261D01*
X97223388Y-68851235D01*
X97151105Y-68896543D01*
X97128460Y-68912761D01*
X97090904Y-68940814D01*
X97040579Y-68979030D01*
X96979627Y-69025737D01*
X96910189Y-69079261D01*
X96834406Y-69137931D01*
X96754420Y-69200075D01*
X96672372Y-69264021D01*
X96590404Y-69328095D01*
X96510657Y-69390627D01*
X96435273Y-69449943D01*
X96366393Y-69504371D01*
X96306158Y-69552239D01*
X96256711Y-69591875D01*
X96220192Y-69621606D01*
X96198742Y-69639761D01*
X96195444Y-69642820D01*
X96203451Y-69645679D01*
X96233745Y-69647893D01*
X96286044Y-69649457D01*
X96360069Y-69650367D01*
X96455537Y-69650620D01*
X96572166Y-69650213D01*
X96692155Y-69649304D01*
X96824267Y-69647982D01*
X96936006Y-69646457D01*
X97029575Y-69644481D01*
X97107181Y-69641806D01*
X97171026Y-69638182D01*
X97223317Y-69633361D01*
X97266256Y-69627094D01*
X97302049Y-69619132D01*
X97332900Y-69609227D01*
X97361014Y-69597131D01*
X97388595Y-69582593D01*
X97413634Y-69567911D01*
X97476733Y-69529914D01*
X97476733Y-70589797D01*
X97476733Y-70892634D01*
X97482983Y-70892601D01*
X97585056Y-70891795D01*
X97673967Y-70890770D01*
X97750659Y-70889500D01*
X97816073Y-70887960D01*
X97871151Y-70886124D01*
X97916835Y-70883967D01*
X97954066Y-70881463D01*
X97983787Y-70878587D01*
X98006938Y-70875313D01*
X98024461Y-70871615D01*
X98037299Y-70867469D01*
X98046392Y-70862847D01*
X98052682Y-70857726D01*
X98057112Y-70852078D01*
X98060622Y-70845879D01*
X98064155Y-70839104D01*
X98067724Y-70833108D01*
X98070300Y-70827875D01*
X98072628Y-70819699D01*
X98074722Y-70807486D01*
X98076593Y-70790141D01*
X98078253Y-70766569D01*
X98079716Y-70735677D01*
X98080992Y-70696368D01*
X98082096Y-70647550D01*
X98083039Y-70588127D01*
X98083833Y-70517004D01*
X98084491Y-70433088D01*
X98085025Y-70335283D01*
X98085447Y-70222494D01*
X98085771Y-70093629D01*
X98086008Y-69947591D01*
X98086170Y-69783286D01*
X98086270Y-69599620D01*
X98086320Y-69395497D01*
X98086333Y-69184353D01*
X98086333Y-67564000D01*
X97989546Y-67564000D01*
X97989546Y-67564000D01*
G37*
X97989546Y-67564000D02*
X97875607Y-67553135D01*
X97767984Y-67521518D01*
X97668985Y-67470615D01*
X97580916Y-67401893D01*
X97506084Y-67316819D01*
X97448216Y-67219832D01*
X97408595Y-67113564D01*
X97390027Y-67006550D01*
X97391166Y-66900900D01*
X97410670Y-66798725D01*
X97447194Y-66702134D01*
X97499395Y-66613238D01*
X97565927Y-66534146D01*
X97645448Y-66466969D01*
X97736613Y-66413817D01*
X97838077Y-66376799D01*
X97948498Y-66358027D01*
X97998394Y-66356089D01*
X98086333Y-66356089D01*
X98086333Y-66304160D01*
X98083489Y-66267853D01*
X98071689Y-66240955D01*
X98047951Y-66213849D01*
X98009569Y-66175467D01*
X95817998Y-66175467D01*
X95555861Y-66175476D01*
X95315359Y-66175508D01*
X95095552Y-66175572D01*
X94895499Y-66175676D01*
X94714256Y-66175827D01*
X94550884Y-66176034D01*
X94404440Y-66176306D01*
X94273983Y-66176650D01*
X94158571Y-66177074D01*
X94057262Y-66177587D01*
X93969116Y-66178197D01*
X93893190Y-66178912D01*
X93828543Y-66179740D01*
X93774233Y-66180689D01*
X93729320Y-66181767D01*
X93692860Y-66182983D01*
X93663913Y-66184345D01*
X93641537Y-66185861D01*
X93624791Y-66187538D01*
X93612732Y-66189386D01*
X93604420Y-66191413D01*
X93598913Y-66193625D01*
X93597063Y-66194708D01*
X93590051Y-66198871D01*
X93583604Y-66202405D01*
X93577700Y-66206235D01*
X93572314Y-66211282D01*
X93567422Y-66218471D01*
X93563002Y-66228723D01*
X93559028Y-66242964D01*
X93555479Y-66262114D01*
X93552330Y-66287099D01*
X93549558Y-66318840D01*
X93547139Y-66358262D01*
X93545049Y-66406286D01*
X93543265Y-66463837D01*
X93541763Y-66531837D01*
X93540520Y-66611210D01*
X93539511Y-66702879D01*
X93538715Y-66807766D01*
X93538106Y-66926796D01*
X93537661Y-67060890D01*
X93537357Y-67210973D01*
X93537170Y-67377967D01*
X93537076Y-67562796D01*
X93537052Y-67766383D01*
X93537075Y-67989650D01*
X93537120Y-68233522D01*
X93537163Y-68498921D01*
X93537168Y-68537304D01*
X93537211Y-68804282D01*
X93537282Y-69049602D01*
X93537387Y-69274183D01*
X93537534Y-69478945D01*
X93537731Y-69664806D01*
X93537984Y-69832688D01*
X93538300Y-69983508D01*
X93538687Y-70118187D01*
X93539153Y-70237644D01*
X93539703Y-70342799D01*
X93540347Y-70434571D01*
X93541089Y-70513879D01*
X93541939Y-70581643D01*
X93542903Y-70638782D01*
X93543989Y-70686217D01*
X93545203Y-70724866D01*
X93546553Y-70755649D01*
X93548045Y-70779485D01*
X93549689Y-70797294D01*
X93551489Y-70809995D01*
X93553455Y-70818508D01*
X93555123Y-70822866D01*
X93558694Y-70831328D01*
X93561330Y-70839097D01*
X93563966Y-70846202D01*
X93567538Y-70852673D01*
X93572979Y-70858539D01*
X93581225Y-70863829D01*
X93593210Y-70868574D01*
X93609869Y-70872802D01*
X93632137Y-70876543D01*
X93660948Y-70879827D01*
X93697237Y-70882683D01*
X93741939Y-70885140D01*
X93795989Y-70887229D01*
X93860321Y-70888978D01*
X93935870Y-70890417D01*
X94023570Y-70891576D01*
X94124357Y-70892483D01*
X94239166Y-70893169D01*
X94368930Y-70893663D01*
X94514585Y-70893995D01*
X94677065Y-70894193D01*
X94857305Y-70894287D01*
X95056240Y-70894308D01*
X95274804Y-70894285D01*
X95513932Y-70894246D01*
X95774560Y-70894222D01*
X95816711Y-70894222D01*
X96079608Y-70894236D01*
X96320868Y-70894261D01*
X96541435Y-70894271D01*
X96742248Y-70894242D01*
X96924251Y-70894148D01*
X97088384Y-70893962D01*
X97235589Y-70893659D01*
X97366808Y-70893214D01*
X97476733Y-70892634D01*
X97476733Y-70589797D01*
X97418889Y-70550007D01*
X97403121Y-70538836D01*
X97389159Y-70528766D01*
X97375816Y-70519738D01*
X97361907Y-70511697D01*
X97346244Y-70504586D01*
X97327642Y-70498347D01*
X97304914Y-70492925D01*
X97276873Y-70488262D01*
X97242333Y-70484301D01*
X97200108Y-70480985D01*
X97149011Y-70478259D01*
X97087856Y-70476064D01*
X97015456Y-70474345D01*
X96930625Y-70473044D01*
X96832178Y-70472105D01*
X96718926Y-70471470D01*
X96589684Y-70471084D01*
X96443266Y-70470888D01*
X96278484Y-70470827D01*
X96094153Y-70470843D01*
X95889087Y-70470880D01*
X95766467Y-70470889D01*
X95549518Y-70470865D01*
X95353958Y-70470831D01*
X95178601Y-70470843D01*
X95022259Y-70470958D01*
X94883743Y-70471230D01*
X94761866Y-70471718D01*
X94655440Y-70472476D01*
X94563278Y-70473562D01*
X94484191Y-70475031D01*
X94416992Y-70476940D01*
X94360493Y-70479344D01*
X94313507Y-70482301D01*
X94274845Y-70485866D01*
X94243320Y-70490095D01*
X94217745Y-70495046D01*
X94196930Y-70500773D01*
X94179689Y-70507333D01*
X94164835Y-70514783D01*
X94151178Y-70523179D01*
X94137531Y-70532576D01*
X94122707Y-70543032D01*
X94113817Y-70549123D01*
X94056200Y-70587896D01*
X94056200Y-70056332D01*
X94056235Y-69933083D01*
X94056385Y-69830587D01*
X94056722Y-69747020D01*
X94057314Y-69680556D01*
X94058233Y-69629371D01*
X94059549Y-69591641D01*
X94061331Y-69565540D01*
X94063649Y-69549244D01*
X94066574Y-69540928D01*
X94070176Y-69538768D01*
X94074525Y-69540939D01*
X94075955Y-69542135D01*
X94113027Y-69567285D01*
X94165828Y-69593183D01*
X94227830Y-69616792D01*
X94254243Y-69625061D01*
X94272184Y-69629678D01*
X94293245Y-69633579D01*
X94319511Y-69636848D01*
X94353068Y-69639566D01*
X94396001Y-69641815D01*
X94450396Y-69643677D01*
X94518338Y-69645236D01*
X94601912Y-69646572D01*
X94703205Y-69647769D01*
X94824300Y-69648908D01*
X94869000Y-69649285D01*
X94994151Y-69650302D01*
X95098518Y-69651060D01*
X95183893Y-69651503D01*
X95252067Y-69651570D01*
X95304835Y-69651205D01*
X95343986Y-69650348D01*
X95371315Y-69648941D01*
X95388614Y-69646925D01*
X95397674Y-69644243D01*
X95400288Y-69640836D01*
X95398249Y-69636644D01*
X95393933Y-69632171D01*
X95380998Y-69621816D01*
X95351924Y-69599758D01*
X95308841Y-69567557D01*
X95253882Y-69526774D01*
X95189177Y-69478970D01*
X95116858Y-69425705D01*
X95039056Y-69368540D01*
X94957902Y-69309037D01*
X94875528Y-69248755D01*
X94794064Y-69189255D01*
X94715643Y-69132098D01*
X94642396Y-69078845D01*
X94576453Y-69031057D01*
X94519946Y-68990293D01*
X94475007Y-68958116D01*
X94443766Y-68936085D01*
X94437134Y-68931517D01*
X94400231Y-68908596D01*
X94352241Y-68881788D01*
X94302703Y-68856389D01*
X94296023Y-68853168D01*
X94247828Y-68831490D01*
X94210266Y-68818904D01*
X94174440Y-68813174D01*
X94132400Y-68812056D01*
X94056200Y-68812690D01*
X94056200Y-67658251D01*
X94149931Y-67749415D01*
X94199825Y-67796212D01*
X94256305Y-67846499D01*
X94310574Y-67892544D01*
X94335927Y-67912969D01*
X94375472Y-67943407D01*
X94428684Y-67983462D01*
X94493933Y-68031961D01*
X94569589Y-68087735D01*
X94654023Y-68149611D01*
X94745606Y-68216419D01*
X94842708Y-68286987D01*
X94943699Y-68360145D01*
X95046950Y-68434721D01*
X95150832Y-68509544D01*
X95253715Y-68583443D01*
X95353969Y-68655246D01*
X95449964Y-68723784D01*
X95540073Y-68787884D01*
X95622664Y-68846375D01*
X95696108Y-68898086D01*
X95758776Y-68941847D01*
X95809039Y-68976485D01*
X95845266Y-69000830D01*
X95865829Y-69013711D01*
X95869932Y-69015469D01*
X95881258Y-69007510D01*
X95908438Y-68986715D01*
X95949771Y-68954447D01*
X96003556Y-68912070D01*
X96068094Y-68860947D01*
X96141682Y-68802441D01*
X96222622Y-68737914D01*
X96309212Y-68668731D01*
X96399752Y-68596253D01*
X96492540Y-68521846D01*
X96566898Y-68462117D01*
X96566898Y-67451111D01*
X96553941Y-67445202D01*
X96531692Y-67430872D01*
X96530209Y-67429825D01*
X96500056Y-67411038D01*
X96463225Y-67391391D01*
X96455089Y-67387492D01*
X96446660Y-67383956D01*
X96436541Y-67380830D01*
X96423340Y-67378086D01*
X96405662Y-67375692D01*
X96382116Y-67373619D01*
X96351307Y-67371835D01*
X96311843Y-67370312D01*
X96262331Y-67369019D01*
X96201377Y-67367926D01*
X96127589Y-67367003D01*
X96039572Y-67366219D01*
X95935935Y-67365545D01*
X95815284Y-67364950D01*
X95676226Y-67364405D01*
X95517368Y-67363879D01*
X95338511Y-67363345D01*
X95153393Y-67362806D01*
X94989455Y-67362372D01*
X94845297Y-67362109D01*
X94719521Y-67362084D01*
X94610729Y-67362365D01*
X94517523Y-67363019D01*
X94438503Y-67364114D01*
X94372272Y-67365718D01*
X94317430Y-67367897D01*
X94272579Y-67370719D01*
X94236322Y-67374251D01*
X94207259Y-67378561D01*
X94183991Y-67383717D01*
X94165121Y-67389785D01*
X94149249Y-67396833D01*
X94134978Y-67404929D01*
X94120909Y-67414140D01*
X94108442Y-67422640D01*
X94082148Y-67439776D01*
X94064563Y-67449922D01*
X94061343Y-67451111D01*
X94060266Y-67440204D01*
X94059265Y-67409011D01*
X94058365Y-67359823D01*
X94057590Y-67294933D01*
X94056963Y-67216630D01*
X94056509Y-67127207D01*
X94056251Y-67028956D01*
X94056200Y-66960045D01*
X94056420Y-66855052D01*
X94057052Y-66758210D01*
X94058051Y-66671707D01*
X94059373Y-66597732D01*
X94060974Y-66538474D01*
X94062809Y-66496120D01*
X94064835Y-66472860D01*
X94066107Y-66468978D01*
X94081009Y-66476676D01*
X94089040Y-66484674D01*
X94106166Y-66497846D01*
X94136417Y-66515085D01*
X94160978Y-66527007D01*
X94219889Y-66553645D01*
X95396755Y-66556720D01*
X96573622Y-66559795D01*
X96573622Y-67005453D01*
X96573458Y-67103270D01*
X96572989Y-67193664D01*
X96572253Y-67274230D01*
X96571284Y-67342562D01*
X96570120Y-67396256D01*
X96568797Y-67432905D01*
X96567351Y-67450104D01*
X96566898Y-67451111D01*
X96566898Y-68462117D01*
X96585878Y-68446870D01*
X96678063Y-68372690D01*
X96767396Y-68300669D01*
X96852176Y-68232169D01*
X96930702Y-68168555D01*
X97001274Y-68111188D01*
X97062191Y-68061433D01*
X97111753Y-68020652D01*
X97132422Y-68003488D01*
X97233084Y-67917196D01*
X97316341Y-67840597D01*
X97384162Y-67771783D01*
X97438511Y-67708848D01*
X97445878Y-67699467D01*
X97476483Y-67659956D01*
X97476733Y-68791716D01*
X97428756Y-68786427D01*
X97371412Y-68789730D01*
X97303137Y-68811261D01*
X97223388Y-68851235D01*
X97151105Y-68896543D01*
X97128460Y-68912761D01*
X97090904Y-68940814D01*
X97040579Y-68979030D01*
X96979627Y-69025737D01*
X96910189Y-69079261D01*
X96834406Y-69137931D01*
X96754420Y-69200075D01*
X96672372Y-69264021D01*
X96590404Y-69328095D01*
X96510657Y-69390627D01*
X96435273Y-69449943D01*
X96366393Y-69504371D01*
X96306158Y-69552239D01*
X96256711Y-69591875D01*
X96220192Y-69621606D01*
X96198742Y-69639761D01*
X96195444Y-69642820D01*
X96203451Y-69645679D01*
X96233745Y-69647893D01*
X96286044Y-69649457D01*
X96360069Y-69650367D01*
X96455537Y-69650620D01*
X96572166Y-69650213D01*
X96692155Y-69649304D01*
X96824267Y-69647982D01*
X96936006Y-69646457D01*
X97029575Y-69644481D01*
X97107181Y-69641806D01*
X97171026Y-69638182D01*
X97223317Y-69633361D01*
X97266256Y-69627094D01*
X97302049Y-69619132D01*
X97332900Y-69609227D01*
X97361014Y-69597131D01*
X97388595Y-69582593D01*
X97413634Y-69567911D01*
X97476733Y-69529914D01*
X97476733Y-70589797D01*
X97476733Y-70892634D01*
X97482983Y-70892601D01*
X97585056Y-70891795D01*
X97673967Y-70890770D01*
X97750659Y-70889500D01*
X97816073Y-70887960D01*
X97871151Y-70886124D01*
X97916835Y-70883967D01*
X97954066Y-70881463D01*
X97983787Y-70878587D01*
X98006938Y-70875313D01*
X98024461Y-70871615D01*
X98037299Y-70867469D01*
X98046392Y-70862847D01*
X98052682Y-70857726D01*
X98057112Y-70852078D01*
X98060622Y-70845879D01*
X98064155Y-70839104D01*
X98067724Y-70833108D01*
X98070300Y-70827875D01*
X98072628Y-70819699D01*
X98074722Y-70807486D01*
X98076593Y-70790141D01*
X98078253Y-70766569D01*
X98079716Y-70735677D01*
X98080992Y-70696368D01*
X98082096Y-70647550D01*
X98083039Y-70588127D01*
X98083833Y-70517004D01*
X98084491Y-70433088D01*
X98085025Y-70335283D01*
X98085447Y-70222494D01*
X98085771Y-70093629D01*
X98086008Y-69947591D01*
X98086170Y-69783286D01*
X98086270Y-69599620D01*
X98086320Y-69395497D01*
X98086333Y-69184353D01*
X98086333Y-67564000D01*
X97989546Y-67564000D01*
G36*
X93204067Y-58388777D02*
X93181824Y-58357398D01*
X93154115Y-58329689D01*
X92844680Y-58329689D01*
X92752801Y-58329762D01*
X92680760Y-58330105D01*
X92625820Y-58330908D01*
X92585240Y-58332359D01*
X92556283Y-58334648D01*
X92536209Y-58337964D01*
X92522279Y-58342495D01*
X92511755Y-58348431D01*
X92505500Y-58353086D01*
X92480927Y-58383817D01*
X92478259Y-58419104D01*
X92493329Y-58451355D01*
X92502226Y-58462012D01*
X92514043Y-58469136D01*
X92533074Y-58473433D01*
X92563608Y-58475609D01*
X92609938Y-58476372D01*
X92645729Y-58476445D01*
X92780555Y-58476445D01*
X92780555Y-58973156D01*
X92657900Y-58973156D01*
X92601813Y-58973669D01*
X92563267Y-58975724D01*
X92537239Y-58980092D01*
X92518703Y-58987544D01*
X92505500Y-58996553D01*
X92480996Y-59027456D01*
X92478094Y-59062404D01*
X92495511Y-59095862D01*
X92504641Y-59104996D01*
X92516745Y-59111448D01*
X92535599Y-59115703D01*
X92564980Y-59118248D01*
X92608663Y-59119571D01*
X92670425Y-59120157D01*
X92684600Y-59120225D01*
X92800969Y-59120709D01*
X92896873Y-59120959D01*
X92974423Y-59120877D01*
X93035731Y-59120369D01*
X93082910Y-59119338D01*
X93118070Y-59117687D01*
X93143324Y-59115321D01*
X93160783Y-59112143D01*
X93172559Y-59108056D01*
X93180765Y-59102966D01*
X93186955Y-59097334D01*
X93206756Y-59065472D01*
X93204067Y-59032243D01*
X93181824Y-59000865D01*
X93167474Y-58988167D01*
X93151622Y-58980074D01*
X93129046Y-58975558D01*
X93094522Y-58973594D01*
X93042824Y-58973156D01*
X92927311Y-58973156D01*
X92927311Y-58476445D01*
X93045844Y-58476445D01*
X93100452Y-58475938D01*
X93137325Y-58473902D01*
X93161293Y-58469565D01*
X93177185Y-58462153D01*
X93186955Y-58453867D01*
X93206756Y-58422006D01*
X93204067Y-58388777D01*
X93204067Y-58388777D01*
G37*
X93204067Y-58388777D02*
X93181824Y-58357398D01*
X93154115Y-58329689D01*
X92844680Y-58329689D01*
X92752801Y-58329762D01*
X92680760Y-58330105D01*
X92625820Y-58330908D01*
X92585240Y-58332359D01*
X92556283Y-58334648D01*
X92536209Y-58337964D01*
X92522279Y-58342495D01*
X92511755Y-58348431D01*
X92505500Y-58353086D01*
X92480927Y-58383817D01*
X92478259Y-58419104D01*
X92493329Y-58451355D01*
X92502226Y-58462012D01*
X92514043Y-58469136D01*
X92533074Y-58473433D01*
X92563608Y-58475609D01*
X92609938Y-58476372D01*
X92645729Y-58476445D01*
X92780555Y-58476445D01*
X92780555Y-58973156D01*
X92657900Y-58973156D01*
X92601813Y-58973669D01*
X92563267Y-58975724D01*
X92537239Y-58980092D01*
X92518703Y-58987544D01*
X92505500Y-58996553D01*
X92480996Y-59027456D01*
X92478094Y-59062404D01*
X92495511Y-59095862D01*
X92504641Y-59104996D01*
X92516745Y-59111448D01*
X92535599Y-59115703D01*
X92564980Y-59118248D01*
X92608663Y-59119571D01*
X92670425Y-59120157D01*
X92684600Y-59120225D01*
X92800969Y-59120709D01*
X92896873Y-59120959D01*
X92974423Y-59120877D01*
X93035731Y-59120369D01*
X93082910Y-59119338D01*
X93118070Y-59117687D01*
X93143324Y-59115321D01*
X93160783Y-59112143D01*
X93172559Y-59108056D01*
X93180765Y-59102966D01*
X93186955Y-59097334D01*
X93206756Y-59065472D01*
X93204067Y-59032243D01*
X93181824Y-59000865D01*
X93167474Y-58988167D01*
X93151622Y-58980074D01*
X93129046Y-58975558D01*
X93094522Y-58973594D01*
X93042824Y-58973156D01*
X92927311Y-58973156D01*
X92927311Y-58476445D01*
X93045844Y-58476445D01*
X93100452Y-58475938D01*
X93137325Y-58473902D01*
X93161293Y-58469565D01*
X93177185Y-58462153D01*
X93186955Y-58453867D01*
X93206756Y-58422006D01*
X93204067Y-58388777D01*
G36*
X93209437Y-59654535D02*
X93209058Y-59575828D01*
X93208267Y-59514737D01*
X93206930Y-59468783D01*
X93204917Y-59435486D01*
X93202094Y-59412364D01*
X93198331Y-59396938D01*
X93193495Y-59386729D01*
X93189778Y-59381787D01*
X93157242Y-59356143D01*
X93123462Y-59353041D01*
X93092774Y-59368889D01*
X93080511Y-59379252D01*
X93072150Y-59390404D01*
X93066943Y-59406565D01*
X93064143Y-59431958D01*
X93063004Y-59470802D01*
X93062779Y-59527320D01*
X93062778Y-59538420D01*
X93062778Y-59684356D01*
X92791844Y-59684356D01*
X92706446Y-59684452D01*
X92640736Y-59684889D01*
X92591826Y-59685888D01*
X92556827Y-59687672D01*
X92532851Y-59690463D01*
X92517007Y-59694483D01*
X92506409Y-59699955D01*
X92498333Y-59706934D01*
X92478488Y-59739866D01*
X92480052Y-59774246D01*
X92502694Y-59805424D01*
X92505500Y-59807714D01*
X92516108Y-59815171D01*
X92528519Y-59820853D01*
X92545750Y-59824999D01*
X92570816Y-59827850D01*
X92606733Y-59829646D01*
X92656517Y-59830628D01*
X92723183Y-59831036D01*
X92799011Y-59831111D01*
X93062778Y-59831111D01*
X93062778Y-59970473D01*
X93063182Y-60030278D01*
X93064760Y-60071682D01*
X93068053Y-60098852D01*
X93073608Y-60115954D01*
X93081969Y-60127157D01*
X93083422Y-60128517D01*
X93116661Y-60144875D01*
X93154238Y-60143428D01*
X93186955Y-60124622D01*
X93193302Y-60117350D01*
X93198334Y-60107973D01*
X93202204Y-60093991D01*
X93205063Y-60072904D01*
X93207065Y-60042211D01*
X93208361Y-59999411D01*
X93209102Y-59942005D01*
X93209442Y-59867490D01*
X93209532Y-59773367D01*
X93209533Y-59753340D01*
X93209437Y-59654535D01*
X93209437Y-59654535D01*
G37*
X93209437Y-59654535D02*
X93209058Y-59575828D01*
X93208267Y-59514737D01*
X93206930Y-59468783D01*
X93204917Y-59435486D01*
X93202094Y-59412364D01*
X93198331Y-59396938D01*
X93193495Y-59386729D01*
X93189778Y-59381787D01*
X93157242Y-59356143D01*
X93123462Y-59353041D01*
X93092774Y-59368889D01*
X93080511Y-59379252D01*
X93072150Y-59390404D01*
X93066943Y-59406565D01*
X93064143Y-59431958D01*
X93063004Y-59470802D01*
X93062779Y-59527320D01*
X93062778Y-59538420D01*
X93062778Y-59684356D01*
X92791844Y-59684356D01*
X92706446Y-59684452D01*
X92640736Y-59684889D01*
X92591826Y-59685888D01*
X92556827Y-59687672D01*
X92532851Y-59690463D01*
X92517007Y-59694483D01*
X92506409Y-59699955D01*
X92498333Y-59706934D01*
X92478488Y-59739866D01*
X92480052Y-59774246D01*
X92502694Y-59805424D01*
X92505500Y-59807714D01*
X92516108Y-59815171D01*
X92528519Y-59820853D01*
X92545750Y-59824999D01*
X92570816Y-59827850D01*
X92606733Y-59829646D01*
X92656517Y-59830628D01*
X92723183Y-59831036D01*
X92799011Y-59831111D01*
X93062778Y-59831111D01*
X93062778Y-59970473D01*
X93063182Y-60030278D01*
X93064760Y-60071682D01*
X93068053Y-60098852D01*
X93073608Y-60115954D01*
X93081969Y-60127157D01*
X93083422Y-60128517D01*
X93116661Y-60144875D01*
X93154238Y-60143428D01*
X93186955Y-60124622D01*
X93193302Y-60117350D01*
X93198334Y-60107973D01*
X93202204Y-60093991D01*
X93205063Y-60072904D01*
X93207065Y-60042211D01*
X93208361Y-59999411D01*
X93209102Y-59942005D01*
X93209442Y-59867490D01*
X93209532Y-59773367D01*
X93209533Y-59753340D01*
X93209437Y-59654535D01*
G36*
X93202723Y-60428986D02*
X93187953Y-60405273D01*
X93166373Y-60378622D01*
X92844827Y-60378622D01*
X92750770Y-60378707D01*
X92676668Y-60379071D01*
X92619896Y-60379876D01*
X92577832Y-60381287D01*
X92547852Y-60383467D01*
X92527333Y-60386579D01*
X92513651Y-60390786D01*
X92504184Y-60396252D01*
X92499518Y-60400128D01*
X92479025Y-60431566D01*
X92479861Y-60467367D01*
X92497336Y-60498727D01*
X92518916Y-60525378D01*
X93166373Y-60525378D01*
X93187953Y-60498727D01*
X93203651Y-60473006D01*
X93209533Y-60452000D01*
X93202723Y-60428986D01*
X93202723Y-60428986D01*
G37*
X93202723Y-60428986D02*
X93187953Y-60405273D01*
X93166373Y-60378622D01*
X92844827Y-60378622D01*
X92750770Y-60378707D01*
X92676668Y-60379071D01*
X92619896Y-60379876D01*
X92577832Y-60381287D01*
X92547852Y-60383467D01*
X92527333Y-60386579D01*
X92513651Y-60390786D01*
X92504184Y-60396252D01*
X92499518Y-60400128D01*
X92479025Y-60431566D01*
X92479861Y-60467367D01*
X92497336Y-60498727D01*
X92518916Y-60525378D01*
X93166373Y-60525378D01*
X93187953Y-60498727D01*
X93203651Y-60473006D01*
X93209533Y-60452000D01*
X93202723Y-60428986D01*
G36*
X93207566Y-60872935D02*
X93200565Y-60853345D01*
X93200223Y-60852590D01*
X93179922Y-60825987D01*
X93159039Y-60811330D01*
X93149248Y-60808462D01*
X93136239Y-60808604D01*
X93117705Y-60812639D01*
X93091343Y-60821454D01*
X93054848Y-60835931D01*
X93005913Y-60856955D01*
X92942235Y-60885412D01*
X92861507Y-60922185D01*
X92817384Y-60942425D01*
X92738615Y-60978975D01*
X92666177Y-61013285D01*
X92602720Y-61044048D01*
X92550892Y-61069952D01*
X92513341Y-61089690D01*
X92492716Y-61101950D01*
X92489867Y-61104376D01*
X92477298Y-61135417D01*
X92478981Y-61170479D01*
X92494268Y-61198600D01*
X92495511Y-61199746D01*
X92512446Y-61210932D01*
X92545430Y-61229696D01*
X92590220Y-61253725D01*
X92642568Y-61280703D01*
X92661858Y-61290399D01*
X92808450Y-61363586D01*
X92649207Y-61443360D01*
X92594185Y-61471833D01*
X92546468Y-61498250D01*
X92509707Y-61520452D01*
X92487556Y-61536281D01*
X92482859Y-61541646D01*
X92476498Y-61583343D01*
X92489867Y-61617751D01*
X92504154Y-61627872D01*
X92535908Y-61645386D01*
X92582003Y-61668865D01*
X92639315Y-61696880D01*
X92704720Y-61728001D01*
X92775093Y-61760801D01*
X92847309Y-61793850D01*
X92918245Y-61825719D01*
X92984775Y-61854981D01*
X93043774Y-61880205D01*
X93092119Y-61899964D01*
X93126685Y-61912828D01*
X93144347Y-61917369D01*
X93144987Y-61917323D01*
X93167212Y-61906274D01*
X93189847Y-61884190D01*
X93190832Y-61882890D01*
X93206175Y-61855747D01*
X93206026Y-61830642D01*
X93203134Y-61821232D01*
X93196882Y-61809766D01*
X93184586Y-61797590D01*
X93163692Y-61783243D01*
X93131651Y-61765264D01*
X93085912Y-61742193D01*
X93023923Y-61712570D01*
X92966702Y-61685855D01*
X92900374Y-61655120D01*
X92840726Y-61627579D01*
X92790875Y-61604662D01*
X92753936Y-61587802D01*
X92733027Y-61578427D01*
X92729755Y-61577060D01*
X92735103Y-61570911D01*
X92757491Y-61556778D01*
X92793654Y-61536543D01*
X92840323Y-61512085D01*
X92859578Y-61502352D01*
X92924596Y-61469383D01*
X92971946Y-61443957D01*
X93004381Y-61423988D01*
X93024654Y-61407390D01*
X93035518Y-61392076D01*
X93039725Y-61375960D01*
X93040200Y-61365457D01*
X93038558Y-61346930D01*
X93031769Y-61330696D01*
X93017034Y-61314565D01*
X92991556Y-61296349D01*
X92952539Y-61273861D01*
X92897186Y-61244911D01*
X92865697Y-61228938D01*
X92815513Y-61203030D01*
X92773896Y-61180433D01*
X92744358Y-61163142D01*
X92730411Y-61153150D01*
X92729830Y-61151791D01*
X92740807Y-61145339D01*
X92769310Y-61130892D01*
X92812356Y-61109897D01*
X92866962Y-61083803D01*
X92930146Y-61054054D01*
X92961529Y-61039420D01*
X93042522Y-61001350D01*
X93104844Y-60970695D01*
X93150529Y-60945863D01*
X93181611Y-60925263D01*
X93200122Y-60907302D01*
X93208096Y-60890390D01*
X93207566Y-60872935D01*
X93207566Y-60872935D01*
G37*
X93207566Y-60872935D02*
X93200565Y-60853345D01*
X93200223Y-60852590D01*
X93179922Y-60825987D01*
X93159039Y-60811330D01*
X93149248Y-60808462D01*
X93136239Y-60808604D01*
X93117705Y-60812639D01*
X93091343Y-60821454D01*
X93054848Y-60835931D01*
X93005913Y-60856955D01*
X92942235Y-60885412D01*
X92861507Y-60922185D01*
X92817384Y-60942425D01*
X92738615Y-60978975D01*
X92666177Y-61013285D01*
X92602720Y-61044048D01*
X92550892Y-61069952D01*
X92513341Y-61089690D01*
X92492716Y-61101950D01*
X92489867Y-61104376D01*
X92477298Y-61135417D01*
X92478981Y-61170479D01*
X92494268Y-61198600D01*
X92495511Y-61199746D01*
X92512446Y-61210932D01*
X92545430Y-61229696D01*
X92590220Y-61253725D01*
X92642568Y-61280703D01*
X92661858Y-61290399D01*
X92808450Y-61363586D01*
X92649207Y-61443360D01*
X92594185Y-61471833D01*
X92546468Y-61498250D01*
X92509707Y-61520452D01*
X92487556Y-61536281D01*
X92482859Y-61541646D01*
X92476498Y-61583343D01*
X92489867Y-61617751D01*
X92504154Y-61627872D01*
X92535908Y-61645386D01*
X92582003Y-61668865D01*
X92639315Y-61696880D01*
X92704720Y-61728001D01*
X92775093Y-61760801D01*
X92847309Y-61793850D01*
X92918245Y-61825719D01*
X92984775Y-61854981D01*
X93043774Y-61880205D01*
X93092119Y-61899964D01*
X93126685Y-61912828D01*
X93144347Y-61917369D01*
X93144987Y-61917323D01*
X93167212Y-61906274D01*
X93189847Y-61884190D01*
X93190832Y-61882890D01*
X93206175Y-61855747D01*
X93206026Y-61830642D01*
X93203134Y-61821232D01*
X93196882Y-61809766D01*
X93184586Y-61797590D01*
X93163692Y-61783243D01*
X93131651Y-61765264D01*
X93085912Y-61742193D01*
X93023923Y-61712570D01*
X92966702Y-61685855D01*
X92900374Y-61655120D01*
X92840726Y-61627579D01*
X92790875Y-61604662D01*
X92753936Y-61587802D01*
X92733027Y-61578427D01*
X92729755Y-61577060D01*
X92735103Y-61570911D01*
X92757491Y-61556778D01*
X92793654Y-61536543D01*
X92840323Y-61512085D01*
X92859578Y-61502352D01*
X92924596Y-61469383D01*
X92971946Y-61443957D01*
X93004381Y-61423988D01*
X93024654Y-61407390D01*
X93035518Y-61392076D01*
X93039725Y-61375960D01*
X93040200Y-61365457D01*
X93038558Y-61346930D01*
X93031769Y-61330696D01*
X93017034Y-61314565D01*
X92991556Y-61296349D01*
X92952539Y-61273861D01*
X92897186Y-61244911D01*
X92865697Y-61228938D01*
X92815513Y-61203030D01*
X92773896Y-61180433D01*
X92744358Y-61163142D01*
X92730411Y-61153150D01*
X92729830Y-61151791D01*
X92740807Y-61145339D01*
X92769310Y-61130892D01*
X92812356Y-61109897D01*
X92866962Y-61083803D01*
X92930146Y-61054054D01*
X92961529Y-61039420D01*
X93042522Y-61001350D01*
X93104844Y-60970695D01*
X93150529Y-60945863D01*
X93181611Y-60925263D01*
X93200122Y-60907302D01*
X93208096Y-60890390D01*
X93207566Y-60872935D01*
G36*
X93209325Y-63599291D02*
X93204964Y-63470312D01*
X93191739Y-63360609D01*
X93168859Y-63268374D01*
X93135530Y-63191798D01*
X93090962Y-63129073D01*
X93034364Y-63078388D01*
X92964942Y-63037937D01*
X92963249Y-63037141D01*
X92901117Y-63012999D01*
X92846091Y-63004397D01*
X92790713Y-63011369D01*
X92727527Y-63033946D01*
X92717911Y-63038228D01*
X92661634Y-63067428D01*
X92618149Y-63100244D01*
X92581183Y-63142598D01*
X92544465Y-63200410D01*
X92542548Y-63203769D01*
X92518373Y-63254096D01*
X92500318Y-63310979D01*
X92487761Y-63378073D01*
X92480078Y-63459035D01*
X92476647Y-63557518D01*
X92476349Y-63592314D01*
X92475755Y-63758006D01*
X92505500Y-63781403D01*
X92515281Y-63788343D01*
X92526703Y-63793758D01*
X92542505Y-63797835D01*
X92565425Y-63800763D01*
X92598204Y-63802733D01*
X92622511Y-63803375D01*
X92622511Y-63646756D01*
X92622511Y-63552874D01*
X92624117Y-63497936D01*
X92628345Y-63441540D01*
X92634308Y-63395255D01*
X92634810Y-63392461D01*
X92656864Y-63310252D01*
X92690000Y-63246486D01*
X92735753Y-63199148D01*
X92795661Y-63166218D01*
X92811539Y-63160492D01*
X92836267Y-63154879D01*
X92860698Y-63157309D01*
X92893200Y-63169133D01*
X92909166Y-63176260D01*
X92951594Y-63199600D01*
X92981360Y-63227720D01*
X93002089Y-63258660D01*
X93029063Y-63320634D01*
X93048602Y-63399949D01*
X93059854Y-63492347D01*
X93062330Y-63559267D01*
X93062778Y-63646756D01*
X92622511Y-63646756D01*
X92622511Y-63803375D01*
X92643579Y-63803932D01*
X92704289Y-63804550D01*
X92783074Y-63804775D01*
X92844680Y-63804800D01*
X93154115Y-63804800D01*
X93181824Y-63777091D01*
X93193056Y-63764794D01*
X93200747Y-63751497D01*
X93205560Y-63732928D01*
X93208154Y-63704814D01*
X93209190Y-63662883D01*
X93209330Y-63602863D01*
X93209325Y-63599291D01*
X93209325Y-63599291D01*
G37*
X93209325Y-63599291D02*
X93204964Y-63470312D01*
X93191739Y-63360609D01*
X93168859Y-63268374D01*
X93135530Y-63191798D01*
X93090962Y-63129073D01*
X93034364Y-63078388D01*
X92964942Y-63037937D01*
X92963249Y-63037141D01*
X92901117Y-63012999D01*
X92846091Y-63004397D01*
X92790713Y-63011369D01*
X92727527Y-63033946D01*
X92717911Y-63038228D01*
X92661634Y-63067428D01*
X92618149Y-63100244D01*
X92581183Y-63142598D01*
X92544465Y-63200410D01*
X92542548Y-63203769D01*
X92518373Y-63254096D01*
X92500318Y-63310979D01*
X92487761Y-63378073D01*
X92480078Y-63459035D01*
X92476647Y-63557518D01*
X92476349Y-63592314D01*
X92475755Y-63758006D01*
X92505500Y-63781403D01*
X92515281Y-63788343D01*
X92526703Y-63793758D01*
X92542505Y-63797835D01*
X92565425Y-63800763D01*
X92598204Y-63802733D01*
X92622511Y-63803375D01*
X92622511Y-63646756D01*
X92622511Y-63552874D01*
X92624117Y-63497936D01*
X92628345Y-63441540D01*
X92634308Y-63395255D01*
X92634810Y-63392461D01*
X92656864Y-63310252D01*
X92690000Y-63246486D01*
X92735753Y-63199148D01*
X92795661Y-63166218D01*
X92811539Y-63160492D01*
X92836267Y-63154879D01*
X92860698Y-63157309D01*
X92893200Y-63169133D01*
X92909166Y-63176260D01*
X92951594Y-63199600D01*
X92981360Y-63227720D01*
X93002089Y-63258660D01*
X93029063Y-63320634D01*
X93048602Y-63399949D01*
X93059854Y-63492347D01*
X93062330Y-63559267D01*
X93062778Y-63646756D01*
X92622511Y-63646756D01*
X92622511Y-63803375D01*
X92643579Y-63803932D01*
X92704289Y-63804550D01*
X92783074Y-63804775D01*
X92844680Y-63804800D01*
X93154115Y-63804800D01*
X93181824Y-63777091D01*
X93193056Y-63764794D01*
X93200747Y-63751497D01*
X93205560Y-63732928D01*
X93208154Y-63704814D01*
X93209190Y-63662883D01*
X93209330Y-63602863D01*
X93209325Y-63599291D01*
G36*
X93209340Y-64387257D02*
X93208426Y-64310899D01*
X93206289Y-64252383D01*
X93202425Y-64209345D01*
X93196333Y-64179417D01*
X93187510Y-64160232D01*
X93175454Y-64149424D01*
X93159661Y-64144627D01*
X93139630Y-64143473D01*
X93137265Y-64143467D01*
X93114608Y-64144469D01*
X93097097Y-64149204D01*
X93084026Y-64160267D01*
X93074687Y-64180252D01*
X93068373Y-64211754D01*
X93064378Y-64257368D01*
X93061994Y-64319687D01*
X93060514Y-64401307D01*
X93060186Y-64426323D01*
X93057133Y-64668400D01*
X92992222Y-64671786D01*
X92927311Y-64675171D01*
X92927311Y-64507024D01*
X92927069Y-64441334D01*
X92926044Y-64394428D01*
X92923789Y-64362517D01*
X92919858Y-64341809D01*
X92913802Y-64328516D01*
X92905176Y-64318845D01*
X92905107Y-64318783D01*
X92871488Y-64301244D01*
X92835152Y-64301878D01*
X92804177Y-64320286D01*
X92800993Y-64323929D01*
X92792788Y-64336859D01*
X92787079Y-64354576D01*
X92783438Y-64381030D01*
X92781433Y-64420168D01*
X92780636Y-64475938D01*
X92780555Y-64511606D01*
X92780555Y-64674045D01*
X92622511Y-64674045D01*
X92622511Y-64427439D01*
X92622369Y-64346020D01*
X92621786Y-64284190D01*
X92620532Y-64238963D01*
X92618373Y-64207352D01*
X92615077Y-64186369D01*
X92610411Y-64173027D01*
X92604143Y-64164339D01*
X92601867Y-64162150D01*
X92570320Y-64145986D01*
X92534432Y-64144803D01*
X92503315Y-64158064D01*
X92493329Y-64168557D01*
X92487831Y-64179471D01*
X92483578Y-64196383D01*
X92480420Y-64221967D01*
X92478208Y-64258899D01*
X92476794Y-64309854D01*
X92476028Y-64377506D01*
X92475762Y-64464531D01*
X92475755Y-64484206D01*
X92475813Y-64572689D01*
X92476133Y-64641373D01*
X92476933Y-64693036D01*
X92478433Y-64730455D01*
X92480851Y-64756410D01*
X92484406Y-64773678D01*
X92489318Y-64785038D01*
X92495805Y-64793268D01*
X92500462Y-64797783D01*
X92508711Y-64804579D01*
X92518931Y-64809888D01*
X92533800Y-64813894D01*
X92555998Y-64816779D01*
X92588207Y-64818726D01*
X92633104Y-64819919D01*
X92693372Y-64820539D01*
X92771689Y-64820771D01*
X92837606Y-64820800D01*
X92929972Y-64820729D01*
X93002483Y-64820392D01*
X93057863Y-64819602D01*
X93098835Y-64818174D01*
X93128122Y-64815921D01*
X93148447Y-64812657D01*
X93162534Y-64808196D01*
X93173105Y-64802352D01*
X93179789Y-64797403D01*
X93209533Y-64774006D01*
X93209533Y-64483826D01*
X93209340Y-64387257D01*
X93209340Y-64387257D01*
G37*
X93209340Y-64387257D02*
X93208426Y-64310899D01*
X93206289Y-64252383D01*
X93202425Y-64209345D01*
X93196333Y-64179417D01*
X93187510Y-64160232D01*
X93175454Y-64149424D01*
X93159661Y-64144627D01*
X93139630Y-64143473D01*
X93137265Y-64143467D01*
X93114608Y-64144469D01*
X93097097Y-64149204D01*
X93084026Y-64160267D01*
X93074687Y-64180252D01*
X93068373Y-64211754D01*
X93064378Y-64257368D01*
X93061994Y-64319687D01*
X93060514Y-64401307D01*
X93060186Y-64426323D01*
X93057133Y-64668400D01*
X92992222Y-64671786D01*
X92927311Y-64675171D01*
X92927311Y-64507024D01*
X92927069Y-64441334D01*
X92926044Y-64394428D01*
X92923789Y-64362517D01*
X92919858Y-64341809D01*
X92913802Y-64328516D01*
X92905176Y-64318845D01*
X92905107Y-64318783D01*
X92871488Y-64301244D01*
X92835152Y-64301878D01*
X92804177Y-64320286D01*
X92800993Y-64323929D01*
X92792788Y-64336859D01*
X92787079Y-64354576D01*
X92783438Y-64381030D01*
X92781433Y-64420168D01*
X92780636Y-64475938D01*
X92780555Y-64511606D01*
X92780555Y-64674045D01*
X92622511Y-64674045D01*
X92622511Y-64427439D01*
X92622369Y-64346020D01*
X92621786Y-64284190D01*
X92620532Y-64238963D01*
X92618373Y-64207352D01*
X92615077Y-64186369D01*
X92610411Y-64173027D01*
X92604143Y-64164339D01*
X92601867Y-64162150D01*
X92570320Y-64145986D01*
X92534432Y-64144803D01*
X92503315Y-64158064D01*
X92493329Y-64168557D01*
X92487831Y-64179471D01*
X92483578Y-64196383D01*
X92480420Y-64221967D01*
X92478208Y-64258899D01*
X92476794Y-64309854D01*
X92476028Y-64377506D01*
X92475762Y-64464531D01*
X92475755Y-64484206D01*
X92475813Y-64572689D01*
X92476133Y-64641373D01*
X92476933Y-64693036D01*
X92478433Y-64730455D01*
X92480851Y-64756410D01*
X92484406Y-64773678D01*
X92489318Y-64785038D01*
X92495805Y-64793268D01*
X92500462Y-64797783D01*
X92508711Y-64804579D01*
X92518931Y-64809888D01*
X92533800Y-64813894D01*
X92555998Y-64816779D01*
X92588207Y-64818726D01*
X92633104Y-64819919D01*
X92693372Y-64820539D01*
X92771689Y-64820771D01*
X92837606Y-64820800D01*
X92929972Y-64820729D01*
X93002483Y-64820392D01*
X93057863Y-64819602D01*
X93098835Y-64818174D01*
X93128122Y-64815921D01*
X93148447Y-64812657D01*
X93162534Y-64808196D01*
X93173105Y-64802352D01*
X93179789Y-64797403D01*
X93209533Y-64774006D01*
X93209533Y-64483826D01*
X93209340Y-64387257D01*
G36*
X93205152Y-65917714D02*
X93191327Y-65894148D01*
X93168719Y-65863335D01*
X93136262Y-65823678D01*
X93092892Y-65773580D01*
X93037542Y-65711443D01*
X92969149Y-65635672D01*
X92890516Y-65548934D01*
X92726722Y-65368311D01*
X92946571Y-65362667D01*
X93022249Y-65360629D01*
X93078606Y-65358663D01*
X93118894Y-65356334D01*
X93146365Y-65353206D01*
X93164271Y-65348845D01*
X93175863Y-65342816D01*
X93184392Y-65334684D01*
X93187977Y-65330372D01*
X93206930Y-65295841D01*
X93204159Y-65262983D01*
X93187967Y-65236918D01*
X93166401Y-65210267D01*
X92851449Y-65206952D01*
X92758821Y-65206035D01*
X92686056Y-65205568D01*
X92630439Y-65205713D01*
X92589258Y-65206632D01*
X92559797Y-65208487D01*
X92539345Y-65211439D01*
X92525187Y-65215650D01*
X92514609Y-65221282D01*
X92506126Y-65227527D01*
X92490393Y-65241039D01*
X92479964Y-65254483D01*
X92475961Y-65269724D01*
X92479506Y-65288626D01*
X92491721Y-65313055D01*
X92513729Y-65344873D01*
X92546651Y-65385948D01*
X92591609Y-65438142D01*
X92649725Y-65503322D01*
X92716501Y-65577156D01*
X92957142Y-65842445D01*
X92738011Y-65848089D01*
X92662472Y-65850131D01*
X92606246Y-65852102D01*
X92566076Y-65854439D01*
X92538704Y-65857581D01*
X92520872Y-65861964D01*
X92509321Y-65868024D01*
X92500793Y-65876200D01*
X92497318Y-65880384D01*
X92478228Y-65917365D01*
X92481107Y-65952308D01*
X92505500Y-65982736D01*
X92515314Y-65989697D01*
X92526774Y-65995123D01*
X92542632Y-65999203D01*
X92565637Y-66002129D01*
X92598538Y-66004092D01*
X92644084Y-66005283D01*
X92705027Y-66005892D01*
X92784114Y-66006111D01*
X92842644Y-66006134D01*
X92934193Y-66006060D01*
X93005913Y-66005713D01*
X93060555Y-66004901D01*
X93100868Y-66003433D01*
X93129602Y-66001119D01*
X93149507Y-65997767D01*
X93163332Y-65993188D01*
X93173828Y-65987189D01*
X93179789Y-65982736D01*
X93193909Y-65971450D01*
X93204571Y-65960901D01*
X93210708Y-65949493D01*
X93211257Y-65935630D01*
X93205152Y-65917714D01*
X93205152Y-65917714D01*
G37*
X93205152Y-65917714D02*
X93191327Y-65894148D01*
X93168719Y-65863335D01*
X93136262Y-65823678D01*
X93092892Y-65773580D01*
X93037542Y-65711443D01*
X92969149Y-65635672D01*
X92890516Y-65548934D01*
X92726722Y-65368311D01*
X92946571Y-65362667D01*
X93022249Y-65360629D01*
X93078606Y-65358663D01*
X93118894Y-65356334D01*
X93146365Y-65353206D01*
X93164271Y-65348845D01*
X93175863Y-65342816D01*
X93184392Y-65334684D01*
X93187977Y-65330372D01*
X93206930Y-65295841D01*
X93204159Y-65262983D01*
X93187967Y-65236918D01*
X93166401Y-65210267D01*
X92851449Y-65206952D01*
X92758821Y-65206035D01*
X92686056Y-65205568D01*
X92630439Y-65205713D01*
X92589258Y-65206632D01*
X92559797Y-65208487D01*
X92539345Y-65211439D01*
X92525187Y-65215650D01*
X92514609Y-65221282D01*
X92506126Y-65227527D01*
X92490393Y-65241039D01*
X92479964Y-65254483D01*
X92475961Y-65269724D01*
X92479506Y-65288626D01*
X92491721Y-65313055D01*
X92513729Y-65344873D01*
X92546651Y-65385948D01*
X92591609Y-65438142D01*
X92649725Y-65503322D01*
X92716501Y-65577156D01*
X92957142Y-65842445D01*
X92738011Y-65848089D01*
X92662472Y-65850131D01*
X92606246Y-65852102D01*
X92566076Y-65854439D01*
X92538704Y-65857581D01*
X92520872Y-65861964D01*
X92509321Y-65868024D01*
X92500793Y-65876200D01*
X92497318Y-65880384D01*
X92478228Y-65917365D01*
X92481107Y-65952308D01*
X92505500Y-65982736D01*
X92515314Y-65989697D01*
X92526774Y-65995123D01*
X92542632Y-65999203D01*
X92565637Y-66002129D01*
X92598538Y-66004092D01*
X92644084Y-66005283D01*
X92705027Y-66005892D01*
X92784114Y-66006111D01*
X92842644Y-66006134D01*
X92934193Y-66006060D01*
X93005913Y-66005713D01*
X93060555Y-66004901D01*
X93100868Y-66003433D01*
X93129602Y-66001119D01*
X93149507Y-65997767D01*
X93163332Y-65993188D01*
X93173828Y-65987189D01*
X93179789Y-65982736D01*
X93193909Y-65971450D01*
X93204571Y-65960901D01*
X93210708Y-65949493D01*
X93211257Y-65935630D01*
X93205152Y-65917714D01*
G36*
X93204001Y-66567681D02*
X93192505Y-66499165D01*
X93174633Y-66446543D01*
X93151101Y-66412308D01*
X93137676Y-66402979D01*
X93106452Y-66393493D01*
X93078205Y-66399877D01*
X93051418Y-66420030D01*
X93038887Y-66451345D01*
X93039904Y-66496783D01*
X93046694Y-66531926D01*
X93059629Y-66610019D01*
X93060858Y-66689826D01*
X93050359Y-66779155D01*
X93045910Y-66803829D01*
X93022492Y-66886891D01*
X92987655Y-66951873D01*
X92941996Y-66998061D01*
X92886106Y-67024745D01*
X92857212Y-67030263D01*
X92798588Y-67026651D01*
X92746721Y-67003329D01*
X92702622Y-66962424D01*
X92667301Y-66906059D01*
X92641771Y-66836360D01*
X92627041Y-66755452D01*
X92624122Y-66665460D01*
X92634025Y-66568510D01*
X92634959Y-66563036D01*
X92642141Y-66524475D01*
X92649079Y-66503094D01*
X92659373Y-66493827D01*
X92676624Y-66491606D01*
X92685759Y-66491556D01*
X92724111Y-66491556D01*
X92724111Y-66560031D01*
X92728253Y-66620500D01*
X92741453Y-66661765D01*
X92764870Y-66685775D01*
X92799664Y-66694477D01*
X92804206Y-66694583D01*
X92833946Y-66689492D01*
X92855181Y-66672033D01*
X92869234Y-66639539D01*
X92877427Y-66589343D01*
X92880439Y-66540723D01*
X92882167Y-66470056D01*
X92879530Y-66418798D01*
X92869800Y-66383839D01*
X92850247Y-66362070D01*
X92818144Y-66350380D01*
X92770762Y-66345660D01*
X92708529Y-66344800D01*
X92639065Y-66346209D01*
X92591814Y-66350448D01*
X92566588Y-66357536D01*
X92564612Y-66358911D01*
X92533092Y-66397828D01*
X92508130Y-66454886D01*
X92490260Y-66526469D01*
X92480014Y-66608958D01*
X92477927Y-66698739D01*
X92484532Y-66792192D01*
X92492644Y-66847156D01*
X92517046Y-66933366D01*
X92556938Y-67013492D01*
X92608713Y-67080577D01*
X92619061Y-67090773D01*
X92662565Y-67123902D01*
X92716482Y-67153794D01*
X92773008Y-67176957D01*
X92824341Y-67189898D01*
X92844056Y-67191458D01*
X92885181Y-67184818D01*
X92936348Y-67167168D01*
X92990206Y-67141897D01*
X93039405Y-67112389D01*
X93072266Y-67086319D01*
X93121148Y-67025365D01*
X93160055Y-66946569D01*
X93188106Y-66852757D01*
X93204421Y-66746750D01*
X93208408Y-66649600D01*
X93204001Y-66567681D01*
X93204001Y-66567681D01*
G37*
X93204001Y-66567681D02*
X93192505Y-66499165D01*
X93174633Y-66446543D01*
X93151101Y-66412308D01*
X93137676Y-66402979D01*
X93106452Y-66393493D01*
X93078205Y-66399877D01*
X93051418Y-66420030D01*
X93038887Y-66451345D01*
X93039904Y-66496783D01*
X93046694Y-66531926D01*
X93059629Y-66610019D01*
X93060858Y-66689826D01*
X93050359Y-66779155D01*
X93045910Y-66803829D01*
X93022492Y-66886891D01*
X92987655Y-66951873D01*
X92941996Y-66998061D01*
X92886106Y-67024745D01*
X92857212Y-67030263D01*
X92798588Y-67026651D01*
X92746721Y-67003329D01*
X92702622Y-66962424D01*
X92667301Y-66906059D01*
X92641771Y-66836360D01*
X92627041Y-66755452D01*
X92624122Y-66665460D01*
X92634025Y-66568510D01*
X92634959Y-66563036D01*
X92642141Y-66524475D01*
X92649079Y-66503094D01*
X92659373Y-66493827D01*
X92676624Y-66491606D01*
X92685759Y-66491556D01*
X92724111Y-66491556D01*
X92724111Y-66560031D01*
X92728253Y-66620500D01*
X92741453Y-66661765D01*
X92764870Y-66685775D01*
X92799664Y-66694477D01*
X92804206Y-66694583D01*
X92833946Y-66689492D01*
X92855181Y-66672033D01*
X92869234Y-66639539D01*
X92877427Y-66589343D01*
X92880439Y-66540723D01*
X92882167Y-66470056D01*
X92879530Y-66418798D01*
X92869800Y-66383839D01*
X92850247Y-66362070D01*
X92818144Y-66350380D01*
X92770762Y-66345660D01*
X92708529Y-66344800D01*
X92639065Y-66346209D01*
X92591814Y-66350448D01*
X92566588Y-66357536D01*
X92564612Y-66358911D01*
X92533092Y-66397828D01*
X92508130Y-66454886D01*
X92490260Y-66526469D01*
X92480014Y-66608958D01*
X92477927Y-66698739D01*
X92484532Y-66792192D01*
X92492644Y-66847156D01*
X92517046Y-66933366D01*
X92556938Y-67013492D01*
X92608713Y-67080577D01*
X92619061Y-67090773D01*
X92662565Y-67123902D01*
X92716482Y-67153794D01*
X92773008Y-67176957D01*
X92824341Y-67189898D01*
X92844056Y-67191458D01*
X92885181Y-67184818D01*
X92936348Y-67167168D01*
X92990206Y-67141897D01*
X93039405Y-67112389D01*
X93072266Y-67086319D01*
X93121148Y-67025365D01*
X93160055Y-66946569D01*
X93188106Y-66852757D01*
X93204421Y-66746750D01*
X93208408Y-66649600D01*
X93204001Y-66567681D01*
G36*
X93186955Y-67541422D02*
X93179382Y-67534842D01*
X93169613Y-67529679D01*
X93155029Y-67525764D01*
X93133015Y-67522924D01*
X93100952Y-67520987D01*
X93056225Y-67519783D01*
X92996215Y-67519139D01*
X92918306Y-67518884D01*
X92842644Y-67518845D01*
X92748798Y-67518914D01*
X92674911Y-67519238D01*
X92618368Y-67519986D01*
X92576551Y-67521332D01*
X92546843Y-67523446D01*
X92526627Y-67526500D01*
X92513286Y-67530666D01*
X92504202Y-67536116D01*
X92498333Y-67541422D01*
X92478653Y-67574426D01*
X92480419Y-67609591D01*
X92501883Y-67641055D01*
X92510263Y-67648284D01*
X92519986Y-67653934D01*
X92533739Y-67658199D01*
X92554211Y-67661273D01*
X92584088Y-67663352D01*
X92626059Y-67664630D01*
X92682811Y-67665301D01*
X92757033Y-67665559D01*
X92841063Y-67665600D01*
X93154115Y-67665600D01*
X93181824Y-67637891D01*
X93205137Y-67603737D01*
X93205977Y-67570606D01*
X93186955Y-67541422D01*
X93186955Y-67541422D01*
G37*
X93186955Y-67541422D02*
X93179382Y-67534842D01*
X93169613Y-67529679D01*
X93155029Y-67525764D01*
X93133015Y-67522924D01*
X93100952Y-67520987D01*
X93056225Y-67519783D01*
X92996215Y-67519139D01*
X92918306Y-67518884D01*
X92842644Y-67518845D01*
X92748798Y-67518914D01*
X92674911Y-67519238D01*
X92618368Y-67519986D01*
X92576551Y-67521332D01*
X92546843Y-67523446D01*
X92526627Y-67526500D01*
X92513286Y-67530666D01*
X92504202Y-67536116D01*
X92498333Y-67541422D01*
X92478653Y-67574426D01*
X92480419Y-67609591D01*
X92501883Y-67641055D01*
X92510263Y-67648284D01*
X92519986Y-67653934D01*
X92533739Y-67658199D01*
X92554211Y-67661273D01*
X92584088Y-67663352D01*
X92626059Y-67664630D01*
X92682811Y-67665301D01*
X92757033Y-67665559D01*
X92841063Y-67665600D01*
X93154115Y-67665600D01*
X93181824Y-67637891D01*
X93205137Y-67603737D01*
X93205977Y-67570606D01*
X93186955Y-67541422D01*
G36*
X93208249Y-68309303D02*
X93203019Y-68234488D01*
X93194850Y-68164906D01*
X93184050Y-68104602D01*
X93170927Y-68057620D01*
X93155787Y-68028006D01*
X93151331Y-68023460D01*
X93116750Y-68007654D01*
X93081249Y-68012447D01*
X93050875Y-68036964D01*
X93050004Y-68038134D01*
X93040646Y-68052554D01*
X93035724Y-68067608D01*
X93035127Y-68088605D01*
X93038739Y-68120857D01*
X93046446Y-68169673D01*
X93047095Y-68173600D01*
X93056031Y-68246339D01*
X93060439Y-68324817D01*
X93060481Y-68403527D01*
X93056321Y-68476961D01*
X93048121Y-68539611D01*
X93036043Y-68585970D01*
X93034829Y-68589016D01*
X93015985Y-68622648D01*
X92996915Y-68634464D01*
X92978161Y-68625214D01*
X92960263Y-68595647D01*
X92943763Y-68546511D01*
X92929204Y-68478557D01*
X92922194Y-68433245D01*
X92908711Y-68339056D01*
X92896386Y-68264144D01*
X92884151Y-68205317D01*
X92870939Y-68159385D01*
X92855683Y-68123155D01*
X92837315Y-68093438D01*
X92814769Y-68067042D01*
X92792629Y-68045830D01*
X92761781Y-68020665D01*
X92735255Y-68008281D01*
X92702574Y-68004408D01*
X92690605Y-68004267D01*
X92650888Y-68007176D01*
X92621341Y-68018802D01*
X92595114Y-68038923D01*
X92555024Y-68079816D01*
X92524451Y-68125417D01*
X92502397Y-68179113D01*
X92487865Y-68244292D01*
X92479859Y-68324344D01*
X92477382Y-68422657D01*
X92477423Y-68438889D01*
X92478782Y-68504449D01*
X92481870Y-68569466D01*
X92486244Y-68626852D01*
X92491460Y-68669522D01*
X92492059Y-68672972D01*
X92502109Y-68715396D01*
X92514804Y-68751380D01*
X92526410Y-68771750D01*
X92557028Y-68790707D01*
X92592682Y-68792027D01*
X92624456Y-68775685D01*
X92628049Y-68772029D01*
X92638724Y-68756915D01*
X92643324Y-68738015D01*
X92642541Y-68708762D01*
X92638473Y-68673251D01*
X92634838Y-68633570D01*
X92631772Y-68577945D01*
X92629547Y-68513006D01*
X92628436Y-68445385D01*
X92628363Y-68427600D01*
X92628636Y-68359728D01*
X92629954Y-68310054D01*
X92632773Y-68274210D01*
X92637550Y-68247824D01*
X92644743Y-68226526D01*
X92650733Y-68213726D01*
X92667367Y-68185600D01*
X92682432Y-68167668D01*
X92686703Y-68165047D01*
X92704337Y-68170576D01*
X92721408Y-68196860D01*
X92737142Y-68242078D01*
X92750762Y-68304408D01*
X92753796Y-68322771D01*
X92768862Y-68418690D01*
X92781454Y-68495241D01*
X92792489Y-68555380D01*
X92802880Y-68602060D01*
X92813544Y-68638237D01*
X92825395Y-68666865D01*
X92839349Y-68690898D01*
X92856319Y-68713292D01*
X92877222Y-68737002D01*
X92884551Y-68744980D01*
X92911901Y-68772953D01*
X92933571Y-68787760D01*
X92958368Y-68793552D01*
X92989617Y-68794489D01*
X93050895Y-68784175D01*
X93102960Y-68753352D01*
X93145642Y-68702195D01*
X93178775Y-68630883D01*
X93193636Y-68580000D01*
X93203234Y-68524700D01*
X93208664Y-68458453D01*
X93210233Y-68385306D01*
X93208249Y-68309303D01*
X93208249Y-68309303D01*
G37*
X93208249Y-68309303D02*
X93203019Y-68234488D01*
X93194850Y-68164906D01*
X93184050Y-68104602D01*
X93170927Y-68057620D01*
X93155787Y-68028006D01*
X93151331Y-68023460D01*
X93116750Y-68007654D01*
X93081249Y-68012447D01*
X93050875Y-68036964D01*
X93050004Y-68038134D01*
X93040646Y-68052554D01*
X93035724Y-68067608D01*
X93035127Y-68088605D01*
X93038739Y-68120857D01*
X93046446Y-68169673D01*
X93047095Y-68173600D01*
X93056031Y-68246339D01*
X93060439Y-68324817D01*
X93060481Y-68403527D01*
X93056321Y-68476961D01*
X93048121Y-68539611D01*
X93036043Y-68585970D01*
X93034829Y-68589016D01*
X93015985Y-68622648D01*
X92996915Y-68634464D01*
X92978161Y-68625214D01*
X92960263Y-68595647D01*
X92943763Y-68546511D01*
X92929204Y-68478557D01*
X92922194Y-68433245D01*
X92908711Y-68339056D01*
X92896386Y-68264144D01*
X92884151Y-68205317D01*
X92870939Y-68159385D01*
X92855683Y-68123155D01*
X92837315Y-68093438D01*
X92814769Y-68067042D01*
X92792629Y-68045830D01*
X92761781Y-68020665D01*
X92735255Y-68008281D01*
X92702574Y-68004408D01*
X92690605Y-68004267D01*
X92650888Y-68007176D01*
X92621341Y-68018802D01*
X92595114Y-68038923D01*
X92555024Y-68079816D01*
X92524451Y-68125417D01*
X92502397Y-68179113D01*
X92487865Y-68244292D01*
X92479859Y-68324344D01*
X92477382Y-68422657D01*
X92477423Y-68438889D01*
X92478782Y-68504449D01*
X92481870Y-68569466D01*
X92486244Y-68626852D01*
X92491460Y-68669522D01*
X92492059Y-68672972D01*
X92502109Y-68715396D01*
X92514804Y-68751380D01*
X92526410Y-68771750D01*
X92557028Y-68790707D01*
X92592682Y-68792027D01*
X92624456Y-68775685D01*
X92628049Y-68772029D01*
X92638724Y-68756915D01*
X92643324Y-68738015D01*
X92642541Y-68708762D01*
X92638473Y-68673251D01*
X92634838Y-68633570D01*
X92631772Y-68577945D01*
X92629547Y-68513006D01*
X92628436Y-68445385D01*
X92628363Y-68427600D01*
X92628636Y-68359728D01*
X92629954Y-68310054D01*
X92632773Y-68274210D01*
X92637550Y-68247824D01*
X92644743Y-68226526D01*
X92650733Y-68213726D01*
X92667367Y-68185600D01*
X92682432Y-68167668D01*
X92686703Y-68165047D01*
X92704337Y-68170576D01*
X92721408Y-68196860D01*
X92737142Y-68242078D01*
X92750762Y-68304408D01*
X92753796Y-68322771D01*
X92768862Y-68418690D01*
X92781454Y-68495241D01*
X92792489Y-68555380D01*
X92802880Y-68602060D01*
X92813544Y-68638237D01*
X92825395Y-68666865D01*
X92839349Y-68690898D01*
X92856319Y-68713292D01*
X92877222Y-68737002D01*
X92884551Y-68744980D01*
X92911901Y-68772953D01*
X92933571Y-68787760D01*
X92958368Y-68793552D01*
X92989617Y-68794489D01*
X93050895Y-68784175D01*
X93102960Y-68753352D01*
X93145642Y-68702195D01*
X93178775Y-68630883D01*
X93193636Y-68580000D01*
X93203234Y-68524700D01*
X93208664Y-68458453D01*
X93210233Y-68385306D01*
X93208249Y-68309303D01*
G36*
X93209454Y-69330394D02*
X93209082Y-69260986D01*
X93208215Y-69208597D01*
X93206654Y-69170447D01*
X93204197Y-69143759D01*
X93200643Y-69125753D01*
X93195790Y-69113649D01*
X93189439Y-69104669D01*
X93186516Y-69101418D01*
X93155458Y-69081643D01*
X93119772Y-69078082D01*
X93088090Y-69091091D01*
X93081687Y-69097106D01*
X93075479Y-69106835D01*
X93070690Y-69122501D01*
X93067086Y-69147008D01*
X93064436Y-69183261D01*
X93062505Y-69234165D01*
X93061061Y-69302626D01*
X93060182Y-69365217D01*
X93057133Y-69612934D01*
X92992222Y-69616319D01*
X92927311Y-69619705D01*
X92927311Y-69451558D01*
X92926681Y-69378559D01*
X92924047Y-69325117D01*
X92918291Y-69288228D01*
X92908296Y-69264888D01*
X92892944Y-69252094D01*
X92871118Y-69246842D01*
X92850862Y-69246045D01*
X92826008Y-69248523D01*
X92807694Y-69257877D01*
X92794963Y-69276983D01*
X92786859Y-69308718D01*
X92782424Y-69355959D01*
X92780701Y-69421583D01*
X92780555Y-69457401D01*
X92780555Y-69618578D01*
X92622511Y-69618578D01*
X92622511Y-69370222D01*
X92622398Y-69288813D01*
X92621888Y-69226942D01*
X92620730Y-69181568D01*
X92618670Y-69149654D01*
X92615454Y-69128159D01*
X92610828Y-69114043D01*
X92604541Y-69104268D01*
X92599933Y-69099289D01*
X92573040Y-69082210D01*
X92549133Y-69076711D01*
X92519933Y-69084563D01*
X92498333Y-69099289D01*
X92491534Y-69107146D01*
X92486254Y-69117288D01*
X92482302Y-69132444D01*
X92479487Y-69155341D01*
X92477618Y-69188709D01*
X92476502Y-69235275D01*
X92475949Y-69297767D01*
X92475767Y-69378914D01*
X92475755Y-69421022D01*
X92475835Y-69511198D01*
X92476202Y-69581524D01*
X92477048Y-69634729D01*
X92478564Y-69673540D01*
X92480941Y-69700687D01*
X92484371Y-69718898D01*
X92489046Y-69730900D01*
X92495156Y-69739422D01*
X92498333Y-69742756D01*
X92505930Y-69749355D01*
X92515730Y-69754527D01*
X92530361Y-69758446D01*
X92552448Y-69761284D01*
X92584618Y-69763215D01*
X92629497Y-69764412D01*
X92689711Y-69765048D01*
X92767887Y-69765297D01*
X92840677Y-69765334D01*
X92933893Y-69765300D01*
X93007169Y-69765065D01*
X93063142Y-69764430D01*
X93104449Y-69763194D01*
X93133728Y-69761156D01*
X93153616Y-69758117D01*
X93166750Y-69753877D01*
X93175768Y-69748235D01*
X93183307Y-69740991D01*
X93184988Y-69739206D01*
X93192428Y-69730545D01*
X93198191Y-69720482D01*
X93202488Y-69706225D01*
X93205536Y-69684983D01*
X93207549Y-69653964D01*
X93208740Y-69610377D01*
X93209325Y-69551431D01*
X93209517Y-69474334D01*
X93209533Y-69419601D01*
X93209454Y-69330394D01*
X93209454Y-69330394D01*
G37*
X93209454Y-69330394D02*
X93209082Y-69260986D01*
X93208215Y-69208597D01*
X93206654Y-69170447D01*
X93204197Y-69143759D01*
X93200643Y-69125753D01*
X93195790Y-69113649D01*
X93189439Y-69104669D01*
X93186516Y-69101418D01*
X93155458Y-69081643D01*
X93119772Y-69078082D01*
X93088090Y-69091091D01*
X93081687Y-69097106D01*
X93075479Y-69106835D01*
X93070690Y-69122501D01*
X93067086Y-69147008D01*
X93064436Y-69183261D01*
X93062505Y-69234165D01*
X93061061Y-69302626D01*
X93060182Y-69365217D01*
X93057133Y-69612934D01*
X92992222Y-69616319D01*
X92927311Y-69619705D01*
X92927311Y-69451558D01*
X92926681Y-69378559D01*
X92924047Y-69325117D01*
X92918291Y-69288228D01*
X92908296Y-69264888D01*
X92892944Y-69252094D01*
X92871118Y-69246842D01*
X92850862Y-69246045D01*
X92826008Y-69248523D01*
X92807694Y-69257877D01*
X92794963Y-69276983D01*
X92786859Y-69308718D01*
X92782424Y-69355959D01*
X92780701Y-69421583D01*
X92780555Y-69457401D01*
X92780555Y-69618578D01*
X92622511Y-69618578D01*
X92622511Y-69370222D01*
X92622398Y-69288813D01*
X92621888Y-69226942D01*
X92620730Y-69181568D01*
X92618670Y-69149654D01*
X92615454Y-69128159D01*
X92610828Y-69114043D01*
X92604541Y-69104268D01*
X92599933Y-69099289D01*
X92573040Y-69082210D01*
X92549133Y-69076711D01*
X92519933Y-69084563D01*
X92498333Y-69099289D01*
X92491534Y-69107146D01*
X92486254Y-69117288D01*
X92482302Y-69132444D01*
X92479487Y-69155341D01*
X92477618Y-69188709D01*
X92476502Y-69235275D01*
X92475949Y-69297767D01*
X92475767Y-69378914D01*
X92475755Y-69421022D01*
X92475835Y-69511198D01*
X92476202Y-69581524D01*
X92477048Y-69634729D01*
X92478564Y-69673540D01*
X92480941Y-69700687D01*
X92484371Y-69718898D01*
X92489046Y-69730900D01*
X92495156Y-69739422D01*
X92498333Y-69742756D01*
X92505930Y-69749355D01*
X92515730Y-69754527D01*
X92530361Y-69758446D01*
X92552448Y-69761284D01*
X92584618Y-69763215D01*
X92629497Y-69764412D01*
X92689711Y-69765048D01*
X92767887Y-69765297D01*
X92840677Y-69765334D01*
X92933893Y-69765300D01*
X93007169Y-69765065D01*
X93063142Y-69764430D01*
X93104449Y-69763194D01*
X93133728Y-69761156D01*
X93153616Y-69758117D01*
X93166750Y-69753877D01*
X93175768Y-69748235D01*
X93183307Y-69740991D01*
X93184988Y-69739206D01*
X93192428Y-69730545D01*
X93198191Y-69720482D01*
X93202488Y-69706225D01*
X93205536Y-69684983D01*
X93207549Y-69653964D01*
X93208740Y-69610377D01*
X93209325Y-69551431D01*
X93209517Y-69474334D01*
X93209533Y-69419601D01*
X93209454Y-69330394D01*
G36*
X93209534Y-70738971D02*
X93209133Y-70699489D01*
X93206341Y-70583800D01*
X93198050Y-70486911D01*
X93183368Y-70405519D01*
X93161407Y-70336323D01*
X93131278Y-70276020D01*
X93092090Y-70221308D01*
X93075068Y-70201767D01*
X93035237Y-70169350D01*
X92981187Y-70140120D01*
X92921277Y-70117591D01*
X92863861Y-70105279D01*
X92842644Y-70104000D01*
X92783831Y-70112017D01*
X92719587Y-70133499D01*
X92658779Y-70164599D01*
X92610270Y-70201466D01*
X92604418Y-70207454D01*
X92563279Y-70258179D01*
X92531165Y-70313725D01*
X92507235Y-70377296D01*
X92490647Y-70452094D01*
X92480559Y-70541322D01*
X92476131Y-70648182D01*
X92475755Y-70697128D01*
X92476055Y-70759362D01*
X92477308Y-70803128D01*
X92480046Y-70832531D01*
X92484799Y-70851679D01*
X92492099Y-70864677D01*
X92498333Y-70871645D01*
X92505906Y-70878226D01*
X92515676Y-70883388D01*
X92530260Y-70887303D01*
X92552274Y-70890143D01*
X92584336Y-70892080D01*
X92629064Y-70893284D01*
X92689074Y-70893928D01*
X92766983Y-70894183D01*
X92842644Y-70894222D01*
X92943559Y-70894470D01*
X93024173Y-70894417D01*
X93062778Y-70893457D01*
X93062778Y-70747467D01*
X92622511Y-70747467D01*
X92622596Y-70654334D01*
X92624204Y-70598293D01*
X92628344Y-70539599D01*
X92634136Y-70490628D01*
X92634374Y-70489138D01*
X92653510Y-70409992D01*
X92683313Y-70348602D01*
X92725722Y-70301905D01*
X92771639Y-70272235D01*
X92822574Y-70253953D01*
X92870400Y-70255371D01*
X92921667Y-70276588D01*
X92974701Y-70318089D01*
X93014000Y-70375598D01*
X93040269Y-70450350D01*
X93049565Y-70500308D01*
X93056093Y-70557016D01*
X93060818Y-70617119D01*
X93062783Y-70668239D01*
X93062792Y-70671267D01*
X93062778Y-70747467D01*
X93062778Y-70893457D01*
X93086749Y-70892860D01*
X93133545Y-70888598D01*
X93166822Y-70880430D01*
X93188841Y-70867156D01*
X93201861Y-70847574D01*
X93208143Y-70820483D01*
X93209947Y-70784682D01*
X93209534Y-70738971D01*
X93209534Y-70738971D01*
G37*
X93209534Y-70738971D02*
X93209133Y-70699489D01*
X93206341Y-70583800D01*
X93198050Y-70486911D01*
X93183368Y-70405519D01*
X93161407Y-70336323D01*
X93131278Y-70276020D01*
X93092090Y-70221308D01*
X93075068Y-70201767D01*
X93035237Y-70169350D01*
X92981187Y-70140120D01*
X92921277Y-70117591D01*
X92863861Y-70105279D01*
X92842644Y-70104000D01*
X92783831Y-70112017D01*
X92719587Y-70133499D01*
X92658779Y-70164599D01*
X92610270Y-70201466D01*
X92604418Y-70207454D01*
X92563279Y-70258179D01*
X92531165Y-70313725D01*
X92507235Y-70377296D01*
X92490647Y-70452094D01*
X92480559Y-70541322D01*
X92476131Y-70648182D01*
X92475755Y-70697128D01*
X92476055Y-70759362D01*
X92477308Y-70803128D01*
X92480046Y-70832531D01*
X92484799Y-70851679D01*
X92492099Y-70864677D01*
X92498333Y-70871645D01*
X92505906Y-70878226D01*
X92515676Y-70883388D01*
X92530260Y-70887303D01*
X92552274Y-70890143D01*
X92584336Y-70892080D01*
X92629064Y-70893284D01*
X92689074Y-70893928D01*
X92766983Y-70894183D01*
X92842644Y-70894222D01*
X92943559Y-70894470D01*
X93024173Y-70894417D01*
X93062778Y-70893457D01*
X93062778Y-70747467D01*
X92622511Y-70747467D01*
X92622596Y-70654334D01*
X92624204Y-70598293D01*
X92628344Y-70539599D01*
X92634136Y-70490628D01*
X92634374Y-70489138D01*
X92653510Y-70409992D01*
X92683313Y-70348602D01*
X92725722Y-70301905D01*
X92771639Y-70272235D01*
X92822574Y-70253953D01*
X92870400Y-70255371D01*
X92921667Y-70276588D01*
X92974701Y-70318089D01*
X93014000Y-70375598D01*
X93040269Y-70450350D01*
X93049565Y-70500308D01*
X93056093Y-70557016D01*
X93060818Y-70617119D01*
X93062783Y-70668239D01*
X93062792Y-70671267D01*
X93062778Y-70747467D01*
X93062778Y-70893457D01*
X93086749Y-70892860D01*
X93133545Y-70888598D01*
X93166822Y-70880430D01*
X93188841Y-70867156D01*
X93201861Y-70847574D01*
X93208143Y-70820483D01*
X93209947Y-70784682D01*
X93209534Y-70738971D01*
G04 #@! TO.C,J2*
D10*
X100442780Y-101648866D02*
X101157066Y-101648866D01*
X101299923Y-101601247D01*
X101395161Y-101506009D01*
X101442780Y-101363152D01*
X101442780Y-101267914D01*
X100538019Y-102077438D02*
X100490400Y-102125057D01*
X100442780Y-102220295D01*
X100442780Y-102458390D01*
X100490400Y-102553628D01*
X100538019Y-102601247D01*
X100633257Y-102648866D01*
X100728495Y-102648866D01*
X100871352Y-102601247D01*
X101442780Y-102029819D01*
X101442780Y-102648866D01*
G04 #@! TD*
M02*
