G04 #@! TF.GenerationSoftware,KiCad,Pcbnew,(5.0.2)-1*
G04 #@! TF.CreationDate,2019-10-29T23:39:58+09:00*
G04 #@! TF.ProjectId,High_range_accelerometer,48696768-5f72-4616-9e67-655f61636365,rev?*
G04 #@! TF.SameCoordinates,Original*
G04 #@! TF.FileFunction,Copper,L2,Bot*
G04 #@! TF.FilePolarity,Positive*
%FSLAX46Y46*%
G04 Gerber Fmt 4.6, Leading zero omitted, Abs format (unit mm)*
G04 Created by KiCad (PCBNEW (5.0.2)-1) date 2019/10/29 23:39:58*
%MOMM*%
%LPD*%
G01*
G04 APERTURE LIST*
G04 #@! TA.AperFunction,Conductor*
%ADD10C,0.100000*%
G04 #@! TD*
G04 #@! TA.AperFunction,ComponentPad*
%ADD11C,1.700000*%
G04 #@! TD*
G04 #@! TA.AperFunction,ComponentPad*
%ADD12O,1.700000X1.950000*%
G04 #@! TD*
G04 #@! TA.AperFunction,ComponentPad*
%ADD13R,1.800000X1.800000*%
G04 #@! TD*
G04 #@! TA.AperFunction,ComponentPad*
%ADD14C,1.800000*%
G04 #@! TD*
G04 #@! TA.AperFunction,ComponentPad*
%ADD15C,0.712500*%
G04 #@! TD*
G04 #@! TA.AperFunction,ComponentPad*
%ADD16O,1.250000X1.050000*%
G04 #@! TD*
G04 #@! TA.AperFunction,ComponentPad*
%ADD17R,1.900000X2.100000*%
G04 #@! TD*
G04 #@! TA.AperFunction,SMDPad,CuDef*
%ADD18R,1.200000X0.700000*%
G04 #@! TD*
G04 #@! TA.AperFunction,SMDPad,CuDef*
%ADD19R,1.200000X1.000000*%
G04 #@! TD*
G04 #@! TA.AperFunction,SMDPad,CuDef*
%ADD20R,0.800000X1.000000*%
G04 #@! TD*
G04 #@! TA.AperFunction,SMDPad,CuDef*
%ADD21R,2.800000X1.000000*%
G04 #@! TD*
G04 #@! TA.AperFunction,SMDPad,CuDef*
%ADD22R,1.900000X1.300000*%
G04 #@! TD*
G04 #@! TA.AperFunction,ViaPad*
%ADD23C,0.400000*%
G04 #@! TD*
G04 #@! TA.AperFunction,ViaPad*
%ADD24C,0.800000*%
G04 #@! TD*
G04 #@! TA.AperFunction,Conductor*
%ADD25C,0.250000*%
G04 #@! TD*
G04 #@! TA.AperFunction,Conductor*
%ADD26C,0.200000*%
G04 #@! TD*
G04 #@! TA.AperFunction,Conductor*
%ADD27C,0.190000*%
G04 #@! TD*
G04 #@! TA.AperFunction,Conductor*
%ADD28C,0.210000*%
G04 #@! TD*
G04 APERTURE END LIST*
D10*
G04 #@! TO.N,GND*
G04 #@! TO.C,U1*
G36*
X111272624Y-61496364D02*
X111296893Y-61499964D01*
X111320691Y-61505925D01*
X111343791Y-61514190D01*
X111365969Y-61524680D01*
X111387013Y-61537293D01*
X111406718Y-61551907D01*
X111424897Y-61568383D01*
X111441373Y-61586562D01*
X111455987Y-61606267D01*
X111468600Y-61627311D01*
X111479090Y-61649489D01*
X111487355Y-61672589D01*
X111493316Y-61696387D01*
X111496916Y-61720656D01*
X111498120Y-61745160D01*
X111498120Y-63195160D01*
X111496916Y-63219664D01*
X111493316Y-63243933D01*
X111487355Y-63267731D01*
X111479090Y-63290831D01*
X111468600Y-63313009D01*
X111455987Y-63334053D01*
X111441373Y-63353758D01*
X111424897Y-63371937D01*
X111406718Y-63388413D01*
X111387013Y-63403027D01*
X111365969Y-63415640D01*
X111343791Y-63426130D01*
X111320691Y-63434395D01*
X111296893Y-63440356D01*
X111272624Y-63443956D01*
X111248120Y-63445160D01*
X110048120Y-63445160D01*
X110023616Y-63443956D01*
X109999347Y-63440356D01*
X109975549Y-63434395D01*
X109952449Y-63426130D01*
X109930271Y-63415640D01*
X109909227Y-63403027D01*
X109889522Y-63388413D01*
X109871343Y-63371937D01*
X109854867Y-63353758D01*
X109840253Y-63334053D01*
X109827640Y-63313009D01*
X109817150Y-63290831D01*
X109808885Y-63267731D01*
X109802924Y-63243933D01*
X109799324Y-63219664D01*
X109798120Y-63195160D01*
X109798120Y-61745160D01*
X109799324Y-61720656D01*
X109802924Y-61696387D01*
X109808885Y-61672589D01*
X109817150Y-61649489D01*
X109827640Y-61627311D01*
X109840253Y-61606267D01*
X109854867Y-61586562D01*
X109871343Y-61568383D01*
X109889522Y-61551907D01*
X109909227Y-61537293D01*
X109930271Y-61524680D01*
X109952449Y-61514190D01*
X109975549Y-61505925D01*
X109999347Y-61499964D01*
X110023616Y-61496364D01*
X110048120Y-61495160D01*
X111248120Y-61495160D01*
X111272624Y-61496364D01*
X111272624Y-61496364D01*
G37*
D11*
G04 #@! TD*
G04 #@! TO.P,U1,1*
G04 #@! TO.N,GND*
X110648120Y-62470160D03*
D12*
G04 #@! TO.P,U1,2*
G04 #@! TO.N,Net-(C1-Pad1)*
X108148120Y-62470160D03*
G04 #@! TO.P,U1,3*
G04 #@! TO.N,Net-(R2-Pad2)*
X105648120Y-62470160D03*
G04 #@! TO.P,U1,4*
G04 #@! TO.N,Net-(R3-Pad1)*
X103148120Y-62470160D03*
G04 #@! TD*
D13*
G04 #@! TO.P,P1,1*
G04 #@! TO.N,N/C*
X95382080Y-77724000D03*
D14*
G04 #@! TO.P,P1,2*
G04 #@! TO.N,GND*
X95382080Y-80224000D03*
G04 #@! TO.P,P1,3*
G04 #@! TO.N,XRESS*
X95382080Y-82724000D03*
G04 #@! TO.P,P1,4*
G04 #@! TO.N,SCLK*
X95382080Y-85224000D03*
G04 #@! TO.P,P1,5*
G04 #@! TO.N,SDATA*
X95382080Y-87724000D03*
G04 #@! TD*
D15*
G04 #@! TO.P,U5,69*
G04 #@! TO.N,GND*
X106941800Y-80666919D03*
X105934173Y-81674546D03*
X104926546Y-82682173D03*
X103918919Y-83689800D03*
X107949427Y-81674546D03*
X106941800Y-82682173D03*
X105934173Y-83689800D03*
X104926546Y-84697427D03*
X108957054Y-82682173D03*
X107949427Y-83689800D03*
X106941800Y-84697427D03*
X105934173Y-85705054D03*
X109964681Y-83689800D03*
X108957054Y-84697427D03*
X107949427Y-85705054D03*
X106941800Y-86712681D03*
G04 #@! TD*
D16*
G04 #@! TO.P,J1,5*
G04 #@! TO.N,GND*
X97749620Y-100328160D03*
X97749620Y-105178160D03*
D17*
X94749620Y-99103160D03*
X94749620Y-106403160D03*
G04 #@! TD*
D18*
G04 #@! TO.P,J2,9*
G04 #@! TO.N,N/C*
X102790400Y-96182200D03*
G04 #@! TO.P,J2,8*
X102790400Y-97132200D03*
G04 #@! TO.P,J2,1*
X102790400Y-104832200D03*
G04 #@! TO.P,J2,2*
G04 #@! TO.N,microSD-~CS*
X102790400Y-103732200D03*
G04 #@! TO.P,J2,3*
G04 #@! TO.N,microSD-MOSI*
X102790400Y-102632200D03*
G04 #@! TO.P,J2,4*
G04 #@! TO.N,+3V3*
X102790400Y-101532200D03*
G04 #@! TO.P,J2,5*
G04 #@! TO.N,microSD-CLK*
X102790400Y-100432200D03*
G04 #@! TO.P,J2,6*
G04 #@! TO.N,GND*
X102790400Y-99332200D03*
G04 #@! TO.P,J2,7*
G04 #@! TO.N,microSD-MISO*
X102790400Y-98232200D03*
D19*
G04 #@! TO.P,J2,11*
G04 #@! TO.N,GND*
X102790400Y-106382200D03*
X107090400Y-95232200D03*
D20*
G04 #@! TO.P,J2,10*
G04 #@! TO.N,N/C*
X113290400Y-95232200D03*
D21*
G04 #@! TO.P,J2,11*
G04 #@! TO.N,GND*
X117440400Y-95232200D03*
D22*
X117890400Y-108732200D03*
G04 #@! TD*
D23*
G04 #@! TO.N,GND*
X105392220Y-76743560D03*
X99245420Y-76527660D03*
X100172520Y-83969860D03*
X112783620Y-83474560D03*
X93348120Y-108870160D03*
X120348120Y-57870160D03*
X93348120Y-57870160D03*
X102242620Y-63954660D03*
X113253520Y-74724260D03*
X112313720Y-76756260D03*
X101480620Y-49857660D03*
X105521760Y-90093800D03*
X120350280Y-108874560D03*
X101305360Y-108122720D03*
X99171760Y-105059480D03*
X111739680Y-106334560D03*
X101020880Y-80873600D03*
X102753160Y-79095600D03*
X96848120Y-87870160D03*
X96548120Y-74370160D03*
X117800120Y-63129160D03*
X116212620Y-63129160D03*
X104592120Y-70050660D03*
X99893120Y-71003160D03*
X101607620Y-66177160D03*
X111647481Y-77727299D03*
X117165120Y-84147660D03*
X119578120Y-63129160D03*
X117165120Y-77162660D03*
X117165120Y-80274160D03*
X101934402Y-81743942D03*
X109227620Y-71638160D03*
X118689120Y-67002660D03*
X104274620Y-68653660D03*
X105080620Y-49857660D03*
X108680620Y-49857660D03*
X112280620Y-49857660D03*
X101480620Y-53857660D03*
X105080620Y-53857660D03*
X108680620Y-53857660D03*
X112280620Y-53857660D03*
X101480620Y-57857660D03*
X105080620Y-57857660D03*
X108680620Y-57857660D03*
X112280620Y-57857660D03*
X101417120Y-112659160D03*
X105017120Y-112659160D03*
X108617120Y-112659160D03*
X112217120Y-112659160D03*
X101417120Y-116659160D03*
X105017120Y-116659160D03*
X108617120Y-116659160D03*
X112217120Y-116659160D03*
X120467120Y-68018660D03*
X120467120Y-72018660D03*
X120467120Y-76018660D03*
X120467120Y-80018660D03*
X120467120Y-84018660D03*
X120467120Y-88018660D03*
X120467120Y-92018660D03*
X120467120Y-96018660D03*
X120467120Y-100018660D03*
X120467120Y-104018660D03*
X93348120Y-61870160D03*
X93348120Y-65870160D03*
X93348120Y-73870160D03*
X93348120Y-77870160D03*
X93348120Y-81870160D03*
X93348120Y-85870160D03*
X93348120Y-89870160D03*
X93348120Y-93870160D03*
X114053620Y-89100660D03*
X114117120Y-87513160D03*
X112331500Y-87503000D03*
X97091500Y-78740000D03*
X115379500Y-72009000D03*
X107061000Y-78168500D03*
X117411500Y-69850000D03*
X93299990Y-69875490D03*
X101850000Y-71200000D03*
X95300000Y-69450000D03*
X96350000Y-69400000D03*
X98050000Y-69350000D03*
X99850000Y-69350000D03*
X98150000Y-70900000D03*
X96250000Y-70400000D03*
X99450000Y-61000000D03*
X104419400Y-98425000D03*
X114528600Y-70408800D03*
X116078000Y-67970400D03*
X98196400Y-83769200D03*
X98171000Y-88163400D03*
X98171000Y-92024200D03*
X98221800Y-96469200D03*
X109499400Y-74091800D03*
X102997000Y-73837800D03*
X98475800Y-73761600D03*
X104368600Y-75082400D03*
X113461800Y-100685600D03*
X100660200Y-106603800D03*
X101447600Y-105206800D03*
X108864400Y-89941400D03*
X108508800Y-92887800D03*
X99847400Y-82047080D03*
X105511600Y-64033400D03*
X107365800Y-68707000D03*
X101701600Y-69392800D03*
X104114600Y-77724000D03*
X101523800Y-95427800D03*
D24*
G04 #@! TO.N,+3V3*
X109113320Y-75016360D03*
X113990120Y-81353658D03*
D23*
X109824536Y-99999800D03*
G04 #@! TO.N,Net-(C19-Pad1)*
X110185200Y-82331560D03*
X104703646Y-86062304D03*
G04 #@! TO.N,XRESS*
X100515420Y-78127860D03*
G04 #@! TO.N,SCLK*
X99646235Y-79323507D03*
G04 #@! TO.N,SDATA*
X100591620Y-79093060D03*
G04 #@! TO.N,Net-(R4-Pad2)*
X101671120Y-86200608D03*
X100914200Y-96545400D03*
G04 #@! TO.N,Net-(R5-Pad2)*
X100655114Y-86270014D03*
X100609400Y-97307400D03*
G04 #@! TO.N,Sensor-CS*
X110865920Y-84236560D03*
X113164622Y-78813660D03*
G04 #@! TO.N,Flash-~CS*
X100845619Y-85608159D03*
X101498400Y-103403400D03*
G04 #@! TO.N,CAN-TXD*
X107995716Y-72831960D03*
X110053120Y-77035672D03*
G04 #@! TO.N,CAN-RXD*
X107106720Y-72704960D03*
X109494610Y-78597760D03*
G04 #@! TO.N,CAN-STB*
X108960920Y-78038960D03*
X103753920Y-69860160D03*
G04 #@! TO.N,Flash-CLK*
X112115600Y-107431840D03*
X103098600Y-77774800D03*
G04 #@! TO.N,Flash-MOSI*
X112486440Y-108737400D03*
X102605840Y-78150720D03*
G04 #@! TO.N,Flash-MISO*
X100787200Y-105796080D03*
X100975780Y-85022436D03*
G04 #@! TO.N,Sensor-CLK*
X117647720Y-73593960D03*
X112148620Y-86179660D03*
G04 #@! TO.N,Sensor-MOSI*
X115234720Y-72806560D03*
X112656620Y-85608160D03*
G04 #@! TO.N,Sensor-MISO*
X115963330Y-73670160D03*
X116367560Y-84551520D03*
X116144040Y-86436200D03*
X111767620Y-86814660D03*
G04 #@! TO.N,INT1*
X113117684Y-85166407D03*
X115260120Y-76870560D03*
G04 #@! TO.N,INT2*
X114752120Y-77480160D03*
X113164620Y-84528660D03*
G04 #@! TO.N,LED_G_1*
X114314396Y-77069794D03*
X119451120Y-67053460D03*
G04 #@! TO.N,LED_G_2*
X113990120Y-76235560D03*
X117927120Y-67561460D03*
G04 #@! TO.N,microSD-~CS*
X109626400Y-72136000D03*
X105740200Y-73761600D03*
X103860600Y-73787000D03*
X104978200Y-77749400D03*
X111785400Y-103454200D03*
X113385600Y-69875400D03*
X117322600Y-67894200D03*
X119176800Y-68275200D03*
X118770400Y-77825600D03*
G04 #@! TO.N,microSD-MOSI*
X112877600Y-101168200D03*
X110210600Y-90779600D03*
G04 #@! TO.N,microSD-CLK*
X109494620Y-88519000D03*
G04 #@! TO.N,microSD-MISO*
X108153200Y-92075000D03*
G04 #@! TD*
D25*
G04 #@! TO.N,GND*
X101020880Y-80873600D02*
X101020880Y-80827880D01*
X101020880Y-80827880D02*
X102753160Y-79095600D01*
X117122719Y-84105259D02*
X117165120Y-84147660D01*
X115389160Y-72018660D02*
X115379500Y-72009000D01*
D26*
X104419400Y-98503200D02*
X104419400Y-98425000D01*
X102790400Y-99332200D02*
X103590400Y-99332200D01*
X103590400Y-99332200D02*
X104419400Y-98503200D01*
X98196400Y-83698080D02*
X98196400Y-83769200D01*
X98196400Y-83769200D02*
X98196400Y-88138000D01*
X98196400Y-88138000D02*
X98171000Y-88163400D01*
X98171000Y-88163400D02*
X98171000Y-92024200D01*
X98171000Y-92024200D02*
X98171000Y-96418400D01*
X98171000Y-96418400D02*
X98221800Y-96469200D01*
X105392220Y-76743560D02*
X105392220Y-76106020D01*
X105392220Y-76106020D02*
X104368600Y-75082400D01*
X102790400Y-106382200D02*
X100881800Y-106382200D01*
X100881800Y-106382200D02*
X100660200Y-106603800D01*
X101020880Y-80873600D02*
X99847400Y-82047080D01*
X99847400Y-82047080D02*
X98196400Y-83698080D01*
D25*
G04 #@! TO.N,+3V3*
X113990120Y-78651288D02*
X113990120Y-80787973D01*
X109113320Y-75016360D02*
X109679005Y-75016360D01*
X109679005Y-75016360D02*
X112855543Y-78192898D01*
X112855543Y-78192898D02*
X113531730Y-78192898D01*
X113531730Y-78192898D02*
X113990120Y-78651288D01*
X113990120Y-80787973D02*
X113990120Y-81353658D01*
D26*
X108292136Y-101532200D02*
X109824536Y-99999800D01*
X102790400Y-101532200D02*
X108292136Y-101532200D01*
D27*
G04 #@! TO.N,Net-(C19-Pad1)*
X110169960Y-82362040D02*
X110053120Y-82362040D01*
X110053120Y-82362040D02*
X109608305Y-82806855D01*
X109608305Y-82806855D02*
X109608305Y-82994774D01*
X109608305Y-82994774D02*
X106246774Y-86356305D01*
X104903645Y-86262303D02*
X104703646Y-86062304D01*
X106246774Y-86356305D02*
X104997647Y-86356305D01*
X104997647Y-86356305D02*
X104903645Y-86262303D01*
D25*
G04 #@! TO.N,XRESS*
X95382080Y-82724000D02*
X99978220Y-78127860D01*
X99978220Y-78127860D02*
X100232578Y-78127860D01*
X100232578Y-78127860D02*
X100515420Y-78127860D01*
G04 #@! TO.N,SCLK*
X99446236Y-79523506D02*
X99646235Y-79323507D01*
X96607081Y-82362661D02*
X99446236Y-79523506D01*
X95382080Y-85224000D02*
X96607081Y-83998999D01*
X96607081Y-83998999D02*
X96607081Y-82362661D01*
D27*
G04 #@! TO.N,SDATA*
X95382080Y-87724000D02*
X95382080Y-87561200D01*
D25*
X100591620Y-79375902D02*
X100591620Y-79093060D01*
X100591620Y-79474060D02*
X100591620Y-79375902D01*
X97057092Y-83008588D02*
X100591620Y-79474060D01*
X95382080Y-87724000D02*
X97057092Y-86048988D01*
X97057092Y-86048988D02*
X97057092Y-83008588D01*
D27*
G04 #@! TO.N,Net-(R4-Pad2)*
X101471121Y-86400607D02*
X101671120Y-86200608D01*
X100845620Y-87026108D02*
X101471121Y-86400607D01*
X100845620Y-87572889D02*
X100845620Y-87026108D01*
D26*
X100914200Y-87641469D02*
X100914200Y-96262558D01*
X100914200Y-96262558D02*
X100914200Y-96545400D01*
X100845620Y-87572889D02*
X100914200Y-87641469D01*
D27*
G04 #@! TO.N,Net-(R5-Pad2)*
X100401120Y-86829130D02*
X100401120Y-86524008D01*
X100455115Y-86470013D02*
X100655114Y-86270014D01*
X100401120Y-86524008D02*
X100455115Y-86470013D01*
D26*
X100409401Y-97107401D02*
X100609400Y-97307400D01*
X100401120Y-97099120D02*
X100409401Y-97107401D01*
X100401120Y-86829130D02*
X100401120Y-97099120D01*
D27*
G04 #@! TO.N,Sensor-CS*
X111065919Y-84036561D02*
X111065919Y-83604761D01*
X110865920Y-84236560D02*
X111065919Y-84036561D01*
X111065919Y-83604761D02*
X112821720Y-81848960D01*
D26*
X112821720Y-81848960D02*
X113164622Y-81506058D01*
X113164622Y-79096502D02*
X113164622Y-78813660D01*
X113164622Y-81506058D02*
X113164622Y-79096502D01*
D25*
G04 #@! TO.N,Flash-~CS*
X99956620Y-86214316D02*
X100562777Y-85608159D01*
X100562777Y-85608159D02*
X100845619Y-85608159D01*
D26*
X99956620Y-97670620D02*
X99956620Y-86214316D01*
X101498400Y-103403400D02*
X101498400Y-99212400D01*
X101498400Y-99212400D02*
X99956620Y-97670620D01*
G04 #@! TO.N,CAN-TXD*
X110027720Y-76966762D02*
X107995716Y-74934758D01*
X107995716Y-74934758D02*
X107995716Y-73114802D01*
X107995716Y-73114802D02*
X107995716Y-72831960D01*
D27*
X110027720Y-76966762D02*
X110027720Y-77010272D01*
X110027720Y-77010272D02*
X110053120Y-77035672D01*
G04 #@! TO.N,CAN-RXD*
X109494610Y-77861450D02*
X109494610Y-78314918D01*
X107106720Y-75473560D02*
X109494610Y-77861450D01*
X109494610Y-78314918D02*
X109494610Y-78597760D01*
X107106720Y-72704960D02*
X107106720Y-75473560D01*
G04 #@! TO.N,CAN-STB*
X108760921Y-77838961D02*
X108960920Y-78038960D01*
X103271320Y-72349360D02*
X108760921Y-77838961D01*
X103271320Y-72298560D02*
X103271320Y-72349360D01*
D26*
X103271320Y-72349360D02*
X103271320Y-70342760D01*
X103271320Y-70342760D02*
X103753920Y-69860160D01*
D25*
G04 #@! TO.N,Flash-CLK*
X100025200Y-106975820D02*
X100025200Y-99979480D01*
X100025200Y-99979480D02*
X98866960Y-98821240D01*
X98866960Y-98821240D02*
X98866960Y-84068920D01*
X103298599Y-77974799D02*
X103098600Y-77774800D01*
X103298599Y-79637281D02*
X103298599Y-77974799D01*
X98866960Y-84068920D02*
X103298599Y-79637281D01*
X100481220Y-107431840D02*
X100025200Y-106975820D01*
X112115600Y-107431840D02*
X100481220Y-107431840D01*
G04 #@! TO.N,Flash-MOSI*
X102405841Y-78350719D02*
X102605840Y-78150720D01*
X97543620Y-99192969D02*
X97543620Y-83212940D01*
X112486440Y-108737400D02*
X99822000Y-108737400D01*
X99822000Y-108737400D02*
X98281130Y-107196530D01*
X97543620Y-83212940D02*
X102405841Y-78350719D01*
D27*
X96450000Y-105365400D02*
X98281130Y-107196530D01*
X97543620Y-99192969D02*
X96450000Y-100286589D01*
X96450000Y-100286589D02*
X96450000Y-105365400D01*
G04 #@! TO.N,Flash-MISO*
X100692938Y-85022436D02*
X100975780Y-85022436D01*
X99448620Y-85961511D02*
X100387695Y-85022436D01*
X100387695Y-85022436D02*
X100692938Y-85022436D01*
D25*
X99447789Y-94108755D02*
X99448620Y-94107924D01*
X100787200Y-99102256D02*
X99447789Y-97762845D01*
X99448620Y-94107924D02*
X99448620Y-85961511D01*
X99447789Y-97762845D02*
X99447789Y-94108755D01*
X100787200Y-105796080D02*
X100787200Y-99102256D01*
D26*
G04 #@! TO.N,Sensor-CLK*
X116428520Y-85785960D02*
X115564920Y-85785960D01*
X116657120Y-85557360D02*
X116428520Y-85785960D01*
D25*
X117647720Y-73876802D02*
X117647720Y-73593960D01*
X117972840Y-74201922D02*
X117647720Y-73876802D01*
X116657120Y-85557360D02*
X117972840Y-84241640D01*
X117972840Y-84241640D02*
X117972840Y-74201922D01*
D27*
X115171220Y-86179660D02*
X112431462Y-86179660D01*
X112431462Y-86179660D02*
X112148620Y-86179660D01*
X115564920Y-85785960D02*
X115171220Y-86179660D01*
D26*
G04 #@! TO.N,Sensor-MOSI*
X115234720Y-75117960D02*
X115234720Y-72806560D01*
X115793520Y-75676760D02*
X115234720Y-75117960D01*
X115285520Y-85150960D02*
X115793520Y-84642960D01*
X115793520Y-84642960D02*
X115793520Y-75676760D01*
D27*
X115285520Y-85150960D02*
X114775071Y-85661409D01*
X114775071Y-85661409D02*
X112709869Y-85661409D01*
X112709869Y-85661409D02*
X112656620Y-85608160D01*
D26*
G04 #@! TO.N,Sensor-MISO*
X116367560Y-84268678D02*
X116367560Y-84551520D01*
X115963330Y-73670160D02*
X116367560Y-74074390D01*
X116367560Y-74074390D02*
X116367560Y-84268678D01*
D27*
X115765580Y-86814660D02*
X112050462Y-86814660D01*
X112050462Y-86814660D02*
X111767620Y-86814660D01*
X116144040Y-86436200D02*
X115765580Y-86814660D01*
G04 #@! TO.N,INT1*
X113400526Y-85166407D02*
X113117684Y-85166407D01*
X114752120Y-84973160D02*
X114558873Y-85166407D01*
X114558873Y-85166407D02*
X113400526Y-85166407D01*
D26*
X114759019Y-84973160D02*
X115285520Y-84446659D01*
X115285520Y-84446659D02*
X115285520Y-77099160D01*
X115260120Y-77073760D02*
X115260120Y-76870560D01*
X115285520Y-77099160D02*
X115260120Y-77073760D01*
G04 #@! TO.N,INT2*
X114752120Y-82941160D02*
X113364619Y-84328661D01*
X114752120Y-77480160D02*
X114752120Y-82941160D01*
X113364619Y-84328661D02*
X113164620Y-84528660D01*
D27*
G04 #@! TO.N,LED_G_1*
X114314396Y-77069794D02*
X114739719Y-76644471D01*
X119251121Y-67253459D02*
X119451120Y-67053460D01*
X114739719Y-71764861D02*
X119251121Y-67253459D01*
X114739719Y-76644471D02*
X114739719Y-71764861D01*
G04 #@! TO.N,LED_G_2*
X117927120Y-67844302D02*
X117927120Y-67561460D01*
X117927120Y-68022282D02*
X117927120Y-67844302D01*
X113990120Y-71959282D02*
X117927120Y-68022282D01*
X113990120Y-76235560D02*
X113990120Y-71959282D01*
G04 #@! TO.N,microSD-~CS*
X102790400Y-103732200D02*
X111046202Y-103732200D01*
X105740200Y-73338878D02*
X105740200Y-73761600D01*
X109626400Y-72136000D02*
X106943078Y-72136000D01*
X106943078Y-72136000D02*
X105740200Y-73338878D01*
X103860600Y-73787000D02*
X103860600Y-76631800D01*
X103860600Y-76631800D02*
X104978200Y-77749400D01*
D26*
X111046202Y-103732200D02*
X111507400Y-103732200D01*
X111507400Y-103732200D02*
X111785400Y-103454200D01*
D27*
X113385600Y-69875400D02*
X115341400Y-69875400D01*
X115341400Y-69875400D02*
X117122601Y-68094199D01*
X117122601Y-68094199D02*
X117322600Y-67894200D01*
D26*
X118770400Y-68681600D02*
X118770400Y-77542758D01*
X118770400Y-77542758D02*
X118770400Y-77825600D01*
X119176800Y-68275200D02*
X118770400Y-68681600D01*
G04 #@! TO.N,microSD-MOSI*
X102790400Y-102632200D02*
X111413600Y-102632200D01*
X111413600Y-102632200D02*
X112877600Y-101168200D01*
D27*
X110210600Y-98501200D02*
X112877600Y-101168200D01*
X110210600Y-90779600D02*
X110210600Y-98501200D01*
D26*
G04 #@! TO.N,microSD-CLK*
X109494620Y-94527980D02*
X109494620Y-88519000D01*
X102790400Y-100432200D02*
X103590400Y-100432200D01*
X103590400Y-100432200D02*
X109494620Y-94527980D01*
D27*
G04 #@! TO.N,microSD-MISO*
X105359200Y-94869000D02*
X107953201Y-92274999D01*
X107953201Y-92274999D02*
X108153200Y-92075000D01*
X103580400Y-98232200D02*
X105359200Y-96453400D01*
X105359200Y-96453400D02*
X105359200Y-94869000D01*
X102790400Y-98232200D02*
X103580400Y-98232200D01*
G04 #@! TD*
D28*
G04 #@! TO.N,GND*
G36*
X111838349Y-49040606D02*
X112295166Y-49229826D01*
X112687447Y-49530833D01*
X112988454Y-49923114D01*
X113177674Y-50379931D01*
X113243120Y-50877044D01*
X113243120Y-54870160D01*
X113244018Y-54883865D01*
X113312166Y-55401503D01*
X113319261Y-55427980D01*
X113519062Y-55910342D01*
X113532767Y-55934080D01*
X113850604Y-56348294D01*
X113869986Y-56367676D01*
X114284200Y-56685513D01*
X114307938Y-56699218D01*
X114790300Y-56899019D01*
X114816777Y-56906114D01*
X115334415Y-56974262D01*
X115348120Y-56975160D01*
X119341236Y-56975160D01*
X119838349Y-57040606D01*
X120295166Y-57229826D01*
X120687447Y-57530833D01*
X120988454Y-57923114D01*
X121177674Y-58379931D01*
X121243120Y-58877044D01*
X121243120Y-107863276D01*
X121177674Y-108360389D01*
X120988454Y-108817206D01*
X120687447Y-109209487D01*
X120295166Y-109510494D01*
X119838349Y-109699714D01*
X119341236Y-109765160D01*
X115348120Y-109765160D01*
X115334415Y-109766058D01*
X114816777Y-109834206D01*
X114790300Y-109841301D01*
X114307938Y-110041102D01*
X114284200Y-110054807D01*
X113869986Y-110372644D01*
X113850604Y-110392026D01*
X113532767Y-110806240D01*
X113519062Y-110829978D01*
X113319261Y-111312340D01*
X113312166Y-111338817D01*
X113244018Y-111856455D01*
X113243120Y-111870160D01*
X113243120Y-115863276D01*
X113177674Y-116360389D01*
X112988454Y-116817206D01*
X112687447Y-117209487D01*
X112295166Y-117510494D01*
X111838349Y-117699714D01*
X111341236Y-117765160D01*
X102355004Y-117765160D01*
X101857891Y-117699714D01*
X101401074Y-117510494D01*
X101008793Y-117209487D01*
X100707786Y-116817206D01*
X100518566Y-116360389D01*
X100453120Y-115863276D01*
X100453120Y-111870160D01*
X100452222Y-111856455D01*
X100384074Y-111338817D01*
X100376979Y-111312340D01*
X100177178Y-110829978D01*
X100163473Y-110806240D01*
X99845636Y-110392026D01*
X99826254Y-110372644D01*
X99412040Y-110054807D01*
X99388302Y-110041102D01*
X98905940Y-109841301D01*
X98879463Y-109834206D01*
X98361825Y-109766058D01*
X98348120Y-109765160D01*
X94355004Y-109765160D01*
X93857891Y-109699714D01*
X93401074Y-109510494D01*
X93008793Y-109209487D01*
X92707786Y-108817206D01*
X92518566Y-108360389D01*
X92453120Y-107863276D01*
X92453120Y-106834904D01*
X92473197Y-106830910D01*
X92586959Y-106808281D01*
X92715963Y-106722084D01*
X92802160Y-106593080D01*
X92832429Y-106440910D01*
X92824789Y-106402502D01*
X92824789Y-99004318D01*
X92832429Y-98965910D01*
X92802160Y-98813740D01*
X92715963Y-98684736D01*
X92586959Y-98598539D01*
X92473197Y-98575910D01*
X92453120Y-98571916D01*
X92453120Y-82482322D01*
X94167080Y-82482322D01*
X94167080Y-82965678D01*
X94243120Y-83149255D01*
X94243120Y-84798745D01*
X94167080Y-84982322D01*
X94167080Y-85465678D01*
X94243120Y-85649255D01*
X94243120Y-87298745D01*
X94167080Y-87482322D01*
X94167080Y-87965678D01*
X94352053Y-88412242D01*
X94693838Y-88754027D01*
X95140402Y-88939000D01*
X95623758Y-88939000D01*
X96070322Y-88754027D01*
X96412107Y-88412242D01*
X96551731Y-88075160D01*
X97103621Y-88075160D01*
X97103620Y-99053142D01*
X96188639Y-99968123D01*
X96154407Y-99990996D01*
X96063789Y-100126616D01*
X96040000Y-100246211D01*
X96040000Y-100246214D01*
X96031969Y-100286589D01*
X96040000Y-100326964D01*
X96040001Y-105325020D01*
X96031969Y-105365400D01*
X96063789Y-105525373D01*
X96131534Y-105626761D01*
X96131537Y-105626764D01*
X96154408Y-105660993D01*
X96188637Y-105683864D01*
X97865090Y-107360318D01*
X97866660Y-107368209D01*
X97939360Y-107477013D01*
X99480229Y-109017882D01*
X99504778Y-109054622D01*
X99611915Y-109126209D01*
X99650319Y-109151870D01*
X99650320Y-109151870D01*
X99650321Y-109151871D01*
X99778664Y-109177400D01*
X99778668Y-109177400D01*
X99821999Y-109186019D01*
X99865330Y-109177400D01*
X112202934Y-109177400D01*
X112384000Y-109252400D01*
X112588880Y-109252400D01*
X112778164Y-109173996D01*
X112923036Y-109029124D01*
X113001440Y-108839840D01*
X113001440Y-108634960D01*
X112923036Y-108445676D01*
X112778164Y-108300804D01*
X112588880Y-108222400D01*
X112384000Y-108222400D01*
X112202934Y-108297400D01*
X100004253Y-108297400D01*
X98561613Y-106854760D01*
X98452809Y-106782060D01*
X98444918Y-106780490D01*
X96860000Y-105195573D01*
X96860000Y-100456416D01*
X97707406Y-99609010D01*
X97715298Y-99607440D01*
X97860842Y-99510191D01*
X97958091Y-99364648D01*
X97983620Y-99236305D01*
X97983620Y-83395193D01*
X102716498Y-78662316D01*
X102858600Y-78603456D01*
X102858599Y-79455027D01*
X98586476Y-83727151D01*
X98549739Y-83751698D01*
X98525192Y-83788435D01*
X98525190Y-83788437D01*
X98452490Y-83897241D01*
X98418341Y-84068920D01*
X98426961Y-84112256D01*
X98426960Y-98777909D01*
X98418341Y-98821240D01*
X98426960Y-98864571D01*
X98426960Y-98864575D01*
X98452489Y-98992918D01*
X98549738Y-99138462D01*
X98586478Y-99163011D01*
X99585201Y-100161735D01*
X99585200Y-106932489D01*
X99576581Y-106975820D01*
X99585200Y-107019151D01*
X99585200Y-107019155D01*
X99610729Y-107147498D01*
X99707978Y-107293042D01*
X99744718Y-107317591D01*
X100139451Y-107712325D01*
X100163998Y-107749062D01*
X100200735Y-107773609D01*
X100200736Y-107773610D01*
X100259062Y-107812582D01*
X100309541Y-107846311D01*
X100437884Y-107871840D01*
X100437889Y-107871840D01*
X100481220Y-107880459D01*
X100524551Y-107871840D01*
X111832094Y-107871840D01*
X112013160Y-107946840D01*
X112218040Y-107946840D01*
X112407324Y-107868436D01*
X112552196Y-107723564D01*
X112630600Y-107534280D01*
X112630600Y-107329400D01*
X112552196Y-107140116D01*
X112407324Y-106995244D01*
X112218040Y-106916840D01*
X112013160Y-106916840D01*
X111832094Y-106991840D01*
X100663474Y-106991840D01*
X100465200Y-106793567D01*
X100465200Y-106202400D01*
X100495476Y-106232676D01*
X100684760Y-106311080D01*
X100889640Y-106311080D01*
X101078924Y-106232676D01*
X101223796Y-106087804D01*
X101302200Y-105898520D01*
X101302200Y-105693640D01*
X101227200Y-105512574D01*
X101227200Y-103848497D01*
X101395960Y-103918400D01*
X101600840Y-103918400D01*
X101790124Y-103839996D01*
X101869229Y-103760891D01*
X101869229Y-104082200D01*
X101893677Y-104205107D01*
X101945189Y-104282200D01*
X101893677Y-104359293D01*
X101869229Y-104482200D01*
X101869229Y-105182200D01*
X101893677Y-105305107D01*
X101963298Y-105409302D01*
X102067493Y-105478923D01*
X102190400Y-105503371D01*
X103390400Y-105503371D01*
X103513307Y-105478923D01*
X103617502Y-105409302D01*
X103687123Y-105305107D01*
X103711571Y-105182200D01*
X103711571Y-104482200D01*
X103687123Y-104359293D01*
X103635611Y-104282200D01*
X103687123Y-104205107D01*
X103699636Y-104142200D01*
X110980193Y-104142200D01*
X111005330Y-104147200D01*
X111466532Y-104147200D01*
X111507400Y-104155329D01*
X111548268Y-104147200D01*
X111548272Y-104147200D01*
X111669325Y-104123121D01*
X111806598Y-104031398D01*
X111829751Y-103996747D01*
X111857298Y-103969200D01*
X111887840Y-103969200D01*
X112077124Y-103890796D01*
X112221996Y-103745924D01*
X112300400Y-103556640D01*
X112300400Y-103351760D01*
X112221996Y-103162476D01*
X112077124Y-103017604D01*
X111887840Y-102939200D01*
X111701121Y-102939200D01*
X111712798Y-102931398D01*
X111735951Y-102896747D01*
X112949499Y-101683200D01*
X112980040Y-101683200D01*
X113169324Y-101604796D01*
X113314196Y-101459924D01*
X113392600Y-101270640D01*
X113392600Y-101065760D01*
X113314196Y-100876476D01*
X113169324Y-100731604D01*
X112980040Y-100653200D01*
X112942428Y-100653200D01*
X110620600Y-98331373D01*
X110620600Y-94732200D01*
X112569229Y-94732200D01*
X112569229Y-95732200D01*
X112593677Y-95855107D01*
X112663298Y-95959302D01*
X112767493Y-96028923D01*
X112890400Y-96053371D01*
X113690400Y-96053371D01*
X113813307Y-96028923D01*
X113917502Y-95959302D01*
X113987123Y-95855107D01*
X114011571Y-95732200D01*
X114011571Y-94732200D01*
X113987123Y-94609293D01*
X113917502Y-94505098D01*
X113813307Y-94435477D01*
X113690400Y-94411029D01*
X112890400Y-94411029D01*
X112767493Y-94435477D01*
X112663298Y-94505098D01*
X112593677Y-94609293D01*
X112569229Y-94732200D01*
X110620600Y-94732200D01*
X110620600Y-91097920D01*
X110647196Y-91071324D01*
X110725600Y-90882040D01*
X110725600Y-90677160D01*
X110647196Y-90487876D01*
X110502324Y-90343004D01*
X110313040Y-90264600D01*
X110108160Y-90264600D01*
X109918876Y-90343004D01*
X109909620Y-90352260D01*
X109909620Y-88832320D01*
X109931216Y-88810724D01*
X110009620Y-88621440D01*
X110009620Y-88416560D01*
X109931216Y-88227276D01*
X109786344Y-88082404D01*
X109597060Y-88004000D01*
X109392180Y-88004000D01*
X109202896Y-88082404D01*
X109058024Y-88227276D01*
X108979620Y-88416560D01*
X108979620Y-88621440D01*
X109058024Y-88810724D01*
X109079621Y-88832321D01*
X109079620Y-94356081D01*
X103595383Y-99840319D01*
X103513307Y-99785477D01*
X103390400Y-99761029D01*
X103026469Y-99761029D01*
X103019686Y-98903371D01*
X103390400Y-98903371D01*
X103513307Y-98878923D01*
X103617502Y-98809302D01*
X103687123Y-98705107D01*
X103702885Y-98625868D01*
X103740374Y-98618411D01*
X103875993Y-98527793D01*
X103898866Y-98493561D01*
X105620561Y-96771866D01*
X105654793Y-96748993D01*
X105745411Y-96613374D01*
X105769200Y-96493779D01*
X105769200Y-96493776D01*
X105777231Y-96453401D01*
X105769200Y-96413025D01*
X105769200Y-95038827D01*
X108218027Y-92590000D01*
X108255640Y-92590000D01*
X108444924Y-92511596D01*
X108589796Y-92366724D01*
X108668200Y-92177440D01*
X108668200Y-91972560D01*
X108589796Y-91783276D01*
X108444924Y-91638404D01*
X108255640Y-91560000D01*
X108050760Y-91560000D01*
X107861476Y-91638404D01*
X107716604Y-91783276D01*
X107638200Y-91972560D01*
X107638200Y-92010173D01*
X105097837Y-94550536D01*
X105063608Y-94573407D01*
X105040737Y-94607636D01*
X105040734Y-94607639D01*
X104972989Y-94709027D01*
X104941169Y-94869000D01*
X104949201Y-94909380D01*
X104949200Y-96283573D01*
X103701887Y-97530886D01*
X103711571Y-97482200D01*
X103711571Y-96782200D01*
X103687123Y-96659293D01*
X103685724Y-96657200D01*
X103687123Y-96655107D01*
X103711571Y-96532200D01*
X103711571Y-95832200D01*
X103687123Y-95709293D01*
X103617502Y-95605098D01*
X103513307Y-95535477D01*
X103390400Y-95511029D01*
X102190400Y-95511029D01*
X102072956Y-95534390D01*
X101329200Y-95513140D01*
X101329200Y-87682341D01*
X101337330Y-87641469D01*
X101329200Y-87600597D01*
X101305121Y-87479544D01*
X101255620Y-87405461D01*
X101255620Y-87195935D01*
X101735948Y-86715608D01*
X101773560Y-86715608D01*
X101962844Y-86637204D01*
X102107716Y-86492332D01*
X102186120Y-86303048D01*
X102186120Y-86098168D01*
X102128833Y-85959864D01*
X104188646Y-85959864D01*
X104188646Y-86164744D01*
X104267050Y-86354028D01*
X104411922Y-86498900D01*
X104601206Y-86577304D01*
X104638819Y-86577304D01*
X104679181Y-86617666D01*
X104702054Y-86651898D01*
X104837673Y-86742516D01*
X104957268Y-86766305D01*
X104957272Y-86766305D01*
X104997647Y-86774336D01*
X105038022Y-86766305D01*
X106206399Y-86766305D01*
X106246774Y-86774336D01*
X106287149Y-86766305D01*
X106287153Y-86766305D01*
X106406748Y-86742516D01*
X106542367Y-86651898D01*
X106565240Y-86617666D01*
X109869668Y-83313239D01*
X109903898Y-83290367D01*
X109926769Y-83256138D01*
X109926771Y-83256136D01*
X109994516Y-83154748D01*
X110004919Y-83102448D01*
X110018305Y-83035152D01*
X110018305Y-83035150D01*
X110026336Y-82994774D01*
X110022002Y-82972985D01*
X110148427Y-82846560D01*
X110287640Y-82846560D01*
X110476924Y-82768156D01*
X110621796Y-82623284D01*
X110700200Y-82434000D01*
X110700200Y-82229120D01*
X110621796Y-82039836D01*
X110476924Y-81894964D01*
X110287640Y-81816560D01*
X110082760Y-81816560D01*
X109893476Y-81894964D01*
X109748604Y-82039836D01*
X109715446Y-82119887D01*
X109346944Y-82488389D01*
X109312712Y-82511262D01*
X109222094Y-82646882D01*
X109198305Y-82766477D01*
X109198305Y-82766480D01*
X109190274Y-82806855D01*
X109194608Y-82828643D01*
X106076947Y-85946305D01*
X105213030Y-85946305D01*
X105140242Y-85770580D01*
X104995370Y-85625708D01*
X104806086Y-85547304D01*
X104601206Y-85547304D01*
X104411922Y-85625708D01*
X104267050Y-85770580D01*
X104188646Y-85959864D01*
X102128833Y-85959864D01*
X102107716Y-85908884D01*
X101962844Y-85764012D01*
X101773560Y-85685608D01*
X101568680Y-85685608D01*
X101379396Y-85764012D01*
X101309573Y-85833835D01*
X101360619Y-85710599D01*
X101360619Y-85505719D01*
X101319672Y-85406864D01*
X101412376Y-85314160D01*
X101490780Y-85124876D01*
X101490780Y-84919996D01*
X101412376Y-84730712D01*
X101267504Y-84585840D01*
X101078220Y-84507436D01*
X100873340Y-84507436D01*
X100684056Y-84585840D01*
X100657460Y-84612436D01*
X100596709Y-84612436D01*
X100594761Y-84604775D01*
X100570241Y-84571954D01*
X99736524Y-83821609D01*
X103579085Y-79979049D01*
X103615821Y-79954503D01*
X103713070Y-79808960D01*
X103738599Y-79680617D01*
X103738599Y-79680612D01*
X103747218Y-79637281D01*
X103738599Y-79593950D01*
X103738599Y-78018129D01*
X103747218Y-77974798D01*
X103738599Y-77931467D01*
X103738599Y-77931463D01*
X103713070Y-77803120D01*
X103615821Y-77657577D01*
X103604283Y-77649868D01*
X103535196Y-77483076D01*
X103390324Y-77338204D01*
X103201040Y-77259800D01*
X102996160Y-77259800D01*
X102806876Y-77338204D01*
X102662004Y-77483076D01*
X102598777Y-77635720D01*
X102503400Y-77635720D01*
X102365935Y-77692660D01*
X100808540Y-77692660D01*
X100807144Y-77691264D01*
X100617860Y-77612860D01*
X100412980Y-77612860D01*
X100231914Y-77687860D01*
X100021551Y-77687860D01*
X99978220Y-77679241D01*
X99934889Y-77687860D01*
X99934884Y-77687860D01*
X99806541Y-77713389D01*
X99806539Y-77713390D01*
X99806540Y-77713390D01*
X99697736Y-77786090D01*
X99697735Y-77786091D01*
X99660998Y-77810638D01*
X99636451Y-77847375D01*
X95968667Y-81515160D01*
X95638630Y-81515160D01*
X95623758Y-81509000D01*
X95140402Y-81509000D01*
X95125530Y-81515160D01*
X94348120Y-81515160D01*
X94307938Y-81523153D01*
X94273874Y-81545914D01*
X94251113Y-81579978D01*
X94243120Y-81620160D01*
X94243120Y-82298745D01*
X94167080Y-82482322D01*
X92453120Y-82482322D01*
X92453120Y-76824000D01*
X94160909Y-76824000D01*
X94160909Y-78624000D01*
X94185357Y-78746907D01*
X94254978Y-78851102D01*
X94359173Y-78920723D01*
X94482080Y-78945171D01*
X96282080Y-78945171D01*
X96404987Y-78920723D01*
X96509182Y-78851102D01*
X96578803Y-78746907D01*
X96603251Y-78624000D01*
X96603251Y-76824000D01*
X96578803Y-76701093D01*
X96509182Y-76596898D01*
X96404987Y-76527277D01*
X96282080Y-76502829D01*
X94482080Y-76502829D01*
X94359173Y-76527277D01*
X94254978Y-76596898D01*
X94185357Y-76701093D01*
X94160909Y-76824000D01*
X92453120Y-76824000D01*
X92453120Y-70342760D01*
X102848191Y-70342760D01*
X102856321Y-70383633D01*
X102856320Y-72334122D01*
X102853289Y-72349360D01*
X102856320Y-72364598D01*
X102856320Y-72390231D01*
X102880399Y-72511284D01*
X102972122Y-72648558D01*
X103028083Y-72685950D01*
X103656318Y-73314185D01*
X103568876Y-73350404D01*
X103424004Y-73495276D01*
X103345600Y-73684560D01*
X103345600Y-73889440D01*
X103424004Y-74078724D01*
X103450600Y-74105320D01*
X103450601Y-76591420D01*
X103442569Y-76631800D01*
X103474389Y-76791773D01*
X103542134Y-76893161D01*
X103542137Y-76893164D01*
X103565008Y-76927393D01*
X103599237Y-76950264D01*
X104463200Y-77814227D01*
X104463200Y-77851840D01*
X104541604Y-78041124D01*
X104686476Y-78185996D01*
X104875760Y-78264400D01*
X105080640Y-78264400D01*
X105269924Y-78185996D01*
X105414796Y-78041124D01*
X105493200Y-77851840D01*
X105493200Y-77646960D01*
X105414796Y-77457676D01*
X105269924Y-77312804D01*
X105080640Y-77234400D01*
X105043027Y-77234400D01*
X104270600Y-76461973D01*
X104270600Y-74962465D01*
X105313913Y-74971780D01*
X108445920Y-78103787D01*
X108445920Y-78141400D01*
X108524324Y-78330684D01*
X108669196Y-78475556D01*
X108858480Y-78553960D01*
X108979610Y-78553960D01*
X108979610Y-78700200D01*
X109058014Y-78889484D01*
X109202886Y-79034356D01*
X109392170Y-79112760D01*
X109597050Y-79112760D01*
X109786334Y-79034356D01*
X109931206Y-78889484D01*
X110009610Y-78700200D01*
X110009610Y-78495320D01*
X109931206Y-78306036D01*
X109904610Y-78279440D01*
X109904610Y-77901823D01*
X109912641Y-77861449D01*
X109904610Y-77821075D01*
X109904610Y-77821071D01*
X109880821Y-77701476D01*
X109790203Y-77565857D01*
X109755971Y-77542984D01*
X109744204Y-77531217D01*
X109899779Y-77529588D01*
X109950680Y-77550672D01*
X110155560Y-77550672D01*
X110214415Y-77526293D01*
X111552671Y-77512280D01*
X112513774Y-78473383D01*
X112538321Y-78510120D01*
X112575058Y-78534667D01*
X112575059Y-78534668D01*
X112586528Y-78542331D01*
X112683864Y-78607369D01*
X112691971Y-78608981D01*
X112649622Y-78711220D01*
X112649622Y-78916100D01*
X112728026Y-79105384D01*
X112749622Y-79126980D01*
X112749622Y-79137373D01*
X112749623Y-79137378D01*
X112749622Y-81334159D01*
X112499370Y-81584412D01*
X112485133Y-81605719D01*
X110804556Y-83286297D01*
X110770327Y-83309168D01*
X110747456Y-83343397D01*
X110747453Y-83343400D01*
X110679708Y-83444788D01*
X110677238Y-83457207D01*
X110655919Y-83564382D01*
X110655919Y-83564386D01*
X110647888Y-83604761D01*
X110655919Y-83645136D01*
X110655919Y-83766113D01*
X110574196Y-83799964D01*
X110429324Y-83944836D01*
X110350920Y-84134120D01*
X110350920Y-84339000D01*
X110429324Y-84528284D01*
X110574196Y-84673156D01*
X110763480Y-84751560D01*
X110968360Y-84751560D01*
X111157644Y-84673156D01*
X111302516Y-84528284D01*
X111380920Y-84339000D01*
X111380920Y-84303108D01*
X111452130Y-84196535D01*
X111475919Y-84076940D01*
X111475919Y-84076936D01*
X111483950Y-84036562D01*
X111475919Y-83996188D01*
X111475919Y-83774588D01*
X113064961Y-82185547D01*
X113086268Y-82171310D01*
X113429172Y-81828407D01*
X113443879Y-81818580D01*
X113585105Y-81959806D01*
X113847898Y-82068658D01*
X114132342Y-82068658D01*
X114337121Y-81983836D01*
X114337121Y-82769260D01*
X113092722Y-84013660D01*
X113062180Y-84013660D01*
X112872896Y-84092064D01*
X112728024Y-84236936D01*
X112649620Y-84426220D01*
X112649620Y-84631100D01*
X112728024Y-84820384D01*
X112731706Y-84824066D01*
X112681088Y-84874683D01*
X112602684Y-85063967D01*
X112602684Y-85093160D01*
X112554180Y-85093160D01*
X112364896Y-85171564D01*
X112220024Y-85316436D01*
X112141620Y-85505720D01*
X112141620Y-85664660D01*
X112046180Y-85664660D01*
X111856896Y-85743064D01*
X111712024Y-85887936D01*
X111633620Y-86077220D01*
X111633620Y-86282100D01*
X111644450Y-86308247D01*
X111475896Y-86378064D01*
X111331024Y-86522936D01*
X111252620Y-86712220D01*
X111252620Y-86917100D01*
X111331024Y-87106384D01*
X111475896Y-87251256D01*
X111665180Y-87329660D01*
X111870060Y-87329660D01*
X112059344Y-87251256D01*
X112085940Y-87224660D01*
X115725205Y-87224660D01*
X115765580Y-87232691D01*
X115805955Y-87224660D01*
X115805959Y-87224660D01*
X115925554Y-87200871D01*
X116061173Y-87110253D01*
X116084046Y-87076021D01*
X116208867Y-86951200D01*
X116246480Y-86951200D01*
X116435764Y-86872796D01*
X116580636Y-86727924D01*
X116659040Y-86538640D01*
X116659040Y-86333760D01*
X116593275Y-86174990D01*
X116727718Y-86085158D01*
X116750871Y-86050507D01*
X116831056Y-85970322D01*
X116937603Y-85899130D01*
X118253326Y-84583408D01*
X118290062Y-84558862D01*
X118317674Y-84517539D01*
X118353582Y-84463798D01*
X118387311Y-84413319D01*
X118412840Y-84284976D01*
X118412840Y-84284972D01*
X118421459Y-84241641D01*
X118412840Y-84198310D01*
X118412840Y-78196360D01*
X118478676Y-78262196D01*
X118667960Y-78340600D01*
X118872840Y-78340600D01*
X119062124Y-78262196D01*
X119206996Y-78117324D01*
X119285400Y-77928040D01*
X119285400Y-77723160D01*
X119206996Y-77533876D01*
X119185400Y-77512280D01*
X119185400Y-68853498D01*
X119248698Y-68790200D01*
X119279240Y-68790200D01*
X119468524Y-68711796D01*
X119613396Y-68566924D01*
X119691800Y-68377640D01*
X119691800Y-68172760D01*
X119613396Y-67983476D01*
X119468524Y-67838604D01*
X119311037Y-67773371D01*
X119515948Y-67568460D01*
X119553560Y-67568460D01*
X119742844Y-67490056D01*
X119887716Y-67345184D01*
X119966120Y-67155900D01*
X119966120Y-66951020D01*
X119887716Y-66761736D01*
X119742844Y-66616864D01*
X119553560Y-66538460D01*
X119348680Y-66538460D01*
X119159396Y-66616864D01*
X119014524Y-66761736D01*
X118936120Y-66951020D01*
X118936120Y-66988632D01*
X118442120Y-67482632D01*
X118442120Y-67459020D01*
X118363716Y-67269736D01*
X118218844Y-67124864D01*
X118029560Y-67046460D01*
X117824680Y-67046460D01*
X117635396Y-67124864D01*
X117490524Y-67269736D01*
X117442233Y-67386321D01*
X117425040Y-67379200D01*
X117220160Y-67379200D01*
X117030876Y-67457604D01*
X116886004Y-67602476D01*
X116807600Y-67791760D01*
X116807600Y-67829372D01*
X115171573Y-69465400D01*
X113703920Y-69465400D01*
X113677324Y-69438804D01*
X113488040Y-69360400D01*
X113283160Y-69360400D01*
X113093876Y-69438804D01*
X112949004Y-69583676D01*
X112870600Y-69772960D01*
X112870600Y-69977840D01*
X112949004Y-70167124D01*
X113093876Y-70311996D01*
X113283160Y-70390400D01*
X113488040Y-70390400D01*
X113677324Y-70311996D01*
X113703920Y-70285400D01*
X115084175Y-70285400D01*
X113728757Y-71640818D01*
X113694528Y-71663689D01*
X113671657Y-71697918D01*
X113671654Y-71697921D01*
X113603909Y-71799309D01*
X113572089Y-71959282D01*
X113580121Y-71999662D01*
X113580120Y-75917240D01*
X113553524Y-75943836D01*
X113475120Y-76133120D01*
X113475120Y-76338000D01*
X113493493Y-76382356D01*
X111706110Y-76421212D01*
X110020776Y-74735878D01*
X109996227Y-74699138D01*
X109850684Y-74601889D01*
X109722341Y-74576360D01*
X109722336Y-74576360D01*
X109679005Y-74567741D01*
X109676385Y-74568262D01*
X109518335Y-74410212D01*
X109336785Y-74335012D01*
X109360040Y-72583102D01*
X109523960Y-72651000D01*
X109728840Y-72651000D01*
X109918124Y-72572596D01*
X110062996Y-72427724D01*
X110141400Y-72238440D01*
X110141400Y-72033560D01*
X110062996Y-71844276D01*
X109918124Y-71699404D01*
X109728840Y-71621000D01*
X109523960Y-71621000D01*
X109334676Y-71699404D01*
X109308080Y-71726000D01*
X106983451Y-71726000D01*
X106943077Y-71717969D01*
X106902703Y-71726000D01*
X106902699Y-71726000D01*
X106783104Y-71749789D01*
X106647485Y-71840407D01*
X106624612Y-71874639D01*
X105909451Y-72589800D01*
X104091587Y-72589800D01*
X103686320Y-72184533D01*
X103686320Y-70514658D01*
X103825818Y-70375160D01*
X103856360Y-70375160D01*
X104045644Y-70296756D01*
X104190516Y-70151884D01*
X104268920Y-69962600D01*
X104268920Y-69757720D01*
X104190516Y-69568436D01*
X104045644Y-69423564D01*
X103856360Y-69345160D01*
X103651480Y-69345160D01*
X103462196Y-69423564D01*
X103317324Y-69568436D01*
X103238920Y-69757720D01*
X103238920Y-69788262D01*
X103006771Y-70020411D01*
X102972123Y-70043562D01*
X102948972Y-70078210D01*
X102948970Y-70078212D01*
X102880399Y-70180836D01*
X102848191Y-70342760D01*
X92453120Y-70342760D01*
X92453120Y-62230422D01*
X101983120Y-62230422D01*
X101983120Y-62709897D01*
X102050715Y-63049719D01*
X102308202Y-63435078D01*
X102693560Y-63692565D01*
X103148120Y-63782983D01*
X103602679Y-63692565D01*
X103988038Y-63435078D01*
X104245525Y-63049720D01*
X104313120Y-62709898D01*
X104313120Y-62230423D01*
X104313120Y-62230422D01*
X104483120Y-62230422D01*
X104483120Y-62709897D01*
X104550715Y-63049719D01*
X104808202Y-63435078D01*
X105193560Y-63692565D01*
X105648120Y-63782983D01*
X106102679Y-63692565D01*
X106488038Y-63435078D01*
X106745525Y-63049720D01*
X106813120Y-62709898D01*
X106813120Y-62230423D01*
X106813120Y-62230422D01*
X106983120Y-62230422D01*
X106983120Y-62709897D01*
X107050715Y-63049719D01*
X107308202Y-63435078D01*
X107693560Y-63692565D01*
X108148120Y-63782983D01*
X108602679Y-63692565D01*
X108988038Y-63435078D01*
X109245525Y-63049720D01*
X109313120Y-62709898D01*
X109313120Y-62230423D01*
X109245525Y-61890601D01*
X108988038Y-61505242D01*
X108602680Y-61247755D01*
X108148120Y-61157337D01*
X107693561Y-61247755D01*
X107308203Y-61505242D01*
X107050715Y-61890600D01*
X106983120Y-62230422D01*
X106813120Y-62230422D01*
X106745525Y-61890601D01*
X106488038Y-61505242D01*
X106102680Y-61247755D01*
X105648120Y-61157337D01*
X105193561Y-61247755D01*
X104808203Y-61505242D01*
X104550715Y-61890600D01*
X104483120Y-62230422D01*
X104313120Y-62230422D01*
X104245525Y-61890601D01*
X103988038Y-61505242D01*
X103602680Y-61247755D01*
X103148120Y-61157337D01*
X102693561Y-61247755D01*
X102308203Y-61505242D01*
X102050715Y-61890600D01*
X101983120Y-62230422D01*
X92453120Y-62230422D01*
X92453120Y-58877044D01*
X92518566Y-58379931D01*
X92707786Y-57923114D01*
X93008793Y-57530833D01*
X93401074Y-57229826D01*
X93857891Y-57040606D01*
X94355004Y-56975160D01*
X98348120Y-56975160D01*
X98361825Y-56974262D01*
X98879463Y-56906114D01*
X98905940Y-56899019D01*
X99388302Y-56699218D01*
X99412040Y-56685513D01*
X99826254Y-56367676D01*
X99845636Y-56348294D01*
X100163473Y-55934080D01*
X100177178Y-55910342D01*
X100376979Y-55427980D01*
X100384074Y-55401503D01*
X100452222Y-54883865D01*
X100453120Y-54870160D01*
X100453120Y-50877044D01*
X100518566Y-50379931D01*
X100707786Y-49923114D01*
X101008793Y-49530833D01*
X101401074Y-49229826D01*
X101857891Y-49040606D01*
X102355004Y-48975160D01*
X111341236Y-48975160D01*
X111838349Y-49040606D01*
X111838349Y-49040606D01*
G37*
X111838349Y-49040606D02*
X112295166Y-49229826D01*
X112687447Y-49530833D01*
X112988454Y-49923114D01*
X113177674Y-50379931D01*
X113243120Y-50877044D01*
X113243120Y-54870160D01*
X113244018Y-54883865D01*
X113312166Y-55401503D01*
X113319261Y-55427980D01*
X113519062Y-55910342D01*
X113532767Y-55934080D01*
X113850604Y-56348294D01*
X113869986Y-56367676D01*
X114284200Y-56685513D01*
X114307938Y-56699218D01*
X114790300Y-56899019D01*
X114816777Y-56906114D01*
X115334415Y-56974262D01*
X115348120Y-56975160D01*
X119341236Y-56975160D01*
X119838349Y-57040606D01*
X120295166Y-57229826D01*
X120687447Y-57530833D01*
X120988454Y-57923114D01*
X121177674Y-58379931D01*
X121243120Y-58877044D01*
X121243120Y-107863276D01*
X121177674Y-108360389D01*
X120988454Y-108817206D01*
X120687447Y-109209487D01*
X120295166Y-109510494D01*
X119838349Y-109699714D01*
X119341236Y-109765160D01*
X115348120Y-109765160D01*
X115334415Y-109766058D01*
X114816777Y-109834206D01*
X114790300Y-109841301D01*
X114307938Y-110041102D01*
X114284200Y-110054807D01*
X113869986Y-110372644D01*
X113850604Y-110392026D01*
X113532767Y-110806240D01*
X113519062Y-110829978D01*
X113319261Y-111312340D01*
X113312166Y-111338817D01*
X113244018Y-111856455D01*
X113243120Y-111870160D01*
X113243120Y-115863276D01*
X113177674Y-116360389D01*
X112988454Y-116817206D01*
X112687447Y-117209487D01*
X112295166Y-117510494D01*
X111838349Y-117699714D01*
X111341236Y-117765160D01*
X102355004Y-117765160D01*
X101857891Y-117699714D01*
X101401074Y-117510494D01*
X101008793Y-117209487D01*
X100707786Y-116817206D01*
X100518566Y-116360389D01*
X100453120Y-115863276D01*
X100453120Y-111870160D01*
X100452222Y-111856455D01*
X100384074Y-111338817D01*
X100376979Y-111312340D01*
X100177178Y-110829978D01*
X100163473Y-110806240D01*
X99845636Y-110392026D01*
X99826254Y-110372644D01*
X99412040Y-110054807D01*
X99388302Y-110041102D01*
X98905940Y-109841301D01*
X98879463Y-109834206D01*
X98361825Y-109766058D01*
X98348120Y-109765160D01*
X94355004Y-109765160D01*
X93857891Y-109699714D01*
X93401074Y-109510494D01*
X93008793Y-109209487D01*
X92707786Y-108817206D01*
X92518566Y-108360389D01*
X92453120Y-107863276D01*
X92453120Y-106834904D01*
X92473197Y-106830910D01*
X92586959Y-106808281D01*
X92715963Y-106722084D01*
X92802160Y-106593080D01*
X92832429Y-106440910D01*
X92824789Y-106402502D01*
X92824789Y-99004318D01*
X92832429Y-98965910D01*
X92802160Y-98813740D01*
X92715963Y-98684736D01*
X92586959Y-98598539D01*
X92473197Y-98575910D01*
X92453120Y-98571916D01*
X92453120Y-82482322D01*
X94167080Y-82482322D01*
X94167080Y-82965678D01*
X94243120Y-83149255D01*
X94243120Y-84798745D01*
X94167080Y-84982322D01*
X94167080Y-85465678D01*
X94243120Y-85649255D01*
X94243120Y-87298745D01*
X94167080Y-87482322D01*
X94167080Y-87965678D01*
X94352053Y-88412242D01*
X94693838Y-88754027D01*
X95140402Y-88939000D01*
X95623758Y-88939000D01*
X96070322Y-88754027D01*
X96412107Y-88412242D01*
X96551731Y-88075160D01*
X97103621Y-88075160D01*
X97103620Y-99053142D01*
X96188639Y-99968123D01*
X96154407Y-99990996D01*
X96063789Y-100126616D01*
X96040000Y-100246211D01*
X96040000Y-100246214D01*
X96031969Y-100286589D01*
X96040000Y-100326964D01*
X96040001Y-105325020D01*
X96031969Y-105365400D01*
X96063789Y-105525373D01*
X96131534Y-105626761D01*
X96131537Y-105626764D01*
X96154408Y-105660993D01*
X96188637Y-105683864D01*
X97865090Y-107360318D01*
X97866660Y-107368209D01*
X97939360Y-107477013D01*
X99480229Y-109017882D01*
X99504778Y-109054622D01*
X99611915Y-109126209D01*
X99650319Y-109151870D01*
X99650320Y-109151870D01*
X99650321Y-109151871D01*
X99778664Y-109177400D01*
X99778668Y-109177400D01*
X99821999Y-109186019D01*
X99865330Y-109177400D01*
X112202934Y-109177400D01*
X112384000Y-109252400D01*
X112588880Y-109252400D01*
X112778164Y-109173996D01*
X112923036Y-109029124D01*
X113001440Y-108839840D01*
X113001440Y-108634960D01*
X112923036Y-108445676D01*
X112778164Y-108300804D01*
X112588880Y-108222400D01*
X112384000Y-108222400D01*
X112202934Y-108297400D01*
X100004253Y-108297400D01*
X98561613Y-106854760D01*
X98452809Y-106782060D01*
X98444918Y-106780490D01*
X96860000Y-105195573D01*
X96860000Y-100456416D01*
X97707406Y-99609010D01*
X97715298Y-99607440D01*
X97860842Y-99510191D01*
X97958091Y-99364648D01*
X97983620Y-99236305D01*
X97983620Y-83395193D01*
X102716498Y-78662316D01*
X102858600Y-78603456D01*
X102858599Y-79455027D01*
X98586476Y-83727151D01*
X98549739Y-83751698D01*
X98525192Y-83788435D01*
X98525190Y-83788437D01*
X98452490Y-83897241D01*
X98418341Y-84068920D01*
X98426961Y-84112256D01*
X98426960Y-98777909D01*
X98418341Y-98821240D01*
X98426960Y-98864571D01*
X98426960Y-98864575D01*
X98452489Y-98992918D01*
X98549738Y-99138462D01*
X98586478Y-99163011D01*
X99585201Y-100161735D01*
X99585200Y-106932489D01*
X99576581Y-106975820D01*
X99585200Y-107019151D01*
X99585200Y-107019155D01*
X99610729Y-107147498D01*
X99707978Y-107293042D01*
X99744718Y-107317591D01*
X100139451Y-107712325D01*
X100163998Y-107749062D01*
X100200735Y-107773609D01*
X100200736Y-107773610D01*
X100259062Y-107812582D01*
X100309541Y-107846311D01*
X100437884Y-107871840D01*
X100437889Y-107871840D01*
X100481220Y-107880459D01*
X100524551Y-107871840D01*
X111832094Y-107871840D01*
X112013160Y-107946840D01*
X112218040Y-107946840D01*
X112407324Y-107868436D01*
X112552196Y-107723564D01*
X112630600Y-107534280D01*
X112630600Y-107329400D01*
X112552196Y-107140116D01*
X112407324Y-106995244D01*
X112218040Y-106916840D01*
X112013160Y-106916840D01*
X111832094Y-106991840D01*
X100663474Y-106991840D01*
X100465200Y-106793567D01*
X100465200Y-106202400D01*
X100495476Y-106232676D01*
X100684760Y-106311080D01*
X100889640Y-106311080D01*
X101078924Y-106232676D01*
X101223796Y-106087804D01*
X101302200Y-105898520D01*
X101302200Y-105693640D01*
X101227200Y-105512574D01*
X101227200Y-103848497D01*
X101395960Y-103918400D01*
X101600840Y-103918400D01*
X101790124Y-103839996D01*
X101869229Y-103760891D01*
X101869229Y-104082200D01*
X101893677Y-104205107D01*
X101945189Y-104282200D01*
X101893677Y-104359293D01*
X101869229Y-104482200D01*
X101869229Y-105182200D01*
X101893677Y-105305107D01*
X101963298Y-105409302D01*
X102067493Y-105478923D01*
X102190400Y-105503371D01*
X103390400Y-105503371D01*
X103513307Y-105478923D01*
X103617502Y-105409302D01*
X103687123Y-105305107D01*
X103711571Y-105182200D01*
X103711571Y-104482200D01*
X103687123Y-104359293D01*
X103635611Y-104282200D01*
X103687123Y-104205107D01*
X103699636Y-104142200D01*
X110980193Y-104142200D01*
X111005330Y-104147200D01*
X111466532Y-104147200D01*
X111507400Y-104155329D01*
X111548268Y-104147200D01*
X111548272Y-104147200D01*
X111669325Y-104123121D01*
X111806598Y-104031398D01*
X111829751Y-103996747D01*
X111857298Y-103969200D01*
X111887840Y-103969200D01*
X112077124Y-103890796D01*
X112221996Y-103745924D01*
X112300400Y-103556640D01*
X112300400Y-103351760D01*
X112221996Y-103162476D01*
X112077124Y-103017604D01*
X111887840Y-102939200D01*
X111701121Y-102939200D01*
X111712798Y-102931398D01*
X111735951Y-102896747D01*
X112949499Y-101683200D01*
X112980040Y-101683200D01*
X113169324Y-101604796D01*
X113314196Y-101459924D01*
X113392600Y-101270640D01*
X113392600Y-101065760D01*
X113314196Y-100876476D01*
X113169324Y-100731604D01*
X112980040Y-100653200D01*
X112942428Y-100653200D01*
X110620600Y-98331373D01*
X110620600Y-94732200D01*
X112569229Y-94732200D01*
X112569229Y-95732200D01*
X112593677Y-95855107D01*
X112663298Y-95959302D01*
X112767493Y-96028923D01*
X112890400Y-96053371D01*
X113690400Y-96053371D01*
X113813307Y-96028923D01*
X113917502Y-95959302D01*
X113987123Y-95855107D01*
X114011571Y-95732200D01*
X114011571Y-94732200D01*
X113987123Y-94609293D01*
X113917502Y-94505098D01*
X113813307Y-94435477D01*
X113690400Y-94411029D01*
X112890400Y-94411029D01*
X112767493Y-94435477D01*
X112663298Y-94505098D01*
X112593677Y-94609293D01*
X112569229Y-94732200D01*
X110620600Y-94732200D01*
X110620600Y-91097920D01*
X110647196Y-91071324D01*
X110725600Y-90882040D01*
X110725600Y-90677160D01*
X110647196Y-90487876D01*
X110502324Y-90343004D01*
X110313040Y-90264600D01*
X110108160Y-90264600D01*
X109918876Y-90343004D01*
X109909620Y-90352260D01*
X109909620Y-88832320D01*
X109931216Y-88810724D01*
X110009620Y-88621440D01*
X110009620Y-88416560D01*
X109931216Y-88227276D01*
X109786344Y-88082404D01*
X109597060Y-88004000D01*
X109392180Y-88004000D01*
X109202896Y-88082404D01*
X109058024Y-88227276D01*
X108979620Y-88416560D01*
X108979620Y-88621440D01*
X109058024Y-88810724D01*
X109079621Y-88832321D01*
X109079620Y-94356081D01*
X103595383Y-99840319D01*
X103513307Y-99785477D01*
X103390400Y-99761029D01*
X103026469Y-99761029D01*
X103019686Y-98903371D01*
X103390400Y-98903371D01*
X103513307Y-98878923D01*
X103617502Y-98809302D01*
X103687123Y-98705107D01*
X103702885Y-98625868D01*
X103740374Y-98618411D01*
X103875993Y-98527793D01*
X103898866Y-98493561D01*
X105620561Y-96771866D01*
X105654793Y-96748993D01*
X105745411Y-96613374D01*
X105769200Y-96493779D01*
X105769200Y-96493776D01*
X105777231Y-96453401D01*
X105769200Y-96413025D01*
X105769200Y-95038827D01*
X108218027Y-92590000D01*
X108255640Y-92590000D01*
X108444924Y-92511596D01*
X108589796Y-92366724D01*
X108668200Y-92177440D01*
X108668200Y-91972560D01*
X108589796Y-91783276D01*
X108444924Y-91638404D01*
X108255640Y-91560000D01*
X108050760Y-91560000D01*
X107861476Y-91638404D01*
X107716604Y-91783276D01*
X107638200Y-91972560D01*
X107638200Y-92010173D01*
X105097837Y-94550536D01*
X105063608Y-94573407D01*
X105040737Y-94607636D01*
X105040734Y-94607639D01*
X104972989Y-94709027D01*
X104941169Y-94869000D01*
X104949201Y-94909380D01*
X104949200Y-96283573D01*
X103701887Y-97530886D01*
X103711571Y-97482200D01*
X103711571Y-96782200D01*
X103687123Y-96659293D01*
X103685724Y-96657200D01*
X103687123Y-96655107D01*
X103711571Y-96532200D01*
X103711571Y-95832200D01*
X103687123Y-95709293D01*
X103617502Y-95605098D01*
X103513307Y-95535477D01*
X103390400Y-95511029D01*
X102190400Y-95511029D01*
X102072956Y-95534390D01*
X101329200Y-95513140D01*
X101329200Y-87682341D01*
X101337330Y-87641469D01*
X101329200Y-87600597D01*
X101305121Y-87479544D01*
X101255620Y-87405461D01*
X101255620Y-87195935D01*
X101735948Y-86715608D01*
X101773560Y-86715608D01*
X101962844Y-86637204D01*
X102107716Y-86492332D01*
X102186120Y-86303048D01*
X102186120Y-86098168D01*
X102128833Y-85959864D01*
X104188646Y-85959864D01*
X104188646Y-86164744D01*
X104267050Y-86354028D01*
X104411922Y-86498900D01*
X104601206Y-86577304D01*
X104638819Y-86577304D01*
X104679181Y-86617666D01*
X104702054Y-86651898D01*
X104837673Y-86742516D01*
X104957268Y-86766305D01*
X104957272Y-86766305D01*
X104997647Y-86774336D01*
X105038022Y-86766305D01*
X106206399Y-86766305D01*
X106246774Y-86774336D01*
X106287149Y-86766305D01*
X106287153Y-86766305D01*
X106406748Y-86742516D01*
X106542367Y-86651898D01*
X106565240Y-86617666D01*
X109869668Y-83313239D01*
X109903898Y-83290367D01*
X109926769Y-83256138D01*
X109926771Y-83256136D01*
X109994516Y-83154748D01*
X110004919Y-83102448D01*
X110018305Y-83035152D01*
X110018305Y-83035150D01*
X110026336Y-82994774D01*
X110022002Y-82972985D01*
X110148427Y-82846560D01*
X110287640Y-82846560D01*
X110476924Y-82768156D01*
X110621796Y-82623284D01*
X110700200Y-82434000D01*
X110700200Y-82229120D01*
X110621796Y-82039836D01*
X110476924Y-81894964D01*
X110287640Y-81816560D01*
X110082760Y-81816560D01*
X109893476Y-81894964D01*
X109748604Y-82039836D01*
X109715446Y-82119887D01*
X109346944Y-82488389D01*
X109312712Y-82511262D01*
X109222094Y-82646882D01*
X109198305Y-82766477D01*
X109198305Y-82766480D01*
X109190274Y-82806855D01*
X109194608Y-82828643D01*
X106076947Y-85946305D01*
X105213030Y-85946305D01*
X105140242Y-85770580D01*
X104995370Y-85625708D01*
X104806086Y-85547304D01*
X104601206Y-85547304D01*
X104411922Y-85625708D01*
X104267050Y-85770580D01*
X104188646Y-85959864D01*
X102128833Y-85959864D01*
X102107716Y-85908884D01*
X101962844Y-85764012D01*
X101773560Y-85685608D01*
X101568680Y-85685608D01*
X101379396Y-85764012D01*
X101309573Y-85833835D01*
X101360619Y-85710599D01*
X101360619Y-85505719D01*
X101319672Y-85406864D01*
X101412376Y-85314160D01*
X101490780Y-85124876D01*
X101490780Y-84919996D01*
X101412376Y-84730712D01*
X101267504Y-84585840D01*
X101078220Y-84507436D01*
X100873340Y-84507436D01*
X100684056Y-84585840D01*
X100657460Y-84612436D01*
X100596709Y-84612436D01*
X100594761Y-84604775D01*
X100570241Y-84571954D01*
X99736524Y-83821609D01*
X103579085Y-79979049D01*
X103615821Y-79954503D01*
X103713070Y-79808960D01*
X103738599Y-79680617D01*
X103738599Y-79680612D01*
X103747218Y-79637281D01*
X103738599Y-79593950D01*
X103738599Y-78018129D01*
X103747218Y-77974798D01*
X103738599Y-77931467D01*
X103738599Y-77931463D01*
X103713070Y-77803120D01*
X103615821Y-77657577D01*
X103604283Y-77649868D01*
X103535196Y-77483076D01*
X103390324Y-77338204D01*
X103201040Y-77259800D01*
X102996160Y-77259800D01*
X102806876Y-77338204D01*
X102662004Y-77483076D01*
X102598777Y-77635720D01*
X102503400Y-77635720D01*
X102365935Y-77692660D01*
X100808540Y-77692660D01*
X100807144Y-77691264D01*
X100617860Y-77612860D01*
X100412980Y-77612860D01*
X100231914Y-77687860D01*
X100021551Y-77687860D01*
X99978220Y-77679241D01*
X99934889Y-77687860D01*
X99934884Y-77687860D01*
X99806541Y-77713389D01*
X99806539Y-77713390D01*
X99806540Y-77713390D01*
X99697736Y-77786090D01*
X99697735Y-77786091D01*
X99660998Y-77810638D01*
X99636451Y-77847375D01*
X95968667Y-81515160D01*
X95638630Y-81515160D01*
X95623758Y-81509000D01*
X95140402Y-81509000D01*
X95125530Y-81515160D01*
X94348120Y-81515160D01*
X94307938Y-81523153D01*
X94273874Y-81545914D01*
X94251113Y-81579978D01*
X94243120Y-81620160D01*
X94243120Y-82298745D01*
X94167080Y-82482322D01*
X92453120Y-82482322D01*
X92453120Y-76824000D01*
X94160909Y-76824000D01*
X94160909Y-78624000D01*
X94185357Y-78746907D01*
X94254978Y-78851102D01*
X94359173Y-78920723D01*
X94482080Y-78945171D01*
X96282080Y-78945171D01*
X96404987Y-78920723D01*
X96509182Y-78851102D01*
X96578803Y-78746907D01*
X96603251Y-78624000D01*
X96603251Y-76824000D01*
X96578803Y-76701093D01*
X96509182Y-76596898D01*
X96404987Y-76527277D01*
X96282080Y-76502829D01*
X94482080Y-76502829D01*
X94359173Y-76527277D01*
X94254978Y-76596898D01*
X94185357Y-76701093D01*
X94160909Y-76824000D01*
X92453120Y-76824000D01*
X92453120Y-70342760D01*
X102848191Y-70342760D01*
X102856321Y-70383633D01*
X102856320Y-72334122D01*
X102853289Y-72349360D01*
X102856320Y-72364598D01*
X102856320Y-72390231D01*
X102880399Y-72511284D01*
X102972122Y-72648558D01*
X103028083Y-72685950D01*
X103656318Y-73314185D01*
X103568876Y-73350404D01*
X103424004Y-73495276D01*
X103345600Y-73684560D01*
X103345600Y-73889440D01*
X103424004Y-74078724D01*
X103450600Y-74105320D01*
X103450601Y-76591420D01*
X103442569Y-76631800D01*
X103474389Y-76791773D01*
X103542134Y-76893161D01*
X103542137Y-76893164D01*
X103565008Y-76927393D01*
X103599237Y-76950264D01*
X104463200Y-77814227D01*
X104463200Y-77851840D01*
X104541604Y-78041124D01*
X104686476Y-78185996D01*
X104875760Y-78264400D01*
X105080640Y-78264400D01*
X105269924Y-78185996D01*
X105414796Y-78041124D01*
X105493200Y-77851840D01*
X105493200Y-77646960D01*
X105414796Y-77457676D01*
X105269924Y-77312804D01*
X105080640Y-77234400D01*
X105043027Y-77234400D01*
X104270600Y-76461973D01*
X104270600Y-74962465D01*
X105313913Y-74971780D01*
X108445920Y-78103787D01*
X108445920Y-78141400D01*
X108524324Y-78330684D01*
X108669196Y-78475556D01*
X108858480Y-78553960D01*
X108979610Y-78553960D01*
X108979610Y-78700200D01*
X109058014Y-78889484D01*
X109202886Y-79034356D01*
X109392170Y-79112760D01*
X109597050Y-79112760D01*
X109786334Y-79034356D01*
X109931206Y-78889484D01*
X110009610Y-78700200D01*
X110009610Y-78495320D01*
X109931206Y-78306036D01*
X109904610Y-78279440D01*
X109904610Y-77901823D01*
X109912641Y-77861449D01*
X109904610Y-77821075D01*
X109904610Y-77821071D01*
X109880821Y-77701476D01*
X109790203Y-77565857D01*
X109755971Y-77542984D01*
X109744204Y-77531217D01*
X109899779Y-77529588D01*
X109950680Y-77550672D01*
X110155560Y-77550672D01*
X110214415Y-77526293D01*
X111552671Y-77512280D01*
X112513774Y-78473383D01*
X112538321Y-78510120D01*
X112575058Y-78534667D01*
X112575059Y-78534668D01*
X112586528Y-78542331D01*
X112683864Y-78607369D01*
X112691971Y-78608981D01*
X112649622Y-78711220D01*
X112649622Y-78916100D01*
X112728026Y-79105384D01*
X112749622Y-79126980D01*
X112749622Y-79137373D01*
X112749623Y-79137378D01*
X112749622Y-81334159D01*
X112499370Y-81584412D01*
X112485133Y-81605719D01*
X110804556Y-83286297D01*
X110770327Y-83309168D01*
X110747456Y-83343397D01*
X110747453Y-83343400D01*
X110679708Y-83444788D01*
X110677238Y-83457207D01*
X110655919Y-83564382D01*
X110655919Y-83564386D01*
X110647888Y-83604761D01*
X110655919Y-83645136D01*
X110655919Y-83766113D01*
X110574196Y-83799964D01*
X110429324Y-83944836D01*
X110350920Y-84134120D01*
X110350920Y-84339000D01*
X110429324Y-84528284D01*
X110574196Y-84673156D01*
X110763480Y-84751560D01*
X110968360Y-84751560D01*
X111157644Y-84673156D01*
X111302516Y-84528284D01*
X111380920Y-84339000D01*
X111380920Y-84303108D01*
X111452130Y-84196535D01*
X111475919Y-84076940D01*
X111475919Y-84076936D01*
X111483950Y-84036562D01*
X111475919Y-83996188D01*
X111475919Y-83774588D01*
X113064961Y-82185547D01*
X113086268Y-82171310D01*
X113429172Y-81828407D01*
X113443879Y-81818580D01*
X113585105Y-81959806D01*
X113847898Y-82068658D01*
X114132342Y-82068658D01*
X114337121Y-81983836D01*
X114337121Y-82769260D01*
X113092722Y-84013660D01*
X113062180Y-84013660D01*
X112872896Y-84092064D01*
X112728024Y-84236936D01*
X112649620Y-84426220D01*
X112649620Y-84631100D01*
X112728024Y-84820384D01*
X112731706Y-84824066D01*
X112681088Y-84874683D01*
X112602684Y-85063967D01*
X112602684Y-85093160D01*
X112554180Y-85093160D01*
X112364896Y-85171564D01*
X112220024Y-85316436D01*
X112141620Y-85505720D01*
X112141620Y-85664660D01*
X112046180Y-85664660D01*
X111856896Y-85743064D01*
X111712024Y-85887936D01*
X111633620Y-86077220D01*
X111633620Y-86282100D01*
X111644450Y-86308247D01*
X111475896Y-86378064D01*
X111331024Y-86522936D01*
X111252620Y-86712220D01*
X111252620Y-86917100D01*
X111331024Y-87106384D01*
X111475896Y-87251256D01*
X111665180Y-87329660D01*
X111870060Y-87329660D01*
X112059344Y-87251256D01*
X112085940Y-87224660D01*
X115725205Y-87224660D01*
X115765580Y-87232691D01*
X115805955Y-87224660D01*
X115805959Y-87224660D01*
X115925554Y-87200871D01*
X116061173Y-87110253D01*
X116084046Y-87076021D01*
X116208867Y-86951200D01*
X116246480Y-86951200D01*
X116435764Y-86872796D01*
X116580636Y-86727924D01*
X116659040Y-86538640D01*
X116659040Y-86333760D01*
X116593275Y-86174990D01*
X116727718Y-86085158D01*
X116750871Y-86050507D01*
X116831056Y-85970322D01*
X116937603Y-85899130D01*
X118253326Y-84583408D01*
X118290062Y-84558862D01*
X118317674Y-84517539D01*
X118353582Y-84463798D01*
X118387311Y-84413319D01*
X118412840Y-84284976D01*
X118412840Y-84284972D01*
X118421459Y-84241641D01*
X118412840Y-84198310D01*
X118412840Y-78196360D01*
X118478676Y-78262196D01*
X118667960Y-78340600D01*
X118872840Y-78340600D01*
X119062124Y-78262196D01*
X119206996Y-78117324D01*
X119285400Y-77928040D01*
X119285400Y-77723160D01*
X119206996Y-77533876D01*
X119185400Y-77512280D01*
X119185400Y-68853498D01*
X119248698Y-68790200D01*
X119279240Y-68790200D01*
X119468524Y-68711796D01*
X119613396Y-68566924D01*
X119691800Y-68377640D01*
X119691800Y-68172760D01*
X119613396Y-67983476D01*
X119468524Y-67838604D01*
X119311037Y-67773371D01*
X119515948Y-67568460D01*
X119553560Y-67568460D01*
X119742844Y-67490056D01*
X119887716Y-67345184D01*
X119966120Y-67155900D01*
X119966120Y-66951020D01*
X119887716Y-66761736D01*
X119742844Y-66616864D01*
X119553560Y-66538460D01*
X119348680Y-66538460D01*
X119159396Y-66616864D01*
X119014524Y-66761736D01*
X118936120Y-66951020D01*
X118936120Y-66988632D01*
X118442120Y-67482632D01*
X118442120Y-67459020D01*
X118363716Y-67269736D01*
X118218844Y-67124864D01*
X118029560Y-67046460D01*
X117824680Y-67046460D01*
X117635396Y-67124864D01*
X117490524Y-67269736D01*
X117442233Y-67386321D01*
X117425040Y-67379200D01*
X117220160Y-67379200D01*
X117030876Y-67457604D01*
X116886004Y-67602476D01*
X116807600Y-67791760D01*
X116807600Y-67829372D01*
X115171573Y-69465400D01*
X113703920Y-69465400D01*
X113677324Y-69438804D01*
X113488040Y-69360400D01*
X113283160Y-69360400D01*
X113093876Y-69438804D01*
X112949004Y-69583676D01*
X112870600Y-69772960D01*
X112870600Y-69977840D01*
X112949004Y-70167124D01*
X113093876Y-70311996D01*
X113283160Y-70390400D01*
X113488040Y-70390400D01*
X113677324Y-70311996D01*
X113703920Y-70285400D01*
X115084175Y-70285400D01*
X113728757Y-71640818D01*
X113694528Y-71663689D01*
X113671657Y-71697918D01*
X113671654Y-71697921D01*
X113603909Y-71799309D01*
X113572089Y-71959282D01*
X113580121Y-71999662D01*
X113580120Y-75917240D01*
X113553524Y-75943836D01*
X113475120Y-76133120D01*
X113475120Y-76338000D01*
X113493493Y-76382356D01*
X111706110Y-76421212D01*
X110020776Y-74735878D01*
X109996227Y-74699138D01*
X109850684Y-74601889D01*
X109722341Y-74576360D01*
X109722336Y-74576360D01*
X109679005Y-74567741D01*
X109676385Y-74568262D01*
X109518335Y-74410212D01*
X109336785Y-74335012D01*
X109360040Y-72583102D01*
X109523960Y-72651000D01*
X109728840Y-72651000D01*
X109918124Y-72572596D01*
X110062996Y-72427724D01*
X110141400Y-72238440D01*
X110141400Y-72033560D01*
X110062996Y-71844276D01*
X109918124Y-71699404D01*
X109728840Y-71621000D01*
X109523960Y-71621000D01*
X109334676Y-71699404D01*
X109308080Y-71726000D01*
X106983451Y-71726000D01*
X106943077Y-71717969D01*
X106902703Y-71726000D01*
X106902699Y-71726000D01*
X106783104Y-71749789D01*
X106647485Y-71840407D01*
X106624612Y-71874639D01*
X105909451Y-72589800D01*
X104091587Y-72589800D01*
X103686320Y-72184533D01*
X103686320Y-70514658D01*
X103825818Y-70375160D01*
X103856360Y-70375160D01*
X104045644Y-70296756D01*
X104190516Y-70151884D01*
X104268920Y-69962600D01*
X104268920Y-69757720D01*
X104190516Y-69568436D01*
X104045644Y-69423564D01*
X103856360Y-69345160D01*
X103651480Y-69345160D01*
X103462196Y-69423564D01*
X103317324Y-69568436D01*
X103238920Y-69757720D01*
X103238920Y-69788262D01*
X103006771Y-70020411D01*
X102972123Y-70043562D01*
X102948972Y-70078210D01*
X102948970Y-70078212D01*
X102880399Y-70180836D01*
X102848191Y-70342760D01*
X92453120Y-70342760D01*
X92453120Y-62230422D01*
X101983120Y-62230422D01*
X101983120Y-62709897D01*
X102050715Y-63049719D01*
X102308202Y-63435078D01*
X102693560Y-63692565D01*
X103148120Y-63782983D01*
X103602679Y-63692565D01*
X103988038Y-63435078D01*
X104245525Y-63049720D01*
X104313120Y-62709898D01*
X104313120Y-62230423D01*
X104313120Y-62230422D01*
X104483120Y-62230422D01*
X104483120Y-62709897D01*
X104550715Y-63049719D01*
X104808202Y-63435078D01*
X105193560Y-63692565D01*
X105648120Y-63782983D01*
X106102679Y-63692565D01*
X106488038Y-63435078D01*
X106745525Y-63049720D01*
X106813120Y-62709898D01*
X106813120Y-62230423D01*
X106813120Y-62230422D01*
X106983120Y-62230422D01*
X106983120Y-62709897D01*
X107050715Y-63049719D01*
X107308202Y-63435078D01*
X107693560Y-63692565D01*
X108148120Y-63782983D01*
X108602679Y-63692565D01*
X108988038Y-63435078D01*
X109245525Y-63049720D01*
X109313120Y-62709898D01*
X109313120Y-62230423D01*
X109245525Y-61890601D01*
X108988038Y-61505242D01*
X108602680Y-61247755D01*
X108148120Y-61157337D01*
X107693561Y-61247755D01*
X107308203Y-61505242D01*
X107050715Y-61890600D01*
X106983120Y-62230422D01*
X106813120Y-62230422D01*
X106745525Y-61890601D01*
X106488038Y-61505242D01*
X106102680Y-61247755D01*
X105648120Y-61157337D01*
X105193561Y-61247755D01*
X104808203Y-61505242D01*
X104550715Y-61890600D01*
X104483120Y-62230422D01*
X104313120Y-62230422D01*
X104245525Y-61890601D01*
X103988038Y-61505242D01*
X103602680Y-61247755D01*
X103148120Y-61157337D01*
X102693561Y-61247755D01*
X102308203Y-61505242D01*
X102050715Y-61890600D01*
X101983120Y-62230422D01*
X92453120Y-62230422D01*
X92453120Y-58877044D01*
X92518566Y-58379931D01*
X92707786Y-57923114D01*
X93008793Y-57530833D01*
X93401074Y-57229826D01*
X93857891Y-57040606D01*
X94355004Y-56975160D01*
X98348120Y-56975160D01*
X98361825Y-56974262D01*
X98879463Y-56906114D01*
X98905940Y-56899019D01*
X99388302Y-56699218D01*
X99412040Y-56685513D01*
X99826254Y-56367676D01*
X99845636Y-56348294D01*
X100163473Y-55934080D01*
X100177178Y-55910342D01*
X100376979Y-55427980D01*
X100384074Y-55401503D01*
X100452222Y-54883865D01*
X100453120Y-54870160D01*
X100453120Y-50877044D01*
X100518566Y-50379931D01*
X100707786Y-49923114D01*
X101008793Y-49530833D01*
X101401074Y-49229826D01*
X101857891Y-49040606D01*
X102355004Y-48975160D01*
X111341236Y-48975160D01*
X111838349Y-49040606D01*
G36*
X118355400Y-73097800D02*
X117795644Y-73097800D01*
X117750160Y-73078960D01*
X117545280Y-73078960D01*
X117355996Y-73157364D01*
X117211124Y-73302236D01*
X117132720Y-73491520D01*
X117132720Y-73696400D01*
X117201808Y-73863193D01*
X117199101Y-73876802D01*
X117207720Y-73920133D01*
X117207720Y-73920137D01*
X117233249Y-74048480D01*
X117330498Y-74194024D01*
X117367237Y-74218573D01*
X117532841Y-74384177D01*
X117532840Y-84059386D01*
X116843169Y-84749057D01*
X116882560Y-84653960D01*
X116882560Y-84449080D01*
X116804156Y-84259796D01*
X116782560Y-84238200D01*
X116782560Y-74115262D01*
X116790690Y-74074390D01*
X116758481Y-73912465D01*
X116689910Y-73809841D01*
X116689909Y-73809840D01*
X116666758Y-73775192D01*
X116632110Y-73752041D01*
X116478330Y-73598261D01*
X116478330Y-73567720D01*
X116399926Y-73378436D01*
X116255054Y-73233564D01*
X116065770Y-73155160D01*
X115860890Y-73155160D01*
X115671606Y-73233564D01*
X115649720Y-73255450D01*
X115649720Y-73119880D01*
X115671316Y-73098284D01*
X115749720Y-72909000D01*
X115749720Y-72704120D01*
X115671316Y-72514836D01*
X115526444Y-72369964D01*
X115337160Y-72291560D01*
X115149719Y-72291560D01*
X115149719Y-71934688D01*
X118355400Y-68729008D01*
X118355400Y-73097800D01*
X118355400Y-73097800D01*
G37*
X118355400Y-73097800D02*
X117795644Y-73097800D01*
X117750160Y-73078960D01*
X117545280Y-73078960D01*
X117355996Y-73157364D01*
X117211124Y-73302236D01*
X117132720Y-73491520D01*
X117132720Y-73696400D01*
X117201808Y-73863193D01*
X117199101Y-73876802D01*
X117207720Y-73920133D01*
X117207720Y-73920137D01*
X117233249Y-74048480D01*
X117330498Y-74194024D01*
X117367237Y-74218573D01*
X117532841Y-74384177D01*
X117532840Y-84059386D01*
X116843169Y-84749057D01*
X116882560Y-84653960D01*
X116882560Y-84449080D01*
X116804156Y-84259796D01*
X116782560Y-84238200D01*
X116782560Y-74115262D01*
X116790690Y-74074390D01*
X116758481Y-73912465D01*
X116689910Y-73809841D01*
X116689909Y-73809840D01*
X116666758Y-73775192D01*
X116632110Y-73752041D01*
X116478330Y-73598261D01*
X116478330Y-73567720D01*
X116399926Y-73378436D01*
X116255054Y-73233564D01*
X116065770Y-73155160D01*
X115860890Y-73155160D01*
X115671606Y-73233564D01*
X115649720Y-73255450D01*
X115649720Y-73119880D01*
X115671316Y-73098284D01*
X115749720Y-72909000D01*
X115749720Y-72704120D01*
X115671316Y-72514836D01*
X115526444Y-72369964D01*
X115337160Y-72291560D01*
X115149719Y-72291560D01*
X115149719Y-71934688D01*
X118355400Y-68729008D01*
X118355400Y-73097800D01*
G04 #@! TD*
M02*
