G04 #@! TF.GenerationSoftware,KiCad,Pcbnew,(5.0.2)-1*
G04 #@! TF.CreationDate,2019-10-29T23:39:58+09:00*
G04 #@! TF.ProjectId,High_range_accelerometer,48696768-5f72-4616-9e67-655f61636365,rev?*
G04 #@! TF.SameCoordinates,Original*
G04 #@! TF.FileFunction,Soldermask,Bot*
G04 #@! TF.FilePolarity,Negative*
%FSLAX46Y46*%
G04 Gerber Fmt 4.6, Leading zero omitted, Abs format (unit mm)*
G04 Created by KiCad (PCBNEW (5.0.2)-1) date 2019/10/29 23:39:58*
%MOMM*%
%LPD*%
G01*
G04 APERTURE LIST*
%ADD10C,0.100000*%
G04 APERTURE END LIST*
D10*
G36*
X117225256Y-111741298D02*
X117331579Y-111762447D01*
X117632042Y-111886903D01*
X117898852Y-112065180D01*
X117902454Y-112067587D01*
X118132413Y-112297546D01*
X118313098Y-112567960D01*
X118437553Y-112868422D01*
X118501000Y-113187389D01*
X118501000Y-113512611D01*
X118437553Y-113831578D01*
X118313098Y-114132040D01*
X118132413Y-114402454D01*
X117902454Y-114632413D01*
X117902451Y-114632415D01*
X117632042Y-114813097D01*
X117331579Y-114937553D01*
X117225256Y-114958702D01*
X117012611Y-115001000D01*
X116687389Y-115001000D01*
X116474744Y-114958702D01*
X116368421Y-114937553D01*
X116067958Y-114813097D01*
X115797549Y-114632415D01*
X115797546Y-114632413D01*
X115567587Y-114402454D01*
X115386902Y-114132040D01*
X115262447Y-113831578D01*
X115199000Y-113512611D01*
X115199000Y-113187389D01*
X115262447Y-112868422D01*
X115386902Y-112567960D01*
X115567587Y-112297546D01*
X115797546Y-112067587D01*
X115801148Y-112065180D01*
X116067958Y-111886903D01*
X116368421Y-111762447D01*
X116474744Y-111741298D01*
X116687389Y-111699000D01*
X117012611Y-111699000D01*
X117225256Y-111741298D01*
X117225256Y-111741298D01*
G37*
G36*
X97225256Y-111741298D02*
X97331579Y-111762447D01*
X97632042Y-111886903D01*
X97898852Y-112065180D01*
X97902454Y-112067587D01*
X98132413Y-112297546D01*
X98313098Y-112567960D01*
X98437553Y-112868422D01*
X98501000Y-113187389D01*
X98501000Y-113512611D01*
X98437553Y-113831578D01*
X98313098Y-114132040D01*
X98132413Y-114402454D01*
X97902454Y-114632413D01*
X97902451Y-114632415D01*
X97632042Y-114813097D01*
X97331579Y-114937553D01*
X97225256Y-114958702D01*
X97012611Y-115001000D01*
X96687389Y-115001000D01*
X96474744Y-114958702D01*
X96368421Y-114937553D01*
X96067958Y-114813097D01*
X95797549Y-114632415D01*
X95797546Y-114632413D01*
X95567587Y-114402454D01*
X95386902Y-114132040D01*
X95262447Y-113831578D01*
X95199000Y-113512611D01*
X95199000Y-113187389D01*
X95262447Y-112868422D01*
X95386902Y-112567960D01*
X95567587Y-112297546D01*
X95797546Y-112067587D01*
X95801148Y-112065180D01*
X96067958Y-111886903D01*
X96368421Y-111762447D01*
X96474744Y-111741298D01*
X96687389Y-111699000D01*
X97012611Y-111699000D01*
X97225256Y-111741298D01*
X97225256Y-111741298D01*
G37*
G36*
X118891400Y-109433200D02*
X116889400Y-109433200D01*
X116889400Y-108031200D01*
X118891400Y-108031200D01*
X118891400Y-109433200D01*
X118891400Y-109433200D01*
G37*
G36*
X95750620Y-107504160D02*
X93748620Y-107504160D01*
X93748620Y-105302160D01*
X95750620Y-105302160D01*
X95750620Y-107504160D01*
X95750620Y-107504160D01*
G37*
G36*
X103441400Y-106933200D02*
X102139400Y-106933200D01*
X102139400Y-105831200D01*
X103441400Y-105831200D01*
X103441400Y-106933200D01*
X103441400Y-106933200D01*
G37*
G36*
X97962536Y-104610494D02*
X98071112Y-104643431D01*
X98171177Y-104696916D01*
X98258884Y-104768896D01*
X98330864Y-104856603D01*
X98384349Y-104956668D01*
X98417286Y-105065244D01*
X98428407Y-105178160D01*
X98417286Y-105291076D01*
X98384349Y-105399652D01*
X98330864Y-105499717D01*
X98258884Y-105587424D01*
X98171177Y-105659404D01*
X98071112Y-105712889D01*
X97962536Y-105745826D01*
X97877918Y-105754160D01*
X97621322Y-105754160D01*
X97536704Y-105745826D01*
X97428128Y-105712889D01*
X97328063Y-105659404D01*
X97240356Y-105587424D01*
X97168376Y-105499717D01*
X97114891Y-105399652D01*
X97081954Y-105291076D01*
X97070833Y-105178160D01*
X97081954Y-105065244D01*
X97114891Y-104956668D01*
X97168376Y-104856603D01*
X97240356Y-104768896D01*
X97328063Y-104696916D01*
X97428128Y-104643431D01*
X97536704Y-104610494D01*
X97621322Y-104602160D01*
X97877918Y-104602160D01*
X97962536Y-104610494D01*
X97962536Y-104610494D01*
G37*
G36*
X103441400Y-105233200D02*
X102139400Y-105233200D01*
X102139400Y-104431200D01*
X103441400Y-104431200D01*
X103441400Y-105233200D01*
X103441400Y-105233200D01*
G37*
G36*
X103441400Y-104133200D02*
X102139400Y-104133200D01*
X102139400Y-103331200D01*
X103441400Y-103331200D01*
X103441400Y-104133200D01*
X103441400Y-104133200D01*
G37*
G36*
X103441400Y-103033200D02*
X102139400Y-103033200D01*
X102139400Y-102231200D01*
X103441400Y-102231200D01*
X103441400Y-103033200D01*
X103441400Y-103033200D01*
G37*
G36*
X103441400Y-101933200D02*
X102139400Y-101933200D01*
X102139400Y-101131200D01*
X103441400Y-101131200D01*
X103441400Y-101933200D01*
X103441400Y-101933200D01*
G37*
G36*
X97962536Y-99760494D02*
X98071112Y-99793431D01*
X98171177Y-99846916D01*
X98258884Y-99918896D01*
X98330864Y-100006603D01*
X98384349Y-100106668D01*
X98417286Y-100215244D01*
X98428407Y-100328160D01*
X98417286Y-100441076D01*
X98384349Y-100549652D01*
X98330864Y-100649717D01*
X98258884Y-100737424D01*
X98171177Y-100809404D01*
X98071112Y-100862889D01*
X97962536Y-100895826D01*
X97877918Y-100904160D01*
X97621322Y-100904160D01*
X97536704Y-100895826D01*
X97428128Y-100862889D01*
X97328063Y-100809404D01*
X97240356Y-100737424D01*
X97168376Y-100649717D01*
X97114891Y-100549652D01*
X97081954Y-100441076D01*
X97070833Y-100328160D01*
X97081954Y-100215244D01*
X97114891Y-100106668D01*
X97168376Y-100006603D01*
X97240356Y-99918896D01*
X97328063Y-99846916D01*
X97428128Y-99793431D01*
X97536704Y-99760494D01*
X97621322Y-99752160D01*
X97877918Y-99752160D01*
X97962536Y-99760494D01*
X97962536Y-99760494D01*
G37*
G36*
X103441400Y-100833200D02*
X102139400Y-100833200D01*
X102139400Y-100031200D01*
X103441400Y-100031200D01*
X103441400Y-100833200D01*
X103441400Y-100833200D01*
G37*
G36*
X95750620Y-100204160D02*
X93748620Y-100204160D01*
X93748620Y-98002160D01*
X95750620Y-98002160D01*
X95750620Y-100204160D01*
X95750620Y-100204160D01*
G37*
G36*
X103441400Y-99733200D02*
X102139400Y-99733200D01*
X102139400Y-98931200D01*
X103441400Y-98931200D01*
X103441400Y-99733200D01*
X103441400Y-99733200D01*
G37*
G36*
X103441400Y-98633200D02*
X102139400Y-98633200D01*
X102139400Y-97831200D01*
X103441400Y-97831200D01*
X103441400Y-98633200D01*
X103441400Y-98633200D01*
G37*
G36*
X103441400Y-97533200D02*
X102139400Y-97533200D01*
X102139400Y-95781200D01*
X103441400Y-95781200D01*
X103441400Y-97533200D01*
X103441400Y-97533200D01*
G37*
G36*
X118891400Y-95783200D02*
X115989400Y-95783200D01*
X115989400Y-94681200D01*
X118891400Y-94681200D01*
X118891400Y-95783200D01*
X118891400Y-95783200D01*
G37*
G36*
X113741400Y-95783200D02*
X112839400Y-95783200D01*
X112839400Y-94681200D01*
X113741400Y-94681200D01*
X113741400Y-95783200D01*
X113741400Y-95783200D01*
G37*
G36*
X107741400Y-95783200D02*
X106439400Y-95783200D01*
X106439400Y-94681200D01*
X107741400Y-94681200D01*
X107741400Y-95783200D01*
X107741400Y-95783200D01*
G37*
G36*
X95659476Y-86809546D02*
X95832546Y-86881234D01*
X95988310Y-86985312D01*
X96120768Y-87117770D01*
X96224846Y-87273534D01*
X96296534Y-87446604D01*
X96333080Y-87630333D01*
X96333080Y-87817667D01*
X96296534Y-88001396D01*
X96224846Y-88174466D01*
X96120768Y-88330230D01*
X95988310Y-88462688D01*
X95832546Y-88566766D01*
X95659476Y-88638454D01*
X95475747Y-88675000D01*
X95288413Y-88675000D01*
X95104684Y-88638454D01*
X94931614Y-88566766D01*
X94775850Y-88462688D01*
X94643392Y-88330230D01*
X94539314Y-88174466D01*
X94467626Y-88001396D01*
X94431080Y-87817667D01*
X94431080Y-87630333D01*
X94467626Y-87446604D01*
X94539314Y-87273534D01*
X94643392Y-87117770D01*
X94775850Y-86985312D01*
X94931614Y-86881234D01*
X95104684Y-86809546D01*
X95288413Y-86773000D01*
X95475747Y-86773000D01*
X95659476Y-86809546D01*
X95659476Y-86809546D01*
G37*
G36*
X107021251Y-86313256D02*
X107060591Y-86321081D01*
X107134705Y-86351780D01*
X107201407Y-86396349D01*
X107258132Y-86453074D01*
X107302701Y-86519776D01*
X107333400Y-86593891D01*
X107349050Y-86672569D01*
X107349050Y-86752793D01*
X107341225Y-86792132D01*
X107333400Y-86831472D01*
X107302701Y-86905586D01*
X107258132Y-86972288D01*
X107201407Y-87029013D01*
X107134705Y-87073582D01*
X107060591Y-87104281D01*
X107021251Y-87112106D01*
X106981912Y-87119931D01*
X106901688Y-87119931D01*
X106862349Y-87112106D01*
X106823009Y-87104281D01*
X106748895Y-87073582D01*
X106682193Y-87029013D01*
X106625468Y-86972288D01*
X106580899Y-86905586D01*
X106550200Y-86831472D01*
X106542375Y-86792132D01*
X106534550Y-86752793D01*
X106534550Y-86672569D01*
X106550200Y-86593891D01*
X106580899Y-86519776D01*
X106625468Y-86453074D01*
X106682193Y-86396349D01*
X106748895Y-86351780D01*
X106823009Y-86321081D01*
X106862349Y-86313256D01*
X106901688Y-86305431D01*
X106981912Y-86305431D01*
X107021251Y-86313256D01*
X107021251Y-86313256D01*
G37*
G36*
X95659476Y-84309546D02*
X95832546Y-84381234D01*
X95988310Y-84485312D01*
X96120768Y-84617770D01*
X96224846Y-84773534D01*
X96296534Y-84946604D01*
X96333080Y-85130333D01*
X96333080Y-85317667D01*
X96296534Y-85501396D01*
X96224846Y-85674466D01*
X96120768Y-85830230D01*
X95988310Y-85962688D01*
X95832546Y-86066766D01*
X95659476Y-86138454D01*
X95475747Y-86175000D01*
X95288413Y-86175000D01*
X95104684Y-86138454D01*
X94931614Y-86066766D01*
X94775850Y-85962688D01*
X94643392Y-85830230D01*
X94539314Y-85674466D01*
X94467626Y-85501396D01*
X94431080Y-85317667D01*
X94431080Y-85130333D01*
X94467626Y-84946604D01*
X94539314Y-84773534D01*
X94643392Y-84617770D01*
X94775850Y-84485312D01*
X94931614Y-84381234D01*
X95104684Y-84309546D01*
X95288413Y-84273000D01*
X95475747Y-84273000D01*
X95659476Y-84309546D01*
X95659476Y-84309546D01*
G37*
G36*
X106013624Y-85305629D02*
X106052964Y-85313454D01*
X106127078Y-85344153D01*
X106193780Y-85388722D01*
X106250505Y-85445447D01*
X106295074Y-85512149D01*
X106325773Y-85586263D01*
X106341423Y-85664943D01*
X106341423Y-85745165D01*
X106325773Y-85823845D01*
X106295074Y-85897959D01*
X106250505Y-85964661D01*
X106193780Y-86021386D01*
X106127078Y-86065955D01*
X106052964Y-86096654D01*
X106013624Y-86104479D01*
X105974285Y-86112304D01*
X105894061Y-86112304D01*
X105854722Y-86104479D01*
X105815382Y-86096654D01*
X105741268Y-86065955D01*
X105674566Y-86021386D01*
X105617841Y-85964661D01*
X105573272Y-85897959D01*
X105542573Y-85823845D01*
X105526923Y-85745165D01*
X105526923Y-85664943D01*
X105542573Y-85586263D01*
X105573272Y-85512149D01*
X105617841Y-85445447D01*
X105674566Y-85388722D01*
X105741268Y-85344153D01*
X105815382Y-85313454D01*
X105854722Y-85305629D01*
X105894061Y-85297804D01*
X105974285Y-85297804D01*
X106013624Y-85305629D01*
X106013624Y-85305629D01*
G37*
G36*
X108028878Y-85305629D02*
X108068218Y-85313454D01*
X108142332Y-85344153D01*
X108209034Y-85388722D01*
X108265759Y-85445447D01*
X108310328Y-85512149D01*
X108341027Y-85586263D01*
X108356677Y-85664943D01*
X108356677Y-85745165D01*
X108341027Y-85823845D01*
X108310328Y-85897959D01*
X108265759Y-85964661D01*
X108209034Y-86021386D01*
X108142332Y-86065955D01*
X108068218Y-86096654D01*
X108028878Y-86104479D01*
X107989539Y-86112304D01*
X107909315Y-86112304D01*
X107869976Y-86104479D01*
X107830636Y-86096654D01*
X107756522Y-86065955D01*
X107689820Y-86021386D01*
X107633095Y-85964661D01*
X107588526Y-85897959D01*
X107557827Y-85823845D01*
X107542177Y-85745165D01*
X107542177Y-85664943D01*
X107557827Y-85586263D01*
X107588526Y-85512149D01*
X107633095Y-85445447D01*
X107689820Y-85388722D01*
X107756522Y-85344153D01*
X107830636Y-85313454D01*
X107869976Y-85305629D01*
X107909315Y-85297804D01*
X107989539Y-85297804D01*
X108028878Y-85305629D01*
X108028878Y-85305629D01*
G37*
G36*
X107021251Y-84298002D02*
X107060591Y-84305827D01*
X107134705Y-84336526D01*
X107201407Y-84381095D01*
X107258132Y-84437820D01*
X107302701Y-84504522D01*
X107333400Y-84578636D01*
X107349050Y-84657316D01*
X107349050Y-84737538D01*
X107333400Y-84816218D01*
X107302701Y-84890332D01*
X107258132Y-84957034D01*
X107201407Y-85013759D01*
X107134705Y-85058328D01*
X107060591Y-85089027D01*
X107021251Y-85096852D01*
X106981912Y-85104677D01*
X106901688Y-85104677D01*
X106862349Y-85096852D01*
X106823009Y-85089027D01*
X106748895Y-85058328D01*
X106682193Y-85013759D01*
X106625468Y-84957034D01*
X106580899Y-84890332D01*
X106550200Y-84816218D01*
X106534550Y-84737538D01*
X106534550Y-84657316D01*
X106550200Y-84578636D01*
X106580899Y-84504522D01*
X106625468Y-84437820D01*
X106682193Y-84381095D01*
X106748895Y-84336526D01*
X106823009Y-84305827D01*
X106862349Y-84298002D01*
X106901688Y-84290177D01*
X106981912Y-84290177D01*
X107021251Y-84298002D01*
X107021251Y-84298002D01*
G37*
G36*
X109036505Y-84298002D02*
X109075845Y-84305827D01*
X109149959Y-84336526D01*
X109216661Y-84381095D01*
X109273386Y-84437820D01*
X109317955Y-84504522D01*
X109348654Y-84578636D01*
X109364304Y-84657316D01*
X109364304Y-84737538D01*
X109348654Y-84816218D01*
X109317955Y-84890332D01*
X109273386Y-84957034D01*
X109216661Y-85013759D01*
X109149959Y-85058328D01*
X109075845Y-85089027D01*
X109036505Y-85096852D01*
X108997166Y-85104677D01*
X108916942Y-85104677D01*
X108877603Y-85096852D01*
X108838263Y-85089027D01*
X108764149Y-85058328D01*
X108697447Y-85013759D01*
X108640722Y-84957034D01*
X108596153Y-84890332D01*
X108565454Y-84816218D01*
X108549804Y-84737538D01*
X108549804Y-84657316D01*
X108565454Y-84578636D01*
X108596153Y-84504522D01*
X108640722Y-84437820D01*
X108697447Y-84381095D01*
X108764149Y-84336526D01*
X108838263Y-84305827D01*
X108877603Y-84298002D01*
X108916942Y-84290177D01*
X108997166Y-84290177D01*
X109036505Y-84298002D01*
X109036505Y-84298002D01*
G37*
G36*
X105005997Y-84298002D02*
X105045337Y-84305827D01*
X105119451Y-84336526D01*
X105186153Y-84381095D01*
X105242878Y-84437820D01*
X105287447Y-84504522D01*
X105318146Y-84578636D01*
X105333796Y-84657316D01*
X105333796Y-84737538D01*
X105318146Y-84816218D01*
X105287447Y-84890332D01*
X105242878Y-84957034D01*
X105186153Y-85013759D01*
X105119451Y-85058328D01*
X105045337Y-85089027D01*
X105005997Y-85096852D01*
X104966658Y-85104677D01*
X104886434Y-85104677D01*
X104847095Y-85096852D01*
X104807755Y-85089027D01*
X104733641Y-85058328D01*
X104666939Y-85013759D01*
X104610214Y-84957034D01*
X104565645Y-84890332D01*
X104534946Y-84816218D01*
X104519296Y-84737538D01*
X104519296Y-84657316D01*
X104534946Y-84578636D01*
X104565645Y-84504522D01*
X104610214Y-84437820D01*
X104666939Y-84381095D01*
X104733641Y-84336526D01*
X104807755Y-84305827D01*
X104847095Y-84298002D01*
X104886434Y-84290177D01*
X104966658Y-84290177D01*
X105005997Y-84298002D01*
X105005997Y-84298002D01*
G37*
G36*
X106013624Y-83290375D02*
X106052964Y-83298200D01*
X106127078Y-83328899D01*
X106193780Y-83373468D01*
X106250505Y-83430193D01*
X106295074Y-83496895D01*
X106325773Y-83571009D01*
X106341423Y-83649689D01*
X106341423Y-83729911D01*
X106325773Y-83808591D01*
X106295074Y-83882705D01*
X106250505Y-83949407D01*
X106193780Y-84006132D01*
X106127078Y-84050701D01*
X106052964Y-84081400D01*
X106013624Y-84089225D01*
X105974285Y-84097050D01*
X105894061Y-84097050D01*
X105854722Y-84089225D01*
X105815382Y-84081400D01*
X105741268Y-84050701D01*
X105674566Y-84006132D01*
X105617841Y-83949407D01*
X105573272Y-83882705D01*
X105542573Y-83808591D01*
X105526923Y-83729911D01*
X105526923Y-83649689D01*
X105542573Y-83571009D01*
X105573272Y-83496895D01*
X105617841Y-83430193D01*
X105674566Y-83373468D01*
X105741268Y-83328899D01*
X105815382Y-83298200D01*
X105854722Y-83290375D01*
X105894061Y-83282550D01*
X105974285Y-83282550D01*
X106013624Y-83290375D01*
X106013624Y-83290375D01*
G37*
G36*
X108028878Y-83290375D02*
X108068218Y-83298200D01*
X108142332Y-83328899D01*
X108209034Y-83373468D01*
X108265759Y-83430193D01*
X108310328Y-83496895D01*
X108341027Y-83571009D01*
X108356677Y-83649689D01*
X108356677Y-83729911D01*
X108341027Y-83808591D01*
X108310328Y-83882705D01*
X108265759Y-83949407D01*
X108209034Y-84006132D01*
X108142332Y-84050701D01*
X108068218Y-84081400D01*
X108028878Y-84089225D01*
X107989539Y-84097050D01*
X107909315Y-84097050D01*
X107869976Y-84089225D01*
X107830636Y-84081400D01*
X107756522Y-84050701D01*
X107689820Y-84006132D01*
X107633095Y-83949407D01*
X107588526Y-83882705D01*
X107557827Y-83808591D01*
X107542177Y-83729911D01*
X107542177Y-83649689D01*
X107557827Y-83571009D01*
X107588526Y-83496895D01*
X107633095Y-83430193D01*
X107689820Y-83373468D01*
X107756522Y-83328899D01*
X107830636Y-83298200D01*
X107869976Y-83290375D01*
X107909315Y-83282550D01*
X107989539Y-83282550D01*
X108028878Y-83290375D01*
X108028878Y-83290375D01*
G37*
G36*
X110044132Y-83290375D02*
X110083472Y-83298200D01*
X110157586Y-83328899D01*
X110224288Y-83373468D01*
X110281013Y-83430193D01*
X110325582Y-83496895D01*
X110356281Y-83571009D01*
X110371931Y-83649689D01*
X110371931Y-83729911D01*
X110356281Y-83808591D01*
X110325582Y-83882705D01*
X110281013Y-83949407D01*
X110224288Y-84006132D01*
X110157586Y-84050701D01*
X110083472Y-84081400D01*
X110044132Y-84089225D01*
X110004793Y-84097050D01*
X109924569Y-84097050D01*
X109885230Y-84089225D01*
X109845890Y-84081400D01*
X109771776Y-84050701D01*
X109705074Y-84006132D01*
X109648349Y-83949407D01*
X109603780Y-83882705D01*
X109573081Y-83808591D01*
X109557431Y-83729911D01*
X109557431Y-83649689D01*
X109573081Y-83571009D01*
X109603780Y-83496895D01*
X109648349Y-83430193D01*
X109705074Y-83373468D01*
X109771776Y-83328899D01*
X109845890Y-83298200D01*
X109885230Y-83290375D01*
X109924569Y-83282550D01*
X110004793Y-83282550D01*
X110044132Y-83290375D01*
X110044132Y-83290375D01*
G37*
G36*
X103998370Y-83290375D02*
X104037710Y-83298200D01*
X104111824Y-83328899D01*
X104178526Y-83373468D01*
X104235251Y-83430193D01*
X104279820Y-83496895D01*
X104310519Y-83571009D01*
X104326169Y-83649689D01*
X104326169Y-83729911D01*
X104310519Y-83808591D01*
X104279820Y-83882705D01*
X104235251Y-83949407D01*
X104178526Y-84006132D01*
X104111824Y-84050701D01*
X104037710Y-84081400D01*
X103998370Y-84089225D01*
X103959031Y-84097050D01*
X103878807Y-84097050D01*
X103839468Y-84089225D01*
X103800128Y-84081400D01*
X103726014Y-84050701D01*
X103659312Y-84006132D01*
X103602587Y-83949407D01*
X103558018Y-83882705D01*
X103527319Y-83808591D01*
X103511669Y-83729911D01*
X103511669Y-83649689D01*
X103527319Y-83571009D01*
X103558018Y-83496895D01*
X103602587Y-83430193D01*
X103659312Y-83373468D01*
X103726014Y-83328899D01*
X103800128Y-83298200D01*
X103839468Y-83290375D01*
X103878807Y-83282550D01*
X103959031Y-83282550D01*
X103998370Y-83290375D01*
X103998370Y-83290375D01*
G37*
G36*
X95659476Y-81809546D02*
X95832546Y-81881234D01*
X95988310Y-81985312D01*
X96120768Y-82117770D01*
X96224846Y-82273534D01*
X96296534Y-82446604D01*
X96333080Y-82630333D01*
X96333080Y-82817667D01*
X96296534Y-83001396D01*
X96224846Y-83174466D01*
X96120768Y-83330230D01*
X95988310Y-83462688D01*
X95832546Y-83566766D01*
X95659476Y-83638454D01*
X95475747Y-83675000D01*
X95288413Y-83675000D01*
X95104684Y-83638454D01*
X94931614Y-83566766D01*
X94775850Y-83462688D01*
X94643392Y-83330230D01*
X94539314Y-83174466D01*
X94467626Y-83001396D01*
X94431080Y-82817667D01*
X94431080Y-82630333D01*
X94467626Y-82446604D01*
X94539314Y-82273534D01*
X94643392Y-82117770D01*
X94775850Y-81985312D01*
X94931614Y-81881234D01*
X95104684Y-81809546D01*
X95288413Y-81773000D01*
X95475747Y-81773000D01*
X95659476Y-81809546D01*
X95659476Y-81809546D01*
G37*
G36*
X105005997Y-82282748D02*
X105045337Y-82290573D01*
X105119451Y-82321272D01*
X105186153Y-82365841D01*
X105242878Y-82422566D01*
X105287447Y-82489268D01*
X105318146Y-82563383D01*
X105331464Y-82630335D01*
X105333796Y-82642062D01*
X105333796Y-82722284D01*
X105318146Y-82800964D01*
X105287447Y-82875078D01*
X105242878Y-82941780D01*
X105186153Y-82998505D01*
X105119451Y-83043074D01*
X105045337Y-83073773D01*
X105005997Y-83081598D01*
X104966658Y-83089423D01*
X104886434Y-83089423D01*
X104847095Y-83081598D01*
X104807755Y-83073773D01*
X104733641Y-83043074D01*
X104666939Y-82998505D01*
X104610214Y-82941780D01*
X104565645Y-82875078D01*
X104534946Y-82800964D01*
X104519296Y-82722284D01*
X104519296Y-82642062D01*
X104521629Y-82630335D01*
X104534946Y-82563383D01*
X104565645Y-82489268D01*
X104610214Y-82422566D01*
X104666939Y-82365841D01*
X104733641Y-82321272D01*
X104807755Y-82290573D01*
X104847095Y-82282748D01*
X104886434Y-82274923D01*
X104966658Y-82274923D01*
X105005997Y-82282748D01*
X105005997Y-82282748D01*
G37*
G36*
X107021251Y-82282748D02*
X107060591Y-82290573D01*
X107134705Y-82321272D01*
X107201407Y-82365841D01*
X107258132Y-82422566D01*
X107302701Y-82489268D01*
X107333400Y-82563383D01*
X107346718Y-82630335D01*
X107349050Y-82642062D01*
X107349050Y-82722284D01*
X107333400Y-82800964D01*
X107302701Y-82875078D01*
X107258132Y-82941780D01*
X107201407Y-82998505D01*
X107134705Y-83043074D01*
X107060591Y-83073773D01*
X107021251Y-83081598D01*
X106981912Y-83089423D01*
X106901688Y-83089423D01*
X106862349Y-83081598D01*
X106823009Y-83073773D01*
X106748895Y-83043074D01*
X106682193Y-82998505D01*
X106625468Y-82941780D01*
X106580899Y-82875078D01*
X106550200Y-82800964D01*
X106534550Y-82722284D01*
X106534550Y-82642062D01*
X106536883Y-82630335D01*
X106550200Y-82563383D01*
X106580899Y-82489268D01*
X106625468Y-82422566D01*
X106682193Y-82365841D01*
X106748895Y-82321272D01*
X106823009Y-82290573D01*
X106862349Y-82282748D01*
X106901688Y-82274923D01*
X106981912Y-82274923D01*
X107021251Y-82282748D01*
X107021251Y-82282748D01*
G37*
G36*
X109036505Y-82282748D02*
X109075845Y-82290573D01*
X109149959Y-82321272D01*
X109216661Y-82365841D01*
X109273386Y-82422566D01*
X109317955Y-82489268D01*
X109348654Y-82563383D01*
X109361972Y-82630335D01*
X109364304Y-82642062D01*
X109364304Y-82722284D01*
X109348654Y-82800964D01*
X109317955Y-82875078D01*
X109273386Y-82941780D01*
X109216661Y-82998505D01*
X109149959Y-83043074D01*
X109075845Y-83073773D01*
X109036505Y-83081598D01*
X108997166Y-83089423D01*
X108916942Y-83089423D01*
X108877603Y-83081598D01*
X108838263Y-83073773D01*
X108764149Y-83043074D01*
X108697447Y-82998505D01*
X108640722Y-82941780D01*
X108596153Y-82875078D01*
X108565454Y-82800964D01*
X108549804Y-82722284D01*
X108549804Y-82642062D01*
X108552137Y-82630335D01*
X108565454Y-82563383D01*
X108596153Y-82489268D01*
X108640722Y-82422566D01*
X108697447Y-82365841D01*
X108764149Y-82321272D01*
X108838263Y-82290573D01*
X108877603Y-82282748D01*
X108916942Y-82274923D01*
X108997166Y-82274923D01*
X109036505Y-82282748D01*
X109036505Y-82282748D01*
G37*
G36*
X108028878Y-81275121D02*
X108068218Y-81282946D01*
X108142332Y-81313645D01*
X108209034Y-81358214D01*
X108265759Y-81414939D01*
X108310328Y-81481641D01*
X108341027Y-81555755D01*
X108356677Y-81634435D01*
X108356677Y-81714657D01*
X108341027Y-81793337D01*
X108310328Y-81867451D01*
X108265759Y-81934153D01*
X108209034Y-81990878D01*
X108142332Y-82035447D01*
X108068218Y-82066146D01*
X108028878Y-82073971D01*
X107989539Y-82081796D01*
X107909315Y-82081796D01*
X107869976Y-82073971D01*
X107830636Y-82066146D01*
X107756522Y-82035447D01*
X107689820Y-81990878D01*
X107633095Y-81934153D01*
X107588526Y-81867451D01*
X107557827Y-81793337D01*
X107542177Y-81714657D01*
X107542177Y-81634435D01*
X107557827Y-81555755D01*
X107588526Y-81481641D01*
X107633095Y-81414939D01*
X107689820Y-81358214D01*
X107756522Y-81313645D01*
X107830636Y-81282946D01*
X107869976Y-81275121D01*
X107909315Y-81267296D01*
X107989539Y-81267296D01*
X108028878Y-81275121D01*
X108028878Y-81275121D01*
G37*
G36*
X106013624Y-81275121D02*
X106052964Y-81282946D01*
X106127078Y-81313645D01*
X106193780Y-81358214D01*
X106250505Y-81414939D01*
X106295074Y-81481641D01*
X106325773Y-81555755D01*
X106341423Y-81634435D01*
X106341423Y-81714657D01*
X106325773Y-81793337D01*
X106295074Y-81867451D01*
X106250505Y-81934153D01*
X106193780Y-81990878D01*
X106127078Y-82035447D01*
X106052964Y-82066146D01*
X106013624Y-82073971D01*
X105974285Y-82081796D01*
X105894061Y-82081796D01*
X105854722Y-82073971D01*
X105815382Y-82066146D01*
X105741268Y-82035447D01*
X105674566Y-81990878D01*
X105617841Y-81934153D01*
X105573272Y-81867451D01*
X105542573Y-81793337D01*
X105526923Y-81714657D01*
X105526923Y-81634435D01*
X105542573Y-81555755D01*
X105573272Y-81481641D01*
X105617841Y-81414939D01*
X105674566Y-81358214D01*
X105741268Y-81313645D01*
X105815382Y-81282946D01*
X105854722Y-81275121D01*
X105894061Y-81267296D01*
X105974285Y-81267296D01*
X106013624Y-81275121D01*
X106013624Y-81275121D01*
G37*
G36*
X95659476Y-79309546D02*
X95832546Y-79381234D01*
X95988310Y-79485312D01*
X96120768Y-79617770D01*
X96224846Y-79773534D01*
X96296534Y-79946604D01*
X96333080Y-80130333D01*
X96333080Y-80317667D01*
X96296534Y-80501396D01*
X96224846Y-80674466D01*
X96120768Y-80830230D01*
X95988310Y-80962688D01*
X95832546Y-81066766D01*
X95659476Y-81138454D01*
X95475747Y-81175000D01*
X95288413Y-81175000D01*
X95104684Y-81138454D01*
X94931614Y-81066766D01*
X94775850Y-80962688D01*
X94643392Y-80830230D01*
X94539314Y-80674466D01*
X94467626Y-80501396D01*
X94431080Y-80317667D01*
X94431080Y-80130333D01*
X94467626Y-79946604D01*
X94539314Y-79773534D01*
X94643392Y-79617770D01*
X94775850Y-79485312D01*
X94931614Y-79381234D01*
X95104684Y-79309546D01*
X95288413Y-79273000D01*
X95475747Y-79273000D01*
X95659476Y-79309546D01*
X95659476Y-79309546D01*
G37*
G36*
X107021251Y-80267494D02*
X107060591Y-80275319D01*
X107134705Y-80306018D01*
X107201407Y-80350587D01*
X107258132Y-80407312D01*
X107302701Y-80474014D01*
X107333400Y-80548128D01*
X107349050Y-80626808D01*
X107349050Y-80707030D01*
X107333400Y-80785710D01*
X107302701Y-80859824D01*
X107258132Y-80926526D01*
X107201407Y-80983251D01*
X107134705Y-81027820D01*
X107060591Y-81058519D01*
X107021251Y-81066344D01*
X106981912Y-81074169D01*
X106901688Y-81074169D01*
X106862349Y-81066344D01*
X106823009Y-81058519D01*
X106748895Y-81027820D01*
X106682193Y-80983251D01*
X106625468Y-80926526D01*
X106580899Y-80859824D01*
X106550200Y-80785710D01*
X106534550Y-80707030D01*
X106534550Y-80626808D01*
X106550200Y-80548128D01*
X106580899Y-80474014D01*
X106625468Y-80407312D01*
X106682193Y-80350587D01*
X106748895Y-80306018D01*
X106823009Y-80275319D01*
X106862349Y-80267494D01*
X106901688Y-80259669D01*
X106981912Y-80259669D01*
X107021251Y-80267494D01*
X107021251Y-80267494D01*
G37*
G36*
X96333080Y-78675000D02*
X94431080Y-78675000D01*
X94431080Y-76773000D01*
X96333080Y-76773000D01*
X96333080Y-78675000D01*
X96333080Y-78675000D01*
G37*
G36*
X108324747Y-61457197D02*
X108437973Y-61491544D01*
X108494587Y-61508717D01*
X108633207Y-61582812D01*
X108651111Y-61592382D01*
X108686849Y-61621712D01*
X108788306Y-61704974D01*
X108871568Y-61806431D01*
X108900898Y-61842169D01*
X108984563Y-61998694D01*
X109036083Y-62168534D01*
X109049120Y-62300903D01*
X109049120Y-62639418D01*
X109036083Y-62771787D01*
X109001736Y-62885013D01*
X108984563Y-62941627D01*
X108910468Y-63080247D01*
X108900898Y-63098151D01*
X108871568Y-63133889D01*
X108788306Y-63235346D01*
X108651109Y-63347939D01*
X108494586Y-63431603D01*
X108453853Y-63443959D01*
X108324746Y-63483123D01*
X108148120Y-63500519D01*
X107971493Y-63483123D01*
X107842386Y-63443959D01*
X107801653Y-63431603D01*
X107645131Y-63347939D01*
X107645129Y-63347938D01*
X107602869Y-63313256D01*
X107507934Y-63235346D01*
X107395341Y-63098149D01*
X107311677Y-62941626D01*
X107294504Y-62885012D01*
X107260157Y-62771786D01*
X107247120Y-62639417D01*
X107247120Y-62300902D01*
X107260157Y-62168533D01*
X107311677Y-61998694D01*
X107311677Y-61998693D01*
X107395342Y-61842168D01*
X107507932Y-61704977D01*
X107602870Y-61627064D01*
X107645130Y-61592382D01*
X107663034Y-61582812D01*
X107801654Y-61508717D01*
X107858268Y-61491544D01*
X107971494Y-61457197D01*
X108148120Y-61439801D01*
X108324747Y-61457197D01*
X108324747Y-61457197D01*
G37*
G36*
X105824747Y-61457197D02*
X105937973Y-61491544D01*
X105994587Y-61508717D01*
X106133207Y-61582812D01*
X106151111Y-61592382D01*
X106186849Y-61621712D01*
X106288306Y-61704974D01*
X106371568Y-61806431D01*
X106400898Y-61842169D01*
X106484563Y-61998694D01*
X106536083Y-62168534D01*
X106549120Y-62300903D01*
X106549120Y-62639418D01*
X106536083Y-62771787D01*
X106501736Y-62885013D01*
X106484563Y-62941627D01*
X106410468Y-63080247D01*
X106400898Y-63098151D01*
X106371568Y-63133889D01*
X106288306Y-63235346D01*
X106151109Y-63347939D01*
X105994586Y-63431603D01*
X105953853Y-63443959D01*
X105824746Y-63483123D01*
X105648120Y-63500519D01*
X105471493Y-63483123D01*
X105342386Y-63443959D01*
X105301653Y-63431603D01*
X105145131Y-63347939D01*
X105145129Y-63347938D01*
X105102869Y-63313256D01*
X105007934Y-63235346D01*
X104895341Y-63098149D01*
X104811677Y-62941626D01*
X104794504Y-62885012D01*
X104760157Y-62771786D01*
X104747120Y-62639417D01*
X104747120Y-62300902D01*
X104760157Y-62168533D01*
X104811677Y-61998694D01*
X104811677Y-61998693D01*
X104895342Y-61842168D01*
X105007932Y-61704977D01*
X105102870Y-61627064D01*
X105145130Y-61592382D01*
X105163034Y-61582812D01*
X105301654Y-61508717D01*
X105358268Y-61491544D01*
X105471494Y-61457197D01*
X105648120Y-61439801D01*
X105824747Y-61457197D01*
X105824747Y-61457197D01*
G37*
G36*
X103324747Y-61457197D02*
X103437973Y-61491544D01*
X103494587Y-61508717D01*
X103633207Y-61582812D01*
X103651111Y-61592382D01*
X103686849Y-61621712D01*
X103788306Y-61704974D01*
X103871568Y-61806431D01*
X103900898Y-61842169D01*
X103984563Y-61998694D01*
X104036083Y-62168534D01*
X104049120Y-62300903D01*
X104049120Y-62639418D01*
X104036083Y-62771787D01*
X104001736Y-62885013D01*
X103984563Y-62941627D01*
X103910468Y-63080247D01*
X103900898Y-63098151D01*
X103871568Y-63133889D01*
X103788306Y-63235346D01*
X103651109Y-63347939D01*
X103494586Y-63431603D01*
X103453853Y-63443959D01*
X103324746Y-63483123D01*
X103148120Y-63500519D01*
X102971493Y-63483123D01*
X102842386Y-63443959D01*
X102801653Y-63431603D01*
X102645131Y-63347939D01*
X102645129Y-63347938D01*
X102602869Y-63313256D01*
X102507934Y-63235346D01*
X102395341Y-63098149D01*
X102311677Y-62941626D01*
X102294504Y-62885012D01*
X102260157Y-62771786D01*
X102247120Y-62639417D01*
X102247120Y-62300902D01*
X102260157Y-62168533D01*
X102311677Y-61998694D01*
X102311677Y-61998693D01*
X102395342Y-61842168D01*
X102507932Y-61704977D01*
X102602870Y-61627064D01*
X102645130Y-61592382D01*
X102663034Y-61582812D01*
X102801654Y-61508717D01*
X102858268Y-61491544D01*
X102971494Y-61457197D01*
X103148120Y-61439801D01*
X103324747Y-61457197D01*
X103324747Y-61457197D01*
G37*
G36*
X111406720Y-61448149D02*
X111439769Y-61458174D01*
X111470226Y-61474454D01*
X111496919Y-61496361D01*
X111518826Y-61523054D01*
X111535106Y-61553511D01*
X111545131Y-61586560D01*
X111549120Y-61627064D01*
X111549120Y-63313256D01*
X111545131Y-63353760D01*
X111535106Y-63386809D01*
X111518826Y-63417266D01*
X111496919Y-63443959D01*
X111470226Y-63465866D01*
X111439769Y-63482146D01*
X111406720Y-63492171D01*
X111366216Y-63496160D01*
X109930024Y-63496160D01*
X109889520Y-63492171D01*
X109856471Y-63482146D01*
X109826014Y-63465866D01*
X109799321Y-63443959D01*
X109777414Y-63417266D01*
X109761134Y-63386809D01*
X109751109Y-63353760D01*
X109747120Y-63313256D01*
X109747120Y-61627064D01*
X109751109Y-61586560D01*
X109761134Y-61553511D01*
X109777414Y-61523054D01*
X109799321Y-61496361D01*
X109826014Y-61474454D01*
X109856471Y-61458174D01*
X109889520Y-61448149D01*
X109930024Y-61444160D01*
X111366216Y-61444160D01*
X111406720Y-61448149D01*
X111406720Y-61448149D01*
G37*
G36*
X117225256Y-51741298D02*
X117331579Y-51762447D01*
X117632042Y-51886903D01*
X117898852Y-52065180D01*
X117902454Y-52067587D01*
X118132413Y-52297546D01*
X118313098Y-52567960D01*
X118437553Y-52868422D01*
X118501000Y-53187389D01*
X118501000Y-53512611D01*
X118437553Y-53831578D01*
X118313098Y-54132040D01*
X118132413Y-54402454D01*
X117902454Y-54632413D01*
X117902451Y-54632415D01*
X117632042Y-54813097D01*
X117331579Y-54937553D01*
X117225256Y-54958702D01*
X117012611Y-55001000D01*
X116687389Y-55001000D01*
X116474744Y-54958702D01*
X116368421Y-54937553D01*
X116067958Y-54813097D01*
X115797549Y-54632415D01*
X115797546Y-54632413D01*
X115567587Y-54402454D01*
X115386902Y-54132040D01*
X115262447Y-53831578D01*
X115199000Y-53512611D01*
X115199000Y-53187389D01*
X115262447Y-52868422D01*
X115386902Y-52567960D01*
X115567587Y-52297546D01*
X115797546Y-52067587D01*
X115801148Y-52065180D01*
X116067958Y-51886903D01*
X116368421Y-51762447D01*
X116474744Y-51741298D01*
X116687389Y-51699000D01*
X117012611Y-51699000D01*
X117225256Y-51741298D01*
X117225256Y-51741298D01*
G37*
G36*
X97225256Y-51741298D02*
X97331579Y-51762447D01*
X97632042Y-51886903D01*
X97898852Y-52065180D01*
X97902454Y-52067587D01*
X98132413Y-52297546D01*
X98313098Y-52567960D01*
X98437553Y-52868422D01*
X98501000Y-53187389D01*
X98501000Y-53512611D01*
X98437553Y-53831578D01*
X98313098Y-54132040D01*
X98132413Y-54402454D01*
X97902454Y-54632413D01*
X97902451Y-54632415D01*
X97632042Y-54813097D01*
X97331579Y-54937553D01*
X97225256Y-54958702D01*
X97012611Y-55001000D01*
X96687389Y-55001000D01*
X96474744Y-54958702D01*
X96368421Y-54937553D01*
X96067958Y-54813097D01*
X95797549Y-54632415D01*
X95797546Y-54632413D01*
X95567587Y-54402454D01*
X95386902Y-54132040D01*
X95262447Y-53831578D01*
X95199000Y-53512611D01*
X95199000Y-53187389D01*
X95262447Y-52868422D01*
X95386902Y-52567960D01*
X95567587Y-52297546D01*
X95797546Y-52067587D01*
X95801148Y-52065180D01*
X96067958Y-51886903D01*
X96368421Y-51762447D01*
X96474744Y-51741298D01*
X96687389Y-51699000D01*
X97012611Y-51699000D01*
X97225256Y-51741298D01*
X97225256Y-51741298D01*
G37*
M02*
